<svg xmlns="http://www.w3.org/2000/svg" xmlns:svg="http://www.w3.org/2000/svg" id="svg2" width="672" height="240" version="1.1"><metadata id="metadata90"/><title id="title8473">Faba Symbolic Icon Theme</title><g id="layer9" transform="translate(-241.0002,7)"><text style="font-size:12px;text-align:start;line-height:125%;fill:#fff;stroke:none;font-family:Droid Sans" id="text6726" x="270.473" y="82.883" font-size="12" line-height="125%" text-align="start"><tspan id="tspan6728" x="270.473" y="82.883">status</tspan></text><flowRoot style="font-size:40px;line-height:125%;letter-spacing:0;word-spacing:0;fill:#000;stroke:none;font-family:Andron Freefont LAT" id="flowRoot6246" font-size="40" letter-spacing="0" line-height="125%" transform="translate(241.0002,217)" word-spacing="0"><flowRegion id="flowRegion6248"><rect id="rect6251" width="44" height="50" x="-76" y="-838"/></flowRegion><flowPara id="flowPara6253">Mok</flowPara></flowRoot><flowRoot style="font-size:40px;line-height:125%;letter-spacing:0;word-spacing:0;fill:#000;stroke:none;font-family:Andron Freefont LAT" id="flowRoot6255" font-size="40" letter-spacing="0" line-height="125%" transform="translate(241.0002,217)" word-spacing="0"><flowRegion id="flowRegion6257"><rect id="rect6259" width="545" height="68" x="-179" y="-752"/></flowRegion><flowPara id="flowPara6261"/></flowRoot><g id="g5144" transform="matrix(1.5,0,0,1.5,203.50027,-326.5)"><path style="color:#000;fill:#bebebe;stroke:none" id="path3991-1" d="m 320,74 0,3 -2.5,0 c -2.46705,0 -4.5,2.03295 -4.5,4.5 l 0,6 c 0,2.46705 2.03295,4.5 4.5,4.5 l 1.5,0 1,0 5,0 4.5,0 c 2.46705,0 4.5,-2.03295 4.5,-4.5 l 0,-6 c 0,-2.46705 -2,-4.5 -4.5,-4.5 l -0.375,0 -1.125,0 0,0.75 0,1.5 0,0.75 1.125,0 0.375,0 c 0.85695,0 1.5,0.64305 1.5,1.5 l 0,6 c 0,0.85695 -0.64305,1.5 -1.5,1.5 l -4.5,0 -5,0 -1,0 -1.5,0 c -0.85695,0 -1.5,-0.64305 -1.5,-1.5 l 0,-6 c 0,-0.85695 0.64305,-1.5 1.5,-1.5 l 2.5,0 0,3 6,-4.5 -6,-4.5 z" transform="matrix(0.66666667,0,0,0.66666667,-167.00005,229)"/><rect style="color:#bebebe;fill:none;stroke:none" id="rect3215" width="16" height="16" x="41" y="277"/></g><g id="g6069" transform="matrix(1.5,0,0,1.5,197.50028,-326.5)"><path style="color:#bebebe;fill:#bebebe;stroke:none" id="path4544-6" d="m 61.666613,280.33333 0,0.9375 0,1.0625 3.705372,0 c 0.5713,0 1,0.4287 1,1 l 0,4 c 0,1.6447 1.3553,3 3,3 l 5.294628,0 0,-2 -5.294628,0 c -0.5713,0 -1,-0.4287 -1,-1 l 0,-4 c 0,-1.6447 -1.3553,-3 -3,-3 z"/><path style="color:#bebebe;fill:#bebebe;stroke:none" id="path4544-1-5" d="m 69.371985,280.33333 c -0.22957,0 -0.44085,0.0438 -0.65625,0.0937 0.4813,0.5511 0.86125,1.1776 1.0312,1.9062 l 4.919628,0 0,-2 -5.294628,0 z m -7.705372,10 3.705372,0 c 0.22957,0 0.44085,-0.0438 0.65625,-0.0937 -0.4813,-0.55115 -0.86125,-1.1777 -1.0312,-1.9063 l -3.330422,0 z"/><path style="fill:#bebebe;stroke:none" id="path3003-08" d="m 72.333533,278.33333 0,6 4,-3 z"/><path style="fill:#bebebe;stroke:none" id="path3773" d="m 72.333533,286.33333 0,6 4,-3 z"/><rect style="color:#bebebe;fill:none;stroke:none" id="rect3215-3" width="16" height="16" x="61" y="277"/></g><g id="g3568" transform="matrix(-1.5,0,0,1.5,428.50012,-326.5)"><path style="color:#bebebe;fill:#bebebe;stroke:none" id="path3570" d="m 61.666613,280.33333 0,0.9375 0,1.0625 3.705372,0 c 0.5713,0 1,0.4287 1,1 l 0,4 c 0,1.6447 1.3553,3 3,3 l 5.294628,0 0,-2 -5.294628,0 c -0.5713,0 -1,-0.4287 -1,-1 l 0,-4 c 0,-1.6447 -1.3553,-3 -3,-3 z"/><path style="color:#bebebe;fill:#bebebe;stroke:none" id="path3572" d="m 69.371985,280.33333 c -0.22957,0 -0.44085,0.0438 -0.65625,0.0937 0.4813,0.5511 0.86125,1.1776 1.0312,1.9062 l 4.919628,0 0,-2 -5.294628,0 z m -7.705372,10 3.705372,0 c 0.22957,0 0.44085,-0.0438 0.65625,-0.0937 -0.4813,-0.55115 -0.86125,-1.1777 -1.0312,-1.9063 l -3.330422,0 z"/><path style="fill:#bebebe;stroke:none" id="path3574" d="m 72.333533,278.33333 0,6 4,-3 z"/><path style="fill:#bebebe;stroke:none" id="path3576" d="m 72.333533,286.33333 0,6 4,-3 z"/><rect style="color:#bebebe;fill:none;stroke:none" id="rect3578" width="16" height="16" x="61" y="277"/></g></g><g id="layer1" transform="translate(0,24)"><g id="g3184" transform="translate(-601.00018,-65)"><rect style="opacity:.2146442;color:#bebebe;fill:none;stroke:none;stroke-width:3;marker:none;visibility:visible;display:inline;overflow:visible;enable-background:accumulate" id="rect10821-6-8-6" width="24" height="24" x="625" y="89"/><path id="rect2997" d="m 631.99875,94 0,6 -1,0 c -1,0 -1,1 -1,1 l 0,5 2,0 0,2 10,0 0,-2 2,0 0,-5 c 0,0 0.108,-1 -1,-1 l -1,0 0,-6 -10,0 z m 1,1 8,0 0,5 -8,0 0,-5 z m -1,7 1,0 0,1 -1,0 0,-1 z m 1,4 8,0 0,1 -8,0 0,-1 z" style="color:#000;fill:#bebebe;fill-opacity:1;fill-rule:nonzero;stroke:none;stroke-width:4;marker:none;visibility:visible;display:inline;overflow:visible;enable-background:accumulate"/></g><text style="font-size:12px;text-align:start;line-height:125%;fill:#fff;stroke:none;font-family:Droid Sans" id="text3192" x="29.473" y="15.883" font-size="12" line-height="125%" text-align="start"><tspan id="tspan3194" x="29.473" y="15.883">panel</tspan></text></g><g id="layer12" transform="translate(-241.0002,7)"><g id="g6040" transform="translate(23.999973,0)"><path style="color:#bebebe;fill:#bebebe;stroke:none" id="path6042" d="m 487.0002,166 0,2 0,10 0,2 10,0 2,0 0,-2 0,-10 0,-2 -2,0 -8,0 z m 6,4 4,3 -4,3 0,-2 -4,0 0,-2 4,0 z"/><rect style="color:#000;fill:none;stroke:none" id="rect6044" width="24" height="24" x="481" y="161"/><rect style="color:#000;fill:none;stroke:none" id="rect6046" width="24" height="24" x="481" y="161"/></g><g id="g6014" transform="translate(24.000034,0)"><rect style="fill:none;stroke:none" id="rect6016" width="24" height="24" x="553" y="161.007"/><g id="g6018" transform="translate(557.0002,165)"><path style="color:#bebebe;fill:#bebebe;stroke:none" id="path6020" d="m 316,146 0,20 16,0 -3e-5,-5 -2,0 3e-5,3 -12,0 0,-16 12,0 -3e-5,3 2,0 3e-5,-5 z" transform="translate(-316,-148)"/></g><path style="fill:#bebebe;stroke:none" id="path6024" d="m 568.21169,167.00049 -1.38509,1.38585 3.63493,3.63476 -8.46136,-0.0211 0,2 8.46136,0.0211 -3.63493,3.6344 1.38509,1.38509 6.00086,-6.04062 z"/></g><text style="font-size:12px;text-align:start;line-height:125%;fill:#fff;stroke:none;font-family:Droid Sans" id="text6730-2-8" x="272.449" y="149.945" font-size="12" line-height="125%" text-align="start"><tspan id="tspan6732-6-9" x="272.449" y="149.945">actions</tspan></text><g id="g4135" transform="matrix(1.5,0,0,1.5,253.0002,-569.5)"><rect style="color:#000;fill:none;stroke:none" id="rect3246-4-1" width="16" height="16" x="40" y="487"/><path style="fill:#bebebe;stroke:none" id="path3807-1-1-9-38-4" d="m 42.666667,488.81818 0,12.36364 L 54,495 43.800795,489.4368 z"/></g><g id="g4161" transform="matrix(1.5,0,0,1.5,235.0002,-569.5)"><rect style="color:#000;fill:none;stroke:none" id="rect3246-4-3" width="16" height="16" x="100" y="487"/><path style="fill:#bebebe;stroke:none" id="path3807-1-1-5-8" d="m 102.66667,489.66667 0,10.66667 10.66667,0 0,-10.66667 z"/></g><g id="g4165" transform="matrix(1.5,0,0,1.5,229.0002,-569.5)"><rect style="color:#000;fill:none;stroke:none" id="rect3246-4-3-8" width="16" height="16" x="120" y="487"/><path style="fill:#bebebe;stroke:none" id="path3807-1-1-5-8-6" d="m 122.66667,489.66667 0,10.66667 4,0 0,-10.66667 z"/><path style="fill:#bebebe;stroke:none" id="path3807-1-1-5-8-6-3" d="m 129.33333,489.66667 0,10.66667 4.00001,0 0,-10.66667 z"/></g><g id="g4126" transform="matrix(1.5,0,0,1.5,258.99982,-569.5)"><rect style="color:#000;fill:none;stroke:none" id="rect3246-4-38" width="16" height="16" x="-36" y="487" transform="scale(-1,1)"/><path style="fill:#bebebe;stroke:none" id="path3807-1-1-4-7-2" d="m 28.000253,495 6.666667,4 0,-8 z"/><path style="fill:#bebebe;stroke:none" id="path3807-1-1-4-7-2-0" d="m 21.333587,495 6.666666,4 0,-8 z"/></g><g id="g4179" transform="matrix(1.5,0,0,1.5,217.0002,-569.5)"><rect style="color:#000;fill:none;stroke:none" id="rect3246-4-6" width="16" height="16" x="160" y="487"/><path style="fill:#bebebe;stroke:none" id="path4646-0" d="m 168,489.66666 c -2.9432,0 -5.33333,2.39013 -5.33333,5.33334 0,2.9432 2.39013,5.33333 5.33333,5.33333 2.9432,0 5.33334,-2.39013 5.33334,-5.33333 0,-2.94321 -2.39014,-5.33334 -5.33334,-5.33334 z"/></g><g id="g5997" transform="matrix(1.5,0,0,1.5,161.4996,-929.5)"><rect style="color:#000;fill:none;stroke:none" id="rect3246-44-7" width="16" height="16" x="-197" y="727" transform="scale(-1,1)"/><path style="color:#000;fill:#bebebe;stroke:none;display:block" id="path696" d="M 189.00039,729.66666 183.66706,735 l 0,1.33333 10.66667,0 0,-1.33333 z m -5.33332,8.66667 -1e-5,2 10.66667,0 1e-5,-2 z" display="block"/></g><g id="g6035" transform="matrix(-1,0,0,1,986.00043,0)"><path style="color:#bebebe;fill:#bebebe;stroke:none" id="path6001-9" d="m 487.0002,166 0,2 0,10 0,2 10,0 2,0 0,-2 0,-10 0,-2 -2,0 -8,0 z m 6,4 4,3 -4,3 0,-2 -4,0 0,-2 4,0 z"/><rect style="color:#000;fill:none;stroke:none" id="rect5996" width="24" height="24" x="481" y="161"/><rect style="color:#000;fill:none;stroke:none" id="rect5998" width="24" height="24" x="481" y="161"/></g><g id="g5173" transform="matrix(1.5,0,0,1.5,-101.0001,207.5)"><rect style="color:#000;fill:none;stroke:none" id="rect5158" width="16" height="16" x="-260" y="-31" transform="scale(-1,1)"/><path style="fill:#bebebe;stroke:none" id="path5160" d="m 3,440 0,8 2,0 0,-4 0,-4 z m 2,4 6.666667,4 0,-4 0,-4 z m 6.666667,0 6.666666,4 0,-8 z" transform="translate(241.0002,-467)"/></g><g id="g5889" transform="matrix(-1.5,0,0,1.5,391.00058,-569.5)"><rect style="color:#000;fill:none;stroke:none" id="rect5891" width="16" height="16" x="-36" y="487" transform="scale(-1,1)"/><path style="fill:#bebebe;stroke:none" id="path5893" d="m 28.000253,495 6.666667,4 0,-8 z"/><path style="fill:#bebebe;stroke:none" id="path5895" d="m 21.333587,495 6.666666,4 0,-8 z"/></g><g id="g5897" transform="matrix(-1.5,0,0,1.5,751.0005,207.5)"><rect style="color:#000;fill:none;stroke:none" id="rect5899" width="16" height="16" x="-260" y="-31" transform="scale(-1,1)"/><path style="fill:#bebebe;stroke:none" id="path5901" d="m 3,440 0,8 2,0 0,-4 0,-4 z m 2,4 6.666667,4 0,-4 0,-4 z m 6.666667,0 6.666666,4 0,-8 z" transform="translate(241.0002,-467)"/></g><g id="g5932" transform="translate(215.99971,-24)"><rect style="color:#000;fill:none;stroke:none" id="rect5905" width="24" height="24" x="313" y="185"/><g id="layer12-5" transform="matrix(1.8,0,0,1.8,202.60021,-1124.2)"><path style="color:#bebebe;fill:#bebebe;stroke:none" id="rect31992" d="m 66.888889,729 0,3.88889 -3.888889,0 0,2.22222 3.888889,0 0,3.88889 2.222222,0 0,-3.88889 3.888889,0 0,-2.22222 -3.888889,0 0,-3.88889 z"/></g></g><g id="g5995"><rect style="fill:none;stroke:none" id="rect5866" width="24" height="24" x="553" y="161.007"/><g id="g5871" transform="translate(557.0002,165)"><path style="color:#bebebe;fill:#bebebe;stroke:none" id="path5875" d="m 316,146 0,20 16,0 0,-8 -2,0 0,6 -12,0 0,-16 12,0 0,6 2,0 0,-8 z" transform="translate(-316,-148)"/></g><path style="fill:#bebebe;stroke:none" id="path4765" d="m 567.78868,167.00049 1.38509,1.38585 -3.63493,3.63476 8.46136,-0.0211 0,2 -8.46136,0.0211 3.63493,3.6344 -1.38509,1.38509 -6.00086,-6.04062 z"/></g><g style="stroke-linejoin:round" id="g7272" transform="matrix(1.5,0,0,1.5,-0.47311238,117.49997)"><path style="color:#bebebe;fill:#bebebe;stroke:none" id="path7274" d="m 406.20852,30.995978 c -0.25613,0.0339 -0.497,0.17155 -0.65625,0.375 l -4,4.666823 c -0.28127,0.35137 -0.28127,0.89863 0,1.25 l 4,4.666594 c 0.20539,0.2592 0.54566,0.40503 0.875,0.375 0.01,7.7e-4 0.0212,-5.1e-4 0.0312,0 0.0201,0.001 0.0421,0 0.0625,0 l 8.625,0 c 0.6627,0 1.1875,-0.54894 1.1875,-1.21875 l 0,-8.895917 c 1e-4,-0.66976 -0.52475,-1.21875 -1.18745,-1.21875 l -8.625,0 c -0.0416,-0.003 -0.0834,-0.003 -0.125,0 -0.0623,-0.006 -0.12518,-0.006 -0.1875,0 z m 0.79168,2.666823 1,0 c 0.27614,0 0.53779,0.10029 0.71875,0.28125 l 1.28125,1.28125 1.28125,-1.28125 c 0.18096,-0.18096 0.44292,-0.26812 0.71875,-0.28125 l 1,0 0,1 c 0,0.27614 -0.12201,0.51841 -0.28125,0.71875 l -1.28125,1.28125 1.28125,1.28125 c 0.18096,0.18096 0.19393,0.45678 0.28125,0.71875 l 0,1 -1,0 c -0.27549,0.019 -0.56909,-0.0737 -0.71875,-0.28125 l -1.28125,-1.28125 -1.28125,1.28125 c -0.18096,0.18096 -0.44261,0.28125 -0.71875,0.28125 l -1,0 0,-1 c 0,-0.27614 0.0856,-0.55379 0.28125,-0.71875 l 1.28125,-1.28125 -1.28125,-1.28125 c -0.18096,-0.18096 -0.35917,-0.45383 -0.28125,-0.71875 z"/><rect style="fill:none;stroke:none" id="rect7276" width="15.982" height="16" x="401" y="29" rx="0"/><rect style="color:#000;fill:none;stroke:none" id="rect7278" width="16" height="16" x="401" y="29"/></g><g style="stroke-linejoin:round" id="g4372" transform="matrix(-1.5,0,0,1.5,1250.5275,117.49997)"><path style="color:#bebebe;fill:#bebebe;stroke:none" id="path4374" d="m 406.20852,30.995978 c -0.25613,0.0339 -0.497,0.17155 -0.65625,0.375 l -4,4.666823 c -0.28127,0.35137 -0.28127,0.89863 0,1.25 l 4,4.666594 c 0.20539,0.2592 0.54566,0.40503 0.875,0.375 0.01,7.7e-4 0.0212,-5.1e-4 0.0312,0 0.0201,0.001 0.0421,0 0.0625,0 l 8.625,0 c 0.6627,0 1.1875,-0.54894 1.1875,-1.21875 l 0,-8.895917 c 1e-4,-0.66976 -0.52475,-1.21875 -1.18745,-1.21875 l -8.625,0 c -0.0416,-0.003 -0.0834,-0.003 -0.125,0 -0.0623,-0.006 -0.12518,-0.006 -0.1875,0 z m 0.79168,2.666823 1,0 c 0.27614,0 0.53779,0.10029 0.71875,0.28125 l 1.28125,1.28125 1.28125,-1.28125 c 0.18096,-0.18096 0.44292,-0.26812 0.71875,-0.28125 l 1,0 0,1 c 0,0.27614 -0.12201,0.51841 -0.28125,0.71875 l -1.28125,1.28125 1.28125,1.28125 c 0.18096,0.18096 0.19393,0.45678 0.28125,0.71875 l 0,1 -1,0 c -0.27549,0.019 -0.56909,-0.0737 -0.71875,-0.28125 l -1.28125,-1.28125 -1.28125,1.28125 c -0.18096,0.18096 -0.44261,0.28125 -0.71875,0.28125 l -1,0 0,-1 c 0,-0.27614 0.0856,-0.55379 0.28125,-0.71875 l 1.28125,-1.28125 -1.28125,-1.28125 c -0.18096,-0.18096 -0.35917,-0.45383 -0.28125,-0.71875 z"/><rect style="fill:none;stroke:none" id="rect4376" width="15.982" height="16" x="401" y="29" rx="0"/><rect style="color:#000;fill:none;stroke:none" id="rect4378" width="16" height="16" x="401" y="29"/></g><g id="g9058" transform="matrix(1.5,0,0,1.5,100.02658,151.99997)"><path style="color:#000;fill:#bebebe;stroke:none" id="path27918-2" d="m 375.83706,6.6610075 c -3.02885,0 -5.53125,2.47458 -5.53125,5.5000005 0,1.14986 0.38921,2.20784 1,3.09375 l -3.6875,3.6875 a 1.0054782,1.0054782 0 1 0 1.40625,1.4375 l 3.6875,-3.6875 c 0.88729,0.61091 1.973,0.96875 3.125,0.96875 3.02886,0 5.5,-2.47459 5.5,-5.5 0,-3.0254205 -2.47114,-5.5000005 -5.5,-5.5000005 z m 0,2 c 1.94736,0 3.5,1.5548505 3.5,3.5000005 0,1.94514 -1.55264,3.5 -3.5,3.5 -1.94735,0 -3.5,-1.55486 -3.5,-3.5 0,-1.94515 1.55265,-3.5000005 3.5,-3.5000005 z"/><rect style="color:#000;fill:none;stroke:none" id="rect9053" width="16" height="16" x="366" y="6"/></g></g></svg>