<svg xmlns="http://www.w3.org/2000/svg" xmlns:svg="http://www.w3.org/2000/svg" id="svg2" width="672" height="240" version="1.1"><metadata id="metadata90"/><title id="title8473">Faba Symbolic Icon Theme</title><g id="layer9" transform="translate(-241.0002,7)"><text style="font-size:12px;text-align:start;line-height:125%;fill:#fff;stroke:none;font-family:Droid Sans" id="text6726" x="296.473" y="130.883" font-size="12" line-height="125%" text-align="start"><tspan id="tspan6728" x="296.473" y="130.883">status</tspan></text><flowRoot style="font-size:40px;line-height:125%;letter-spacing:0;word-spacing:0;fill:#000;stroke:none;font-family:Andron Freefont LAT" id="flowRoot6246" font-size="40" letter-spacing="0" line-height="125%" transform="translate(241.0002,265)" word-spacing="0"><flowRegion id="flowRegion6248"><rect id="rect6251" width="44" height="50" x="-76" y="-838"/></flowRegion><flowPara id="flowPara6253">Mok</flowPara></flowRoot><flowRoot style="font-size:40px;line-height:125%;letter-spacing:0;word-spacing:0;fill:#000;stroke:none;font-family:Andron Freefont LAT" id="flowRoot6255" font-size="40" letter-spacing="0" line-height="125%" transform="translate(241.0002,265)" word-spacing="0"><flowRegion id="flowRegion6257"><rect id="rect6259" width="545" height="68" x="-179" y="-752"/></flowRegion><flowPara id="flowPara6261"/></flowRoot><g id="g3167" transform="matrix(2,0,0,2,-349.00017,963)"><path id="path3169" d="m 328.0002,-404 0,8 6,0 0,-8 z" style="opacity:.2;fill:#e13f2b;stroke:none"/><rect id="rect3171" width="24" height="24" x="-413" y="-343" transform="matrix(0,1,-1,0,0,0)" style="color:#ddd;fill:none;stroke:none"/><path id="path3173" d="m 329.00018,-408 0,1 4,0 0,-1 z m -2.15625,2 c -0.28125,0.0469 -0.84375,0.25 -0.84375,1 l 0,10 c 0,1 1,1 1,1 l 8,0 c 1,0 1,-1 1,-1 l 0,-10 c 0,0 0,-1 -1,-1 l -8,0 c 0,0 -0.0625,-0.0156 -0.15625,0 z m 0.15625,1 8,0 0,10 -8,0 z" style="fill:#fff;stroke:none;fill-opacity:1"/><path id="path3175" d="m 328.0002,-398 0,2 6,0 0,-2 z" style="fill:#e13f2b;stroke:none"/></g><g id="g3177" transform="matrix(2,0,0,2,-261.00017,963)"><path id="path3179" d="m 308.00018,-404 0,8 6,0 0,-8 z" style="opacity:.2;fill:#fff;stroke:none;fill-opacity:1"/><rect id="rect3181" width="24" height="24" x="-413" y="-323" transform="matrix(0,1,-1,0,0,0)" style="color:#ddd;fill:none;stroke:none"/><path id="path3183" d="m 309.00018,-408 0,1 4,0 0,-1 z m -2.15625,2 c -0.28125,0.0469 -0.84375,0.25 -0.84375,1 l 0,10 c 0,1 1,1 1,1 l 8,0 c 1,0 1,-1 1,-1 l 0,-10 c 0,0 0,-1 -1,-1 l -8,0 c 0,0 -0.0625,-0.0156 -0.15625,0 z m 0.15625,1 8,0 0,10 -8,0 z m 1,5 0,4 6,0 0,-4 z" style="fill:#fff;stroke:none;fill-opacity:1"/></g></g></svg>