<svg xmlns="http://www.w3.org/2000/svg" xmlns:svg="http://www.w3.org/2000/svg" xmlns:xlink="http://www.w3.org/1999/xlink" id="svg5014" width="24" height="24" version="1.1"><defs id="defs5016"><linearGradient id="linearGradient6280"><stop id="stop6282" offset="0" style="stop-color:#fff;stop-opacity:1"/><stop id="stop6284" offset="1" style="stop-color:#fff;stop-opacity:0"/></linearGradient><linearGradient id="linearGradient6252"><stop id="stop6254" offset="0" style="stop-color:#000;stop-opacity:1"/><stop id="stop6256" offset="1" style="stop-color:#000;stop-opacity:0"/></linearGradient><linearGradient id="linearGradient6149"><stop id="stop6151" offset="0" style="stop-color:#fff;stop-opacity:1"/><stop id="stop6153" offset="1" style="stop-color:#585858;stop-opacity:1"/></linearGradient><linearGradient id="linearGradient6105"><stop id="stop6107" offset="0" style="stop-color:#fff;stop-opacity:1"/><stop id="stop6109" offset="1" style="stop-color:#fff;stop-opacity:0"/></linearGradient><linearGradient id="linearGradient6085"><stop id="stop6087" offset="0" style="stop-color:#fff;stop-opacity:1"/><stop style="stop-color:#fff;stop-opacity:0" id="stop6097" offset=".188"/><stop style="stop-color:#fff;stop-opacity:0" id="stop6095" offset=".438"/><stop style="stop-color:#fff;stop-opacity:0" id="stop6093" offset=".75"/><stop id="stop6089" offset="1" style="stop-color:#fff;stop-opacity:1"/></linearGradient><linearGradient id="linearGradient6036"><stop id="stop6038" offset="0" style="stop-color:#000;stop-opacity:1"/><stop id="stop6040" offset="1" style="stop-color:#000;stop-opacity:0"/></linearGradient><linearGradient id="linearGradient6020"><stop style="stop-color:#000;stop-opacity:1" id="stop6022" offset="0"/><stop id="stop6024" offset=".125" style="stop-color:#262626;stop-opacity:.36363637"/><stop id="stop6026" offset=".667" style="stop-color:#fff;stop-opacity:.74901961"/><stop id="stop6028" offset=".833" style="stop-color:#3a3a3a;stop-opacity:1"/><stop style="stop-color:#000;stop-opacity:1" id="stop6030" offset="1"/></linearGradient><linearGradient id="linearGradient5979"><stop id="stop5981" offset="0" style="stop-color:#fff;stop-opacity:.43801653"/><stop style="stop-color:#fff;stop-opacity:1" id="stop5989" offset=".385"/><stop style="stop-color:#fff;stop-opacity:.46280992" id="stop5987" offset=".654"/><stop id="stop5983" offset="1" style="stop-color:#fff;stop-opacity:.43801653"/></linearGradient><linearGradient id="linearGradient5946"><stop id="stop5948" offset="0" style="stop-color:#696969;stop-opacity:1"/><stop style="stop-color:#919191;stop-opacity:1" id="stop5958" offset=".125"/><stop style="stop-color:#fff;stop-opacity:1" id="stop5956" offset=".25"/><stop style="stop-color:#919191;stop-opacity:1" id="stop5954" offset=".5"/><stop id="stop5950" offset="1" style="stop-color:#3c3c3c;stop-opacity:1"/></linearGradient><linearGradient id="linearGradient5928"><stop id="stop5930" offset="0" style="stop-color:#fff;stop-opacity:1"/><stop style="stop-color:#e7e7e7;stop-opacity:1" id="stop5966" offset=".5"/><stop id="stop5932" offset="1" style="stop-color:#b1b1b1;stop-opacity:1"/></linearGradient><linearGradient id="linearGradient4470"><stop id="stop4472" offset="0" style="stop-color:#fff;stop-opacity:1"/><stop style="stop-color:#e4e4e4;stop-opacity:1" id="stop6328" offset=".5"/><stop id="stop4474" offset="1" style="stop-color:#d9d9d9;stop-opacity:1"/></linearGradient><linearGradient id="linearGradient4418"><stop id="stop4420" offset="0" style="stop-color:#000;stop-opacity:1"/><stop id="stop4422" offset="1" style="stop-color:#3a3a3a;stop-opacity:1"/></linearGradient><linearGradient id="linearGradient4336"><stop id="stop4338" offset="0" style="stop-color:#fff;stop-opacity:1"/><stop id="stop4340" offset="1" style="stop-color:#fff;stop-opacity:0"/></linearGradient><linearGradient id="linearGradient4322"><stop style="stop-color:#fff;stop-opacity:1" id="stop4324" offset="0"/><stop style="stop-color:#fff;stop-opacity:0" id="stop4326" offset="1"/></linearGradient><linearGradient id="linearGradient4300"><stop id="stop4302" offset="0" style="stop-color:#fff;stop-opacity:1"/><stop id="stop4304" offset="1" style="stop-color:#fff;stop-opacity:0"/></linearGradient><linearGradient id="linearGradient4248"><stop id="stop4250" offset="0" style="stop-color:#fff;stop-opacity:1"/><stop id="stop4252" offset="1" style="stop-color:#fff;stop-opacity:0"/></linearGradient><linearGradient id="linearGradient4202"><stop id="stop4204" offset="0" style="stop-color:#fff;stop-opacity:1"/><stop id="stop4206" offset="1" style="stop-color:#fff;stop-opacity:0"/></linearGradient><linearGradient id="linearGradient4192"><stop id="stop4194" offset="0" style="stop-color:#000;stop-opacity:1"/><stop id="stop4196" offset="1" style="stop-color:#000;stop-opacity:0"/></linearGradient><linearGradient id="linearGradient4162"><stop id="stop4164" offset="0" style="stop-color:#323232;stop-opacity:1"/><stop id="stop4166" offset="1" style="stop-color:#1c1c1c;stop-opacity:1"/></linearGradient><linearGradient id="linearGradient4142"><stop id="stop4144" offset="0" style="stop-color:#fff;stop-opacity:1"/><stop style="stop-color:#78de54;stop-opacity:.74901962" id="stop4152" offset=".25"/><stop style="stop-color:#69ca46;stop-opacity:.49803922" id="stop4150" offset=".5"/><stop id="stop4146" offset="1" style="stop-color:#080808;stop-opacity:0"/></linearGradient><linearGradient id="linearGradient4130"><stop id="stop4132" offset="0" style="stop-color:#373737;stop-opacity:1"/><stop id="stop4134" offset="1" style="stop-color:#353535;stop-opacity:1"/></linearGradient><linearGradient id="linearGradient4122"><stop style="stop-color:#000;stop-opacity:1" id="stop4124" offset="0"/><stop style="stop-color:#000;stop-opacity:0" id="stop4126" offset="1"/></linearGradient><linearGradient id="linearGradient4102"><stop id="stop4104" offset="0" style="stop-color:#fff;stop-opacity:1"/><stop id="stop4106" offset="1" style="stop-color:#fff;stop-opacity:0"/></linearGradient><linearGradient id="linearGradient4092"><stop id="stop4094" offset="0" style="stop-color:#050505;stop-opacity:1"/><stop id="stop4096" offset="1" style="stop-color:#0f0f0f;stop-opacity:1"/></linearGradient><linearGradient id="linearGradient4074"><stop id="stop4076" offset="0" style="stop-color:#be87ce;stop-opacity:1"/><stop style="stop-color:#581969;stop-opacity:1" id="stop4112" offset=".25"/><stop style="stop-color:#4b1658;stop-opacity:1" id="stop4110" offset=".5"/><stop id="stop4078" offset="1" style="stop-color:#000;stop-opacity:1"/></linearGradient><clipPath id="clipPath5972" clipPathUnits="userSpaceOnUse"><path style="fill:url(#linearGradient5976);fill-opacity:1;stroke:none;display:inline" id="path5974" d="m 25,5.5 c -3.341509,0 -4.419322,4.4661201 -5.4375,8 l -5.4375,0 c 0,0 -4.013889,-1 -7.125,-1 -2.0833333,0 -3.2258989,0.538399 -3.84375,1.15625 C 2.4439327,14.54273 2.1829502,15.641667 2,16.5625 1.7423825,18.237014 1.5,21.487179 1.5,28 l 0,10 c 0,0 0.00489,1.318376 0.40625,2.65625 0.2006811,0.668937 0.5042062,1.355368 1,1.90625 0.4834395,0.537155 1.1726875,0.918408 2.03125,0.9375 0.02194,4.88e-4 0.040351,0 0.0625,0 6.523386,0.631199 10.05656,-0.756207 14.71875,-1 l 0.03125,0 23.25,0 c 1.208632,0 2.30392,-0.35294 3.125,-0.96875 C 46.94608,40.91544 47.5,40.009901 47.5,39 l 0,-20 C 47.098358,16.642033 45.636106,13.257828 41,13.5 l -2.40625,0 C 37.35752,9.7572489 36.594181,5.4902535 32.5,5.5 z"/></clipPath><linearGradient id="linearGradient5976" x1="16" x2="16" y1="40" y2="16" gradientUnits="userSpaceOnUse" xlink:href="#linearGradient4418"/><clipPath id="clipPath5995" clipPathUnits="userSpaceOnUse"><path style="fill:url(#linearGradient5999);fill-opacity:1;stroke:none;display:inline" id="path5997" d="m 25,5.5 c -3.341509,0 -4.419322,4.4661201 -5.4375,8 l -5.4375,0 c 0,0 -4.013889,-1 -7.125,-1 -2.0833333,0 -3.2258989,0.538399 -3.84375,1.15625 C 2.4439327,14.54273 2.1829502,15.641667 2,16.5625 1.7423825,18.237014 1.5,21.487179 1.5,28 l 0,10 c 0,0 0.00489,1.318376 0.40625,2.65625 0.2006811,0.668937 0.5042062,1.355368 1,1.90625 0.4834395,0.537155 1.1726875,0.918408 2.03125,0.9375 0.02194,4.88e-4 0.040351,0 0.0625,0 6.523386,0.631199 10.05656,-0.756207 14.71875,-1 l 0.03125,0 23.25,0 c 1.208632,0 2.30392,-0.35294 3.125,-0.96875 C 46.94608,40.91544 47.5,40.009901 47.5,39 l 0,-20 C 47.098358,16.642033 45.636106,13.257828 41,13.5 l -2.40625,0 C 37.35752,9.7572489 36.594181,5.4902535 32.5,5.5 z"/></clipPath><linearGradient id="linearGradient5999" x1="16" x2="16" y1="40" y2="16" gradientUnits="userSpaceOnUse" xlink:href="#linearGradient4418"/><clipPath id="clipPath6064" clipPathUnits="userSpaceOnUse"><path style="fill:url(#linearGradient6068);fill-opacity:1;stroke:none;display:inline" id="path6066" d="m 25,-10.5 c -3.341509,0 -4.419322,4.4661201 -5.4375,8 l -5.4375,0 c 0,0 -4.013889,-1 -7.125,-1 -2.0833333,0 -3.2258989,0.538399 -3.84375,1.15625 C 2.4439327,-1.45727 2.1829502,-0.358333 2,0.5625 1.7423825,2.237014 1.5,5.487179 1.5,12 l 0,10 c 0,0 0.00489,1.318376 0.40625,2.65625 0.2006811,0.668937 0.5042062,1.355368 1,1.90625 0.4834395,0.537155 1.1726875,0.918408 2.03125,0.9375 0.02194,4.88e-4 0.040351,0 0.0625,0 6.523386,0.631199 10.05656,-0.756207 14.71875,-1 l 0.03125,0 23.25,0 c 1.208632,0 2.30392,-0.35294 3.125,-0.96875 C 46.94608,24.91544 47.5,24.009901 47.5,23 l 0,-20 C 47.098358,0.642033 45.636106,-2.742172 41,-2.5 l -2.40625,0 c -1.23623,-3.7427511 -1.999569,-8.009747 -6.09375,-8 z"/></clipPath><linearGradient id="linearGradient6068" x1="16" x2="16" y1="40" y2="16" gradientTransform="translate(0,-16)" gradientUnits="userSpaceOnUse" xlink:href="#linearGradient4418"/><linearGradient id="linearGradient3960-3-8"><stop id="stop3962-1-1" offset="0" style="stop-color:#000;stop-opacity:0"/><stop style="stop-color:#000;stop-opacity:1" id="stop3970-3-4" offset=".5"/><stop id="stop3964-2-4" offset="1" style="stop-color:#000;stop-opacity:0"/></linearGradient><linearGradient id="linearGradient3952-0"><stop id="stop3954-1" offset="0" style="stop-color:#000;stop-opacity:1"/><stop id="stop3956-6" offset="1" style="stop-color:#000;stop-opacity:0"/></linearGradient><linearGradient id="linearGradient3944-3-1"><stop id="stop3946-5-5" offset="0" style="stop-color:#000;stop-opacity:1"/><stop id="stop3948-5-3" offset="1" style="stop-color:#000;stop-opacity:0"/></linearGradient><clipPath id="clipPath6274" clipPathUnits="userSpaceOnUse"><path style="fill:url(#linearGradient6278);fill-opacity:1;stroke:none;display:inline" id="path6276" d="m 25,5.5 c -3.341509,0 -4.419322,4.4661201 -5.4375,8 l -5.4375,0 c 0,0 -4.013889,-1 -7.125,-1 -2.0833333,0 -3.2258989,0.538399 -3.84375,1.15625 C 2.4439327,14.54273 2.1829502,15.641667 2,16.5625 1.7423825,18.237014 1.5,21.487179 1.5,28 l 0,10 c 0,0 0.00489,1.318376 0.40625,2.65625 0.2006811,0.668937 0.5042062,1.355368 1,1.90625 0.4834395,0.537155 1.1726875,0.918408 2.03125,0.9375 0.02194,4.88e-4 0.040351,0 0.0625,0 6.523386,0.631199 10.05656,-0.756207 14.71875,-1 l 0.03125,0 23.25,0 c 1.208632,0 2.30392,-0.35294 3.125,-0.96875 C 46.94608,40.91544 47.5,40.009901 47.5,39 l 0,-20 C 47.098358,16.642033 45.636106,13.257828 41,13.5 l -2.40625,0 C 37.35752,9.7572489 36.594181,5.4902535 32.5,5.5 z"/></clipPath><linearGradient id="linearGradient6278" x1="16" x2="16" y1="40" y2="16" gradientUnits="userSpaceOnUse" xlink:href="#linearGradient4418"/><radialGradient id="radialGradient3620" cx="15" cy="16.333" r="2" fx="15" fy="16.333" gradientTransform="translate(0,-5.1922273e-6)" gradientUnits="userSpaceOnUse" xlink:href="#linearGradient4470"/><linearGradient id="linearGradient3648" x1="48" x2="42" y1="26" y2="26" gradientUnits="userSpaceOnUse" xlink:href="#linearGradient6280"/><radialGradient id="radialGradient3650" cx="7.357" cy="13.49" r="4.5" fx="7.357" fy="13.49" gradientTransform="matrix(1.5714285,1.4486152e-7,-7.9015376e-8,0.85714284,-4.2040804,2.2226337)" gradientUnits="userSpaceOnUse" xlink:href="#linearGradient6149"/><radialGradient id="radialGradient3652" cx="7" cy="13.023" r="4.5" fx="7" fy="13.023" gradientTransform="matrix(1,0,0,0.61111111,0,5.5416667)" gradientUnits="userSpaceOnUse" xlink:href="#linearGradient6149"/><linearGradient id="linearGradient3654" x1="21" x2="37" y1="12" y2="12" gradientTransform="matrix(0.49473601,0,0,0.49331611,9.8947202e-7,7.7200103)" gradientUnits="userSpaceOnUse" xlink:href="#linearGradient6085"/><linearGradient id="linearGradient3656" x1="29.269" x2="29" y1="5.5" y2="22" gradientTransform="matrix(0.49473604,0,0,0.49331611,9.8947202e-7,7.7200104)" gradientUnits="userSpaceOnUse" xlink:href="#linearGradient6105"/><linearGradient id="linearGradient3658" x1="16" x2="24" y1="11" y2="15" gradientUnits="userSpaceOnUse" xlink:href="#linearGradient6036"/><linearGradient id="linearGradient3660" x1="16" x2="24" y1="11" y2="15" gradientTransform="matrix(-1,0,0,1,57.5,-16)" gradientUnits="userSpaceOnUse" xlink:href="#linearGradient6036"/><radialGradient id="radialGradient3662" cx="-3.1" cy="27.877" r="4.25" fx="-3.1" fy="27.877" gradientTransform="matrix(-2.8235294,1.9428357e-8,-1.604587e-8,-16,5.2470588,474.02839)" gradientUnits="userSpaceOnUse" xlink:href="#linearGradient6020"/><linearGradient id="linearGradient3664" x1="1.5" x2="14.5" y1="42.082" y2="42.082" gradientUnits="userSpaceOnUse" xlink:href="#linearGradient5979"/><linearGradient id="linearGradient3666" x1="16" x2="16" y1="40" y2="16" gradientTransform="matrix(0.49473601,0,0,0.49331611,9.8947202e-7,7.7200103)" gradientUnits="userSpaceOnUse" xlink:href="#linearGradient4418"/><linearGradient id="linearGradient3668" x1="13" x2="18.5" y1="13.25" y2="13.25" gradientUnits="userSpaceOnUse" xlink:href="#linearGradient5946"/><radialGradient id="radialGradient3670" cx="15.063" cy="11.521" r="2.75" fx="15.063" fy="11.521" gradientTransform="matrix(1,0,0,0.27272727,0,8.5454545)" gradientUnits="userSpaceOnUse" xlink:href="#linearGradient5928"/><radialGradient id="radialGradient3685" cx="9.5" cy="42.5" r="8.5" fx="9.5" fy="42.5" gradientTransform="matrix(1,0,0,0.29411765,0,30)" gradientUnits="userSpaceOnUse" xlink:href="#linearGradient6252"/><linearGradient id="linearGradient4481" x1="14.672" x2="42.25" y1="29.35" y2="29.35" gradientUnits="userSpaceOnUse" xlink:href="#linearGradient4162"/><linearGradient id="linearGradient4483" x1="19.468" x2="41.051" y1="37.939" y2="17.325" gradientUnits="userSpaceOnUse" xlink:href="#linearGradient4192"/><linearGradient id="linearGradient4485" x1="21.5" x2="35.5" y1="29.5" y2="29.5" gradientUnits="userSpaceOnUse" xlink:href="#linearGradient4092"/><radialGradient id="radialGradient4487" cx="28" cy="29" r="2.5" fx="28" fy="29" gradientTransform="matrix(1.2,0,0,1.2,-5.6,-5.8)" gradientUnits="userSpaceOnUse" xlink:href="#linearGradient4074"/><linearGradient id="linearGradient4489" x1="23.501" x2="33.501" y1="33.491" y2="23.491" gradientUnits="userSpaceOnUse" xlink:href="#linearGradient4248"/><linearGradient id="linearGradient4491" x1="26" x2="31" y1="31.286" y2="27" gradientUnits="userSpaceOnUse" xlink:href="#linearGradient4102"/><linearGradient id="linearGradient4493" x1="26" x2="30.545" y1="27.455" y2="31.545" gradientUnits="userSpaceOnUse" xlink:href="#linearGradient4102"/><linearGradient id="linearGradient4495" x1="26" x2="31" y1="31.286" y2="27" gradientUnits="userSpaceOnUse" xlink:href="#linearGradient4122"/><linearGradient id="linearGradient4497" x1="22.75" x2="34" y1="35.25" y2="24" gradientUnits="userSpaceOnUse" xlink:href="#linearGradient4130"/><radialGradient id="radialGradient4499" cx="23" cy="24" r="8.5" fx="23" fy="24" gradientUnits="userSpaceOnUse" xlink:href="#linearGradient4142"/><linearGradient id="linearGradient4501" x1="14.172" x2="42.75" y1="29.35" y2="29.35" gradientUnits="userSpaceOnUse" xlink:href="#linearGradient4202"/><linearGradient id="linearGradient4503" x1="34.208" x2="24.062" y1="23.787" y2="34.567" gradientUnits="userSpaceOnUse" xlink:href="#linearGradient4300"/><linearGradient id="linearGradient4505" x1="28.462" x2="28.462" y1="42.999" y2="41.048" gradientUnits="userSpaceOnUse" xlink:href="#linearGradient4322"/><linearGradient id="linearGradient4507" x1="28.462" x2="28.462" y1="42.999" y2="41.048" gradientUnits="userSpaceOnUse" xlink:href="#linearGradient4322"/><linearGradient id="linearGradient4509" x1="14.373" x2="16.216" y1="29.35" y2="29.351" gradientUnits="userSpaceOnUse" xlink:href="#linearGradient4336"/><linearGradient id="linearGradient4511" x1="14.373" x2="16.216" y1="29.35" y2="29.351" gradientUnits="userSpaceOnUse" xlink:href="#linearGradient4336"/><radialGradient id="radialGradient4535" cx="9" cy="43.5" r="2" fx="9" fy="43.5" gradientTransform="matrix(0.49473601,0,0,0.36998708,-2.9684162,12.591506)" gradientUnits="userSpaceOnUse" xlink:href="#linearGradient3944-3-1"/><radialGradient id="radialGradient4538" cx="40" cy="43.5" r="2" fx="40" fy="43.5" gradientTransform="matrix(0.49473601,0,0,0.36998708,2.4736799,12.591506)" gradientUnits="userSpaceOnUse" xlink:href="#linearGradient3952-0"/><linearGradient id="linearGradient4541" x1="25" x2="25" y1="45" y2="42" gradientTransform="matrix(0.66579776,0,0,0.49331611,-4.3623654,7.2266937)" gradientUnits="userSpaceOnUse" xlink:href="#linearGradient3960-3-8"/><radialGradient id="radialGradient4544" cx="9" cy="43.5" r="2" fx="9" fy="43.5" gradientTransform="matrix(0.52300666,0,0,0.61664514,-3.6610466,1.861881)" gradientUnits="userSpaceOnUse" xlink:href="#linearGradient3944-3-1"/><radialGradient id="radialGradient4547" cx="40" cy="43.5" r="2" fx="40" fy="43.5" gradientTransform="matrix(0.52300666,0,0,0.61664514,1.7810495,1.861881)" gradientUnits="userSpaceOnUse" xlink:href="#linearGradient3952-0"/><linearGradient id="linearGradient4550" x1="25" x2="25" y1="45" y2="42" gradientTransform="matrix(0.69679515,0,0,0.82219353,-5.2251435,-7.0794735)" gradientUnits="userSpaceOnUse" xlink:href="#linearGradient3960-3-8"/></defs><metadata id="metadata5019"/><g style="display:inline" id="layer1" transform="translate(0,-8)"><g style="display:inline" id="layer5"><path id="path6250" d="m 18,42.5 a 8.5,2.5 0 1 1 -17,0 8.5,2.5 0 1 1 17,0 z" transform="matrix(0.49473601,0,0,0.49331611,9.8947202e-7,8.2133264)" style="opacity:.5;fill:url(#radialGradient3685);fill-opacity:1;stroke:none"/><rect id="rect3615" width="21.601" height="2.467" x="1.046" y="27.453" style="opacity:.5;fill:url(#linearGradient4550);fill-opacity:1;stroke:none"/><path id="path3617" d="m 22.701316,27.452655 0,2.46658 0.261503,0 c 0.434619,0 0.78451,-0.550047 0.78451,-1.23329 0,-0.683243 -0.349891,-1.23329 -0.78451,-1.23329 l -0.261503,0 z" style="opacity:.5;fill:url(#radialGradient4547);fill-opacity:1;stroke:none"/><path id="path3619" d="M 0.73547811,27.452655 C 0.32802323,27.452655 0,27.968324 0,28.608864 l 0,0.154162 c 0,0.64054 0.32802323,1.156209 0.73547811,1.156209 l 0.31053519,0 0,-2.46658 -0.31053519,0 z" style="opacity:.5;fill:url(#radialGradient4544);fill-opacity:1;stroke:none"/><rect style="opacity:.5;fill:url(#linearGradient4541);fill-opacity:1;stroke:none" id="rect3623" width="20.64" height="1.48" x="1.63" y="27.946"/><path style="opacity:.5;fill:url(#radialGradient4538);fill-opacity:1;stroke:none" id="path3625" d="m 22.26312,27.94597 0,1.479949 0.247368,0 c 0.411126,0 0.742104,-0.330029 0.742104,-0.739975 0,-0.409945 -0.330978,-0.739974 -0.742104,-0.739974 l -0.247368,0 z"/><path style="opacity:.5;fill:url(#radialGradient4535);fill-opacity:1;stroke:none" id="path3627" d="m 1.1904584,27.94597 c -0.3854303,0 -0.69572254,0.309402 -0.69572254,0.693726 l 0,0.0925 c 0,0.384324 0.31029224,0.693726 0.69572254,0.693726 l 0.2937495,0 0,-1.479949 -0.2937495,0 z"/><path id="rect4348" d="m 11.368401,10.433249 c -1.6531647,0 -2.1863977,2.203208 -2.6901268,3.94653 l -2.6901271,0 c 0,0 -0.9858154,-0.493318 -2.524994,-0.493318 -1.0307001,0 -1.5959684,0.265601 -1.9016416,0.570398 -0.352409,0.437315 -0.4815265,0.979438 -0.57203856,1.4337 -0.1274525,0.826064 -0.24736791,2.429423 -0.24736791,5.642302 l 0,4.778481 c 0,0 0.002419,0.650376 0.20098651,1.310372 0.099284,0.329997 0.24944896,0.668625 0.49473596,0.940383 0.239175,0.264987 0.5801707,0.453066 1.0049325,0.462484 0.010854,2.41e-4 0.019964,0 0.030921,0 3.227354,0.311381 4.9753425,-0.373049 7.2818957,-0.493316 l 0.01546,0 11.5026123,0 c 0.597953,0 1.139831,-0.174111 1.54605,-0.4779 0.406218,-0.303789 0.680261,-0.750506 0.680261,-1.248706 l 0,-9.711643 C 23.301254,15.929794 22.577826,14.26031 20.284178,14.379779 l -1.19046,0 c -0.611607,-1.84636 -0.989257,-3.951338 -3.014797,-3.94653 z" style="fill:url(#linearGradient3666);fill-opacity:1;stroke:none;display:inline"/><path id="rect5968" d="M 0.61871845,38.887453 C 5.199,39.168327 9.8028641,39.307705 14.5,38.887453 l 0,5.970569 -13.88128155,0 z" clip-path="url(#clipPath5972)" transform="matrix(0.49473601,0,0,0.49331611,9.8947202e-7,7.7200103)" style="opacity:.4;fill:url(#linearGradient3664);fill-opacity:1;stroke:none"/><path id="rect5991" d="m -4,12 14,0 C 8.3695164,24.518092 8.0474703,34.876851 9.75,49.061449 l -12.5,0 z" clip-path="url(#clipPath5995)" transform="matrix(0.49473601,0,0,0.49331611,9.8947202e-7,7.7200103)" style="opacity:.4;fill:url(#radialGradient3662);fill-opacity:1;stroke:none"/><g id="g6052" clip-path="url(#clipPath6064)" transform="matrix(0.49473601,0,0,0.49331611,9.8947202e-7,15.613068)" style="display:inline"><path style="fill:url(#linearGradient3658);fill-opacity:1;stroke:none" id="path6034" d="M 16,26 22,4 23,9 17,26 z" transform="translate(0,-16)"/><path id="path6044" d="M 41,8 C 39.805435,1.981401 38.578034,-4.0590882 36,-11 l -1.5,4 6,17 z" style="fill:url(#linearGradient3660);fill-opacity:1;stroke:none"/></g><path style="opacity:.1;fill:none;stroke:#fff;stroke-width:1px;stroke-linecap:round;stroke-linejoin:miter;stroke-opacity:1" id="path6266" d="M 8.1526177,14.379779 6.4210414,20.54623"/><path id="path6070" d="M 8.3999855,14.379779 6.6684095,20.54623" style="opacity:.8;fill:none;stroke:#000;stroke-width:1px;stroke-linecap:round;stroke-linejoin:miter;stroke-opacity:1"/><path id="path6268" d="m 19.294706,14.626437 1.727124,6.042628" style="opacity:.2;fill:none;stroke:#fff;stroke-width:1px;stroke-linecap:round;stroke-linejoin:miter;stroke-opacity:1"/><path style="opacity:.8;fill:none;stroke:#000;stroke-width:1px;stroke-linecap:round;stroke-linejoin:miter;stroke-opacity:1" id="path6072" d="m 19.047337,14.626437 1.727126,6.042628"/><path id="path6296" d="m 45.5,27.25 a 2.75,2.75 0 1 1 -5.5,0 2.75,2.75 0 1 1 5.5,0 z" transform="matrix(0.49473601,0,0,0.49331611,-0.24736701,7.9666683)" style="opacity:.41000001;fill:none;stroke:#fff;stroke-width:2.02418709;stroke-opacity:1"/><path id="path4482" d="m 7.636459,19.015819 2.74247,-6.855964 c 0,0 1.247369,-0.493316 3.721049,-0.493316 2.473679,0 2.968416,0.493316 2.968416,0.493316 l 2.522154,6.921369 0,0" style="opacity:.2;fill:none;stroke:url(#linearGradient3656);stroke-width:.5;stroke-linecap:butt;stroke-linejoin:miter;stroke-miterlimit:4;stroke-opacity:1;stroke-dasharray:none;display:inline"/><path style="opacity:.2;fill:url(#linearGradient3654);fill-opacity:1;stroke:none;display:inline" id="path6075" d="m 7.6364586,19.015819 2.7424704,-6.855964 c 0,0 1.247368,-0.493315 3.721049,-0.493315 2.47368,0 2.968415,0.493315 2.968415,0.493315 l 2.522155,6.921369 0,0"/><path id="path6101" d="M 7.6364586,19.015819 9.3894573,15.36641 c 0,0 2.4842067,-0.739975 4.9578877,-0.739975 2.47368,0 3.463152,0.739975 3.463152,0.739975 l 1.780051,3.714814 0,0" style="fill:#000;fill-opacity:1;stroke:none;display:inline"/><path style="opacity:.3;fill:none;stroke:#fff;stroke-width:.5;stroke-miterlimit:4;stroke-opacity:1;stroke-dasharray:none;display:inline" id="path6103" d="m 7.636459,19.015819 1.7529983,-3.649408 c 0,0 2.4842077,-0.739975 4.9578877,-0.739975 2.473681,0 3.463153,0.739975 3.463153,0.739975 l 1.78005,3.714813 0,0"/><g id="g5960" transform="matrix(0.49473601,0,0,0.49331611,-0.99999901,15.613068)"><rect style="fill:url(#linearGradient3668);fill-opacity:1;stroke:none" id="rect5936" width="5.5" height="2.5" x="13" y="12" rx="0" ry="2.5" transform="translate(0,-16)"/><path style="fill:url(#radialGradient3670);fill-opacity:1;stroke:none" id="path5926" d="m 18.5,11.75 c 0,0.414214 -1.231217,0.75 -2.75,0.75 C 14.231217,12.5 13,12.164214 13,11.75 13,11.335786 14.231217,11 15.75,11 c 1.518783,0 2.75,0.335786 2.75,0.75 z" transform="translate(0,-16)"/></g><rect id="rect6270" width="12" height="44" x="42" y="4" clip-path="url(#clipPath6274)" ry="0" transform="matrix(0.49473601,0,0,0.49331611,9.8947202e-7,7.7200103)" style="opacity:.2;fill:url(#linearGradient3648);fill-opacity:1;stroke:none"/><path id="path6290" d="m 45.5,27.25 a 2.75,2.75 0 1 1 -5.5,0 2.75,2.75 0 1 1 5.5,0 z" transform="matrix(0.49473601,0,0,0.49331611,-0.24736701,8.2133264)" style="fill:#585858;fill-opacity:1;stroke:none"/><path style="fill:none;stroke:#171717;stroke-width:2.02418709;stroke-opacity:1" id="path6292" d="m 45.5,27.25 a 2.75,2.75 0 1 1 -5.5,0 2.75,2.75 0 1 1 5.5,0 z" transform="matrix(0.49473601,0,0,0.49331611,-0.24736701,8.2133264)"/><path id="path6294" d="m 45.5,27.25 a 2.75,2.75 0 1 1 -5.5,0 2.75,2.75 0 1 1 5.5,0 z" transform="matrix(0.179904,0,0,0.17938768,13.335385,16.644547)" style="opacity:.41000001;fill:none;stroke:#000;stroke-width:5.56651354;stroke-opacity:1"/><rect id="rect6300" width=".495" height=".987" x="11.368" y="9.94" style="fill:#6e6e6e;fill-opacity:1;stroke:none"/><rect style="fill:#6e6e6e;fill-opacity:1;stroke:none" id="rect6302" width=".495" height=".987" x="15.832" y="9.94"/><rect style="opacity:.3;fill:#fff;fill-opacity:1;stroke:none" id="rect6304" width=".247" height=".987" x="11.368" y="9.94"/><rect id="rect6306" width=".247" height=".987" x="16.079" y="9.94" style="opacity:.3;fill:#fff;fill-opacity:1;stroke:none"/><g style="opacity:.3;fill:#000;fill-opacity:1" id="g4228" transform="matrix(0.49473601,0,0,0.49331611,-0.59989391,15.363475)"><path style="fill:#000;fill-opacity:1" id="path4230" d="m 25.8062,-5.4897 c -0.37195,0 -0.67339,-0.30158 -0.67339,-0.67362 0,-0.37204 0.30144,-0.67335 0.67339,-0.67335 0.1311,0 0.25353,0.03739 0.3569,0.1022 l -0.3569,0.57115 0.67187,-0.38796 C 26.40508,-6.66759 26.30041,-6.76781 26.17375,-6.84386 26.01268,-6.94031 25.78863,-7 25.54076,-7 25.18732,-7 24.87721,-6.87155 24.70427,-6.67919 24.57623,-6.53699 24.5,-6.35802 24.5,-6.16333 c 0,0.19479 0.07623,0.37394 0.20427,0.51622 0.17339,0.19264 0.47888,0.32036 0.82656,0.32036 0.34755,0 0.65294,-0.12782 0.82647,-0.32036 0.0095,-0.01061 0.01865,-0.0213 0.02741,-0.03235 l -0.02625,-0.09825 c -0.12183,0.17402 -0.32372,0.28801 -0.55226,0.28801"/><path style="fill:#000;fill-opacity:1" id="path4232" d="m 31.196866,-5.36728 -0.28202,-1.05204 c -0.04531,-0.16998 -0.20009,-0.29493 -0.38436,-0.29493 -0.04778,0 -0.09362,0.00854 -0.13609,0.024 l -0.6071,0.22076 0.62436,0 0.10674,0.39848 c -0.10355,-0.08908 -0.2383,-0.14328 -0.38593,-0.14328 -0.29308,0 -0.53039,0.19641 -0.53039,0.43874 0,0.24225 0.2373,0.43893 0.53039,0.43893 0.21105,0 0.39762,-0.10328 0.51267,-0.26193 l 0.06189,0.23128 0.48984,0 m -0.86018,-0.16343 c -0.13519,0 -0.24481,-0.10948 -0.24481,-0.24485 0,-0.13528 0.10962,-0.24485 0.24481,-0.24485 0.13523,0 0.24485,0.10957 0.24485,0.24485 0,0.13537 -0.10962,0.24485 -0.24485,0.24485 z"/><path style="fill:#000;fill-opacity:1" id="path4234" d="m 29.18355,-6.71407 c -0.03694,0 -0.072,0.00818 -0.10319,0.02283 l -0.3898,0.18166 c -0.01923,-0.11604 -0.12004,-0.20449 -0.24162,-0.20449 -0.03686,0 -0.07191,0.00818 -0.10355,0.02283 l -0.47591,0.22175 0.33461,0 0,1.10221 0.48984,0 0,-0.9796 c 0,-0.06759 0.0547,-0.12261 0.12243,-0.12261 0.06746,0 0.12252,0.05502 0.12252,0.12261 l 0,0.9796 0.48966,0 0,-1.10221 c 0,-0.13518 -0.10971,-0.24458 -0.24499,-0.24458"/><path style="fill:#000;fill-opacity:1" id="path4236" d="m 32.343538,-6.71407 c -0.03708,0 -0.07223,0.00818 -0.10391,0.02283 l -0.38944,0.18166 c -0.01924,-0.11604 -0.12005,-0.20449 -0.24162,-0.20449 -0.03681,0 -0.07187,0.00818 -0.10354,0.02283 l -0.47578,0.22175 0.33452,0 0,1.10221 0.48976,0 0,-0.9796 c 0,-0.06759 0.05474,-0.12261 0.1226,-0.12261 0.06756,0 0.12221,0.05502 0.12221,0.12261 l 0,0.9796 0.49005,0 0,-1.10221 c 0,-0.13518 -0.10979,-0.24458 -0.24485,-0.24458"/><path style="fill:#000;fill-opacity:1" id="path4238" d="m 27.914868,-6.02041 c 0,0.38311 -0.31047,0.69366 -0.69353,0.69366 -0.38328,0 -0.69394,-0.31056 -0.69394,-0.69366 0,-0.38301 0.31065,-0.69366 0.69394,-0.69366 0.38306,0 0.69353,0.31066 0.69353,0.69366 m -0.66481,-0.48314 c -0.02176,-0.08162 -0.10571,-0.13007 -0.18732,-0.10813 -0.08145,0.02185 -0.13016,0.1058 -0.10823,0.18741 l 0.23784,0.88701 c 0.02198,0.08171 0.10576,0.13007 0.18729,0.10841 0.08166,-0.02202 0.13016,-0.10598 0.10827,-0.1876 l -0.23785,-0.8871 z"/></g><g id="g4221" transform="matrix(0.49473601,0,0,0.49331611,-0.59989391,15.613068)"><path id="path11" d="m 25.8062,-5.4897 c -0.37195,0 -0.67339,-0.30158 -0.67339,-0.67362 0,-0.37204 0.30144,-0.67335 0.67339,-0.67335 0.1311,0 0.25353,0.03739 0.3569,0.1022 l -0.3569,0.57115 0.67187,-0.38796 C 26.40508,-6.66759 26.30041,-6.76781 26.17375,-6.84386 26.01268,-6.94031 25.78863,-7 25.54076,-7 25.18732,-7 24.87721,-6.87155 24.70427,-6.67919 24.57623,-6.53699 24.5,-6.35802 24.5,-6.16333 c 0,0.19479 0.07623,0.37394 0.20427,0.51622 0.17339,0.19264 0.47888,0.32036 0.82656,0.32036 0.34755,0 0.65294,-0.12782 0.82647,-0.32036 0.0095,-0.01061 0.01865,-0.0213 0.02741,-0.03235 l -0.02625,-0.09825 c -0.12183,0.17402 -0.32372,0.28801 -0.55226,0.28801" style="fill:#fff;fill-opacity:1"/><path id="path13" d="m 31.196866,-5.36728 -0.28202,-1.05204 c -0.04531,-0.16998 -0.20009,-0.29493 -0.38436,-0.29493 -0.04778,0 -0.09362,0.00854 -0.13609,0.024 l -0.6071,0.22076 0.62436,0 0.10674,0.39848 c -0.10355,-0.08908 -0.2383,-0.14328 -0.38593,-0.14328 -0.29308,0 -0.53039,0.19641 -0.53039,0.43874 0,0.24225 0.2373,0.43893 0.53039,0.43893 0.21105,0 0.39762,-0.10328 0.51267,-0.26193 l 0.06189,0.23128 0.48984,0 m -0.86018,-0.16343 c -0.13519,0 -0.24481,-0.10948 -0.24481,-0.24485 0,-0.13528 0.10962,-0.24485 0.24481,-0.24485 0.13523,0 0.24485,0.10957 0.24485,0.24485 0,0.13537 -0.10962,0.24485 -0.24485,0.24485 z" style="fill:#fff;fill-opacity:1"/><path id="path15" d="m 29.18355,-6.71407 c -0.03694,0 -0.072,0.00818 -0.10319,0.02283 l -0.3898,0.18166 c -0.01923,-0.11604 -0.12004,-0.20449 -0.24162,-0.20449 -0.03686,0 -0.07191,0.00818 -0.10355,0.02283 l -0.47591,0.22175 0.33461,0 0,1.10221 0.48984,0 0,-0.9796 c 0,-0.06759 0.0547,-0.12261 0.12243,-0.12261 0.06746,0 0.12252,0.05502 0.12252,0.12261 l 0,0.9796 0.48966,0 0,-1.10221 c 0,-0.13518 -0.10971,-0.24458 -0.24499,-0.24458" style="fill:#fff;fill-opacity:1"/><path id="path17" d="m 32.343538,-6.71407 c -0.03708,0 -0.07223,0.00818 -0.10391,0.02283 l -0.38944,0.18166 c -0.01924,-0.11604 -0.12005,-0.20449 -0.24162,-0.20449 -0.03681,0 -0.07187,0.00818 -0.10354,0.02283 l -0.47578,0.22175 0.33452,0 0,1.10221 0.48976,0 0,-0.9796 c 0,-0.06759 0.05474,-0.12261 0.1226,-0.12261 0.06756,0 0.12221,0.05502 0.12221,0.12261 l 0,0.9796 0.49005,0 0,-1.10221 c 0,-0.13518 -0.10979,-0.24458 -0.24485,-0.24458" style="fill:#fff;fill-opacity:1"/><path id="path19" d="m 27.914868,-6.02041 c 0,0.38311 -0.31047,0.69366 -0.69353,0.69366 -0.38328,0 -0.69394,-0.31056 -0.69394,-0.69366 0,-0.38301 0.31065,-0.69366 0.69394,-0.69366 0.38306,0 0.69353,0.31066 0.69353,0.69366 m -0.66481,-0.48314 c -0.02176,-0.08162 -0.10571,-0.13007 -0.18732,-0.10813 -0.08145,0.02185 -0.13016,0.1058 -0.10823,0.18741 l 0.23784,0.88701 c 0.02198,0.08171 0.10576,0.13007 0.18729,0.10841 0.08166,-0.02202 0.13016,-0.10598 0.10827,-0.1876 l -0.23785,-0.8871 z" style="fill:#fff;fill-opacity:1"/></g><path id="path6264" d="m 6.4315694,14.873094 1.7210483,0" style="opacity:.2;fill:#000;fill-opacity:1;stroke:#fff;stroke-width:1px;stroke-linecap:round;stroke-linejoin:miter;stroke-opacity:1;display:inline"/><path style="opacity:.2;fill:#000;fill-opacity:1;stroke:#fff;stroke-width:1px;stroke-linecap:round;stroke-linejoin:miter;stroke-opacity:1;display:inline" id="path6288" d="m 19.047337,14.873094 c 0,0 1.1648,-0.108837 1.731577,0 0.436028,0.08373 1.23684,0.493317 1.23684,0.493317"/><path style="opacity:.2;fill:#000;fill-opacity:1;stroke:#fff;stroke-width:1px;stroke-linecap:round;stroke-linejoin:miter;stroke-opacity:1;display:inline" id="path6308" d="m 10.873665,10.926565 5.699992,0"/><path style="opacity:.81000001;fill:none;stroke:#000;stroke-width:1;stroke-opacity:1;display:inline" id="path6173" d="m 11.368401,10.433249 c -1.6531647,0 -2.1863967,2.203208 -2.6901264,3.94653 -1.0521739,0.269775 -1.1132763,0.45942 -2.2467052,0 0,0 -1.4294981,-0.693397 -2.9686768,-0.693397 -1.0307001,0 -1.5959684,0.265602 -1.9016416,0.570398 C 1.2088419,14.694095 0.83761936,15.203357 0.7471074,15.657618 0.6196547,16.483684 0.5,18.287121 0.5,21.5 l 0,4.778482 c 0,0 0.0440645,0.683237 0.24263202,1.343233 0.099284,0.329996 0.24944886,0.668624 0.49473598,0.940382 0.2391751,0.264987 0.7806303,0.453067 1.2053922,0.462485 0.010854,2.4e-4 0.019963,0 0.03092,0 3.2273542,0.31138 4.9753426,-0.373049 7.281896,-0.493317 l 0.01546,0 11.5026118,0 c 0.597954,0 1.139832,-0.174111 1.546051,-0.4779 0.406218,-0.303788 0.68026,-0.750505 0.68026,-1.248706 l 0,-9.711642 C 23.301254,15.929794 22.577825,14.26031 20.284177,14.379779 l -1.190459,0 c -0.611606,-1.84636 -0.989257,-3.951338 -3.014796,-3.94653 z"/><path style="opacity:.41000001;fill:none;stroke:#000;stroke-width:4.04837418;stroke-miterlimit:4;stroke-opacity:1;stroke-dasharray:none;display:inline" id="path6161" d="m 12.5,14.25 a 4.5,1.75 0 1 1 -9,0 4.5,1.75 0 1 1 9,0 z" transform="matrix(0.49473601,0,0,0.49331611,9.8947202e-7,7.7200103)"/><path id="path6137" d="m 12.5,14.25 a 4.5,1.75 0 1 1 -9,0 4.5,1.75 0 1 1 9,0 z" transform="matrix(0.49473601,0,0,0.49331611,9.8947202e-7,7.7200103)" style="fill:url(#radialGradient3652);fill-opacity:1;stroke:none;display:inline"/><path id="path6163" d="m 12.5,14.25 a 4.5,1.75 0 1 1 -9,0 4.5,1.75 0 1 1 9,0 z" transform="matrix(0.38479468,0,0,0.38369031,0.87953174,8.8436749)" style="opacity:.41000001;fill:none;stroke:#000;stroke-width:2.60252595;stroke-miterlimit:4;stroke-opacity:1;stroke-dasharray:none;display:inline"/><path style="fill:url(#radialGradient3650);fill-opacity:1;stroke:none;display:inline" id="path6157" d="m 12.5,14.25 a 4.5,1.75 0 1 1 -9,0 4.5,1.75 0 1 1 9,0 z" transform="matrix(0.38479468,0,0,0.38369031,0.87953174,8.8436749)"/></g><g style="display:inline" id="layer4"><path id="path4468" d="m 17,17 a 2,2 0 1 1 -4,0 2,2 0 1 1 4,0 z" transform="matrix(0.25,0,0,0.24914264,3.25,11.26286)" style="opacity:.61000001;fill:none;stroke:#000;stroke-width:4.00687647;stroke-miterlimit:4;stroke-opacity:1;stroke-dasharray:none"/><path style="fill:url(#radialGradient3620);fill-opacity:1;stroke:none" id="path6032" d="m 17,17 a 2,2 0 1 1 -4,0 2,2 0 1 1 4,0 z" transform="matrix(0.25,0,0,0.24914264,3.25,11.26286)"/><g id="g4458" transform="matrix(0.97319339,0,0,0.97319339,-0.16369409,1.1907539)"><path style="fill:url(#linearGradient4481);fill-opacity:1;stroke:none;display:inline" id="path3284" d="m 42.24963,29.35006 c 0,7.273514 -6.173358,13.169863 -13.788582,13.169863 -7.615223,0 -13.788582,-5.896349 -13.788582,-13.169863 0,-7.273515 6.173359,-13.169864 13.788582,-13.169864 7.615224,0 13.788582,5.896349 13.788582,13.169864 z" transform="matrix(0,0.48299148,-0.50713786,0,29.439281,7.6542403)"/><path id="path4180" d="m 42.24963,29.35006 c 0,7.273514 -6.173358,13.169863 -13.788582,13.169863 -7.615223,0 -13.788582,-5.896349 -13.788582,-13.169863 0,-7.273515 6.173359,-13.169864 13.788582,-13.169864 7.615224,0 13.788582,5.896349 13.788582,13.169864 z" transform="matrix(0,0.3935486,-0.41322342,0,26.687339,10.200372)" style="opacity:.8;fill:url(#linearGradient4483);fill-opacity:1;stroke:none;display:inline"/><path style="opacity:.8;fill:#000;fill-opacity:1;stroke:none;display:inline" id="path4170" d="m 14.554755,15.234233 c -3.41544,0 -6.1842003,2.760815 -6.1842003,6.166452 0,3.405635 2.7687603,6.16645 6.1842003,6.16645 3.415439,0 6.1842,-2.760815 6.1842,-6.16645 0,-3.405637 -2.768761,-6.166452 -6.1842,-6.166452 z m 0,0.246658 c 3.278822,0 5.936832,2.650382 5.936832,5.919794 0,3.269411 -2.65801,5.919793 -5.936832,5.919793 -3.278822,0 -5.9368322,-2.650382 -5.9368322,-5.919793 0,-3.269412 2.6580102,-5.919794 5.9368322,-5.919794 z"/><path style="fill:#080808;fill-opacity:1;stroke:none;display:inline" id="path4138" d="M 37,29.5 C 37,34.19442 33.19442,38 28.5,38 23.80558,38 20,34.19442 20,29.5 20,24.80558 23.80558,21 28.5,21 c 4.69442,0 8.5,3.80558 8.5,8.5 z" transform="matrix(0.49473601,0,0,0.49331611,0.45477865,6.8478589)"/><path style="fill:url(#linearGradient4485);fill-opacity:1;stroke:none;display:inline" id="path4090" d="M 35,29.5 C 35,33.089851 32.089851,36 28.5,36 24.910149,36 22,33.089851 22,29.5 22,25.910149 24.910149,23 28.5,23 c 3.589851,0 6.5,2.910149 6.5,6.5 z" transform="matrix(0,0.49331611,-0.49473601,0,29.149468,7.341175)"/><path style="fill:url(#radialGradient4487);fill-opacity:1;stroke:none;display:inline" id="path4072" d="M 31,29.5 C 31,30.880712 29.880712,32 28.5,32 27.119288,32 26,30.880712 26,29.5 26,28.119288 27.119288,27 28.5,27 c 1.380712,0 2.5,1.119288 2.5,2.5 z" transform="matrix(0.29684161,0,0,0.29598967,6.0947691,12.668989)"/><path id="path4084" d="M 31,29.5 C 31,30.880712 29.880712,32 28.5,32 27.119288,32 26,30.880712 26,29.5 26,28.119288 27.119288,27 28.5,27 c 1.380712,0 2.5,1.119288 2.5,2.5 z" transform="matrix(0.29684161,0,0,0.29598967,6.0947691,12.668989)" style="opacity:.61000001;fill:none;stroke:#000;stroke-width:1.73328578;stroke-miterlimit:4;stroke-opacity:1;stroke-dasharray:none;display:inline"/><path style="opacity:.1;fill:url(#linearGradient4489);fill-opacity:1;stroke:none;display:inline" id="path4246" d="M 35,29.5 C 35,33.089851 32.089851,36 28.5,36 24.910149,36 22,33.089851 22,29.5 22,25.910149 24.910149,23 28.5,23 c 3.589851,0 6.5,2.910149 6.5,6.5 z" transform="matrix(0,0.49331611,-0.49473601,0,29.149468,7.341175)"/><path style="opacity:.1;fill:none;stroke:url(#linearGradient4491);stroke-width:.74283683;stroke-miterlimit:4;stroke-opacity:1;stroke-dasharray:none;display:inline" id="path4100" d="M 31,29.5 C 31,30.880712 29.880712,32 28.5,32 27.119288,32 26,30.880712 26,29.5 26,28.119288 27.119288,27 28.5,27 c 1.380712,0 2.5,1.119288 2.5,2.5 z" transform="matrix(0,0.69064256,-0.69263042,0,34.987353,1.7173714)"/><path id="path4114" d="M 31,29.5 C 31,30.880712 29.880712,32 28.5,32 27.119288,32 26,30.880712 26,29.5 26,28.119288 27.119288,27 28.5,27 c 1.380712,0 2.5,1.119288 2.5,2.5 z" transform="matrix(-1.0884192,0,0,-1.0852954,45.574703,53.416899)" style="opacity:.1;fill:none;stroke:url(#linearGradient4493);stroke-width:.47271433;stroke-miterlimit:4;stroke-opacity:1;stroke-dasharray:none;display:inline"/><path id="path4118" d="M 31,29.5 C 31,30.880712 29.880712,32 28.5,32 27.119288,32 26,30.880712 26,29.5 26,28.119288 27.119288,27 28.5,27 c 1.380712,0 2.5,1.119288 2.5,2.5 z" transform="matrix(0,0.59197932,-0.59368321,0,32.06841,4.5292733)" style="opacity:.2;fill:none;stroke:url(#linearGradient4495);stroke-width:.86664301;stroke-miterlimit:4;stroke-opacity:1;stroke-dasharray:none;display:inline"/><path id="path4128" d="M 35,29.5 C 35,33.089851 32.089851,36 28.5,36 24.910149,36 22,33.089851 22,29.5 22,25.910149 24.910149,23 28.5,23 c 3.589851,0 6.5,2.910149 6.5,6.5 z" transform="matrix(0,0.49331611,-0.49473601,0,29.149468,7.341175)" style="fill:none;stroke:url(#linearGradient4497);stroke-width:1.03997171;stroke-miterlimit:4;stroke-opacity:1;stroke-dasharray:none;display:inline"/><path style="opacity:.61000001;fill:none;stroke:#000;stroke-width:6.22858429;stroke-miterlimit:4;stroke-opacity:1;stroke-dasharray:none;display:inline" id="path4513" d="m 42.24963,29.35006 c 0,7.273514 -6.173358,13.169863 -13.788582,13.169863 -7.615223,0 -13.788582,-5.896349 -13.788582,-13.169863 0,-7.273515 6.173359,-13.169864 13.788582,-13.169864 7.615224,0 13.788582,5.896349 13.788582,13.169864 z" transform="matrix(0,0.48299148,0.50713786,0,-0.32977141,7.6542403)"/><path id="path4140" d="M 37,29.5 C 37,34.19442 33.19442,38 28.5,38 23.80558,38 20,34.19442 20,29.5 20,24.80558 23.80558,21 28.5,21 c 4.69442,0 8.5,3.80558 8.5,8.5 z" transform="matrix(0.49473601,0,0,0.49331611,0.45477865,6.8478589)" style="opacity:.6;fill:url(#radialGradient4499);fill-opacity:1;stroke:none;display:inline"/><path style="fill:none;stroke:#000;stroke-width:2.07994342;stroke-opacity:1;display:inline" id="path4154" d="M 37,29.5 C 37,34.19442 33.19442,38 28.5,38 23.80558,38 20,34.19442 20,29.5 20,24.80558 23.80558,21 28.5,21 c 4.69442,0 8.5,3.80558 8.5,8.5 z" transform="matrix(0.49473601,0,0,0.49331611,0.45477865,6.8478589)"/><path id="path4200" d="m 42.24963,29.35006 c 0,7.273514 -6.173358,13.169863 -13.788582,13.169863 -7.615223,0 -13.788582,-5.896349 -13.788582,-13.169863 0,-7.273515 6.173359,-13.169864 13.788582,-13.169864 7.615224,0 13.788582,5.896349 13.788582,13.169864 z" transform="matrix(0,0.48299148,-0.50713786,0,29.439281,7.6542403)" style="opacity:.3;fill:none;stroke:url(#linearGradient4501);stroke-width:2.0803473;stroke-miterlimit:4;stroke-opacity:1;stroke-dasharray:none;display:inline"/><path style="opacity:.4;fill:none;stroke:url(#linearGradient4503);stroke-width:.6594941;stroke-miterlimit:4;stroke-opacity:1;stroke-dasharray:none;display:inline" id="path4296" d="M 35,29.5 C 35,33.089851 32.089851,36 28.5,36 24.910149,36 22,33.089851 22,29.5 22,25.910149 24.910149,23 28.5,23 c 3.589851,0 6.5,2.910149 6.5,6.5 z" transform="matrix(0,0.77792157,-0.78016065,0,37.569494,-0.77008084)"/><path style="opacity:.3;fill:none;stroke:#fff;stroke-width:1.24571693;stroke-miterlimit:4;stroke-opacity:1;stroke-dasharray:none;display:inline" id="path4310" d="m 42.24963,29.35006 c 0,7.273514 -6.173358,13.169863 -13.788582,13.169863 -7.615223,0 -13.788582,-5.896349 -13.788582,-13.169863 0,-7.273515 6.173359,-13.169864 13.788582,-13.169864 7.615224,0 13.788582,5.896349 13.788582,13.169864 z" transform="matrix(0,0.40249287,-0.42261487,0,26.958526,9.9453146)"/><path style="opacity:.3;fill:none;stroke:url(#linearGradient4505);stroke-width:2.0803473;stroke-miterlimit:4;stroke-opacity:1;stroke-dasharray:none;display:inline" id="path4312" d="m 42.24963,29.35006 c 0,7.273514 -6.173358,13.169863 -13.788582,13.169863 -7.615223,0 -13.788582,-5.896349 -13.788582,-13.169863 0,-7.273515 6.173359,-13.169864 13.788582,-13.169864 7.615224,0 13.788582,5.896349 13.788582,13.169864 z" transform="matrix(0,0.48299148,-0.50713786,0,29.439281,7.6542403)"/><path id="path4330" d="m 42.24963,29.35006 c 0,7.273514 -6.173358,13.169863 -13.788582,13.169863 -7.615223,0 -13.788582,-5.896349 -13.788582,-13.169863 0,-7.273515 6.173359,-13.169864 13.788582,-13.169864 7.615224,0 13.788582,5.896349 13.788582,13.169864 z" transform="matrix(0,0.48299148,0.50713786,0,-0.32977141,7.6542403)" style="opacity:.3;fill:none;stroke:url(#linearGradient4507);stroke-width:2.0803473;stroke-miterlimit:4;stroke-opacity:1;stroke-dasharray:none;display:inline"/><path id="path4334" d="m 42.24963,29.35006 c 0,7.273514 -6.173358,13.169863 -13.788582,13.169863 -7.615223,0 -13.788582,-5.896349 -13.788582,-13.169863 0,-7.273515 6.173359,-13.169864 13.788582,-13.169864 7.615224,0 13.788582,5.896349 13.788582,13.169864 z" transform="matrix(0.40365137,0,0,0.42140195,3.0664141,9.0325118)" style="opacity:.3;fill:none;stroke:url(#linearGradient4509);stroke-width:1.24571693;stroke-miterlimit:4;stroke-opacity:1;stroke-dasharray:none;display:inline"/><path style="opacity:.3;fill:none;stroke:url(#linearGradient4511);stroke-width:1.24571693;stroke-miterlimit:4;stroke-opacity:1;stroke-dasharray:none;display:inline" id="path4344" d="m 42.24963,29.35006 c 0,7.273514 -6.173358,13.169863 -13.788582,13.169863 -7.615223,0 -13.788582,-5.896349 -13.788582,-13.169863 0,-7.273515 6.173359,-13.169864 13.788582,-13.169864 7.615224,0 13.788582,5.896349 13.788582,13.169864 z" transform="matrix(-0.40365137,0,0,0.42140195,26.043096,9.0325118)"/></g></g></g></svg>