<svg xmlns="http://www.w3.org/2000/svg" xmlns:osb="http://www.openswatchbook.org/uri/2009/osb" xmlns:svg="http://www.w3.org/2000/svg" id="svg7384" width="24" height="24" version="1.1" style="enable-background:new"><metadata id="metadata90"/><title id="title8473">Moka Symbolic Icon Theme</title><defs id="defs7386"><linearGradient id="linearGradient5606" osb:paint="solid"><stop id="stop5608" offset="0" style="stop-color:#000;stop-opacity:1"/></linearGradient><filter id="filter7554" color-interpolation-filters="sRGB"><feBlend id="feBlend7556" in2="BackgroundImage" mode="darken"/></filter></defs><g id="layer9" transform="translate(-261.0002,391.00375)" style="display:inline"><path style="opacity:.35;color:#fff;fill:#000;fill-opacity:1;fill-rule:nonzero;stroke:none;stroke-width:1;marker:none;visibility:visible;display:inline;overflow:visible" id="path6519" d="m 277.0002,-385 0,1.46875 c 1.26466,1.51928 2,3.23133 2,5.53125 0,2.29992 -0.77953,4.01197 -2,5.53125 l 0,1.46875 1.375,0 c 1.46575,-1.64044 2.625,-4.18578 2.625,-7 0,-2.81422 -1.00818,-5.17173 -2.59375,-7 l -1.40625,0 z m -5.53125,1 -3,3 -2.46875,0 0,6 2.46875,0 3.0625,3 0.46875,0 0,-12 -0.53125,0 z m 3.53125,1 0,2 c 0.60652,0.78878 1,1.75887 1,3 0,1.24113 -0.39348,2.21938 -1,3 l 0,2 1,0 c 1.2229,-0.99478 2,-2.8734 2,-5 0,-2.16664 -0.73878,-4.01982 -2,-5 l -1,0 z m -2,2 0,3 0,0.375 0,2.625 1,0 c 0.67206,-0.8369 1,-1.74267 1,-3 0,-1.25733 -0.31165,-2.21571 -1,-3 l -1,0 z"/><path id="path5491-2" d="m 277.0002,-386 0,1.46875 c 1.26466,1.51928 2,3.23133 2,5.53125 0,2.29992 -0.77953,4.01197 -2,5.53125 l 0,1.46875 1.375,0 c 1.46575,-1.64044 2.625,-4.18578 2.625,-7 0,-2.81422 -1.00818,-5.17173 -2.59375,-7 l -1.40625,0 z m -5.53125,1 -3,3 -2.46875,0 0,6 2.46875,0 3.0625,3 0.46875,0 0,-12 -0.53125,0 z m 3.53125,1 0,2 c 0.60652,0.78878 1,1.75887 1,3 0,1.24113 -0.39348,2.21938 -1,3 l 0,2 1,0 c 1.2229,-0.99478 2,-2.8734 2,-5 0,-2.16664 -0.73878,-4.01982 -2,-5 l -1,0 z m -2,2 0,3 0,0.375 0,2.625 1,0 c 0.67206,-0.8369 1,-1.74267 1,-3 0,-1.25733 -0.31165,-2.21571 -1,-3 l -1,0 z" style="color:#fff;fill:#fff;fill-opacity:1;fill-rule:nonzero;stroke:none;stroke-width:1;marker:none;visibility:visible;display:inline;overflow:visible"/></g></svg>