<svg xmlns="http://www.w3.org/2000/svg" xmlns:osb="http://www.openswatchbook.org/uri/2009/osb" xmlns:svg="http://www.w3.org/2000/svg" style="enable-background:new" id="svg7384" width="24" height="24" version="1.1"><metadata id="metadata90"/><title id="title8473">Moka Symbolic Icon Theme</title><defs id="defs7386"><linearGradient id="linearGradient5606" osb:paint="solid"><stop style="stop-color:#000;stop-opacity:1" id="stop5608" offset="0"/></linearGradient><filter id="filter7554" color-interpolation-filters="sRGB"><feBlend id="feBlend7556" in2="BackgroundImage" mode="darken"/></filter></defs><g style="display:inline" id="layer9" transform="translate(-405.0002,279)"><path style="opacity:.35;color:#000;fill:#000;fill-opacity:1;fill-rule:nonzero;stroke:none;stroke-width:1.54645538;marker:none;visibility:visible;display:inline;overflow:visible;enable-background:accumulate" id="path3029" d="m 417.0002,-274 c -4.41828,0 -8,3.58172 -8,8 0,4.41828 3.58172,8 8,8 4.41828,0 8,-3.58172 8,-8 0,-4.41828 -3.58172,-8 -8,-8 z m 0,3 c 1.65686,0 3,1.34315 3,3 0,1.65685 -1.34314,3 -3,3 -1.65686,0 -3,-1.34315 -3,-3 0,-1.65685 1.34314,-3 3,-3 z m -1,7 2,0 c 1.47366,0 2.72364,0.87824 3.40625,2.09375 -1.09558,1.17855 -2.67021,1.90625 -4.40625,1.90625 -1.73604,0 -3.31067,-0.7277 -4.40625,-1.90625 0.68261,-1.21551 1.93259,-2.09375 3.40625,-2.09375 z"/><path id="path5945" d="m 417.0002,-275 c -4.41828,0 -8,3.58172 -8,8 0,4.41828 3.58172,8 8,8 4.41828,0 8,-3.58172 8,-8 0,-4.41828 -3.58172,-8 -8,-8 z m 0,3 c 1.65686,0 3,1.34315 3,3 0,1.65685 -1.34314,3 -3,3 -1.65686,0 -3,-1.34315 -3,-3 0,-1.65685 1.34314,-3 3,-3 z m -1,7 2,0 c 1.47366,0 2.72364,0.87824 3.40625,2.09375 -1.09558,1.17855 -2.67021,1.90625 -4.40625,1.90625 -1.73604,0 -3.31067,-0.7277 -4.40625,-1.90625 0.68261,-1.21551 1.93259,-2.09375 3.40625,-2.09375 z" style="opacity:1;color:#000;fill:#fff;fill-opacity:1;fill-rule:nonzero;stroke:none;stroke-width:1.54645538000000005;marker:none;visibility:visible;display:inline;overflow:visible;enable-background:accumulate"/></g></svg>