<svg xmlns="http://www.w3.org/2000/svg" xmlns:osb="http://www.openswatchbook.org/uri/2009/osb" xmlns:svg="http://www.w3.org/2000/svg" id="svg7384" width="24" height="24" version="1.1" style="enable-background:new"><metadata id="metadata90"/><title id="title8473">Moka Symbolic Icon Theme</title><defs id="defs7386"><linearGradient id="linearGradient5606" osb:paint="solid"><stop id="stop5608" offset="0" style="stop-color:#000;stop-opacity:1"/></linearGradient><filter id="filter7554" color-interpolation-filters="sRGB"><feBlend id="feBlend7556" in2="BackgroundImage" mode="darken"/></filter></defs><g id="layer9" transform="translate(-281.0002,368.00336)" style="display:inline"><path style="fill:#000;fill-opacity:1;stroke:none;opacity:.35" id="path6553" d="m 288.0002,-356 0,7 c 0,1 1,1 1,1 l 8,0 c 1,0 1,-1 1,-1 l 0,-7 -10,0 z"/><path id="path7425" d="m 291.0002,-363.00336 0,1 4,0 0,-1 z m -2.15625,2 c -0.28125,0.0469 -0.84375,0.25 -0.84375,1 l 0,10 c 0,1 1,1 1,1 l 8,0 c 1,0 1,-1 1,-1 l 0,-10 c 0,0 0,-1 -1,-1 l -8,0 c 0,0 -0.0625,-0.0156 -0.15625,0 z" style="opacity:.35;fill:#fff;fill-opacity:1;stroke:none"/><path id="path6020" d="m 288.0002,-357 0,7 c 0,1 1,1 1,1 l 8,0 c 1,0 1,-1 1,-1 l 0,-7 -10,0 z" style="fill:#fff;fill-opacity:1;stroke:none"/></g></svg>