<svg xmlns="http://www.w3.org/2000/svg" xmlns:svg="http://www.w3.org/2000/svg" id="svg2" width="24" height="24" version="1.1"><metadata id="metadata3401"/><g id="layer1" transform="translate(0,8)"><path style="opacity:.2;color:#000" id="path3828" d="M 8,-2 4,1 8,4 4,7 12,13 20,7 16,4 20,1 16,-2 12,1 8,-2 z m 3,4 2,0 -0.25,5 -1.5,0 L 11,2 z m 0,6 2,0 0,2 -2,0 0,-2 z"/><path style="color:#000;fill:#e13f2b" id="path4281" d="M 8,-3 4,0 8,3 4,6 12,12 20,6 16,3 20,0 16,-3 12,0 8,-3 z m 3,4 2,0 -0.25,5 -1.5,0 L 11,1 z m 0,6 2,0 0,2 -2,0 0,-2 z"/></g></svg>