<svg xmlns="http://www.w3.org/2000/svg" xmlns:osb="http://www.openswatchbook.org/uri/2009/osb" xmlns:svg="http://www.w3.org/2000/svg" style="enable-background:new" id="svg7384" width="24" height="24" version="1.1"><metadata id="metadata90"/><title id="title8473">Moka Symbolic Icon Theme</title><defs id="defs7386"><linearGradient id="linearGradient5606" osb:paint="solid"><stop style="stop-color:#000;stop-opacity:1" id="stop5608" offset="0"/></linearGradient><filter id="filter7554" color-interpolation-filters="sRGB"><feBlend id="feBlend7556" in2="BackgroundImage" mode="darken"/></filter></defs><g style="display:inline" id="layer9" transform="translate(-321.0002,428.00336)"><path id="path6474" d="m 333.0002,-414.00336 c -1.18529,0 -2.28823,0.34434 -3.21875,0.9375 l 3.25,3.5625 0.96875,-1.0625 0,-0.4375 0,-1 1,0 c 0.006,-0.53931 0.18157,-1.02793 0.4375,-1.46875 -0.74794,-0.33972 -1.56144,-0.53125 -2.4375,-0.53125 z m 5,0 c -1.108,0 -2,0.91081 -2,2.03125 l 0,0.96875 -1,0 0,1 0,2 0,1 1,0 4,0 1,0 0,-1 0,-2 0,-1 -1,0 0,-0.96875 c 0,-1.12 -0.892,-2.03125 -2,-2.03125 z m 0,1 c 0.554,0 1,0.44236 1,1 l 0,1 -2,0 0,-1 c 0,-0.55764 0.446,-1 1,-1 z" style="opacity:.35;color:#000;fill:#000;fill-opacity:1;fill-rule:nonzero;stroke:none;stroke-width:1;marker:none;visibility:visible;display:inline;overflow:visible;enable-background:accumulate"/><path id="path5938" d="m 333.03145,-422.00336 c -3.03435,0 -5.76588,1.07815 -8.03125,2.75 l 8.03125,8.75 0.96875,-1.0625 0,-0.4375 0,-1 1,0 c 0.0168,-1.63737 1.35439,-3 3,-3 l 0.0312,0 2.96875,-3.28125 c -2.25661,-1.65329 -4.9577,-2.71875 -7.96875,-2.71875 z" style="opacity:.35;color:#000;fill:#fff;fill-opacity:1;fill-rule:nonzero;stroke:none;stroke-width:1;marker:none;visibility:visible;display:inline;overflow:visible;enable-background:accumulate"/><path id="path5978" d="m 333.0002,-415.00336 c -1.18529,0 -2.28823,0.34434 -3.21875,0.9375 l 3.25,3.5625 0.96875,-1.0625 0,-0.4375 0,-1 1,0 c 0.006,-0.53931 0.18157,-1.02793 0.4375,-1.46875 -0.74794,-0.33972 -1.56144,-0.53125 -2.4375,-0.53125 z" style="color:#000;fill:#fff;fill-opacity:1;fill-rule:nonzero;stroke:none;stroke-width:1;marker:none;visibility:visible;display:inline;overflow:visible;enable-background:accumulate"/><path id="path3767" d="m 338.0002,-415 c -1.108,0 -2,0.91081 -2,2.03125 l 0,0.96875 -1,0 0,1 0,2 0,1 1,0 4,0 1,0 0,-1 0,-2 0,-1 -1,0 0,-0.96875 c 0,-1.12 -0.892,-2.03125 -2,-2.03125 z m 0,1 c 0.554,0 1,0.44236 1,1 l 0,1 -2,0 0,-1 c 0,-0.55764 0.446,-1 1,-1 z" style="fill:#fff"/></g></svg>