<svg xmlns="http://www.w3.org/2000/svg" xmlns:osb="http://www.openswatchbook.org/uri/2009/osb" xmlns:svg="http://www.w3.org/2000/svg" id="svg7384" width="24" height="24" version="1.1" style="enable-background:new"><metadata id="metadata90"/><title id="title8473">Moka Symbolic Icon Theme</title><defs id="defs7386"><linearGradient id="linearGradient5606" osb:paint="solid"><stop id="stop5608" offset="0" style="stop-color:#000;stop-opacity:1"/></linearGradient><filter id="filter7554" color-interpolation-filters="sRGB"><feBlend id="feBlend7556" in2="BackgroundImage" mode="darken"/></filter></defs><g id="layer9" transform="translate(-281.0002,327.00333)" style="display:inline"><path id="path6565" d="m 300.0002,-321.00333 -14,14 8,0 0,-2 0,-1 0,-1 1,0 c 0.0168,-1.63737 1.35439,-3 3,-3 0.76764,0 1.46927,0.29877 2,0.78125 l 0,-7.78125 z m -4,12 0,2 4,0 0,-2 -1,0 -2,0 -1,0 z" style="fill:#000;fill-opacity:1;stroke:none;opacity:.35"/><path id="path6567" d="m 298.0002,-313 c -1.108,0 -2,0.91081 -2,2.03125 l 0,0.96875 -1,0 0,1 0,2 0,1 1,0 4,0 1,0 0,-1 0,-2 0,-1 -1,0 0,-0.96875 c 0,-1.12 -0.892,-2.03125 -2,-2.03125 z m 0,1 c 0.554,0 1,0.44236 1,1 l 0,1 -2,0 0,-1 c 0,-0.55764 0.446,-1 1,-1 z" style="fill:#000;opacity:.35"/><path style="fill:#fff;fill-opacity:1;stroke:none" id="path6535" d="m 300.0002,-322.00333 -14,14 8,0 0,-2 0,-1 0,-1 1,0 c 0.0168,-1.63737 1.35439,-3 3,-3 0.76764,0 1.46927,0.29877 2,0.78125 l 0,-7.78125 z m -4,12 0,2 4,0 0,-2 -1,0 -2,0 -1,0 z"/><path style="fill:#fff" id="path5983" d="m 298.0002,-314 c -1.108,0 -2,0.91081 -2,2.03125 l 0,0.96875 -1,0 0,1 0,2 0,1 1,0 4,0 1,0 0,-1 0,-2 0,-1 -1,0 0,-0.96875 c 0,-1.12 -0.892,-2.03125 -2,-2.03125 z m 0,1 c 0.554,0 1,0.44236 1,1 l 0,1 -2,0 0,-1 c 0,-0.55764 0.446,-1 1,-1 z"/></g></svg>