<svg xmlns="http://www.w3.org/2000/svg" xmlns:osb="http://www.openswatchbook.org/uri/2009/osb" xmlns:svg="http://www.w3.org/2000/svg" style="enable-background:new" id="svg7384" width="24" height="24" version="1.1"><metadata id="metadata90"/><title id="title8473">Moka Symbolic Icon Theme</title><defs id="defs7386"><linearGradient id="linearGradient5606" osb:paint="solid"><stop style="stop-color:#000;stop-opacity:1" id="stop5608" offset="0"/></linearGradient><filter id="filter7554" color-interpolation-filters="sRGB"><feBlend id="feBlend7556" in2="BackgroundImage" mode="darken"/></filter></defs><g style="display:inline" id="layer9" transform="translate(-340.96897,428.00336)"><path id="path6485" d="m 355.96895,-411.96875 0,1 c 0,0.27614 0.10029,0.53779 0.28125,0.71875 l 0.78125,0.78125 -0.78125,0.78125 c -0.18096,0.18096 -0.28125,0.44261 -0.28125,0.71875 l 0,1 1,0 c 0.27614,0 0.53779,-0.10029 0.71875,-0.28125 l 0.78125,-0.78125 0.78125,0.78125 c 0.18096,0.18096 0.44261,0.28125 0.71875,0.28125 l 1,0 0,-1 c 0,-0.27614 -0.10029,-0.53779 -0.28125,-0.71875 l -0.78125,-0.78125 0.78125,-0.78125 c 0.18096,-0.18096 0.28125,-0.44261 0.28125,-0.71875 l 0,-1 -1,0 c -0.27614,0 -0.53779,0.10029 -0.71875,0.28125 l -0.78125,0.78125 -0.78125,-0.78125 c -0.18096,-0.18096 -0.44261,-0.28125 -0.71875,-0.28125 l -1,0 z" style="opacity:.35;fill:#000;fill-opacity:1;stroke:none;display:inline;enable-background:new"/><path style="opacity:.35;color:#000;fill:#fff;fill-opacity:1;fill-rule:nonzero;stroke:none;stroke-width:1;marker:none;visibility:visible;display:inline;overflow:visible;enable-background:accumulate" id="path7616" d="m 353.00022,-422.00336 c -3.03435,0 -5.76588,1.07815 -8.03125,2.75 l 8.03125,8.75 7.96875,-8.78125 c -2.25661,-1.65329 -4.9577,-2.71875 -7.96875,-2.71875 z"/><path style="fill:#fff;fill-opacity:1;stroke:none;display:inline;enable-background:new" id="path5898-0" d="m 355.96895,-412.96875 0,1 c 0,0.27614 0.10029,0.53779 0.28125,0.71875 l 0.78125,0.78125 -0.78125,0.78125 c -0.18096,0.18096 -0.28125,0.44261 -0.28125,0.71875 l 0,1 1,0 c 0.27614,0 0.53779,-0.10029 0.71875,-0.28125 l 0.78125,-0.78125 0.78125,0.78125 c 0.18096,0.18096 0.44261,0.28125 0.71875,0.28125 l 1,0 0,-1 c 0,-0.27614 -0.10029,-0.53779 -0.28125,-0.71875 l -0.78125,-0.78125 0.78125,-0.78125 c 0.18096,-0.18096 0.28125,-0.44261 0.28125,-0.71875 l 0,-1 -1,0 c -0.27614,0 -0.53779,0.10029 -0.71875,0.28125 l -0.78125,0.78125 -0.78125,-0.78125 c -0.18096,-0.18096 -0.44261,-0.28125 -0.71875,-0.28125 l -1,0 z"/></g></svg>