<svg xmlns="http://www.w3.org/2000/svg" xmlns:osb="http://www.openswatchbook.org/uri/2009/osb" xmlns:svg="http://www.w3.org/2000/svg" style="enable-background:new" id="svg7384" width="24" height="24" version="1.1"><metadata id="metadata90"/><title id="title8473">Moka Symbolic Icon Theme</title><defs id="defs7386"><linearGradient id="linearGradient5606" osb:paint="solid"><stop style="stop-color:#000;stop-opacity:1" id="stop5608" offset="0"/></linearGradient><filter id="filter7554" color-interpolation-filters="sRGB"><feBlend id="feBlend7556" in2="BackgroundImage" mode="darken"/></filter></defs><g style="display:inline" id="layer9" transform="translate(-485.0004,431.00336)"><g style="stroke:none;display:inline;enable-background:new" id="g9699" transform="translate(-9.99978,-24.00336)"><path style="opacity:.35;color:#000;fill:#fff;fill-opacity:1;stroke:none" id="path9701" d="m 508.99998,-393.99664 5.5,-4.5 -5.5,-4.5 c 0.004,0.003 0,1.33333 0,2 -1,0 -2,0 -3,0 0,1.66667 0,3.33333 0,5 1,0 2,0 3,0 0,0.66667 0,2 0,2 z"/><path style="opacity:.35;color:#000;fill:#fff;fill-opacity:1;stroke:none" id="path9705" d="m 504.99998,-396.99664 -5.5,4.5 5.5,4.5 c -0.004,-0.003 0,-1.33333 0,-2 1,0 3,0 3,0 l 0,-2.1875 0,-0.8125 0,-2 c 0,0 -2,0 -3,0 0,-0.66667 0,-2 0,-2 z"/></g></g></svg>