<svg xmlns="http://www.w3.org/2000/svg" xmlns:osb="http://www.openswatchbook.org/uri/2009/osb" xmlns:svg="http://www.w3.org/2000/svg" id="svg3876" width="24" height="24" enable-background="new" version="1.1"><metadata id="metadata90"/><defs id="defs7386"><linearGradient id="linearGradient5606" osb:paint="solid"><stop id="stop5608"/></linearGradient></defs><g id="layer9" transform="translate(-421.0002,362)"><path style="opacity:.35;color:#000;fill:#000;stroke-width:4" id="path6489" d="m 428.0002,-356 c 0,0 -2,0 -2,2 l 0,10 c 0,0 -9e-5,2 2,2 l 10,0 c 0,0 2,0 2,-2 l 0,-10 c 0,0 -9e-5,-1.88755 -2,-1.90625 l -10,-0.0937 z m 5.03125,3 c 1.70789,0 3.24295,0.55602 4.71875,1.3125 l -3.65625,4.03125 C 433.77896,-347.86418 433.4004,-348 433.0002,-348 c -0.38541,0 -0.7549,0.11844 -1.0625,0.3125 l -3.6875,-3.96875 c 1.492,-0.77095 3.05178,-1.34375 4.78125,-1.34375 z m -0.0312,6 c 0.55228,0 1,0.44772 1,1 0,0.55228 -0.44772,1 -1,1 -0.55228,0 -1,-0.44772 -1,-1 0,-0.55228 0.44772,-1 1,-1 z"/><path id="rect12924" d="m 428.0002,-357 c 0,0 -2,0 -2,2 l 0,10 c 0,0 -9e-5,2 2,2 l 10,0 c 0,0 2,0 2,-2 l 0,-10 c 0,0 -9e-5,-1.88755 -2,-1.90625 l -10,-0.0937 z m 5.03125,3 c 1.70789,0 3.24295,0.55602 4.71875,1.3125 l -3.65625,4.03125 C 433.77896,-348.86418 433.4004,-349 433.0002,-349 c -0.38541,0 -0.7549,0.11844 -1.0625,0.3125 l -3.6875,-3.96875 c 1.492,-0.77095 3.05178,-1.34375 4.78125,-1.34375 z m -0.0312,6 c 0.55228,0 1,0.44772 1,1 0,0.55228 -0.44772,1 -1,1 -0.55228,0 -1,-0.44772 -1,-1 0,-0.55228 0.44772,-1 1,-1 z" style="color:#000;fill:#fff;stroke-width:4"/></g></svg>