<svg xmlns="http://www.w3.org/2000/svg" xmlns:osb="http://www.openswatchbook.org/uri/2009/osb" xmlns:svg="http://www.w3.org/2000/svg" style="enable-background:new" id="svg7384" width="24" height="24" version="1.1"><metadata id="metadata90"/><title id="title8473">Moka Symbolic Icon Theme</title><defs id="defs7386"><linearGradient id="linearGradient5606" osb:paint="solid"><stop style="stop-color:#000;stop-opacity:1" id="stop5608" offset="0"/></linearGradient><filter id="filter7554" color-interpolation-filters="sRGB"><feBlend id="feBlend7556" in2="BackgroundImage" mode="darken"/></filter></defs><g style="display:inline" id="layer9" transform="translate(-301.0002,428.00336)"><path id="path6467" d="m 313.0002,-417.00336 c -1.97569,0 -3.79687,0.63948 -5.28125,1.71875 l 5.3125,5.78125 0.96875,-1.0625 0,-0.4375 0,-1 1,0 c 0.0168,-1.63737 1.35439,-3 3,-3 l 0.0312,0 0.25,-0.28125 c -1.48438,-1.07927 -3.30556,-1.71875 -5.28125,-1.71875 z m 5,3 c -1.108,0 -2,0.91081 -2,2.03125 l 0,0.96875 -1,0 0,1 0,2 0,1 1,0 4,0 1,0 0,-1 0,-2 0,-1 -1,0 0,-0.96875 c 0,-1.12 -0.892,-2.03125 -2,-2.03125 z m 0,1 c 0.554,0 1,0.44236 1,1 l 0,1 -2,0 0,-1 c 0,-0.55764 0.446,-1 1,-1 z" style="opacity:.35;color:#000;fill:#000;fill-opacity:1;fill-rule:nonzero;stroke:none;stroke-width:1;marker:none;visibility:visible;display:inline;overflow:visible;enable-background:accumulate"/><path id="path5923" d="m 313.03145,-422.00336 c -3.03435,0 -5.76588,1.07815 -8.03125,2.75 l 8.03125,8.75 0.96875,-1.0625 0,-0.4375 0,-1 1,0 c 0.0168,-1.63737 1.35439,-3 3,-3 l 0.0312,0 2.96875,-3.28125 c -2.25661,-1.65329 -4.9577,-2.71875 -7.96875,-2.71875 z" style="opacity:.35;color:#000;fill:#fff;fill-opacity:1;fill-rule:nonzero;stroke:none;stroke-width:1;marker:none;visibility:visible;display:inline;overflow:visible;enable-background:accumulate"/><path id="path5964" d="m 313.0002,-418.00336 c -1.97569,0 -3.79687,0.63948 -5.28125,1.71875 l 5.3125,5.78125 0.96875,-1.0625 0,-0.4375 0,-1 1,0 c 0.0168,-1.63737 1.35439,-3 3,-3 l 0.0312,0 0.25,-0.28125 c -1.48438,-1.07927 -3.30556,-1.71875 -5.28125,-1.71875 z" style="color:#000;fill:#fff;fill-opacity:1;fill-rule:nonzero;stroke:none;stroke-width:1;marker:none;visibility:visible;display:inline;overflow:visible;enable-background:accumulate"/><path id="path3767" d="m 318.0002,-415.00336 c -1.108,0 -2,0.91081 -2,2.03125 l 0,0.96875 -1,0 0,1 0,2 0,1 1,0 4,0 1,0 0,-1 0,-2 0,-1 -1,0 0,-0.96875 c 0,-1.12 -0.892,-2.03125 -2,-2.03125 z m 0,1 c 0.554,0 1,0.44236 1,1 l 0,1 -2,0 0,-1 c 0,-0.55764 0.446,-1 1,-1 z" style="fill:#fff"/></g></svg>