<svg xmlns="http://www.w3.org/2000/svg" xmlns:svg="http://www.w3.org/2000/svg" id="svg4141" width="24" height="24" version="1.0"><metadata id="metadata12"/><path style="opacity:.35;fill:#000;fill-opacity:1" id="path4925" d="m 17,14 c -1.108,0 -2,0.91081 -2,2.03125 L 15,17 l -1,0 0,1 0,2 0,1 1,0 4,0 1,0 0,-1 0,-2 0,-1 -1,0 0,-0.96875 C 19,14.91125 18.108,14 17,14 z m 0,1 c 0.554,0 1,0.44236 1,1 l 0,1 -2,0 0,-1 c 0,-0.55764 0.446,-1 1,-1 z"/><path id="path3767" d="m 17,13 c -1.108,0 -2,0.91081 -2,2.03125 L 15,16 l -1,0 0,1 0,2 0,1 1,0 4,0 1,0 0,-1 0,-2 0,-1 -1,0 0,-0.96875 C 19,13.91125 18.108,13 17,13 z m 0,1 c 0.554,0 1,0.44236 1,1 l 0,1 -2,0 0,-1 c 0,-0.55764 0.446,-1 1,-1 z" style="fill:#fff"/></svg>