<svg xmlns="http://www.w3.org/2000/svg" xmlns:svg="http://www.w3.org/2000/svg" id="svg2" width="24" height="24" version="1.1"><metadata id="metadata3401"/><g id="layer1" transform="translate(0,8)"><rect id="rect4047" width="3" height="3" x="6" y="8" stroke-width="2" color="#000" opacity=".2"/><path id="path4017" stroke="#333" stroke-linecap="round" stroke-linejoin="round" stroke-width="0" d="m 13,-2 c -0.554,0 -1,0.446 -1,1 l 0,12 c 0,0.554 0.446,1 1,1 l 6,0 c 0.554,0 1,-0.446 1,-1 l 0,-12 c 0,-0.554 -0.446,-1 -1,-1 z m 0,1 6,0 0,7 -6,0 z m 1,8 1,0 0,1 1,0 0,-1 1,0 0,1 1,0 0,-1 1,0 0,1 -1,0 0,1 1,0 0,1 -1,0 0,1 -1,0 0,-1 -1,0 0,1 -1,0 0,-1 -1,0 0,1 -1,0 0,-1 1,0 0,-1 -1,0 0,-1 1,0 z m 0,1 0,1 1,0 0,-1 z m 1,1 0,1 1,0 0,-1 z m 1,0 1,0 0,-1 -1,0 z m 1,0 0,1 1,0 0,-1 z" color="#bebebe" opacity=".2"/><path id="path3775" stroke="#333" stroke-linecap="round" stroke-linejoin="round" stroke-width="0" d="M 6.5,-3 C 6.223,-3 6,-2.777 6,-2.5 L 6,-2 4.5,-2 C 4.223,-2 4,-1.777 4,-1.5 l 0,14 C 4,12.777 4.223,13 4.5,13 l 6,0 c 0.277,0 0.5,-0.223 0.5,-0.5 l 0,-14 C 11,-1.777 10.777,-2 10.5,-2 L 9,-2 9,-2.5 C 9,-2.777 8.777,-3 8.5,-3 z m -1.5,2 1.5,0 2,0 1.5,0 0,13 -5,0 z" color="#bebebe" opacity=".2"/><path id="path2994" fill="#fff" stroke="#333" stroke-linecap="round" stroke-linejoin="round" stroke-width="0" d="M 6.5,-4 C 6.223,-4 6,-3.777 6,-3.5 L 6,-3 4.5,-3 C 4.223,-3 4,-2.777 4,-2.5 l 0,14 C 4,11.777 4.223,12 4.5,12 l 6,0 c 0.277,0 0.5,-0.223 0.5,-0.5 l 0,-14 C 11,-2.777 10.777,-3 10.5,-3 L 9,-3 9,-3.5 C 9,-3.777 8.777,-4 8.5,-4 z m -1.5,2 1.5,0 2,0 1.5,0 0,13 -5,0 z" color="#bebebe"/><path id="path4950" fill="#fff" stroke="#333" stroke-linecap="round" stroke-linejoin="round" stroke-width="0" d="m 13,-3 c -0.554,0 -1,0.446 -1,1 l 0,12 c 0,0.554 0.446,1 1,1 l 6,0 c 0.554,0 1,-0.446 1,-1 l 0,-12 c 0,-0.554 -0.446,-1 -1,-1 z m 0,1 6,0 0,7 -6,0 z m 1,8 1,0 0,1 1,0 0,-1 1,0 0,1 1,0 0,-1 1,0 0,1 -1,0 0,1 1,0 0,1 -1,0 0,1 -1,0 0,-1 -1,0 0,1 -1,0 0,-1 -1,0 0,1 -1,0 0,-1 1,0 0,-1 -1,0 0,-1 1,0 z m 0,1 0,1 1,0 0,-1 z m 1,1 0,1 1,0 0,-1 z m 1,0 1,0 0,-1 -1,0 z m 1,0 0,1 1,0 0,-1 z" color="#bebebe"/><rect id="rect4038" width="3" height="9" x="6" y="1" fill="#fff" stroke-width="2" color="#000"/></g></svg>