<svg xmlns="http://www.w3.org/2000/svg" xmlns:osb="http://www.openswatchbook.org/uri/2009/osb" xmlns:svg="http://www.w3.org/2000/svg" id="svg2" width="24" height="24" enable-background="new" version="1.1"><metadata id="metadata90"/><defs id="defs7386"><linearGradient id="linearGradient5606" osb:paint="solid"><stop id="stop5608"/></linearGradient></defs><g id="layer9" transform="translate(-257.00019,351)"><g id="g3878" opacity=".2" transform="translate(1,2)"><rect id="rect3880" width="2" height="6" x="267" y="-347" color="#bebebe" rx=".5"/><path id="path3882" d="M 9,5.34375 C 6.668833,6.1669998 5,8.3870028 5,11 c 0,3.313708 2.6862915,6 6,6 3.313708,0 6,-2.686292 6,-6 0,-2.6129972 -1.668833,-4.8330002 -4,-5.65625 l 0,2.21875 c 1.193791,0.6920851 2,1.9582915 2,3.4375 0,2.209139 -1.790861,4 -4,4 C 8.790861,15 7,13.209139 7,11 7,9.5207915 7.8062088,8.2545851 9,7.5625 L 9,5.34375 z" color="#000" transform="translate(257.00019,-351)"/></g><g id="g3874" transform="translate(1,1)"><rect id="rect5820" width="2" height="6" x="267" y="-347" fill="#fff" color="#bebebe" rx=".5"/><path id="path3864" fill="#fff" d="M 9,5.34375 C 6.668833,6.1669998 5,8.3870028 5,11 c 0,3.313708 2.6862915,6 6,6 3.313708,0 6,-2.686292 6,-6 0,-2.6129972 -1.668833,-4.8330002 -4,-5.65625 l 0,2.21875 c 1.193791,0.6920851 2,1.9582915 2,3.4375 0,2.209139 -1.790861,4 -4,4 C 8.790861,15 7,13.209139 7,11 7,9.5207915 7.8062088,8.2545851 9,7.5625 L 9,5.34375 z" color="#000" transform="translate(257.00019,-351)"/></g></g></svg>