<svg xmlns="http://www.w3.org/2000/svg" xmlns:osb="http://www.openswatchbook.org/uri/2009/osb" xmlns:svg="http://www.w3.org/2000/svg" style="enable-background:new" id="svg7384" width="16" height="16" version="1.1"><metadata id="metadata90"/><title id="title8473">Moka Symbolic Icon Theme</title><defs id="defs7386"><linearGradient id="linearGradient5606" osb:paint="solid"><stop style="stop-color:#000;stop-opacity:1" id="stop5608" offset="0"/></linearGradient><filter style="color-interpolation-filters:sRGB" id="filter7554"><feBlend id="feBlend7556" in2="BackgroundImage" mode="darken"/></filter></defs><g style="display:inline" id="layer1" transform="translate(-442.00003,-207.99664)"><path style="color:#000;font-style:normal;font-variant:normal;font-weight:400;font-stretch:normal;font-size:medium;line-height:normal;font-family:Sans;-inkscape-font-specification:Sans;text-indent:0;text-align:start;text-decoration:none;text-decoration-line:none;letter-spacing:normal;word-spacing:normal;text-transform:none;direction:ltr;block-progression:tb;writing-mode:lr-tb;baseline-shift:baseline;text-anchor:start;display:inline;overflow:visible;visibility:visible;fill:#bebebe;fill-opacity:1;stroke:none;stroke-width:1.99999976;marker:none;enable-background:accumulate" id="path1299" d="m 448.00003,207.99664 0,1 0,5 -1,0 -1.00003,0 c 1.46675,2.08173 3.50003,5.219 3.50003,5.219 l 3.49997,-5.219 -0.99997,0 -1,0 0,-5 0,-1 -1,0 -1,0 z"/><path style="color:#000;display:inline;overflow:visible;visibility:visible;fill:#bebebe;fill-opacity:1;fill-rule:nonzero;stroke:none;stroke-width:1;marker:none;enable-background:accumulate" id="path6557" d="m 447,210.34039 c -2.34254,0.99465 -4,3.3241 -4,6.0625 0,3.64238 2.91015,6.59375 6.5,6.59375 3.58985,0 6.5,-2.95137 6.5,-6.59375 0,-2.7384 -1.65746,-5.06759 -4,-6.0625 l 0,1.09375 c 1.77752,0.92757 3,2.80472 3,4.96875 0,3.08202 -2.46243,5.59375 -5.5,5.59375 -3.03757,0 -5.5,-2.51173 -5.5,-5.59375 0,-2.16403 1.22248,-4.01352 3,-4.9375 l 0,-1.125 z"/></g></svg>