<svg xmlns="http://www.w3.org/2000/svg" xmlns:osb="http://www.openswatchbook.org/uri/2009/osb" xmlns:svg="http://www.w3.org/2000/svg" style="enable-background:new" id="svg7384" width="16" height="16.007" version="1.1"><metadata id="metadata90"/><title id="title8473">Moka Symbolic Icon Theme</title><defs id="defs7386"><linearGradient id="linearGradient5606" osb:paint="solid"><stop style="stop-color:#000;stop-opacity:1" id="stop5608" offset="0"/></linearGradient><filter style="color-interpolation-filters:sRGB" id="filter7554"><feBlend id="feBlend7556" in2="BackgroundImage" mode="darken"/></filter></defs><g style="display:inline" id="layer1" transform="translate(-523.00007,-227.98993)"><path style="display:inline;fill:#bebebe;fill-opacity:1;stroke:none;enable-background:new" id="path7170" d="m 525.84378,228.99664 c -0.28125,0.0469 -0.84375,0.25 -0.84375,1 l 0,7 1,0 0,-7 6,0 1,0 0,3 3,0 0,1 0,3 0,1 1,0 c -1.7e-4,-0.47295 3.7e-4,-0.50388 0,-1 l 0,-1 c -0.003,-2.9747 0,-3 0,-3 l -4,-4 -7,0 c 0,0 -0.0625,-0.0156 -0.15625,0 z m -0.84375,9 0,1 1,0 0,-1 z m 11,1 0,1 1,0 c 4.3e-4,-0.35608 -1e-4,-0.57373 0,-1 z m -11,1 0,1 1,0 0,-1 z m 11,1 0,1 1,0 c 10e-4,-0.14516 -8.2e-4,-0.73763 0,-1 z m -11,1 0,1 1,0 0,-1 z m 1,1 0,1 1,0 0,-1 z m 2,0 0,1 1,0 0,-1 z m 2,0 0,1 1,0 0,-1 z m 2,0 0,1 1,0 0,-1 z m 2,0 0,1 1,0 0,-1 z m 2,0 0,1 1,0 0,-1 z"/></g></svg>