<svg xmlns="http://www.w3.org/2000/svg" xmlns:osb="http://www.openswatchbook.org/uri/2009/osb" xmlns:svg="http://www.w3.org/2000/svg" style="enable-background:new" id="svg7384" width="16" height="16" version="1.1"><metadata id="metadata90"/><title id="title8473">Moka Symbolic Icon Theme</title><defs id="defs7386"><linearGradient id="linearGradient5606" osb:paint="solid"><stop style="stop-color:#000;stop-opacity:1" id="stop5608" offset="0"/></linearGradient><filter style="color-interpolation-filters:sRGB" id="filter7554"><feBlend id="feBlend7556" in2="BackgroundImage" mode="darken"/></filter></defs><g style="display:inline" id="layer1" transform="translate(-503.00003,-206.99664)"><path style="color:#000;font-style:normal;font-variant:normal;font-weight:400;font-stretch:normal;font-size:medium;line-height:normal;font-family:sans-serif;-inkscape-font-specification:sans-serif;text-indent:0;text-align:start;text-decoration:none;text-decoration-line:none;text-decoration-style:solid;text-decoration-color:#000;letter-spacing:normal;word-spacing:normal;text-transform:none;direction:ltr;block-progression:tb;writing-mode:lr-tb;baseline-shift:baseline;text-anchor:start;white-space:normal;clip-rule:nonzero;display:inline;overflow:visible;visibility:visible;opacity:1;isolation:auto;mix-blend-mode:normal;color-interpolation:sRGB;color-interpolation-filters:linearRGB;solid-color:#000;solid-opacity:1;fill:#bebebe;fill-opacity:1;fill-rule:nonzero;stroke:none;stroke-width:1;stroke-linecap:butt;stroke-linejoin:round;stroke-miterlimit:4;stroke-dasharray:none;stroke-dashoffset:0;stroke-opacity:1;marker:none;color-rendering:auto;image-rendering:auto;shape-rendering:auto;text-rendering:auto;enable-background:accumulate" id="polygon5122-0-0" d="m 510.95898,207.62109 a 0.50005,0.50005 0 0 0 -0.42773,0.32618 l -1.86523,5.05468 -5.16602,0 a 0.50005,0.50005 0 0 0 -0.31445,0.88867 l 4.03515,3.27735 -1.33789,5.02539 a 0.50005,0.50005 0 0 0 0.75391,0.54687 L 511,219.91602 l 4.36328,2.82421 a 0.50005,0.50005 0 0 0 0.75586,-0.54687 l -1.33789,-5.02539 4.03516,-3.27735 A 0.50005,0.50005 0 0 0 518.5,213.00195 l -5.16406,0 -1.86719,-5.05468 a 0.50005,0.50005 0 0 0 -0.50977,-0.32618 z m 0.041,1.94141 1.51758,4.11328 a 0.50005,0.50005 0 0 0 0.46875,0.32617 l 4.10547,0 -3.19141,2.59375 a 0.50005,0.50005 0 0 0 -0.16797,0.51758 l 1.08789,4.08594 -3.54883,-2.29883 a 0.50005,0.50005 0 0 0 -0.54296,0 l -3.54688,2.29688 1.08789,-4.08399 a 0.50005,0.50005 0 0 0 -0.16797,-0.51758 l -3.1914,-2.59375 4.10351,0 a 0.50005,0.50005 0 0 0 0.46875,-0.32617 L 511,209.5625 Z"/></g></svg>