<svg xmlns="http://www.w3.org/2000/svg" xmlns:osb="http://www.openswatchbook.org/uri/2009/osb" xmlns:svg="http://www.w3.org/2000/svg" style="enable-background:new" id="svg7384" width="16" height="16" version="1.1"><metadata id="metadata90"/><title id="title8473">Moka Symbolic Icon Theme</title><defs id="defs7386"><linearGradient id="linearGradient5606" osb:paint="solid"><stop style="stop-color:#000;stop-opacity:1" id="stop5608" offset="0"/></linearGradient><filter style="color-interpolation-filters:sRGB" id="filter7554"><feBlend id="feBlend7556" in2="BackgroundImage" mode="darken"/></filter></defs><g style="display:inline" id="layer1" transform="translate(-462.00004,-188.99664)"><path style="fill:#bebebe;fill-opacity:1;stroke:none" id="path16259" d="m 470.00003,190.62164 -0.6875,0.625 -5.5,5 -0.8125,0.75 0,1 1,0 0,6 12,0 0,-6 1,0 0,-1 -1.0625,-1 -5.25,-4.75 z m 0,1.75 5,4.625 0,6 -3,0 0,-4 -4,0 0,4 -3,0 0,-6 z m -1,7.625 2,0 0,3 -2,0 z"/><path style="color:#000;display:inline;overflow:visible;visibility:visible;fill:#bebebe;fill-opacity:1;fill-rule:evenodd;stroke:none;stroke-width:2;marker:none;enable-background:accumulate" id="rect3000-4" d="m 473.00003,191.99664 0,2.25 1,0.84375 0,-2.09375 1,0 0,2.90625 1,0.84375 0,-4.75 -3,0 z"/></g></svg>