<svg xmlns="http://www.w3.org/2000/svg" xmlns:svg="http://www.w3.org/2000/svg" xmlns:xlink="http://www.w3.org/1999/xlink" id="svg3749" width="24" height="24" version="1.1"><metadata id="metadata148432"/><defs id="defs3751"><radialGradient id="radialGradient4793" cx="23.896" cy="3.99" r="20.397" gradientTransform="matrix(0,1.2316483,-1.625754,0,18.486966,-28.721977)" gradientUnits="userSpaceOnUse"><stop id="stop4795" offset="0" style="stop-color:#232323;stop-opacity:1"/><stop id="stop4797" offset=".262" style="stop-color:#212121;stop-opacity:1"/><stop id="stop4799" offset=".661" style="stop-color:#1c1c1c;stop-opacity:1"/><stop id="stop4801" offset="1" style="stop-color:#121212;stop-opacity:1"/></radialGradient><linearGradient id="linearGradient4847"><stop id="stop4849" offset="0" style="stop-color:#fff;stop-opacity:1"/><stop id="stop4851" offset="1" style="stop-color:#fff;stop-opacity:0"/></linearGradient><linearGradient id="linearGradient4803"><stop id="stop4805" offset="0" style="stop-color:#5f5f5f;stop-opacity:1"/><stop id="stop4807" offset=".331" style="stop-color:#505050;stop-opacity:1"/><stop id="stop4809" offset="1" style="stop-color:#1c1c1c;stop-opacity:1"/></linearGradient><linearGradient id="linearGradient4119-8" x1="91.566" x2="91.566" y1="16.543" y2="48.631" gradientTransform="matrix(0.46791442,0,0,0.46791442,-8.0883702,18.759496)" gradientUnits="userSpaceOnUse" xlink:href="#linearGradient4811"/><linearGradient id="linearGradient4811"><stop id="stop4813" offset="0" style="stop-color:#3a3842;stop-opacity:1"/><stop id="stop4815" offset="1" style="stop-color:#303036;stop-opacity:1"/></linearGradient><linearGradient id="linearGradient6042-1-7-8-8-5"><stop style="stop-color:#261b2b;stop-opacity:1" id="stop6044-9-6-3-6-6" offset="0"/><stop style="stop-color:#332f35;stop-opacity:1" id="stop6046-9-5-1-2-5" offset="1"/></linearGradient><linearGradient id="linearGradient2867-449-88-871-390-598-476-591-434-148-57-177-691-4-22-1-2-5"><stop style="stop-color:#612f91;stop-opacity:1" id="stop7191-4-6-8-8-0" offset="0"/><stop style="stop-color:#1a4aa2;stop-opacity:1" id="stop7197-2-8-6-5-9" offset="1"/></linearGradient><linearGradient id="linearGradient3087-408-5-3-7-9-1" x1="7.078" x2="7.078" y1="3.082" y2="45.369" gradientTransform="matrix(0.22110724,0,0,0.22110728,6.6934256,6.693263)" gradientUnits="userSpaceOnUse"><stop style="stop-color:#170418;stop-opacity:1" id="stop7201-5-71-3-5-2" offset="0"/><stop style="stop-color:#50386b;stop-opacity:1" id="stop7203-2-8-8-5-3" offset="1"/></linearGradient><linearGradient id="linearGradient4278-3-5-5-9-2"><stop style="stop-color:#000;stop-opacity:0" id="stop4280-6-90-6-3-6" offset="0"/><stop style="stop-color:#000;stop-opacity:0" id="stop4286-1-9-5-7-9" offset=".5"/><stop style="stop-color:#000;stop-opacity:1" id="stop4282-24-4-0-5-4" offset="1"/></linearGradient><linearGradient id="linearGradient6088-74-4-8-8-8"><stop style="stop-color:#ff54d2;stop-opacity:0" id="stop6090-5-66-7-7-4" offset="0"/><stop style="stop-color:#f62b68;stop-opacity:1" id="stop6257-5-4-6-4-1" offset=".324"/><stop style="stop-color:#ff0105;stop-opacity:1" id="stop6255-6-7-9-7-1" offset=".561"/><stop style="stop-color:#ff54d2;stop-opacity:.47826087" id="stop6092-0-22-2-1-1" offset="1"/></linearGradient><linearGradient id="linearGradient4316-4-6-6-4-5-1-8"><stop style="stop-color:#fff;stop-opacity:1" id="stop4318-4-4-6-5-3-0-4" offset="0"/><stop style="stop-color:#fff;stop-opacity:.23529412" id="stop4320-2-2-6-59-35-1-3" offset=".338"/><stop style="stop-color:#fff;stop-opacity:.15686275" id="stop4322-4-5-5-0-1-8-6" offset=".62"/><stop style="stop-color:#fff;stop-opacity:.39215687" id="stop4324-4-1-5-5-42-0-0" offset="1"/></linearGradient><linearGradient id="linearGradient3990-3-1-7-0-9-2"><stop style="stop-color:#fff;stop-opacity:1" id="stop3992-0-0-1-0-0-2" offset="0"/><stop style="stop-color:#fff;stop-opacity:0" id="stop3994-2-1-8-6-6-3" offset="1"/></linearGradient><linearGradient id="linearGradient6191-9-9-5-0-4"><stop style="stop-color:#fff;stop-opacity:0" id="stop6193-8-1-3-2-6" offset="0"/><stop style="stop-color:#fff;stop-opacity:0" id="stop6197-8-8-7-1-9" offset=".405"/><stop style="stop-color:#fff;stop-opacity:.47826087" id="stop6195-9-3-6-0-8" offset="1"/></linearGradient><linearGradient id="linearGradient6191-7-9-4-9-2-5"><stop style="stop-color:#fff;stop-opacity:0" id="stop6193-7-3-6-0-5-9" offset="0"/><stop style="stop-color:#fff;stop-opacity:0" id="stop6197-2-2-0-4-9-6" offset=".405"/><stop style="stop-color:#fff;stop-opacity:.47826087" id="stop6195-2-1-9-1-9-7" offset="1"/></linearGradient><linearGradient id="linearGradient6191-8-3-4-5-4-0"><stop style="stop-color:#fff;stop-opacity:0" id="stop6193-75-7-6-4-2-2" offset="0"/><stop style="stop-color:#fff;stop-opacity:0" id="stop6197-3-4-1-4-8-0" offset=".405"/><stop style="stop-color:#fff;stop-opacity:.47826087" id="stop6195-7-2-5-7-8-4" offset="1"/></linearGradient><linearGradient id="linearGradient6088-6-1-0-06-8-8"><stop style="stop-color:#ff54d2;stop-opacity:0" id="stop6090-2-0-4-9-4-0" offset="0"/><stop style="stop-color:#ff54d2;stop-opacity:0" id="stop6257-4-6-1-76-0-7" offset=".324"/><stop style="stop-color:#ff54d2;stop-opacity:.2521739" id="stop6255-3-6-7-23-8-1" offset=".561"/><stop style="stop-color:#ff54d2;stop-opacity:.47826087" id="stop6092-9-6-8-9-2-4" offset="1"/></linearGradient><linearGradient id="linearGradient6303-4-8-5-0-9"><stop style="stop-color:#fff;stop-opacity:1" id="stop6305-33-3-3-7-8" offset="0"/><stop style="stop-color:#fff;stop-opacity:0" id="stop6307-9-3-4-0-8" offset="1"/></linearGradient><linearGradient id="linearGradient6303-3-2-1-4-9-8"><stop style="stop-color:#fff;stop-opacity:1" id="stop6305-3-0-9-0-0-0" offset="0"/><stop style="stop-color:#fff;stop-opacity:0" id="stop6307-1-0-1-2-1-0" offset="1"/></linearGradient><linearGradient id="linearGradient6303-33-0-2-0-0-5"><stop style="stop-color:#fff;stop-opacity:1" id="stop6305-1-0-2-0-2-6" offset="0"/><stop style="stop-color:#fff;stop-opacity:0" id="stop6307-5-0-6-1-8-7" offset="1"/></linearGradient><linearGradient id="linearGradient6413-0-0-0-9-7"><stop style="stop-color:#feffff;stop-opacity:1" id="stop6415-1-7-3-8-5" offset="0"/><stop style="stop-color:#fe70ca;stop-opacity:1" id="stop6417-4-9-2-3-3" offset="1"/></linearGradient><linearGradient id="linearGradient6455-7-3-3-2-4"><stop style="stop-color:#fbac9b;stop-opacity:1" id="stop6457-5-1-10-5-0" offset="0"/><stop style="stop-color:#fcfafc;stop-opacity:1" id="stop6459-8-9-7-0-2" offset="1"/></linearGradient><linearGradient id="linearGradient4823"><stop id="stop4825" offset="0" style="stop-color:#fff;stop-opacity:1"/><stop id="stop4827" offset="1" style="stop-color:#fff;stop-opacity:0"/></linearGradient><radialGradient id="radialGradient3536" cx="23.896" cy="3.99" r="20.397" fx="23.896" fy="3.99" gradientTransform="matrix(0,1.4794679,-1.9528714,0,42.79201,-12.070966)" gradientUnits="userSpaceOnUse" xlink:href="#radialGradient4793"/><linearGradient id="linearGradient3538" x1="26" x2="46" y1="36" y2="36" gradientTransform="matrix(0,1,-1,0,70.999998,-1.999723)" gradientUnits="userSpaceOnUse" xlink:href="#linearGradient4847"/><linearGradient id="linearGradient3540" x1="51.2" x2="51.2" y1="8.114" y2="56.115" gradientTransform="matrix(0.37500007,0,0,-0.37499833,15.757,46.000084)" gradientUnits="userSpaceOnUse" xlink:href="#linearGradient4803"/><radialGradient id="radialGradient3542" cx="32" cy="21.239" r="10.498" fx="32" fy="21.239" gradientTransform="matrix(0,0.6733571,-1.5511106,0,67.94433,8.850549)" gradientUnits="userSpaceOnUse" xlink:href="#linearGradient6042-1-7-8-8-5"/><radialGradient id="radialGradient3544" cx="23.896" cy="3.99" r="20.397" gradientTransform="matrix(0,0.2344161,-0.30942651,0,36.23449,26.249571)" gradientUnits="userSpaceOnUse" xlink:href="#linearGradient2867-449-88-871-390-598-476-591-434-148-57-177-691-4-22-1-2-5"/><linearGradient id="linearGradient3546" x1="7.078" x2="7.078" y1="3.082" y2="45.369" gradientTransform="matrix(0.09821987,0,0,0.09821945,32.64258,31.642799)" gradientUnits="userSpaceOnUse" xlink:href="#linearGradient3087-408-5-3-7-9-1"/><radialGradient id="radialGradient3548" cx="95.838" cy="95.388" r="9.498" fx="95.838" fy="95.388" gradientTransform="matrix(0.19553888,-2.9157311e-8,2.7395628e-8,0.18372271,16.22942,16.403041)" gradientUnits="userSpaceOnUse" xlink:href="#linearGradient4278-3-5-5-9-2"/><radialGradient id="radialGradient3550" cx="32.373" cy="31.405" r="3.857" fx="32.373" fy="31.405" gradientTransform="matrix(-0.69848286,0,0,-0.69847961,57.614743,55.939314)" gradientUnits="userSpaceOnUse" xlink:href="#linearGradient6088-74-4-8-8-8"/><linearGradient id="linearGradient3552" x1="92.696" x2="92.696" y1="16.555" y2="48.984" gradientTransform="matrix(0.11294455,0,0,0.11294455,24.59928,30.321368)" gradientUnits="userSpaceOnUse" xlink:href="#linearGradient4316-4-6-6-4-5-1-8"/><linearGradient id="linearGradient3554" x1="68.313" x2="68.313" y1="52.925" y2="65.922" gradientTransform="matrix(0.05404846,0,0,0.04053616,31.38316,30.92865)" gradientUnits="userSpaceOnUse" xlink:href="#linearGradient3990-3-1-7-0-9-2"/><radialGradient id="radialGradient3556" cx="32.373" cy="31.405" r="3.857" fx="32.373" fy="31.405" gradientTransform="matrix(0.69887275,0.18726152,-0.18078067,0.67467948,18.049632,6.746495)" gradientUnits="userSpaceOnUse" xlink:href="#linearGradient6191-9-9-5-0-4"/><radialGradient id="radialGradient3558" cx="32.373" cy="31.405" r="3.857" fx="32.373" fy="31.405" gradientTransform="matrix(0,0.72352295,-0.69848286,-2.9134813e-8,56.937982,10.573955)" gradientUnits="userSpaceOnUse" xlink:href="#linearGradient6191-7-9-4-9-2-5"/><radialGradient id="radialGradient3560" cx="32.373" cy="31.405" r="3.857" fx="32.373" fy="31.405" gradientTransform="matrix(0.42281461,0.58712428,-0.56680474,0.40817779,39.112258,2.170078)" gradientUnits="userSpaceOnUse" xlink:href="#linearGradient6191-8-3-4-5-4-0"/><radialGradient id="radialGradient3562" cx="32.373" cy="31.405" r="3.857" fx="32.373" fy="31.405" gradientTransform="matrix(-0.49390196,-0.49389966,0.49390196,-0.49389966,35.477636,64.85271)" gradientUnits="userSpaceOnUse" xlink:href="#linearGradient6088-6-1-0-06-8-8"/><radialGradient id="radialGradient3564" cx="36.491" cy="39.709" r="3.159" fx="36.491" fy="39.709" gradientTransform="matrix(0.77231662,-0.44589514,0.25370014,0.43941951,-1.5801101,35.033531)" gradientUnits="userSpaceOnUse" xlink:href="#linearGradient6303-4-8-5-0-9"/><radialGradient id="radialGradient3566" cx="36.491" cy="39.709" r="3.159" fx="36.491" fy="39.709" gradientTransform="matrix(0.62147768,-0.35880864,0.20415069,0.35359772,2.0570698,30.647772)" gradientUnits="userSpaceOnUse" xlink:href="#linearGradient6303-3-2-1-4-9-8"/><radialGradient id="radialGradient3568" cx="36.491" cy="39.709" r="3.159" fx="36.491" fy="39.709" gradientTransform="matrix(0.17728269,0,0,0.18545771,28.32887,26.342082)" gradientUnits="userSpaceOnUse" xlink:href="#linearGradient6303-33-0-2-0-0-5"/><linearGradient id="linearGradient3570" x1="38.851" x2="34.131" y1="41.608" y2="37.81" gradientTransform="matrix(0.17728269,0,0,0.18545771,26.84164,25.441923)" gradientUnits="userSpaceOnUse" xlink:href="#linearGradient6413-0-0-0-9-7"/><linearGradient id="linearGradient3572" x1="38.851" x2="34.131" y1="41.608" y2="37.81" gradientTransform="matrix(0.12398751,0,0,0.12970493,29.10444,27.98847)" gradientUnits="userSpaceOnUse" xlink:href="#linearGradient6455-7-3-3-2-4"/><linearGradient id="linearGradient3574" x1="28.5" x2="43.5" y1="35.999" y2="35.999" gradientTransform="matrix(0,1,-1,0,70.998773,-1.9997262)" gradientUnits="userSpaceOnUse" xlink:href="#linearGradient4823"/></defs><g id="layer1" transform="translate(0,2)"><g id="g4133" transform="translate(-23,-24)" style="display:inline"><path style="color:#000;fill:url(#radialGradient3536);fill-opacity:1;fill-rule:nonzero;stroke:none;stroke-width:.99999994;marker:none;visibility:visible;display:inline;overflow:visible;enable-background:accumulate" id="path2555-7-2-5" d="m 34.99986,23.500275 c -5.79346,0 -10.49986,4.706399 -10.49986,10.499863 0,5.793464 4.7064,10.499863 10.49986,10.499863 5.79346,0 10.49987,-4.706399 10.49986,-10.499863 0,-5.793464 -4.7064,-10.499863 -10.49986,-10.499863 z"/><path style="opacity:.6;color:#000;fill:none;stroke:url(#linearGradient3538);stroke-width:.99999982;stroke-linecap:round;stroke-linejoin:round;stroke-miterlimit:4;stroke-opacity:1;stroke-dasharray:none;stroke-dashoffset:0;marker:none;visibility:visible;display:inline;overflow:visible;enable-background:accumulate" id="path4176-3" d="m 34.99986,43.500136 c -5.246708,0 -9.5,-4.25329 -9.5,-9.500009 0,-5.246701 4.253292,-9.499989 9.5,-9.499989 5.24671,0 9.500001,4.253289 9.500001,9.499989 0,5.246719 -4.253291,9.50001 -9.500001,9.50001 z"/><path style="color:#000;fill:url(#linearGradient3540);fill-opacity:1;fill-rule:nonzero;stroke:none;stroke-width:.99999994;marker:none;visibility:visible;display:inline;overflow:visible;enable-background:accumulate" id="path2555-36-4-4-8" d="m 34.99987,43.000097 c -4.96614,0 -9.00001,-4.034299 -9.00001,-8.999959 0,-4.966089 4.03432,-8.99996 9.00001,-8.99996 4.9661,0 8.99999,4.034299 8.99999,8.99996 0,4.966095 -4.03432,8.999959 -8.99999,8.999959 z"/><path style="color:#000;fill:url(#linearGradient4119-8);fill-opacity:1;fill-rule:nonzero;stroke:none;stroke-width:.79069769;marker:none;visibility:visible;display:inline;overflow:visible;enable-background:accumulate" id="path4218-6-9" d="m 42.499865,34.000138 a 7.5000005,7.5000005 0 0 1 -15.000001,0 7.5000005,7.5000005 0 1 1 15.000001,0 z"/><path style="opacity:.3;color:#000;fill:none;stroke:#000;stroke-width:1;stroke-linecap:butt;stroke-linejoin:miter;stroke-miterlimit:4;stroke-opacity:1;stroke-dasharray:none;stroke-dashoffset:0;marker:none;visibility:visible;display:inline;overflow:visible;enable-background:accumulate" id="path4218-4-3-7" d="m 42.499899,34.000138 a 7.5000351,7.5000004 0 0 1 -15.00007,0 7.5000351,7.5000004 0 1 1 15.00007,0 z"/><path style="opacity:.1;color:#000;fill:none;stroke:#000;stroke-width:2;stroke-linecap:butt;stroke-linejoin:miter;stroke-miterlimit:4;stroke-opacity:1;stroke-dasharray:none;stroke-dashoffset:0;marker:none;visibility:visible;display:inline;overflow:visible;enable-background:accumulate" id="path4326-5-9-8" d="m 40.499888,34.000137 a 5.5000254,5.5 0 1 1 -11.000049,0 5.5000254,5.5 0 1 1 11.000049,0 z"/><path style="opacity:.41000001;color:#000;fill:none;stroke:#000;stroke-width:.99999988;stroke-opacity:1;marker:none;visibility:visible;display:inline;overflow:visible;enable-background:accumulate" id="path3871-0" d="M 34.99986,23.500275 C 29.2064,23.500275 24.5,28.206673 24.5,34.000138 24.5,39.793602 29.2064,44.5 34.99986,44.5 c 5.79346,0 10.49987,-4.706398 10.49986,-10.499862 0,-5.793465 -4.7064,-10.499863 -10.49986,-10.499863 z"/><path style="fill:url(#radialGradient3542);fill-opacity:1;stroke:none" id="path2555-3-5-2-2-0" d="m 34.99986,30.48587 c -1.939,0 -3.51427,1.575177 -3.51427,3.514261 0,1.939011 1.57527,3.514268 3.51427,3.514268 1.93901,0 3.51427,-1.575177 3.51427,-3.514268 0,-1.939005 -1.57518,-3.514261 -3.51427,-3.514261 z"/><path style="opacity:.3;fill:none;stroke:#000;stroke-width:1.00365412;stroke-linecap:round;stroke-linejoin:round;stroke-miterlimit:4;stroke-opacity:1;stroke-dasharray:none;stroke-dashoffset:0" id="path2555-3-5-0-6" d="m 34.99985,30.501964 c -1.93013,0 -3.49817,1.567972 -3.49817,3.498169 0,1.930127 1.56804,3.498177 3.49817,3.498177 1.93015,0 3.4982,-1.567965 3.4982,-3.498177 0,-1.930127 -1.56798,-3.498169 -3.4982,-3.498169 z"/><path style="fill:#2a232b;fill-opacity:1;stroke:none" id="path2555-3-5-3-3-8-7" d="m 34.99979,31.230224 c -1.52839,0 -2.77005,1.241589 -2.77005,2.77003 0,1.528368 1.24166,2.770023 2.77005,2.770023 1.52837,0 2.77004,-1.241589 2.77004,-2.770023 0,-1.528383 -1.24161,-2.77003 -2.77004,-2.77003 z"/><path style="fill:url(#radialGradient3544);fill-opacity:1;stroke:url(#linearGradient3546);stroke-width:1.00365412;stroke-linecap:round;stroke-linejoin:round;stroke-miterlimit:4;stroke-dasharray:none;stroke-dashoffset:0" id="path2555-3-9-2-0" d="m 34.99986,32.001965 c -1.10251,0 -1.99818,0.895627 -1.99818,1.998168 0,1.102502 0.89567,1.998177 1.99818,1.998177 1.1025,0 1.99819,-0.895627 1.99819,-1.998177 0,-1.102493 -0.89565,-1.998168 -1.99819,-1.998168 z"/><path style="opacity:.5;fill:url(#radialGradient3548);fill-opacity:1;stroke:none" id="path2555-3-3-5-8-7" d="m 34.99987,32.551866 c -0.79911,0 -1.44828,0.649152 -1.44828,1.448265 0,0.799091 0.64917,1.448279 1.44828,1.448279 0.79909,0 1.44827,-0.649152 1.44827,-1.448279 0,-0.799077 -0.64915,-1.448265 -1.44827,-1.448265 z"/><path style="opacity:.3;fill:none;stroke:#000;stroke-width:1.00365412;stroke-linecap:round;stroke-linejoin:round;stroke-miterlimit:4;stroke-opacity:1;stroke-dasharray:none;stroke-dashoffset:0" id="path2555-3-5-3-7-7" d="m 34.99986,31.46698 c -1.39768,0 -2.53316,1.135423 -2.53316,2.53315 0,1.397684 1.13548,2.533158 2.53316,2.533158 1.39768,0 2.53316,-1.135416 2.53316,-2.533158 0,-1.397676 -1.13543,-2.53315 -2.53316,-2.53315 z"/><path style="opacity:.4;color:#000;fill:url(#radialGradient3550);fill-opacity:1;fill-rule:nonzero;stroke:none;stroke-width:1;marker:none;visibility:visible;display:inline;overflow:visible;enable-background:accumulate" id="path6086-15-3" d="m 32.439964,33.503079 a 2.60766,2.6076479 0 0 1 1.884914,-2.021621 l 0.674912,2.518794 z"/><path style="opacity:.3;color:#000;fill:none;stroke:url(#linearGradient3552);stroke-width:1.00000012;stroke-linecap:butt;stroke-linejoin:miter;stroke-miterlimit:4;stroke-opacity:1;stroke-dasharray:none;stroke-dashoffset:0;marker:none;visibility:visible;display:inline;overflow:visible;enable-background:accumulate" id="path4218-4-9-8-2-7-9" d="m 36.8102,34.000134 a 1.81034,1.81034 0 0 1 -3.62068,0 1.81034,1.81034 0 1 1 3.62068,0 z"/><path style="opacity:.5;color:#000;fill:url(#linearGradient3554);fill-opacity:1;stroke:none;stroke-width:1;marker:none;visibility:visible;display:inline;overflow:visible;enable-background:accumulate" id="path3220-6-3" d="m 35.61726,33.537147 a 0.61747517,0.4631042 0 0 1 -1.23495,0 0.61747517,0.4631042 0 1 1 1.23495,0 z"/><path style="opacity:.4;color:#000;fill:url(#radialGradient3556);fill-opacity:1;fill-rule:nonzero;stroke:none;stroke-width:1;marker:none;visibility:visible;display:inline;overflow:visible;enable-background:accumulate" id="path6086-1-8-7" d="m 37.60744,34.000249 a 2.60766,2.6076479 0 0 1 -0.164649,0.911909 L 34.99978,34.000249 z"/><path style="opacity:.4;color:#000;fill:url(#radialGradient3558);fill-opacity:1;fill-rule:nonzero;stroke:none;stroke-width:1;marker:none;visibility:visible;display:inline;overflow:visible;enable-background:accumulate" id="path6086-1-5-6-8" d="m 35.234166,36.597347 a 2.6076601,2.6076479 0.22315868 0 1 -0.833577,-0.05922 l 0.599187,-2.537874 z"/><path style="opacity:.4;color:#000;fill:url(#radialGradient3560);fill-opacity:1;fill-rule:nonzero;stroke:none;stroke-width:1;marker:none;visibility:visible;display:inline;overflow:visible;enable-background:accumulate" id="path6086-1-50-1-9" d="m 37.214521,35.376764 a 2.60766,2.6076479 0.09114427 0 1 -1.217877,1.033067 l -0.996863,-2.409585 z"/><path style="opacity:.5;color:#000;fill:url(#radialGradient3562);fill-opacity:1;fill-rule:nonzero;stroke:none;stroke-width:1;marker:none;visibility:visible;display:inline;overflow:visible;enable-background:accumulate" id="path6086-3-3-9" d="m 33.155887,31.504453 a 2.60766,2.6076478 0 0 1 3.687788,0 l -1.843894,1.843886 z"/><path style="opacity:.2;color:#000;fill:url(#radialGradient3564);fill-opacity:1;fill-rule:nonzero;stroke:none;stroke-width:1;marker:none;visibility:visible;display:inline;overflow:visible;enable-background:accumulate" id="path6301-3-2" d="m 39.116403,34.802667 a 1.6028357,2.8171116 60.000225 1 1 -4.879386,2.817102 1.6028357,2.8171116 60.000225 0 1 4.879386,-2.817102 z"/><path style="opacity:.4;color:#000;fill:url(#radialGradient3566);fill-opacity:1;fill-rule:nonzero;stroke:none;stroke-width:1;marker:none;visibility:visible;display:inline;overflow:visible;enable-background:accumulate" id="path6301-5-8-5" d="m 34.805264,30.461996 a 1.2897906,2.26691 60.000226 1 1 -3.926408,2.266902 1.2897906,2.26691 60.000226 0 1 3.926408,-2.266902 z"/><path style="opacity:.8;color:#000;fill:url(#radialGradient3568);fill-opacity:1;fill-rule:nonzero;stroke:none;stroke-width:1;marker:none;visibility:visible;display:inline;overflow:visible;enable-background:accumulate" id="path6301-1-9-7" d="m 35.358128,33.706409 a 0.56002336,0.58584766 0 1 1 -1.120046,0 0.56002336,0.58584766 0 1 1 1.120046,0 z"/><path style="opacity:.4;color:#000;fill:url(#linearGradient3570);fill-opacity:1;fill-rule:nonzero;stroke:none;stroke-width:1;marker:none;visibility:visible;display:inline;overflow:visible;enable-background:accumulate" id="path6301-1-8-21-5" d="m 33.870898,32.80625 a 0.56002336,0.58584766 0 1 1 -1.120046,0 0.56002336,0.58584766 0 1 1 1.120046,0 z"/><path style="opacity:.4;color:#000;fill:url(#linearGradient3572);fill-opacity:1;fill-rule:nonzero;stroke:none;stroke-width:1;marker:none;visibility:visible;display:inline;overflow:visible;enable-background:accumulate" id="path6301-1-8-2-6-5" d="m 34.020545,33.138914 a 0.391668,0.40972893 0 1 1 -0.783336,0 0.391668,0.40972893 0 1 1 0.783336,0 z"/><path id="path4821" d="m 34.998635,41.500172 a 7.5000004,7.5000351 0 0 1 0,-15.00007 7.5000004,7.5000351 0 1 1 0,15.00007 z" style="opacity:.2;color:#000;fill:url(#linearGradient3574);fill-opacity:1;stroke:none;stroke-width:1;marker:none;visibility:visible;display:inline;overflow:visible;enable-background:accumulate"/><path id="path4837" d="m 40.499888,34.000137 a 5.5000254,5.5 0 1 1 -11.000049,0 5.5000254,5.5 0 1 1 11.000049,0 z" style="opacity:.3;color:#000;fill:none;stroke:#000;stroke-width:1;stroke-linecap:butt;stroke-linejoin:miter;stroke-miterlimit:4;stroke-opacity:1;stroke-dasharray:none;stroke-dashoffset:0;marker:none;visibility:visible;display:inline;overflow:visible;enable-background:accumulate"/></g></g></svg>