<svg xmlns="http://www.w3.org/2000/svg" xmlns:svg="http://www.w3.org/2000/svg" xmlns:xlink="http://www.w3.org/1999/xlink" id="svg5400" width="16" height="16" version="1.1"><defs id="defs5402"><linearGradient id="linearGradient3804"><stop id="stop3806" offset="0" style="stop-color:#fff;stop-opacity:1"/><stop id="stop3808" offset="1" style="stop-color:#fff;stop-opacity:0"/></linearGradient><linearGradient id="outerBackgroundGradient-4"><stop id="stop3864-8-6-6" offset="0" style="stop-color:#f0f0f0;stop-opacity:1"/><stop id="stop3866-9-1-7" offset="1" style="stop-color:#f9f9f9;stop-opacity:1"/></linearGradient><linearGradient id="linearGradient3156" x1="5" x2="5" y1="1" y2="14" gradientTransform="translate(2,1)" gradientUnits="userSpaceOnUse" xlink:href="#linearGradient3804"/><linearGradient id="linearGradient3159" x1="144" x2="144" y1="280" y2="40" gradientTransform="matrix(0.05555556,0,0,0.05714289,0,-1.1428659)" gradientUnits="userSpaceOnUse" xlink:href="#outerBackgroundGradient-4"/></defs><metadata id="metadata5405"/><g style="display:inline" id="layer1"><path style="opacity:.41000001;color:#bebebe;fill:none;stroke:#000;stroke-width:2;stroke-linejoin:round;stroke-miterlimit:4;stroke-opacity:1;stroke-dasharray:none;marker:none;visibility:visible;display:inline;overflow:visible;enable-background:accumulate" id="path3029" d="M 2,1.000004 14,1 c 0,4 0,10.000001 0,14 L 2,15 z"/><path id="rect3373-6" d="M 2,1.000004 14,1 c 0,4 0,10.000001 0,14 L 2,15 z" style="color:#bebebe;fill:url(#linearGradient3159);fill-opacity:1;fill-rule:nonzero;stroke:none;stroke-width:0;marker:none;visibility:visible;display:inline;overflow:visible;enable-background:accumulate"/><path id="path3799" d="M 2,1 2,15 14,15 14,1 z M 3,2 13,2 13,14 3,14 z" style="color:#bebebe;fill:url(#linearGradient3156);fill-opacity:1;fill-rule:nonzero;stroke:none;stroke-width:0;marker:none;visibility:visible;display:inline;overflow:visible;enable-background:accumulate"/></g><g style="display:inline" id="layer2"><g id="g3057"><path id="path26173" d="M 4.289061,2.85938 4.289061,2 3,2 l 0,0.85938 1.289061,0" style="font-size:2px;font-style:normal;font-variant:normal;font-weight:400;font-stretch:normal;line-height:100%;letter-spacing:0;word-spacing:0;fill:#89adc2;fill-opacity:1;stroke:none;font-family:BLOKK Neue;-inkscape-font-specification:BLOKK Neue"/><path id="path26175" d="M 5.539061,2.85938 5.539061,2 4.25,2 l 0,0.85938 1.289061,0" style="font-size:2px;font-style:normal;font-variant:normal;font-weight:400;font-stretch:normal;line-height:100%;letter-spacing:0;word-spacing:0;fill:#89adc2;fill-opacity:1;stroke:none;font-family:BLOKK Neue;-inkscape-font-specification:BLOKK Neue"/><path id="path26177" d="M 6.789061,2.85938 6.789061,2 5.5,2 l 0,0.85938 1.289061,0" style="font-size:2px;font-style:normal;font-variant:normal;font-weight:400;font-stretch:normal;line-height:100%;letter-spacing:0;word-spacing:0;fill:#89adc2;fill-opacity:1;stroke:none;font-family:BLOKK Neue;-inkscape-font-specification:BLOKK Neue"/><path id="path26271" d="M 4.289061,4.85938 4.289061,4 3,4 l 0,0.85938 1.289061,0" style="font-size:2px;font-style:normal;font-variant:normal;font-weight:400;font-stretch:normal;line-height:100%;letter-spacing:0;word-spacing:0;fill:#b78ed4;fill-opacity:1;stroke:none;font-family:BLOKK Neue;-inkscape-font-specification:BLOKK Neue"/><path id="path26273" d="M 5.539061,4.85938 5.539061,4 4.25,4 l 0,0.85938 1.289061,0" style="font-size:2px;font-style:normal;font-variant:normal;font-weight:400;font-stretch:normal;line-height:100%;letter-spacing:0;word-spacing:0;fill:#b78ed4;fill-opacity:1;stroke:none;font-family:BLOKK Neue;-inkscape-font-specification:BLOKK Neue"/><path id="path26365" d="M 4.289061,6.85938 4.289061,6 3,6 l 0,0.85938 1.289061,0" style="font-size:2px;font-style:normal;font-variant:normal;font-weight:400;font-stretch:normal;line-height:100%;letter-spacing:0;word-spacing:0;fill:#94d48e;fill-opacity:1;stroke:none;font-family:BLOKK Neue;-inkscape-font-specification:BLOKK Neue"/><path id="path26369" d="M 6.789061,6.85938 6.789061,6 5.5,6 l 0,0.85938 1.289061,0" style="font-size:2px;font-style:normal;font-variant:normal;font-weight:400;font-stretch:normal;line-height:100%;letter-spacing:0;word-spacing:0;fill:silver;fill-opacity:1;stroke:none;font-family:BLOKK Neue;-inkscape-font-specification:BLOKK Neue"/><path id="path26405" d="m 11.79687,10.85938 0,-0.85938 -1.289059,0 0,0.85938 1.289059,0" style="font-size:2px;font-style:normal;font-variant:normal;font-weight:400;font-stretch:normal;line-height:100%;letter-spacing:0;word-spacing:0;fill:#89adc2;fill-opacity:1;stroke:none;font-family:BLOKK Neue;-inkscape-font-specification:BLOKK Neue"/><path id="path26449" d="M 8.039061,4.85938 8.039061,4 6.75,4 l 0,0.85938 1.289061,0" style="font-size:2px;font-style:normal;font-variant:normal;font-weight:400;font-stretch:normal;line-height:100%;letter-spacing:0;word-spacing:0;fill:#d48eb3;fill-opacity:1;stroke:none;font-family:BLOKK Neue;-inkscape-font-specification:BLOKK Neue"/><path id="path26501" d="M 4.289061,8.85938 4.289061,8 3,8 l 0,0.85938 1.289061,0" style="font-size:2px;font-style:normal;font-variant:normal;font-weight:400;font-stretch:normal;line-height:100%;letter-spacing:0;word-spacing:0;fill:#94d48e;fill-opacity:1;stroke:none;font-family:BLOKK Neue;-inkscape-font-specification:BLOKK Neue"/><path style="font-size:2px;font-style:normal;font-variant:normal;font-weight:400;font-stretch:normal;line-height:100%;letter-spacing:0;word-spacing:0;fill:silver;fill-opacity:1;stroke:none;font-family:BLOKK Neue;-inkscape-font-specification:BLOKK Neue" id="path4089" d="M 6.789061,8.85938 6.789061,8 5.5,8 l 0,0.85938 1.289061,0"/><path style="font-size:2px;font-style:normal;font-variant:normal;font-weight:400;font-stretch:normal;line-height:100%;letter-spacing:0;word-spacing:0;fill:#89adc2;fill-opacity:1;stroke:none;font-family:BLOKK Neue;-inkscape-font-specification:BLOKK Neue" id="path4091" d="m 9.29687,8.85938 0,-0.85938 -1.289059,0 0,0.85938 1.289059,0"/><path style="font-size:2px;font-style:normal;font-variant:normal;font-weight:400;font-stretch:normal;line-height:100%;letter-spacing:0;word-spacing:0;fill:#89adc2;fill-opacity:1;stroke:none;font-family:BLOKK Neue;-inkscape-font-specification:BLOKK Neue" id="path4093" d="M 10.539061,8.85938 10.539061,8 9.25,8 l 0,0.85938 1.289061,0"/><path style="font-size:2px;font-style:normal;font-variant:normal;font-weight:400;font-stretch:normal;line-height:100%;letter-spacing:0;word-spacing:0;fill:#94d48e;fill-opacity:1;stroke:none;font-family:BLOKK Neue;-inkscape-font-specification:BLOKK Neue" id="path4095" d="M 4.289061,10.85938 4.289061,10 3,10 l 0,0.85938 1.289061,0"/><path id="path4097" d="M 6.789061,10.85938 6.789061,10 5.5,10 l 0,0.85938 1.289061,0" style="font-size:2px;font-style:normal;font-variant:normal;font-weight:400;font-stretch:normal;line-height:100%;letter-spacing:0;word-spacing:0;fill:silver;fill-opacity:1;stroke:none;font-family:BLOKK Neue;-inkscape-font-specification:BLOKK Neue"/><path id="path4101" d="m 10.539061,10.85938 0,-0.85938 -1.289061,0 0,0.85938 1.289061,0" style="font-size:2px;font-style:normal;font-variant:normal;font-weight:400;font-stretch:normal;line-height:100%;letter-spacing:0;word-spacing:0;fill:#89adc2;fill-opacity:1;stroke:none;font-family:BLOKK Neue;-inkscape-font-specification:BLOKK Neue"/><path id="path4103" d="M 4.289061,12.85938 4.289061,12 3,12 l 0,0.85938 1.289061,0" style="font-size:2px;font-style:normal;font-variant:normal;font-weight:400;font-stretch:normal;line-height:100%;letter-spacing:0;word-spacing:0;fill:#de6161;fill-opacity:1;stroke:none;font-family:BLOKK Neue;-inkscape-font-specification:BLOKK Neue"/><path style="font-size:2px;font-style:normal;font-variant:normal;font-weight:400;font-stretch:normal;line-height:100%;letter-spacing:0;word-spacing:0;fill:silver;fill-opacity:1;stroke:none;font-family:BLOKK Neue;-inkscape-font-specification:BLOKK Neue" id="path4105" d="M 6.789061,12.85938 6.789061,12 5.5,12 l 0,0.85938 1.289061,0"/><path style="font-size:2px;font-style:normal;font-variant:normal;font-weight:400;font-stretch:normal;line-height:100%;letter-spacing:0;word-spacing:0;fill:silver;fill-opacity:1;stroke:none;font-family:BLOKK Neue;-inkscape-font-specification:BLOKK Neue" id="path4107" d="M 8.039061,10.85938 8.039061,10 6.75,10 l 0,0.85938 1.289061,0"/></g></g></svg>