<svg xmlns="http://www.w3.org/2000/svg" xmlns:osb="http://www.openswatchbook.org/uri/2009/osb" xmlns:svg="http://www.w3.org/2000/svg" style="enable-background:new" id="svg7384" width="16" height="16" version="1.1"><metadata id="metadata90"/><title id="title8473">Moka Symbolic Icon Theme</title><defs id="defs7386"><linearGradient id="linearGradient5606" osb:paint="solid"><stop style="stop-color:#000;stop-opacity:1" id="stop5608" offset="0"/></linearGradient><filter style="color-interpolation-filters:sRGB" id="filter7554"><feBlend id="feBlend7556" in2="BackgroundImage" mode="darken"/></filter></defs><g style="display:inline" id="layer9" transform="translate(-441.0002,368.00336)"><path style="display:inline;opacity:.35;fill:#bebebe;fill-opacity:1;stroke:none;enable-background:new" id="path7898" d="m 446.0002,-363.00336 0,3.09375 1.84375,-3.09375 z m 4,0 0,2 2,0 0,-2 z m 2,4.90625 -1.84375,3.09375 1.84375,0 z m -6,1.09375 0,2 2,0 0,-2 z"/><path style="display:inline;fill:#bebebe;fill-opacity:1;stroke:none;enable-background:new" id="path7900" d="m 452.0002,-358.09711 -1.84375,3.09375 1.84375,0 0,-3.09375 z m -6,1.09375 0,2 2,0 0,-2 -2,0 z"/><path style="display:inline;fill:#bebebe;fill-opacity:1;stroke:none;enable-background:new" id="path7904" d="m 447.0002,-367.00336 0,1 4,0 0,-1 z m -2.15625,2 c -0.28125,0.0469 -0.84375,0.25 -0.84375,1 l 0,10 c 0,1 1,1 1,1 l 8,0 c 1,0 1,-1 1,-1 l 0,-10 c 0,0 0,-1 -1,-1 l -8,0 c 0,0 -0.0625,-0.0156 -0.15625,0 z m 0.15625,1 8,0 0,10 -8,0 z"/><path style="display:inline;fill:#bebebe;fill-opacity:1;stroke:none;enable-background:new" id="path7906" d="m 449.0002,-363.00336 0,3 3,0 -3,5 0,-3 -3,0 z"/><path style="display:inline;fill:#bebebe;fill-opacity:1;stroke:none;enable-background:new" id="path7908" d="m 444.84395,-365.00336 c -0.28125,0.0469 -0.84375,0.25 -0.84375,1 l 0,10 c 0,1 1,1 1,1 l 8,0 c 1,0 1,-1 1,-1 l 0,-10 c 0,0 0,-1 -1,-1 0,0 -5.33333,0 -8,0 -0.0521,0 -0.0625,-0.0156 -0.15625,0 z m 0.15625,1 8,0 0,10 -8,0 z"/></g></svg>