<svg xmlns="http://www.w3.org/2000/svg" xmlns:osb="http://www.openswatchbook.org/uri/2009/osb" xmlns:svg="http://www.w3.org/2000/svg" style="enable-background:new" id="svg7384" width="16" height="16" version="1.1"><metadata id="metadata90"/><title id="title8473">Moka Symbolic Icon Theme</title><defs id="defs7386"><linearGradient id="linearGradient5606" osb:paint="solid"><stop style="stop-color:#000;stop-opacity:1" id="stop5608" offset="0"/></linearGradient><filter style="color-interpolation-filters:sRGB" id="filter7554"><feBlend id="feBlend7556" in2="BackgroundImage" mode="darken"/></filter></defs><g style="display:inline" id="layer9" transform="translate(-580.0002,246.00336)"><path style="color:#000;font-style:normal;font-variant:normal;font-weight:400;font-stretch:normal;font-size:medium;line-height:normal;font-family:Sans;-inkscape-font-specification:Sans;text-indent:0;text-align:start;text-decoration:none;text-decoration-line:none;letter-spacing:normal;word-spacing:normal;text-transform:none;direction:ltr;block-progression:tb;writing-mode:lr-tb;baseline-shift:baseline;text-anchor:start;display:inline;overflow:visible;visibility:visible;fill:#bebebe;fill-opacity:1;stroke:none;stroke-width:1;marker:none;enable-background:accumulate" id="rect9696" d="m 583.0002,-245.00336 c -1.09935,0 -2,0.90065 -2,2 l 0,10 c 0,1.09935 0.90065,2 2,2 l 10,0 c 1.09935,0 2,-0.90065 2,-2 l 0,-10 c 0,-1.09935 -0.90065,-2 -2,-2 l -10,0 z m 0,1 10,0 c 0.56265,0 1,0.43735 1,1 l 0,10 c 0,0.56265 -0.43735,1 -1,1 l -10,0 c -0.56265,0 -1,-0.43735 -1,-1 l 0,-10 c 0,-0.56265 0.43735,-1 1,-1 z m 1,5 0,2 8,0 0,-2 -8,0 z"/></g></svg>