<svg xmlns="http://www.w3.org/2000/svg" xmlns:osb="http://www.openswatchbook.org/uri/2009/osb" xmlns:svg="http://www.w3.org/2000/svg" style="enable-background:new" id="svg7384" width="16.007" height="16" version="1.1"><metadata id="metadata90"/><title id="title8473">Moka Symbolic Icon Theme</title><defs id="defs7386"><linearGradient id="linearGradient5606" osb:paint="solid"><stop style="stop-color:#000;stop-opacity:1" id="stop5608" offset="0"/></linearGradient><filter style="color-interpolation-filters:sRGB" id="filter7554"><feBlend id="feBlend7556" in2="BackgroundImage" mode="darken"/></filter></defs><g style="display:inline" id="layer9" transform="translate(-501.00009,249.00336)"><path style="fill:#bebebe;fill-opacity:1;stroke:none" id="rect5735" d="m 502.0002,-249.00336 c -0.99979,0 -1,1 -1,1 l 0,10 c 0,0.0113 -2.5e-4,0.0204 0,0.0312 l 0,1.9688 c 0,0.554 0.446,1 1,1 l 14,0 c 0.554,0 1,-0.446 1,-1 l 0,-1.84375 c 0.0156,-0.0937 0,-0.15625 0,-0.15625 l 0,-10 c 0,0 0,-1 -1,-1 l -14,0 z m 0,1 14,0 0,10 -14,0 0,-10 z m 4,2 0,2 1,0 0,-2 -1,0 z m 5,0 0,2 1,0 0,-2 -1,0 z m -5,4 0,1 1,0 4,0 1,0 0,-1 -1,0 -4,0 -1,0 z m 6,1 0,1 1,0 0,-1 -1,0 z m -6,0 -1,0 0,1 1,0 0,-1 z m -4,4 1,0 0,1 -1,0 0,-1 z m 2,3 0,1 10,0 0,-1 -10,0 z"/></g></svg>