<svg xmlns="http://www.w3.org/2000/svg" xmlns:osb="http://www.openswatchbook.org/uri/2009/osb" xmlns:svg="http://www.w3.org/2000/svg" style="enable-background:new" id="svg7384" width="16" height="16" version="1.1"><metadata id="metadata90"/><title id="title8473">Moka Symbolic Icon Theme</title><defs id="defs7386"><linearGradient id="linearGradient5606" osb:paint="solid"><stop style="stop-color:#000;stop-opacity:1" id="stop5608" offset="0"/></linearGradient><filter style="color-interpolation-filters:sRGB" id="filter7554"><feBlend id="feBlend7556" in2="BackgroundImage" mode="darken"/></filter></defs><g style="display:inline" id="layer9" transform="translate(-361.0002,268.00336)"><path style="fill:#bebebe;fill-opacity:1;stroke:none" id="path6210" d="m 368.99823,-265.00336 c -2.61818,1.6e-4 -4.99805,2.38222 -4.99805,5 0,2.61778 2.37987,4.99984 4.99805,5 2.61817,1.6e-4 5.00195,-2.38193 5.00195,-5 0,-2.61807 -2.38378,-5.00016 -5.00195,-5 z"/><rect style="fill:#bebebe;fill-opacity:1;fill-rule:evenodd;stroke:none" id="rect6214" width="2" height="2" x="368" y="-268.003" ry=".5"/><rect style="fill:#bebebe;fill-opacity:1;fill-rule:evenodd;stroke:none" id="rect6217" width="2" height="2" x="368" y="-254.003" ry=".5"/><rect style="fill:#bebebe;fill-opacity:1;fill-rule:evenodd;stroke:none" id="rect6225" width="2" height="2" x="443.773" y="69.072" ry=".5" transform="matrix(0.70710678,-0.70710678,0.70710678,0.70710678,0,0)"/><rect style="fill:#bebebe;fill-opacity:1;fill-rule:evenodd;stroke:none" id="rect6227" width="2" height="2" x="443.773" y="83.072" ry=".5" transform="matrix(0.70710678,-0.70710678,0.70710678,0.70710678,0,0)"/><rect style="fill:#bebebe;fill-opacity:1;fill-rule:evenodd;stroke:none" id="rect6237" width="2" height="2" x="259.003" y="361" ry=".5" transform="matrix(0,-1,1,0,0,0)"/><rect style="fill:#bebebe;fill-opacity:1;fill-rule:evenodd;stroke:none" id="rect6239" width="2" height="2" x="259.003" y="375" ry=".5" transform="matrix(0,-1,1,0,0,0)"/><rect style="fill:#bebebe;fill-opacity:1;fill-rule:evenodd;stroke:none" id="rect6243" width="2" height="2" x="-78.072" y="436.773" ry=".5" transform="matrix(-0.70710678,-0.70710678,0.70710678,-0.70710678,0,0)"/><rect style="fill:#bebebe;fill-opacity:1;fill-rule:evenodd;stroke:none" id="rect6245" width="2" height="2" x="-78.072" y="450.773" ry=".5" transform="matrix(-0.70710678,-0.70710678,0.70710678,-0.70710678,0,0)"/></g></svg>