<svg xmlns="http://www.w3.org/2000/svg" xmlns:osb="http://www.openswatchbook.org/uri/2009/osb" xmlns:svg="http://www.w3.org/2000/svg" style="enable-background:new" id="svg7384" width="16" height="16" version="1.1"><metadata id="metadata90"/><title id="title8473">Moka Symbolic Icon Theme</title><defs id="defs7386"><linearGradient id="linearGradient5606" osb:paint="solid"><stop style="stop-color:#000;stop-opacity:1" id="stop5608" offset="0"/></linearGradient><filter style="color-interpolation-filters:sRGB" id="filter7554"><feBlend id="feBlend7556" in2="BackgroundImage" mode="darken"/></filter></defs><g style="display:inline" id="layer9" transform="translate(-421.0002,288.00336)"><g id="g6930" transform="translate(380.00025,-565.00336)"><g id="g6924"><g style="fill:#bebebe;fill-opacity:1" id="layer9-28" transform="translate(2e-4,0)"><path style="color:#000;text-indent:0;text-transform:none;block-progression:tb;fill:#bebebe;fill-opacity:1" id="path3991-1" d="m 180,219 c -1.6447,0 -3,1.3553 -3,3 l 0,4 c 0,1.6447 1.3553,3 3,3 l 1,0 0.65625,0 3.34375,0 3,0 c 1.6447,0 3,-1.3553 3,-3 l 0,-4 c 0,-1.6447 -1.3553,-3 -3,-3 l -0.25,0 -0.75,0 0,0.5 0,1 0,0.5 0.75,0 0.25,0 c 0.5713,0 1,0.4287 1,1 l 0,4 c 0,0.5713 -0.4287,1 -1,1 l -3,0 -3.34375,0 -0.65625,0 -1,0 c -0.5713,0 -1,-0.4287 -1,-1 l 0,-4 c 0,-0.5713 0.4287,-1 1,-1 l 3,0 0,-2 -3,0 z" transform="translate(-135.00025,61)"/></g><path style="fill:#bebebe;fill-opacity:1;stroke:none" id="path3764" d="m 51.0002,281 -4,-3 0,6 z"/></g></g></g></svg>