<svg xmlns="http://www.w3.org/2000/svg" xmlns:osb="http://www.openswatchbook.org/uri/2009/osb" xmlns:svg="http://www.w3.org/2000/svg" id="svg7384" width="16" height="16" version="1.1" style="enable-background:new"><metadata id="metadata90"/><title id="title8473">Moka Symbolic Icon Theme</title><defs id="defs7386"><linearGradient id="linearGradient5606" osb:paint="solid"><stop id="stop5608" offset="0" style="stop-color:#000;stop-opacity:1"/></linearGradient><filter id="filter7554" style="color-interpolation-filters:sRGB"><feBlend id="feBlend7556" in2="BackgroundImage" mode="darken"/></filter></defs><g id="layer9" transform="translate(-461.0002,268.00336)" style="display:inline"><path id="path5086" d="m 465.00024,-265.00338 c -1.6447,0 -3,1.3553 -3,3 l 0,4 c 0,1.6447 1.3553,3 3,3 l 1,0 0.65625,0 1.625,0 c -0.16854,-0.47255 -0.28125,-0.96957 -0.28125,-1.5 0,-0.17178 0.0438,-0.33323 0.0625,-0.5 l -1.40625,0 -0.65625,0 -1,0 c -0.5713,0 -1,-0.4287 -1,-1 l 0,-4 c 0,-0.5713 0.4287,-1 1,-1 l 3,0 0,-2 -3,0 z m 7,0 0,0.5 0,1 0,0.5 1,0 c 0.5713,0 1,0.4287 1,1 l 0,1.28125 c 0.79448,0.28335 1.48291,0.76028 2,1.40625 l 0,-2.6875 c 0,-1.6447 -1.3553,-3 -3,-3 l -1,0 z" style="color:#000;text-indent:0;text-transform:none;block-progression:tb;fill:#bebebe;fill-opacity:1;stroke:none"/><path id="path5088" d="m 471.00044,-264.00336 -4,-3 0,6 z" style="fill:#bebebe;fill-opacity:1;stroke:none"/><path id="path5092" d="m 472.50019,-260.00336 c -1.933,0 -3.5,1.567 -3.5,3.5 0,1.933 1.567,3.5 3.5,3.5 1.933,0 3.5,-1.567 3.5,-3.5 0,-1.933 -1.567,-3.5 -3.5,-3.5 z m -0.5,1 1,0 0,5 -1,0 0,-3.5 -1,0 0,-0.5 c 1,0 1,-1 1,-1 z" style="color:#bebebe;display:inline;overflow:visible;visibility:visible;fill:#bebebe;fill-opacity:1;stroke:none;stroke-width:2;marker:none;enable-background:accumulate"/></g></svg>