<svg xmlns="http://www.w3.org/2000/svg" xmlns:osb="http://www.openswatchbook.org/uri/2009/osb" xmlns:svg="http://www.w3.org/2000/svg" style="enable-background:new" id="svg7384" width="16" height="16" version="1.1"><metadata id="metadata90"/><title id="title8473">Moka Symbolic Icon Theme</title><defs id="defs7386"><linearGradient id="linearGradient5606" osb:paint="solid"><stop style="stop-color:#000;stop-opacity:1" id="stop5608" offset="0"/></linearGradient><filter style="color-interpolation-filters:sRGB" id="filter7554"><feBlend id="feBlend7556" in2="BackgroundImage" mode="darken"/></filter></defs><g style="display:inline" id="layer9" transform="translate(-441.0002,288.00336)"><g id="g5949" transform="translate(400.00025,-565.00336)"><g id="g5951"><g style="fill:#bebebe;fill-opacity:1" id="g5954" transform="translate(2e-4,0)"><path style="color:#000;text-indent:0;text-transform:none;block-progression:tb;opacity:.35;fill:#bebebe;fill-opacity:1" id="path5956" d="m 202,217 0,2 -2,0 c -1.6447,0 -3,1.3553 -3,3 l 0,4 c 0,1.6447 1.3553,3 3,3 l 8,0 c 1.6447,0 3,-1.3553 3,-3 l 0,-4 c 0,-1.6447 -1.3553,-3 -3,-3 l -0.25,0 -0.75,0 0,0.5 0,1 0,0.25 0,0.25 1,0 c 0.5713,0 1,0.4287 1,1 l 0,4 c 0,0.5713 -0.4287,1 -1,1 l -8,0 c -0.5713,0 -1,-0.4287 -1,-1 l 0,-4 c 0,-0.5713 0.4287,-1 1,-1 l 2,0 0,2 4,-3 -4,-3 z" transform="translate(-155.0003,61.00002)"/></g></g></g></g></svg>