<svg xmlns="http://www.w3.org/2000/svg" xmlns:osb="http://www.openswatchbook.org/uri/2009/osb" xmlns:svg="http://www.w3.org/2000/svg" id="svg7384" width="16.001" height="16" version="1.1" style="enable-background:new"><metadata id="metadata90"/><title id="title8473">Moka Symbolic Icon Theme</title><defs id="defs7386"><linearGradient id="linearGradient5606" osb:paint="solid"><stop id="stop5608" offset="0" style="stop-color:#000;stop-opacity:1"/></linearGradient><filter id="filter7554" style="color-interpolation-filters:sRGB"><feBlend id="feBlend7556" in2="BackgroundImage" mode="darken"/></filter></defs><g id="layer9" transform="translate(-400.99922,388.00336)" style="display:inline"><path id="rect6824" d="m 406.0002,-387.00336 c -1.662,0 -3,1.338 -3,3 l 0,5 c 0,1.662 1.338,3 3,3 1.662,0 3,-1.338 3,-3 l 0,-5 c 0,-1.662 -1.338,-3 -3,-3 z m -5,5 0,2.90625 a 0.50030048,0.49979969 0 0 0 0,0.0625 l 0,0.0312 c 0,2.40877 1.72585,4.4097 4,4.875 l 0,2.125 2,0 0,-2.125 c 2.27415,-0.4653 4,-2.46623 4,-4.875 a 0.50030048,0.49979969 0 0 0 0,-0.1875 l 0,-2.8125 -1,0 0,2.8125 a 0.50030048,0.49979969 0 0 0 0,0.15625 l 0,0.0312 c 0,2.21271 -1.78508,4 -4,4 -2.21492,0 -4,-1.78729 -4,-4 a 0.50030048,0.49979969 0 0 0 0,-0.0312 l 0,-2.9688 -1,0 z" style="color:#bebebe;display:inline;overflow:visible;visibility:visible;fill:#bebebe;fill-opacity:1;fill-rule:nonzero;stroke:none;stroke-width:2;marker:none"/><circle id="path6833" cx="415" cy="-380.003" r="2" style="color:#bebebe;display:inline;overflow:visible;visibility:visible;fill:#bebebe;fill-opacity:1;fill-rule:nonzero;stroke:none;stroke-width:2;marker:none;enable-background:accumulate"/><circle id="path6835" cx="415" cy="-385.003" r="2" style="color:#bebebe;display:inline;overflow:visible;visibility:visible;fill:#bebebe;fill-opacity:1;fill-rule:nonzero;stroke:none;stroke-width:2;marker:none;enable-background:accumulate"/><circle id="path6837" cx="415" cy="-375.003" r="2" style="color:#bebebe;display:inline;overflow:visible;visibility:visible;fill:#bebebe;fill-opacity:1;fill-rule:nonzero;stroke:none;stroke-width:2;marker:none;enable-background:accumulate"/></g></svg>