<svg xmlns="http://www.w3.org/2000/svg" xmlns:osb="http://www.openswatchbook.org/uri/2009/osb" xmlns:svg="http://www.w3.org/2000/svg" style="enable-background:new" id="svg7384" width="16" height="16" version="1.1"><metadata id="metadata90"/><title id="title8473">Moka Symbolic Icon Theme</title><defs id="defs7386"><linearGradient id="linearGradient5606" osb:paint="solid"><stop style="stop-color:#000;stop-opacity:1" id="stop5608" offset="0"/></linearGradient><filter style="color-interpolation-filters:sRGB" id="filter7554"><feBlend id="feBlend7556" in2="BackgroundImage" mode="darken"/></filter></defs><g style="display:inline" id="layer9" transform="translate(-501.0002,408.00336)"><path style="color:#000;opacity:.35;fill:#bebebe;fill-opacity:1;stroke:none" id="path3766" d="m 511.00021,-407.53461 0,1.03125 0,1.5 -2.5,0 -0.5,0 0,1 0.5,0 3,0 0.5,0 0,-0.5 0,-0.96875 3.56407,2.96875 -0.56407,0.5625 0,1.25 2.00001,-1.8125 0,0 -2e-5,-1e-5 -5.18749,-4.37499 z m -2,6.53125 0,1 2,0 0,-1 z"/><path style="color:#000;opacity:.35;fill:#bebebe;fill-opacity:1;stroke:none" id="path3783" d="m 507.00021,-403.53461 -0.8125,0.65625 -5.18749,4.375 0,0 0,0 5.18749,4.375 0.8125,0.65625 0,-1.03125 0,-1.5 2.5,0 0.5,0 0,-1 -0.5,0 -3,0 -0.5,0 0,0.5 0,0.96875 -3.40624,-2.96875 3.40624,-2.96875 0,0.96875 0,0.5 0.5,0 2.50002,0 0,-1 -2.00002,0 0,-1.5 z"/><path style="color:#444;fill:#ef2929;stroke:none" id="path6053-9" d="m 512.00023,-402.00336 -10e-6,4 0.25,2 1.5,0 0.25,-2 10e-6,-4 z m 0,7 0,2 2,0 0,-2 z"/></g></svg>