<svg xmlns="http://www.w3.org/2000/svg" xmlns:osb="http://www.openswatchbook.org/uri/2009/osb" xmlns:svg="http://www.w3.org/2000/svg" style="enable-background:new" id="svg7384" width="16" height="16" version="1.1"><metadata id="metadata90"/><title id="title8473">Moka Symbolic Icon Theme</title><defs id="defs7386"><linearGradient id="linearGradient5606" osb:paint="solid"><stop style="stop-color:#000;stop-opacity:1" id="stop5608" offset="0"/></linearGradient><filter style="color-interpolation-filters:sRGB" id="filter7554"><feBlend id="feBlend7556" in2="BackgroundImage" mode="darken"/></filter></defs><g style="display:inline" id="layer9" transform="translate(-381.0002,348.00336)"><g style="fill:#bebebe;fill-opacity:1" id="g16124" transform="translate(320.00044,-585.00334)"><path style="color:#bebebe;fill:#bebebe;fill-opacity:1;stroke:none" id="path16126" d="m -77.0002,20.99998 c 0,0 -2,0 -2,2.0625 l 0,9.9375 c 0,2 2,2 2,2 l 10,0 c 2,0 2,-2 2,-2 l 0,-10 c 0,0 1.3e-5,-2 -2,-2 z M -76,23 l 2,0 0,8 4,0 0,-8 2,0 0,8 c 0,0 0,2 -2,2 l -4,0 c 0,0 -2,0 -2,-2 z" transform="translate(141,217)"/></g></g></svg>