<svg xmlns="http://www.w3.org/2000/svg" xmlns:osb="http://www.openswatchbook.org/uri/2009/osb" xmlns:svg="http://www.w3.org/2000/svg" style="enable-background:new" id="svg7384" width="16" height="16" version="1.1"><metadata id="metadata90"/><title id="title8473">Moka Symbolic Icon Theme</title><defs id="defs7386"><linearGradient id="linearGradient5606" osb:paint="solid"><stop style="stop-color:#000;stop-opacity:1" id="stop5608" offset="0"/></linearGradient><filter style="color-interpolation-filters:sRGB" id="filter7554"><feBlend id="feBlend7556" in2="BackgroundImage" mode="darken"/></filter></defs><g style="display:inline" id="layer9" transform="translate(-441.0002,408.00336)"><path style="fill:#bebebe;fill-opacity:1;stroke:none" id="path5983-3" d="m 451.0002,-407.53461 0,1.03125 0,1.5 -2.5,0 -0.5,0 0,1 0.5,0 3,0 0.5,0 0,-0.5 0,-0.96875 3.40627,2.9687 -3.40627,2.9688 0,-0.96875 0,-0.5 -0.5,0 -2.5,0 -2,0 0,-1.5 0,-1.03125 -0.8125,0.65625 -5.18748,4.375 0,0 0,0 5.18748,4.375 0.8125,0.65625 0,-1.03125 0,-1.5 2.5,0 0.5,0 0,-1 -0.5,0 -3,0 -0.5,0 0,0.5 0,0.96875 -3.40623,-2.96875 3.40623,-2.96875 0,0.96875 0,0.5 0.5,0 2.5,0 2,0 0,1.5 0,1.03125 0.0625,-0.0312 c 0.25416,-1.40198 1.46548,-2.5 2.9375,-2.5 0.0428,0 0.0826,-0.002 0.125,0 l 2.875,-2.50006 2e-5,1e-5 0,0 -5.18752,-4.37495 -0.8125,-0.65625 z m 3,8.53125 c -1.108,0 -2,0.91085 -2,2.03125 l 0,0.96875 -1,0 0,1 0,2 0,1 1,0 4,0 1,0 0,-1 0,-2 0,-1 -1,0 0,-0.96875 c 0,-1.1199 -0.892,-2.03125 -2,-2.03125 z m 0,1 c 0.554,0 1,0.4424 1,1 l 0,1 -2,0 0,-1 c 0,-0.5576 0.446,-1 1,-1 z"/></g></svg>