<svg xmlns="http://www.w3.org/2000/svg" xmlns:osb="http://www.openswatchbook.org/uri/2009/osb" xmlns:svg="http://www.w3.org/2000/svg" id="svg7384" width="16" height="16" version="1.1" style="enable-background:new"><metadata id="metadata90"/><title id="title8473">Moka Symbolic Icon Theme</title><defs id="defs7386"><linearGradient id="linearGradient5606" osb:paint="solid"><stop id="stop5608" offset="0" style="stop-color:#000;stop-opacity:1"/></linearGradient><filter id="filter7554" style="color-interpolation-filters:sRGB"><feBlend id="feBlend7556" in2="BackgroundImage" mode="darken"/></filter></defs><g id="layer9" transform="translate(-340.00013,328.00336)" style="display:inline"><path id="rect7124" d="m 350.50011,-325.00333 c -0.277,0 -0.5,0.223 -0.5,0.5 l 0,6.5 1,0 1,0 0,-6.5 c 0,-0.277 -0.223,-0.5 -0.5,-0.5 z" style="color:#bebebe;display:inline;overflow:visible;visibility:visible;opacity:.35;fill:#bebebe;fill-opacity:1;fill-rule:nonzero;stroke:none;stroke-width:1;marker:none;enable-background:accumulate"/><rect id="rect7126" width="2" height="9" x="347" y="-322.003" ry=".5" style="color:#bebebe;display:inline;overflow:visible;visibility:visible;opacity:.35;fill:#bebebe;fill-opacity:1;fill-rule:nonzero;stroke:none;stroke-width:1;marker:none;enable-background:accumulate"/><rect id="rect7128" width="2" height="6" x="344" y="-319.003" ry=".5" style="color:#bebebe;display:inline;overflow:visible;visibility:visible;opacity:.35;fill:#bebebe;fill-opacity:1;fill-rule:nonzero;stroke:none;stroke-width:1;marker:none;enable-background:accumulate"/><rect id="rect7130" width="2" height="3" x="341" y="-316.003" ry=".5" style="color:#bebebe;display:inline;overflow:visible;visibility:visible;opacity:.35;fill:#bebebe;fill-opacity:1;fill-rule:nonzero;stroke:none;stroke-width:1;marker:none;enable-background:accumulate"/><path id="rect7132" d="m 353.5002,-328.00336 c -0.277,0 -0.5,0.223 -0.5,0.5 l 0,9.5 2,0 0,-9.5 c 0,-0.277 -0.223,-0.5 -0.5,-0.5 l -1,0 z" style="color:#bebebe;display:inline;overflow:visible;visibility:visible;opacity:.35;fill:#bebebe;fill-opacity:1;fill-rule:nonzero;stroke:none;stroke-width:1;marker:none;enable-background:accumulate"/><path id="path2987-7-9-8-5-1" d="m 351.00011,-317.00333 0,1 c 0,0.27614 0.10029,0.53779 0.28125,0.71875 l 0.78125,0.78125 -0.78125,0.78125 c -0.18096,0.18096 -0.28125,0.44261 -0.28125,0.71875 l 0,1 1,0 c 0.27614,0 0.53779,-0.10029 0.71875,-0.28125 l 0.78125,-0.78125 0.78125,0.78125 c 0.18096,0.18096 0.44261,0.28125 0.71875,0.28125 l 1,0 0,-1 c 0,-0.27614 -0.10029,-0.53779 -0.28125,-0.71875 l -0.78125,-0.78125 0.78125,-0.78125 c 0.18096,-0.18096 0.28125,-0.44261 0.28125,-0.71875 l 0,-1 -1,0 c -0.27614,0 -0.53779,0.10029 -0.71875,0.28125 l -0.78125,0.78125 -0.78125,-0.78125 c -0.18096,-0.18096 -0.44261,-0.28125 -0.71875,-0.28125 l -1,0 z" style="display:inline;fill:#bebebe;fill-opacity:1;stroke:none;enable-background:new"/></g></svg>