<svg xmlns="http://www.w3.org/2000/svg" xmlns:osb="http://www.openswatchbook.org/uri/2009/osb" xmlns:svg="http://www.w3.org/2000/svg" style="enable-background:new" id="svg7384" width="16" height="16" version="1.1"><metadata id="metadata90"/><title id="title8473">Moka Symbolic Icon Theme</title><defs id="defs7386"><linearGradient id="linearGradient5606" osb:paint="solid"><stop style="stop-color:#000;stop-opacity:1" id="stop5608" offset="0"/></linearGradient><filter style="color-interpolation-filters:sRGB" id="filter7554"><feBlend id="feBlend7556" in2="BackgroundImage" mode="darken"/></filter></defs><g style="display:inline" id="layer9" transform="translate(-441.00021,328.00336)"><path style="color:#000;display:inline;overflow:visible;visibility:visible;fill:#bebebe;fill-opacity:1;fill-rule:nonzero;stroke:none;stroke-width:4;marker:none;enable-background:accumulate" id="rect2997-5-0" d="m 444.0002,-327.00336 0,6 -1,0 c -1,0 -1,1 -1,1 l 0,5 2,0 0,2 10,0 0,-2 2,0 0,-5 c 0,0 0.108,-1 -1,-1 l -1,0 0,-6 -10,0 z m 1,1 8,0 0,5 -8,0 0,-5 z m -1,7 1,0 0,1 -1,0 0,-1 z m 1,4 8,0 0,1 -8,0 0,-1 z"/></g></svg>