<svg xmlns="http://www.w3.org/2000/svg" xmlns:osb="http://www.openswatchbook.org/uri/2009/osb" xmlns:svg="http://www.w3.org/2000/svg" style="enable-background:new" id="svg7384" width="16" height="16" version="1.1"><metadata id="metadata90"/><title id="title8473">Moka Symbolic Icon Theme</title><defs id="defs7386"><linearGradient id="linearGradient5606" osb:paint="solid"><stop style="stop-color:#000;stop-opacity:1" id="stop5608" offset="0"/></linearGradient><filter style="color-interpolation-filters:sRGB" id="filter7554"><feBlend id="feBlend7556" in2="BackgroundImage" mode="darken"/></filter></defs><g style="display:inline" id="layer9" transform="translate(-481.00021,328.00336)"><path style="color:#bebebe;display:inline;overflow:visible;visibility:visible;fill:#ef2929;fill-opacity:1;stroke:none;stroke-width:2;marker:none;enable-background:accumulate" id="rect7811-3" d="m 492.00019,-321.00339 0,4.01565 0.25001,1.98438 1.5,0 0.25,-2 -1e-5,-4.00003 z m 0,7 0,2 2,0 0,-2 z" class="error"/><path style="color:#000;display:inline;overflow:visible;visibility:visible;fill:#bebebe;fill-opacity:1;fill-rule:nonzero;stroke:none;stroke-width:4;marker:none;enable-background:accumulate" id="path5194" d="m 484.0002,-327.00336 0,6 -1,0 c -1,0 -1,1 -1,1 l 0,5 2,0 0,2 7,0 0,-1 -6,0 0,-1 6,0 0,-6 -6,0 0,-5 8,0 0,4 1,0 0,-5 -10,0 z m 11,6 0,6 1,0 0,-5 c 0,0 0.108,-1 -1,-1 z m -11,2 1,0 0,1 -1,0 0,-1 z"/></g></svg>