<svg xmlns="http://www.w3.org/2000/svg" xmlns:osb="http://www.openswatchbook.org/uri/2009/osb" xmlns:svg="http://www.w3.org/2000/svg" style="enable-background:new" id="svg7384" width="16" height="16" version="1.1"><metadata id="metadata90"/><title id="title8473">Moka Symbolic Icon Theme</title><defs id="defs7386"><linearGradient id="linearGradient5606" osb:paint="solid"><stop style="stop-color:#000;stop-opacity:1" id="stop5608" offset="0"/></linearGradient><filter style="color-interpolation-filters:sRGB" id="filter7554"><feBlend id="feBlend7556" in2="BackgroundImage" mode="darken"/></filter></defs><g style="display:inline" id="layer9" transform="translate(-560.0002,266.00336)"><path style="color:#bebebe;font-style:normal;font-variant:normal;font-weight:400;font-stretch:normal;font-size:medium;line-height:normal;font-family:'Andale Mono';text-indent:0;text-align:start;text-decoration:none;text-decoration-line:none;letter-spacing:normal;word-spacing:normal;text-transform:none;direction:ltr;text-anchor:start;display:inline;overflow:visible;visibility:visible;fill:#bebebe;fill-opacity:1;fill-rule:nonzero;stroke:none;stroke-width:1.78125;marker:none" id="path9555" d="m 568.0002,-261.00336 c -1.65555,0 -3,1.34444 -3,3 0,1.65555 1.34445,3 3,3 1.65555,0 3,-1.34445 3,-3 0,-1.65556 -1.34445,-3 -3,-3 z"/><path style="color:#bebebe;font-style:normal;font-variant:normal;font-weight:400;font-stretch:normal;font-size:medium;line-height:normal;font-family:'Andale Mono';-inkscape-font-specification:Sans;text-indent:0;text-align:start;text-decoration:none;text-decoration-line:none;letter-spacing:normal;word-spacing:normal;text-transform:none;direction:ltr;block-progression:tb;writing-mode:lr-tb;baseline-shift:baseline;text-anchor:start;display:inline;overflow:visible;visibility:visible;fill:#bebebe;fill-opacity:1;stroke:none;stroke-width:1;marker:none;enable-background:accumulate" id="path9557" d="m 568.0002,-265.00336 c -3.85772,0 -7,3.14228 -7,7 0,3.85772 3.14228,7 7,7 3.85772,0 7,-3.14227 7,-7 0,-3.85773 -3.14229,-7 -7,-7 z m 0,1 c 3.31633,0 6,2.68367 6,6 0,3.31633 -2.68368,6 -6,6 -3.31634,0 -6,-2.68366 -6,-6 0,-3.31634 2.68366,-6 6,-6 z"/></g></svg>