<svg xmlns="http://www.w3.org/2000/svg" xmlns:osb="http://www.openswatchbook.org/uri/2009/osb" xmlns:svg="http://www.w3.org/2000/svg" style="enable-background:new" id="svg7384" width="16" height="16" version="1.1"><metadata id="metadata90"/><title id="title8473">Moka Symbolic Icon Theme</title><defs id="defs7386"><linearGradient id="linearGradient5606" osb:paint="solid"><stop style="stop-color:#000;stop-opacity:1" id="stop5608" offset="0"/></linearGradient><filter style="color-interpolation-filters:sRGB" id="filter7554"><feBlend id="feBlend7556" in2="BackgroundImage" mode="darken"/></filter></defs><g style="display:inline" id="layer9" transform="translate(-441.0002,248.00336)"><path style="color:#bebebe;display:inline;overflow:visible;visibility:visible;fill:#bebebe;fill-opacity:1;fill-rule:nonzero;stroke:none;stroke-width:1;marker:none;enable-background:accumulate" id="path5085-3" d="m 449.0002,-247.00336 c -3.86599,0 -7,3.13401 -7,7 0,3.86599 3.13401,7 7,7 2.76638,0 5.14457,-1.60814 6.28125,-3.9375 l -1.875,-0.78125 c -0.83392,1.59974 -2.47736,2.71875 -4.40625,2.71875 -2.76142,0 -5,-2.23858 -5,-5 0,-2.76142 2.23858,-5 5,-5 1.63862,0 3.0664,0.80776 3.96875,2.03125 l -1.96875,1.96875 5,0 0,-5 -1.59375,1.59375 c -1.28154,-1.57267 -3.21576,-2.59375 -5.40625,-2.59375 z"/></g></svg>