<svg xmlns="http://www.w3.org/2000/svg" xmlns:osb="http://www.openswatchbook.org/uri/2009/osb" xmlns:svg="http://www.w3.org/2000/svg" style="enable-background:new" id="svg7384" width="16" height="16" version="1.1"><metadata id="metadata90"/><title id="title8473">Moka Symbolic Icon Theme</title><defs id="defs7386"><linearGradient id="linearGradient5606" osb:paint="solid"><stop style="stop-color:#000;stop-opacity:1" id="stop5608" offset="0"/></linearGradient><filter style="color-interpolation-filters:sRGB" id="filter7554"><feBlend id="feBlend7556" in2="BackgroundImage" mode="darken"/></filter></defs><g style="display:inline" id="layer9" transform="translate(-499.00021,368.01034)"><path style="color:#bebebe;font-style:normal;font-variant:normal;font-weight:400;font-stretch:normal;font-size:medium;line-height:normal;font-family:Sans;-inkscape-font-specification:Sans;text-indent:0;text-align:start;text-decoration:none;text-decoration-line:none;letter-spacing:normal;word-spacing:normal;text-transform:none;direction:ltr;block-progression:tb;writing-mode:lr-tb;baseline-shift:baseline;text-anchor:start;display:inline;overflow:visible;visibility:visible;fill:#bebebe;fill-opacity:1;stroke:none;stroke-width:2;marker:none;enable-background:accumulate" id="path339" d="m 501.0002,-367.01036 0,1 0,7 c 0,2.07164 1.57494,3.52182 2.9375,4.46875 1.36256,0.94693 2.6875,1.46875 2.6875,1.46875 l 0.375,0.125 0.375,-0.125 c 0,0 1.32934,-0.54445 2.6875,-1.5 1.35816,-0.95555 2.9375,-2.39317 2.9375,-4.4375 l 0,-7 0,-1 -1,0 -5.25,0 -4.75,0 -1,0 z m 1,1 4.75,0 5.25,0 0,7 c 0,2.96398 -5,5 -5,5 0,0 -5,-1.94932 -5,-5 l 0,-7 z"/></g></svg>