<svg xmlns="http://www.w3.org/2000/svg" xmlns:osb="http://www.openswatchbook.org/uri/2009/osb" xmlns:svg="http://www.w3.org/2000/svg" style="enable-background:new" id="svg7384" width="16" height="16.003" version="1.1"><metadata id="metadata90"/><title id="title8473">Moka Symbolic Icon Theme</title><defs id="defs7386"><linearGradient id="linearGradient5606" osb:paint="solid"><stop style="stop-color:#000;stop-opacity:1" id="stop5608" offset="0"/></linearGradient><filter style="color-interpolation-filters:sRGB" id="filter7554"><feBlend id="feBlend7556" in2="BackgroundImage" mode="darken"/></filter></defs><g style="display:inline" id="layer9" transform="translate(-381.03146,208.00328)"><path style="color:#000;display:inline;overflow:visible;visibility:visible;fill:#bebebe;fill-opacity:1;fill-rule:nonzero;stroke:none;stroke-width:4;marker:none;enable-background:accumulate" id="path3810-3" d="m 389.0002,-208 c -1.10457,0 -2,0.89543 -2,2 l -4,0 0,10 0,3 1.65625,0 7.34375,0 0,-1 -6,0 -1,0 -1,0 0,-10 0,-0.5 0,-0.5 3,0 0,1 c 0,0 -1,0 -1,1 l 1,0 4,0 1,0 c 0,-0.75 -0.5625,-0.95312 -0.84375,-1 l -0.15625,0 0,-1 2,0 1,0 0,2 0,1 1,0 0,-4 -4,0 c 0,-0.13807 -0.005,-0.27605 -0.0312,-0.40625 C 390.78241,-207.31762 389.9667,-208 389.0002,-208 Z m 0,1 c 0.41421,0 0.75444,0.26608 0.90625,0.625 0.0506,0.11964 0.0937,0.23693 0.0937,0.375 0,0.55228 -0.44771,1 -1,1 -0.55229,0 -1,-0.44772 -1,-1 0,-0.55228 0.44771,-1 1,-1 z"/><path style="color:#bebebe;display:inline;overflow:visible;visibility:visible;fill:#f57900;fill-opacity:1;stroke:none;stroke-width:2;marker:none;enable-background:accumulate" id="path5140-8-2" d="m 393.0002,-201 10e-6,4.00003 0.25,2 1.5,0 0.25,-2 -10e-6,-4.00003 z m 0,7 0,2 2,0 0,-2 z" class="warning"/></g></svg>