<svg xmlns="http://www.w3.org/2000/svg" xmlns:osb="http://www.openswatchbook.org/uri/2009/osb" xmlns:svg="http://www.w3.org/2000/svg" style="enable-background:new" id="svg7384" width="16" height="16" version="1.1"><metadata id="metadata90"/><title id="title8473">Moka Symbolic Icon Theme</title><defs id="defs7386"><linearGradient id="linearGradient5606" osb:paint="solid"><stop style="stop-color:#000;stop-opacity:1" id="stop5608" offset="0"/></linearGradient><filter style="color-interpolation-filters:sRGB" id="filter7554"><feBlend id="feBlend7556" in2="BackgroundImage" mode="darken"/></filter></defs><path id="path23849-6-5" d="M 1.5,2 C 0,2 0,3.5 0,3.5 l 0,9 c 0,0 0,1.5 1.5,1.5 l 8.75,0 c 0.084,-0.15845 0.17984,-0.30484 0.3125,-0.4375 L 10.625,13.5 10.5625,13.4375 C 10.17137,13.04637 10,12.51826 10,12 l -2,0 0,-2 2,0 2,0 1,0 0,0.25 c 0.15845,0.084 0.30484,0.17984 0.4375,0.3125 L 13.5,10.625 13.5625,10.5625 C 13.95363,10.17137 14.48174,10 15,10 L 15,3.5 C 15,2 13.5,2 13.5,2 L 1.5,2 Z M 2,4 13,4 13,9 2,9 2,4 Z m 0,6 5,0 0,2 -5,0 0,-2 z" style="opacity:.35;fill:#bebebe;fill-opacity:1;stroke:none"/><path id="path2987-7-9-8-5-1-5" d="m 10.99999,11 0,1 c 0,0.27614 0.10029,0.53779 0.28125,0.71875 L 12.06249,13.5 11.28124,14.28125 C 11.10028,14.46221 10.99999,14.72386 10.99999,15 l 0,1 1,0 c 0.27614,0 0.53779,-0.10029 0.71875,-0.28125 l 0.78125,-0.78125 0.78125,0.78125 C 14.4622,15.89971 14.72385,16 14.99999,16 l 1,0 0,-1 c 0,-0.27614 -0.10029,-0.53779 -0.28125,-0.71875 L 14.93749,13.5 15.71874,12.71875 C 15.8997,12.53779 15.99999,12.27614 15.99999,12 l 0,-1 -1,0 c -0.27614,0 -0.53779,0.10029 -0.71875,0.28125 L 13.49999,12.0625 12.71874,11.28125 C 12.53778,11.10029 12.27613,11 11.99999,11 l -1,0 z" style="display:inline;fill:#bebebe;fill-opacity:1;stroke:none;enable-background:new"/></svg>