<svg xmlns="http://www.w3.org/2000/svg" xmlns:osb="http://www.openswatchbook.org/uri/2009/osb" xmlns:svg="http://www.w3.org/2000/svg" style="enable-background:new" id="svg7384" width="16" height="16" version="1.1"><metadata id="metadata90"/><title id="title8473">Moka Symbolic Icon Theme</title><defs id="defs7386"><linearGradient id="linearGradient5606" osb:paint="solid"><stop style="stop-color:#000;stop-opacity:1" id="stop5608" offset="0"/></linearGradient><filter style="color-interpolation-filters:sRGB" id="filter7554"><feBlend id="feBlend7556" in2="BackgroundImage" mode="darken"/></filter></defs><g style="display:inline" id="layer9" transform="translate(-381.0002,248.00336)"><path style="opacity:.35;fill:#bebebe;fill-opacity:1;stroke:none" id="path3003-1" d="m 383.99999,-247.00338 c 0,0 -2,0 -2,2 l 0,6 c 0,2 2,2 2,2 l 1,0 0,4 4,-4 5,0 c 1.108,0 2,-0.892 2,-2 l 0,-1 0,-2 0,-3 c 0,-2 -1.96875,-2 -1.96875,-2 l -10.03125,0 z m 2,3 c 0.63155,0 1.1317,0.34574 1.5,0.8125 0.3683,-0.46676 0.86845,-0.8125 1.5,-0.8125 0.63155,0 1.1317,0.34574 1.5,0.8125 0.3683,-0.46677 0.86845,-0.8125 1.5,-0.8125 1.09273,0 2,0.90728 2,2 0,1.09272 -0.90727,2 -2,2 -0.63155,0 -1.1317,-0.34573 -1.5,-0.8125 -0.3683,0.46676 -0.86845,0.8125 -1.5,0.8125 -0.63155,0 -1.1317,-0.34574 -1.5,-0.8125 -0.3683,0.46676 -0.86845,0.8125 -1.5,0.8125 -1.09273,0 -2,-0.90727 -2,-2 0,-1.09273 0.90727,-2 2,-2 z"/><path style="fill:#bebebe;fill-opacity:1;stroke:none" id="path3008" d="m 385.99999,-243.00338 c -0.55228,0 -1,0.44772 -1,1 0,0.55228 0.44772,1 1,1 0.55228,0 1,-0.44772 1,-1 0,-0.55228 -0.44772,-1 -1,-1 z m 3.00021,2e-5 c -0.55228,0 -1,0.44772 -1,1 0,0.55228 0.44772,1 1,1 0.55228,0 1,-0.44772 1,-1 0,-0.55228 -0.44772,-1 -1,-1 z m 2.99979,-2e-5 c -0.55229,0 -1,0.44772 -1,1 0,0.55228 0.44771,1 1,1 0.55229,0 1,-0.44772 1,-1 0,-0.55228 -0.44771,-1 -1,-1 z"/></g></svg>