<svg xmlns="http://www.w3.org/2000/svg" xmlns:osb="http://www.openswatchbook.org/uri/2009/osb" xmlns:svg="http://www.w3.org/2000/svg" style="enable-background:new" id="svg7384" width="16" height="16" version="1.1"><metadata id="metadata90"/><title id="title8473">Moka Symbolic Icon Theme</title><defs id="defs7386"><linearGradient id="linearGradient5606" osb:paint="solid"><stop style="stop-color:#000;stop-opacity:1" id="stop5608" offset="0"/></linearGradient><filter style="color-interpolation-filters:sRGB" id="filter7554"><feBlend id="feBlend7556" in2="BackgroundImage" mode="darken"/></filter></defs><g style="display:inline" id="layer9" transform="translate(-361.0002,288.00336)"><g id="g6217" transform="matrix(0,1,1,0,84.0002,-329.00331)"><g id="g6219"><g style="fill:#bebebe;fill-opacity:1" id="g6221" transform="translate(2e-4,0)"><path style="color:#000;text-indent:0;text-transform:none;block-progression:tb;fill:#bebebe;fill-opacity:1" id="path6223" d="m 106,165 c -1.6447,0 -3,1.3553 -3,3 l 0,1 0,0.65625 0,3.34375 0,3 c 0,1.6447 1.3553,3 3,3 l 3,0 0,-2 -3,0 c -0.5713,0 -1,-0.4287 -1,-1 l 0,-3 0,-3.34375 0,-0.65625 0,-1 c 0,-0.5713 0.4287,-1 1,-1 l 4,0 c 0.5713,0 1,0.4287 1,1 l 0,3 2,0 0,-3 c 0,-1.6447 -1.3553,-3 -3,-3 l -4,0 z" transform="matrix(0,-1,1,0,-123.00025,393)"/></g><path style="fill:#bebebe;fill-opacity:1;stroke:none" id="path6225" d="m 51.0002,281 -4,-3 0,6 z"/></g></g></g></svg>