<svg xmlns="http://www.w3.org/2000/svg" xmlns:osb="http://www.openswatchbook.org/uri/2009/osb" xmlns:svg="http://www.w3.org/2000/svg" style="enable-background:new" id="svg7384" width="16" height="16" version="1.1"><metadata id="metadata90"/><title id="title8473">Moka Symbolic Icon Theme</title><defs id="defs7386"><linearGradient id="linearGradient5606" osb:paint="solid"><stop style="stop-color:#000;stop-opacity:1" id="stop5608" offset="0"/></linearGradient><filter style="color-interpolation-filters:sRGB" id="filter7554"><feBlend id="feBlend7556" in2="BackgroundImage" mode="darken"/></filter></defs><path id="path6093-5" d="M 6.5,0 C 4.57293,0 3,1.57293 3,3.5 3,3.67852 3.0365,3.85978 3.0625,4.03125 1.33809,4.24562 0,5.71936 0,7.5 0,9.42707 1.57293,11 3.5,11 L 6,11 6,6.03125 6,5 l 4.01562,0 -0.0156,1.03125 0,4.96875 3,0 c 1.65093,0 3,-1.34907 3,-3 0,-1.65093 -1.34907,-3 -3,-3 -0.17414,0 -0.33381,0.0337 -0.5,0.0625 C 12.39989,3.91637 11.42082,3 10.25002,3 10.15032,3 10.06511,3.0187 9.96877,3.0312 9.74099,1.32147 8.27025,0 6.5,0 Z" style="color:#000;font-style:normal;font-variant:normal;font-weight:400;font-stretch:normal;line-height:normal;font-family:Sans;-inkscape-font-specification:Sans;text-indent:0;text-align:start;text-decoration:none;text-decoration-line:none;letter-spacing:normal;word-spacing:normal;text-transform:none;direction:ltr;block-progression:tb;writing-mode:lr-tb;baseline-shift:baseline;text-anchor:start;display:inline;overflow:visible;visibility:visible;fill:#bebebe;fill-opacity:1;stroke:none;stroke-width:1px;marker:none;enable-background:accumulate"/><path id="rect7811" d="m 7,6 0,4 0.25,2 1.5,0 L 9,10 9,6 Z m 0,7 0,2 2,0 0,-2 z" class="error" style="color:#bebebe;display:inline;overflow:visible;visibility:visible;fill:#ef2929;fill-opacity:1;stroke:none;stroke-width:2;marker:none;enable-background:accumulate"/></svg>