<svg xmlns="http://www.w3.org/2000/svg" xmlns:osb="http://www.openswatchbook.org/uri/2009/osb" xmlns:svg="http://www.w3.org/2000/svg" style="enable-background:new" id="svg7384" width="16" height="16" version="1.1"><metadata id="metadata90"/><title id="title8473">Moka Symbolic Icon Theme</title><defs id="defs7386"><linearGradient id="linearGradient5606" osb:paint="solid"><stop style="stop-color:#000;stop-opacity:1" id="stop5608" offset="0"/></linearGradient><filter style="color-interpolation-filters:sRGB" id="filter7554"><feBlend id="feBlend7556" in2="BackgroundImage" mode="darken"/></filter></defs><g style="display:inline" id="layer9" transform="translate(-561.0002,308.00336)"><path style="color:#bebebe;display:inline;overflow:visible;visibility:visible;opacity:.35;fill:#bebebe;fill-opacity:1;fill-rule:nonzero;stroke:none;stroke-width:2;marker:none;enable-background:accumulate" id="rect6343" d="m 561.00034,-305.00333 13,0 c 2.99997,-10e-6 2.99999,3 2.99999,3 l -13,0 c 0,0 -3.00002,-10e-6 -2.99999,-3 z"/><path style="color:#bebebe;display:inline;overflow:visible;visibility:visible;opacity:.35;fill:#bebebe;fill-opacity:1;fill-rule:nonzero;stroke:none;stroke-width:2;marker:none;enable-background:accumulate" id="rect6345" d="m 574.00036,-301.00333 -13,0 c -2e-5,3 2.99998,3 2.99998,3 l 13,0 c 0,0 0,-3 -2.99998,-3 z"/><path style="color:#bebebe;display:inline;overflow:visible;visibility:visible;opacity:.35;fill:#bebebe;fill-opacity:1;fill-rule:nonzero;stroke:none;stroke-width:2;marker:none;enable-background:accumulate" id="rect6347" d="m 561.00033,-297.00333 13,0 c 3,-2e-5 2.99998,3 2.99998,3 l -13,0 c 0,0 -2.99998,-2e-5 -2.99998,-3 z"/></g></svg>