<svg xmlns="http://www.w3.org/2000/svg" xmlns:svg="http://www.w3.org/2000/svg" xmlns:xlink="http://www.w3.org/1999/xlink" id="svg5400" width="16" height="16" version="1.1"><defs id="defs5402"><linearGradient id="linearGradient3804"><stop id="stop3806" offset="0" style="stop-color:#fff;stop-opacity:1"/><stop id="stop3808" offset="1" style="stop-color:#fff;stop-opacity:0"/></linearGradient><linearGradient id="outerBackgroundGradient-4"><stop id="stop3864-8-6-6" offset="0" style="stop-color:#f0f0f0;stop-opacity:1"/><stop id="stop3866-9-1-7" offset="1" style="stop-color:#f9f9f9;stop-opacity:1"/></linearGradient><linearGradient id="linearGradient3829" x1="144" x2="144" y1="280" y2="40" gradientTransform="matrix(0.05555556,0,0,0.05714289,-2,-2.1428659)" gradientUnits="userSpaceOnUse" xlink:href="#outerBackgroundGradient-4"/><linearGradient id="linearGradient3831" x1="5" x2="5" y1="1" y2="14" gradientUnits="userSpaceOnUse" xlink:href="#linearGradient3804"/><linearGradient id="linearGradient3823" x1="11" x2="15" y1="13" y2="13" gradientUnits="userSpaceOnUse" xlink:href="#outerBackgroundGradient-4"/></defs><metadata id="metadata5405"/><g style="display:inline" id="layer1"><g id="g3812" transform="translate(2,1)"><path id="path3029" d="M 1,1.000004 11,1 c 0,4 0,8.000001 0,12 L 1,13 z" style="opacity:.41000001;color:#bebebe;fill:none;stroke:#000;stroke-width:2;stroke-linejoin:round;stroke-miterlimit:4;stroke-opacity:1;stroke-dasharray:none;marker:none;visibility:visible;display:inline;overflow:visible;enable-background:accumulate"/><path style="color:#bebebe;fill:url(#linearGradient3829);fill-opacity:1;fill-rule:nonzero;stroke:none;stroke-width:0;marker:none;visibility:visible;display:inline;overflow:visible;enable-background:accumulate" id="rect3373-6" d="M 1,1.000004 11,1 c 0,4 0,8.000001 0,12 L 1,13 z"/><path style="color:#bebebe;fill:url(#linearGradient3831);fill-opacity:1;fill-rule:nonzero;stroke:none;stroke-width:0;marker:none;visibility:visible;display:inline;overflow:visible;enable-background:accumulate" id="path3799" d="M 1,1 1,13 11,13 11,1 1,1 z m 1,1 8,0 0,10 -8,0 0,-10 z"/></g></g><g style="display:inline" id="layer2"><path id="path3042" d="m 15,13 a 2,2 0 1 1 -4,0 2,2 0 1 1 4,0 z" transform="matrix(0,-1.75,1.75,0,-10.75,34.65)" style="fill:url(#linearGradient3823);fill-opacity:1;stroke:none"/><path style="fill:none;fill-opacity:1;stroke:#000;stroke-opacity:1;stroke-width:.57142857000000002;stroke-miterlimit:4;stroke-dasharray:none;opacity:.41" id="path3814" d="m 15,13 a 2,2 0 1 1 -4,0 2,2 0 1 1 4,0 z" transform="matrix(1.75,0,0,1.75,-10.75,-10.85)"/><path id="path3825" d="m 11.75,10.25 0,2 1.5,0" style="fill:none;stroke:#000;stroke-width:.5;stroke-linecap:round;stroke-linejoin:miter;stroke-miterlimit:4;stroke-opacity:1;stroke-dasharray:none;opacity:.8"/></g></svg>