<svg xmlns="http://www.w3.org/2000/svg" xmlns:svg="http://www.w3.org/2000/svg" xmlns:xlink="http://www.w3.org/1999/xlink" id="svg5400" width="16" height="16" version="1.1"><defs id="defs5402"><linearGradient id="linearGradient3818"><stop id="stop3820" offset="0" style="stop-color:#000;stop-opacity:1"/><stop id="stop3822" offset="1" style="stop-color:#000;stop-opacity:.51485151"/></linearGradient><linearGradient id="linearGradient3804"><stop id="stop3806" offset="0" style="stop-color:#fff;stop-opacity:1"/><stop id="stop3808" offset="1" style="stop-color:#fff;stop-opacity:0"/></linearGradient><linearGradient id="outerBackgroundGradient-4"><stop id="stop3864-8-6-6" offset="0" style="stop-color:#f0f0f0;stop-opacity:1"/><stop id="stop3866-9-1-7" offset="1" style="stop-color:#f9f9f9;stop-opacity:1"/></linearGradient><linearGradient id="linearGradient3829" x1="144" x2="144" y1="280" y2="40" gradientTransform="matrix(0.05555556,0,0,0.05714289,-2,-2.1428659)" gradientUnits="userSpaceOnUse" xlink:href="#outerBackgroundGradient-4"/><linearGradient id="linearGradient3831" x1="5" x2="5" y1="1" y2="14" gradientUnits="userSpaceOnUse" xlink:href="#linearGradient3804"/><linearGradient id="linearGradient3875" x1="8" x2="8" y1="0" y2="16" gradientUnits="userSpaceOnUse" xlink:href="#linearGradient3818"/></defs><metadata id="metadata5405"/><g style="display:inline" id="layer1"><g id="g3812" transform="translate(2,1)"><path id="path3029" d="M 1,1.000004 11,1 c 0,4 0,8.000001 0,12 L 1,13 z" style="opacity:.41000001;color:#bebebe;fill:none;stroke:#000;stroke-width:2;stroke-linejoin:round;stroke-miterlimit:4;stroke-opacity:1;stroke-dasharray:none;marker:none;visibility:visible;display:inline;overflow:visible;enable-background:accumulate"/><path style="color:#bebebe;fill:url(#linearGradient3829);fill-opacity:1;fill-rule:nonzero;stroke:none;stroke-width:0;marker:none;visibility:visible;display:inline;overflow:visible;enable-background:accumulate" id="rect3373-6" d="M 1,1.000004 11,1 c 0,4 0,8.000001 0,12 L 1,13 z"/><path style="color:#bebebe;fill:url(#linearGradient3831);fill-opacity:1;fill-rule:nonzero;stroke:none;stroke-width:0;marker:none;visibility:visible;display:inline;overflow:visible;enable-background:accumulate" id="path3799" d="M 1,1 1,13 11,13 11,1 1,1 z m 1,1 8,0 0,10 -8,0 0,-10 z"/></g></g><g style="display:inline" id="layer2"><path id="rect3005" d="m 7.0000001,12.009478 0,-3.99972 -2,0 3,-4 2.9999999,4 -1.9999999,0 0,3.99972 z" style="opacity:.3;color:#000;fill:url(#linearGradient3875);fill-opacity:1;fill-rule:nonzero;stroke:none;stroke-width:1;marker:none;visibility:visible;display:inline;overflow:visible;enable-background:accumulate"/><path id="path3826" d="m 6.8125,13.009618 a 1.0001,1.0001 0 0 1 -0.8125,-1 l 0,-3 -1,0 A 1.0001,1.0001 0 0 1 4.1875,7.415868 l 3,-4 a 1.0001,1.0001 0 0 1 1.625,0 l 3,4 A 1.0001,1.0001 0 0 1 11,9.009618 l -1,0 0,3 a 1.0001,1.0001 0 0 1 -1,1 l -2,0 a 1.0001,1.0001 0 0 1 -0.09375,0 1.0001,1.0001 0 0 1 -0.09375,0 z m 0.1875,-1 2,0 0,-4 2,0 -3,-4 -3,4 2,0 0,4 z" style="font-size:medium;font-style:normal;font-variant:normal;font-weight:400;font-stretch:normal;text-indent:0;text-align:start;text-decoration:none;line-height:normal;letter-spacing:normal;word-spacing:normal;text-transform:none;direction:ltr;block-progression:tb;writing-mode:lr-tb;text-anchor:start;baseline-shift:baseline;opacity:.3;color:#000;fill:#fff;fill-opacity:1;stroke:none;stroke-width:2;marker:none;visibility:visible;display:inline;overflow:visible;enable-background:accumulate;font-family:Sans;-inkscape-font-specification:Sans"/><path id="path3877" d="M 8 4 L 5 8 L 5.75 8 L 8 5 L 10.25 8 L 11 8 L 8 4 z" style="opacity:.2;color:#000;fill:#000;fill-opacity:.51485150999999996;fill-rule:nonzero;stroke:none;stroke-width:1;marker:none;visibility:visible;display:inline;overflow:visible;enable-background:accumulate"/></g></svg>