<svg xmlns="http://www.w3.org/2000/svg" xmlns:svg="http://www.w3.org/2000/svg" xmlns:xlink="http://www.w3.org/1999/xlink" id="svg3828" width="16" height="16" version="1.1"><defs id="defs3830"><linearGradient id="linearGradient3877"><stop style="stop-color:#8f5902;stop-opacity:1" id="stop3879" offset="0"/><stop style="stop-color:#6b5635;stop-opacity:1" id="stop3881" offset="1"/></linearGradient><linearGradient id="linearGradient3801"><stop id="stop3803" offset="0" style="stop-color:#fff;stop-opacity:1"/><stop id="stop3805" offset="1" style="stop-color:#fff;stop-opacity:0"/></linearGradient><linearGradient id="linearGradient3988-5"><stop id="stop3990-5" offset="0" style="stop-color:#ededed;stop-opacity:1"/><stop id="stop3992-0" offset="1" style="stop-color:#fafafa;stop-opacity:1"/></linearGradient><linearGradient id="linearGradient5772-1"><stop style="stop-color:#e2b369;stop-opacity:1" id="stop5774-8" offset="0"/><stop style="stop-color:#c79b55;stop-opacity:1" id="stop5776-7" offset="1"/></linearGradient><linearGradient id="linearGradient3881-2-4-1"><stop id="stop3883-6-8-8" offset="0" style="stop-color:#babdb6;stop-opacity:1"/><stop style="stop-color:#eeeeec;stop-opacity:1" id="stop3895-6-7-4" offset=".133"/><stop style="stop-color:#babdb6;stop-opacity:1" id="stop3891-1-9-4" offset=".531"/><stop id="stop3893-0-9-8" offset=".787" style="stop-color:#eeeeec;stop-opacity:1"/><stop id="stop3885-35-2-2" offset="1" style="stop-color:#9c988a;stop-opacity:1"/></linearGradient><linearGradient id="linearGradient3869-39-6-5"><stop id="stop3871-72-8-0" offset="0" style="stop-color:#555753;stop-opacity:1"/><stop id="stop3873-7-4-7" offset="1" style="stop-color:#babdb6;stop-opacity:1"/></linearGradient><linearGradient id="linearGradient5379-6-6-2"><stop style="stop-color:#fff;stop-opacity:1" id="stop5381-7-2-9" offset="0"/><stop style="stop-color:#fff;stop-opacity:0" id="stop5383-2-5-8" offset="1"/></linearGradient><linearGradient id="linearGradient3931" x1="24.498" x2="24.498" y1="3.998" y2="8" gradientTransform="matrix(-0.33318613,0,0,0.50509861,16.662398,4.9806153)" gradientUnits="userSpaceOnUse" xlink:href="#linearGradient5379-6-6-2"/><linearGradient id="linearGradient3935" x1="24.635" x2="24.635" y1="3.519" y2="11.541" gradientTransform="matrix(-0.49455742,0,0,0.50509861,20.637305,4.2215788)" gradientUnits="userSpaceOnUse" xlink:href="#linearGradient3881-2-4-1"/><linearGradient id="linearGradient3937" x1="32.912" x2="32.912" y1="14.115" y2=".352" gradientTransform="matrix(-0.49455742,0,0,0.50509861,20.637305,3.2113816)" gradientUnits="userSpaceOnUse" xlink:href="#linearGradient3869-39-6-5"/><linearGradient id="linearGradient3991" x1="25.132" x2="25.132" y1=".985" y2="47.013" gradientTransform="matrix(-0.48571543,0,0,-0.45629579,23.657169,20.651133)" gradientUnits="userSpaceOnUse" xlink:href="#linearGradient3988-5"/><linearGradient id="linearGradient3993" x1="10" x2="10" y1="0" y2="22" gradientTransform="matrix(-1,0,0,1,22.999999,-1.999999)" gradientUnits="userSpaceOnUse" xlink:href="#linearGradient3801"/><linearGradient id="linearGradient4064" x1="10" x2="10" y1="0" y2="22" gradientTransform="translate(-4,2.0000001)" gradientUnits="userSpaceOnUse" xlink:href="#linearGradient3801"/><linearGradient id="linearGradient4067" x1="9" x2="9" y1="3" y2="19" gradientTransform="translate(-0.99999997,4.0000001)" gradientUnits="userSpaceOnUse" xlink:href="#linearGradient3877"/><linearGradient id="linearGradient4070" x1="25.132" x2="25.132" y1=".985" y2="47.013" gradientTransform="matrix(0.48571543,0,0,0.45629579,-4.6571703,5.3488701)" gradientUnits="userSpaceOnUse" xlink:href="#linearGradient5772-1"/></defs><metadata id="metadata3833"/><g style="display:inline" id="layer1" transform="translate(0,-6)"><path id="path4287" d="m 1.4999609,7.4999631 c 3.8955809,0 13.0000591,0.0014 13.0000591,0.0014 l 2.1e-5,13.9986759 c 0,0 -7.333386,0 -13.0000801,0 0,-7.000005 0,-7.000008 0,-14.0000139 z" style="fill:url(#linearGradient4070);fill-opacity:1;stroke:none;display:inline"/><path id="path4289" d="m 1.4999609,7.499963 c 3.8955809,0 13.0000591,0.0014 13.0000591,0.0014 l 2.1e-5,13.998676 c 0,0 -7.333386,0 -13.0000801,0 0,-7.000005 0,-7.000008 0,-14.000014 z" style="opacity:.61000001;fill:none;stroke:url(#linearGradient4067);stroke-width:.99992186;stroke-linecap:butt;stroke-linejoin:round;stroke-miterlimit:4;stroke-opacity:1;stroke-dasharray:none;stroke-dashoffset:0;display:inline"/><path style="opacity:.3;fill:url(#linearGradient4064);fill-opacity:1" id="path4293" d="M 2,8.0000001 2,21 14,21 14,8.0000001 z m 1,1 10,0 L 13,20 3,20 z"/><path style="opacity:.2;fill:#fff;fill-opacity:1;stroke:none;display:inline" id="path4291" d="m 2,8.0000001 0,1 c 4.157995,7.52e-5 11.292656,-7.52e-5 12,0 l 0,-1 c -0.707344,-7.52e-5 -7.842005,7.52e-5 -12,0 z"/><g id="g3985" transform="matrix(-1,0,0,1,21,4.9999992)"><path style="fill:url(#linearGradient3991);fill-opacity:1;stroke:none;display:inline" id="path3973" d="m 17.500038,14.50004 c -3.895581,0 -9.0000589,-0.0014 -9.0000589,-0.0014 l -2.1e-5,-10.998676 c 0,0 3.3333859,0 9.0000799,0 0,7.000005 0,4.000008 0,11.000014 z"/><path style="opacity:.31000001;fill:none;stroke:#000;stroke-width:.99992186;stroke-linecap:butt;stroke-linejoin:round;stroke-miterlimit:4;stroke-opacity:1;stroke-dasharray:none;stroke-dashoffset:0;display:inline" id="path3975" d="m 17.500038,3.4999639 c -3.895581,0 -9.0000589,0.0014 -9.0000589,0.0014 l -2.1e-5,10.9986761 c 0,0 3.3333859,0 9.0000799,0 0,-7.000005 0,-4.000008 0,-11.0000141 z"/><path id="path3977" d="m 16.999999,4.000001 0,1 c -4.157995,7.52e-5 -7.2926559,-7.52e-5 -7.9999999,0 l 0,-1 c 0.707344,-7.52e-5 3.8420049,7.52e-5 7.9999999,0 z" style="opacity:.4;fill:#fff;fill-opacity:1;stroke:none;display:inline"/><path id="path3979" d="m 16.999999,4.000001 0,10 -7.9999999,0 0,-10 z m -1,1 -5.9999999,0 0,8 5.9999999,0 z" style="opacity:.4;fill:url(#linearGradient3993);fill-opacity:1"/></g><path id="path5584-8-6-5" d="m 5.000003,11.500023 c -0.500002,0 -0.500002,-0.999999 -0.500002,-0.999999 l 1,-0.9999995 0,-1.0000044 c 0,-0.4154991 0.501981,-0.9999992 1,-0.9999992 l 2.999999,0 c 0.599611,0 1,0.5893692 1,0.9999992 l 0,1.0000044 1,0.9999995 c 0,0 0,0.999999 -0.499997,0.999999 z" style="opacity:.1;color:#000;fill:#000;fill-opacity:1;fill-rule:nonzero;stroke:#000;stroke-width:1;stroke-linecap:butt;stroke-linejoin:miter;stroke-miterlimit:4;stroke-opacity:1;stroke-dasharray:none;stroke-dashoffset:0;marker:none;visibility:visible;display:block;overflow:visible;enable-background:accumulate"/><path id="path5584-8-6" d="m 5.000003,10.50002 c -0.500002,0 -0.500002,-0.9999991 -0.500002,-0.9999991 l 1,-0.9999998 0,-1.0000002 c 0,-0.4155012 0.501981,-0.9999999 1,-0.9999999 l 2.999999,0 c 0.599611,0 1,0.5893714 1,0.9999993 l 0,1.0000008 1,0.9999988 c 0,0 0,1.0000001 -0.499997,1.0000001 z" style="color:#000;fill:url(#linearGradient3935);fill-opacity:1;fill-rule:nonzero;stroke:url(#linearGradient3937);stroke-width:1;stroke-linecap:butt;stroke-linejoin:miter;stroke-miterlimit:4;stroke-opacity:1;stroke-dasharray:none;stroke-dashoffset:0;marker:none;visibility:visible;display:block;overflow:visible;enable-background:accumulate"/><rect id="rect5594-4-8" width="5.104" height="1" x="-11.073" y="9" rx=".276" ry=".5" transform="scale(-1,1)" style="opacity:.5;color:#000;fill:#fff;fill-opacity:1;fill-rule:nonzero;stroke:none;stroke-width:1;marker:none;visibility:visible;display:block;overflow:visible;enable-background:accumulate"/><path id="path5377-6-6" d="m 9.998672,9.0214041 0,-1.5152958 C 10.011832,7.1871102 9.929382,6.9840308 9.665494,7.0010097 l -3.332302,0 C 6.178905,7.0383167 6.019326,7.0595907 6.000004,7.5061083 l 0,1.5152958 0.333188,-1.0309209 3.332302,0 z" style="color:#000;fill:url(#linearGradient3931);fill-opacity:1;fill-rule:nonzero;stroke:none;stroke-width:1;marker:none;visibility:visible;display:inline;overflow:visible;enable-background:accumulate"/><g id="g4032" transform="matrix(-1,0,0,1,20.75,5.5703121)"><path id="path26173" d="m 11.03906,5.4296875 0,-0.859375 -1.28906,0 0,0.859375 1.28906,0" style="font-size:2px;font-style:normal;font-variant:normal;font-weight:400;font-stretch:normal;line-height:100%;letter-spacing:0;word-spacing:0;opacity:.2;fill:#000;fill-opacity:1;stroke:none;font-family:BLOKK Neue;-inkscape-font-specification:BLOKK Neue"/><path id="path26177" d="m 13.53906,5.4296875 0,-0.859375 -1.28906,0 0,0.859375 1.28906,0" style="font-size:2px;font-style:normal;font-variant:normal;font-weight:400;font-stretch:normal;line-height:100%;letter-spacing:0;word-spacing:0;opacity:.2;fill:#000;fill-opacity:1;stroke:none;font-family:BLOKK Neue;-inkscape-font-specification:BLOKK Neue"/><path id="path26179" d="m 14.78906,5.4296875 0,-0.859375 -1.28906,0 0,0.859375 1.28906,0" style="font-size:2px;font-style:normal;font-variant:normal;font-weight:400;font-stretch:normal;line-height:100%;letter-spacing:0;word-spacing:0;opacity:.2;fill:#000;fill-opacity:1;stroke:none;font-family:BLOKK Neue;-inkscape-font-specification:BLOKK Neue"/><path id="path26181" d="m 16.03906,5.4296875 0,-0.859375 -1.28906,0 0,0.859375 1.28906,0" style="font-size:2px;font-style:normal;font-variant:normal;font-weight:400;font-stretch:normal;line-height:100%;letter-spacing:0;word-spacing:0;opacity:.2;fill:#000;fill-opacity:1;stroke:none;font-family:BLOKK Neue;-inkscape-font-specification:BLOKK Neue"/><path id="path26203" d="m 11.03906,7.4296875 0,-0.859375 -1.28906,0 0,0.859375 1.28906,0" style="font-size:2px;font-style:normal;font-variant:normal;font-weight:400;font-stretch:normal;line-height:100%;letter-spacing:0;word-spacing:0;opacity:.2;fill:#000;fill-opacity:1;stroke:none;font-family:BLOKK Neue;-inkscape-font-specification:BLOKK Neue"/><path id="path26205" d="m 12.28906,7.4296875 0,-0.859375 -1.28906,0 0,0.859375 1.28906,0" style="font-size:2px;font-style:normal;font-variant:normal;font-weight:400;font-stretch:normal;line-height:100%;letter-spacing:0;word-spacing:0;opacity:.2;fill:#000;fill-opacity:1;stroke:none;font-family:BLOKK Neue;-inkscape-font-specification:BLOKK Neue"/><path id="path26207" d="m 13.53906,7.4296875 0,-0.859375 -1.28906,0 0,0.859375 1.28906,0" style="font-size:2px;font-style:normal;font-variant:normal;font-weight:400;font-stretch:normal;line-height:100%;letter-spacing:0;word-spacing:0;opacity:.2;fill:#000;fill-opacity:1;stroke:none;font-family:BLOKK Neue;-inkscape-font-specification:BLOKK Neue"/><path id="path26219" d="m 11.03906,9.4296875 0,-0.859375 -1.28906,0 0,0.859375 1.28906,0" style="font-size:2px;font-style:normal;font-variant:normal;font-weight:400;font-stretch:normal;line-height:100%;letter-spacing:0;word-spacing:0;opacity:.2;fill:#000;fill-opacity:1;stroke:none;font-family:BLOKK Neue;-inkscape-font-specification:BLOKK Neue"/><path id="path26223" d="m 13.53906,9.4296875 0,-0.859375 -1.28906,0 0,0.859375 1.28906,0" style="font-size:2px;font-style:normal;font-variant:normal;font-weight:400;font-stretch:normal;line-height:100%;letter-spacing:0;word-spacing:0;opacity:.2;fill:#000;fill-opacity:1;stroke:none;font-family:BLOKK Neue;-inkscape-font-specification:BLOKK Neue"/><path id="path26225" d="m 14.78906,9.4296875 0,-0.859375 -1.28906,0 0,0.859375 1.28906,0" style="font-size:2px;font-style:normal;font-variant:normal;font-weight:400;font-stretch:normal;line-height:100%;letter-spacing:0;word-spacing:0;opacity:.2;fill:#000;fill-opacity:1;stroke:none;font-family:BLOKK Neue;-inkscape-font-specification:BLOKK Neue"/><path id="path26227" d="m 16.03906,9.4296875 0,-0.859375 -1.28906,0 0,0.859375 1.28906,0" style="font-size:2px;font-style:normal;font-variant:normal;font-weight:400;font-stretch:normal;line-height:100%;letter-spacing:0;word-spacing:0;opacity:.2;fill:#000;fill-opacity:1;stroke:none;font-family:BLOKK Neue;-inkscape-font-specification:BLOKK Neue"/><path id="path26241" d="m 11.03906,11.429688 0,-0.859375 -1.28906,0 0,0.859375 1.28906,0" style="font-size:2px;font-style:normal;font-variant:normal;font-weight:400;font-stretch:normal;line-height:100%;letter-spacing:0;word-spacing:0;opacity:.2;fill:#000;fill-opacity:1;stroke:none;font-family:BLOKK Neue;-inkscape-font-specification:BLOKK Neue"/><path id="path26243" d="m 12.28906,11.429688 0,-0.859375 -1.28906,0 0,0.859375 1.28906,0" style="font-size:2px;font-style:normal;font-variant:normal;font-weight:400;font-stretch:normal;line-height:100%;letter-spacing:0;word-spacing:0;opacity:.2;fill:#000;fill-opacity:1;stroke:none;font-family:BLOKK Neue;-inkscape-font-specification:BLOKK Neue"/><path id="path26247" d="m 14.78906,11.429688 0,-0.859375 -1.28906,0 0,0.859375 1.28906,0" style="font-size:2px;font-style:normal;font-variant:normal;font-weight:400;font-stretch:normal;line-height:100%;letter-spacing:0;word-spacing:0;opacity:.2;fill:#000;fill-opacity:1;stroke:none;font-family:BLOKK Neue;-inkscape-font-specification:BLOKK Neue"/><path id="path26249" d="m 16.03906,11.429688 0,-0.859375 -1.28906,0 0,0.859375 1.28906,0" style="font-size:2px;font-style:normal;font-variant:normal;font-weight:400;font-stretch:normal;line-height:100%;letter-spacing:0;word-spacing:0;opacity:.2;fill:#000;fill-opacity:1;stroke:none;font-family:BLOKK Neue;-inkscape-font-specification:BLOKK Neue"/><path style="font-size:2px;font-style:normal;font-variant:normal;font-weight:400;font-stretch:normal;line-height:100%;letter-spacing:0;word-spacing:0;opacity:.2;fill:#000;fill-opacity:1;stroke:none;font-family:BLOKK Neue;-inkscape-font-specification:BLOKK Neue" id="path4459" d="m 16.03906,7.4296875 0,-0.859375 -1.28906,0 0,0.859375 1.28906,0"/></g></g></svg>