<svg xmlns="http://www.w3.org/2000/svg" xmlns:svg="http://www.w3.org/2000/svg" xmlns:xlink="http://www.w3.org/1999/xlink" id="svg5400" width="16" height="16" version="1.1"><defs id="defs5402"><linearGradient id="linearGradient3804"><stop id="stop3806" offset="0" style="stop-color:#fff;stop-opacity:1"/><stop id="stop3808" offset="1" style="stop-color:#fff;stop-opacity:0"/></linearGradient><linearGradient id="linearGradient4228"><stop id="stop4230" offset="0" style="stop-color:#fff;stop-opacity:1"/><stop style="stop-color:#fff;stop-opacity:.85098039" id="stop4262" offset=".224"/><stop id="stop4232" offset="1" style="stop-color:#fff;stop-opacity:.70253164"/></linearGradient><linearGradient id="outerBackgroundGradient"><stop id="stop3864-8-6" offset="0" style="stop-color:#b79877;stop-opacity:1"/><stop id="stop3866-9-1" offset="1" style="stop-color:#f7d2a2;stop-opacity:1"/></linearGradient><linearGradient id="linearGradient3921" x1="5" x2="5" y1="1" y2="14" gradientTransform="translate(2,2)" gradientUnits="userSpaceOnUse" xlink:href="#linearGradient3804"/><linearGradient id="linearGradient3924" x1="144" x2="144" y1="280" y2="40" gradientTransform="matrix(0.06018519,0,0,0.06285718,-0.66666667,-1.0571525)" gradientUnits="userSpaceOnUse" xlink:href="#outerBackgroundGradient"/><linearGradient id="linearGradient3886"><stop id="stop3888" offset="0" style="stop-color:#b040c8;stop-opacity:1"/><stop id="stop3890" offset="1" style="stop-color:#ac29c2;stop-opacity:1"/></linearGradient><linearGradient id="linearGradient3904-5"><stop style="stop-color:#5e2b66;stop-opacity:1" id="stop3906-7" offset="0"/><stop style="stop-color:#61326a;stop-opacity:1" id="stop3908-4" offset="1"/></linearGradient><linearGradient id="linearGradient3909" x1="15" x2="5" y1="2" y2="2" gradientTransform="matrix(0,1,-1,0,15,-5)" gradientUnits="userSpaceOnUse" xlink:href="#linearGradient3886"/><linearGradient id="linearGradient3940" x1="330" x2="330" y1="995.628" y2="1012.097" gradientTransform="matrix(0.5,0,0,0.5,-156.00005,-492.93109)" gradientUnits="userSpaceOnUse" xlink:href="#linearGradient4228"/><linearGradient id="linearGradient4062" x1="16" x2="5" y1="7" y2="7" gradientTransform="matrix(0,1,-1,0,15,-5)" gradientUnits="userSpaceOnUse" xlink:href="#linearGradient3904-5"/></defs><metadata id="metadata5405"/><g style="display:inline" id="layer1"><path id="rect3373-6" d="m 14.499996,3.5 4e-6,11 c -4.333333,0 -8.6666678,0 -13,0 l 0,-11 z" style="color:#bebebe;fill:url(#linearGradient3924);fill-opacity:1;fill-rule:nonzero;stroke:none;stroke-width:0;marker:none;visibility:visible;display:inline;overflow:visible;enable-background:accumulate"/><path id="path3799" d="M 14,4 2,4 2,14 14,14 14,4 z m -1,1 0,8 -10,0 0,-8 10,0 z" style="opacity:.4;color:#bebebe;fill:url(#linearGradient3921);fill-opacity:1;fill-rule:nonzero;stroke:none;stroke-width:0;marker:none;visibility:visible;display:inline;overflow:visible;enable-background:accumulate"/><path style="opacity:.41000001;color:#bebebe;fill:none;stroke:#000;stroke-width:1;stroke-miterlimit:4;stroke-opacity:1;stroke-dasharray:none;marker:none;visibility:visible;display:inline;overflow:visible;enable-background:accumulate" id="path3927" d="m 14.499996,3.5 4e-6,11 c -4.333333,0 -8.6666678,0 -13,0 l 0,-11 z"/><g id="g3943" transform="matrix(1,0,0,0.85714286,0,2.1428571)" style="display:inline"><path style="font-size:medium;font-style:normal;font-variant:normal;font-weight:400;font-stretch:normal;text-indent:0;text-align:start;text-decoration:none;line-height:normal;letter-spacing:normal;word-spacing:normal;text-transform:none;direction:ltr;block-progression:tb;writing-mode:lr-tb;text-anchor:start;baseline-shift:baseline;opacity:.05;color:#000;fill:#fff;fill-opacity:1;stroke:none;stroke-width:1;marker:none;visibility:visible;display:inline;overflow:visible;enable-background:new;font-family:Sans;-inkscape-font-specification:Sans" id="path3991" d="M 7,1 7,15 8,15 8,1 7,1 z"/><path style="font-size:medium;font-style:normal;font-variant:normal;font-weight:400;font-stretch:normal;text-indent:0;text-align:start;text-decoration:none;line-height:normal;letter-spacing:normal;word-spacing:normal;text-transform:none;direction:ltr;block-progression:tb;writing-mode:lr-tb;text-anchor:start;baseline-shift:baseline;opacity:.1;color:#000;fill:#000;fill-opacity:1;stroke:none;stroke-width:1;marker:none;visibility:visible;display:inline;overflow:visible;enable-background:new;font-family:Sans;-inkscape-font-specification:Sans" id="path3955" d="M 8,1 8,15 9,15 9,1 8,1 z"/></g><path id="path4248" d="M 12.11719,8 10.88281,8 5.11718,8 3.88277,8 c 0,0.10598 0.34374,0.20652 0.34374,0.3125 0,0.16227 -0.34374,0.33774 -0.34374,0.5 0,0.20156 0.39067,0.39219 0.39067,0.59375 0,0.19686 -0.39067,0.39688 -0.39067,0.59375 l 1.23441,0 5.76563,0 1.23438,0 c 0,-0.19687 -0.375,-0.39689 -0.375,-0.59375 0,-0.20156 0.375,-0.39219 0.375,-0.59375 0,-0.16226 -0.32813,-0.33773 -0.32813,-0.5 0,-0.10598 0.32813,-0.20652 0.32813,-0.3125 z" style="opacity:.3;fill:url(#linearGradient3940);fill-opacity:1;fill-rule:nonzero;stroke:none;stroke-width:1;marker:none;visibility:visible;display:inline;overflow:visible;enable-background:accumulate"/></g><g style="display:inline" id="layer2"><path style="font-style:normal;font-variant:normal;font-weight:400;font-stretch:normal;text-indent:0;text-align:start;text-decoration:none;line-height:normal;letter-spacing:normal;word-spacing:normal;text-transform:none;direction:ltr;block-progression:tb;writing-mode:lr-tb;text-anchor:start;baseline-shift:baseline;color:#bebebe;fill:url(#linearGradient3909);fill-opacity:1;fill-rule:nonzero;stroke:none;stroke-width:0;marker:none;visibility:visible;display:inline;overflow:visible;enable-background:accumulate;font-family:Sans;-inkscape-font-specification:Sans" id="path4400-3-3" d="m 11.5625,6.46875 -1.5625,0 -0.5,0 0,0.5 0,3.53125 -3,0 c 8.44e-5,-0.01034 0,-0.0209 0,-0.03125 l 0,-3.5 0,-0.5 -0.5,0 -1.5625,0 L 8,1.375 z"/><path style="font-style:normal;font-variant:normal;font-weight:400;font-stretch:normal;text-indent:0;text-align:start;text-decoration:none;line-height:normal;letter-spacing:normal;word-spacing:normal;text-transform:none;direction:ltr;block-progression:tb;writing-mode:lr-tb;text-anchor:start;baseline-shift:baseline;opacity:.81000000999999999;color:#bebebe;fill:none;stroke:url(#linearGradient4062);stroke-width:1;stroke-miterlimit:4;stroke-opacity:1;stroke-dasharray:none;marker:none;visibility:visible;display:inline;overflow:visible;enable-background:accumulate;font-family:Sans;-inkscape-font-specification:Sans" id="path4033" d="M 11.5625,6.46875 8,1.375 4.4375,6.46875 l 1.5625,0 0.5,0 0,0.5 0,3.53125 c -0.5,0 2.5,0 3,0 l 0,-3.53125 0,-0.5 0.5,0 z"/><path id="path4046" d="M 8 2.25 L 5.375 5.96875 L 6 5.96875 L 6.09375 5.96875 L 8 3.25 L 9.90625 5.96875 L 10 5.96875 L 10.625 5.96875 L 8 2.25 z" style="font-style:normal;font-variant:normal;font-weight:400;font-stretch:normal;text-indent:0;text-align:start;text-decoration:none;line-height:normal;letter-spacing:normal;word-spacing:normal;text-transform:none;direction:ltr;block-progression:tb;writing-mode:lr-tb;text-anchor:start;baseline-shift:baseline;color:#bebebe;fill:#fff;fill-opacity:1;fill-rule:nonzero;stroke:none;stroke-width:0;marker:none;visibility:visible;display:inline;overflow:visible;enable-background:accumulate;font-family:Sans;-inkscape-font-specification:Sans;opacity:.2"/></g></svg>