<svg xmlns="http://www.w3.org/2000/svg" xmlns:svg="http://www.w3.org/2000/svg" xmlns:xlink="http://www.w3.org/1999/xlink" id="svg5400" width="16" height="16" version="1.1"><defs id="defs5402"><linearGradient id="linearGradient6948" x1="8" x2="8" y1="15" y2="10" gradientUnits="userSpaceOnUse" xlink:href="#linearGradient5604-7"/><linearGradient id="linearGradient5604-7"><stop style="stop-color:#6f6c7e;stop-opacity:1" id="stop5606-8" offset="0"/><stop style="stop-color:#aaa;stop-opacity:1" id="stop5608-5" offset="1"/></linearGradient><linearGradient id="linearGradient6950" x1="9" x2="9" y1="10" y2="15" gradientUnits="userSpaceOnUse" xlink:href="#linearGradient5612-8"/><linearGradient id="linearGradient5612-8"><stop style="stop-color:#212121;stop-opacity:1" id="stop5614-2" offset="0"/><stop style="stop-color:#58575e;stop-opacity:1" id="stop5616-0" offset="1"/></linearGradient><linearGradient id="linearGradient6954" x1="633.305" x2="633.305" y1="218.844" y2="230.173" gradientTransform="translate(-625,-216.00001)" gradientUnits="userSpaceOnUse" xlink:href="#linearGradient3977"/><linearGradient id="linearGradient3977"><stop style="stop-color:#fff;stop-opacity:1" id="stop3979" offset="0"/><stop style="stop-color:#fff;stop-opacity:.23529412" id="stop3981" offset=".029"/><stop style="stop-color:#fff;stop-opacity:.15686275" id="stop3983" offset=".972"/><stop style="stop-color:#fff;stop-opacity:.39215687" id="stop3985" offset="1"/></linearGradient><linearGradient id="linearGradient6957" x1="8.674" x2="8.674" y1="15.028" y2="3.102" gradientTransform="translate(0,-10e-6)" gradientUnits="userSpaceOnUse" xlink:href="#linearGradient5518-7"/><linearGradient id="linearGradient5518-7"><stop style="stop-color:#eae5ff;stop-opacity:1" id="stop5520-3" offset="0"/><stop style="stop-color:#d4d5da;stop-opacity:1" id="stop5522-8" offset="1"/></linearGradient></defs><metadata id="metadata5405"/><g id="layer1"><path style="color:#000;fill:url(#linearGradient6957);fill-opacity:1;fill-rule:nonzero;stroke:none;stroke-width:1;marker:none;visibility:visible;display:inline;overflow:visible;enable-background:accumulate" id="path7059" d="m 11.5,2.49999 0,2.5 L 8,1.53124 2.5,6.99999 l 0,7.49973 11,0 0,-7.49973 -0.5,-0.5 0.5,0 0,-4 z"/><path id="path2998-4-3-3" d="m 11.5,2.49999 0,2.5 L 8,1.53124 2.5,6.99999 l 0,7.49973 11,0 0,-7.49973 -0.5,-0.5 0.5,0 0,-4 z" style="opacity:.61000001;color:#000;fill:none;stroke:#3f3f3f;stroke-width:1;stroke-miterlimit:4;stroke-opacity:1;stroke-dasharray:none;marker:none;visibility:visible;display:inline;overflow:visible;enable-background:accumulate"/><path id="path2998-4-3-3-1" d="m 8,1.53124 -4.5,5.46875 0,6.49973 9,0 0,-6.99973 z" style="color:#000;fill:none;stroke:url(#linearGradient6954);stroke-width:1;stroke-miterlimit:4;stroke-opacity:1;stroke-dasharray:none;marker:none;visibility:visible;display:inline;overflow:visible;enable-background:accumulate"/><path id="path2998-4-0" d="m 8,1.12472 -6.5,6.5 0,0.875 0.75,0 L 7.6562,3.03097 8,2.65597 l 0.3438,0.375 5.4062,5.46875 0.75,0 0,-0.875 -6.5,-6.5 z" style="color:#000;fill:#49485a;fill-opacity:1;fill-rule:nonzero;stroke:none;stroke-width:1.70000005;marker:none;visibility:visible;display:inline;overflow:visible;enable-background:accumulate"/><path id="rect5583" d="m 6.5,10.49972 0,4.00028 3,0 0,-4.00028 c -1,-2.8e-4 -2,-2.8e-4 -3,0 z" style="color:#000;fill:url(#linearGradient6948);fill-opacity:1;stroke:url(#linearGradient6950);stroke-width:1;stroke-linecap:butt;stroke-linejoin:round;stroke-miterlimit:4;stroke-opacity:1;stroke-dasharray:none;stroke-dashoffset:0;marker:none;visibility:visible;display:inline;overflow:visible;enable-background:accumulate"/><path id="path5620" d="m 10,12.5 a 0.5,0.5 0 0 1 -1,0 0.5,0.5 0 1 1 1,0 z" style="color:#000;fill:#0a0a0a;fill-opacity:1;fill-rule:nonzero;stroke:none;stroke-width:1;marker:none;visibility:visible;display:inline;overflow:visible;enable-background:accumulate"/><path style="opacity:.7;color:#000;fill:none;stroke:#49485a;stroke-width:1;stroke-miterlimit:4;stroke-opacity:1;stroke-dasharray:none;marker:none;visibility:visible;display:inline;overflow:visible;enable-background:accumulate" id="path7057" d="m 8,1.12472 -6.5,6.5 0,0.875 0.75,0 L 7.6562,3.03097 8,2.65597 l 0.3438,0.375 5.4062,5.46875 0.75,0 0,-0.875 -6.5,-6.5 z"/><rect id="rect6115" width="1" height="1" x="12" y="3" style="opacity:.5;color:#000;fill:#fff;fill-opacity:1;fill-rule:nonzero;stroke:none;stroke-width:1;marker:none;visibility:visible;display:inline;overflow:visible;enable-background:accumulate"/><rect id="rect6961" width="2" height="1" x="7" y="11" style="opacity:.1;fill:#fff;fill-opacity:1;stroke:none;display:inline;enable-background:new"/></g></svg>