<svg xmlns="http://www.w3.org/2000/svg" xmlns:svg="http://www.w3.org/2000/svg" xmlns:xlink="http://www.w3.org/1999/xlink" id="svg5400" width="16" height="16" version="1.1"><defs id="defs5402"><linearGradient id="linearGradient3821"><stop id="stop3823" offset="0" style="stop-color:#555;stop-opacity:1"/><stop id="stop3825" offset="1" style="stop-color:#666;stop-opacity:1"/></linearGradient><linearGradient id="linearGradient3058" x1="8" x2="8" y1="16" y2="0" gradientUnits="userSpaceOnUse" xlink:href="#linearGradient3821"/></defs><metadata id="metadata5405"/><g id="layer1"><path id="path3812" d="m 14.875,8.578125 -0.4375,0.75 -3,5 -0.4375,0.71875 -0.4375,-0.71875 -3,-5 -0.4375,-0.75 0.875,0 1.5,0 0,-2.5 c 0,-1.417147 -1.0828529,-2.5 -2.5,-2.5 -1.417087,0 -2.526739,1.094386 -2.5,2.5 l 0,5 0,0.5 -0.5,0 -2,0 -0.5,0 0,-0.5 0,-5 c 0,-3.024833 2.475167,-5.5 5.5,-5.5 3.025019,0 5.39971,2.465954 5.5,5.46875 l 0,0.03125 0,2.5 1.5,0 0.875,0 z" style="font-size:medium;font-style:normal;font-variant:normal;font-weight:400;font-stretch:normal;text-indent:0;text-align:start;text-decoration:none;line-height:normal;letter-spacing:normal;word-spacing:normal;text-transform:none;direction:ltr;block-progression:tb;writing-mode:lr-tb;text-anchor:start;baseline-shift:baseline;color:#bebebe;fill:url(#linearGradient3058);fill-opacity:1;stroke:none;stroke-width:1;marker:none;visibility:visible;display:inline;overflow:visible;enable-background:accumulate;font-family:Sans;-inkscape-font-specification:Sans"/><path style="font-size:medium;font-style:normal;font-variant:normal;font-weight:400;font-stretch:normal;text-indent:0;text-align:start;text-decoration:none;line-height:normal;letter-spacing:normal;word-spacing:normal;text-transform:none;direction:ltr;block-progression:tb;writing-mode:lr-tb;text-anchor:start;baseline-shift:baseline;opacity:.61000001;color:#bebebe;fill:none;stroke:#000;stroke-width:1;stroke-opacity:1;marker:none;visibility:visible;display:inline;overflow:visible;enable-background:accumulate;font-family:Sans;-inkscape-font-specification:Sans" id="path3832" d="m 14.875,8.578125 -0.4375,0.75 -3,5 -0.4375,0.71875 -0.4375,-0.71875 -3,-5 -0.4375,-0.75 0.875,0 1.5,0 0,-2.5 c 0,-1.417147 -1.0828529,-2.5 -2.5,-2.5 -1.417087,0 -2.526739,1.094386 -2.5,2.5 l 0,5 0,0.5 -0.5,0 -2,0 -0.5,0 0,-0.5 0,-5 c 0,-3.024833 2.475167,-5.5 5.5,-5.5 3.025019,0 5.39971,2.465954 5.5,5.46875 l 0,0.03125 0,2.5 1.5,0 0.875,0 z"/><path id="path3060" d="m 7.015625,1.0625 c 2.7532898,0 4.908195,2.2512451 5,5 l 0,1 c -0.09181,-2.7487549 -2.2467102,-5 -5,-5 -2.752072,0 -5,2.2479277 -5,5 l 0,-1 c 0,-2.7520723 2.247928,-5 5,-5 z m 7,8 -0.59375,1 -0.90625,0 -0.5,0 0,-0.5 0,-0.5 0.5,0 1.5,0 z m -4,0 0,0.5 0,0.5 -0.5,0 -0.9375,0 -0.59375,-1 0.03125,0 1.5,0 0.5,0 z" style="font-size:medium;font-style:normal;font-variant:normal;font-weight:400;font-stretch:normal;text-indent:0;text-align:start;text-decoration:none;line-height:normal;letter-spacing:normal;word-spacing:normal;text-transform:none;direction:ltr;block-progression:tb;writing-mode:lr-tb;text-anchor:start;baseline-shift:baseline;opacity:.2;color:#bebebe;fill:#fff;fill-opacity:1;stroke:none;stroke-width:1;marker:none;visibility:visible;display:inline;overflow:visible;enable-background:accumulate;font-family:Sans;-inkscape-font-specification:Sans"/></g></svg>