<svg xmlns="http://www.w3.org/2000/svg" xmlns:svg="http://www.w3.org/2000/svg" xmlns:xlink="http://www.w3.org/1999/xlink" id="svg5400" width="16" height="16" version="1.1"><defs id="defs5402"><linearGradient id="linearGradient3821"><stop id="stop3823" offset="0" style="stop-color:#555;stop-opacity:1"/><stop id="stop3825" offset="1" style="stop-color:#666;stop-opacity:1"/></linearGradient><linearGradient id="linearGradient3902" x1="8" x2="8" y1="16" y2="0" gradientUnits="userSpaceOnUse" xlink:href="#linearGradient3821"/></defs><metadata id="metadata5405"/><g id="layer1"><path id="path3887" d="M 7.78125 1.28125 L 7.4375 1.65625 L 1.4375 7.65625 L 1.09375 8 L 1.4375 8.34375 L 7.4375 14.40625 L 7.78125 14.75 L 8.15625 14.40625 L 9.53125 13 L 9.875 12.65625 L 9.53125 12.3125 L 6.78125 9.53125 L 14 9.5 L 14.5 9.5 L 14.5 9 L 14.5 7 L 14.5 6.5 L 14 6.5 L 6.75 6.53125 L 9.53125 3.75 L 9.875 3.375 L 9.53125 3.03125 L 8.15625 1.65625 L 7.78125 1.28125 z" style="font-size:medium;font-style:normal;font-variant:normal;font-weight:400;font-stretch:normal;text-indent:0;text-align:start;text-decoration:none;line-height:normal;letter-spacing:normal;word-spacing:normal;text-transform:none;direction:ltr;block-progression:tb;writing-mode:lr-tb;text-anchor:start;baseline-shift:baseline;color:#000;fill:url(#linearGradient3902);fill-opacity:1;fill-rule:nonzero;stroke:none;stroke-width:1;marker:none;visibility:visible;display:inline;overflow:visible;enable-background:new;font-family:Sans;-inkscape-font-specification:Sans"/><path style="font-size:medium;font-style:normal;font-variant:normal;font-weight:400;font-stretch:normal;text-indent:0;text-align:start;text-decoration:none;line-height:normal;letter-spacing:normal;word-spacing:normal;text-transform:none;direction:ltr;block-progression:tb;writing-mode:lr-tb;text-anchor:start;baseline-shift:baseline;color:#000;fill:none;fill-opacity:1;fill-rule:nonzero;stroke:#000;stroke-width:1;marker:none;visibility:visible;display:inline;overflow:visible;enable-background:new;font-family:Sans;-inkscape-font-specification:Sans;stroke-opacity:1;opacity:.61" id="path3904" d="M 7.78125 1.28125 L 7.4375 1.65625 L 1.4375 7.65625 L 1.09375 8 L 1.4375 8.34375 L 7.4375 14.40625 L 7.78125 14.75 L 8.15625 14.40625 L 9.53125 13 L 9.875 12.65625 L 9.53125 12.3125 L 6.78125 9.53125 L 14 9.5 L 14.5 9.5 L 14.5 9 L 14.5 7 L 14.5 6.5 L 14 6.5 L 6.75 6.53125 L 9.53125 3.75 L 9.875 3.375 L 9.53125 3.03125 L 8.15625 1.65625 L 7.78125 1.28125 z"/><path id="path4765" d="M 7.78125 2 L 1.78125 8 L 2.28125 8.5 L 7.78125 3 L 8.6875 3.875 L 9.1875 3.375 L 7.78125 2 z M 14 7 L 6.53125 7.03125 L 5.53125 8.03125 L 14 8 L 14 7 z M 5.53125 10.03125 L 8.6875 13.15625 L 9.1875 12.65625 L 6.53125 10.03125 L 5.53125 10.03125 z" style="fill:#fff;fill-opacity:1;fill-rule:nonzero;stroke:none;display:inline;enable-background:new;opacity:.2"/></g></svg>