<svg xmlns="http://www.w3.org/2000/svg" xmlns:svg="http://www.w3.org/2000/svg" xmlns:xlink="http://www.w3.org/1999/xlink" id="svg5400" width="16" height="16" version="1.1"><defs id="defs5402"><linearGradient id="linearGradient3813"><stop id="stop3815" offset="0" style="stop-color:#5a5a5a;stop-opacity:1"/><stop id="stop3817" offset="1" style="stop-color:#8c8c8c;stop-opacity:1"/></linearGradient><linearGradient id="linearGradient3904"><stop style="stop-color:#104b88;stop-opacity:1" id="stop3906" offset="0"/><stop style="stop-color:#0e7398;stop-opacity:1" id="stop3908" offset="1"/></linearGradient><linearGradient id="linearGradient3886"><stop id="stop3888" offset="0" style="stop-color:#5097e1;stop-opacity:1"/><stop id="stop3890" offset="1" style="stop-color:#53d0ff;stop-opacity:1"/></linearGradient><linearGradient id="linearGradient3804"><stop id="stop3806" offset="0" style="stop-color:#fff;stop-opacity:1"/><stop id="stop3808" offset="1" style="stop-color:#fff;stop-opacity:0"/></linearGradient><linearGradient id="outerBackgroundGradient-4"><stop id="stop3864-8-6-6" offset="0" style="stop-color:#f0f0f0;stop-opacity:1"/><stop id="stop3866-9-1-7" offset="1" style="stop-color:#f9f9f9;stop-opacity:1"/></linearGradient><linearGradient id="linearGradient3829" x1="144" x2="144" y1="280" y2="40" gradientTransform="matrix(0,-0.05555556,0.05714289,0,-3.1428659,15)" gradientUnits="userSpaceOnUse" xlink:href="#outerBackgroundGradient-4"/><linearGradient id="linearGradient3831" x1="5" x2="5" y1="1" y2="14" gradientTransform="matrix(0,-1,1,0,-1,13)" gradientUnits="userSpaceOnUse" xlink:href="#linearGradient3804"/><linearGradient id="linearGradient3892" x1="12" x2="12" y1="15" y2="9" gradientTransform="translate(0.5,0.5)" gradientUnits="userSpaceOnUse" xlink:href="#linearGradient3886"/><linearGradient id="linearGradient3902" x1="12" x2="12" y1="16" y2="8" gradientTransform="translate(0.5,0.5)" gradientUnits="userSpaceOnUse" xlink:href="#linearGradient3904"/><linearGradient id="linearGradient3819" x1="8" x2="8" y1="12" y2="4" gradientUnits="userSpaceOnUse" xlink:href="#linearGradient3813"/></defs><metadata id="metadata5405"/><g id="layer1"><g id="g3812" transform="matrix(0,1,-1,0,15,2)"><path id="path3029" d="M 1,1.000004 11,1 c 0,4 0,8.000001 0,12 L 1,13 z" style="opacity:.41000001;color:#bebebe;fill:none;stroke:#000;stroke-width:2;stroke-linejoin:round;stroke-miterlimit:4;stroke-opacity:1;stroke-dasharray:none;marker:none;visibility:visible;display:inline;overflow:visible;enable-background:accumulate"/><path style="color:#bebebe;fill:url(#linearGradient3829);fill-opacity:1;fill-rule:nonzero;stroke:none;stroke-width:0;marker:none;visibility:visible;display:inline;overflow:visible;enable-background:accumulate" id="rect3373-6" d="M 1,1.000004 11,1 c 0,4 0,8.000001 0,12 L 1,13 z"/><path style="color:#bebebe;fill:url(#linearGradient3831);fill-opacity:1;fill-rule:nonzero;stroke:none;stroke-width:0;marker:none;visibility:visible;display:inline;overflow:visible;enable-background:accumulate" id="path3799" d="M 1,1 1,13 11,13 11,1 1,1 z m 1,1 8,0 0,10 -8,0 0,-10 z"/></g><rect id="rect3811" width="10" height="8" x="3" y="4" style="opacity:1;fill:url(#linearGradient3819);fill-opacity:1;stroke:none"/><path id="rect3038" d="M 3 4 L 3 12 L 13 12 L 13 4 L 3 4 z M 4 5 L 12 5 L 12 11 L 4 11 L 4 5 z" style="opacity:.2;fill:#000;fill-opacity:1;stroke:none;stroke-width:12;stroke-linecap:square;stroke-linejoin:round;stroke-miterlimit:4;stroke-opacity:1;stroke-dasharray:none"/><g id="g3937"><path style="fill:url(#linearGradient3892);fill-opacity:1;stroke:none" id="rect3881" d="m 11.5,9.5 0,2 -2,0 0,2 2,0 0,2 2,0 0,-2 2,0 0,-2 -2,0 0,-2 -2,0 z"/><path id="path3894" d="m 11.5,9.5 0,2 -2,0 0,2 2,0 0,2 2,0 0,-2 2,0 0,-2 -2,0 0,-2 -2,0 z" style="opacity:.81000000999999999;fill:none;stroke:url(#linearGradient3902);stroke-width:1;stroke-linejoin:miter;stroke-miterlimit:4;stroke-opacity:1;stroke-dasharray:none"/><path style="opacity:.1;fill:#d4f3ff;stroke:none;stroke-width:11;stroke-linecap:square;stroke-linejoin:miter;stroke-miterlimit:4;stroke-opacity:1;stroke-dasharray:none;fill-opacity:1" id="rect3910" d="M 12 10 L 12 11 L 13 11 L 13 10 L 12 10 z M 10 12 L 10 13 L 12 13 L 12 12 L 10 12 z M 13 12 L 13 13 L 15 13 L 15 12 L 13 12 z"/></g></g></svg>