<svg xmlns="http://www.w3.org/2000/svg" xmlns:svg="http://www.w3.org/2000/svg" xmlns:xlink="http://www.w3.org/1999/xlink" id="svg5400" width="16" height="16" version="1.1"><defs id="defs5402"><linearGradient id="linearGradient7546" x1="1872" x2="1888" y1="132" y2="132" gradientTransform="matrix(0,1,-1,0,140,-1872)" gradientUnits="userSpaceOnUse" xlink:href="#linearGradient3813"/><linearGradient id="linearGradient3813"><stop style="stop-color:#3e8292;stop-opacity:1" id="stop3815" offset="0"/><stop style="stop-color:#133f8f;stop-opacity:1" id="stop3817" offset="1"/></linearGradient><linearGradient id="linearGradient7045" x1="71.204" x2="71.204" y1="6.238" y2="44.341" gradientTransform="matrix(0.35135136,0,0,0.35135136,-17.2037,-0.9093)" gradientUnits="userSpaceOnUse" xlink:href="#linearGradient6851"/><linearGradient id="linearGradient6851"><stop style="stop-color:#fff;stop-opacity:1" id="stop6853" offset="0"/><stop style="stop-color:#fff;stop-opacity:0" id="stop6855" offset="1"/></linearGradient><linearGradient id="linearGradient7048" x1="16" x2="16" y1="0" y2="16" gradientUnits="userSpaceOnUse" xlink:href="#linearGradient3810"/><linearGradient id="linearGradient3810"><stop style="stop-color:#4cc7e0;stop-opacity:1" id="stop3812" offset="0"/><stop style="stop-color:#2061be;stop-opacity:1" id="stop3814" offset="1"/></linearGradient><linearGradient id="linearGradient4203" x1="287.72" x2="287.72" y1="116.261" y2="31.773" gradientTransform="matrix(0.18641557,0,0,0.18641557,361.3645,133.82708)" gradientUnits="userSpaceOnUse" xlink:href="#linearGradient3988"/><linearGradient id="linearGradient3988"><stop style="stop-color:#eeeeec;stop-opacity:1" id="stop3990" offset="0"/><stop style="stop-color:#fff;stop-opacity:1" id="stop3992" offset="1"/></linearGradient><linearGradient id="linearGradient3892" x1="12" x2="12" y1="15" y2="9" gradientTransform="translate(0.5,0.5)" gradientUnits="userSpaceOnUse" xlink:href="#linearGradient3886"/><linearGradient id="linearGradient3886"><stop style="stop-color:#5097e1;stop-opacity:1" id="stop3888" offset="0"/><stop style="stop-color:#53d0ff;stop-opacity:1" id="stop3890" offset="1"/></linearGradient><linearGradient id="linearGradient3902" x1="12" x2="12" y1="16" y2="8" gradientTransform="translate(0.5,0.5)" gradientUnits="userSpaceOnUse" xlink:href="#linearGradient3904"/><linearGradient id="linearGradient3904"><stop id="stop3906" offset="0" style="stop-color:#104b88;stop-opacity:1"/><stop id="stop3908" offset="1" style="stop-color:#0e7398;stop-opacity:1"/></linearGradient></defs><metadata id="metadata5405"/><g id="layer1"><path style="color:#000;fill:url(#linearGradient7048);fill-opacity:1;fill-rule:nonzero;stroke:none;stroke-width:.99999994000000003;marker:none;visibility:visible;display:inline;overflow:visible;enable-background:accumulate" id="path2555-7" d="M 8,0.5 C 3.8618,0.5 0.5,3.86176 0.5,8 c 0,4.13824 3.3618,7.5 7.5,7.5 4.1382,0 7.5,-3.36176 7.5,-7.5 C 15.5,3.86176 12.1382,0.5 8,0.5 z"/><path style="opacity:.5;color:#000;fill:none;stroke:url(#linearGradient7045);stroke-width:.99999994;stroke-linecap:round;stroke-linejoin:round;stroke-miterlimit:4;stroke-opacity:1;stroke-dasharray:none;stroke-dashoffset:0;marker:none;visibility:visible;display:inline;overflow:visible;enable-background:accumulate" id="path8655-6" d="M 14.5,7.99977 C 14.5,11.58974 11.5896,14.5 8.0001,14.5 4.4102,14.5 1.5,11.5897 1.5,7.99977 1.5,4.40997 4.4102,1.5 8.0001,1.5 11.5896,1.5 14.5,4.40997 14.5,7.99977 l 0,0 z"/><path id="path7037" d="m 8,15.5 c 4.1382,0 7.5,-3.3618 7.5,-7.5 C 15.5,3.8618 12.1382,0.5 8,0.5 3.8618,0.5 0.5,3.8618 0.5,8 c 0,4.1382 3.3618,7.5 7.5,7.5 z" style="opacity:.91000001;color:#000;fill:none;stroke:url(#linearGradient7546);stroke-width:.99999994;stroke-linecap:round;stroke-linejoin:round;stroke-miterlimit:4;stroke-opacity:1;stroke-dasharray:none;stroke-dashoffset:0;marker:none;visibility:visible;display:inline;overflow:visible;enable-background:accumulate"/><g id="g4217" transform="translate(-416,-139)" style="opacity:.2;fill:#000;fill-opacity:1;display:inline;enable-background:new"><path id="path4219" d="m 418,148 2.25,0.75 0,-1.5 z" style="fill:#000;fill-opacity:1;stroke:none"/><path style="fill:#000;fill-opacity:1;stroke:none" id="path4221" d="m 430,148 -2.25,0.75 0,-1.5 z"/><path style="fill:#000;fill-opacity:1;stroke:none;display:inline;enable-background:new" id="path4223" d="m 424,142 -0.75,2.25 1.5,0 z"/><path id="path4225" d="m 424,154 -0.75,-2.25 1.5,0 z" style="fill:#000;fill-opacity:1;stroke:none;display:inline;enable-background:new"/><path id="path4227" d="m 424,144 c -2.20914,0 -4,1.79086 -4,4 0,2.20914 1.79086,4 4,4 2.20913,0 4,-1.79086 4,-4 0,-2.20914 -1.79086,-4 -4,-4 z m 0,1 c 1.65685,0 3,1.34315 3,3 0,1.65685 -1.34315,3 -3,3 -1.65685,0 -3,-1.34315 -3,-3 0,-1.65685 1.34315,-3 3,-3 z" style="color:#000;fill:#000;fill-opacity:1;fill-rule:nonzero;stroke:none;stroke-width:2;marker:none;visibility:visible;display:inline;overflow:visible;enable-background:accumulate"/><path id="path4229" d="m 424.65238,148.65238 -1.30476,-1.30476 5.52738,-4.22262 -4.22262,5.52738 z" style="fill:#000;fill-opacity:1;fill-rule:evenodd;stroke:none;display:inline"/><path style="fill:#000;fill-opacity:1;fill-rule:evenodd;stroke:none;display:inline" id="path4231" d="m 424.65238,148.65238 -1.30476,-1.30476 -4.22262,5.52738 5.52738,-4.22262 z"/></g><g style="display:inline;enable-background:new" id="g4208" transform="translate(-416,-140)"><path style="fill:#fff;fill-opacity:1;stroke:none" id="path4048" d="m 418,148 2.25,0.75 0,-1.5 z"/><path id="path4050" d="m 430,148 -2.25,0.75 0,-1.5 z" style="fill:#fff;fill-opacity:1;stroke:none"/><path id="path4052" d="m 424,142 -0.75,2.25 1.5,0 z" style="fill:#fff;fill-opacity:1;stroke:none;display:inline;enable-background:new"/><path style="fill:#fff;fill-opacity:1;stroke:none;display:inline;enable-background:new" id="path4054" d="m 424,154 -0.75,-2.25 1.5,0 z"/><path style="color:#000;fill:#fff;fill-opacity:1;fill-rule:nonzero;stroke:none;stroke-width:2;marker:none;visibility:visible;display:inline;overflow:visible;enable-background:accumulate" id="path4056" d="m 424,144 c -2.20914,0 -4,1.79086 -4,4 0,2.20914 1.79086,4 4,4 2.20913,0 4,-1.79086 4,-4 0,-2.20914 -1.79086,-4 -4,-4 z m 0,1 c 1.65685,0 3,1.34315 3,3 0,1.65685 -1.34315,3 -3,3 -1.65685,0 -3,-1.34315 -3,-3 0,-1.65685 1.34315,-3 3,-3 z"/><path style="fill:#ef5a5a;fill-opacity:1;fill-rule:evenodd;stroke:none;display:inline" id="path4060" d="m 424.65238,148.65238 -1.30476,-1.30476 5.52738,-4.22262 -4.22262,5.52738 z"/><path id="path4062" d="m 424.65238,148.65238 -1.30476,-1.30476 -4.22262,5.52738 5.52738,-4.22262 z" style="fill:url(#linearGradient4203);fill-opacity:1;fill-rule:evenodd;stroke:none;display:inline"/></g><g id="g3937"><path id="rect3881" d="m 11.5,9.5 0,2 -2,0 0,2 2,0 0,2 2,0 0,-2 2,0 0,-2 -2,0 0,-2 -2,0 z" style="fill:url(#linearGradient3892);fill-opacity:1;stroke:none"/><path style="opacity:.81000001;fill:none;stroke:url(#linearGradient3902);stroke-width:1;stroke-linejoin:miter;stroke-miterlimit:4;stroke-opacity:1;stroke-dasharray:none" id="path3894" d="m 11.5,9.5 0,2 -2,0 0,2 2,0 0,2 2,0 0,-2 2,0 0,-2 -2,0 0,-2 -2,0 z"/><path id="rect3910" d="m 12,10 0,1 1,0 0,-1 -1,0 z m -2,2 0,1 2,0 0,-1 -2,0 z m 3,0 0,1 2,0 0,-1 -2,0 z" style="opacity:.1;fill:#d4f3ff;fill-opacity:1;stroke:none"/></g></g></svg>