<svg xmlns="http://www.w3.org/2000/svg" xmlns:svg="http://www.w3.org/2000/svg" xmlns:xlink="http://www.w3.org/1999/xlink" id="svg3495" width="16" height="16" version="1.1"><defs id="defs3497"><linearGradient id="linearGradient3760"><stop style="stop-color:#e44343;stop-opacity:1" id="stop3762" offset="0"/><stop style="stop-color:#ac0808;stop-opacity:1" id="stop3764" offset="1"/></linearGradient><linearGradient id="linearGradient3788" x1=".5" x2="15.5" y1="8" y2="8" gradientTransform="matrix(0,1,-1,0,16,0)" gradientUnits="userSpaceOnUse" xlink:href="#linearGradient3760"/></defs><metadata id="metadata3500"/><g id="layer1" transform="translate(0,-32)"><path style="fill:url(#linearGradient3788);fill-opacity:1;stroke:none" id="rect2987" d="M 5.375 1.5 L 1.5 5.375 L 1.5 10.625 L 5.375 14.5 L 10.625 14.5 L 14.5 10.625 L 14.5 5.375 L 10.625 1.5 L 5.375 1.5 z" transform="translate(0,32)"/><g id="g3839" transform="matrix(0.5,0,0,0.5,-156,-87)" style="opacity:.3;fill:#000;fill-opacity:1;display:inline;enable-background:new"><path style="font-size:40px;font-style:normal;font-variant:normal;font-weight:300;font-stretch:normal;line-height:125%;letter-spacing:0;word-spacing:0;fill:#000;fill-opacity:1;stroke:none;font-family:Ubuntu;-inkscape-font-specification:Ubuntu Light" id="path3841" d="m 423,144 c 0,3.34879 0.003,4.31525 0,5 l 2,0 c -0.005,-2 -0.009,-3.00002 0,-5 z m 0,6 0,2 2,0 0,-2 z" transform="matrix(2,0,0,2,-520,-40)"/></g><g style="fill:#fff;fill-opacity:1;display:inline;enable-background:new" id="g3982" transform="matrix(0.5,0,0,0.5,-156,-88)"><path id="path3984" d="m 423,144 c 0,3.34879 0.003,4.31525 0,5 l 2,0 c -0.005,-2 -0.009,-3.00002 0,-5 z m 0,6 0,2 2,0 0,-2 z" transform="matrix(2,0,0,2,-520,-40)" style="font-size:40px;font-style:normal;font-variant:normal;font-weight:300;font-stretch:normal;line-height:125%;letter-spacing:0;word-spacing:0;fill:#fff;fill-opacity:1;stroke:none;font-family:Ubuntu;-inkscape-font-specification:Ubuntu Light"/></g><path id="path3791" d="M 5.375 1.5 L 1.5 5.375 L 1.5 10.625 L 5.375 14.5 L 10.625 14.5 L 14.5 10.625 L 14.5 5.375 L 10.625 1.5 L 5.375 1.5 z" transform="translate(0,32)" style="fill:none;fill-opacity:1;stroke:#790000;stroke-opacity:1;opacity:.81"/><path style="fill:#fff;fill-opacity:1;stroke:none;opacity:.4" id="path3793" d="M 5.5625 2 L 2 5.5625 L 2 6.5625 L 5.5625 3 L 10.4375 3 L 14 6.5625 L 14 5.5625 L 10.4375 2 L 5.5625 2 z" transform="translate(0,32)"/></g></svg>