<svg xmlns="http://www.w3.org/2000/svg" xmlns:svg="http://www.w3.org/2000/svg" xmlns:xlink="http://www.w3.org/1999/xlink" id="svg5400" width="16" height="16" version="1.1"><defs id="defs5402"><linearGradient id="linearGradient3821"><stop style="stop-color:#555;stop-opacity:1" id="stop3823" offset="0"/><stop style="stop-color:#666;stop-opacity:1" id="stop3825" offset="1"/></linearGradient><linearGradient id="linearGradient3836" x1="8" x2="8" y1="16" y2="0" gradientUnits="userSpaceOnUse" xlink:href="#linearGradient3821"/></defs><metadata id="metadata5405"/><g id="layer1"><path style="font-size:medium;font-style:normal;font-variant:normal;font-weight:400;font-stretch:normal;text-indent:0;text-align:start;text-decoration:none;line-height:normal;letter-spacing:normal;word-spacing:normal;text-transform:none;direction:ltr;block-progression:tb;writing-mode:lr-tb;text-anchor:start;baseline-shift:baseline;color:#000;fill:url(#linearGradient3836);fill-opacity:1;stroke:none;stroke-width:1;marker:none;visibility:visible;display:inline;overflow:visible;enable-background:accumulate;font-family:Sans;-inkscape-font-specification:Sans" id="path3052" d="M 9.5 3.125 L 8.75 3.5625 L 3.5 6.5625 L 3.5 4 L 3.5 3.5 L 3 3.5 L 1 3.5 L 0.5 3.5 L 0.5 4 L 0.5 12 L 0.5 12.5 L 1 12.5 L 3 12.5 L 3.5 12.5 L 3.5 12 L 3.5 9.4375 L 8.75 12.4375 L 9.5 12.875 L 9.5 12 L 9.5 9.4375 L 14.75 12.4375 L 15.5 12.875 L 15.5 12 L 15.5 4 L 15.5 3.125 L 14.75 3.5625 L 9.5 6.5625 L 9.5 4 L 9.5 3.125 z"/><path style="fill:#fff;fill-opacity:1;stroke:none;opacity:.2" id="path5160" d="M 1 4 L 1 5 L 3 5 L 3 4 L 1 4 z M 9 4 L 3 7.4375 L 3 8.4375 L 9 5 L 9 4 z M 15 4 L 9 7.4375 L 9 8.4375 L 15 5 L 15 4 z"/><path id="path3838" d="M 9.5 3.125 L 8.75 3.5625 L 3.5 6.5625 L 3.5 4 L 3.5 3.5 L 3 3.5 L 1 3.5 L 0.5 3.5 L 0.5 4 L 0.5 12 L 0.5 12.5 L 1 12.5 L 3 12.5 L 3.5 12.5 L 3.5 12 L 3.5 9.4375 L 8.75 12.4375 L 9.5 12.875 L 9.5 12 L 9.5 9.4375 L 14.75 12.4375 L 15.5 12.875 L 15.5 12 L 15.5 4 L 15.5 3.125 L 14.75 3.5625 L 9.5 6.5625 L 9.5 4 L 9.5 3.125 z" style="font-size:medium;font-style:normal;font-variant:normal;font-weight:400;font-stretch:normal;text-indent:0;text-align:start;text-decoration:none;line-height:normal;letter-spacing:normal;word-spacing:normal;text-transform:none;direction:ltr;block-progression:tb;writing-mode:lr-tb;text-anchor:start;baseline-shift:baseline;color:#000;fill:none;fill-opacity:1;stroke:#000;stroke-width:1;marker:none;visibility:visible;display:inline;overflow:visible;enable-background:accumulate;font-family:Sans;-inkscape-font-specification:Sans;stroke-opacity:1;opacity:.61"/></g></svg>