<svg xmlns="http://www.w3.org/2000/svg" xmlns:svg="http://www.w3.org/2000/svg" xmlns:xlink="http://www.w3.org/1999/xlink" id="svg5400" width="16" height="16" version="1.1"><defs id="defs5402"><linearGradient id="linearGradient3821"><stop style="stop-color:#555;stop-opacity:1" id="stop3823" offset="0"/><stop style="stop-color:#666;stop-opacity:1" id="stop3825" offset="1"/></linearGradient><linearGradient id="linearGradient4448" x1="8" x2="8" y1="16" y2="0" gradientUnits="userSpaceOnUse" xlink:href="#linearGradient3821"/></defs><metadata id="metadata5405"/><g id="layer1"><path style="font-size:medium;font-style:normal;font-variant:normal;font-weight:400;font-stretch:normal;text-indent:0;text-align:start;text-decoration:none;line-height:normal;letter-spacing:normal;word-spacing:normal;text-transform:none;direction:ltr;block-progression:tb;writing-mode:lr-tb;text-anchor:start;baseline-shift:baseline;color:#000;fill:url(#linearGradient4448);fill-opacity:1;stroke:none;stroke-width:1;marker:none;visibility:visible;display:inline;overflow:visible;enable-background:accumulate;font-family:Sans;-inkscape-font-specification:Sans" id="path4436" d="m 1.5,1.5 0,0.5 0,12 0,0.5 0.5,0 12,0 0.5,0 0,-0.5 0,-12 0,-0.5 -0.5,0 -12,0 z"/><path style="fill:#fff;fill-opacity:1;stroke:none;opacity:.2" id="path3807-1-1-5-8" d="M 2 2 L 2 3 L 14 3 L 14 2 L 2 2 z"/><path id="path4450" d="m 1.5,1.5 0,0.5 0,12 0,0.5 0.5,0 12,0 0.5,0 0,-0.5 0,-12 0,-0.5 -0.5,0 -12,0 z" style="font-size:medium;font-style:normal;font-variant:normal;font-weight:400;font-stretch:normal;text-indent:0;text-align:start;text-decoration:none;line-height:normal;letter-spacing:normal;word-spacing:normal;text-transform:none;direction:ltr;block-progression:tb;writing-mode:lr-tb;text-anchor:start;baseline-shift:baseline;color:#000;fill:none;fill-opacity:1;stroke:#000;stroke-width:1;marker:none;visibility:visible;display:inline;overflow:visible;enable-background:accumulate;font-family:Sans;-inkscape-font-specification:Sans;stroke-opacity:1;opacity:.61"/></g></svg>