<svg xmlns="http://www.w3.org/2000/svg" xmlns:svg="http://www.w3.org/2000/svg" xmlns:xlink="http://www.w3.org/1999/xlink" id="svg3495" width="16" height="16" version="1.1"><defs id="defs3497"><clipPath id="clipPath4307" clipPathUnits="userSpaceOnUse"><path id="path4309" d="m 168,265 c -3.86599,0 -7,3.13401 -7,7 0,3.86599 3.13401,7 7,7 3.866,0 7,-3.13401 7,-7 0,-3.86599 -3.134,-7 -7,-7 z m 3.3125,3.0625 1.5625,1.40625 -5.25,6.9375 -4.0625,-3.5 1.34375,-1.78125 2.375,2.0625 4.03125,-5.125 z" style="color:#000;fill:#36e12b;fill-opacity:1;fill-rule:nonzero;stroke:none;stroke-width:.84323651;marker:none;visibility:visible;display:inline;overflow:visible;enable-background:accumulate"/></clipPath><linearGradient id="linearGradient3852" x1="168" x2="168" y1="280" y2="264" gradientTransform="matrix(0.92857143,0,0,-0.92857143,-148,292.57143)" gradientUnits="userSpaceOnUse" xlink:href="#linearGradient3760"/><linearGradient id="linearGradient3760"><stop style="stop-color:#e44343;stop-opacity:1" id="stop3762" offset="0"/><stop style="stop-color:#ac0808;stop-opacity:1" id="stop3764" offset="1"/></linearGradient></defs><metadata id="metadata3500"/><g id="layer1" transform="translate(0,-32)"><path style="color:#000;fill:url(#linearGradient3852);fill-opacity:1;fill-rule:nonzero;stroke:none;stroke-width:.84323651;marker:none;visibility:visible;display:inline;overflow:visible;enable-background:accumulate" id="path2922-6-6-0" d="m 8,46.5 c -3.5898479,0 -6.5,-2.910152 -6.5,-6.5 0,-3.589848 2.9101521,-6.5 6.5,-6.5 3.589857,0 6.5,2.910152 6.5,6.5 0,3.589848 -2.910143,6.5 -6.5,6.5 z"/><path id="path4303" d="m 168,265 c -3.86599,0 -7,3.13401 -7,7 0,3.86599 3.13401,7 7,7 3.866,0 7,-3.13401 7,-7 0,-3.86599 -3.134,-7 -7,-7 z" clip-path="url(#clipPath4307)" transform="matrix(0,-1,-1,0,280,208)" style="opacity:.81000000000000005;color:#000;fill:none;stroke:#790000;stroke-width:2;stroke-miterlimit:4;stroke-opacity:1;stroke-dasharray:none;marker:none;visibility:visible;display:inline;overflow:visible;enable-background:accumulate"/><path id="path3837" d="M 8,47 C 4.67445,47 2,44.32556 2,41 2,40.875084 2.0238103,40.747971 2.03125,40.625 2.3372524,43.659 4.8822969,46 8,46 11.117703,46 13.662748,43.659 13.96875,40.625 13.97619,40.747971 14,40.875084 14,41 c 0,3.32556 -2.67445,6 -6,6 z" style="opacity:.2;color:#000;fill:#000;fill-opacity:1;fill-rule:nonzero;stroke:none;stroke-width:.84323650999999999;marker:none;visibility:visible;display:inline;overflow:visible;enable-background:accumulate"/><path style="color:#000;fill:#fff;fill-opacity:1;fill-rule:nonzero;stroke:none;stroke-width:.84323650999999999;marker:none;visibility:visible;display:inline;overflow:visible;enable-background:accumulate;opacity:.4" id="path3822" d="M 8 2 C 4.67445 2 2 4.67444 2 8 C 2 8.1249155 2.0238103 8.2520291 2.03125 8.375 C 2.3372524 5.3410002 4.8822969 3 8 3 C 11.117703 3 13.662748 5.3410002 13.96875 8.375 C 13.97619 8.2520291 14 8.1249155 14 8 C 14 4.67444 11.32555 2 8 2 z" transform="translate(0,32)"/></g></svg>