<svg xmlns="http://www.w3.org/2000/svg" xmlns:svg="http://www.w3.org/2000/svg" xmlns:xlink="http://www.w3.org/1999/xlink" id="svg5400" width="16" height="16" version="1.1"><defs id="defs5402"><linearGradient id="linearGradient4025" x1="8" x2="8" y1="16" y2="0" gradientUnits="userSpaceOnUse" xlink:href="#linearGradient3934"/><linearGradient id="linearGradient3934"><stop style="stop-color:#dd2f03;stop-opacity:1" id="stop3936" offset="0"/><stop style="stop-color:#e96300;stop-opacity:1" id="stop3938" offset="1"/></linearGradient></defs><metadata id="metadata5405"/><g id="layer1"><path style="font-size:medium;font-style:normal;font-variant:normal;font-weight:400;font-stretch:normal;text-indent:0;text-align:start;text-decoration:none;line-height:normal;letter-spacing:normal;word-spacing:normal;text-transform:none;direction:ltr;block-progression:tb;writing-mode:lr-tb;text-anchor:start;baseline-shift:baseline;color:#000;fill:url(#linearGradient4025);fill-opacity:1;stroke:none;stroke-width:1;marker:none;visibility:visible;display:inline;overflow:visible;enable-background:accumulate;font-family:Sans;-inkscape-font-specification:Sans" id="path4436" d="m 1.5,3.5 0,9 c 0,2 2,2 2,2 l 9,0 c 2,0 2,-2 2,-2 l 0,-9 c 0,-2 -2,-2 -2,-2 l -9,0 c -2,0 -2,2 -2,2 z"/><path id="path3832" d="m 12.5,14.5 -9,0 c -2,0 -2,-2 -2,-2 l 0,-9 c 0,-2 2,-2 2,-2 l 9,0 c 2,0 2,2 2,2 l 0,9 c 0,2 -2,2 -2,2 z" style="font-size:medium;font-style:normal;font-variant:normal;font-weight:400;font-stretch:normal;text-indent:0;text-align:start;text-decoration:none;line-height:normal;letter-spacing:normal;word-spacing:normal;text-transform:none;direction:ltr;block-progression:tb;writing-mode:lr-tb;text-anchor:start;baseline-shift:baseline;opacity:.61;color:#000;fill:none;stroke:#640000;stroke-width:1;stroke-opacity:1;marker:none;visibility:visible;display:inline;overflow:visible;enable-background:accumulate;font-family:Sans;-inkscape-font-specification:Sans"/><path style="font-size:medium;font-style:normal;font-variant:normal;font-weight:400;font-stretch:normal;text-indent:0;text-align:start;text-decoration:none;line-height:normal;letter-spacing:normal;word-spacing:normal;text-transform:none;direction:ltr;block-progression:tb;writing-mode:lr-tb;text-anchor:start;baseline-shift:baseline;color:#000;fill:#fff;fill-opacity:1;stroke:none;stroke-width:1;marker:none;visibility:visible;display:inline;overflow:visible;enable-background:accumulate;font-family:Sans;-inkscape-font-specification:Sans;opacity:.2" id="path4035" d="M 3.5 2 C 3.5 2 3.099493 1.9971285 2.71875 2.1875 C 2.338007 2.3778715 2 2.6666667 2 3.5 L 2 4.5 C 2 3.6666667 2.338007 3.3778715 2.71875 3.1875 C 3.099493 2.99713 3.5 3 3.5 3 L 12.5 3 C 13.333333 3 13.622128 3.338007 13.8125 3.71875 C 14.0029 4.099493 14 4.5 14 4.5 L 14 3.5 C 14 3.5 14.002872 3.099493 13.8125 2.71875 C 13.622128 2.338007 13.333333 2 12.5 2 L 3.5 2 z"/><path id="path4051" d="m 3.4999987,14.999997 c 0,0 -0.400507,0.0029 -0.78125,-0.1875 -0.380743,-0.190372 -0.71875,-0.479167 -0.71875,-1.3125 l 0,-1 c 0,0.833333 0.338007,1.122128 0.71875,1.3125 0.380743,0.19037 0.78125,0.1875 0.78125,0.1875 l 9.0000003,0 c 0.833333,0 1.122128,-0.338007 1.3125,-0.71875 0.1904,-0.380743 0.1875,-0.78125 0.1875,-0.78125 l 0,1 c 0,0 0.0029,0.400507 -0.1875,0.78125 -0.190372,0.380743 -0.479167,0.71875 -1.3125,0.71875 l -9.0000003,0 z" style="font-size:medium;font-style:normal;font-variant:normal;font-weight:400;font-stretch:normal;text-indent:0;text-align:start;text-decoration:none;line-height:normal;letter-spacing:normal;word-spacing:normal;text-transform:none;direction:ltr;block-progression:tb;writing-mode:lr-tb;text-anchor:start;baseline-shift:baseline;opacity:.20000000000000001;color:#000;fill:#000;fill-opacity:1;stroke:none;stroke-width:1;marker:none;visibility:visible;display:inline;overflow:visible;enable-background:accumulate;font-family:Sans;-inkscape-font-specification:Sans"/></g><g id="layer2"><path id="path4238" d="M 9,5.00028 9,9 11,9 8,13 5,9 7,9 7,5.00028 z" style="opacity:.3;color:#000;fill:#000;fill-opacity:1;fill-rule:nonzero;stroke:none;stroke-width:1;marker:none;visibility:visible;display:inline;overflow:visible;enable-background:accumulate"/><path style="color:#000;fill:#fff;fill-opacity:1;fill-rule:nonzero;stroke:none;stroke-width:1;marker:none;visibility:visible;display:inline;overflow:visible;enable-background:accumulate" id="rect3005" d="m 9,4.00014 0,3.99972 2,0 -3,4 -3,-4 2,0 0,-3.99972 z"/></g></svg>