<svg xmlns="http://www.w3.org/2000/svg" xmlns:svg="http://www.w3.org/2000/svg" xmlns:xlink="http://www.w3.org/1999/xlink" id="svg5400" width="16" height="16" version="1.1"><defs id="defs5402"><linearGradient id="linearGradient3821"><stop style="stop-color:#f7f7f7;stop-opacity:1" id="stop3823" offset="0"/><stop style="stop-color:#ddd;stop-opacity:1" id="stop3825" offset="1"/></linearGradient><linearGradient id="linearGradient5101" x1="8" x2="8" y1="16" y2="0" gradientTransform="matrix(1,0,0,-1,0,16)" gradientUnits="userSpaceOnUse" xlink:href="#linearGradient3821"/></defs><metadata id="metadata5405"/><g id="layer1"><path style="font-size:medium;font-style:normal;font-variant:normal;font-weight:400;font-stretch:normal;text-indent:0;text-align:start;text-decoration:none;line-height:normal;letter-spacing:normal;word-spacing:normal;text-transform:none;direction:ltr;block-progression:tb;writing-mode:lr-tb;text-anchor:start;baseline-shift:baseline;color:#000;fill:url(#linearGradient5101);fill-opacity:1;stroke:none;stroke-width:1;marker:none;visibility:visible;display:inline;overflow:visible;enable-background:accumulate;font-family:Sans;-inkscape-font-specification:Sans" id="path4436" d="M 3.5 1.5 C 3.5 1.5 1.5 1.5 1.5 3.5 L 1.5 12.5 C 1.5 12.5 1.5 14.5 3.5 14.5 L 12.5 14.5 C 12.5 14.5 14.5 14.5 14.5 12.5 L 14.5 3.5 C 14.5 3.5 14.5 1.5 12.5 1.5 L 3.5 1.5 z M 4.5 4.5 L 6.5 4.5 L 6.5 5.5 L 6 5.5 L 5.5 5.5 L 5.5 6 L 5.5 6.5 L 4.5 6.5 L 4.5 4.5 z M 9.5 4.5 L 11.5 4.5 L 11.5 6.5 L 10.5 6.5 L 10.5 6 L 10.5 5.5 L 10 5.5 L 9.5 5.5 L 9.5 4.5 z M 4.5 9.5 L 5.5 9.5 L 5.5 10 L 5.5 10.5 L 6 10.5 L 6.5 10.5 L 6.5 11.5 L 4.5 11.5 L 4.5 9.5 z M 10.5 9.5 L 11.5 9.5 L 11.5 11.5 L 9.5 11.5 L 9.5 10.5 L 10 10.5 L 10.5 10.5 L 10.5 10 L 10.5 9.5 z"/><path style="font-size:medium;font-style:normal;font-variant:normal;font-weight:400;font-stretch:normal;text-indent:0;text-align:start;text-decoration:none;line-height:normal;letter-spacing:normal;word-spacing:normal;text-transform:none;direction:ltr;block-progression:tb;writing-mode:lr-tb;text-anchor:start;baseline-shift:baseline;color:#000;fill:none;fill-opacity:1;stroke:#000;stroke-width:1;marker:none;visibility:visible;display:inline;overflow:visible;enable-background:accumulate;font-family:Sans;-inkscape-font-specification:Sans;stroke-opacity:1;opacity:.40999999999999998" id="path3832" d="M 3.5 1.5 C 3.5 1.5 1.5 1.5 1.5 3.5 L 1.5 12.5 C 1.5 12.5 1.5 14.5 3.5 14.5 L 12.5 14.5 C 12.5 14.5 14.5 14.5 14.5 12.5 L 14.5 3.5 C 14.5 3.5 14.5 1.5 12.5 1.5 L 3.5 1.5 z M 4.5 4.5 L 6.5 4.5 L 6.5 5.5 L 6 5.5 L 5.5 5.5 L 5.5 6 L 5.5 6.5 L 4.5 6.5 L 4.5 4.5 z M 9.5 4.5 L 11.5 4.5 L 11.5 6.5 L 10.5 6.5 L 10.5 6 L 10.5 5.5 L 10 5.5 L 9.5 5.5 L 9.5 4.5 z M 4.5 9.5 L 5.5 9.5 L 5.5 10 L 5.5 10.5 L 6 10.5 L 6.5 10.5 L 6.5 11.5 L 4.5 11.5 L 4.5 9.5 z M 10.5 9.5 L 11.5 9.5 L 11.5 11.5 L 9.5 11.5 L 9.5 10.5 L 10 10.5 L 10.5 10.5 L 10.5 10 L 10.5 9.5 z"/></g></svg>