<svg xmlns="http://www.w3.org/2000/svg" xmlns:svg="http://www.w3.org/2000/svg" xmlns:xlink="http://www.w3.org/1999/xlink" id="svg5400" width="16" height="16" version="1.1"><defs id="defs5402"><linearGradient id="linearGradient3821"><stop style="stop-color:#f7f7f7;stop-opacity:1" id="stop3823" offset="0"/><stop style="stop-color:#ddd;stop-opacity:1" id="stop3825" offset="1"/></linearGradient><linearGradient id="linearGradient4027" x1="8" x2="8" y1="16" y2="0" gradientTransform="matrix(1,0,0,-1,0,16)" gradientUnits="userSpaceOnUse" xlink:href="#linearGradient3821"/></defs><metadata id="metadata5405"/><g id="layer1"><path style="font-size:medium;font-style:normal;font-variant:normal;font-weight:400;font-stretch:normal;text-indent:0;text-align:start;text-decoration:none;line-height:normal;letter-spacing:normal;word-spacing:normal;text-transform:none;direction:ltr;block-progression:tb;writing-mode:lr-tb;text-anchor:start;baseline-shift:baseline;color:#000;fill:url(#linearGradient4027);fill-opacity:1;stroke:none;stroke-width:1;marker:none;visibility:visible;display:inline;overflow:visible;enable-background:accumulate;font-family:Sans;-inkscape-font-specification:Sans" id="path4436" d="m 3.5,1.5 c 0,0 -2,0 -2,2 l 0,9 c 0,0 0,2 2,2 l 9,0 c 0,0 2,0 2,-2 l 0,-9 c 0,0 0,-2 -2,-2 z m 1,5 7,0 0,3 -7,0 z"/><path style="font-size:medium;font-style:normal;font-variant:normal;font-weight:400;font-stretch:normal;text-indent:0;text-align:start;text-decoration:none;line-height:normal;letter-spacing:normal;word-spacing:normal;text-transform:none;direction:ltr;block-progression:tb;writing-mode:lr-tb;text-anchor:start;baseline-shift:baseline;opacity:.41000001;color:#000;fill:none;stroke:#000;stroke-width:1;stroke-opacity:1;marker:none;visibility:visible;display:inline;overflow:visible;enable-background:accumulate;font-family:Sans;-inkscape-font-specification:Sans" id="path3832" d="m 3.5,1.5 c 0,0 -2,0 -2,2 l 0,9 c 0,0 0,2 2,2 l 9,0 c 0,0 2,0 2,-2 l 0,-9 c 0,0 0,-2 -2,-2 z m 1,5 7,0 0,3 -7,0 z"/></g></svg>