<svg xmlns="http://www.w3.org/2000/svg" xmlns:svg="http://www.w3.org/2000/svg" id="svg2" width="48" height="48" version="1.1"><metadata id="metadata7"/><path id="rect2388-2-2-5" d="m 20,9 0,2 8,0 0,-2 z m -4.3125,4 C 15.125,13.0938 14,13.5 14,15 l 0,20 c 0,2 2,2 2,2 l 14,0 0,-2 0,-18 4,0 0,-2 c 0,0 0,-2 -2,-2 l -16,0 c 0,0 -0.125,-0.0312 -0.3125,0 z" style="fill:#e13f2b;opacity:.35"/><path id="path7562" d="m 32.00002,19 0,10 0.5,4 3,0 0.5,-4 0,-10 z m 0,16 0,4 4,0 0,-4 z" style="fill:#e13f2b"/></svg>