<svg xmlns="http://www.w3.org/2000/svg" xmlns:svg="http://www.w3.org/2000/svg" id="svg2" width="48" height="48" version="1.1"><metadata id="metadata7"/><path style="fill:#e13f2b;fill-opacity:1;opacity:.35" id="rect2388-2-2-5" d="m 20,10 0,2 8,0 0,-2 z m -4.3125,4 C 15.125,14.0938 14,14.5 14,16 l 0,20 c 0,2 2,2 2,2 l 16,0 c 2,0 2,-2 2,-2 l 0,-20 c 0,0 0,-2 -2,-2 l -16,0 c 0,0 -0.125,-0.0312 -0.3125,0 z"/><path style="fill:#e13f2b" id="path3931" d="m 14,30 0,6 c 0,2 2,2 2,2 l 16,0 c 0,0 2,0 2,-2 l 0,-6 z"/></svg>