<svg xmlns="http://www.w3.org/2000/svg" xmlns:osb="http://www.openswatchbook.org/uri/2009/osb" xmlns:svg="http://www.w3.org/2000/svg" style="enable-background:new" id="svg7384" width="16" height="16" version="1.1"><metadata id="metadata90"/><title id="title8473">Moka Symbolic Icon Theme</title><defs id="defs7386"><linearGradient id="linearGradient5606" osb:paint="solid"><stop style="stop-color:#000;stop-opacity:1" id="stop5608" offset="0"/></linearGradient><filter style="color-interpolation-filters:sRGB" id="filter7554"><feBlend id="feBlend7556" in2="BackgroundImage" mode="darken"/></filter></defs><g style="display:inline;filter:url(#filter7554)" id="layer10" transform="translate(-281.00023,156.00333)"><path style="color:#bebebe;display:inline;overflow:visible;visibility:visible;fill:#bebebe;fill-opacity:1;fill-rule:nonzero;stroke:none;stroke-width:2;marker:none" id="rect16707-6" d="m 289.0002,-155.00336 c -1.662,0 -3,1.338 -3,3 l 0,5 c 0,1.662 1.338,3 3,3 1.662,0 3,-1.338 3,-3 l 0,-5 c 0,-1.662 -1.338,-3 -3,-3 z m -4.5,4.5 c -0.27614,0 -0.5,0.22386 -0.5,0.5 l 0,2.90625 a 0.50030048,0.49979969 0 0 0 0,0.0937 c 0,2.40877 1.72585,4.4097 4,4.875 l 0,2.125 2,0 0,-2.125 c 2.27415,-0.4653 4,-2.46623 4,-4.875 a 0.50030048,0.49979969 0 0 0 0,-0.0312 l 0,-0.0625 a 0.50030048,0.49979969 0 0 0 0,-0.0937 l 0,-2.8126 c 0,-0.27614 -0.22386,-0.5 -0.5,-0.5 -0.27614,0 -0.5,0.22386 -0.5,0.5 l 0,2.8125 a 0.50030048,0.49979969 0 0 0 0,0.0937 l 0,0.0938 c 0,2.21271 -1.78508,4 -4,4 -2.21492,0 -4,-1.78729 -4,-4 a 0.50030048,0.49979969 0 0 0 0,-0.0312 l 0,-2.9688 c 0,-0.27614 -0.22386,-0.5 -0.5,-0.5 z"/></g></svg>