<svg xmlns="http://www.w3.org/2000/svg" xmlns:osb="http://www.openswatchbook.org/uri/2009/osb" xmlns:svg="http://www.w3.org/2000/svg" id="svg7384" width="16" height="16" version="1.1" style="enable-background:new"><metadata id="metadata90"/><title id="title8473">Moka Symbolic Icon Theme</title><defs id="defs7386"><linearGradient id="linearGradient5606" osb:paint="solid"><stop id="stop5608" offset="0" style="stop-color:#000;stop-opacity:1"/></linearGradient><filter id="filter7554" style="color-interpolation-filters:sRGB"><feBlend id="feBlend7556" in2="BackgroundImage" mode="darken"/></filter></defs><g id="layer10" transform="translate(-481.00023,135.9876)" style="display:inline;filter:url(#filter7554)"><path id="path5882-0" d="m 492.75023,-135.97211 c -0.16573,0.0331 -0.32322,0.13572 -0.5,0.3125 l -3.25,3.25 0,1.40625 1.40625,0 3.25,-3.25 c 0.7071,-0.70711 0,-1.40625 0,-1.40625 0,0 -0.40906,-0.41194 -0.90625,-0.3125 z m -2.75,6.96875 -1,1 1,1 5,0.0158 c 1,0.003 1,-1 1,-1 0,0 0,-0.99685 -1,-1 z m -1,4 0,1.40625 3.25,3.25 c 0.70711,0.70711 1.40625,0 1.40625,0 0,0 0.7071,-0.69914 0,-1.40625 l -3.25,-3.25 z" style="display:inline;fill:#bebebe;fill-opacity:1;stroke:none;enable-background:new"/><path id="path5491-6" d="m 482.00023,-130.9876 2.48437,0 2.96876,-3 0.54687,0.0156 0,12 -0.4753,8.3e-4 -3.04033,-3.01643 -2.48437,0 z" style="color:#bebebe;display:inline;overflow:visible;visibility:visible;fill:#bebebe;fill-opacity:1;fill-rule:nonzero;stroke:none;stroke-width:1;marker:none"/></g></svg>