<svg xmlns="http://www.w3.org/2000/svg" xmlns:osb="http://www.openswatchbook.org/uri/2009/osb" xmlns:svg="http://www.w3.org/2000/svg" style="enable-background:new" id="svg7384" width="16" height="16" version="1.1"><metadata id="metadata90"/><title id="title8473">Moka Symbolic Icon Theme</title><defs id="defs7386"><linearGradient id="linearGradient5606" osb:paint="solid"><stop style="stop-color:#000;stop-opacity:1" id="stop5608" offset="0"/></linearGradient><filter style="color-interpolation-filters:sRGB" id="filter7554"><feBlend id="feBlend7556" in2="BackgroundImage" mode="darken"/></filter></defs><path id="path5983" d="M 2,3 C 1,3 1,4 1,4 l 0,9 c 0,0 0,1 1,1 l 11,0 1,0 0,-1 2,0 L 16,4 14,4 14,3 13,3 2,3 Z M 2,4 13,4 13,13 2,13 2,4 Z M 6,5 6,7 6,9.09375 C 5.84568,9.04015 5.67259,9.00005 5.5,9.00005 c -0.82843,0 -1.5,0.67157 -1.5,1.5 0,0.82843 0.67157,1.5 1.5,1.5 0.82843,0 1.5,-0.67157 1.5,-1.5 l 0,-3.5 3,0 0,2.09375 C 9.84568,9.0402 9.67259,9.0001 9.5,9.0001 c -0.82843,0 -1.5,0.67157 -1.5,1.5 0,0.82843 0.67157,1.5 1.5,1.5 0.82843,0 1.5,-0.67157 1.5,-1.5 l 0,-5.5 -1,0 -3,0 -1,0 z m 8,0 1,0 0,1 -1,0 0,-1 z m 0,2 1,0 0,1 -1,0 0,-1 z m 0,2 1,0 0,1 -1,0 0,-1 z m 0,2 1,0 0,1 -1,0 0,-1 z" style="fill:#bebebe;fill-opacity:1;stroke:none"/></svg>