<svg xmlns="http://www.w3.org/2000/svg" xmlns:osb="http://www.openswatchbook.org/uri/2009/osb" xmlns:svg="http://www.w3.org/2000/svg" style="enable-background:new" id="svg7384" width="16" height="16" version="1.1"><metadata id="metadata90"/><title id="title8473">Moka Symbolic Icon Theme</title><defs id="defs7386"><linearGradient id="linearGradient5606" osb:paint="solid"><stop style="stop-color:#000;stop-opacity:1" id="stop5608" offset="0"/></linearGradient><filter style="color-interpolation-filters:sRGB" id="filter7554"><feBlend id="feBlend7556" in2="BackgroundImage" mode="darken"/></filter></defs><g style="display:inline;filter:url(#filter7554)" id="layer10" transform="translate(-301.00023,156.00333)"><path style="fill:#bebebe;fill-opacity:1;stroke:none" id="rect3048" d="m 309.0002,-155.00336 c -3.31371,0 -6,2.68629 -6,6 0,2.087 1.07077,3.92508 2.6875,5 l -0.6875,0 c -2,0 -2,2 -2,2 l 0,1 12,0 0,-1 c 0,0 0,-2 -2,-2 l -0.6875,0 c 1.61673,-1.07492 2.6875,-2.913 2.6875,-5 0,-3.31371 -2.68629,-6 -6,-6 z m 0,3 c 1.65685,0 3,1.34315 3,3 0,1.65685 -1.34315,3 -3,3 -1.65685,0 -3,-1.34315 -3,-3 0,-1.65685 1.34315,-3 3,-3 z m 0,1 c -1.10457,0 -2,0.89543 -2,2 0,1.10457 0.89543,2 2,2 1.10457,0 2,-0.89543 2,-2 0,-1.10457 -0.89543,-2 -2,-2 z"/></g></svg>