<svg xmlns="http://www.w3.org/2000/svg" xmlns:osb="http://www.openswatchbook.org/uri/2009/osb" xmlns:svg="http://www.w3.org/2000/svg" style="enable-background:new" id="svg7384" width="16.032" height="16" version="1.1"><metadata id="metadata90"/><title id="title8473">Moka Symbolic Icon Theme</title><defs id="defs7386"><linearGradient id="linearGradient5606" osb:paint="solid"><stop style="stop-color:#000;stop-opacity:1" id="stop5608" offset="0"/></linearGradient><filter style="color-interpolation-filters:sRGB" id="filter7554"><feBlend id="feBlend7556" in2="BackgroundImage" mode="darken"/></filter></defs><g style="display:inline;filter:url(#filter7554)" id="layer10" transform="translate(-301.00021,136.00336)"><rect style="fill:none;stroke:none" id="rect9397" width="16" height="16" x="301.032" y="-136.003"/><path style="fill:#bebebe;fill-opacity:1;stroke:none" id="rect9405" d="m 302.00021,-132.00336 c -1,0 -1,1 -1,1 l 0,5 c 0,1 1,1 1,1 l 1,0 c 0,1 1,1 1,1 l 1,0 c 0,0 1,0 1,-1 l 6,0 c 0,1 0.96875,1 0.96875,1 l 1,0 c 0,0 1.03125,0 1.03125,-1 l 1,0 c 1,0 1,-1 1,-1 l 0,-5 c 0,0 0,-1 -1.03125,-1 l -13.96875,0 z m 2.5,1 c 1.378,0 2.5,1.1193 2.5,2.5 0,1.3807 -1.122,2.5 -2.5,2.5 -1.378,0 -2.5,-1.1193 -2.5,-2.5 0,-1.3807 1.122,-2.5 2.5,-2.5 z m 6.5,1 1,0 0,1 1,0 0,-1 1,0 0,1 1,0 0,-1 1,0 0,1 -1,0 0,1 1,0 0,1 -1,0 0,-1 -1,0 0,1 -1,0 0,-1 -1,0 0,0.875 -1,0 0,-1 1,0 0,-0.875 -1,0 0,-1 z m 2,2 1,0 0,-1 -1,0 0,1 z"/><path style="fill:#bebebe;fill-opacity:1;stroke:none" id="path9418" d="m 304.31271,-130.00336 a 1.5,1.5 0 0 0 -1.3125,1.5 1.5,1.5 0 0 0 3,0 1.5,1.5 0 0 0 -1.6875,-1.5 z m 0.1875,0.5 c 0.55229,0 1,0.44772 1,1 0,0.55228 -0.44771,1 -1,1 -0.55229,0 -1,-0.44772 -1,-1 0,-0.55228 0.44771,-1 1,-1 z"/></g></svg>