<svg xmlns="http://www.w3.org/2000/svg" xmlns:osb="http://www.openswatchbook.org/uri/2009/osb" xmlns:svg="http://www.w3.org/2000/svg" style="enable-background:new" id="svg7384" width="16" height="16" version="1.1"><metadata id="metadata90"/><title id="title8473">Moka Symbolic Icon Theme</title><defs id="defs7386"><linearGradient id="linearGradient5606" osb:paint="solid"><stop style="stop-color:#000;stop-opacity:1" id="stop5608" offset="0"/></linearGradient><filter style="color-interpolation-filters:sRGB" id="filter7554"><feBlend id="feBlend7556" in2="BackgroundImage" mode="darken"/></filter></defs><g style="display:inline;filter:url(#filter7554)" id="layer10" transform="translate(-281.00021,117.03456)"><path style="fill:#bebebe;fill-opacity:1;stroke:none" id="path5705" d="m 289.5002,-112.00336 c -1.38071,0 -2.5,1.11929 -2.5,2.5 0,1.38071 1.11929,2.5 2.5,2.5 1.38071,0 2.5,-1.11929 2.5,-2.5 0,-1.38071 -1.11929,-2.5 -2.5,-2.5 z m 0,1 c 0.82843,0 1.5,0.67157 1.5,1.5 0,0.82843 -0.67157,1.5 -1.5,1.5 -0.82843,0 -1.5,-0.67157 -1.5,-1.5 0,-0.82843 0.67157,-1.5 1.5,-1.5 z"/><rect style="fill:#bebebe;fill-opacity:1;stroke:none" id="rect5701" width="3" height="1" x="288" y="-106.003"/><rect style="fill:#bebebe;fill-opacity:1;stroke:none" id="rect5703" width="3" height="1" x="288" y="-104.003"/><rect style="fill:#bebebe;fill-opacity:1;stroke:none" id="rect5738" width="3" height="1" x="280.638" y="120.777" transform="matrix(0.70710678,-0.70710678,0.70710678,0.70710678,0,0)"/><rect style="fill:#bebebe;fill-opacity:1;stroke:none" id="rect5740" width="3" height="1" x="280.638" y="122.777" transform="matrix(0.70710678,-0.70710678,0.70710678,0.70710678,0,0)"/><rect style="fill:#bebebe;fill-opacity:1;stroke:none" id="rect5764" width="3" height="3" x="125.777" y="-288.638" transform="matrix(0.70710678,0.70710678,-0.70710678,0.70710678,0,0)"/></g></svg>