<svg xmlns="http://www.w3.org/2000/svg" xmlns:osb="http://www.openswatchbook.org/uri/2009/osb" xmlns:svg="http://www.w3.org/2000/svg" style="enable-background:new" id="svg7384" width="16" height="16.031" version="1.1"><metadata id="metadata90"/><title id="title8473">Moka Symbolic Icon Theme</title><defs id="defs7386"><linearGradient id="linearGradient5606" osb:paint="solid"><stop style="stop-color:#000;stop-opacity:1" id="stop5608" offset="0"/></linearGradient><filter style="color-interpolation-filters:sRGB" id="filter7554"><feBlend id="feBlend7556" in2="BackgroundImage" mode="darken"/></filter></defs><g style="display:inline;filter:url(#filter7554)" id="layer10" transform="translate(-301.00021,116.03456)"><path style="display:inline;fill:#bebebe;fill-opacity:1;stroke:none;enable-background:new" id="rect4970-7" d="m 304.4377,-115.00336 c -0.17828,0.0566 -0.31743,0.22106 -0.34375,0.40625 l -2.09381,3.59375 5e-5,0 c -5e-5,1 -5e-5,2 0,3 l 14.00001,0 c -5e-5,-1 -5e-5,-2 0,-3 l -5e-5,0 -1.9061,-3.59375 c -0.0437,-0.22921 -0.2667,-0.41037 -0.5,-0.40625 l -9,0 c -0.0311,-0.003 -0.0626,-0.003 -0.0937,0 -0.0208,-0.001 -0.0417,-0.001 -0.0625,0 z m 0.5625,1 8.18751,0 1.68744,3 -11.75001,0 z m -2.00006,4 12.00001,0 0,1 -12.00001,0 z"/><path style="fill:#bebebe;fill-opacity:1;stroke:none" id="path5012" d="m 302.0002,-100.00336 14,0 0,-3 -14,0 z m 1,-2 12,0 0,1 -12,0 z"/><path style="fill:#bebebe;fill-opacity:1;stroke:none" id="path5017" d="m 302.0002,-104.00336 14,0 0,-3 -14,0 z m 1,-2 12,0 0,1 -12,0 z"/></g></svg>