<svg xmlns="http://www.w3.org/2000/svg" xmlns:osb="http://www.openswatchbook.org/uri/2009/osb" xmlns:svg="http://www.w3.org/2000/svg" id="svg7384" width="16" height="16" version="1.1" style="enable-background:new"><metadata id="metadata90"/><title id="title8473">Moka Symbolic Icon Theme</title><defs id="defs7386"><linearGradient id="linearGradient5606" osb:paint="solid"><stop id="stop5608" offset="0" style="stop-color:#000;stop-opacity:1"/></linearGradient><filter id="filter7554" style="color-interpolation-filters:sRGB"><feBlend id="feBlend7556" in2="BackgroundImage" mode="darken"/></filter></defs><g id="layer10" transform="translate(-261.00021,116.03456)" style="display:inline;filter:url(#filter7554)"><path id="rect4970" d="m 264.34395,-115.00336 c -0.17828,0.0566 -0.31743,0.22106 -0.34375,0.40625 l -2,10.59375 5e-5,0 c -5e-5,1 -5e-5,2 0,3 l 14,0 c -5e-5,-1 -5e-5,-2 0,-3 l -5e-5,0 -1.9999,-10.59375 c -0.0437,-0.2292 -0.2667,-0.41036 -0.5,-0.40625 l -9,0 c -0.0311,-0.003 -0.0626,-0.003 -0.0937,0 -0.0208,-0.001 -0.0417,-0.001 -0.0625,0 z m 0.5625,1 8.1875,0 1.78125,10 -11.75,0 z m -1.90625,11 12,0 0,1 -12,0 z" style="fill:#bebebe;fill-opacity:1;stroke:none"/></g></svg>