<svg xmlns="http://www.w3.org/2000/svg" xmlns:osb="http://www.openswatchbook.org/uri/2009/osb" xmlns:svg="http://www.w3.org/2000/svg" style="enable-background:new" id="svg7384" width="16.003" height="16" version="1.1"><metadata id="metadata90"/><title id="title8473">Moka Symbolic Icon Theme</title><defs id="defs7386"><linearGradient id="linearGradient5606" osb:paint="solid"><stop style="stop-color:#000;stop-opacity:1" id="stop5608" offset="0"/></linearGradient><filter style="color-interpolation-filters:sRGB" id="filter7554"><feBlend id="feBlend7556" in2="BackgroundImage" mode="darken"/></filter></defs><g style="display:inline;filter:url(#filter7554)" id="layer10" transform="translate(-540.99886,156.00336)"><path style="fill:#bebebe;fill-opacity:1;stroke:none" id="path10-8" d="m 553.25021,-154.00336 c -0.24091,10e-4 -1.04168,0.10217 -1.25001,0.24999 -0.52719,0.37626 -1.74962,0.75 -3,0.75 -1.25,0 -2.72282,-0.405 -3.25001,-0.78126 -0.20833,-0.14782 -0.72639,-0.1886 -0.96873,-0.18748 -0.24234,10e-4 -0.52765,0.0664 -0.8125,0.21875 -1.03738,0.54647 -1.98131,2.33598 -2.5,4.65625 -0.44216,1.97089 -0.60735,4.66601 -0.34375,5.75 0.22958,0.93169 0.63799,1.34375 1.34375,1.34375 1.01503,-0.0174 2.19595,-2.00222 3.03124,-3.50001 0.36413,0.38079 0.93153,0.5 1.5,0.5 0.73604,0 1.37142,-0.75001 1.99999,-0.75001 0.62857,0 1.26397,0.75001 2.00001,0.75001 0.56847,0 1.13587,-0.11921 1.5,-0.5 0.83529,1.49779 2.01623,3.48262 3.03126,3.50001 0.70576,0 1.11417,-0.41206 1.34375,-1.34375 0.2636,-1.08399 0.0984,-3.77911 -0.34375,-5.75 -0.51869,-2.32027 -1.46262,-4.10978 -2.5,-4.65625 -0.28485,-0.1523 -0.54034,-0.25112 -0.78125,-0.25 z m -8.25001,1.99999 1,0 0,1 1,0 0,1 -1,0 0,1 -1,0 0,-1 -1,0 0,-1 1,0 z m 7.5,0 c 0.27614,0 0.5,0.22386 0.5,0.5 0,0.27614 -0.22386,0.5 -0.5,0.5 -0.27614,0 -0.5,-0.22386 -0.5,-0.5 0,-0.27614 0.22386,-0.5 0.5,-0.5 z m -1,1 c 0.27614,0 0.5,0.22386 0.5,0.5 0,0.27614 -0.22386,0.5 -0.5,0.5 -0.27614,0 -0.5,-0.22386 -0.5,-0.5 0,-0.27614 0.22386,-0.5 0.5,-0.5 z m 2,0 c 0.27614,0 0.5,0.22386 0.5,0.5 0,0.27614 -0.22386,0.5 -0.5,0.5 -0.27614,0 -0.5,-0.22386 -0.5,-0.5 0,-0.27614 0.22386,-0.5 0.5,-0.5 z m -1,1 c 0.27614,0 0.5,0.22386 0.5,0.5 0,0.27614 -0.22386,0.5 -0.5,0.5 -0.27614,0 -0.5,-0.22386 -0.5,-0.5 0,-0.27614 0.22386,-0.5 0.5,-0.5 z m -5.5,2 c 0.55228,0 1,0.44772 1,1 0,0.55228 -0.44772,1 -1,1 -0.55228,0 -1,-0.44772 -1,-1 0,-0.55228 0.44772,-1 1,-1 z m 4,0 c 0.55228,0 1,0.44772 1,1 0,0.55228 -0.44772,1 -1,1 -0.55228,0 -1,-0.44772 -1,-1 0,-0.55228 0.44772,-1 1,-1 z"/></g></svg>