<svg xmlns="http://www.w3.org/2000/svg" xmlns:osb="http://www.openswatchbook.org/uri/2009/osb" xmlns:svg="http://www.w3.org/2000/svg" style="enable-background:new" id="svg7384" width="16" height="16" version="1.1"><metadata id="metadata90"/><title id="title8473">Moka Symbolic Icon Theme</title><defs id="defs7386"><linearGradient id="linearGradient5606" osb:paint="solid"><stop style="stop-color:#000;stop-opacity:1" id="stop5608" offset="0"/></linearGradient><filter style="color-interpolation-filters:sRGB" id="filter7554"><feBlend id="feBlend7556" in2="BackgroundImage" mode="darken"/></filter></defs><g style="display:inline;filter:url(#filter7554)" id="layer10" transform="translate(-341,156.00336)"><path style="color:#bebebe;display:inline;overflow:visible;visibility:visible;fill:#bebebe;fill-opacity:1;fill-rule:nonzero;stroke:none;stroke-width:3;marker:none;enable-background:accumulate" id="rect4890" d="m 341.0002,-151.00336 0,1 1,0 0,-1 z m 2,0 0,1 2,0 0,-1 z m 3,0 0,1 2,0 0,-1 z m 3,0 0,1 2,0 0,-1 z m 3,0 0,1 2,0 0,-1 z m 3,0 0,1 1,0 0,-1 z m -14,2 0,1 3,0 0,-1 z m 4,0 0,1 2,0 0,-1 z m 3,0 0,1 2,0 0,-1 z m 3,0 0,1 2,0 0,-1 z m 3,0 0,1 2,0 0,-1 z m -13,2 0,1 2,0 0,-1 z m 3,0 0,1 2,0 0,-1 z m 3,0 0,1 2,0 0,-1 z m 3,0 0,1 2,0 0,-1 z m 3,0 0,1 3,0 0,-1 z m -11,2 0,1 2,0 0,-1 z m 3,0 0,1 7,0 0,-1 z m 8,0 0,1 2,0 0,-1 z"/></g></svg>