<svg xmlns="http://www.w3.org/2000/svg" xmlns:osb="http://www.openswatchbook.org/uri/2009/osb" xmlns:svg="http://www.w3.org/2000/svg" style="enable-background:new" id="svg7384" width="16" height="16" version="1.1"><metadata id="metadata90"/><title id="title8473">Moka Symbolic Icon Theme</title><defs id="defs7386"><linearGradient id="linearGradient5606" osb:paint="solid"><stop style="stop-color:#000;stop-opacity:1" id="stop5608" offset="0"/></linearGradient><filter style="color-interpolation-filters:sRGB" id="filter7554"><feBlend id="feBlend7556" in2="BackgroundImage" mode="darken"/></filter></defs><g style="display:inline;filter:url(#filter7554)" id="layer10" transform="translate(-441.00023,136.00338)"><path style="fill:#bebebe;fill-opacity:1;stroke:none" id="path7007" d="m 442.0002,-133.00336 0,11 c 0,0.554 0.446,1 1,1 l 12,0 c 0.554,0 1,-0.446 1,-1 l 0,-11 c 0,0 0,-2 -2,-2 l -10,0 c 0,0 -2,0 -2,2 z m 2,-1 1,0 0,4 8,0 0,-4 1,0 c 0.554,0 1,0.446 1,1 l 0,11 -12,0 0,-11 c 0,-0.554 0.446,-1 1,-1 z"/></g></svg>