<svg xmlns="http://www.w3.org/2000/svg" xmlns:osb="http://www.openswatchbook.org/uri/2009/osb" xmlns:svg="http://www.w3.org/2000/svg" style="enable-background:new" id="svg7384" width="16" height="16" version="1.1"><metadata id="metadata90"/><title id="title8473">Moka Symbolic Icon Theme</title><defs id="defs7386"><linearGradient id="linearGradient5606" osb:paint="solid"><stop style="stop-color:#000;stop-opacity:1" id="stop5608" offset="0"/></linearGradient><filter style="color-interpolation-filters:sRGB" id="filter7554"><feBlend id="feBlend7556" in2="BackgroundImage" mode="darken"/></filter></defs><g style="display:inline;filter:url(#filter7554)" id="layer10" transform="translate(-321.00018,136.00336)"><path style="fill:#bebebe;fill-opacity:1;stroke:none" id="rect9463" d="m 325.84395,-135.00336 c -0.28125,0.0469 -0.84375,0.25 -0.84375,1 l 0,10 c 0,0 0,1 1,1 l 6,0 c 1,0 1,-1 1,-1 l 0,-10 c 0,-1 -1,-1 -1,-1 l -6,0 c 0,0 -0.0625,-0.0156 -0.15625,0 z m 0.15625,1 6,0 0,10 -6,0 z m 0,12 0,1 6,0 0,-1 z"/><rect style="fill:none;stroke:none" id="rect10837" width="16" height="16" x="321" y="-136.003"/></g></svg>