<svg xmlns="http://www.w3.org/2000/svg" xmlns:osb="http://www.openswatchbook.org/uri/2009/osb" xmlns:svg="http://www.w3.org/2000/svg" style="enable-background:new" id="svg7384" width="16" height="16" version="1.1"><metadata id="metadata90"/><title id="title8473">Moka Symbolic Icon Theme</title><defs id="defs7386"><linearGradient id="linearGradient5606" osb:paint="solid"><stop style="stop-color:#000;stop-opacity:1" id="stop5608" offset="0"/></linearGradient><filter style="color-interpolation-filters:sRGB" id="filter7554"><feBlend id="feBlend7556" in2="BackgroundImage" mode="darken"/></filter></defs><g style="display:inline;filter:url(#filter7554)" id="layer10" transform="translate(-421.00021,136.00338)"><path style="fill:#bebebe;fill-opacity:1;stroke:none" id="rect2989-2" d="m 423.00021,-135.00338 c -0.554,0 -1,0.446 -1,1 l 0,11 2,2 1,0 8,0 2,0 c 0.554,0 1,-0.446 1,-1 l 0,-12 c 0,-0.554 -0.446,-1 -1,-1 z m -10e-6,1.00002 12,0 0,12 -2,0 0,-6 -8,0 10e-6,5.99999 -0.25001,1e-5 -1.75,-1.75 z m 6,7 2,0 0,5 -2,0 z"/></g></svg>