<svg xmlns="http://www.w3.org/2000/svg" xmlns:osb="http://www.openswatchbook.org/uri/2009/osb" xmlns:svg="http://www.w3.org/2000/svg" style="enable-background:new" id="svg7384" width="16" height="16" version="1.1"><metadata id="metadata90"/><title id="title8473">Moka Symbolic Icon Theme</title><defs id="defs7386"><linearGradient id="linearGradient5606" osb:paint="solid"><stop style="stop-color:#000;stop-opacity:1" id="stop5608" offset="0"/></linearGradient><filter style="color-interpolation-filters:sRGB" id="filter7554"><feBlend id="feBlend7556" in2="BackgroundImage" mode="darken"/></filter></defs><g style="display:inline;filter:url(#filter7554)" id="layer10" transform="translate(-400.99878,156.00336)"><path style="color:#000;display:inline;overflow:visible;visibility:visible;fill:#bebebe;fill-opacity:1;fill-rule:nonzero;stroke:none;stroke-width:4;marker:none;enable-background:accumulate" id="path5113" d="m 403.99876,-155.00336 10e-4,5 -1,0 c -1,0 -1,1 -1,1 l -4.4e-4,3 14,0 4.4e-4,-3 c 0,0 0.108,-1 -1,-1 l -1,0 -10e-4,-5 z m 1,1 8,0 10e-4,4 -8,0 z m -0.99712,5 1,0 0,1 -1,0 z"/><path style="color:#000;display:inline;overflow:visible;visibility:visible;fill:#bebebe;fill-opacity:1;fill-rule:evenodd;stroke:none;stroke-width:2;marker:none;enable-background:accumulate" id="path7472-5" d="m 402.0002,-145.00336 0,2 c 0,1 1,1 1,1 l 5,0 0,2 2,0 0,-2 5,0 c 0,0 1,0 1,-1 l 0,-2 z m 1,1 3,0 0,1 -3,0 z"/></g></svg>