<svg xmlns="http://www.w3.org/2000/svg" xmlns:osb="http://www.openswatchbook.org/uri/2009/osb" xmlns:svg="http://www.w3.org/2000/svg" style="enable-background:new" id="svg7384" width="16" height="16" version="1.1"><metadata id="metadata90"/><title id="title8473">Moka Symbolic Icon Theme</title><defs id="defs7386"><linearGradient id="linearGradient5606" osb:paint="solid"><stop style="stop-color:#000;stop-opacity:1" id="stop5608" offset="0"/></linearGradient><filter style="color-interpolation-filters:sRGB" id="filter7554"><feBlend id="feBlend7556" in2="BackgroundImage" mode="darken"/></filter></defs><g style="display:inline;filter:url(#filter7554)" id="layer10" transform="translate(-261.0002,155.00336)"><path style="fill:#bebebe;fill-opacity:1;stroke:none" id="path9367-9-8" d="m 262.0002,-155.00336 c -0.99979,0 -1,1 -1,1 l 0,11 c 0,1 1,1 1,1 l 14,0 c 1.00021,0 1,-1 1,-1 l 0,-11 c 0,0 0,-1 -1,-1 z m 0,1 14,0 0,11 -14,0 z"/><path style="color:#bebebe;display:inline;overflow:visible;visibility:visible;fill:#bebebe;fill-opacity:1;fill-rule:nonzero;stroke:none;stroke-width:1.20000005;marker:none;enable-background:accumulate" id="path9369-9-0" d="m 265.0002,-139.00336 -9e-5,-6e-5 8,0 0,0 c 0,-1.06066 -1,-1 -1,-1 l -0.99991,6e-5 0,-1 -4,0 0,1 -1,0 c 0,0 -0.99991,6e-5 -1,1 z"/></g></svg>