<svg xmlns="http://www.w3.org/2000/svg" xmlns:svg="http://www.w3.org/2000/svg" xmlns:xlink="http://www.w3.org/1999/xlink" id="svg3495" width="24" height="24" version="1.1"><defs id="defs3497"><linearGradient id="linearGradient3802" x1="11" x2="11" y1="0" y2="22" gradientTransform="translate(1,25)" gradientUnits="userSpaceOnUse" xlink:href="#linearGradient6501"/><linearGradient id="linearGradient3839" x1="1" x2="21" y1="11" y2="11" gradientTransform="matrix(0,1,1,0,1,25)" gradientUnits="userSpaceOnUse" xlink:href="#linearGradient3813"/><radialGradient id="radialGradient3993" cx="11" cy="20" r="9" fx="11" fy="20" gradientTransform="matrix(1,0,0,0.22222222,0,15.555556)" gradientUnits="userSpaceOnUse" xlink:href="#linearGradient3949"/><linearGradient id="linearGradient3949"><stop id="stop3951" offset="0" style="stop-color:#000;stop-opacity:1"/><stop id="stop3953" offset="1" style="stop-color:#000;stop-opacity:0"/></linearGradient><radialGradient id="radialGradient4535" cx="11" cy="20" r="9" fx="11" fy="20" gradientTransform="matrix(1,0,0,0.22222222,0,15.555556)" gradientUnits="userSpaceOnUse" xlink:href="#linearGradient3949"/><linearGradient id="linearGradient3813"><stop id="stop3815" offset="0" style="stop-color:#3e8292;stop-opacity:1"/><stop id="stop3817" offset="1" style="stop-color:#133f8f;stop-opacity:1"/></linearGradient><linearGradient id="linearGradient6501"><stop style="stop-color:#44d9ff;stop-opacity:1" id="stop6503" offset="0"/><stop id="stop7407" offset=".643" style="stop-color:#4690d1;stop-opacity:1"/><stop style="stop-color:#4862b1;stop-opacity:1" id="stop6507" offset="1"/></linearGradient></defs><metadata id="metadata3500"/><g id="layer1" transform="translate(0,-24)"><g id="g4507" transform="translate(1,-1)"><path style="opacity:.4;fill:url(#radialGradient3993);fill-opacity:1;stroke:none" id="path3163" d="m 20,20 c 0,1.104569 -4.029437,2 -9,2 -4.9705627,0 -9,-0.895431 -9,-2 0,-1.104569 4.0294373,-2 9,-2 4.970563,0 9,0.895431 9,2 z" transform="matrix(1,0,0,1.5,0,15)"/><path id="path3995" d="m 20,20 c 0,1.104569 -4.029437,2 -9,2 -4.9705627,0 -9,-0.895431 -9,-2 0,-1.104569 4.0294373,-2 9,-2 4.970563,0 9,0.895431 9,2 z" transform="matrix(0.66666667,0,0,1,3.6666666,26)" style="opacity:.8;fill:url(#radialGradient4535);fill-opacity:1;stroke:none"/></g><path id="path4791" d="m 12,26.5 c -5.2407828,0 -9.5,4.259217 -9.5,9.5 0,5.240782 4.2592171,9.5 9.5,9.5 5.240783,0 9.5,-4.259218 9.5,-9.5 0,-5.240783 -4.259217,-9.5 -9.5,-9.5 z" style="fill:url(#linearGradient3802);fill-opacity:1;fill-rule:evenodd;stroke:none"/><path style="opacity:.81000001;fill:none;stroke:url(#linearGradient3839);stroke-opacity:1" id="path3804" d="m 2.5,36 c 0,-5.240783 4.259217,-9.5 9.5,-9.5 5.240782,0 9.5,4.259217 9.5,9.5 0,5.240783 -4.259218,9.5 -9.5,9.5 -5.240783,0 -9.5,-4.259217 -9.5,-9.5 z"/><path id="path3806" d="m 12,27 c -4.9698807,0 -9,4.030119 -9,9 0,0.171541 0.021774,0.330826 0.03125,0.5 C 3.2963002,31.767849 7.2016599,28 12,28 c 4.79834,0 8.7037,3.767849 8.96875,8.5 C 20.978226,36.330826 21,36.171541 21,36 21,31.030119 16.969881,27 12,27 z" style="opacity:.2;fill:#fff;fill-opacity:1;fill-rule:evenodd;stroke:none"/><path style="opacity:.2;fill:#000;fill-opacity:1;fill-rule:evenodd;stroke:none" id="path3820" d="M 12,46 C 7.0301193,46 3,41.969881 3,37 3,36.828459 3.021774,36.669174 3.03125,36.5 3.2963002,41.232151 7.2016599,45 12,45 16.79834,45 20.7037,41.232151 20.96875,36.5 20.97825,36.669174 21,36.828459 21,37 c 0,4.969881 -4.030119,9 -9,9 z"/></g><g id="layer2" transform="translate(0,2)"><path style="opacity:.3;color:#000;fill:#000;fill-opacity:1;fill-rule:nonzero;stroke:none;stroke-width:1;marker:none;visibility:visible;display:inline;overflow:visible;enable-background:accumulate" id="path3854" d="M 10,5.00021 10,10.99979 7.5,11 12,17 16.5,11 14,10.99979 14,5.00021 z"/><path id="rect3005" d="m 10,4.000105 0,5.99958 -2.5,2.1e-4 4.5,6 4.5,-6 -2.5,-2.1e-4 0,-5.99958 z" style="color:#000;fill:#fff;fill-opacity:1;fill-rule:nonzero;stroke:none;stroke-width:1;marker:none;visibility:visible;display:inline;overflow:visible;enable-background:accumulate"/></g></svg>