<svg xmlns="http://www.w3.org/2000/svg" xmlns:osb="http://www.openswatchbook.org/uri/2009/osb" xmlns:svg="http://www.w3.org/2000/svg" style="enable-background:new" id="svg7384" width="16" height="16" version="1.1"><metadata id="metadata90"/><title id="title8473">Moka Symbolic Icon Theme</title><defs id="defs7386"><linearGradient id="linearGradient5606" osb:paint="solid"><stop style="stop-color:#000;stop-opacity:1" id="stop5608" offset="0"/></linearGradient><filter style="color-interpolation-filters:sRGB" id="filter7554"><feBlend id="feBlend7556" in2="BackgroundImage" mode="darken"/></filter></defs><g style="display:inline" id="layer12" transform="translate(-421.0002,-23.996641)"><path style="color:#bebebe;display:inline;overflow:visible;visibility:visible;fill:#bebebe;fill-opacity:1;fill-rule:nonzero;stroke:none;stroke-width:1;marker:none;enable-background:accumulate" id="path6751-4-4" d="m 429.00022,24.99664 c -2.20914,0 -4,1.79086 -4,4 0,2.20914 1.79086,4 4,4 2.20914,0 4,-1.79086 4,-4 0,-2.20914 -1.79086,-4 -4,-4 z m -3.21875,7.78125 c -2.24866,1.16455 -2.78125,3.51165 -2.78125,6.21875 l 7,0 0,-1 0,-2 0,-1 1,0 1,0 0,-1 0,-1 0.5625,0 c -0.11629,-0.0732 -0.21672,-0.15296 -0.34375,-0.21875 -0.87459,0.74817 -1.98482,1.21875 -3.21875,1.21875 -1.23393,0 -2.34416,-0.47058 -3.21875,-1.21875 z m 7.21875,1.21875 0,2 -2,0 0,2 2,0 0,2 2,0 0,-2 2,0 0,-2 -2,0 0,-2 z"/></g></svg>