<svg xmlns="http://www.w3.org/2000/svg" xmlns:osb="http://www.openswatchbook.org/uri/2009/osb" xmlns:svg="http://www.w3.org/2000/svg" style="enable-background:new" id="svg7384" width="16" height="16" version="1.1"><metadata id="metadata90"/><title id="title8473">Moka Symbolic Icon Theme</title><defs id="defs7386"><linearGradient id="linearGradient5606" osb:paint="solid"><stop style="stop-color:#000;stop-opacity:1" id="stop5608" offset="0"/></linearGradient><filter style="color-interpolation-filters:sRGB" id="filter7554"><feBlend id="feBlend7556" in2="BackgroundImage" mode="darken"/></filter></defs><g style="display:inline" id="layer12" transform="translate(-421.0002,15.003359)"><g id="g6648" transform="matrix(1,0,0,-1,421.00022,1.003371)"><path style="color:#bebebe;display:inline;overflow:visible;visibility:visible;fill:#bebebe;fill-opacity:1;fill-rule:nonzero;stroke:none;stroke-width:1;marker:none;enable-background:accumulate" id="path6650" d="m 202,478 0,2 0,2 0,8 0,1 0,1 7,0 0,-1 -6,0 0,-1 0,-7.40625 0,-2.59375 0,-1 10,0 0,7 1,0 0,-8 z" transform="translate(-200,-477)"/></g><path style="fill:#bebebe;fill-opacity:1;stroke:none" id="path6654" d="m 433.00022,-8.99663 0,-2 -2,0 0,-2 2,0 0,-2 3.99998,3.00634 z"/></g></svg>