<svg xmlns="http://www.w3.org/2000/svg" xmlns:osb="http://www.openswatchbook.org/uri/2009/osb" xmlns:svg="http://www.w3.org/2000/svg" style="enable-background:new" id="svg7384" width="16" height="16" version="1.1"><metadata id="metadata90"/><title id="title8473">Moka Symbolic Icon Theme</title><defs id="defs7386"><linearGradient id="linearGradient5606" osb:paint="solid"><stop style="stop-color:#000;stop-opacity:1" id="stop5608" offset="0"/></linearGradient><filter style="color-interpolation-filters:sRGB" id="filter7554"><feBlend id="feBlend7556" in2="BackgroundImage" mode="darken"/></filter></defs><g style="display:inline" id="layer12" transform="translate(-320.99821,17.004207)"><path style="fill:#bebebe;fill-opacity:1;fill-rule:nonzero;stroke:none" id="path5981" d="m 324.0002,-17.00336 c -0.554,0 -1,0.446 -1,1 l 0,2 c 0,0.554 0.446,1 1,1 l 3,0 0,3 -2.34375,0 4.34375,6.28125 4.375,-6.28125 -2.375,0 0,-3 3,0 c 0.554,0 1,-0.446 1,-1 l 0,-2 c 0,-0.554 -0.446,-1 -1,-1 l -10,0 z m 0,1 10,0 0,2 -3,0 -4,0 -3,0 0,-2 z"/><path style="fill:#bebebe;fill-opacity:1;fill-rule:nonzero;stroke:none" id="path5989" d="m 321.9932,-2.972809 0,1.96856 14.005,0 -0.005,-1.96856 z"/></g></svg>