<svg xmlns="http://www.w3.org/2000/svg" xmlns:osb="http://www.openswatchbook.org/uri/2009/osb" xmlns:svg="http://www.w3.org/2000/svg" style="enable-background:new" id="svg7384" width="16" height="16" version="1.1"><metadata id="metadata90"/><title id="title8473">Moka Symbolic Icon Theme</title><defs id="defs7386"><linearGradient id="linearGradient5606" osb:paint="solid"><stop style="stop-color:#000;stop-opacity:1" id="stop5608" offset="0"/></linearGradient><filter style="color-interpolation-filters:sRGB" id="filter7554"><feBlend id="feBlend7556" in2="BackgroundImage" mode="darken"/></filter></defs><g style="display:inline" id="layer12" transform="translate(-542.00018,16.010089)"><g id="g4946" transform="matrix(1,0,0,-1,542.0002,-0.0033591)"><path style="color:#bebebe;display:inline;overflow:visible;visibility:visible;fill:#bebebe;fill-opacity:1;fill-rule:nonzero;stroke:none;stroke-width:1;marker:none;enable-background:accumulate" id="path4948" d="m 202,478 0,2 0,2 0,8 0,2 12,0 0,-5 -1,0 0,4 -10,0 0,-8.40625 0,-2.59375 0,-1 10,0 0,4 1,0 0,-5 z" transform="translate(-200,-477)"/></g><path style="fill:#bebebe;fill-opacity:1;stroke:none" id="path4952" d="m 553.0002,-5.0033591 0,-2 4,0 0,-2 -4,0 0,-1.9999999 -4.5,2.9999999 z"/></g></svg>