<svg xmlns="http://www.w3.org/2000/svg" xmlns:osb="http://www.openswatchbook.org/uri/2009/osb" xmlns:svg="http://www.w3.org/2000/svg" style="enable-background:new" id="svg7384" width="15.982" height="16" version="1.1"><metadata id="metadata90"/><title id="title8473">Moka Symbolic Icon Theme</title><defs id="defs7386"><linearGradient id="linearGradient5606" osb:paint="solid"><stop style="stop-color:#000;stop-opacity:1" id="stop5608" offset="0"/></linearGradient><filter style="color-interpolation-filters:sRGB" id="filter7554"><feBlend id="feBlend7556" in2="BackgroundImage" mode="darken"/></filter></defs><path id="path7274" d="m 4.8748,1.999978 c -0.25613,0.0339 -0.497,0.17155 -0.65625,0.375 l -4,5 c -0.28127,0.35137 -0.28127,0.89863 0,1.25 l 4,5 c 0.20539,0.2592 0.54566,0.40503 0.875,0.375 0.01,7.7e-4 0.0212,-5.1e-4 0.0312,0 0.0201,10e-4 0.0421,0 0.0625,0 l 8.625,0 c 0.6627,0 1.1875,-0.54894 1.1875,-1.21875 l 0,-9.5625 c 10e-5,-0.66976 -0.52475,-1.21875 -1.18745,-1.21875 l -8.625,0 c -0.0416,-0.003 -0.0834,-0.003 -0.125,0 -0.0623,-0.006 -0.12518,-0.006 -0.1875,0 z m 1.125,3 1,0 c 0.27614,0 0.53779,0.10029 0.71875,0.28125 l 1.28125,1.28125 1.28125,-1.28125 c 0.18096,-0.18096 0.44292,-0.26812 0.71875,-0.28125 l 1,0 0,1 c 0,0.27614 -0.12201,0.51841 -0.28125,0.71875 l -1.28125,1.28125 1.28125,1.28125 c 0.18096,0.18096 0.19393,0.45678 0.28125,0.71875 l 0,1 -1,0 c -0.27549,0.019 -0.56909,-0.0737 -0.71875,-0.28125 L 8.9998,9.437478 7.71855,10.718728 c -0.18096,0.18096 -0.44261,0.28125 -0.71875,0.28125 l -1,0 0,-1 c 0,-0.27614 0.0856,-0.55379 0.28125,-0.71875 L 7.5623,7.999978 6.28105,6.718728 C 6.10009,6.537768 5.92188,6.264898 5.9998,5.999978 Z" style="color:#bebebe;fill:#bebebe;stroke:none;stroke-linejoin:round"/></svg>