<svg xmlns="http://www.w3.org/2000/svg" xmlns:osb="http://www.openswatchbook.org/uri/2009/osb" xmlns:svg="http://www.w3.org/2000/svg" style="enable-background:new" id="svg7384" width="16" height="16" version="1.1"><metadata id="metadata90"/><title id="title8473">Moka Symbolic Icon Theme</title><defs id="defs7386"><linearGradient id="linearGradient5606" osb:paint="solid"><stop style="stop-color:#000;stop-opacity:1" id="stop5608" offset="0"/></linearGradient><filter style="color-interpolation-filters:sRGB" id="filter7554"><feBlend id="feBlend7556" in2="BackgroundImage" mode="darken"/></filter></defs><g style="display:inline" id="layer12" transform="translate(-401.0002,16.00336)"><path style="color:#000;font-style:normal;font-variant:normal;font-weight:400;font-stretch:normal;line-height:normal;font-family:Sans;-inkscape-font-specification:Sans;text-indent:0;text-align:start;text-decoration:none;text-decoration-line:none;letter-spacing:normal;word-spacing:normal;text-transform:none;direction:ltr;block-progression:tb;writing-mode:lr-tb;baseline-shift:baseline;text-anchor:start;display:inline;overflow:visible;visibility:visible;fill:#bebebe;fill-opacity:1;stroke:none;stroke-width:2;marker:none;enable-background:new" id="path36048" d="m 407.7502,-9.15961 a 1.0001,1.0001 0 0 0 1.875,0.34375 l 3.3125,-5.625 a 1.0077822,1.0077822 0 1 0 -1.75,-1 l -3.3125,5.625 a 1.0001,1.0001 0 0 0 -0.125,0.65625 z"/><path style="color:#000;display:inline;overflow:visible;visibility:visible;fill:#bebebe;fill-opacity:1;fill-rule:nonzero;stroke:none;stroke-width:.55063653;marker:none;enable-background:new" id="path36050" d="m 406.21895,-10.90961 4.94742,3.05384 c 0.60355,0.31472 0.81997,1.11313 0.16464,1.59705 l -0.62186,0.21653 -6.01923,-3.52145 0.0177,-0.90733 c 0.28883,-0.58524 0.75466,-0.81586 1.51132,-0.43864 z"/><path style="color:#000;display:inline;overflow:visible;visibility:visible;fill:#bebebe;fill-opacity:1;fill-rule:nonzero;stroke:none;stroke-width:.55063653;marker:none;enable-background:new" id="path36052" d="m 404.02387,-8.80079 c -0.86313,0.347359 -1.55857,1.0885126 -1.85035,1.971975 -0.29179,0.8834625 -0.17456,1.8930207 0.3119,2.686115 0.31236,0.5092425 0.76492,0.9250054 1.27614,1.2341178 0.51121,0.3091125 1.0804,0.514857 1.66271,0.6483015 1.16462,0.266889 2.37246,0.2568207 3.56727,0.2568207 l 4.00866,0 c -0.84008,0.1162286 -1.71187,-0.00629 -2.48737,-0.34956 -0.33811,-0.1496606 -0.66216,-0.3436538 -0.91582,-0.6126718 -0.25366,-0.2690181 -0.43293,-0.6191462 -0.4496,-0.9885182 -0.013,-0.2889274 0.0756,-0.5814421 0.24674,-0.814568 0.17118,-0.2331259 0.42374,-0.4052523 0.70332,-0.479322 l -6.0736,-3.55269 z"/></g></svg>