<svg xmlns="http://www.w3.org/2000/svg" xmlns:osb="http://www.openswatchbook.org/uri/2009/osb" xmlns:svg="http://www.w3.org/2000/svg" style="enable-background:new" id="svg7384" width="16" height="16" version="1.1"><metadata id="metadata90"/><title id="title8473">Moka Symbolic Icon Theme</title><defs id="defs7386"><linearGradient id="linearGradient5606" osb:paint="solid"><stop style="stop-color:#000;stop-opacity:1" id="stop5608" offset="0"/></linearGradient><filter style="color-interpolation-filters:sRGB" id="filter7554"><feBlend id="feBlend7556" in2="BackgroundImage" mode="darken"/></filter></defs><g style="display:inline" id="layer12" transform="translate(-461.00018,14.99663)"><path style="color:#bebebe;display:inline;overflow:visible;visibility:visible;fill:#bebebe;fill-opacity:1;fill-rule:nonzero;stroke:none;stroke-width:1;marker:none;enable-background:accumulate" id="path6605" d="m 463.0002,-14.003359 0,3 0,1 0,10 12,0 0,-14 -12,0 z m 1,1 10,0 0,12 -10,0 0,-8.40625 0,-1.59375 0,-2 z"/><rect style="opacity:.35;fill:#bebebe;fill-opacity:1;stroke:none" id="rect6615" width="8" height="10" x="465" y="-12.003"/><path style="fill:#bebebe;fill-opacity:1;stroke:none" id="rect6617" d="m 465.0002,-12.00336 0,1 7,0 0,-1 -7,0 z m 0,2 0,1 3,0 0,-1 -3,0 z m 4,0 0,1 3,0 0,-1 -3,0 z m -4,2 0,1 6,0 0,-1 -6,0 z m 0,2 0,1 3,0 0,-1 -3,0 z m 4,0 0,1 4,0 0,-1 -4,0 z"/></g></svg>