<svg xmlns="http://www.w3.org/2000/svg" xmlns:osb="http://www.openswatchbook.org/uri/2009/osb" xmlns:svg="http://www.w3.org/2000/svg" style="enable-background:new" id="svg7384" width="16" height="16" version="1.1"><metadata id="metadata90"/><title id="title8473">Moka Symbolic Icon Theme</title><defs id="defs7386"><linearGradient id="linearGradient5606" osb:paint="solid"><stop style="stop-color:#000;stop-opacity:1" id="stop5608" offset="0"/></linearGradient><filter style="color-interpolation-filters:sRGB" id="filter7554"><feBlend id="feBlend7556" in2="BackgroundImage" mode="darken"/></filter></defs><path id="path11643-3-2-2" d="M 2,0 2,2 8,2 C 8.42816,2 9,2.61414 9,3 L 9,4 4,4 C 3.08073,4 2.2644,4.38396 1.75,4.96875 1.2356,5.55354 0.99361,6.27938 1,7 1.006,7.72062 1.26893,8.45271 1.78125,9.03125 2.29357,9.60979 3.09172,10 4,10 l 5,0 1,0 1,0 0,-1 0,-1 0,-5 C 11.00009,1.36566 9.6802,0 8,0 L 2,0 Z M 4,6 9,6 9,8 4,8 C 3.60213,8 3.43309,7.89021 3.28125,7.71875 3.12941,7.54729 3.00248,7.27938 3,7 2.998,6.72062 3.10467,6.44646 3.25,6.28125 3.39533,6.11604 3.57764,6 4,6 Z" style="fill:#bebebe;fill-opacity:1;stroke:none"/><path id="path4484-2" d="M 11.99999,15.00001 15.9998,11.99998 11.99998,9.00004 c 0,0 -1.8e-4,5.99994 -3e-5,6.00001 z" style="fill:#bebebe;fill-opacity:1;stroke:none"/><path id="path4486-0" d="m 0.9373,11 0,2 13.0625,0 0,-2 -13.0625,0 z" style="color:#000;font-style:normal;font-variant:normal;font-weight:400;font-stretch:normal;line-height:normal;font-family:Sans;-inkscape-font-specification:Sans;text-indent:0;text-align:start;text-decoration:none;text-decoration-line:none;letter-spacing:normal;word-spacing:normal;text-transform:none;direction:ltr;block-progression:tb;writing-mode:lr-tb;baseline-shift:baseline;text-anchor:start;display:inline;overflow:visible;visibility:visible;fill:#bebebe;fill-opacity:1;stroke:none;stroke-width:2;marker:none;enable-background:accumulate"/></svg>