<svg xmlns="http://www.w3.org/2000/svg" xmlns:osb="http://www.openswatchbook.org/uri/2009/osb" xmlns:svg="http://www.w3.org/2000/svg" style="enable-background:new" id="svg7384" width="16" height="16" version="1.1"><metadata id="metadata90"/><title id="title8473">Moka Symbolic Icon Theme</title><defs id="defs7386"><linearGradient id="linearGradient5606" osb:paint="solid"><stop style="stop-color:#000;stop-opacity:1" id="stop5608" offset="0"/></linearGradient><filter style="color-interpolation-filters:sRGB" id="filter7554"><feBlend id="feBlend7556" in2="BackgroundImage" mode="darken"/></filter></defs><path id="path11643-3-2-9" d="m 6,-1e-6 0,2 6,0 c 0.42816,0 1,0.61414 1,1 l 0,1 -5,0 c -0.91927,0 -1.7356,0.38396 -2.25,0.96875 C 5.2356,5.553539 4.99361,6.279379 5,6.999999 5.006,7.720619 5.26893,8.452709 5.78125,9.031249 6.29357,9.609789 7.09172,9.999999 8,9.999999 l 5,0 1,0 1,0 0,-1.0625 0,-0.9375 0,-5 c 9e-5,-1.63434 -1.3198,-3 -3,-3 l -6,0 z m 2,6 5,0 0,2 -5,0 c -0.39787,0 -0.56691,-0.10979 -0.71875,-0.28125 C 7.12941,7.547289 7.00248,7.279379 7,6.999999 6.998,6.720619 7.10467,6.446459 7.25,6.281249 7.39533,6.116039 7.57764,5.999999 8,5.999999 Z" style="fill:#bebebe;fill-opacity:1;stroke:none"/><path id="path4484" d="m 0,12 4.00021,-2.99995 10e-6,5.99999 z" style="fill:#bebebe;fill-opacity:1;stroke:none"/><path id="path4486" d="m 2.0002,10.98689 0,2 12.9375,0 0,-2 -12.9375,0 z" style="color:#000;font-style:normal;font-variant:normal;font-weight:400;font-stretch:normal;line-height:normal;font-family:Sans;-inkscape-font-specification:Sans;text-indent:0;text-align:start;text-decoration:none;text-decoration-line:none;letter-spacing:normal;word-spacing:normal;text-transform:none;direction:ltr;block-progression:tb;writing-mode:lr-tb;baseline-shift:baseline;text-anchor:start;display:inline;overflow:visible;visibility:visible;fill:#bebebe;fill-opacity:1;stroke:none;stroke-width:2;marker:none;enable-background:accumulate"/></svg>