<svg xmlns="http://www.w3.org/2000/svg" xmlns:osb="http://www.openswatchbook.org/uri/2009/osb" xmlns:svg="http://www.w3.org/2000/svg" style="enable-background:new" id="svg7384" width="16" height="16" version="1.1"><metadata id="metadata90"/><title id="title8473">Moka Symbolic Icon Theme</title><defs id="defs7386"><linearGradient id="linearGradient5606" osb:paint="solid"><stop style="stop-color:#000;stop-opacity:1" id="stop5608" offset="0"/></linearGradient><filter style="color-interpolation-filters:sRGB" id="filter7554"><feBlend id="feBlend7556" in2="BackgroundImage" mode="darken"/></filter></defs><g style="display:inline" id="layer12" transform="translate(-481.0002,36.00336)"><path style="fill:#bebebe;fill-opacity:1;stroke:none" id="path4995" d="m 489.0002,-35.00336 c -3.86603,0 -7,3.13412 -7,7 0,3.86603 3.13397,7 7,7 3.86603,0 7,-3.13397 7,-7 0,-3.86588 -3.13397,-7 -7,-7 z m 0,1 c 3.31371,0 6,2.68629 6,6 0,3.31371 -2.68629,6 -6,6 -3.31371,0 -6,-2.68629 -6,-6 0,-3.31371 2.68629,-6 6,-6 z m 0,1.75 c -0.69036,0 -1.25,0.55964 -1.25,1.25 0,0.69036 0.55964,1.25 1.25,1.25 0.69036,0 1.25,-0.55964 1.25,-1.25 0,-0.69036 -0.55964,-1.25 -1.25,-1.25 z m -1,3.25 0,5 2,0 0,-5 -1,0 -1,0 z"/></g></svg>