<svg xmlns="http://www.w3.org/2000/svg" xmlns:osb="http://www.openswatchbook.org/uri/2009/osb" xmlns:svg="http://www.w3.org/2000/svg" style="enable-background:new" id="svg7384" width="16" height="16" version="1.1"><metadata id="metadata90"/><title id="title8473">Moka Symbolic Icon Theme</title><defs id="defs7386"><linearGradient id="linearGradient5606" osb:paint="solid"><stop style="stop-color:#000;stop-opacity:1" id="stop5608" offset="0"/></linearGradient><filter style="color-interpolation-filters:sRGB" id="filter7554"><feBlend id="feBlend7556" in2="BackgroundImage" mode="darken"/></filter></defs><g style="display:inline" id="layer12" transform="translate(-541.0002,-23.99664)"><path style="color:#000;display:inline;overflow:visible;visibility:visible;fill:#bebebe;fill-opacity:1;fill-rule:nonzero;stroke:none;stroke-width:1;marker:none;enable-background:accumulate" id="path2986-2" d="m 554.65645,24.93414 -12.71875,12.71875 1.40625,1.40625 12.71875,-12.71875 z"/><path style="color:#bebebe;display:inline;overflow:visible;visibility:visible;fill:#e13f2b;fill-opacity:1;fill-rule:nonzero;stroke:none;stroke-width:.23188406;marker:none;enable-background:accumulate" id="path4268" d="m 549.00019,28.15289 c -2.89932,0 -5.43923,1.53856 -6.84375,3.84375 0.49639,0.81471 1.16058,1.50463 1.90625,2.09375 l 1.875,-1.875 c -0.005,-0.0733 -0.0312,-0.14413 -0.0312,-0.21875 0,-1.69827 1.39339,-3.0625 3.09375,-3.0625 0.0642,0 0.12429,0.0274 0.1875,0.0312 l 0.75,-0.75 c -0.31012,-0.0364 -0.61758,-0.0625 -0.9375,-0.0625 z m 4.9375,1.75 -1.875,1.875 c 0.005,0.0733 0.0312,0.14414 0.0312,0.21875 0,1.69828 -1.39339,3.0625 -3.09375,3.0625 -0.0642,0 -0.12429,-0.0274 -0.1875,-0.0312 l -0.75,0.75 c 0.31011,0.0364 0.61757,0.0625 0.9375,0.0625 2.89932,0 5.43923,-1.53855 6.84375,-3.84375 -0.49639,-0.81471 -1.16059,-1.50463 -1.90625,-2.09375 z" class="error"/></g></svg>