<svg xmlns="http://www.w3.org/2000/svg" xmlns:osb="http://www.openswatchbook.org/uri/2009/osb" xmlns:svg="http://www.w3.org/2000/svg" style="enable-background:new" id="svg7384" width="16" height="16" version="1.1"><metadata id="metadata90"/><title id="title8473">Moka Symbolic Icon Theme</title><defs id="defs7386"><linearGradient id="linearGradient5606" osb:paint="solid"><stop style="stop-color:#000;stop-opacity:1" id="stop5608" offset="0"/></linearGradient><filter style="color-interpolation-filters:sRGB" id="filter7554"><feBlend id="feBlend7556" in2="BackgroundImage" mode="darken"/></filter></defs><g style="display:inline" id="layer12" transform="translate(-321.00021,-63.996643)"><path style="color:#bebebe;display:inline;fill:#bebebe;fill-opacity:1;stroke:none" id="rect31984-5" d="m 324.00021,63.996643 0,2 2,0 0,-2 -2,0 z m -3,3 0,2 11,0 0,11 2,0 0,-11 0,-2 -2,0 -11,0 z m 3,3 0,5 0,2 2,0 5,0 0,-2 -5,0 0,-5 -2,0 z m 11,5 0,2 2,0 0,-2 -2,0 z"/></g></svg>