<svg xmlns="http://www.w3.org/2000/svg" xmlns:osb="http://www.openswatchbook.org/uri/2009/osb" xmlns:svg="http://www.w3.org/2000/svg" style="enable-background:new" id="svg7384" width="16" height="16" version="1.1"><metadata id="metadata90"/><title id="title8473">Moka Symbolic Icon Theme</title><defs id="defs7386"><linearGradient id="linearGradient5606" osb:paint="solid"><stop style="stop-color:#000;stop-opacity:1" id="stop5608" offset="0"/></linearGradient><filter style="color-interpolation-filters:sRGB" id="filter7554"><feBlend id="feBlend7556" in2="BackgroundImage" mode="darken"/></filter></defs><path id="path7325" d="m 4.99986,11.99998 3.00024,3.99995 2.99976,-3.99995 z" style="fill:#bebebe;fill-opacity:1;stroke:none"/><path id="path7493" d="m 4,0 0,2 6,0 c 0.42816,0 1,0.61414 1,1 L 11,4 6,4 C 5.08073,4 4.2644,4.38396 3.75,4.96875 3.2356,5.55354 2.99361,6.27938 3,7 3.006,7.72062 3.26893,8.45271 3.78125,9.03125 4.29357,9.60979 5.09172,10 6,10 l 5,0 1,0 1,0 0,-1 0,-1 0,-5 C 13,1.36566 11.6802,0 10,0 L 4,0 Z m 2,6 5,0 0,2 -5,0 C 5.60213,8 5.43309,7.89021 5.28125,7.71875 5.12941,7.54729 5.00248,7.27938 5,7 4.998,6.72062 5.10467,6.44646 5.25,6.28125 5.39533,6.11604 5.57764,6 6,6 Z" style="color:#000;font-style:normal;font-variant:normal;font-weight:400;font-stretch:normal;line-height:normal;font-family:Sans;-inkscape-font-specification:Sans;text-indent:0;text-align:start;text-decoration:none;text-decoration-line:none;letter-spacing:normal;word-spacing:normal;text-transform:none;direction:ltr;block-progression:tb;writing-mode:lr-tb;baseline-shift:baseline;text-anchor:start;display:inline;overflow:visible;visibility:visible;fill:#bebebe;fill-opacity:1;stroke:none;stroke-width:2;marker:none;enable-background:accumulate"/></svg>