<svg xmlns="http://www.w3.org/2000/svg" xmlns:osb="http://www.openswatchbook.org/uri/2009/osb" xmlns:svg="http://www.w3.org/2000/svg" style="enable-background:new" id="svg7384" width="16" height="16" version="1.1"><metadata id="metadata90"/><title id="title8473">Moka Symbolic Icon Theme</title><defs id="defs7386"><linearGradient id="linearGradient5606" osb:paint="solid"><stop style="stop-color:#000;stop-opacity:1" id="stop5608" offset="0"/></linearGradient><filter style="color-interpolation-filters:sRGB" id="filter7554"><feBlend id="feBlend7556" in2="BackgroundImage" mode="darken"/></filter></defs><path id="path15265" d="M 4.99986,12 8.00011,15.99995 10.99986,12 Z" style="fill:#bebebe;fill-opacity:1;stroke:none"/><path id="path5157" d="M 8,0 C 5.23858,0 3,2.23858 3,5 3,7.76142 5.23858,10 8,10 10.76142,10 13,7.76142 13,5 13,2.23858 10.76142,0 8,0 Z m 0,1 c 2.20914,0 4,1.79086 4,4 C 12,7.20914 10.20914,9 8,9 5.79086,9 4,7.20914 4,5 4,2.79086 5.79086,1 8,1 Z" style="color:#000;display:inline;overflow:visible;visibility:visible;fill:#bebebe;fill-opacity:1;fill-rule:nonzero;stroke:none;stroke-width:6;marker:none;enable-background:accumulate"/></svg>