<svg xmlns="http://www.w3.org/2000/svg" xmlns:osb="http://www.openswatchbook.org/uri/2009/osb" xmlns:svg="http://www.w3.org/2000/svg" style="enable-background:new" id="svg7384" width="16" height="16" version="1.1"><metadata id="metadata90"/><title id="title8473">Moka Symbolic Icon Theme</title><defs id="defs7386"><linearGradient id="linearGradient5606" osb:paint="solid"><stop style="stop-color:#000;stop-opacity:1" id="stop5608" offset="0"/></linearGradient><filter style="color-interpolation-filters:sRGB" id="filter7554"><feBlend id="feBlend7556" in2="BackgroundImage" mode="darken"/></filter></defs><g style="display:inline" id="layer12" transform="translate(-301.00062,-63.996666)"><path style="color:#bebebe;display:inline;overflow:visible;visibility:visible;fill:#e13f2b;fill-opacity:1;fill-rule:nonzero;stroke:none;stroke-width:1.90939796;marker:none;enable-background:accumulate" id="path3482-5-5" d="m 313.50021,72.996653 c -1.93299,0 -3.49999,1.567 -3.49999,3.49999 0,1.93299 1.567,3.49999 3.49999,3.49999 1.93299,0 3.49999,-1.567 3.49999,-3.49999 0,-1.93299 -1.567,-3.49999 -3.49999,-3.49999 z m 0,2.99999 2.5,0 0,1 -2.5,0 -2.5,0 0,-1 z" class="error"/><rect style="color:#000;display:inline;overflow:visible;visibility:visible;fill:#bebebe;fill-opacity:1;fill-rule:nonzero;stroke:none;stroke-width:2;marker:none;enable-background:new" id="rect6620" width="10" height="2" x="304" y="66.997"/><path style="color:#000;display:inline;overflow:visible;visibility:visible;fill:#bebebe;fill-opacity:1;fill-rule:nonzero;stroke:none;stroke-width:2;marker:none;enable-background:new" id="rect6622" d="m 304.00021,70.99664 0,2 6.6875,0 c 0.77002,-0.61639 1.74945,-1 2.8125,-1 0.17178,0 0.33323,0.0438 0.5,0.0625 l 0,-1.0625 -10,0 z"/><path style="color:#000;display:inline;overflow:visible;visibility:visible;fill:#bebebe;fill-opacity:1;fill-rule:nonzero;stroke:none;stroke-width:2;marker:none;enable-background:new" id="rect6624" d="m 304.00021,74.99664 0,2 5.0625,0 c -0.0187,-0.16677 -0.0625,-0.32822 -0.0625,-0.5 0,-0.53043 0.11271,-1.02745 0.28125,-1.5 l -5.28125,0 z"/></g></svg>