<svg xmlns="http://www.w3.org/2000/svg" xmlns:osb="http://www.openswatchbook.org/uri/2009/osb" xmlns:svg="http://www.w3.org/2000/svg" style="enable-background:new" id="svg7384" width="16" height="16" version="1.1"><metadata id="metadata90"/><title id="title8473">Moka Symbolic Icon Theme</title><defs id="defs7386"><linearGradient id="linearGradient5606" osb:paint="solid"><stop style="stop-color:#000;stop-opacity:1" id="stop5608" offset="0"/></linearGradient><filter style="color-interpolation-filters:sRGB" id="filter7554"><feBlend id="feBlend7556" in2="BackgroundImage" mode="darken"/></filter></defs><g style="display:inline" id="layer12" transform="translate(-581.0002,-3.9966419)"><path style="color:#bebebe;font-style:normal;font-variant:normal;font-weight:400;font-stretch:normal;line-height:normal;font-family:Sans;-inkscape-font-specification:Sans;text-indent:0;text-align:start;text-decoration:none;text-decoration-line:none;letter-spacing:normal;word-spacing:normal;text-transform:none;direction:ltr;block-progression:tb;writing-mode:lr-tb;baseline-shift:baseline;text-anchor:start;display:inline;overflow:visible;visibility:visible;fill:#bebebe;fill-opacity:1;stroke:none;stroke-width:2;marker:none;enable-background:accumulate" id="path6293" d="m 585.0002,5.99666 0,2 7,0 c 1.6793,0 3,1.3207 3,3 0,1.6793 -1.3207,3 -3,3 l -1,0 0,-2 -5,3 5,3 0,-2 1,0 c 2.75085,0.10093 5,-2.2473 5,-5 0,-2.7527 -2.2473,-5 -5,-5 l -7,0 z m -2,7 a 2,2 0 0 0 -2,2 2,2 0 0 0 2,2 2,2 0 0 0 2,-2 2,2 0 0 0 -2,-2 z"/></g></svg>