<svg xmlns="http://www.w3.org/2000/svg" xmlns:osb="http://www.openswatchbook.org/uri/2009/osb" xmlns:svg="http://www.w3.org/2000/svg" style="enable-background:new" id="svg7384" width="16" height="16" version="1.1"><metadata id="metadata90"/><title id="title8473">Moka Symbolic Icon Theme</title><defs id="defs7386"><linearGradient id="linearGradient5606" osb:paint="solid"><stop style="stop-color:#000;stop-opacity:1" id="stop5608" offset="0"/></linearGradient><filter style="color-interpolation-filters:sRGB" id="filter7554"><feBlend id="feBlend7556" in2="BackgroundImage" mode="darken"/></filter></defs><g style="display:inline" id="layer12" transform="translate(-361.0002,-103.99664)"><path style="display:inline;fill:#bebebe;fill-opacity:1;stroke:none" id="path3015-9-2" d="m 361.84395,105.00352 c -0.28125,0.0469 -0.84375,0.25 -0.84375,1 l 0,9 c 0,0 0,1 1,1 l 6,0 0,-4 c 0,0 7e-5,-0.0712 0,-0.0937 l -6.28125,-4.5 0.5625,-0.8125 6.03125,4.3125 c 0.29997,-0.44866 0.9383,-0.90625 1.6875,-0.90625 l 0.96875,0 4.75,-3.40625 0.5625,0.8125 -3.625,2.59375 3.34375,0 c 0.36709,0 0.71142,0.11486 1,0.28125 l 0,-4.28125 c 0,0 0,-1 -1,-1 l -14,0 c 0,0 -0.0625,-0.0156 -0.15625,0 z"/><path style="color:#bebebe;display:inline;overflow:visible;visibility:visible;fill:#f57900;fill-opacity:1;fill-rule:nonzero;stroke:none;stroke-width:2;marker:none" id="path6872-9" d="m 370.0002,119.00352 c -1,0 -1,-1 -1,-1 l 0,-6 c 0,-1 1,-1 1,-1 l 6,0 c 0,0 1,0 1,1 l 0,6 c 0,0 0,1 -1,1 z m 2,-1 2,0 0,-4 -2,0 z m 0,-5 2,0 0,-1 -2,0 z" class="warning"/></g></svg>