<svg xmlns="http://www.w3.org/2000/svg" xmlns:osb="http://www.openswatchbook.org/uri/2009/osb" xmlns:svg="http://www.w3.org/2000/svg" id="svg7384" width="16" height="16" version="1.1" style="enable-background:new"><metadata id="metadata90"/><title id="title8473">Moka Symbolic Icon Theme</title><defs id="defs7386"><linearGradient id="linearGradient5606" osb:paint="solid"><stop id="stop5608" offset="0" style="stop-color:#000;stop-opacity:1"/></linearGradient><filter id="filter7554" style="color-interpolation-filters:sRGB"><feBlend id="feBlend7556" in2="BackgroundImage" mode="darken"/></filter></defs><g id="layer12" transform="translate(-302.0002,-150)" style="display:inline"><rect id="rect6315" width="1" height="15" x="305" y="151" ry="0" style="color:#000;display:inline;overflow:visible;visibility:visible;fill:#bebebe;fill-opacity:1;fill-rule:nonzero;stroke:none;stroke-width:2;marker:none;enable-background:accumulate"/><path id="rect6317" d="M 314.65645,150.84375 C 311.83174,150.56445 311.0627,155.25 307.0002,152 l 0,8 c 5,4 5,-4 10,0 l 0,-8 c -0.9375,-0.75 -1.69189,-1.0918 -2.34375,-1.15625 z m -0.46875,1.03125 c 0.39006,-0.0624 0.96097,0.0947 1.8125,0.6875 l 0,5.6875 c -0.7477,-0.31934 -1.47493,-0.47901 -2.125,-0.375 -1.10988,0.17758 -1.875,0.84375 -2.5,1.34375 -0.625,0.5 -1.10988,0.83383 -1.5625,0.90625 -0.39006,0.0624 -0.96097,-0.0947 -1.8125,-0.6875 l 0,-5.6875 c 0.7477,0.31934 1.47493,0.47901 2.125,0.375 1.10988,-0.17758 1.875,-0.84375 2.5,-1.34375 0.625,-0.5 1.10988,-0.83383 1.5625,-0.90625 z" style="color:#000;display:inline;overflow:visible;visibility:visible;fill:#bebebe;fill-opacity:1;fill-rule:nonzero;stroke:none;stroke-width:2;marker:none;enable-background:accumulate"/></g></svg>