<svg xmlns="http://www.w3.org/2000/svg" xmlns:osb="http://www.openswatchbook.org/uri/2009/osb" xmlns:svg="http://www.w3.org/2000/svg" style="enable-background:new" id="svg7384" width="16" height="16" version="1.1"><metadata id="metadata90"/><title id="title8473">Moka Symbolic Icon Theme</title><defs id="defs7386"><linearGradient id="linearGradient5606" osb:paint="solid"><stop style="stop-color:#000;stop-opacity:1" id="stop5608" offset="0"/></linearGradient><filter style="color-interpolation-filters:sRGB" id="filter7554"><feBlend id="feBlend7556" in2="BackgroundImage" mode="darken"/></filter></defs><g style="display:inline" id="layer12" transform="translate(-381.00035,-23.996643)"><path style="color:#000;display:inline;overflow:visible;visibility:visible;fill:#bebebe;fill-opacity:1;fill-rule:nonzero;stroke:none;stroke-width:2;marker:none;enable-background:new" id="path5874" d="m 389.0002,23.99664 c -2.76142,0 -5,2.23858 -5,5 0,0.17259 0.0142,0.33191 0.0312,0.5 0.0137,0.16725 0.0358,0.33617 0.0625,0.5 0.57248,3.51444 3.99064,6.25316 4.90625,9 0.91561,-2.74684 4.33377,-5.48556 4.90625,-9 0.0267,-0.16383 0.0488,-0.33275 0.0625,-0.5 0.0171,-0.16809 0.0312,-0.32741 0.0312,-0.5 0,-2.76142 -2.23858,-5 -5,-5 z m 0,3 c 1.10457,0 2,0.89543 2,2 0,1.10457 -0.89543,2 -2,2 -1.10457,0 -2,-0.89543 -2,-2 0,-1.10457 0.89543,-2 2,-2 z"/></g></svg>