<svg xmlns="http://www.w3.org/2000/svg" xmlns:osb="http://www.openswatchbook.org/uri/2009/osb" xmlns:svg="http://www.w3.org/2000/svg" style="enable-background:new" id="svg7384" width="16" height="16" version="1.1"><metadata id="metadata90"/><title id="title8473">Moka Symbolic Icon Theme</title><defs id="defs7386"><linearGradient id="linearGradient5606" osb:paint="solid"><stop style="stop-color:#000;stop-opacity:1" id="stop5608" offset="0"/></linearGradient><filter style="color-interpolation-filters:sRGB" id="filter7554"><feBlend id="feBlend7556" in2="BackgroundImage" mode="darken"/></filter></defs><g style="display:inline" id="layer12" transform="translate(-341.0002,-103.99664)"><path style="fill:#bebebe;fill-opacity:1;stroke:none" id="path5960" d="m 343.0002,105.99664 c 0,0 -2,0 -2,2 l 0,6 c 0,2 2,2 2,2 l 1,0 2,0 2,0 4,0 c 1.108,0 1.94467,-0.89338 2,-2 l 0,-1 0,-1 3,-3 -3,0 0,-1 c 0,-2 -1.96875,-2 -1.96875,-2 z m 0,5 7,0 0,1 -7,0 z m 0,2 5,0 0,1 -5,0 z"/></g></svg>