<svg xmlns="http://www.w3.org/2000/svg" xmlns:osb="http://www.openswatchbook.org/uri/2009/osb" xmlns:svg="http://www.w3.org/2000/svg" id="svg7384" width="16" height="16" version="1.1" style="enable-background:new"><metadata id="metadata90"/><title id="title8473">Moka Symbolic Icon Theme</title><defs id="defs7386"><linearGradient id="linearGradient5606" osb:paint="solid"><stop id="stop5608" offset="0" style="stop-color:#000;stop-opacity:1"/></linearGradient><filter id="filter7554" style="color-interpolation-filters:sRGB"><feBlend id="feBlend7556" in2="BackgroundImage" mode="darken"/></filter></defs><g id="layer12" transform="translate(-380.00021,-63.996641)" style="display:inline"><path id="rect6016" d="m 387.0002,64.99664 0,2 2,0 0,-2 -2,0 z m 0,6 0,8 2,0 0,-8 -2,0 z" style="color:#bebebe;display:inline;overflow:visible;visibility:visible;fill:#bebebe;fill-opacity:1;fill-rule:nonzero;stroke:none;stroke-width:.2;marker:none;enable-background:accumulate"/><path id="rect6018" d="m 392.0002,64.99664 0,9 2,0 0,-9 -2,0 z m 0,13 0,1 2,0 0,-1 -2,0 z" style="color:#bebebe;display:inline;overflow:visible;visibility:visible;fill:#bebebe;fill-opacity:1;fill-rule:nonzero;stroke:none;stroke-width:.2;marker:none;enable-background:accumulate"/><path id="rect6020" d="m 382.0002,64.99664 0,7 2,0 0,-7 -2,0 z m 0,11 0,3 2,0 0,-3 -2,0 z" style="color:#bebebe;display:inline;overflow:visible;visibility:visible;fill:#bebebe;fill-opacity:1;fill-rule:nonzero;stroke:none;stroke-width:.2;marker:none;enable-background:accumulate"/><rect id="rect6022" width="4" height="2" x="381" y="72.997" ry=".5" style="color:#bebebe;display:inline;overflow:visible;visibility:visible;fill:#bebebe;fill-opacity:1;fill-rule:nonzero;stroke:none;stroke-width:.2;marker:none;enable-background:accumulate"/><rect id="rect6024" width="4" height="2" x="386" y="67.997" ry=".5" style="color:#bebebe;display:inline;overflow:visible;visibility:visible;fill:#bebebe;fill-opacity:1;fill-rule:nonzero;stroke:none;stroke-width:.2;marker:none;enable-background:accumulate"/><rect id="rect6026" width="4" height="2" x="391" y="74.997" ry=".5" style="color:#bebebe;display:inline;overflow:visible;visibility:visible;fill:#bebebe;fill-opacity:1;fill-rule:nonzero;stroke:none;stroke-width:.2;marker:none;enable-background:accumulate"/></g></svg>