<svg xmlns="http://www.w3.org/2000/svg" xmlns:osb="http://www.openswatchbook.org/uri/2009/osb" xmlns:svg="http://www.w3.org/2000/svg" style="enable-background:new" id="svg7384" width="16" height="16" version="1.1"><metadata id="metadata90"/><title id="title8473">Moka Symbolic Icon Theme</title><defs id="defs7386"><linearGradient id="linearGradient5606" osb:paint="solid"><stop style="stop-color:#000;stop-opacity:1" id="stop5608" offset="0"/></linearGradient><filter style="color-interpolation-filters:sRGB" id="filter7554"><feBlend id="feBlend7556" in2="BackgroundImage" mode="darken"/></filter></defs><g style="display:inline" id="layer12" transform="translate(-441.0002,35)"><path style="color:#bebebe;text-indent:0;text-transform:none;block-progression:tb;fill:#bebebe;fill-opacity:1;stroke:none;enable-background:new" id="path5027" d="m 449.03144,-33.93752 c -3.8533,0 -6.96875,3.11545 -6.96875,6.96875 0,3.8533 3.11545,6.96875 6.96875,6.96875 3.8533,0 6.96875,-3.11545 6.96875,-6.96875 0,-3.8533 -3.11545,-6.96875 -6.96875,-6.96875 z m -4.03125,2.9375 1,0 c 0.27614,0 0.53779,0.10028 0.71875,0.28125 l 2.28125,2.28125 2.28125,-2.28125 c 0.18096,-0.18097 0.44261,-0.28125 0.71875,-0.28125 l 1,0 0,1 c 0,0.27614 -0.10029,0.53778 -0.28125,0.71875 l -2.28125,2.28125 2.28125,2.28125 c 0.18096,0.18097 0.28125,0.44261 0.28125,0.71875 l 0,1 -1,0 c -0.27614,0 -0.53779,-0.10028 -0.71875,-0.28125 l -2.28125,-2.28125 -2.28125,2.28125 c -0.18096,0.18097 -0.44261,0.28125 -0.71875,0.28125 l -1,0 0,-1 c 0,-0.27614 0.10029,-0.53778 0.28125,-0.71875 l 2.28125,-2.28125 -2.28125,-2.28125 c -0.18096,-0.18097 -0.28125,-0.44261 -0.28125,-0.71875 l 0,-1 z"/></g></svg>