<svg xmlns="http://www.w3.org/2000/svg" xmlns:osb="http://www.openswatchbook.org/uri/2009/osb" xmlns:svg="http://www.w3.org/2000/svg" style="enable-background:new" id="svg7384" width="16" height="16" version="1.1"><metadata id="metadata90"/><title id="title8473">Moka Symbolic Icon Theme</title><defs id="defs7386"><linearGradient id="linearGradient5606" osb:paint="solid"><stop style="stop-color:#000;stop-opacity:1" id="stop5608" offset="0"/></linearGradient><filter style="color-interpolation-filters:sRGB" id="filter7554"><feBlend id="feBlend7556" in2="BackgroundImage" mode="darken"/></filter></defs><g style="display:inline" id="layer12" transform="translate(-321.0002,-123.99664)"><path style="color:#bebebe;font-style:normal;font-variant:normal;font-weight:400;font-stretch:normal;line-height:normal;font-family:Sans;-inkscape-font-specification:Sans;text-indent:0;text-align:start;text-decoration:none;text-decoration-line:none;letter-spacing:normal;word-spacing:normal;text-transform:none;direction:ltr;block-progression:tb;writing-mode:lr-tb;baseline-shift:baseline;text-anchor:start;display:inline;overflow:visible;visibility:visible;fill:#bebebe;fill-opacity:1;fill-rule:nonzero;stroke:none;stroke-width:0;marker:none;enable-background:accumulate" id="path4446" d="m 330.49985,125.49664 6.4707,4.5 -6.4707,4.5 0,-1.04297 4.9707,-3.45703 -4.9707,-3.45703 z"/><path style="color:#bebebe;font-style:normal;font-variant:normal;font-weight:400;font-stretch:normal;line-height:normal;font-family:Sans;-inkscape-font-specification:Sans;text-indent:0;text-align:start;text-decoration:none;text-decoration-line:none;letter-spacing:normal;word-spacing:normal;text-transform:none;direction:ltr;block-progression:tb;writing-mode:lr-tb;baseline-shift:baseline;text-anchor:start;display:inline;overflow:visible;visibility:visible;fill:#bebebe;fill-opacity:1;fill-rule:nonzero;stroke:none;stroke-width:0;marker:none;enable-background:accumulate" id="path4448" d="m 327.0002,125.5 0,2.5 -1,0 c -3,0 -5,2.12648 -5,5.25 0,3.25 4,4.75 4,4.75 0,0 -1.87513,-2.65246 -1.4375,-4 0.36589,-1.12665 1.57259,-2 2.9375,-2 l 0.5,0 0,2.5 6.46875,-4.5 -6.46875,-4.5 z m 1,1.90625 3.75,2.59375 -3.75,2.59375 0,-0.59375 0,-1 -1,0 -0.5,0 c -1.79148,0 -3.35644,1.09092 -3.875,2.6875 -0.14931,0.4599 -0.0894,0.86608 -0.0312,1.28125 -0.35081,-0.49827 -0.59375,-1.04749 -0.59375,-1.71875 0,-1.34833 0.41398,-2.37742 1.09375,-3.09375 C 323.77372,129.43992 324.73648,129 326.0002,129 l 1,0 1,0 0,-1 0,-0.59375 z"/></g></svg>