<svg xmlns="http://www.w3.org/2000/svg" xmlns:osb="http://www.openswatchbook.org/uri/2009/osb" xmlns:svg="http://www.w3.org/2000/svg" id="svg7384" width="16" height="16" version="1.1" style="enable-background:new"><metadata id="metadata90"/><title id="title8473">Moka Symbolic Icon Theme</title><defs id="defs7386"><linearGradient id="linearGradient5606" osb:paint="solid"><stop id="stop5608" offset="0" style="stop-color:#000;stop-opacity:1"/></linearGradient><filter id="filter7554" style="color-interpolation-filters:sRGB"><feBlend id="feBlend7556" in2="BackgroundImage" mode="darken"/></filter></defs><g id="layer12" transform="translate(-261.00019,-123.99664)" style="display:inline"><path id="path4400-3" d="m 268.0002,125.5 -6.46875,4.5 6.46875,4.5 0,-2.5 2,0 c 1.36491,0 2.5716,0.87335 2.9375,2 0.43763,1.34754 -1.4375,4 -1.4375,4 0,0 4,-1.5 4,-4.75 0,-3.12352 -2,-5.25 -5,-5.25 l -2.5,0 0,-2.5 z m -1,1.90625 0,0.59375 0,1 1,0 2.5,0 c 1.26372,0 2.22648,0.43992 2.90625,1.15625 0.67977,0.71633 1.09375,1.74542 1.09375,3.09375 0,0.67126 -0.24294,1.22048 -0.59375,1.71875 0.0582,-0.41517 0.11806,-0.82135 -0.0312,-1.28125 C 273.35663,132.09093 271.79168,131 270.0002,131 l -2,0 -1,0 0,1 0,0.59375 -3.75,-2.59375 3.75,-2.59375 z" style="color:#bebebe;font-style:normal;font-variant:normal;font-weight:400;font-stretch:normal;line-height:normal;font-family:Sans;-inkscape-font-specification:Sans;text-indent:0;text-align:start;text-decoration:none;text-decoration-line:none;letter-spacing:normal;word-spacing:normal;text-transform:none;direction:ltr;block-progression:tb;writing-mode:lr-tb;baseline-shift:baseline;text-anchor:start;display:inline;overflow:visible;visibility:visible;fill:#bebebe;fill-opacity:1;fill-rule:nonzero;stroke:none;stroke-width:0;marker:none;enable-background:accumulate"/></g></svg>