<svg xmlns="http://www.w3.org/2000/svg" xmlns:osb="http://www.openswatchbook.org/uri/2009/osb" xmlns:svg="http://www.w3.org/2000/svg" style="enable-background:new" id="svg7384" width="16" height="16" version="1.1"><metadata id="metadata90"/><title id="title8473">Moka Symbolic Icon Theme</title><defs id="defs7386"><linearGradient id="linearGradient5606" osb:paint="solid"><stop style="stop-color:#000;stop-opacity:1" id="stop5608" offset="0"/></linearGradient><filter style="color-interpolation-filters:sRGB" id="filter7554"><feBlend id="feBlend7556" in2="BackgroundImage" mode="darken"/></filter></defs><g style="display:inline" id="layer12" transform="translate(-281.00021,-149)"><path style="color:#000;font-style:normal;font-variant:normal;font-weight:400;font-stretch:normal;font-size:medium;line-height:normal;font-family:Sans;-inkscape-font-specification:Sans;text-indent:0;text-align:start;text-decoration:none;text-decoration-line:none;letter-spacing:normal;word-spacing:normal;text-transform:none;direction:ltr;block-progression:tb;writing-mode:lr-tb;baseline-shift:baseline;text-anchor:start;display:inline;overflow:visible;visibility:visible;fill:#bebebe;fill-opacity:1;stroke:none;stroke-width:1;marker:none;enable-background:accumulate" id="path3791" d="m 286.21895,150 -0.3125,0.28125 -3.625,3.625 -0.28125,0.3125 0,0.40625 0,4.75 0,0.40625 0.28125,0.3125 3.625,3.625 0.3125,0.28125 0.40625,0 4.75,0 0.40625,0 0.3125,-0.28125 3.625,-3.625 0.28125,-0.3125 0,-0.40625 0,-4.75 0,-0.40625 -0.28125,-0.3125 -3.625,-3.625 -0.3125,-0.28125 -0.40625,0 -4.75,0 -0.40625,0 z m 0.40625,1 4.75,0 3.625,3.625 0,4.75 -3.625,3.625 -4.75,0 -3.625,-3.625 0,-4.75 3.625,-3.625 z m 1.375,2 c 0,3.34879 0.003,4.31525 0,5 l 2,0 c -0.005,-2 -0.009,-3.00002 0,-5 l -2,0 z m 0,6 0,2 2,0 0,-2 -2,0 z"/></g></svg>