<svg xmlns="http://www.w3.org/2000/svg" xmlns:osb="http://www.openswatchbook.org/uri/2009/osb" xmlns:svg="http://www.w3.org/2000/svg" style="enable-background:new" id="svg7384" width="16" height="16" version="1.1"><metadata id="metadata90"/><title id="title8473">Moka Symbolic Icon Theme</title><defs id="defs7386"><linearGradient id="linearGradient5606" osb:paint="solid"><stop style="stop-color:#000;stop-opacity:1" id="stop5608" offset="0"/></linearGradient><filter style="color-interpolation-filters:sRGB" id="filter7554"><feBlend id="feBlend7556" in2="BackgroundImage" mode="darken"/></filter></defs><path id="path3027-5" d="m 0,9.999989 0,3 9,0 L 9,11 l 2,0 0,-2 3,0 0,-4.000011 c 0,0 0,-2 -2,-2 l -8,0 c 0,0 -2,0 -2,2 l 0,4 c 0,1 -1,1 -1,1 z M 12,10 l 0,2 -2,0 0,2 2,0 0,2 2,0 0,-2 2,0 0,-2 -2,0 0,-2 z" style="fill:#bebebe;fill-opacity:1;stroke:none"/></svg>