<svg xmlns="http://www.w3.org/2000/svg" xmlns:osb="http://www.openswatchbook.org/uri/2009/osb" xmlns:svg="http://www.w3.org/2000/svg" style="enable-background:new" id="svg7384" width="15.982" height="16" version="1.1"><metadata id="metadata90"/><title id="title8473">Moka Symbolic Icon Theme</title><defs id="defs7386"><linearGradient id="linearGradient5606" osb:paint="solid"><stop style="stop-color:#000;stop-opacity:1" id="stop5608" offset="0"/></linearGradient><filter style="color-interpolation-filters:sRGB" id="filter7554"><feBlend id="feBlend7556" in2="BackgroundImage" mode="darken"/></filter></defs><path id="path5311" d="m 3.18732,1.99998 c -0.6627,0 -1.1875,0.54894 -1.1875,1.21875 l 0,9.5625 c 0,0.66976 0.5248,1.21875 1.1875,1.21875 l 9.625,0 c 0.6627,0 1.1875,-0.54894 1.1875,-1.21875 l 0,-9.5625 c 0,-0.66976 -0.5248,-1.21875 -1.1875,-1.21875 l -9.625,0 z m 0.8125,2 3,0 0,2 -1,0 0,1 -2,0 0,-3 z m 5,0 3,0 0,3 -2,0 0,-1 -1,0 0,-2 z m -5,5 2,0 0,1 1,0 0,2 -3,0 0,-3 z m 6,0 2,0 0,3 -3,0 0,-2 1,0 0,-1 z" style="color:#bebebe;fill:#bebebe;stroke:none"/></svg>