<svg xmlns="http://www.w3.org/2000/svg" xmlns:svg="http://www.w3.org/2000/svg" xmlns:xlink="http://www.w3.org/1999/xlink" id="svg4248" width="32" height="32" version="1.1"><defs id="defs4250"><linearGradient id="linearGradient3926"><stop id="stop3928" offset="0" style="stop-color:#fff;stop-opacity:1"/><stop id="stop3930" offset="1" style="stop-color:#fff;stop-opacity:0"/></linearGradient><linearGradient id="linearGradient3952"><stop id="stop3954" offset="0" style="stop-color:#000;stop-opacity:1"/><stop id="stop3956" offset="1" style="stop-color:#000;stop-opacity:0"/></linearGradient><linearGradient id="linearGradient3944"><stop id="stop3946" offset="0" style="stop-color:#000;stop-opacity:1"/><stop id="stop3948" offset="1" style="stop-color:#000;stop-opacity:0"/></linearGradient><linearGradient id="linearGradient3960"><stop id="stop3962" offset="0" style="stop-color:#000;stop-opacity:0"/><stop style="stop-color:#000;stop-opacity:1" id="stop3970" offset=".5"/><stop id="stop3964" offset="1" style="stop-color:#000;stop-opacity:0"/></linearGradient><linearGradient id="linearGradient3921" x1="25" x2="25" y1="45" y2="42" gradientTransform="translate(-7,-14.000001)" gradientUnits="userSpaceOnUse" xlink:href="#linearGradient3960"/><radialGradient id="radialGradient3924" cx="9" cy="43.5" r="2" fx="9" fy="43.5" gradientTransform="matrix(1,0,0,0.75,-6,-3.125001)" gradientUnits="userSpaceOnUse" xlink:href="#linearGradient3944"/><radialGradient id="radialGradient3927" cx="40" cy="43.5" r="2" fx="40" fy="43.5" gradientTransform="matrix(1,0,0,0.75,-11,-3.125001)" gradientUnits="userSpaceOnUse" xlink:href="#linearGradient3952"/><linearGradient id="linearGradient3932" x1="3" x2="29" y1="16" y2="16" gradientTransform="matrix(0,1,-1,0,32,-2)" gradientUnits="userSpaceOnUse" xlink:href="#linearGradient3926"/><linearGradient id="linearGradient3934" x1="2.5" x2="29.5" y1="16" y2="16" gradientTransform="matrix(0,-1,1,0,0,30)" gradientUnits="userSpaceOnUse" xlink:href="#linearGradient4099"/><linearGradient id="linearGradient4099"><stop style="stop-color:#a7a7a7;stop-opacity:1" id="stop4101" offset="0"/><stop style="stop-color:#d1d1d1;stop-opacity:1" id="stop4103" offset="1"/></linearGradient></defs><metadata id="metadata4253"/><g id="layer1"><g id="g3930" transform="translate(0,-2)"><path style="opacity:.3;fill:url(#radialGradient3927);fill-opacity:1;stroke:none" id="rect3940" d="m 29,27.999999 0,3 0.5,0 c 0.831,0 1.5,-0.669 1.5,-1.5 0,-0.831 -0.669,-1.5 -1.5,-1.5 l -0.5,0 z"/><path style="opacity:.3;fill:url(#radialGradient3924);fill-opacity:1;stroke:none" id="rect3942" d="M 2.40625,27.999999 C 1.6271875,27.999999 1,28.627186 1,29.406249 l 0,0.1875 c 0,0.779063 0.6271875,1.40625 1.40625,1.40625 l 0.59375,0 0,-3 -0.59375,0 z"/><path style="opacity:.3;fill:url(#linearGradient3921);fill-opacity:1;stroke:none" id="rect3938" d="M 2.9998571,27.999999 29,28 l 0,3 -26.0001429,-1e-6 z"/></g><path id="rect3894" d="M 4,27.5 C 3.1782489,27.5 2.5,26.821752 2.5,26 L 2.5,6 C 2.5,5.178248 3.1782489,4.5 4,4.5 l 24,0 c 0.821751,0 1.5,0.678249 1.5,1.5 l 0,20 c 0,0.821751 -0.678249,1.5 -1.5,1.5 z" style="fill:url(#linearGradient3934);fill-opacity:1;fill-rule:evenodd;stroke:none"/><path id="path3951" d="M 29,6 C 29,5.4373514 28.562649,5 28,5 L 4,5 C 3.437351,5 3,5.4373514 3,6 l 0,20 c 0,0.562649 0.437351,1 1,1 l 24,0 c 0.562649,0 1,-0.437351 1,-1 z M 28,6 28,26 4,26 4,6 z" style="opacity:.1;fill:url(#linearGradient3932);fill-opacity:1;fill-rule:evenodd;stroke:none"/><path style="opacity:.41;fill:none;stroke:#000;stroke-opacity:1" id="path3906" d="M 2.5,26 2.5,6 C 2.5,5.169 3.169,4.5 4,4.5 l 24,0 c 0.831,0 1.5,0.669 1.5,1.5 l 0,20 c 0,0.831 -0.669,1.5 -1.5,1.5 l -24,0 C 3.169,27.5 2.5,26.831 2.5,26 z"/><path id="path3935" d="M 4,5 C 3.4373514,5 3,5.4373514 3,6 L 3,7 C 3,6.4373514 3.4373514,6 4,6 l 24,0 c 0.562649,0 1,0.4373514 1,1 L 29,6 C 29,5.4373514 28.562649,5 28,5 z" style="opacity:.05;fill:#fff;fill-opacity:1;fill-rule:evenodd;stroke:none"/><path style="opacity:.05;fill:#fff;fill-opacity:1;fill-rule:evenodd;stroke:none" id="path3949" d="M 4,27 C 3.4373514,27 3,26.562649 3,26 l 0,-1 c 0,0.562649 0.4373514,1 1,1 l 24,0 c 0.562649,0 1,-0.437351 1,-1 l 0,1 c 0,0.562649 -0.437351,1 -1,1 z"/></g></svg>