<svg xmlns="http://www.w3.org/2000/svg" xmlns:svg="http://www.w3.org/2000/svg" xmlns:xlink="http://www.w3.org/1999/xlink" id="svg3828" width="24" height="24" version="1.1"><defs id="defs3830"><linearGradient id="linearGradient3801"><stop id="stop3803" offset="0" style="stop-color:#fff;stop-opacity:1"/><stop id="stop3805" offset="1" style="stop-color:#fff;stop-opacity:0"/></linearGradient><linearGradient id="linearGradient3003" x1="25.132" x2="25.132" y1=".985" y2="47.013" gradientTransform="matrix(0.48571543,0,0,-0.45629579,0.3428297,21.651132)" gradientUnits="userSpaceOnUse" xlink:href="#linearGradient3988-5"/><linearGradient id="linearGradient3988-5"><stop id="stop3990-5" offset="0" style="stop-color:#ededed;stop-opacity:1"/><stop id="stop3992-0" offset="1" style="stop-color:#fafafa;stop-opacity:1"/></linearGradient><linearGradient id="linearGradient3807" x1="10" x2="10" y1="0" y2="22" gradientTransform="translate(1,-1)" gradientUnits="userSpaceOnUse" xlink:href="#linearGradient3801"/><linearGradient id="linearGradient3952"><stop id="stop3954" offset="0" style="stop-color:#000;stop-opacity:1"/><stop id="stop3956" offset="1" style="stop-color:#000;stop-opacity:0"/></linearGradient><linearGradient id="linearGradient3944"><stop id="stop3946" offset="0" style="stop-color:#000;stop-opacity:1"/><stop id="stop3948" offset="1" style="stop-color:#000;stop-opacity:0"/></linearGradient><linearGradient id="linearGradient3960"><stop id="stop3962" offset="0" style="stop-color:#000;stop-opacity:0"/><stop style="stop-color:#000;stop-opacity:1" id="stop3970" offset=".5"/><stop id="stop3964" offset="1" style="stop-color:#000;stop-opacity:0"/></linearGradient><linearGradient id="linearGradient3043" x1="25" x2="25" y1="45" y2="42" gradientTransform="matrix(1.1428571,0,0,1,-10.857143,-23)" gradientUnits="userSpaceOnUse" xlink:href="#linearGradient3960"/><radialGradient id="radialGradient3046" cx="9" cy="43.5" r="2" fx="9" fy="43.5" gradientTransform="matrix(1,0,0,0.75,-5,-12.125)" gradientUnits="userSpaceOnUse" xlink:href="#linearGradient3944"/><radialGradient id="radialGradient3050" cx="40" cy="43.5" r="2" fx="40" fy="43.5" gradientTransform="matrix(1,0,0,0.75,-20,-12.125)" gradientUnits="userSpaceOnUse" xlink:href="#linearGradient3952"/><linearGradient id="linearGradient3242" x1="12" x2="12" y1="16" y2="9" gradientTransform="translate(0,6)" gradientUnits="userSpaceOnUse" xlink:href="#linearGradient3920"/><linearGradient id="linearGradient3920"><stop style="stop-color:#f8f8f8;stop-opacity:1" id="stop3922" offset="0"/><stop style="stop-color:#e6e6e6;stop-opacity:1" id="stop3924" offset="1"/></linearGradient></defs><metadata id="metadata3833"/><g style="display:inline" id="layer1" transform="translate(0,2)"><path id="rect3940" d="m 20,19 0,3 0.5,0 C 21.331,22 22,21.331 22,20.5 22,19.669 21.331,19 20.5,19 L 20,19 z" style="opacity:.2;fill:url(#radialGradient3050);fill-opacity:1;stroke:none"/><path id="rect3942" d="M 3.40625,19 C 2.6271875,19 2,19.627187 2,20.40625 l 0,0.1875 C 2,21.372813 2.6271875,22 3.40625,22 L 4,22 4,19 3.40625,19 z" style="opacity:.2;fill:url(#radialGradient3046);fill-opacity:1;stroke:none"/><path id="rect3938" d="m 4,19 16,0 0,3 -16,0 z" style="opacity:.2;fill:url(#linearGradient3043);fill-opacity:1;stroke:none"/><path style="fill:url(#linearGradient3003);fill-opacity:1;stroke:none;display:inline" id="path4160-3" d="m 3.4999609,20.500039 c 3.8955809,0 17.0000591,-0.0014 17.0000591,-0.0014 l 2.1e-5,-20.998676 c 0,0 -11.333386,0 -17.0000801,0 0,7.000005 0,14.000008 0,21.000014 z"/><path style="opacity:.41000001;fill:none;stroke:#000;stroke-width:.99992186;stroke-linecap:butt;stroke-linejoin:round;stroke-miterlimit:4;stroke-opacity:1;stroke-dasharray:none;stroke-dashoffset:0;display:inline" id="path4160-3-5" d="m 3.4999609,-0.5000371 c 3.8955809,0 17.0000591,0.0014 17.0000591,0.0014 l 2.1e-5,20.9986761 c 0,0 -11.333386,0 -17.0000801,0 0,-7.000005 0,-14.0000081 0,-21.0000141 z"/><path id="path3780" d="m 4,0 0,1 c 4.1579948,7.52e-5 15.292656,-7.52e-5 16,0 L 20,0 C 19.292656,-7.52e-5 8.1579948,7.52e-5 4,0 z" style="opacity:.4;fill:#fff;fill-opacity:1;stroke:none;display:inline"/><path id="rect3796" d="M 4,0 4,20 20,20 20,0 z M 5,1 19,1 19,19 5,19 z" style="opacity:.4;fill:url(#linearGradient3807);fill-opacity:1"/></g><g id="layer2" transform="translate(0,2)"><path style="opacity:.4;color:#000;fill:#fff;fill-opacity:1;fill-rule:nonzero;stroke:none;stroke-width:1;marker:none;visibility:visible;display:inline;overflow:visible;enable-background:accumulate" id="path3842" d="m 14.05016,5 0,5.99979 2.50016,0 L 12.05016,17 7.55,10.99979 l 2.50016,0 0,-5.99979 z"/><path id="rect3005" d="m 14.05016,4 0,5.99979 2.50016,0 L 12.05016,16 7.55,9.99979 l 2.50016,0 0,-5.99979 z" style="color:#000;fill:#bbb;fill-opacity:1;fill-rule:nonzero;stroke:none;stroke-width:1;marker:none;visibility:visible;display:inline;overflow:visible;enable-background:accumulate"/><path id="path3422" d="m 10.0625,4 0,1 4,0 0,-1 -4,0 z m -2.5,6 0.75,1 1.75,0 0,-1 -2.5,0 z m 6.5,0 0,1 1.75,0 0.75,-1 -2.5,0 z" style="opacity:.1;color:#000;fill:#000;fill-opacity:1;fill-rule:nonzero;stroke:none;stroke-width:1;marker:none;visibility:visible;display:inline;overflow:visible;enable-background:accumulate"/><g id="g3059" transform="translate(1,-1)"><path id="path3244" d="m 11,14.5 c -1.097031,0 -2,0.902969 -2,2 l 0,4 c 0,1.097031 0.902969,2 2,2 l 9,0 c 1.097031,0 2,-0.902969 2,-2 l 0,-4 c 0,-1.097031 -0.902969,-2 -2,-2 z m 0,1 9,0 c 0.547671,0 1,0.452329 1,1 l 0,4 c 0,0.547671 -0.452329,1 -1,1 l -9,0 c -0.547671,0 -1,-0.452329 -1,-1 l 0,-4 c 0,-0.547671 0.452329,-1 1,-1 z" style="font-size:medium;font-style:normal;font-variant:normal;font-weight:400;font-stretch:normal;text-indent:0;text-align:start;text-decoration:none;line-height:normal;letter-spacing:normal;word-spacing:normal;text-transform:none;direction:ltr;block-progression:tb;writing-mode:lr-tb;text-anchor:start;baseline-shift:baseline;opacity:.31000001;color:#000;fill:#000;fill-opacity:1;stroke:none;stroke-width:1;marker:none;visibility:visible;display:inline;overflow:visible;enable-background:accumulate;font-family:Sans;-inkscape-font-specification:Sans"/><path style="fill:url(#linearGradient3242);fill-opacity:1;fill-rule:evenodd;stroke:none" id="rect3140" d="m 11,14.5 c -0.822351,0 -1.5,0.677649 -1.5,1.5 l 0,4 c 0,0.822351 0.677649,1.5 1.5,1.5 l 9,0 c 0.822351,0 1.5,-0.677649 1.5,-1.5 l 0,-4 c 0,-0.822351 -0.677649,-1.5 -1.5,-1.5 z"/><path style="font-size:medium;font-style:normal;font-variant:normal;font-weight:400;font-stretch:normal;text-indent:0;text-align:start;text-decoration:none;line-height:normal;letter-spacing:normal;word-spacing:normal;text-transform:none;direction:ltr;block-progression:tb;writing-mode:lr-tb;text-anchor:start;baseline-shift:baseline;opacity:.31000001;color:#000;fill:#000;fill-opacity:1;stroke:none;stroke-width:1;marker:none;visibility:visible;display:inline;overflow:visible;enable-background:accumulate;font-family:Sans;-inkscape-font-specification:Sans" id="path3925" d="m 11,14 c -1.097031,0 -2,0.902969 -2,2 l 0,4 c 0,1.097031 0.902969,2 2,2 l 9,0 c 1.097031,0 2,-0.902969 2,-2 l 0,-4 c 0,-1.097031 -0.902969,-2 -2,-2 z m 0,1 9,0 c 0.547671,0 1,0.452329 1,1 l 0,4 c 0,0.547671 -0.452329,1 -1,1 l -9,0 c -0.547671,0 -1,-0.452329 -1,-1 l 0,-4 c 0,-0.547671 0.452329,-1 1,-1 z"/><rect style="opacity:.1;fill:#000;fill-opacity:1;stroke:none" id="rect3951" width="6" height="6" x="10" y="15" ry="0"/><path style="opacity:.2;fill:#000;fill-opacity:1;stroke:none" id="rect3956" d="m 11,16 0,0.5 1,0 0,3 -1,0 0,0.5 3,0 0,-0.5 -1,0 0,-3 1,0 0,-0.5 z"/></g></g></svg>