<svg xmlns="http://www.w3.org/2000/svg" xmlns:svg="http://www.w3.org/2000/svg" xmlns:xlink="http://www.w3.org/1999/xlink" id="svg3828" width="24" height="24" version="1.1"><defs id="defs3830"><linearGradient id="linearGradient3801"><stop id="stop3803" offset="0" style="stop-color:#fff;stop-opacity:1"/><stop id="stop3805" offset="1" style="stop-color:#fff;stop-opacity:0"/></linearGradient><linearGradient id="linearGradient3003" x1="25.132" x2="25.132" y1=".985" y2="47.013" gradientTransform="matrix(0.48571543,0,0,-0.45629579,0.3428297,21.651132)" gradientUnits="userSpaceOnUse" xlink:href="#linearGradient3988-5"/><linearGradient id="linearGradient3988-5"><stop id="stop3990-5" offset="0" style="stop-color:#ededed;stop-opacity:1"/><stop id="stop3992-0" offset="1" style="stop-color:#fafafa;stop-opacity:1"/></linearGradient><linearGradient id="linearGradient3807" x1="10" x2="10" y1="0" y2="22" gradientTransform="translate(1,-1)" gradientUnits="userSpaceOnUse" xlink:href="#linearGradient3801"/><linearGradient id="linearGradient3944"><stop id="stop3946" offset="0" style="stop-color:#000;stop-opacity:1"/><stop id="stop3948" offset="1" style="stop-color:#000;stop-opacity:0"/></linearGradient><linearGradient id="linearGradient3960"><stop id="stop3962" offset="0" style="stop-color:#000;stop-opacity:0"/><stop style="stop-color:#000;stop-opacity:1" id="stop3970" offset=".5"/><stop id="stop3964" offset="1" style="stop-color:#000;stop-opacity:0"/></linearGradient><linearGradient id="linearGradient3043" x1="25" x2="25" y1="45" y2="42" gradientTransform="matrix(1.1428571,0,0,1,-10.857143,-23)" gradientUnits="userSpaceOnUse" xlink:href="#linearGradient3960"/><radialGradient id="radialGradient3046" cx="9" cy="43.5" r="2" fx="9" fy="43.5" gradientTransform="matrix(1,0,0,0.75,-5,-12.125)" gradientUnits="userSpaceOnUse" xlink:href="#linearGradient3944"/><linearGradient id="linearGradient3995"><stop style="stop-color:#1bbaee;stop-opacity:1" id="stop3997" offset="0"/><stop style="stop-color:#295da0;stop-opacity:1" id="stop3999" offset="1"/></linearGradient><linearGradient id="linearGradient3983" x1="14" x2="14" y1="3" y2="19" gradientTransform="matrix(-1,0,0,1,30.01324,-0.95575)" gradientUnits="userSpaceOnUse" xlink:href="#linearGradient3959"/><linearGradient id="linearGradient3959"><stop style="stop-color:#0d546e;stop-opacity:1" id="stop3961" offset="0"/><stop style="stop-color:#1c5875;stop-opacity:1" id="stop3963" offset="1"/></linearGradient><linearGradient id="linearGradient3144" x1="14" x2="14" y1="4" y2="19" gradientTransform="matrix(-1,0,0,1,30.01324,-0.95575)" gradientUnits="userSpaceOnUse" xlink:href="#linearGradient3995"/></defs><metadata id="metadata3833"/><g style="display:inline" id="layer1" transform="translate(0,2)"><path id="rect3942" d="M 3.40625,19 C 2.6271875,19 2,19.627187 2,20.40625 l 0,0.1875 C 2,21.372813 2.6271875,22 3.40625,22 L 4,22 4,19 3.40625,19 z" style="opacity:.2;fill:url(#radialGradient3046);fill-opacity:1;stroke:none"/><path id="rect3938" d="m 4,19 16,0 0,3 -16,0 z" style="opacity:.2;fill:url(#linearGradient3043);fill-opacity:1;stroke:none"/><path style="fill:url(#linearGradient3003);fill-opacity:1;stroke:none;display:inline" id="path4160-3" d="m 3.4999609,20.500039 c 3.8955809,0 17.0000591,-0.0014 17.0000591,-0.0014 l 2.1e-5,-20.998676 c 0,0 -11.333386,0 -17.0000801,0 0,7.000005 0,14.000008 0,21.000014 z"/><path style="opacity:.41000001;fill:none;stroke:#000;stroke-width:.99992186;stroke-linecap:butt;stroke-linejoin:round;stroke-miterlimit:4;stroke-opacity:1;stroke-dasharray:none;stroke-dashoffset:0;display:inline" id="path4160-3-5" d="m 3.4999609,-0.5000371 c 3.8955809,0 17.0000591,0.0014 17.0000591,0.0014 l 2.1e-5,20.9986761 c 0,0 -11.333386,0 -17.0000801,0 0,-7.000005 0,-14.0000081 0,-21.0000141 z"/><path id="path3780" d="m 4,0 0,1 c 4.1579948,7.52e-5 15.292656,-7.52e-5 16,0 L 20,0 C 19.292656,-7.52e-5 8.1579948,7.52e-5 4,0 z" style="opacity:.4;fill:#fff;fill-opacity:1;stroke:none;display:inline"/><path id="rect3796" d="M 4,0 4,20 20,20 20,0 z M 5,1 19,1 19,19 5,19 z" style="opacity:.4;fill:url(#linearGradient3807);fill-opacity:1"/></g><g id="layer2" transform="translate(0,2)"><path id="path4765" d="m 15.79449,3.3255 0.375,0.34375 1.375,1.375 0.34375,0.375 -0.34375,0.34375 -2.78125,2.78125 7.25,-0.03125 0.5,0 0,0.5 0,2 0,0.5 -0.5,0 -7.25,0.03125 2.78125,2.78125 0.34375,0.34375 -0.34375,0.375 -1.375,1.375 -0.375,0.34375 L 15.45074,16.41925 9.45075,10.388 9.107,10.013 9.45075,9.66925 l 5.99999,-6 0.34375,-0.34375 z" style="fill:url(#linearGradient3144);fill-opacity:1;fill-rule:nonzero;stroke:none"/><path style="opacity:.61000001;fill:none;stroke:url(#linearGradient3983);stroke-width:1;stroke-opacity:1" id="path3948" d="m 15.79449,3.3255 0.375,0.34375 1.375,1.375 0.34375,0.375 -0.34375,0.34375 -2.78125,2.78125 7.25,-0.03125 0.5,0 0,0.5 0,2 0,0.5 -0.5,0 -7.25,0.03125 2.78125,2.78125 0.34375,0.34375 -0.34375,0.375 -1.375,1.375 -0.375,0.34375 L 15.45074,16.41925 9.45075,10.388 9.107,10.013 9.45075,9.66925 l 5.99999,-6 0.34375,-0.34375 z"/><path id="path3965" d="m 15.79449,4.013 0.0312,0.03125 1.34375,1.34375 0.0312,0.03125 -0.5,0.5 -0.875,-0.875 -0.0312,-0.03125 -5.53125,5.53125 -0.46874,-0.5 0,-0.03125 5.99999,-6 z m 6.21875,5 0,1 -7.25,0.03125 -1.21875,0 0.875,-0.84375 0.15625,-0.15625 0.1875,0 7.25,-0.03125 z m -7.4375,3.03125 2.625,2.625 0,0.03125 -0.0312,0 -0.46875,0.46875 -2.28125,-2.28125 -0.8438,-0.84375 1,0 z" style="opacity:.4;fill:#fff;fill-opacity:1;fill-rule:nonzero;stroke:none"/></g></svg>