<svg xmlns="http://www.w3.org/2000/svg" xmlns:svg="http://www.w3.org/2000/svg" id="svg2" width="24" height="24" version="1.1"><metadata id="metadata90"/><g id="layer12" transform="translate(-649.0269,-160.99997)"><path id="path27918-2" fill="#bebebe" d="m 663.78217,161.99148 c -4.54328,0 -8.29688,3.71187 -8.29688,8.25 0,1.72479 0.58382,3.31176 1.5,4.64063 l -5.53125,5.53125 a 1.5082173,1.5082173 0 1 0 2.10938,2.15625 l 5.53125,-5.53125 c 1.33094,0.91636 2.9595,1.45312 4.6875,1.45312 4.54329,0 8.25,-3.71188 8.25,-8.25 0,-4.53813 -3.70671,-8.25 -8.25,-8.25 z m 0,3 c 2.92104,0 5.25,2.33228 5.25,5.25 0,2.91771 -2.32896,5.25 -5.25,5.25 -2.92102,0 -5.25,-2.33229 -5.25,-5.25 0,-2.91772 2.32898,-5.25 5.25,-5.25 z" color="#000"/></g></svg>