<svg xmlns="http://www.w3.org/2000/svg" xmlns:svg="http://www.w3.org/2000/svg" xmlns:xlink="http://www.w3.org/1999/xlink" id="svg3828" width="24" height="24" version="1.1"><defs id="defs3830"><linearGradient id="linearGradient3801"><stop id="stop3803" offset="0" style="stop-color:#fff;stop-opacity:1"/><stop id="stop3805" offset="1" style="stop-color:#fff;stop-opacity:0"/></linearGradient><linearGradient id="linearGradient3003" x1="25.132" x2="25.132" y1=".985" y2="47.013" gradientTransform="matrix(0.48571543,0,0,-0.45629579,0.3428297,21.651132)" gradientUnits="userSpaceOnUse" xlink:href="#linearGradient3988-5"/><linearGradient id="linearGradient3988-5"><stop id="stop3990-5" offset="0" style="stop-color:#ededed;stop-opacity:1"/><stop id="stop3992-0" offset="1" style="stop-color:#fafafa;stop-opacity:1"/></linearGradient><linearGradient id="linearGradient3807" x1="10" x2="10" y1="0" y2="22" gradientTransform="translate(1,-1)" gradientUnits="userSpaceOnUse" xlink:href="#linearGradient3801"/><linearGradient id="linearGradient3944"><stop id="stop3946" offset="0" style="stop-color:#000;stop-opacity:1"/><stop id="stop3948" offset="1" style="stop-color:#000;stop-opacity:0"/></linearGradient><linearGradient id="linearGradient3960"><stop id="stop3962" offset="0" style="stop-color:#000;stop-opacity:0"/><stop style="stop-color:#000;stop-opacity:1" id="stop3970" offset=".5"/><stop id="stop3964" offset="1" style="stop-color:#000;stop-opacity:0"/></linearGradient><linearGradient id="linearGradient3043" x1="25" x2="25" y1="45" y2="42" gradientTransform="matrix(1.1428571,0,0,1,-10.857143,-23)" gradientUnits="userSpaceOnUse" xlink:href="#linearGradient3960"/><radialGradient id="radialGradient3046" cx="9" cy="43.5" r="2" fx="9" fy="43.5" gradientTransform="matrix(1,0,0,0.75,-5,-12.125)" gradientUnits="userSpaceOnUse" xlink:href="#linearGradient3944"/></defs><metadata id="metadata3833"/><g style="display:inline" id="layer1" transform="translate(0,2)"><path id="rect3942" d="M 3.40625,19 C 2.6271875,19 2,19.627187 2,20.40625 l 0,0.1875 C 2,21.372813 2.6271875,22 3.40625,22 L 4,22 4,19 3.40625,19 z" style="opacity:.2;fill:url(#radialGradient3046);fill-opacity:1;stroke:none"/><path id="rect3938" d="m 4,19 16,0 0,3 -16,0 z" style="opacity:.2;fill:url(#linearGradient3043);fill-opacity:1;stroke:none"/><path style="fill:url(#linearGradient3003);fill-opacity:1;stroke:none;display:inline" id="path4160-3" d="m 3.4999609,20.500039 c 3.8955809,0 17.0000591,-0.0014 17.0000591,-0.0014 l 2.1e-5,-20.998676 c 0,0 -11.333386,0 -17.0000801,0 0,7.000005 0,14.000008 0,21.000014 z"/><path style="opacity:.41000001;fill:none;stroke:#000;stroke-width:.99992186;stroke-linecap:butt;stroke-linejoin:round;stroke-miterlimit:4;stroke-opacity:1;stroke-dasharray:none;stroke-dashoffset:0;display:inline" id="path4160-3-5" d="m 3.4999609,-0.5000371 c 3.8955809,0 17.0000591,0.0014 17.0000591,0.0014 l 2.1e-5,20.9986761 c 0,0 -11.333386,0 -17.0000801,0 0,-7.000005 0,-14.0000081 0,-21.0000141 z"/><path id="path3780" d="m 4,0 0,1 c 4.1579948,7.52e-5 15.292656,-7.52e-5 16,0 L 20,0 C 19.292656,-7.52e-5 8.1579948,7.52e-5 4,0 z" style="opacity:.4;fill:#fff;fill-opacity:1;stroke:none;display:inline"/><path id="rect3796" d="M 4,0 4,20 20,20 20,0 z M 5,1 19,1 19,19 5,19 z" style="opacity:.4;fill:url(#linearGradient3807);fill-opacity:1"/></g><g id="layer2" transform="translate(0,2)"><rect id="rect4513" width="14" height="18" x="5" y="1" style="opacity:.2;fill:#a348b1;fill-opacity:1;stroke:none"/><path style="font-size:2px;font-style:normal;font-variant:normal;font-weight:400;font-stretch:normal;line-height:100%;letter-spacing:0;word-spacing:0;opacity:.2;fill:#000;fill-opacity:1;stroke:none;font-family:BLOKK Neue;-inkscape-font-specification:BLOKK Neue" id="path26173" d="m 7.28906,3 0,-0.859375 L 6,2.140625 6,3 7.28906,3"/><path style="font-size:2px;font-style:normal;font-variant:normal;font-weight:400;font-stretch:normal;line-height:100%;letter-spacing:0;word-spacing:0;opacity:.2;fill:#000;fill-opacity:1;stroke:none;font-family:BLOKK Neue;-inkscape-font-specification:BLOKK Neue" id="path26177" d="m 9.78906,3 0,-0.859375 -1.28906,0 L 8.5,3 9.78906,3"/><path style="font-size:2px;font-style:normal;font-variant:normal;font-weight:400;font-stretch:normal;line-height:100%;letter-spacing:0;word-spacing:0;opacity:.2;fill:#000;fill-opacity:1;stroke:none;font-family:BLOKK Neue;-inkscape-font-specification:BLOKK Neue" id="path26179" d="m 11.03906,3 0,-0.859375 -1.28906,0 L 9.75,3 11.03906,3"/><path style="font-size:2px;font-style:normal;font-variant:normal;font-weight:400;font-stretch:normal;line-height:100%;letter-spacing:0;word-spacing:0;opacity:.2;fill:#000;fill-opacity:1;stroke:none;font-family:BLOKK Neue;-inkscape-font-specification:BLOKK Neue" id="path26181" d="m 12.28906,3 0,-0.859375 -1.28906,0 L 11,3 12.28906,3"/><path style="font-size:2px;font-style:normal;font-variant:normal;font-weight:400;font-stretch:normal;line-height:100%;letter-spacing:0;word-spacing:0;opacity:.2;fill:#000;fill-opacity:1;stroke:none;font-family:BLOKK Neue;-inkscape-font-specification:BLOKK Neue" id="path26183" d="m 16.04687,3 0,-0.859375 -1.28906,0 0,0.859375 1.28906,0"/><path style="font-size:2px;font-style:normal;font-variant:normal;font-weight:400;font-stretch:normal;line-height:100%;letter-spacing:0;word-spacing:0;opacity:.2;fill:#000;fill-opacity:1;stroke:none;font-family:BLOKK Neue;-inkscape-font-specification:BLOKK Neue" id="path26203" d="m 7.28906,5 0,-0.859375 L 6,4.140625 6,5 7.28906,5"/><path style="font-size:2px;font-style:normal;font-variant:normal;font-weight:400;font-stretch:normal;line-height:100%;letter-spacing:0;word-spacing:0;opacity:.2;fill:#000;fill-opacity:1;stroke:none;font-family:BLOKK Neue;-inkscape-font-specification:BLOKK Neue" id="path26205" d="m 8.53906,5 0,-0.859375 -1.28906,0 L 7.25,5 8.53906,5"/><path style="font-size:2px;font-style:normal;font-variant:normal;font-weight:400;font-stretch:normal;line-height:100%;letter-spacing:0;word-spacing:0;opacity:.2;fill:#000;fill-opacity:1;stroke:none;font-family:BLOKK Neue;-inkscape-font-specification:BLOKK Neue" id="path26207" d="m 9.78906,5 0,-0.859375 -1.28906,0 L 8.5,5 9.78906,5"/><path style="font-size:2px;font-style:normal;font-variant:normal;font-weight:400;font-stretch:normal;line-height:100%;letter-spacing:0;word-spacing:0;opacity:.2;fill:#000;fill-opacity:1;stroke:none;font-family:BLOKK Neue;-inkscape-font-specification:BLOKK Neue" id="path26209" d="m 13.54687,5 0,-0.859375 -1.28906,0 0,0.859375 1.28906,0"/><path style="font-size:2px;font-style:normal;font-variant:normal;font-weight:400;font-stretch:normal;line-height:100%;letter-spacing:0;word-spacing:0;opacity:.2;fill:#000;fill-opacity:1;stroke:none;font-family:BLOKK Neue;-inkscape-font-specification:BLOKK Neue" id="path26211" d="m 14.79687,5 0,-0.859375 -1.28906,0 0,0.859375 1.28906,0"/><path style="font-size:2px;font-style:normal;font-variant:normal;font-weight:400;font-stretch:normal;line-height:100%;letter-spacing:0;word-spacing:0;opacity:.2;fill:#000;fill-opacity:1;stroke:none;font-family:BLOKK Neue;-inkscape-font-specification:BLOKK Neue" id="path26213" d="m 16.04687,5 0,-0.859375 -1.28906,0 0,0.859375 1.28906,0"/><path style="font-size:2px;font-style:normal;font-variant:normal;font-weight:400;font-stretch:normal;line-height:100%;letter-spacing:0;word-spacing:0;opacity:.2;fill:#000;fill-opacity:1;stroke:none;font-family:BLOKK Neue;-inkscape-font-specification:BLOKK Neue" id="path26219" d="m 7.28906,7 0,-0.859375 L 6,6.140625 6,7 7.28906,7"/><path style="font-size:2px;font-style:normal;font-variant:normal;font-weight:400;font-stretch:normal;line-height:100%;letter-spacing:0;word-spacing:0;opacity:.2;fill:#000;fill-opacity:1;stroke:none;font-family:BLOKK Neue;-inkscape-font-specification:BLOKK Neue" id="path26223" d="m 9.78906,7 0,-0.859375 -1.28906,0 L 8.5,7 9.78906,7"/><path style="font-size:2px;font-style:normal;font-variant:normal;font-weight:400;font-stretch:normal;line-height:100%;letter-spacing:0;word-spacing:0;opacity:.2;fill:#000;fill-opacity:1;stroke:none;font-family:BLOKK Neue;-inkscape-font-specification:BLOKK Neue" id="path26225" d="m 11.03906,7 0,-0.859375 -1.28906,0 L 9.75,7 11.03906,7"/><path style="font-size:2px;font-style:normal;font-variant:normal;font-weight:400;font-stretch:normal;line-height:100%;letter-spacing:0;word-spacing:0;opacity:.2;fill:#000;fill-opacity:1;stroke:none;font-family:BLOKK Neue;-inkscape-font-specification:BLOKK Neue" id="path26227" d="m 12.28906,7 0,-0.859375 -1.28906,0 L 11,7 12.28906,7"/><path style="font-size:2px;font-style:normal;font-variant:normal;font-weight:400;font-stretch:normal;line-height:100%;letter-spacing:0;word-spacing:0;opacity:.2;fill:#000;fill-opacity:1;stroke:none;font-family:BLOKK Neue;-inkscape-font-specification:BLOKK Neue" id="path26229" d="m 13.53906,7 0,-0.859375 -1.28906,0 0,0.859375 1.28906,0"/><path style="font-size:2px;font-style:normal;font-variant:normal;font-weight:400;font-stretch:normal;line-height:100%;letter-spacing:0;word-spacing:0;opacity:.2;fill:#000;fill-opacity:1;stroke:none;font-family:BLOKK Neue;-inkscape-font-specification:BLOKK Neue" id="path26231" d="m 14.78906,7 0,-0.859375 -1.28906,0 L 13.5,7 14.78906,7"/><path style="font-size:2px;font-style:normal;font-variant:normal;font-weight:400;font-stretch:normal;line-height:100%;letter-spacing:0;word-spacing:0;opacity:.2;fill:#000;fill-opacity:1;stroke:none;font-family:BLOKK Neue;-inkscape-font-specification:BLOKK Neue" id="path26241" d="m 7.28906,9 0,-0.859375 L 6,8.140625 6,9 7.28906,9"/><path style="font-size:2px;font-style:normal;font-variant:normal;font-weight:400;font-stretch:normal;line-height:100%;letter-spacing:0;word-spacing:0;opacity:.2;fill:#000;fill-opacity:1;stroke:none;font-family:BLOKK Neue;-inkscape-font-specification:BLOKK Neue" id="path26243" d="m 8.53906,9 0,-0.859375 -1.28906,0 L 7.25,9 8.53906,9"/><path style="font-size:2px;font-style:normal;font-variant:normal;font-weight:400;font-stretch:normal;line-height:100%;letter-spacing:0;word-spacing:0;opacity:.2;fill:#000;fill-opacity:1;stroke:none;font-family:BLOKK Neue;-inkscape-font-specification:BLOKK Neue" id="path26247" d="m 11.03906,9 0,-0.859375 -1.28906,0 L 9.75,9 11.03906,9"/><path style="font-size:2px;font-style:normal;font-variant:normal;font-weight:400;font-stretch:normal;line-height:100%;letter-spacing:0;word-spacing:0;opacity:.2;fill:#000;fill-opacity:1;stroke:none;font-family:BLOKK Neue;-inkscape-font-specification:BLOKK Neue" id="path26249" d="m 12.28906,9 0,-0.859375 -1.28906,0 L 11,9 12.28906,9"/><path style="font-size:2px;font-style:normal;font-variant:normal;font-weight:400;font-stretch:normal;line-height:100%;letter-spacing:0;word-spacing:0;opacity:.2;fill:#000;fill-opacity:1;stroke:none;font-family:BLOKK Neue;-inkscape-font-specification:BLOKK Neue" id="path26251" d="m 13.53906,9 0,-0.859375 -1.28906,0 0,0.859375 1.28906,0"/><path style="font-size:2px;font-style:normal;font-variant:normal;font-weight:400;font-stretch:normal;line-height:100%;letter-spacing:0;word-spacing:0;opacity:.2;fill:#000;fill-opacity:1;stroke:none;font-family:BLOKK Neue;-inkscape-font-specification:BLOKK Neue" id="path26255" d="m 16.03906,9 0,-0.859375 -1.28906,0 0,0.859375 1.28906,0"/><path style="font-size:2px;font-style:normal;font-variant:normal;font-weight:400;font-stretch:normal;line-height:100%;letter-spacing:0;word-spacing:0;opacity:.2;fill:#000;fill-opacity:1;stroke:none;font-family:BLOKK Neue;-inkscape-font-specification:BLOKK Neue" id="path26271" d="m 7.28906,11 0,-0.859375 -1.28906,0 L 6,11 7.28906,11"/><path style="font-size:2px;font-style:normal;font-variant:normal;font-weight:400;font-stretch:normal;line-height:100%;letter-spacing:0;word-spacing:0;opacity:.2;fill:#000;fill-opacity:1;stroke:none;font-family:BLOKK Neue;-inkscape-font-specification:BLOKK Neue" id="path26273" d="m 8.53906,11 0,-0.859375 -1.28906,0 0,0.859375 1.28906,0"/><path style="font-size:2px;font-style:normal;font-variant:normal;font-weight:400;font-stretch:normal;line-height:100%;letter-spacing:0;word-spacing:0;opacity:.2;fill:#000;fill-opacity:1;stroke:none;font-family:BLOKK Neue;-inkscape-font-specification:BLOKK Neue" id="path26275" d="m 9.78906,11 0,-0.859375 -1.28906,0 L 8.5,11 9.78906,11"/><path style="font-size:2px;font-style:normal;font-variant:normal;font-weight:400;font-stretch:normal;line-height:100%;letter-spacing:0;word-spacing:0;opacity:.2;fill:#000;fill-opacity:1;stroke:none;font-family:BLOKK Neue;-inkscape-font-specification:BLOKK Neue" id="path26277" d="m 13.54687,11 0,-0.859375 -1.28906,0 0,0.859375 1.28906,0"/><path style="font-size:2px;font-style:normal;font-variant:normal;font-weight:400;font-stretch:normal;line-height:100%;letter-spacing:0;word-spacing:0;opacity:.2;fill:#000;fill-opacity:1;stroke:none;font-family:BLOKK Neue;-inkscape-font-specification:BLOKK Neue" id="path26279" d="m 14.79687,11 0,-0.859375 -1.28906,0 0,0.859375 1.28906,0"/><path style="font-size:2px;font-style:normal;font-variant:normal;font-weight:400;font-stretch:normal;line-height:100%;letter-spacing:0;word-spacing:0;opacity:.2;fill:#000;fill-opacity:1;stroke:none;font-family:BLOKK Neue;-inkscape-font-specification:BLOKK Neue" id="path26303" d="m 7.28906,13 0,-0.859375 -1.28906,0 L 6,13 7.28906,13"/><path style="font-size:2px;font-style:normal;font-variant:normal;font-weight:400;font-stretch:normal;line-height:100%;letter-spacing:0;word-spacing:0;opacity:.2;fill:#000;fill-opacity:1;stroke:none;font-family:BLOKK Neue;-inkscape-font-specification:BLOKK Neue" id="path26305" d="m 8.53906,13 0,-0.859375 -1.28906,0 0,0.859375 1.28906,0"/><path style="font-size:2px;font-style:normal;font-variant:normal;font-weight:400;font-stretch:normal;line-height:100%;letter-spacing:0;word-spacing:0;opacity:.2;fill:#000;fill-opacity:1;stroke:none;font-family:BLOKK Neue;-inkscape-font-specification:BLOKK Neue" id="path26307" d="m 9.78906,13 0,-0.859375 -1.28906,0 L 8.5,13 9.78906,13"/><path style="font-size:2px;font-style:normal;font-variant:normal;font-weight:400;font-stretch:normal;line-height:100%;letter-spacing:0;word-spacing:0;opacity:.2;fill:#000;fill-opacity:1;stroke:none;font-family:BLOKK Neue;-inkscape-font-specification:BLOKK Neue" id="path26311" d="m 14.79687,13 0,-0.859375 -1.28906,0 0,0.859375 1.28906,0"/><path style="font-size:2px;font-style:normal;font-variant:normal;font-weight:400;font-stretch:normal;line-height:100%;letter-spacing:0;word-spacing:0;opacity:.2;fill:#000;fill-opacity:1;stroke:none;font-family:BLOKK Neue;-inkscape-font-specification:BLOKK Neue" id="path26313" d="m 16.04687,13 0,-0.859375 -1.28906,0 0,0.859375 1.28906,0"/><path style="font-size:2px;font-style:normal;font-variant:normal;font-weight:400;font-stretch:normal;line-height:100%;letter-spacing:0;word-spacing:0;opacity:.2;fill:#000;fill-opacity:1;stroke:none;font-family:BLOKK Neue;-inkscape-font-specification:BLOKK Neue" id="path26335" d="m 7.28906,15 0,-0.859375 -1.28906,0 L 6,15 7.28906,15"/><path style="font-size:2px;font-style:normal;font-variant:normal;font-weight:400;font-stretch:normal;line-height:100%;letter-spacing:0;word-spacing:0;opacity:.2;fill:#000;fill-opacity:1;stroke:none;font-family:BLOKK Neue;-inkscape-font-specification:BLOKK Neue" id="path26337" d="m 8.53906,15 0,-0.859375 -1.28906,0 0,0.859375 1.28906,0"/><path style="font-size:2px;font-style:normal;font-variant:normal;font-weight:400;font-stretch:normal;line-height:100%;letter-spacing:0;word-spacing:0;opacity:.2;fill:#000;fill-opacity:1;stroke:none;font-family:BLOKK Neue;-inkscape-font-specification:BLOKK Neue" id="path26339" d="m 9.78906,15 0,-0.859375 -1.28906,0 L 8.5,15 9.78906,15"/><path style="font-size:2px;font-style:normal;font-variant:normal;font-weight:400;font-stretch:normal;line-height:100%;letter-spacing:0;word-spacing:0;opacity:.2;fill:#000;fill-opacity:1;stroke:none;font-family:BLOKK Neue;-inkscape-font-specification:BLOKK Neue" id="path26341" d="m 11.03906,15 0,-0.859375 -1.28906,0 0,0.859375 1.28906,0"/><path id="path4457" d="m 14.79687,3 0,-0.859375 -1.28906,0 0,0.859375 1.28906,0" style="font-size:2px;font-style:normal;font-variant:normal;font-weight:400;font-stretch:normal;line-height:100%;letter-spacing:0;word-spacing:0;opacity:.2;fill:#000;fill-opacity:1;stroke:none;font-family:BLOKK Neue;-inkscape-font-specification:BLOKK Neue"/><path id="path4459" d="m 12.28906,5 0,-0.859375 -1.28906,0 L 11,5 12.28906,5" style="font-size:2px;font-style:normal;font-variant:normal;font-weight:400;font-stretch:normal;line-height:100%;letter-spacing:0;word-spacing:0;opacity:.2;fill:#000;fill-opacity:1;stroke:none;font-family:BLOKK Neue;-inkscape-font-specification:BLOKK Neue"/><path id="path4461" d="m 11.03906,11 0,-0.859375 -1.28906,0 0,0.859375 1.28906,0" style="font-size:2px;font-style:normal;font-variant:normal;font-weight:400;font-stretch:normal;line-height:100%;letter-spacing:0;word-spacing:0;opacity:.2;fill:#000;fill-opacity:1;stroke:none;font-family:BLOKK Neue;-inkscape-font-specification:BLOKK Neue"/><path id="path4463" d="m 13.54687,15 0,-0.859375 -1.28906,0 0,0.859375 1.28906,0" style="font-size:2px;font-style:normal;font-variant:normal;font-weight:400;font-stretch:normal;line-height:100%;letter-spacing:0;word-spacing:0;opacity:.2;fill:#000;fill-opacity:1;stroke:none;font-family:BLOKK Neue;-inkscape-font-specification:BLOKK Neue"/><path id="path4465" d="m 12.28906,13 0,-0.859375 -1.28906,0 L 11,13 l 1.28906,0" style="font-size:2px;font-style:normal;font-variant:normal;font-weight:400;font-stretch:normal;line-height:100%;letter-spacing:0;word-spacing:0;opacity:.2;fill:#000;fill-opacity:1;stroke:none;font-family:BLOKK Neue;-inkscape-font-specification:BLOKK Neue"/><rect id="rect4515" width="2" height="3" x="17" y="16" style="opacity:.4;fill:#a348b1;fill-opacity:1;stroke:none"/><path id="path4638" d="m 7.28906,17 0,-0.859375 -1.28906,0 L 6,17 7.28906,17" style="font-size:2px;font-style:normal;font-variant:normal;font-weight:400;font-stretch:normal;line-height:100%;letter-spacing:0;word-spacing:0;opacity:.2;fill:#000;fill-opacity:1;stroke:none;font-family:BLOKK Neue;-inkscape-font-specification:BLOKK Neue"/><path id="path4640" d="m 8.53906,17 0,-0.859375 -1.28906,0 0,0.859375 1.28906,0" style="font-size:2px;font-style:normal;font-variant:normal;font-weight:400;font-stretch:normal;line-height:100%;letter-spacing:0;word-spacing:0;opacity:.2;fill:#000;fill-opacity:1;stroke:none;font-family:BLOKK Neue;-inkscape-font-specification:BLOKK Neue"/><path id="path4644" d="m 11.03906,17 0,-0.859375 -1.28906,0 0,0.859375 1.28906,0" style="font-size:2px;font-style:normal;font-variant:normal;font-weight:400;font-stretch:normal;line-height:100%;letter-spacing:0;word-spacing:0;opacity:.2;fill:#000;fill-opacity:1;stroke:none;font-family:BLOKK Neue;-inkscape-font-specification:BLOKK Neue"/><path style="font-size:2px;font-style:normal;font-variant:normal;font-weight:400;font-stretch:normal;line-height:100%;letter-spacing:0;word-spacing:0;opacity:.2;fill:#000;fill-opacity:1;stroke:none;font-family:BLOKK Neue;-inkscape-font-specification:BLOKK Neue" id="path4646" d="m 13.54687,17 0,-0.859375 -1.28906,0 0,0.859375 1.28906,0"/><path style="font-size:2px;font-style:normal;font-variant:normal;font-weight:400;font-stretch:normal;line-height:100%;letter-spacing:0;word-spacing:0;opacity:.2;fill:#000;fill-opacity:1;stroke:none;font-family:BLOKK Neue;-inkscape-font-specification:BLOKK Neue" id="path4648" d="m 12.28906,17 0,-0.859375 -1.28906,0 L 11,17 l 1.28906,0"/><path id="path3501" d="m 17.296492,5 0,-0.859375 -1.28906,0 0,0.859375 1.28906,0" style="font-size:2px;font-style:normal;font-variant:normal;font-weight:400;font-stretch:normal;line-height:100%;letter-spacing:0;word-spacing:0;opacity:.2;fill:#000;fill-opacity:1;stroke:none;font-family:BLOKK Neue;-inkscape-font-specification:BLOKK Neue"/><path style="font-size:2px;font-style:normal;font-variant:normal;font-weight:400;font-stretch:normal;line-height:100%;letter-spacing:0;word-spacing:0;opacity:.2;fill:#000;fill-opacity:1;stroke:none;font-family:BLOKK Neue;-inkscape-font-specification:BLOKK Neue" id="path3503" d="m 17.296492,7 0,-0.859375 -1.28906,0 0,0.859375 1.28906,0"/><path id="path3505" d="m 17.296492,9 0,-0.859375 -1.28906,0 0,0.859375 1.28906,0" style="font-size:2px;font-style:normal;font-variant:normal;font-weight:400;font-stretch:normal;line-height:100%;letter-spacing:0;word-spacing:0;opacity:.2;fill:#000;fill-opacity:1;stroke:none;font-family:BLOKK Neue;-inkscape-font-specification:BLOKK Neue"/><path style="font-size:2px;font-style:normal;font-variant:normal;font-weight:400;font-stretch:normal;line-height:100%;letter-spacing:0;word-spacing:0;opacity:.2;fill:#000;fill-opacity:1;stroke:none;font-family:BLOKK Neue;-inkscape-font-specification:BLOKK Neue" id="path3507" d="m 17.296492,11 0,-0.859375 -1.28906,0 0,0.859375 1.28906,0"/><path id="path3509" d="m 17.296492,13 0,-0.859375 -1.28906,0 0,0.859375 1.28906,0" style="font-size:2px;font-style:normal;font-variant:normal;font-weight:400;font-stretch:normal;line-height:100%;letter-spacing:0;word-spacing:0;opacity:.2;fill:#000;fill-opacity:1;stroke:none;font-family:BLOKK Neue;-inkscape-font-specification:BLOKK Neue"/><path id="path3511" d="m 14.79687,15 0,-0.859375 -1.28906,0 0,0.859375 1.28906,0" style="font-size:2px;font-style:normal;font-variant:normal;font-weight:400;font-stretch:normal;line-height:100%;letter-spacing:0;word-spacing:0;opacity:.2;fill:#000;fill-opacity:1;stroke:none;font-family:BLOKK Neue;-inkscape-font-specification:BLOKK Neue"/><path id="path3513" d="m 16.04687,17 0,-0.859375 -1.28906,0 0,0.859375 1.28906,0" style="font-size:2px;font-style:normal;font-variant:normal;font-weight:400;font-stretch:normal;line-height:100%;letter-spacing:0;word-spacing:0;opacity:.2;fill:#000;fill-opacity:1;stroke:none;font-family:BLOKK Neue;-inkscape-font-specification:BLOKK Neue"/><path id="path3515" d="m 16.04687,15 0,-0.859375 -1.28906,0 0,0.859375 1.28906,0" style="font-size:2px;font-style:normal;font-variant:normal;font-weight:400;font-stretch:normal;line-height:100%;letter-spacing:0;word-spacing:0;opacity:.2;fill:#000;fill-opacity:1;stroke:none;font-family:BLOKK Neue;-inkscape-font-specification:BLOKK Neue"/><path style="font-size:2px;font-style:normal;font-variant:normal;font-weight:400;font-stretch:normal;line-height:100%;letter-spacing:0;word-spacing:0;opacity:.2;fill:#000;fill-opacity:1;stroke:none;font-family:BLOKK Neue;-inkscape-font-specification:BLOKK Neue" id="path3517" d="m 17.296492,3 0,-0.859375 -1.28906,0 0,0.859375 1.28906,0"/></g></svg>