<svg xmlns="http://www.w3.org/2000/svg" xmlns:svg="http://www.w3.org/2000/svg" xmlns:xlink="http://www.w3.org/1999/xlink" id="svg3828" width="24" height="24" version="1.1"><defs id="defs3830"><linearGradient id="linearGradient4085"><stop style="stop-color:#8f5902;stop-opacity:1" id="stop4087" offset="0"/><stop style="stop-color:#bf9450;stop-opacity:1" id="stop4089" offset="1"/></linearGradient><linearGradient id="linearGradient3801"><stop id="stop3803" offset="0" style="stop-color:#fff;stop-opacity:1"/><stop id="stop3805" offset="1" style="stop-color:#fff;stop-opacity:0"/></linearGradient><linearGradient id="linearGradient3988-5"><stop id="stop3990-5" offset="0" style="stop-color:#ededed;stop-opacity:1"/><stop id="stop3992-0" offset="1" style="stop-color:#fafafa;stop-opacity:1"/></linearGradient><linearGradient id="linearGradient3952"><stop id="stop3954" offset="0" style="stop-color:#000;stop-opacity:1"/><stop id="stop3956" offset="1" style="stop-color:#000;stop-opacity:0"/></linearGradient><linearGradient id="linearGradient3944"><stop id="stop3946" offset="0" style="stop-color:#000;stop-opacity:1"/><stop id="stop3948" offset="1" style="stop-color:#000;stop-opacity:0"/></linearGradient><linearGradient id="linearGradient3960"><stop id="stop3962" offset="0" style="stop-color:#000;stop-opacity:0"/><stop style="stop-color:#000;stop-opacity:1" id="stop3970" offset=".5"/><stop id="stop3964" offset="1" style="stop-color:#000;stop-opacity:0"/></linearGradient><linearGradient id="linearGradient5772-1"><stop style="stop-color:#e2b369;stop-opacity:1" id="stop5774-8" offset="0"/><stop style="stop-color:#c79b55;stop-opacity:1" id="stop5776-7" offset="1"/></linearGradient><linearGradient id="linearGradient3881-2-4-1"><stop id="stop3883-6-8-8" offset="0" style="stop-color:#babdb6;stop-opacity:1"/><stop style="stop-color:#eeeeec;stop-opacity:1" id="stop3895-6-7-4" offset=".133"/><stop style="stop-color:#babdb6;stop-opacity:1" id="stop3891-1-9-4" offset=".531"/><stop id="stop3893-0-9-8" offset=".787" style="stop-color:#eeeeec;stop-opacity:1"/><stop id="stop3885-35-2-2" offset="1" style="stop-color:#9c988a;stop-opacity:1"/></linearGradient><linearGradient id="linearGradient3869-39-6-5"><stop id="stop3871-72-8-0" offset="0" style="stop-color:#555753;stop-opacity:1"/><stop id="stop3873-7-4-7" offset="1" style="stop-color:#babdb6;stop-opacity:1"/></linearGradient><linearGradient id="linearGradient5379-6-6-2"><stop style="stop-color:#fff;stop-opacity:1" id="stop5381-7-2-9" offset="0"/><stop style="stop-color:#fff;stop-opacity:0" id="stop5383-2-5-8" offset="1"/></linearGradient><radialGradient id="radialGradient3174" cx="40" cy="43.5" r="2" fx="40" fy="43.5" gradientTransform="matrix(1,0,0,0.75,-25,-14.125)" gradientUnits="userSpaceOnUse" xlink:href="#linearGradient3952"/><radialGradient id="radialGradient3176" cx="9" cy="43.5" r="2" fx="9" fy="43.5" gradientTransform="matrix(1,0,0,0.75,-6,-14.125)" gradientUnits="userSpaceOnUse" xlink:href="#linearGradient3944"/><linearGradient id="linearGradient3178" x1="25" x2="25" y1="45" y2="42" gradientTransform="translate(-12,-25)" gradientUnits="userSpaceOnUse" xlink:href="#linearGradient3960"/><linearGradient id="linearGradient3180" x1="25.132" x2="25.132" y1=".985" y2="47.013" gradientTransform="matrix(0.48571543,0,0,0.45629579,-3.6571703,1.34887)" gradientUnits="userSpaceOnUse" xlink:href="#linearGradient5772-1"/><linearGradient id="linearGradient3184" x1="10" x2="10" y1="0" y2="22" gradientTransform="translate(-3,-2)" gradientUnits="userSpaceOnUse" xlink:href="#linearGradient3801"/><linearGradient id="linearGradient3186" x1="25.132" x2="25.132" y1=".985" y2="47.013" gradientTransform="matrix(-0.48571543,0,0,-0.45629579,23.657169,20.651133)" gradientUnits="userSpaceOnUse" xlink:href="#linearGradient3988-5"/><linearGradient id="linearGradient3188" x1="10" x2="10" y1="0" y2="22" gradientTransform="matrix(-1,0,0,1,22.999999,-1.999999)" gradientUnits="userSpaceOnUse" xlink:href="#linearGradient3801"/><linearGradient id="linearGradient3190" x1="24.635" x2="24.635" y1="3.519" y2="11.541" gradientTransform="matrix(-0.49455742,0,0,0.50509861,21.637305,-1.7784213)" gradientUnits="userSpaceOnUse" xlink:href="#linearGradient3881-2-4-1"/><linearGradient id="linearGradient3192" x1="32.912" x2="32.912" y1="14.115" y2=".352" gradientTransform="matrix(-0.49455742,0,0,0.50509861,21.637305,-2.7886185)" gradientUnits="userSpaceOnUse" xlink:href="#linearGradient3869-39-6-5"/><linearGradient id="linearGradient3194" x1="24.498" x2="24.498" y1="3.998" y2="8" gradientTransform="matrix(-0.33318613,0,0,0.50509861,17.662398,-1.0193848)" gradientUnits="userSpaceOnUse" xlink:href="#linearGradient5379-6-6-2"/><radialGradient id="radialGradient3196" cx="40" cy="43.5" r="2" fx="40" fy="43.5" gradientTransform="matrix(1,0,0,0.75,-21,-12.125)" gradientUnits="userSpaceOnUse" xlink:href="#linearGradient3952"/><radialGradient id="radialGradient3198" cx="9" cy="43.5" r="2" fx="9" fy="43.5" gradientTransform="matrix(1,0,0,0.75,-2,-12.125)" gradientUnits="userSpaceOnUse" xlink:href="#linearGradient3944"/><linearGradient id="linearGradient3200" x1="25" x2="25" y1="45" y2="42" gradientTransform="translate(-8,-23)" gradientUnits="userSpaceOnUse" xlink:href="#linearGradient3960"/><linearGradient id="linearGradient3202" x1="25.132" x2="25.132" y1=".985" y2="47.013" gradientTransform="matrix(0.48571543,0,0,-0.45629579,0.34283,22.651132)" gradientUnits="userSpaceOnUse" xlink:href="#linearGradient3988-5"/><linearGradient id="linearGradient3204" x1="10" x2="10" y1="0" y2="22" gradientTransform="translate(1,0)" gradientUnits="userSpaceOnUse" xlink:href="#linearGradient3801"/><linearGradient id="linearGradient4083" x1="9" x2="9" y1="18.5" y2="2.5" gradientUnits="userSpaceOnUse" xlink:href="#linearGradient4085"/></defs><metadata id="metadata3833"/><g style="display:inline" id="layer1" transform="translate(0,2)"><g id="g3165" transform="translate(-3,-5)"><path style="opacity:.2;fill:url(#radialGradient3196);fill-opacity:1;stroke:none" id="rect3940" d="m 19,19 0,3 0.5,0 C 20.331,22 21,21.331 21,20.5 21,19.669 20.331,19 19.5,19 z"/><path style="opacity:.2;fill:url(#radialGradient3198);fill-opacity:1;stroke:none" id="rect3942" d="M 6.40625,19 C 5.627187,19 5,19.627187 5,20.40625 l 0,0.1875 C 5,21.372813 5.627187,22 6.40625,22 L 7,22 7,19 z"/><path style="opacity:.2;fill:url(#linearGradient3200);fill-opacity:1;stroke:none" id="rect3938" d="m 7,19 12,0 0,3 -12,0 z"/><path id="path4160-3" d="m 6.499961,20.500039 c 3.895581,0 13.000059,-0.0014 13.000059,-0.0014 l 2.1e-5,-14.998676 c 0,0 -7.333386,0 -13.00008,0 0,7.000005 0,8.000008 0,15.000014 z" style="fill:url(#linearGradient3202);fill-opacity:1;stroke:none;display:inline"/><path id="path4160-3-5" d="m 6.499961,5.4999629 c 3.895581,0 13.000059,0.0014 13.000059,0.0014 l 2.1e-5,14.9986761 c 0,0 -7.333386,0 -13.00008,0 0,-7.000005 0,-8.000008 0,-15.0000141 z" style="opacity:.41000001;fill:none;stroke:#000;stroke-width:.99992186;stroke-linecap:butt;stroke-linejoin:round;stroke-miterlimit:4;stroke-opacity:1;stroke-dasharray:none;stroke-dashoffset:0;display:inline"/><path style="opacity:.4;fill:#fff;fill-opacity:1;stroke:none;display:inline" id="path3780" d="m 7,6 0,1 c 4.157995,7.52e-5 11.292656,-7.52e-5 12,0 l 0,-1 c -0.707344,-7.52e-5 -7.842005,7.52e-5 -12,0 z"/><path style="opacity:.4;fill:url(#linearGradient3204);fill-opacity:1" id="rect3796" d="M 7,6 7,20 19,20 19,6 z M 8,7 18,7 18,19 8,19 z"/></g><g id="g3129" transform="translate(5,3)"><g id="g4349" transform="translate(0,-2)"><path style="opacity:.2;fill:url(#radialGradient3174);fill-opacity:1;stroke:none" id="path4281" d="m 15,17 0,3 0.5,0 C 16.331,20 17,19.331 17,18.5 17,17.669 16.331,17 15.5,17 z"/><path style="opacity:.2;fill:url(#radialGradient3176);fill-opacity:1;stroke:none" id="path4283" d="M 2.40625,17 C 1.6271875,17 1,17.627187 1,18.40625 l 0,0.1875 C 1,19.372813 1.6271875,20 2.40625,20 L 3,20 3,17 z"/><path style="opacity:.2;fill:url(#linearGradient3178);fill-opacity:1;stroke:none" id="path4285" d="m 3,17 12,0 0,3 -12,0 z"/><path id="path4287" d="m 3,3.5 12,0 c 0,0 0.5,0 0.5,0.5 l 0,14 c 0,0.5 -0.5,0.5 -0.5,0.5 l -12,0 c 0,0 -0.5,0 -0.5,-0.5 l 0,-14 c 0,0 0,-0.5 0.5,-0.5 z" style="fill:url(#linearGradient3180);fill-opacity:1;stroke:none;display:inline"/><path style="opacity:.2;fill:url(#linearGradient3184);fill-opacity:1" id="path4293" d="M 3,4 3,18 15,18 15,4 z M 4,5 14,5 14,17 4,17 z"/><path style="opacity:.2;fill:#fff;fill-opacity:1;stroke:none;display:inline" id="path4291" d="m 3,4 0,1 c 4.157995,7.52e-5 11.292656,-7.52e-5 12,0 l 0,-1 c -0.707344,-7.52e-5 -7.842005,7.52e-5 -12,0 z"/><path style="opacity:.81000001;fill:none;stroke:url(#linearGradient4083);stroke-opacity:1;display:inline" id="path3307" d="m 3,3.5 12,0 c 0,0 0.5,0 0.5,0.5 l 0,14 c 0,0.5 -0.5,0.5 -0.5,0.5 l -12,0 c 0,0 -0.5,0 -0.5,-0.5 l 0,-14 c 0,0 0,-0.5 0.5,-0.5 z"/></g><g id="g3985" transform="matrix(-1,0,0,1,22,-1.0000009)"><path id="path3973" d="m 17.500038,14.50004 c -3.895581,0 -9.0000589,-0.0014 -9.0000589,-0.0014 l -2.1e-5,-10.998676 c 0,0 3.3333859,0 9.0000799,0 0,7.000005 0,4.000008 0,11.000014 z" style="fill:url(#linearGradient3186);fill-opacity:1;stroke:none;display:inline"/><path id="path3975" d="m 17.500038,3.4999639 c -3.895581,0 -9.0000589,0.0014 -9.0000589,0.0014 l -2.1e-5,10.9986761 c 0,0 3.3333859,0 9.0000799,0 0,-7.000005 0,-4.000008 0,-11.0000141 z" style="opacity:.31000001;fill:none;stroke:#000;stroke-width:.99992186;stroke-linecap:butt;stroke-linejoin:round;stroke-miterlimit:4;stroke-opacity:1;stroke-dasharray:none;stroke-dashoffset:0;display:inline"/><path style="opacity:.4;fill:#fff;fill-opacity:1;stroke:none;display:inline" id="path3977" d="m 16.999999,4.000001 0,1 c -4.157995,7.52e-5 -7.2926559,-7.52e-5 -7.9999999,0 l 0,-1 c 0.707344,-7.52e-5 3.8420049,7.52e-5 7.9999999,0 z"/><path style="opacity:.4;fill:url(#linearGradient3188);fill-opacity:1" id="path3979" d="m 16.999999,4.000001 0,10 -7.9999999,0 0,-10 z m -1,1 -5.9999999,0 0,8 5.9999999,0 z"/></g><path style="opacity:.1;color:#000;fill:#000;fill-opacity:1;fill-rule:nonzero;stroke:#000;stroke-width:1;stroke-linecap:butt;stroke-linejoin:miter;stroke-miterlimit:4;stroke-opacity:1;stroke-dasharray:none;stroke-dashoffset:0;marker:none;visibility:visible;display:block;overflow:visible;enable-background:accumulate" id="path5584-8-6-5" d="m 6.000003,5.5000229 c -0.500002,0 -0.500002,-0.9999993 -0.500002,-0.9999993 l 1,-0.9999992 0,-1.0000044 c 0,-0.4154991 0.501981,-0.9999992 1,-0.9999992 l 2.999999,0 c 0.599611,0 1,0.5893692 1,0.9999992 l 0,1.0000044 1,0.9999992 c 0,0 0,0.9999993 -0.499997,0.9999993 z"/><path style="color:#000;fill:url(#linearGradient3190);fill-opacity:1;fill-rule:nonzero;stroke:url(#linearGradient3192);stroke-width:1;stroke-linecap:butt;stroke-linejoin:miter;stroke-miterlimit:4;stroke-opacity:1;stroke-dasharray:none;stroke-dashoffset:0;marker:none;visibility:visible;display:block;overflow:visible;enable-background:accumulate" id="path5584-8-6" d="m 6.000003,4.5000201 c -0.500002,0 -0.500002,-0.9999993 -0.500002,-0.9999993 l 1,-0.9999998 0,-1.0000002 c 0,-0.4155012 0.501981,-0.99999983 1,-0.99999983 l 2.999999,0 c 0.599611,0 1,0.58937133 1,0.99999923 l 0,1.0000008 1,0.9999988 c 0,0 0,1.0000003 -0.499997,1.0000003 z"/><rect style="opacity:.5;color:#000;fill:#fff;fill-opacity:1;fill-rule:nonzero;stroke:none;stroke-width:1;marker:none;visibility:visible;display:block;overflow:visible;enable-background:accumulate" id="rect5594-4-8" width="5.104" height="1" x="-12.073" y="3" rx=".276" ry=".5" transform="scale(-1,1)"/><path style="color:#000;fill:url(#linearGradient3194);fill-opacity:1;fill-rule:nonzero;stroke:none;stroke-width:1;marker:none;visibility:visible;display:inline;overflow:visible;enable-background:accumulate" id="path5377-6-6" d="m 10.998672,3.021404 0,-1.5152958 c 0.01316,-0.3189981 -0.06929,-0.5220775 -0.333178,-0.5050986 l -3.332302,0 C 7.178905,1.0383166 7.019326,1.0595906 7.000004,1.5061082 l 0,1.5152958 0.333188,-1.0309209 3.332302,0 z"/><g id="g4032" transform="matrix(-1,0,0,1,21.75,-0.429688)"><path style="font-size:2px;font-style:normal;font-variant:normal;font-weight:400;font-stretch:normal;line-height:100%;letter-spacing:0;word-spacing:0;opacity:.2;fill:#000;fill-opacity:1;stroke:none;font-family:BLOKK Neue;-inkscape-font-specification:BLOKK Neue" id="path26173" d="m 11.03906,5.4296875 0,-0.859375 -1.28906,0 0,0.859375 1.28906,0"/><path style="font-size:2px;font-style:normal;font-variant:normal;font-weight:400;font-stretch:normal;line-height:100%;letter-spacing:0;word-spacing:0;opacity:.2;fill:#000;fill-opacity:1;stroke:none;font-family:BLOKK Neue;-inkscape-font-specification:BLOKK Neue" id="path26177" d="m 13.53906,5.4296875 0,-0.859375 -1.28906,0 0,0.859375 1.28906,0"/><path style="font-size:2px;font-style:normal;font-variant:normal;font-weight:400;font-stretch:normal;line-height:100%;letter-spacing:0;word-spacing:0;opacity:.2;fill:#000;fill-opacity:1;stroke:none;font-family:BLOKK Neue;-inkscape-font-specification:BLOKK Neue" id="path26179" d="m 14.78906,5.4296875 0,-0.859375 -1.28906,0 0,0.859375 1.28906,0"/><path style="font-size:2px;font-style:normal;font-variant:normal;font-weight:400;font-stretch:normal;line-height:100%;letter-spacing:0;word-spacing:0;opacity:.2;fill:#000;fill-opacity:1;stroke:none;font-family:BLOKK Neue;-inkscape-font-specification:BLOKK Neue" id="path26181" d="m 16.03906,5.4296875 0,-0.859375 -1.28906,0 0,0.859375 1.28906,0"/><path style="font-size:2px;font-style:normal;font-variant:normal;font-weight:400;font-stretch:normal;line-height:100%;letter-spacing:0;word-spacing:0;opacity:.2;fill:#000;fill-opacity:1;stroke:none;font-family:BLOKK Neue;-inkscape-font-specification:BLOKK Neue" id="path26203" d="m 11.03906,7.4296875 0,-0.859375 -1.28906,0 0,0.859375 1.28906,0"/><path style="font-size:2px;font-style:normal;font-variant:normal;font-weight:400;font-stretch:normal;line-height:100%;letter-spacing:0;word-spacing:0;opacity:.2;fill:#000;fill-opacity:1;stroke:none;font-family:BLOKK Neue;-inkscape-font-specification:BLOKK Neue" id="path26205" d="m 12.28906,7.4296875 0,-0.859375 -1.28906,0 0,0.859375 1.28906,0"/><path style="font-size:2px;font-style:normal;font-variant:normal;font-weight:400;font-stretch:normal;line-height:100%;letter-spacing:0;word-spacing:0;opacity:.2;fill:#000;fill-opacity:1;stroke:none;font-family:BLOKK Neue;-inkscape-font-specification:BLOKK Neue" id="path26207" d="m 13.53906,7.4296875 0,-0.859375 -1.28906,0 0,0.859375 1.28906,0"/><path style="font-size:2px;font-style:normal;font-variant:normal;font-weight:400;font-stretch:normal;line-height:100%;letter-spacing:0;word-spacing:0;opacity:.2;fill:#000;fill-opacity:1;stroke:none;font-family:BLOKK Neue;-inkscape-font-specification:BLOKK Neue" id="path26219" d="m 11.03906,9.4296875 0,-0.859375 -1.28906,0 0,0.859375 1.28906,0"/><path style="font-size:2px;font-style:normal;font-variant:normal;font-weight:400;font-stretch:normal;line-height:100%;letter-spacing:0;word-spacing:0;opacity:.2;fill:#000;fill-opacity:1;stroke:none;font-family:BLOKK Neue;-inkscape-font-specification:BLOKK Neue" id="path26223" d="m 13.53906,9.4296875 0,-0.859375 -1.28906,0 0,0.859375 1.28906,0"/><path style="font-size:2px;font-style:normal;font-variant:normal;font-weight:400;font-stretch:normal;line-height:100%;letter-spacing:0;word-spacing:0;opacity:.2;fill:#000;fill-opacity:1;stroke:none;font-family:BLOKK Neue;-inkscape-font-specification:BLOKK Neue" id="path26225" d="m 14.78906,9.4296875 0,-0.859375 -1.28906,0 0,0.859375 1.28906,0"/><path style="font-size:2px;font-style:normal;font-variant:normal;font-weight:400;font-stretch:normal;line-height:100%;letter-spacing:0;word-spacing:0;opacity:.2;fill:#000;fill-opacity:1;stroke:none;font-family:BLOKK Neue;-inkscape-font-specification:BLOKK Neue" id="path26227" d="m 16.03906,9.4296875 0,-0.859375 -1.28906,0 0,0.859375 1.28906,0"/><path style="font-size:2px;font-style:normal;font-variant:normal;font-weight:400;font-stretch:normal;line-height:100%;letter-spacing:0;word-spacing:0;opacity:.2;fill:#000;fill-opacity:1;stroke:none;font-family:BLOKK Neue;-inkscape-font-specification:BLOKK Neue" id="path26241" d="m 11.03906,11.429688 0,-0.859375 -1.28906,0 0,0.859375 1.28906,0"/><path style="font-size:2px;font-style:normal;font-variant:normal;font-weight:400;font-stretch:normal;line-height:100%;letter-spacing:0;word-spacing:0;opacity:.2;fill:#000;fill-opacity:1;stroke:none;font-family:BLOKK Neue;-inkscape-font-specification:BLOKK Neue" id="path26243" d="m 12.28906,11.429688 0,-0.859375 -1.28906,0 0,0.859375 1.28906,0"/><path style="font-size:2px;font-style:normal;font-variant:normal;font-weight:400;font-stretch:normal;line-height:100%;letter-spacing:0;word-spacing:0;opacity:.2;fill:#000;fill-opacity:1;stroke:none;font-family:BLOKK Neue;-inkscape-font-specification:BLOKK Neue" id="path26247" d="m 14.78906,11.429688 0,-0.859375 -1.28906,0 0,0.859375 1.28906,0"/><path style="font-size:2px;font-style:normal;font-variant:normal;font-weight:400;font-stretch:normal;line-height:100%;letter-spacing:0;word-spacing:0;opacity:.2;fill:#000;fill-opacity:1;stroke:none;font-family:BLOKK Neue;-inkscape-font-specification:BLOKK Neue" id="path26249" d="m 16.03906,11.429688 0,-0.859375 -1.28906,0 0,0.859375 1.28906,0"/><path id="path4459" d="m 16.03906,7.4296875 0,-0.859375 -1.28906,0 0,0.859375 1.28906,0" style="font-size:2px;font-style:normal;font-variant:normal;font-weight:400;font-stretch:normal;line-height:100%;letter-spacing:0;word-spacing:0;opacity:.2;fill:#000;fill-opacity:1;stroke:none;font-family:BLOKK Neue;-inkscape-font-specification:BLOKK Neue"/></g></g></g></svg>