<svg xmlns="http://www.w3.org/2000/svg" xmlns:svg="http://www.w3.org/2000/svg" xmlns:xlink="http://www.w3.org/1999/xlink" id="svg3495" width="24" height="24" version="1.1"><defs id="defs3497"><linearGradient id="linearGradient3821"><stop id="stop3823" offset="0" style="stop-color:#555;stop-opacity:1"/><stop id="stop3825" offset="1" style="stop-color:#666;stop-opacity:1"/></linearGradient><linearGradient id="linearGradient3233" x1="12" x2="12" y1="22" y2="0" gradientTransform="translate(3,33)" gradientUnits="userSpaceOnUse" xlink:href="#linearGradient3821"/><linearGradient id="linearGradient3247" x1="12" x2="12" y1="22" y2="0" gradientTransform="translate(2,28)" gradientUnits="userSpaceOnUse" xlink:href="#linearGradient3821"/><linearGradient id="linearGradient3261" x1="12" x2="12" y1="22" y2="0" gradientTransform="translate(1,23)" gradientUnits="userSpaceOnUse" xlink:href="#linearGradient3821"/><linearGradient id="linearGradient3275" x1="12" x2="12" y1="22" y2="0" gradientTransform="translate(4,18)" gradientUnits="userSpaceOnUse" xlink:href="#linearGradient3821"/></defs><metadata id="metadata3500"/><g id="layer1" transform="translate(0,-24)"><path id="rect3816" d="m 4.5,41.5 0,0.5 0,2 0,0.5 0.5,0 14,0 0.5,0 0,-0.5 0,-2 0,-0.5 -0.5,0 -14,0 z" style="fill:url(#linearGradient3233);fill-opacity:1;stroke:none"/><path style="opacity:.61000001;fill:none;stroke:#000;stroke-width:1;stroke-miterlimit:4;stroke-opacity:1;stroke-dasharray:none" id="path3833" d="m 4.5,41.5 0,0.5 0,2 0,0.5 0.5,0 14,0 0.5,0 0,-0.5 0,-2 0,-0.5 -0.5,0 -14,0 z"/><path id="path3835" d="m 5,42 0,1 14,0 0,-1 z" style="opacity:.2;fill:#fff;fill-opacity:1;stroke:none"/><path style="fill:url(#linearGradient3247);fill-opacity:1;stroke:none" id="path3067" d="m 3.5,36.5 0,0.5 0,2 0,0.5 0.5,0 16,0 0.5,0 0,-0.5 0,-2 0,-0.5 -0.5,0 -16,0 z"/><path id="path3069" d="m 3.5,36.5 0,0.5 0,2 0,0.5 0.5,0 16,0 0.5,0 0,-0.5 0,-2 0,-0.5 -0.5,0 -16,0 z" style="opacity:.61000001;fill:none;stroke:#000;stroke-width:1;stroke-miterlimit:4;stroke-opacity:1;stroke-dasharray:none"/><path style="opacity:.2;fill:#fff;fill-opacity:1;stroke:none" id="path3071" d="m 4,37 0,1 16,0 0,-1 z"/><path id="path3091" d="m 2.5,31.5 0,0.5 0,2 0,0.5 0.5,0 18,0 0.5,0 0,-0.5 0,-2 0,-0.5 -0.5,0 -18,0 z" style="fill:url(#linearGradient3261);fill-opacity:1;stroke:none"/><path style="opacity:.61000001;fill:none;stroke:#000;stroke-width:1;stroke-miterlimit:4;stroke-opacity:1;stroke-dasharray:none" id="path3093" d="m 2.5,31.5 0,0.5 0,2 0,0.5 0.5,0 18,0 0.5,0 0,-0.5 0,-2 0,-0.5 -0.5,0 -18,0 z"/><path id="path3095" d="m 3,32 0,1 18,0 0,-1 z" style="opacity:.2;fill:#fff;fill-opacity:1;stroke:none"/><path style="fill:url(#linearGradient3275);fill-opacity:1;stroke:none" id="path3115" d="m 5.5,26.5 0,0.5 0,2 0,0.5 0.5,0 12,0 0.5,0 0,-0.5 0,-2 0,-0.5 -0.5,0 -12,0 z"/><path id="path3117" d="m 5.5,26.5 0,0.5 0,2 0,0.5 0.5,0 12,0 0.5,0 0,-0.5 0,-2 0,-0.5 -0.5,0 -12,0 z" style="opacity:.61000001;fill:none;stroke:#000;stroke-width:1;stroke-miterlimit:4;stroke-opacity:1;stroke-dasharray:none"/><path style="opacity:.2;fill:#fff;fill-opacity:1;stroke:none" id="path3119" d="m 6,27 0,1 12,0 0,-1 z"/></g></svg>