<svg xmlns="http://www.w3.org/2000/svg" xmlns:svg="http://www.w3.org/2000/svg" xmlns:xlink="http://www.w3.org/1999/xlink" id="svg3495" width="24" height="24" version="1.1"><defs id="defs3497"><linearGradient id="linearGradient3821"><stop id="stop3823" offset="0" style="stop-color:#555;stop-opacity:1"/><stop id="stop3825" offset="1" style="stop-color:#666;stop-opacity:1"/></linearGradient><linearGradient id="linearGradient3800" x1="12" x2="12" y1="22" y2="0" gradientTransform="translate(1,25)" gradientUnits="userSpaceOnUse" xlink:href="#linearGradient3821"/><radialGradient id="radialGradient4051" cx="40" cy="43.5" r="2" fx="40" fy="43.5" gradientTransform="matrix(1,0,0,0.75,-22,9.875)" gradientUnits="userSpaceOnUse" xlink:href="#linearGradient3952-3"/><linearGradient id="linearGradient3952-3"><stop id="stop3954-8" offset="0" style="stop-color:#000;stop-opacity:1"/><stop id="stop3956-3" offset="1" style="stop-color:#000;stop-opacity:0"/></linearGradient><radialGradient id="radialGradient4053" cx="9" cy="43.5" r="2" fx="9" fy="43.5" gradientTransform="matrix(1,0,0,0.75,-4,9.875)" gradientUnits="userSpaceOnUse" xlink:href="#linearGradient3944-9"/><linearGradient id="linearGradient3944-9"><stop id="stop3946-8" offset="0" style="stop-color:#000;stop-opacity:1"/><stop id="stop3948-3" offset="1" style="stop-color:#000;stop-opacity:0"/></linearGradient><linearGradient id="linearGradient3960-5"><stop id="stop3962-5" offset="0" style="stop-color:#000;stop-opacity:0"/><stop style="stop-color:#000;stop-opacity:1" id="stop3970-4" offset=".5"/><stop id="stop3964-1" offset="1" style="stop-color:#000;stop-opacity:0"/></linearGradient><linearGradient id="linearGradient4125" x1="25" x2="25" y1="45" y2="42" gradientTransform="translate(-9,-1)" gradientUnits="userSpaceOnUse" xlink:href="#linearGradient3960-5"/><clipPath id="clipPath4307" clipPathUnits="userSpaceOnUse"><path style="color:#000;fill:#36e12b;fill-opacity:1;fill-rule:nonzero;stroke:none;stroke-width:.84323651;marker:none;visibility:visible;display:inline;overflow:visible;enable-background:accumulate" id="path4309" d="m 168,265 c -3.86599,0 -7,3.13401 -7,7 0,3.86599 3.13401,7 7,7 3.866,0 7,-3.13401 7,-7 0,-3.86599 -3.134,-7 -7,-7 z m 3.3125,3.0625 1.5625,1.40625 -5.25,6.9375 -4.0625,-3.5 1.34375,-1.78125 2.375,2.0625 4.03125,-5.125 z"/></clipPath><linearGradient id="linearGradient3760"><stop id="stop3762" offset="0" style="stop-color:#e44343;stop-opacity:1"/><stop id="stop3764" offset="1" style="stop-color:#ac0808;stop-opacity:1"/></linearGradient><linearGradient id="linearGradient3039" x1="168" x2="168" y1="280" y2="264" gradientTransform="matrix(0.71428571,0,0,-0.71428571,-102.5,235.78571)" gradientUnits="userSpaceOnUse" xlink:href="#linearGradient3760"/></defs><metadata id="metadata3500"/><g id="layer1" transform="translate(0,-24)"><path id="path11643-3-2" d="m 5.5,27.5 0,0.5 0,3 0,0.5 0.5,0 8.5,0 c 0.08206,0 0.389728,0.133396 0.625,0.375 0.235272,0.241604 0.375,0.582603 0.375,0.625 l 0,1 -7,0 c -1.5181314,0 -2.8768217,0.632337 -3.75,1.625 L 4.71875,35.15625 C 3.8831141,36.123332 3.4895182,37.317935 3.5,38.5 3.50999,39.69972 3.9302675,40.914024 4.78125,41.875 5.6466277,42.852232 6.9943753,43.5 8.5,43.5 l 7.5,0 1.5,0 1.5,0 0.5,0 0,-0.5 0,-1.25 -0.03125,0 c 0.0096,-0.125508 0.009,-0.190696 0,-0.25 l 0.03125,0 0,-1.5 0,-7.5 c 0,-2.720691 -2.208767,-5 -5,-5 l -8.5,0 -0.5,0 z m 3,10 7,0 0,2 -7,0 C 7.9951765,39.5 7.9571342,39.448611 7.78125,39.25 7.6331845,39.082802 7.502401,38.770483 7.5,38.5 7.4979278,38.210532 7.6330513,37.882946 7.75,37.75 7.9077178,37.570708 7.9580406,37.5 8.5,37.5 z" style="font-style:normal;font-variant:normal;font-weight:400;font-stretch:normal;text-indent:0;text-align:start;text-decoration:none;line-height:normal;letter-spacing:normal;word-spacing:normal;text-transform:none;direction:ltr;block-progression:tb;writing-mode:lr-tb;text-anchor:start;baseline-shift:baseline;color:#000;fill:url(#linearGradient3800);fill-opacity:1;stroke:none;stroke-width:2;marker:none;visibility:visible;display:inline;overflow:visible;enable-background:accumulate;font-family:Sans;-inkscape-font-specification:Sans"/><path style="font-style:normal;font-variant:normal;font-weight:400;font-stretch:normal;text-indent:0;text-align:start;text-decoration:none;line-height:normal;letter-spacing:normal;word-spacing:normal;text-transform:none;direction:ltr;block-progression:tb;writing-mode:lr-tb;text-anchor:start;baseline-shift:baseline;opacity:.61000001;color:#000;fill:none;stroke:#000;stroke-width:1;stroke-miterlimit:4;stroke-opacity:1;stroke-dasharray:none;marker:none;visibility:visible;display:inline;overflow:visible;enable-background:accumulate;font-family:Sans;-inkscape-font-specification:Sans" id="path3791" d="m 5.5,27.5 0,0.5 0,3 0,0.5 0.5,0 8.5,0 c 0.08206,0 0.389728,0.133396 0.625,0.375 0.235272,0.241604 0.375,0.582603 0.375,0.625 l 0,1 -7,0 c -1.5181314,0 -2.8768217,0.632337 -3.75,1.625 L 4.71875,35.15625 C 3.8831141,36.123332 3.4895182,37.317935 3.5,38.5 3.50999,39.69972 3.9302675,40.914024 4.78125,41.875 5.6466277,42.852232 6.9943753,43.5 8.5,43.5 l 7.5,0 1.5,0 1.5,0 0.5,0 0,-0.5 0,-1.25 -0.03125,0 c 0.0096,-0.125508 0.009,-0.190696 0,-0.25 l 0.03125,0 0,-1.5 0,-7.5 c 0,-2.720691 -2.208767,-5 -5,-5 l -8.5,0 -0.5,0 z m 3,10 7,0 0,2 -7,0 C 7.9951765,39.5 7.9571342,39.448611 7.78125,39.25 7.6331845,39.082802 7.502401,38.770483 7.5,38.5 7.4979278,38.210532 7.6330513,37.882946 7.75,37.75 7.9077178,37.570708 7.9580406,37.5 8.5,37.5 z"/><path id="path3802" d="m 6,28 0,1 8.5,0 c 2.519034,0 4.5,2.049922 4.5,4.5 l 0,-1 C 19,30.049922 17.019034,28 14.5,28 L 6,28 z m 2.5,6 c -1.3792903,0 -2.6021596,0.590155 -3.375,1.46875 l -0.03125,0 L 5.0625,35.5 C 4.3290499,36.365593 3.99065,37.445603 4,38.5 4.00139,38.666857 4.012256,38.834179 4.03125,39 4.117778,38.112343 4.4462387,37.227291 5.0625,36.5 l 0.03125,-0.03125 0.03125,0 C 5.8978404,35.590155 7.1207097,35 8.5,35 l 7,0 0.5,0 0,-0.5 0,-0.5 -0.5,0 -7,0 z M 7.0625,39 C 7.0205927,39.155264 6.9986707,39.314313 7,39.5 c 0.0038,0.428221 0.1501803,0.804592 0.40625,1.09375 0.085614,0.09668 0.2264879,0.228465 0.4375,0.3125 C 8.0547621,40.990285 8.2306223,41 8.5,41 l 7,0 0.5,0 0,-0.5 0,-0.5 -0.5,0 -7,0 C 8.2306223,40 8.0547621,39.990285 7.84375,39.90625 7.6327379,39.822215 7.491864,39.69043 7.40625,39.59375 7.2563739,39.424508 7.1306289,39.221905 7.0625,39 z m 11.8125,3 0.09375,0.5625 c 0.0013,0.0088 0.0085,0.04545 0,0.15625 L 18.9375,43 19,43 l 0,-0.75 -0.0625,0 0,-0.25 -0.0625,0 z" style="font-style:normal;font-variant:normal;font-weight:400;font-stretch:normal;text-indent:0;text-align:start;text-decoration:none;line-height:normal;letter-spacing:normal;word-spacing:normal;text-transform:none;direction:ltr;block-progression:tb;writing-mode:lr-tb;text-anchor:start;baseline-shift:baseline;opacity:.2;color:#000;fill:#fff;fill-opacity:1;stroke:none;stroke-width:2;marker:none;visibility:visible;display:inline;overflow:visible;enable-background:accumulate;font-family:Sans;-inkscape-font-specification:Sans"/><g id="g4046" transform="translate(1,1.5)"><path style="opacity:.2;fill:url(#radialGradient4051);fill-opacity:1;stroke:none" id="rect3940" d="m 18,41 0,3 0.5,0 C 19.331,44 20,43.331 20,42.5 20,41.669 19.331,41 18.5,41 L 18,41 z"/><path style="opacity:.2;fill:url(#radialGradient4053);fill-opacity:1;stroke:none" id="rect3942" d="M 4.40625,41 C 3.6271875,41 3,41.627187 3,42.40625 l 0,0.1875 C 3,43.372813 3.6271875,44 4.40625,44 L 5,44 5,41 4.40625,41 z"/><path style="opacity:.2;fill:url(#linearGradient4125);fill-opacity:1;stroke:none" id="rect3938" d="m 5,41 13,0 0,3 -13,0 z"/></g><path id="path2922-6-6-0" d="m 17.5,46.5 c -2.761421,0 -5,-2.238579 -5,-5 0,-2.761421 2.238579,-5 5,-5 2.761429,0 5,2.238579 5,5 0,2.761421 -2.238571,5 -5,5 z" style="color:#000;fill:url(#linearGradient3039);fill-opacity:1;fill-rule:nonzero;stroke:none;stroke-width:.84323651;marker:none;visibility:visible;display:inline;overflow:visible;enable-background:accumulate"/><path style="opacity:.81000001;color:#000;fill:none;stroke:#790000;stroke-width:2.54575038;stroke-miterlimit:4;stroke-opacity:1;stroke-dasharray:none;marker:none;visibility:visible;display:inline;overflow:visible;enable-background:accumulate" id="path4303" d="m 168,265 c -3.86599,0 -7,3.13401 -7,7 0,3.86599 3.13401,7 7,7 3.866,0 7,-3.13401 7,-7 0,-3.86599 -3.134,-7 -7,-7 z" clip-path="url(#clipPath4307)" transform="matrix(0,-0.78562305,-0.78562305,0,231.18883,173.48531)"/><path id="path3868" d="m 15,39 5,5" style="fill:none;stroke:#fff;stroke-width:1px;stroke-linecap:butt;stroke-linejoin:miter;stroke-opacity:1"/><path style="fill:none;stroke:#fff;stroke-width:1px;stroke-linecap:butt;stroke-linejoin:miter;stroke-opacity:1" id="path3870" d="m 20,39 -5,5"/><path id="path3892" d="m 17.5,37 c -2.496773,0 -4.5,2.003219 -4.5,4.5 0,0.172571 0.04386,0.332643 0.0625,0.5 0.251063,-2.253984 2.113298,-4 4.4375,-4 2.324202,0 4.186437,1.746016 4.4375,4 C 21.956141,41.832643 22,41.672571 22,41.5 22,39.003219 19.996773,37 17.5,37 z" style="opacity:.2;color:#000;fill:#fff;fill-opacity:1;fill-rule:nonzero;stroke:none;stroke-width:.84323651;marker:none;visibility:visible;display:inline;overflow:visible;enable-background:accumulate"/><path style="opacity:.2;color:#000;fill:#000;fill-opacity:1;fill-rule:nonzero;stroke:none;stroke-width:.84323651;marker:none;visibility:visible;display:inline;overflow:visible;enable-background:accumulate" id="path3906" d="M 17.5,47 C 15.003227,47 13,44.996781 13,42.5 c 0,-0.172571 0.04386,-0.332643 0.0625,-0.5 0.251063,2.253984 2.113298,4 4.4375,4 2.324202,0 4.186437,-1.746016 4.4375,-4 C 21.956141,42.167357 22,42.327429 22,42.5 22,44.996781 19.996773,47 17.5,47 z"/></g></svg>