<svg xmlns="http://www.w3.org/2000/svg" xmlns:svg="http://www.w3.org/2000/svg" xmlns:xlink="http://www.w3.org/1999/xlink" id="svg3495" width="24" height="24" version="1.1"><defs id="defs3497"><linearGradient id="linearGradient3821"><stop id="stop3823" offset="0" style="stop-color:#555;stop-opacity:1"/><stop id="stop3825" offset="1" style="stop-color:#666;stop-opacity:1"/></linearGradient><linearGradient id="linearGradient3824" x1="12" x2="12" y1="22" y2="0" gradientUnits="userSpaceOnUse" xlink:href="#linearGradient3821"/><linearGradient id="linearGradient3952-38"><stop id="stop3954-7" offset="0" style="stop-color:#000;stop-opacity:1"/><stop id="stop3956-2" offset="1" style="stop-color:#000;stop-opacity:0"/></linearGradient><linearGradient id="linearGradient3944-2"><stop id="stop3946-5" offset="0" style="stop-color:#000;stop-opacity:1"/><stop id="stop3948-8" offset="1" style="stop-color:#000;stop-opacity:0"/></linearGradient><linearGradient id="linearGradient3960-2"><stop id="stop3962-9" offset="0" style="stop-color:#000;stop-opacity:0"/><stop style="stop-color:#000;stop-opacity:1" id="stop3970-8" offset=".5"/><stop id="stop3964-7" offset="1" style="stop-color:#000;stop-opacity:0"/></linearGradient><linearGradient id="linearGradient3052" x1="25" x2="25" y1="45" y2="42" gradientTransform="translate(-10,2.5)" gradientUnits="userSpaceOnUse" xlink:href="#linearGradient3960-2"/><radialGradient id="radialGradient3055" cx="9" cy="43.5" r="2" fx="9" fy="43.5" gradientTransform="matrix(1,0,0,0.75,-5,13.375)" gradientUnits="userSpaceOnUse" xlink:href="#linearGradient3944-2"/><radialGradient id="radialGradient3058" cx="40" cy="43.5" r="2" fx="40" fy="43.5" gradientTransform="matrix(1,0,0,0.75,-22,13.375)" gradientUnits="userSpaceOnUse" xlink:href="#linearGradient3952-38"/><linearGradient id="linearGradient3081" x1="12" x2="12" y1="22" y2="0" gradientUnits="userSpaceOnUse" xlink:href="#linearGradient3821"/><radialGradient id="radialGradient3083" cx="40" cy="43.5" r="2" fx="40" fy="43.5" gradientTransform="matrix(1,0,0,0.75,-22,13.375)" gradientUnits="userSpaceOnUse" xlink:href="#linearGradient3952-38"/><radialGradient id="radialGradient3085" cx="9" cy="43.5" r="2" fx="9" fy="43.5" gradientTransform="matrix(1,0,0,0.75,-5,13.375)" gradientUnits="userSpaceOnUse" xlink:href="#linearGradient3944-2"/><linearGradient id="linearGradient3087" x1="25" x2="25" y1="45" y2="42" gradientTransform="translate(-10,2.5)" gradientUnits="userSpaceOnUse" xlink:href="#linearGradient3960-2"/><linearGradient id="linearGradient3105" x1="12" x2="12" y1="22" y2="0" gradientUnits="userSpaceOnUse" xlink:href="#linearGradient3821"/><radialGradient id="radialGradient3107" cx="40" cy="43.5" r="2" fx="40" fy="43.5" gradientTransform="matrix(1,0,0,0.75,-22,13.375)" gradientUnits="userSpaceOnUse" xlink:href="#linearGradient3952-38"/><radialGradient id="radialGradient3109" cx="9" cy="43.5" r="2" fx="9" fy="43.5" gradientTransform="matrix(1,0,0,0.75,-5,13.375)" gradientUnits="userSpaceOnUse" xlink:href="#linearGradient3944-2"/><linearGradient id="linearGradient3111" x1="25" x2="25" y1="45" y2="42" gradientTransform="translate(-10,2.5)" gradientUnits="userSpaceOnUse" xlink:href="#linearGradient3960-2"/><linearGradient id="linearGradient3129" x1="12" x2="12" y1="22" y2="0" gradientUnits="userSpaceOnUse" xlink:href="#linearGradient3821"/><radialGradient id="radialGradient3131" cx="40" cy="43.5" r="2" fx="40" fy="43.5" gradientTransform="matrix(1,0,0,0.75,-22,13.375)" gradientUnits="userSpaceOnUse" xlink:href="#linearGradient3952-38"/><radialGradient id="radialGradient3133" cx="9" cy="43.5" r="2" fx="9" fy="43.5" gradientTransform="matrix(1,0,0,0.75,-5,13.375)" gradientUnits="userSpaceOnUse" xlink:href="#linearGradient3944-2"/><linearGradient id="linearGradient3135" x1="25" x2="25" y1="45" y2="42" gradientTransform="translate(-10,2.5)" gradientUnits="userSpaceOnUse" xlink:href="#linearGradient3960-2"/></defs><metadata id="metadata3500"/><g id="layer1" transform="translate(0,-24)"><g id="g3849" transform="translate(1,7)"><path style="fill:url(#linearGradient3824);fill-opacity:1;stroke:none" id="rect3816" d="m 1.5,8.5 0,0.5 0,2 0,0.5 0.5,0 18,0 0.5,0 0,-0.5 0,-2 0,-0.5 -0.5,0 -18,0 -0.5,0 z" transform="translate(0,26)"/><path id="path3833" d="m 1.5,8.5 0,0.5 0,2 0,0.5 0.5,0 18,0 0.5,0 0,-0.5 0,-2 0,-0.5 -0.5,0 -18,0 -0.5,0 z" transform="translate(0,26)" style="opacity:.61000001;fill:none;stroke:#000;stroke-width:1;stroke-miterlimit:4;stroke-opacity:1;stroke-dasharray:none"/><path style="opacity:.2;fill:#fff;fill-opacity:1;stroke:none" id="path3835" d="M 2,9 2,10 20,10 20,9 2,9 z" transform="translate(0,26)"/></g><g id="g3060" transform="translate(1,-1)"><path style="opacity:.2;fill:url(#radialGradient3058);fill-opacity:1;stroke:none" id="rect3940-4" d="m 18,44.5 0,3 0.5,0 c 0.831,0 1.5,-0.669 1.5,-1.5 0,-0.831 -0.669,-1.5 -1.5,-1.5 l -0.5,0 z"/><path style="opacity:.2;fill:url(#radialGradient3055);fill-opacity:1;stroke:none" id="rect3942-9" d="M 3.40625,44.5 C 2.6271875,44.5 2,45.127187 2,45.90625 l 0,0.1875 C 2,46.872813 2.6271875,47.5 3.40625,47.5 L 4,47.5 l 0,-3 -0.59375,0 z"/><path style="opacity:.2;fill:url(#linearGradient3052);fill-opacity:1;stroke:none" id="rect3938-7" d="m 4,44.5 14,0 0,3 -14,0 z"/></g><g id="g3065" transform="translate(1,2)"><path id="path3067" d="m 1.5,8.5 0,0.5 0,2 0,0.5 0.5,0 18,0 0.5,0 0,-0.5 0,-2 0,-0.5 -0.5,0 -18,0 -0.5,0 z" transform="translate(0,26)" style="fill:url(#linearGradient3081);fill-opacity:1;stroke:none"/><path style="opacity:.61000001;fill:none;stroke:#000;stroke-width:1;stroke-miterlimit:4;stroke-opacity:1;stroke-dasharray:none" id="path3069" d="m 1.5,8.5 0,0.5 0,2 0,0.5 0.5,0 18,0 0.5,0 0,-0.5 0,-2 0,-0.5 -0.5,0 -18,0 -0.5,0 z" transform="translate(0,26)"/><path id="path3071" d="M 2,9 2,10 20,10 20,9 2,9 z" transform="translate(0,26)" style="opacity:.2;fill:#fff;fill-opacity:1;stroke:none"/></g><g id="g3073" transform="translate(1,-6)"><path id="path3075" d="m 18,44.5 0,3 0.5,0 c 0.831,0 1.5,-0.669 1.5,-1.5 0,-0.831 -0.669,-1.5 -1.5,-1.5 l -0.5,0 z" style="opacity:.2;fill:url(#radialGradient3083);fill-opacity:1;stroke:none"/><path id="path3077" d="M 3.40625,44.5 C 2.6271875,44.5 2,45.127187 2,45.90625 l 0,0.1875 C 2,46.872813 2.6271875,47.5 3.40625,47.5 L 4,47.5 l 0,-3 -0.59375,0 z" style="opacity:.2;fill:url(#radialGradient3085);fill-opacity:1;stroke:none"/><path id="path3079" d="m 4,44.5 14,0 0,3 -14,0 z" style="opacity:.2;fill:url(#linearGradient3087);fill-opacity:1;stroke:none"/></g><g id="g3089" transform="translate(1,-3)"><path style="fill:url(#linearGradient3105);fill-opacity:1;stroke:none" id="path3091" d="m 1.5,8.5 0,0.5 0,2 0,0.5 0.5,0 18,0 0.5,0 0,-0.5 0,-2 0,-0.5 -0.5,0 -18,0 -0.5,0 z" transform="translate(0,26)"/><path id="path3093" d="m 1.5,8.5 0,0.5 0,2 0,0.5 0.5,0 18,0 0.5,0 0,-0.5 0,-2 0,-0.5 -0.5,0 -18,0 -0.5,0 z" transform="translate(0,26)" style="opacity:.61000001;fill:none;stroke:#000;stroke-width:1;stroke-miterlimit:4;stroke-opacity:1;stroke-dasharray:none"/><path style="opacity:.2;fill:#fff;fill-opacity:1;stroke:none" id="path3095" d="M 2,9 2,10 20,10 20,9 2,9 z" transform="translate(0,26)"/></g><g id="g3097" transform="translate(1,-11)"><path style="opacity:.2;fill:url(#radialGradient3107);fill-opacity:1;stroke:none" id="path3099" d="m 18,44.5 0,3 0.5,0 c 0.831,0 1.5,-0.669 1.5,-1.5 0,-0.831 -0.669,-1.5 -1.5,-1.5 l -0.5,0 z"/><path style="opacity:.2;fill:url(#radialGradient3109);fill-opacity:1;stroke:none" id="path3101" d="M 3.40625,44.5 C 2.6271875,44.5 2,45.127187 2,45.90625 l 0,0.1875 C 2,46.872813 2.6271875,47.5 3.40625,47.5 L 4,47.5 l 0,-3 -0.59375,0 z"/><path style="opacity:.2;fill:url(#linearGradient3111);fill-opacity:1;stroke:none" id="path3103" d="m 4,44.5 14,0 0,3 -14,0 z"/></g><g id="g3113" transform="translate(1,-8)"><path id="path3115" d="m 1.5,8.5 0,0.5 0,2 0,0.5 0.5,0 18,0 0.5,0 0,-0.5 0,-2 0,-0.5 -0.5,0 -18,0 -0.5,0 z" transform="translate(0,26)" style="fill:url(#linearGradient3129);fill-opacity:1;stroke:none"/><path style="opacity:.61000001;fill:none;stroke:#000;stroke-width:1;stroke-miterlimit:4;stroke-opacity:1;stroke-dasharray:none" id="path3117" d="m 1.5,8.5 0,0.5 0,2 0,0.5 0.5,0 18,0 0.5,0 0,-0.5 0,-2 0,-0.5 -0.5,0 -18,0 -0.5,0 z" transform="translate(0,26)"/><path id="path3119" d="M 2,9 2,10 20,10 20,9 2,9 z" transform="translate(0,26)" style="opacity:.2;fill:#fff;fill-opacity:1;stroke:none"/></g><g id="g3121" transform="translate(1,-16)"><path id="path3123" d="m 18,44.5 0,3 0.5,0 c 0.831,0 1.5,-0.669 1.5,-1.5 0,-0.831 -0.669,-1.5 -1.5,-1.5 l -0.5,0 z" style="opacity:.2;fill:url(#radialGradient3131);fill-opacity:1;stroke:none"/><path id="path3125" d="M 3.40625,44.5 C 2.6271875,44.5 2,45.127187 2,45.90625 l 0,0.1875 C 2,46.872813 2.6271875,47.5 3.40625,47.5 L 4,47.5 l 0,-3 -0.59375,0 z" style="opacity:.2;fill:url(#radialGradient3133);fill-opacity:1;stroke:none"/><path id="path3127" d="m 4,44.5 14,0 0,3 -14,0 z" style="opacity:.2;fill:url(#linearGradient3135);fill-opacity:1;stroke:none"/></g></g></svg>