<svg xmlns="http://www.w3.org/2000/svg" xmlns:svg="http://www.w3.org/2000/svg" xmlns:xlink="http://www.w3.org/1999/xlink" id="svg3495" width="24" height="24" version="1.1"><defs id="defs3497"><linearGradient id="linearGradient3821"><stop id="stop3823" offset="0" style="stop-color:#555;stop-opacity:1"/><stop id="stop3825" offset="1" style="stop-color:#666;stop-opacity:1"/></linearGradient><linearGradient id="linearGradient3809" x1="10" x2="10" y1="22" y2="0" gradientTransform="translate(1,25)" gradientUnits="userSpaceOnUse" xlink:href="#linearGradient3821"/></defs><metadata id="metadata3500"/><g id="layer1" transform="translate(0,-24)"><path id="path3014" d="m 3.28125,37.00025 0.375,0.375 8,8 L 12,45.719 l 0.34375,-0.34375 8,-8 0.375,-0.375 -0.375,-0.34375 -1.375,-1.375 -0.34375,-0.375 -0.375,0.375 -4.71875,4.75 0,-12 0,-0.5 -0.5,0 -2,0 -0.5,0 0,0.5 0,12.03125 L 5.75,35.2815 l -0.375,-0.375 -0.34375,0.375 -1.375,1.375 -0.375,0.34375 z" style="font-size:medium;font-style:normal;font-variant:normal;font-weight:400;font-stretch:normal;text-indent:0;text-align:start;text-decoration:none;line-height:normal;letter-spacing:normal;word-spacing:normal;text-transform:none;direction:ltr;block-progression:tb;writing-mode:lr-tb;text-anchor:start;baseline-shift:baseline;color:#000;fill:url(#linearGradient3809);fill-opacity:1;stroke:none;stroke-width:1;marker:none;visibility:visible;display:inline;overflow:visible;enable-background:accumulate;font-family:Sans;-inkscape-font-specification:Sans"/><path style="font-size:medium;font-style:normal;font-variant:normal;font-weight:400;font-stretch:normal;text-indent:0;text-align:start;text-decoration:none;line-height:normal;letter-spacing:normal;word-spacing:normal;text-transform:none;direction:ltr;block-progression:tb;writing-mode:lr-tb;text-anchor:start;baseline-shift:baseline;opacity:.61000001;color:#000;fill:none;stroke:#000;stroke-width:1;stroke-opacity:1;marker:none;visibility:visible;display:inline;overflow:visible;enable-background:accumulate;font-family:Sans;-inkscape-font-specification:Sans" id="path3821" d="m 3.28125,37.00025 0.375,0.375 8,8 L 12,45.719 l 0.34375,-0.34375 8,-8 0.375,-0.375 -0.375,-0.34375 -1.375,-1.375 -0.34375,-0.375 -0.375,0.375 -4.71875,4.75 0,-12 0,-0.5 -0.5,0 -2,0 -0.5,0 0,0.5 0,12.03125 L 5.75,35.2815 l -0.375,-0.375 -0.34375,0.375 -1.375,1.375 -0.375,0.34375 z"/><path id="path3940" d="m 11.03125,28.03125 0,1 2,0 0,-1 -2,0 z M 5.375,35.625 4,37 4,37.03125 4.5,37.5 l 0.875,-0.875 0.03125,0 4.78125,4.78125 0.84375,0.875 0,-1 -0.84375,-0.875 -4.78125,-4.78125 -0.03125,0 z m 13.21875,0 -4.71875,4.75 -0.84375,0.875 0,1 0.84375,-0.875 4.71875,-4.75 0.03125,0 L 19.5,37.5 20,37.03125 20,37 l -1.375,-1.375 -0.03125,0 z" style="font-size:medium;font-style:normal;font-variant:normal;font-weight:400;font-stretch:normal;text-indent:0;text-align:start;text-decoration:none;line-height:normal;letter-spacing:normal;word-spacing:normal;text-transform:none;direction:ltr;block-progression:tb;writing-mode:lr-tb;text-anchor:start;baseline-shift:baseline;opacity:.2;color:#000;fill:#fff;fill-opacity:1;stroke:none;stroke-width:1;marker:none;visibility:visible;display:inline;overflow:visible;enable-background:accumulate;font-family:Sans;-inkscape-font-specification:Sans"/></g></svg>