<svg xmlns="http://www.w3.org/2000/svg" xmlns:svg="http://www.w3.org/2000/svg" xmlns:xlink="http://www.w3.org/1999/xlink" id="svg3495" width="24" height="24" version="1.1"><defs id="defs3497"><linearGradient id="linearGradient3755"><stop id="stop3757" offset="0" style="stop-color:#555;stop-opacity:1"/><stop id="stop3759" offset="1" style="stop-color:#666;stop-opacity:1"/></linearGradient><linearGradient id="linearGradient3761" x1="12" x2="12" y1="48" y2="24" gradientTransform="translate(0,1)" gradientUnits="userSpaceOnUse" xlink:href="#linearGradient3755"/></defs><metadata id="metadata3500"/><g id="layer1" transform="translate(0,-24)"><path id="path4769" d="m 12,26.28125 -0.34375,0.375 -8,8 L 3.5,34.78125 3.5,35 l 0,8 0,2 0,0.5 0.5,0 2,0 5.03125,0 2,0 4.96875,0 2,0 0.5,0 0,-0.5 0,-2 0,-8 0,-0.21875 -0.15625,-0.125 -8,-8 z m 0,4.1875 0.6875,0.65625 4.8125,4.84375 0,6.53125 -2.5,0 -1.96875,0 -2,0 -2.03125,0 -2.5,0 0,-6.53125 4.875,-4.875 z" style="fill:url(#linearGradient3761);fill-opacity:1;fill-rule:nonzero;stroke:none"/><path style="opacity:.61000001;fill:none;stroke:#000;stroke-opacity:1" id="path3771" d="m 12,26.28125 -0.34375,0.375 -8,8 L 3.5,34.78125 3.5,35 l 0,8 0,2 0,0.5 0.5,0 2,0 5.03125,0 2,0 4.96875,0 2,0 0.5,0 0,-0.5 0,-2 0,-8 0,-0.21875 -0.15625,-0.125 -8,-8 z m 0,4.1875 0.6875,0.65625 4.8125,4.84375 0,6.53125 -2.5,0 -1.96875,0 -2,0 -2.03125,0 -2.5,0 0,-6.53125 4.875,-4.875 z"/><path id="path3773" d="M 11.96875,27 4,35 4,35.03125 4,36 11.96875,28 12,28 12.03125,28 20,36 20,35.03125 20,35 12.03125,27 12,27 z M 6,43 l 0,0.5 0,0.5 0.5,0 2.5,0 2.03125,0 2,0 1.96875,0 2.5,0 0.5,0 0,-0.5 0,-0.5 -0.5,0 -2.5,0 -1.96875,0 -2,0 L 9,43 6.5,43 z" style="opacity:.2;fill:#fff;fill-opacity:1;fill-rule:nonzero;stroke:none"/></g></svg>