<svg xmlns="http://www.w3.org/2000/svg" xmlns:svg="http://www.w3.org/2000/svg" xmlns:xlink="http://www.w3.org/1999/xlink" id="svg3495" width="24" height="24" version="1.1"><defs id="defs3497"><linearGradient id="linearGradient3821"><stop id="stop3823" offset="0" style="stop-color:#555;stop-opacity:1"/><stop id="stop3825" offset="1" style="stop-color:#666;stop-opacity:1"/></linearGradient><linearGradient id="linearGradient3809" x1="10" x2="10" y1="22" y2="0" gradientTransform="translate(1,25)" gradientUnits="userSpaceOnUse" xlink:href="#linearGradient3821"/></defs><metadata id="metadata3500"/><g id="layer1" transform="translate(0,-24)"><path id="path3014" d="m 3.28125,35.03125 0.375,-0.375 8,-8 L 12,26.3125 l 0.34375,0.34375 8,8 0.375,0.375 -0.375,0.34375 -1.375,1.375 L 18.625,37.125 18.25,36.75 13.53125,32 l 0,12 0,0.5 -0.5,0 -2,0 -0.5,0 0,-0.5 0,-12.03125 L 5.75,36.75 5.375,37.125 5.03125,36.75 l -1.375,-1.375 -0.375,-0.34375 z" style="font-size:medium;font-style:normal;font-variant:normal;font-weight:400;font-stretch:normal;text-indent:0;text-align:start;text-decoration:none;line-height:normal;letter-spacing:normal;word-spacing:normal;text-transform:none;direction:ltr;block-progression:tb;writing-mode:lr-tb;text-anchor:start;baseline-shift:baseline;color:#000;fill:url(#linearGradient3809);fill-opacity:1;stroke:none;stroke-width:1;marker:none;visibility:visible;display:inline;overflow:visible;enable-background:accumulate;font-family:Sans;-inkscape-font-specification:Sans"/><path style="font-size:medium;font-style:normal;font-variant:normal;font-weight:400;font-stretch:normal;text-indent:0;text-align:start;text-decoration:none;line-height:normal;letter-spacing:normal;word-spacing:normal;text-transform:none;direction:ltr;block-progression:tb;writing-mode:lr-tb;text-anchor:start;baseline-shift:baseline;opacity:.61000001;color:#000;fill:none;stroke:#000;stroke-width:1;stroke-opacity:1;marker:none;visibility:visible;display:inline;overflow:visible;enable-background:accumulate;font-family:Sans;-inkscape-font-specification:Sans" id="path3821" d="m 3.28125,35.03125 0.375,-0.375 8,-8 L 12,26.3125 l 0.34375,0.34375 8,8 0.375,0.375 -0.375,0.34375 -1.375,1.375 L 18.625,37.125 18.25,36.75 13.53125,32 l 0,12 0,0.5 -0.5,0 -2,0 -0.5,0 0,-0.5 0,-12.03125 L 5.75,36.75 5.375,37.125 5.03125,36.75 l -1.375,-1.375 -0.375,-0.34375 z"/><path id="path3895" d="M 12,27 4,35 4,35.03125 4.5,35.5 12,28 19.5,35.5 20,35.03125 20,35 12,27 z" style="font-size:medium;font-style:normal;font-variant:normal;font-weight:400;font-stretch:normal;text-indent:0;text-align:start;text-decoration:none;line-height:normal;letter-spacing:normal;word-spacing:normal;text-transform:none;direction:ltr;block-progression:tb;writing-mode:lr-tb;text-anchor:start;baseline-shift:baseline;opacity:.2;color:#000;fill:#fff;fill-opacity:1;stroke:none;stroke-width:1;marker:none;visibility:visible;display:inline;overflow:visible;enable-background:accumulate;font-family:Sans;-inkscape-font-specification:Sans"/></g></svg>