<svg xmlns="http://www.w3.org/2000/svg" xmlns:svg="http://www.w3.org/2000/svg" xmlns:xlink="http://www.w3.org/1999/xlink" id="svg3495" width="24" height="24" version="1.1"><defs id="defs3497"><linearGradient id="linearGradient3802" x1="11" x2="11" y1="0" y2="22" gradientTransform="matrix(1,0,0,-1,1,47)" gradientUnits="userSpaceOnUse" xlink:href="#outerBackgroundGradient-0"/><linearGradient id="linearGradient3904"><stop style="stop-color:#234683;stop-opacity:1" id="stop3906" offset="0"/><stop style="stop-color:#30589e;stop-opacity:1" id="stop3908" offset="1"/></linearGradient><linearGradient id="outerBackgroundGradient-0"><stop id="stop3864-8-6-3" offset="0" style="stop-color:#1c6aba;stop-opacity:1"/><stop id="stop3866-9-1-7" offset="1" style="stop-color:#4195ec;stop-opacity:1"/></linearGradient><linearGradient id="linearGradient3839" x1="1" x2="21" y1="11" y2="11" gradientTransform="matrix(0,-1,1,0,1,47)" gradientUnits="userSpaceOnUse" xlink:href="#linearGradient3904"/><radialGradient id="radialGradient3993" cx="11" cy="20" r="9" fx="11" fy="20" gradientTransform="matrix(1,0,0,0.22222222,0,15.555556)" gradientUnits="userSpaceOnUse" xlink:href="#linearGradient3949"/><linearGradient id="linearGradient3949"><stop id="stop3951" offset="0" style="stop-color:#000;stop-opacity:1"/><stop id="stop3953" offset="1" style="stop-color:#000;stop-opacity:0"/></linearGradient><radialGradient id="radialGradient4535" cx="11" cy="20" r="9" fx="11" fy="20" gradientTransform="matrix(1,0,0,0.22222222,0,15.555556)" gradientUnits="userSpaceOnUse" xlink:href="#linearGradient3949"/></defs><metadata id="metadata3500"/><g id="layer1" transform="translate(0,-24)"><g id="g4507" transform="translate(1,-1)"><path style="opacity:.4;fill:url(#radialGradient3993);fill-opacity:1;stroke:none" id="path3163" d="m 20,20 c 0,1.104569 -4.029437,2 -9,2 -4.9705627,0 -9,-0.895431 -9,-2 0,-1.104569 4.0294373,-2 9,-2 4.970563,0 9,0.895431 9,2 z" transform="matrix(1,0,0,1.5,0,15)"/><path id="path3995" d="m 20,20 c 0,1.104569 -4.029437,2 -9,2 -4.9705627,0 -9,-0.895431 -9,-2 0,-1.104569 4.0294373,-2 9,-2 4.970563,0 9,0.895431 9,2 z" transform="matrix(0.66666667,0,0,1,3.6666666,26)" style="opacity:.8;fill:url(#radialGradient4535);fill-opacity:1;stroke:none"/></g><path id="path4791" d="m 12,45.5 c -5.2407828,0 -9.5,-4.259217 -9.5,-9.5 0,-5.240782 4.2592171,-9.5 9.5,-9.5 5.240783,0 9.5,4.259218 9.5,9.5 0,5.240783 -4.259217,9.5 -9.5,9.5 z" style="fill:url(#linearGradient3802);fill-opacity:1;fill-rule:evenodd;stroke:none"/><path style="opacity:.81000001;fill:none;stroke:url(#linearGradient3839);stroke-opacity:1" id="path3804" d="m 2.5,36 c 0,5.240783 4.259217,9.5 9.5,9.5 5.240782,0 9.5,-4.259217 9.5,-9.5 0,-5.240783 -4.259218,-9.5 -9.5,-9.5 -5.240783,0 -9.5,4.259217 -9.5,9.5 z"/><path id="path3806" d="m 12,27 c -4.9698807,0 -9,4.030119 -9,9 0,0.171541 0.021774,0.330826 0.03125,0.5 C 3.2963002,31.767849 7.2016599,28 12,28 c 4.79834,0 8.7037,3.767849 8.96875,8.5 C 20.978226,36.330826 21,36.171541 21,36 21,31.030119 16.969881,27 12,27 z" style="opacity:.2;fill:#fff;fill-opacity:1;fill-rule:evenodd;stroke:none"/><path style="opacity:.2;fill:#000;fill-opacity:1;fill-rule:evenodd;stroke:none" id="path3820" d="M 12,46 C 7.0301193,46 3,41.969881 3,37 3,36.828459 3.021774,36.669174 3.03125,36.5 3.2963002,41.232151 7.2016599,45 12,45 16.79834,45 20.7037,41.232151 20.96875,36.5 20.97825,36.669174 21,36.828459 21,37 c 0,4.969881 -4.030119,9 -9,9 z"/></g><g id="layer2" transform="translate(0,2)"><path id="path3793" d="m 10.660705,4.99999 0,4.2857449 c 0.0069,1.7195181 0.428574,2.0625151 0.428574,3.6696691 l 1.714298,0 c 0,-1.607154 0.344574,-1.60418 0.428575,-3.6696691 l 0,-4.2857449 -2.571447,0 z M 12,14.294699 c -0.19603,0 -0.390688,0.033 -0.562504,0.08032 -0.17239,0.04783 -0.301725,0.108198 -0.428574,0.214287 -0.127424,0.10609 -0.223159,0.256759 -0.294645,0.428575 -0.07149,0.172398 -0.107144,0.393783 -0.107144,0.642862 0,0.238698 0.03566,0.41978 0.107144,0.58929 0.07149,0.168935 0.167221,0.317299 0.294645,0.428574 0.126849,0.110701 0.256184,0.19033 0.428574,0.241073 C 11.609312,16.96982 11.80397,17 12,17 c 0.185659,0 0.369088,-0.03017 0.535718,-0.08032 0.16663,-0.05074 0.301151,-0.130372 0.428575,-0.241073 0.126849,-0.111275 0.220244,-0.259639 0.294645,-0.428574 0.07431,-0.16951 0.133929,-0.350592 0.133929,-0.58929 0,-0.249079 -0.05957,-0.470464 -0.133929,-0.642862 -0.0744,-0.171816 -0.167796,-0.322485 -0.294645,-0.428575 C 12.836869,14.483217 12.702348,14.422848 12.535718,14.375019 12.369088,14.327789 12.185659,14.294699 12,14.294699 z" style="font-size:40px;font-style:normal;font-variant:normal;font-weight:300;font-stretch:normal;line-height:125%;letter-spacing:0;word-spacing:0;fill:#000;fill-opacity:1;stroke:none;display:inline;enable-background:new;font-family:Ubuntu;-inkscape-font-specification:Ubuntu Light;opacity:.3"/><path style="font-size:40px;font-style:normal;font-variant:normal;font-weight:300;font-stretch:normal;line-height:125%;letter-spacing:0;word-spacing:0;fill:#fff;fill-opacity:1;stroke:none;display:inline;enable-background:new;font-family:Ubuntu;-inkscape-font-specification:Ubuntu Light" id="path4113" d="m 10.660705,3.999995 0,4.2857449 c 0.0069,1.7195181 0.428574,2.0625151 0.428574,3.6696691 l 1.714298,0 c 0,-1.607154 0.344574,-1.60418 0.428575,-3.6696691 l 0,-4.2857449 -2.571447,0 z M 12,13.294704 c -0.19603,0 -0.390688,0.033 -0.562504,0.08032 -0.17239,0.04783 -0.301725,0.108198 -0.428574,0.214287 -0.127424,0.10609 -0.223159,0.256759 -0.294645,0.428575 -0.07149,0.172398 -0.107144,0.393783 -0.107144,0.642862 0,0.238698 0.03566,0.41978 0.107144,0.58929 0.07149,0.168935 0.167221,0.317299 0.294645,0.428574 0.126849,0.110701 0.256184,0.19033 0.428574,0.241073 0.171816,0.05014 0.366474,0.08032 0.562504,0.08032 0.185659,0 0.369088,-0.03017 0.535718,-0.08032 0.16663,-0.05074 0.301151,-0.130372 0.428575,-0.241073 0.126849,-0.111275 0.220244,-0.259639 0.294645,-0.428574 0.07431,-0.16951 0.133929,-0.350592 0.133929,-0.58929 0,-0.249079 -0.05957,-0.470464 -0.133929,-0.642862 -0.0744,-0.171816 -0.167796,-0.322485 -0.294645,-0.428575 C 12.836869,13.483222 12.702348,13.422853 12.535718,13.375024 12.369088,13.327794 12.185659,13.294704 12,13.294704 z"/></g></svg>