<svg xmlns="http://www.w3.org/2000/svg" xmlns:svg="http://www.w3.org/2000/svg" xmlns:xlink="http://www.w3.org/1999/xlink" id="svg2976" width="24" height="24" version="1.1"><defs id="defs2978"><linearGradient id="linearGradient3672-0"><stop id="stop3674-1" offset="0" style="stop-color:#3a3a3a;stop-opacity:1"/><stop id="stop3676-0" offset="1" style="stop-color:#006d6d;stop-opacity:1"/></linearGradient><linearGradient id="linearGradient3624-1"><stop id="stop3626-3" offset="0" style="stop-color:#700000;stop-opacity:1"/><stop style="stop-color:#6d3600;stop-opacity:1" id="stop3638-7" offset=".168"/><stop style="stop-color:#6c6100;stop-opacity:1" id="stop3636-7" offset=".345"/><stop style="stop-color:#2f6000;stop-opacity:1" id="stop3634-2" offset=".519"/><stop style="stop-color:#00214c;stop-opacity:1" id="stop3632-6" offset=".693"/><stop id="stop3640-4" offset=".827" style="stop-color:#36003f;stop-opacity:1"/><stop id="stop3628-5" offset="1" style="stop-color:#540000;stop-opacity:1"/></linearGradient><linearGradient id="linearGradient3672-2"><stop id="stop3674-6" offset="0" style="stop-color:gray;stop-opacity:1"/><stop id="stop3676-9" offset="1" style="stop-color:#00b2b2;stop-opacity:1"/></linearGradient><linearGradient id="linearGradient3624-10"><stop id="stop3626-4" offset="0" style="stop-color:#c00;stop-opacity:1"/><stop style="stop-color:#f57900;stop-opacity:1" id="stop3638-2" offset=".168"/><stop style="stop-color:#edd400;stop-opacity:1" id="stop3636-74" offset=".345"/><stop style="stop-color:#73d216;stop-opacity:1" id="stop3634-0" offset=".519"/><stop style="stop-color:#3465a4;stop-opacity:1" id="stop3632-3" offset=".693"/><stop id="stop3640-2" offset=".827" style="stop-color:#75507b;stop-opacity:1"/><stop id="stop3628-8" offset="1" style="stop-color:#c00;stop-opacity:1"/></linearGradient><linearGradient id="linearGradient3650-0"><stop style="stop-color:#2e3436;stop-opacity:1" id="stop3662-3" offset="0"/><stop style="stop-color:#eeeeec;stop-opacity:1" id="stop3664-7" offset="1"/></linearGradient><linearGradient id="linearGradient3850" x1="2" x2="22" y1="36" y2="36" gradientUnits="userSpaceOnUse" xlink:href="#linearGradient3672-0"/><linearGradient id="linearGradient3852" x1="3.5" x2="28.5" y1="6" y2="6" gradientTransform="matrix(0.76,0,0,1,-0.16,30)" gradientUnits="userSpaceOnUse" xlink:href="#linearGradient3672-2"/><linearGradient id="linearGradient3854" x1="3.5" x2="28.5" y1="6" y2="6" gradientTransform="matrix(0.76,0,0,1,-0.16,36)" gradientUnits="userSpaceOnUse" xlink:href="#linearGradient3650-0"/><linearGradient id="linearGradient3856" x1="3.5" x2="28.5" y1="6" y2="6" gradientTransform="matrix(0.76,0,0,1,-0.16,24)" gradientUnits="userSpaceOnUse" xlink:href="#linearGradient3624-10"/><linearGradient id="linearGradient3858" x1="2" x2="22" y1="29" y2="29" gradientTransform="translate(0,1)" gradientUnits="userSpaceOnUse" xlink:href="#linearGradient3624-1"/></defs><metadata id="metadata2981"/><g id="layer1" transform="translate(0,-24)"><path id="path3684" d="m 2.5,40.5 0,4 19,0 0,-4 z" style="fill:url(#linearGradient3854);fill-opacity:1;stroke:none"/><path id="path3692" d="m 2.5,34.5 0,4 19,0 0,-4 z" style="fill:url(#linearGradient3852);fill-opacity:1;stroke:none"/><path id="rect3682" d="m 2.5,40.5 19.000275,0 0,4 L 2.5,44.5 z" style="opacity:.61000001;fill:none;stroke:#000;stroke-width:1;stroke-miterlimit:4;stroke-opacity:1"/><path id="path3686" d="m 2.5,28.5 0,4 19,0 0,-4 z" style="fill:url(#linearGradient3856);fill-opacity:1;stroke:none"/><path id="rect3678" d="m 2.5,28.499863 19.000275,0 0,4 -19.000275,0 z" style="opacity:.61000001;fill:none;stroke:url(#linearGradient3858);stroke-width:1;stroke-miterlimit:4;stroke-opacity:1"/><path id="rect3680" d="m 2.5,34.499863 19.000275,0 0,4 -19.000275,0 z" style="opacity:.81000001;fill:none;stroke:url(#linearGradient3850);stroke-width:1;stroke-miterlimit:4;stroke-opacity:1"/><path id="rect3826" d="m 3,29 18,0 0,1 -18,0 z" style="opacity:.6;fill:#fff;fill-opacity:1;stroke:none"/><path id="rect3828" d="m 3,35 18,0 0,1 -18,0 z" style="opacity:.41000001;fill:#fff;fill-opacity:1;stroke:none"/><path id="rect3830" d="m 3,41 18,0 0,1 -18,0 z" style="opacity:.41000001;fill:#fff;fill-opacity:1;stroke:none"/><path id="rect3832" d="m 3,32 18,0 0,1 -18,0 z" style="opacity:.4;fill:#000;fill-opacity:1;stroke:none"/><path id="rect3834" d="m 3,38 18,0 0,1 -18,0 z" style="opacity:.4;fill:#000;fill-opacity:1;stroke:none"/><path id="rect3836" d="m 3,44 18,0 0,1 -18,0 z" style="opacity:.4;fill:#000;fill-opacity:1;stroke:none"/></g></svg>