<svg xmlns="http://www.w3.org/2000/svg" xmlns:svg="http://www.w3.org/2000/svg" xmlns:xlink="http://www.w3.org/1999/xlink" id="svg3495" width="24" height="24" version="1.1"><defs id="defs3497"><linearGradient id="linearGradient3785"><stop id="stop3787" offset="0" style="stop-color:#555;stop-opacity:1"/><stop id="stop3789" offset="1" style="stop-color:#666;stop-opacity:1"/></linearGradient><linearGradient id="linearGradient3791" x1="12" x2="12" y1="22" y2="-2" gradientTransform="translate(1,25)" gradientUnits="userSpaceOnUse" xlink:href="#linearGradient3785"/></defs><metadata id="metadata3500"/><g id="layer1" transform="translate(0,-24)"><path id="path5972" d="M 16,25.84375 15.59375,26.4375 11.25,32.75 l -0.53125,0.78125 0.9375,0 1.84375,0 0,5.46875 0,0.5 0.5,0 4,0 0.5,0 0,-0.5 0,-5.46875 1.875,0 0.96875,0 L 20.78125,32.75 16.40625,26.4375 16,25.84375 z M 5.5,32.5 l 0,0.5 0,5.46875 -1.84375,0 -0.9375,0 L 3.25,39.25 7.59375,45.5625 8,46.15625 8.40625,45.5625 l 4.375,-6.3125 0.5625,-0.78125 -0.96875,0 -1.875,0 0,-5.46875 0,-0.5 -0.5,0 -4,0 -0.5,0 z" style="fill:url(#linearGradient3791);fill-opacity:1;fill-rule:nonzero;stroke:none;display:inline;enable-background:new"/><path style="opacity:.61000001;fill:none;stroke:#000;stroke-opacity:1;display:inline;enable-background:new" id="path3771" d="M 16,25.84375 15.59375,26.4375 11.25,32.75 l -0.53125,0.78125 0.9375,0 1.84375,0 0,5.46875 0,0.5 0.5,0 4,0 0.5,0 0,-0.5 0,-5.46875 1.875,0 0.96875,0 L 20.78125,32.75 16.40625,26.4375 16,25.84375 z M 5.5,32.5 l 0,0.5 0,5.46875 -1.84375,0 -0.9375,0 L 3.25,39.25 7.59375,45.5625 8,46.15625 8.40625,45.5625 l 4.375,-6.3125 0.5625,-0.78125 -0.96875,0 -1.875,0 0,-5.46875 0,-0.5 -0.5,0 -4,0 -0.5,0 z"/><path id="path3773" d="m 16,26.71875 -4.34375,6.3125 0.6875,0 3.65625,-5.3125 3.6875,5.3125 0.6875,0 L 16,26.71875 z M 6,33 6,34 9.8125,34 10,33.71875 10,33 6,33 z m 4,1.71875 -0.21875,0.3125 0.21875,0 0,-0.3125 z m -6.34375,4.25 0.6875,1 1.15625,0 0.5,0 0,-0.5 0,-0.5 -0.5,0 -1.84375,0 z m 6.34375,0 0,0.5 0,0.5 0.5,0 1.1875,0 0.6875,-1 -1.875,0 -0.5,0 z m 4,0 0,0.03125 0.28125,0 0.03125,-0.03125 -0.3125,0 z" style="opacity:.2;fill:#fff;fill-opacity:1;fill-rule:nonzero;stroke:none;display:inline;enable-background:new"/></g></svg>