<svg xmlns="http://www.w3.org/2000/svg" xmlns:svg="http://www.w3.org/2000/svg" xmlns:xlink="http://www.w3.org/1999/xlink" id="svg3495" width="24" height="24" version="1.1"><defs id="defs3497"><linearGradient id="linearGradient3865"><stop id="stop3867" offset="0" style="stop-color:#555;stop-opacity:1"/><stop id="stop3869" offset="1" style="stop-color:#666;stop-opacity:1"/></linearGradient><linearGradient id="linearGradient3871" x1="12" x2="12" y1="48" y2="26" gradientTransform="matrix(-1,0,0,1,23,-1)" gradientUnits="userSpaceOnUse" xlink:href="#linearGradient3865"/></defs><metadata id="metadata3500"/><g id="layer1" transform="translate(0,-24)"><path id="path5181" d="M 13.5,30.15625 12.75,30.5625 4.5,35.15625 4.5,31 l 0,-0.5 -0.5,0 -2,0 -0.5,0 0,0.5 0,10 0,0.5 0.5,0 2,0 0.5,0 0,-0.5 0,-4.15625 8.25,4.59375 0.75,0.40625 0,-0.84375 0,-4.15625 8.25,4.59375 0.75,0.40625 0,-0.84375 0,-10 0,-0.84375 -0.75,0.40625 -8.25,4.59375 0,-4.15625 0,-0.84375 z" style="fill:url(#linearGradient3871);fill-opacity:1;stroke:none"/><path style="opacity:.61000001;fill:none;stroke:#000;stroke-opacity:1" id="path3762" d="M 13.5,30.15625 12.75,30.5625 4.5,35.15625 4.5,31 l 0,-0.5 -0.5,0 -2,0 -0.5,0 0,0.5 0,10 0,0.5 0.5,0 2,0 0.5,0 0,-0.5 0,-4.15625 8.25,4.59375 0.75,0.40625 0,-0.84375 0,-4.15625 8.25,4.59375 0.75,0.40625 0,-0.84375 0,-10 0,-0.84375 -0.75,0.40625 -8.25,4.59375 0,-4.15625 0,-0.84375 z"/><path id="path3764" d="m 2,31 0,1 2,0 0,-1 -2,0 z M 13,31 4.75,35.59375 4,36 4.75,36.40625 4.90625,36.5 13,32 13,31 z m 9,0 -8.25,4.59375 L 13,36 13.75,36.40625 13.90625,36.5 22,32 22,31 z" style="opacity:.2;fill:#fff;fill-opacity:1;stroke:none"/></g></svg>