<svg xmlns="http://www.w3.org/2000/svg" xmlns:svg="http://www.w3.org/2000/svg" xmlns:xlink="http://www.w3.org/1999/xlink" id="svg3495" width="24" height="24" version="1.1"><defs id="defs3497"><linearGradient id="linearGradient3865"><stop id="stop3867" offset="0" style="stop-color:#555;stop-opacity:1"/><stop id="stop3869" offset="1" style="stop-color:#666;stop-opacity:1"/></linearGradient><linearGradient id="linearGradient3871" x1="12" x2="12" y1="48" y2="26" gradientTransform="translate(1,-1)" gradientUnits="userSpaceOnUse" xlink:href="#linearGradient3865"/></defs><metadata id="metadata3500"/><g id="layer1" transform="translate(0,-24)"><path id="path5181" d="m 10.5,30.15625 0.75,0.40625 8.25,4.59375 0,-4.15625 0,-0.5 0.5,0 2,0 0.5,0 0,0.5 0,10 0,0.5 -0.5,0 -2,0 -0.5,0 0,-0.5 0,-4.15625 L 11.25,41.4375 10.5,41.84375 10.5,41 10.5,36.84375 2.25,41.4375 1.5,41.84375 1.5,41 l 0,-10 0,-0.84375 0.75,0.40625 8.25,4.59375 0,-4.15625 0,-0.84375 z" style="fill:url(#linearGradient3871);fill-opacity:1;stroke:none"/><path style="opacity:.61000001;fill:none;stroke:#000;stroke-opacity:1" id="path3762" d="m 10.5,30.15625 0.75,0.40625 8.25,4.59375 0,-4.15625 0,-0.5 0.5,0 2,0 0.5,0 0,0.5 0,10 0,0.5 -0.5,0 -2,0 -0.5,0 0,-0.5 0,-4.15625 L 11.25,41.4375 10.5,41.84375 10.5,41 10.5,36.84375 2.25,41.4375 1.5,41.84375 1.5,41 l 0,-10 0,-0.84375 0.75,0.40625 8.25,4.59375 0,-4.15625 0,-0.84375 z"/><path id="path3764" d="m 22,31 0,1 -2,0 0,-1 2,0 z M 11,31 19.25,35.59375 20,36 19.25,36.40625 19.09375,36.5 11,32 11,31 z M 2,31 10.25,35.59375 11,36 10.25,36.40625 10.09375,36.5 2,32 2,31 z" style="opacity:.2;fill:#fff;fill-opacity:1;stroke:none"/></g></svg>