<svg xmlns="http://www.w3.org/2000/svg" xmlns:svg="http://www.w3.org/2000/svg" xmlns:xlink="http://www.w3.org/1999/xlink" id="svg3495" width="24" height="24" version="1.1"><defs id="defs3497"><linearGradient id="linearGradient3764"><stop id="stop3766" offset="0" style="stop-color:#555;stop-opacity:1"/><stop id="stop3768" offset="1" style="stop-color:#666;stop-opacity:1"/></linearGradient><linearGradient id="linearGradient3770" x1="11" x2="11" y1="22" y2="0" gradientTransform="matrix(-1,0,0,1,23,25)" gradientUnits="userSpaceOnUse" xlink:href="#linearGradient3764"/></defs><metadata id="metadata3500"/><g id="layer1" transform="translate(0,-24)"><path id="path5181" d="m 11.5,30.15625 0.75,0.40625 9,5 L 22.03125,36 21.25,36.4375 l -9,5 L 11.5,41.84375 11.5,41 11.5,36.84375 3.25,41.4375 2.5,41.84375 2.5,41 l 0,-10 0,-0.84375 0.75,0.40625 8.25,4.59375 0,-4.15625 0,-0.84375 z" style="fill:url(#linearGradient3770);fill-opacity:1;stroke:none"/><path style="opacity:.61000001;fill:none;stroke:#000;stroke-opacity:1" id="path3762" d="m 11.5,30.15625 0.75,0.40625 9,5 L 22.03125,36 21.25,36.4375 l -9,5 L 11.5,41.84375 11.5,41 11.5,36.84375 3.25,41.4375 2.5,41.84375 2.5,41 l 0,-10 0,-0.84375 0.75,0.40625 8.25,4.59375 0,-4.15625 0,-0.84375 z"/><path id="path3772" d="m 12,31 9,5 -0.90625,0.5 L 12,32 12,31 z M 3,31 11.25,35.59375 12,36 11.25,36.40625 11.09375,36.5 3,32 3,31 z" style="opacity:.2;fill:#fff;fill-opacity:1;stroke:none"/></g></svg>