<svg xmlns="http://www.w3.org/2000/svg" xmlns:svg="http://www.w3.org/2000/svg" xmlns:xlink="http://www.w3.org/1999/xlink" id="svg3495" width="24" height="24" version="1.1"><defs id="defs3497"><linearGradient id="linearGradient3764"><stop id="stop3766" offset="0" style="stop-color:#555;stop-opacity:1"/><stop id="stop3768" offset="1" style="stop-color:#666;stop-opacity:1"/></linearGradient><linearGradient id="linearGradient3770" x1="11" x2="11" y1="22" y2="0" gradientTransform="translate(1,25)" gradientUnits="userSpaceOnUse" xlink:href="#linearGradient3764"/></defs><metadata id="metadata3500"/><g id="layer1" transform="translate(0,-24)"><path id="rect2998" d="m 3.5,27.5 0,0.5 0,16 0,0.5 0.5,0 5,0 0.5,0 0,-0.5 0,-16 0,-0.5 -0.5,0 -5,0 z m 10,0 0,0.5 0,16 0,0.5 0.5,0 5,0 0.5,0 0,-0.5 0,-16 0,-0.5 -0.5,0 -5,0 z" style="color:#000;fill:url(#linearGradient3770);fill-opacity:1;fill-rule:nonzero;stroke:none;stroke-width:4;marker:none;visibility:visible;display:inline;overflow:visible;enable-background:accumulate"/><path style="opacity:.61000001;color:#000;fill:none;stroke:#000;stroke-width:1;stroke-miterlimit:4;stroke-opacity:1;stroke-dasharray:none;marker:none;visibility:visible;display:inline;overflow:visible;enable-background:accumulate" id="path3762" d="m 3.5,27.5 0,0.5 0,16 0,0.5 0.5,0 5,0 0.5,0 0,-0.5 0,-16 0,-0.5 -0.5,0 -5,0 z m 10,0 0,0.5 0,16 0,0.5 0.5,0 5,0 0.5,0 0,-0.5 0,-16 0,-0.5 -0.5,0 -5,0 z"/><path id="path3772" d="m 4,28 0,1 5,0 0,-1 z m 10,0 0,1 5,0 0,-1 z" style="opacity:.2;color:#000;fill:#fff;fill-opacity:1;fill-rule:nonzero;stroke:none;stroke-width:4;marker:none;visibility:visible;display:inline;overflow:visible;enable-background:accumulate"/></g></svg>