<svg xmlns="http://www.w3.org/2000/svg" xmlns:svg="http://www.w3.org/2000/svg" xmlns:xlink="http://www.w3.org/1999/xlink" id="svg3495" width="24" height="24" version="1.1"><defs id="defs3497"><linearGradient id="linearGradient4368"><stop id="stop4370" offset="0" style="stop-color:#a0a0a0;stop-opacity:1"/><stop id="stop4372" offset="1" style="stop-color:#fff;stop-opacity:1"/></linearGradient><linearGradient id="linearGradient4342"><stop id="stop4344" offset="0" style="stop-color:#000;stop-opacity:0"/><stop style="stop-color:#000;stop-opacity:1" id="stop4352" offset=".1"/><stop style="stop-color:#000;stop-opacity:1" id="stop4350" offset=".9"/><stop id="stop4346" offset="1" style="stop-color:#000;stop-opacity:0"/></linearGradient><linearGradient id="linearGradient3821"><stop id="stop3823" offset="0" style="stop-color:#ccc;stop-opacity:0"/><stop style="stop-color:#ccc;stop-opacity:1" id="stop4356" offset=".1"/><stop style="stop-color:#ccc;stop-opacity:1" id="stop4354" offset=".9"/><stop id="stop3825" offset="1" style="stop-color:#ccc;stop-opacity:0"/></linearGradient><linearGradient id="linearGradient3261" x1="22" x2="0" y1="10" y2="10" gradientTransform="translate(1,22)" gradientUnits="userSpaceOnUse" xlink:href="#linearGradient3821"/><linearGradient id="linearGradient4348" x1="1" x2="21" y1="37.5" y2="37.5" gradientTransform="translate(1,-5)" gradientUnits="userSpaceOnUse" xlink:href="#linearGradient4342"/><linearGradient id="linearGradient4374" x1="7.5" x2="13.5" y1="37.5" y2="37.5" gradientTransform="translate(22,-50)" gradientUnits="userSpaceOnUse" xlink:href="#linearGradient4368"/><linearGradient id="linearGradient3902" x1="12" x2="12" y1="16" y2="8" gradientTransform="matrix(1.49,0,0,1.49,0.1525,23.15)" gradientUnits="userSpaceOnUse" xlink:href="#linearGradient3904"/><linearGradient id="linearGradient3904"><stop style="stop-color:#104b88;stop-opacity:1" id="stop3906" offset="0"/><stop style="stop-color:#0e7398;stop-opacity:1" id="stop3908" offset="1"/></linearGradient><linearGradient id="linearGradient3886"><stop id="stop3888" offset="0" style="stop-color:#5097e1;stop-opacity:1"/><stop id="stop3890" offset="1" style="stop-color:#53d0ff;stop-opacity:1"/></linearGradient><linearGradient id="linearGradient3040" x1="12" x2="12" y1="15" y2="9" gradientTransform="matrix(1.49,0,0,1.49,0.1525,23.15)" gradientUnits="userSpaceOnUse" xlink:href="#linearGradient3886"/><linearGradient id="linearGradient3911"><stop id="stop3913" offset="0" style="stop-color:#000;stop-opacity:1"/><stop id="stop3915" offset="1" style="stop-color:#000;stop-opacity:0"/></linearGradient><radialGradient id="radialGradient3934" cx="11" cy="10.5" r="10" fx="11" fy="10.5" gradientTransform="matrix(1,0,0,0.25,0,7.875)" gradientUnits="userSpaceOnUse" xlink:href="#linearGradient3911"/></defs><metadata id="metadata3500"/><g id="layer1" transform="translate(0,-24)"><path id="path3141" d="M 21,10.5 C 21,11.880712 16.522847,13 11,13 5.4771525,13 1,11.880712 1,10.5 1,9.1192881 5.4771525,8 11,8 c 5.522847,0 10,1.1192881 10,2.5 z" transform="translate(1,24)" style="opacity:.3;fill:url(#radialGradient3934);fill-opacity:1;stroke:#fff;stroke-width:0;stroke-linecap:round;stroke-linejoin:round;stroke-miterlimit:4;stroke-opacity:1;stroke-dasharray:none"/><path id="path3091" d="m 2.5,31.5 0,0.5 0,1 0,0.5 0.5,0 18,0 0.5,0 0,-0.5 0,-1 0,-0.5 -0.5,0 -18,0 z" style="fill:url(#linearGradient3261);fill-opacity:1;stroke:none"/><path style="opacity:.61000001;fill:none;stroke:url(#linearGradient4348);stroke-width:1;stroke-miterlimit:4;stroke-opacity:1;stroke-dasharray:none" id="path3093" d="m 2.5,31.5 0,0.5 0,1 0,0.5 0.5,0 18,0 0.5,0 0,-0.5 0,-1 0,-0.5 -0.5,0 -18,0 z"/><rect id="rect4358" width="6" height="6" x="29.5" y="-15.5" transform="matrix(0,1,-1,0,0,0)" style="fill:url(#linearGradient4374);fill-opacity:1;stroke:none"/><rect style="opacity:.41000001;fill:none;stroke:#000;stroke-opacity:1" id="rect4360" width="6" height="6" x="9.5" y="29.5"/><path id="rect4366" d="m 10,30 0,1 0,0 1,0 0,0 4,0 0,-1 -4,0 z" style="opacity:.4;fill:#fff;fill-opacity:1;stroke:none"/><path id="rect3881" d="m 16.5,36.5 0,3 -3,0 0,3 3,0 0,3 3,0 0,-3 3,0 0,-3 -3,0 0,-3 z" style="fill:url(#linearGradient3040);fill-opacity:1;stroke:none;display:inline"/><path style="opacity:.81000001;fill:none;stroke:url(#linearGradient3902);stroke-width:1;stroke-linejoin:miter;stroke-miterlimit:4;stroke-opacity:1;stroke-dasharray:none;display:inline" id="path3894" d="m 16.5,36.5 0,3 -3,0 0,3 3,0 0,3 3,0 0,-3 3,0 0,-3 -3,0 0,-3 z"/><path id="path4487" d="m 17,37 0,1 2,0 0,-1 -2,0 z m -3,3 0,1 2.5,0 0.5,0 0,-0.5 0,-0.5 -0.5,0 -2.5,0 z m 5,0 0,0.5 0,0.5 0.5,0 2.5,0 0,-1 -2.5,0 -0.5,0 z" style="opacity:.4;fill:#fff;fill-opacity:1;stroke:none;display:inline"/></g></svg>