<svg xmlns="http://www.w3.org/2000/svg" xmlns:svg="http://www.w3.org/2000/svg" xmlns:xlink="http://www.w3.org/1999/xlink" id="svg3495" width="24" height="24" version="1.1"><defs id="defs3497"><linearGradient id="linearGradient3927"><stop id="stop3929" offset="0" style="stop-color:#555;stop-opacity:1"/><stop id="stop3931" offset="1" style="stop-color:#666;stop-opacity:1"/></linearGradient><linearGradient id="linearGradient4368"><stop id="stop4370" offset="0" style="stop-color:#a0a0a0;stop-opacity:1"/><stop id="stop4372" offset="1" style="stop-color:#fff;stop-opacity:1"/></linearGradient><linearGradient id="linearGradient4342"><stop id="stop4344" offset="0" style="stop-color:#000;stop-opacity:0"/><stop style="stop-color:#000;stop-opacity:1" id="stop4352" offset=".1"/><stop style="stop-color:#000;stop-opacity:1" id="stop4350" offset=".9"/><stop id="stop4346" offset="1" style="stop-color:#000;stop-opacity:0"/></linearGradient><linearGradient id="linearGradient3821"><stop id="stop3823" offset="0" style="stop-color:#ccc;stop-opacity:0"/><stop style="stop-color:#ccc;stop-opacity:1" id="stop4356" offset=".1"/><stop style="stop-color:#ccc;stop-opacity:1" id="stop4354" offset=".9"/><stop id="stop3825" offset="1" style="stop-color:#ccc;stop-opacity:0"/></linearGradient><linearGradient id="linearGradient3261" x1="22" x2="0" y1="10" y2="10" gradientTransform="translate(1,32)" gradientUnits="userSpaceOnUse" xlink:href="#linearGradient3821"/><linearGradient id="linearGradient4348" x1="1" x2="21" y1="37.5" y2="37.5" gradientTransform="translate(1,5)" gradientUnits="userSpaceOnUse" xlink:href="#linearGradient4342"/><linearGradient id="linearGradient4374" x1="7.5" x2="13.5" y1="37.5" y2="37.5" gradientTransform="translate(32,-50)" gradientUnits="userSpaceOnUse" xlink:href="#linearGradient4368"/><linearGradient id="linearGradient3911"><stop id="stop3913" offset="0" style="stop-color:#000;stop-opacity:1"/><stop id="stop3915" offset="1" style="stop-color:#000;stop-opacity:0"/></linearGradient><radialGradient id="radialGradient3934" cx="11" cy="10.5" r="10" fx="11" fy="10.5" gradientTransform="matrix(1,0,0,0.25,0,7.875)" gradientUnits="userSpaceOnUse" xlink:href="#linearGradient3911"/><linearGradient id="linearGradient3086" x1="7.5" x2="13.5" y1="37.5" y2="37.5" gradientTransform="translate(21,-44)" gradientUnits="userSpaceOnUse" xlink:href="#linearGradient4368"/><linearGradient id="linearGradient3094" x1="7.5" x2="13.5" y1="37.5" y2="37.5" gradientTransform="translate(21,-54)" gradientUnits="userSpaceOnUse" xlink:href="#linearGradient4368"/><linearGradient id="linearGradient3117" x1="23" x2="0" y1="10" y2="10" gradientTransform="translate(0,-5)" gradientUnits="userSpaceOnUse" xlink:href="#linearGradient3821"/><linearGradient id="linearGradient3119" x1="1" x2="22" y1="37.5" y2="37.5" gradientTransform="translate(0,-32)" gradientUnits="userSpaceOnUse" xlink:href="#linearGradient4342"/><linearGradient id="linearGradient3933" x1="11" x2="11" y1="22" y2="0" gradientTransform="translate(0,1)" gradientUnits="userSpaceOnUse" xlink:href="#linearGradient3927"/></defs><metadata id="metadata3500"/><g id="layer1" transform="translate(0,-24)"><path id="path3141" d="m 21,10.5 a 10,2.5 0 1 1 -20,0 10,2.5 0 1 1 20,0 z" transform="translate(1,34)" style="opacity:.3;fill:url(#radialGradient3934);fill-opacity:1;stroke:#fff;stroke-width:0;stroke-linecap:round;stroke-linejoin:round;stroke-miterlimit:4;stroke-opacity:1;stroke-dasharray:none"/><path id="path3091" d="m 2.5,41.5 0,0.5 0,1 0,0.5 0.5,0 18,0 0.5,0 0,-0.5 0,-1 0,-0.5 -0.5,0 -18,0 z" style="fill:url(#linearGradient3261);fill-opacity:1;stroke:none"/><path style="opacity:.61000001;fill:none;stroke:url(#linearGradient4348);stroke-width:1;stroke-miterlimit:4;stroke-opacity:1;stroke-dasharray:none" id="path3093" d="m 2.5,41.5 0,0.5 0,1 0,0.5 0.5,0 18,0 0.5,0 0,-0.5 0,-1 0,-0.5 -0.5,0 -18,0 z"/><rect id="rect4358" width="6" height="6" x="39.5" y="-15.5" transform="matrix(0,1,-1,0,0,0)" style="fill:url(#linearGradient4374);fill-opacity:1;stroke:none"/><rect style="opacity:.41000001;fill:none;stroke:#000;stroke-opacity:1" id="rect4360" width="6" height="6" x="9.5" y="39.5"/><path id="rect4366" d="m 10,40 0,1 0,0 1,0 0,0 4,0 0,-1 -4,0 z" style="opacity:.4;fill:#fff;fill-opacity:1;stroke:none"/><g style="opacity:.5" id="g3121" transform="translate(1,-2)"><path style="fill:url(#linearGradient3117);fill-opacity:1;stroke:none" id="path3070" d="m 1.5,4.5 0,0.5 0,1 0,0.5 0.5,0 5,0 0,-2 -5,0 z m 14.5,0 0,2 5,0 0.5,0 0,-0.5 0,-1 0,-0.5 -0.5,0 z" transform="translate(0,26)"/><path style="opacity:.61000001;fill:none;stroke:url(#linearGradient3119);stroke-width:1;stroke-miterlimit:4;stroke-opacity:1;stroke-dasharray:none" id="path3072" d="m 1.5,4.5 0,0.5 0,1 0,0.5 0.5,0 5,0 0,-2 -5,0 z m 14.5,0 0,2 5,0 0.5,0 0,-0.5 0,-1 0,-0.5 -0.5,0 z" transform="translate(0,26)"/><rect id="rect3074" width="6" height="6" x="28.5" y="-9.5" transform="matrix(0,1,-1,0,0,0)" style="fill:url(#linearGradient3086);fill-opacity:1;stroke:none"/><rect style="opacity:.41000001;fill:none;stroke:#000;stroke-opacity:1" id="rect3076" width="6" height="6" x="3.5" y="28.5"/><path id="path3078" d="m 4,29 0,1 0,0 1,0 0,0 4,0 0,-1 -4,0 z" style="opacity:.4;fill:#fff;fill-opacity:1;stroke:none"/><rect style="fill:url(#linearGradient3094);fill-opacity:1;stroke:none" id="rect3088" width="6" height="6" x="28.5" y="-19.5" transform="matrix(0,1,-1,0,0,0)"/><rect id="rect3090" width="6" height="6" x="13.5" y="28.5" style="opacity:.41000001;fill:none;stroke:#000;stroke-opacity:1"/><path style="opacity:.4;fill:#fff;fill-opacity:1;stroke:none" id="path3092" d="m 14,29 0,1 0,0 1,0 0,0 4,0 0,-1 -4,0 z"/></g><g id="g3922" transform="translate(1,-2)"><path style="fill:url(#linearGradient3933);fill-opacity:1;stroke:none" id="path3131" d="m 9.5,7.5 0,0.5 0,3.5 -1.5,0 -1.09375,0 0.71875,0.84375 3.5,4 0.375,0.40625 0.375,-0.40625 3.5,-4 L 16.09375,11.5 15,11.5 l -1.5,0 0,-3.5 0,-0.5 -0.5,0 -3,0 -0.5,0 z" transform="translate(0,26)"/><path id="path3908" d="m 9.5,7.5 0,0.5 0,3.5 -1.5,0 -1.09375,0 0.71875,0.84375 3.5,4 0.375,0.40625 0.375,-0.40625 3.5,-4 L 16.09375,11.5 15,11.5 l -1.5,0 0,-3.5 0,-0.5 -0.5,0 -3,0 -0.5,0 z" transform="translate(0,26)" style="opacity:.61000001;fill:none;stroke:#000;stroke-opacity:1"/><path style="opacity:.2;fill:#fff;fill-opacity:1;stroke:none" id="path3910" d="m 10,8 0,1 3,0 0,-1 -3,0 z M 8,12 8,12.03125 8.84375,13 9.5,13 10,13 10,12.5 10,12 9.5,12 8,12 z m 5,0 0,0.5 0,0.5 0.5,0 0.65625,0 L 15,12.03125 15,12 13.5,12 13,12 z" transform="translate(0,26)"/></g></g></svg>