<svg xmlns="http://www.w3.org/2000/svg" xmlns:svg="http://www.w3.org/2000/svg" xmlns:xlink="http://www.w3.org/1999/xlink" id="svg3495" width="24" height="24" version="1.1"><defs id="defs3497"><linearGradient id="linearGradient3911"><stop id="stop3913" offset="0" style="stop-color:#000;stop-opacity:1"/><stop id="stop3915" offset="1" style="stop-color:#000;stop-opacity:0"/></linearGradient><linearGradient id="linearGradient4368"><stop id="stop4370" offset="0" style="stop-color:#a0a0a0;stop-opacity:1"/><stop id="stop4372" offset="1" style="stop-color:#fff;stop-opacity:1"/></linearGradient><linearGradient id="linearGradient4342"><stop id="stop4344" offset="0" style="stop-color:#000;stop-opacity:0"/><stop style="stop-color:#000;stop-opacity:1" id="stop4352" offset=".1"/><stop style="stop-color:#000;stop-opacity:1" id="stop4350" offset=".9"/><stop id="stop4346" offset="1" style="stop-color:#000;stop-opacity:0"/></linearGradient><linearGradient id="linearGradient3821"><stop id="stop3823" offset="0" style="stop-color:#ccc;stop-opacity:0"/><stop style="stop-color:#ccc;stop-opacity:1" id="stop4356" offset=".1"/><stop style="stop-color:#ccc;stop-opacity:1" id="stop4354" offset=".9"/><stop id="stop3825" offset="1" style="stop-color:#ccc;stop-opacity:0"/></linearGradient><linearGradient id="linearGradient3261" x1="22" x2="0" y1="10" y2="10" gradientTransform="translate(1,22)" gradientUnits="userSpaceOnUse" xlink:href="#linearGradient3821"/><linearGradient id="linearGradient4348" x1="1" x2="21" y1="37.5" y2="37.5" gradientTransform="translate(1,-5)" gradientUnits="userSpaceOnUse" xlink:href="#linearGradient4342"/><linearGradient id="linearGradient4374" x1="7.5" x2="13.5" y1="37.5" y2="37.5" gradientTransform="translate(22,-50)" gradientUnits="userSpaceOnUse" xlink:href="#linearGradient4368"/><linearGradient id="linearGradient3021" x1="11" x2="15" y1="13" y2="13" gradientUnits="userSpaceOnUse" xlink:href="#linearGradient3760"/><linearGradient id="linearGradient3866"><stop id="stop3868" offset="0" style="stop-color:#000;stop-opacity:1"/><stop id="stop3870" offset="1" style="stop-color:#000;stop-opacity:0"/></linearGradient><radialGradient id="radialGradient3111" cx="16.5" cy="20.5" r="5.5" fx="16.5" fy="20.5" gradientTransform="matrix(1,0,0,0.27272727,0,14.909091)" gradientUnits="userSpaceOnUse" xlink:href="#linearGradient3866"/><linearGradient id="linearGradient3760"><stop id="stop3762" offset="0" style="stop-color:#e44343;stop-opacity:1"/><stop id="stop3764" offset="1" style="stop-color:#ac0808;stop-opacity:1"/></linearGradient><radialGradient id="radialGradient3953" cx="11" cy="10.5" r="10" fx="11" fy="10.5" gradientTransform="matrix(1,0,0,0.25,0,7.875)" gradientUnits="userSpaceOnUse" xlink:href="#linearGradient3911"/></defs><metadata id="metadata3500"/><g id="layer1" transform="translate(0,-24)"><path id="path3141" d="M 21,10.5 C 21,11.880712 16.522847,13 11,13 5.4771525,13 1,11.880712 1,10.5 1,9.1192881 5.4771525,8 11,8 c 5.522847,0 10,1.1192881 10,2.5 z" transform="translate(1,24)" style="opacity:.3;fill:url(#radialGradient3953);fill-opacity:1;stroke:#fff;stroke-width:0;stroke-linecap:round;stroke-linejoin:round;stroke-miterlimit:4;stroke-opacity:1;stroke-dasharray:none"/><path id="path3091" d="m 2.5,31.5 0,0.5 0,1 0,0.5 0.5,0 18,0 0.5,0 0,-0.5 0,-1 0,-0.5 -0.5,0 -18,0 z" style="fill:url(#linearGradient3261);fill-opacity:1;stroke:none"/><path style="opacity:.61000001;fill:none;stroke:url(#linearGradient4348);stroke-width:1;stroke-miterlimit:4;stroke-opacity:1;stroke-dasharray:none" id="path3093" d="m 2.5,31.5 0,0.5 0,1 0,0.5 0.5,0 18,0 0.5,0 0,-0.5 0,-1 0,-0.5 -0.5,0 -18,0 z"/><rect id="rect4358" width="6" height="6" x="29.5" y="-15.5" transform="matrix(0,1,-1,0,0,0)" style="fill:url(#linearGradient4374);fill-opacity:1;stroke:none"/><rect style="opacity:.41000001;fill:none;stroke:#000;stroke-opacity:1" id="rect4360" width="6" height="6" x="9.5" y="29.5"/><path id="rect4366" d="m 10,30 0,1 0,0 1,0 0,0 4,0 0,-1 -4,0 z" style="opacity:.4;fill:#fff;fill-opacity:1;stroke:none"/><g id="g4431" transform="translate(1,-1)"><path style="opacity:.4;fill:url(#radialGradient3111);fill-opacity:1;stroke:none" id="path3864" d="M 22,20.5 C 22,21.328427 19.537566,22 16.5,22 13.462434,22 11,21.328427 11,20.5 11,19.671573 13.462434,19 16.5,19 c 3.037566,0 5.5,0.671573 5.5,1.5 z" transform="matrix(0.81818182,0,0,1,3,26)"/><path style="fill:url(#linearGradient3021);fill-opacity:1;stroke:none;display:inline" id="path3042" d="m 15,13 c 0,1.104569 -0.895431,2 -2,2 -1.104569,0 -2,-0.895431 -2,-2 0,-1.104569 0.895431,-2 2,-2 1.104569,0 2,0.895431 2,2 z" transform="matrix(0,2.4999844,2.4999844,0,-15.999797,10.000236)"/><path id="path3814" d="m 15,13 c 0,1.104569 -0.895431,2 -2,2 -1.104569,0 -2,-0.895431 -2,-2 0,-1.104569 0.895431,-2 2,-2 1.104569,0 2,0.895431 2,2 z" transform="matrix(2.4999844,0,0,2.4999844,-15.999797,10.000234)" style="opacity:.81000001;fill:none;stroke:#790000;stroke-width:.40000254;stroke-miterlimit:4;stroke-opacity:1;stroke-dasharray:none;display:inline"/><path style="color:#000;fill:#fff;fill-opacity:1;fill-rule:nonzero;stroke:none;stroke-width:2;marker:none;visibility:visible;display:inline;overflow:visible;enable-background:new" id="path5757" d="m 14,40 0,1 c 0,0.27614 0.10029,0.53778 0.28125,0.71875 L 15.062875,42.500375 14.28125,43.282 C 14.10029,43.46297 14,43.724609 14,44.00075 l 0,1 1,0 c 0.27614,0 0.53779,-0.10028 0.71875,-0.28125 L 16.500375,43.937875 17.282,44.7195 c 0.18096,0.18097 0.442607,0.28125 0.71875,0.28125 l 1,0 0,-1 c 0,-0.27614 -0.10029,-0.53778 -0.28125,-0.71875 L 17.937875,42.500375 18.7195,41.71875 C 18.90046,41.53778 18.973273,41.27477 19.00075,41 l 0,-1 -1,0 c -0.27614,0 -0.53779,0.10028 -0.71875,0.28125 L 16.500375,41.062875 15.71875,40.28125 C 15.53779,40.10028 15.276144,40 15,40 z"/></g></g></svg>