<svg xmlns="http://www.w3.org/2000/svg" xmlns:svg="http://www.w3.org/2000/svg" xmlns:xlink="http://www.w3.org/1999/xlink" id="svg3495" width="24" height="24" version="1.1"><defs id="defs3497"><linearGradient id="linearGradient4705"><stop style="stop-color:#737373;stop-opacity:1" id="stop4707" offset="0"/><stop style="stop-color:#353535;stop-opacity:1" id="stop4709" offset="1"/></linearGradient><linearGradient id="linearGradient3760"><stop id="stop3762" offset="0" style="stop-color:#f7f7f7;stop-opacity:1"/><stop id="stop3764" offset="1" style="stop-color:#ebebeb;stop-opacity:1"/></linearGradient><linearGradient id="linearGradient3949"><stop id="stop3951" offset="0" style="stop-color:#000;stop-opacity:1"/><stop id="stop3953" offset="1" style="stop-color:#000;stop-opacity:0"/></linearGradient><radialGradient id="radialGradient3993" cx="11" cy="20" r="9" fx="11" fy="20" gradientTransform="matrix(1,0,0,0.22222222,0,15.555556)" gradientUnits="userSpaceOnUse" xlink:href="#linearGradient3949"/><radialGradient id="radialGradient3997" cx="11" cy="20" r="9" fx="11" fy="20" gradientTransform="matrix(1,0,0,0.22222222,0,15.555556)" gradientUnits="userSpaceOnUse" xlink:href="#linearGradient3949"/><linearGradient id="linearGradient4698" x1="11" x2="11" y1="0" y2="22" gradientTransform="translate(1,25)" gradientUnits="userSpaceOnUse" xlink:href="#linearGradient3760"/><linearGradient id="linearGradient4703" x1="11" x2="11" y1="0" y2="22" gradientTransform="matrix(-1,0,0,1,23,25)" gradientUnits="userSpaceOnUse" xlink:href="#linearGradient4705"/></defs><metadata id="metadata3500"/><g id="layer1" transform="translate(0,-24)"><g id="g4507" transform="translate(1,-1)"><path style="opacity:.4;fill:url(#radialGradient3993);fill-opacity:1;stroke:none" id="path3163" d="m 20,20 c 0,1.104569 -4.029437,2 -9,2 -4.9705627,0 -9,-0.895431 -9,-2 0,-1.104569 4.0294373,-2 9,-2 4.970563,0 9,0.895431 9,2 z" transform="matrix(1,0,0,1.5,0,15)"/><path id="path3995" d="m 20,20 c 0,1.104569 -4.029437,2 -9,2 -4.9705627,0 -9,-0.895431 -9,-2 0,-1.104569 4.0294373,-2 9,-2 4.970563,0 9,0.895431 9,2 z" transform="matrix(0.66666667,0,0,1,3.6666666,26)" style="opacity:.8;fill:url(#radialGradient3997);fill-opacity:1;stroke:none"/></g><path id="path4694" d="m 12,26.5 c -5.2407828,0 -9.5,4.259217 -9.5,9.5 0,5.240782 4.2592171,9.5 9.5,9.5 l 0,-19 z" style="fill:url(#linearGradient4698);fill-opacity:1;fill-rule:evenodd;stroke:none"/><path style="fill:url(#linearGradient4703);fill-opacity:1;fill-rule:evenodd;stroke:none" id="path4701" d="m 12,26.5 c 5.240783,0 9.5,4.259217 9.5,9.5 0,5.240782 -4.259217,9.5 -9.5,9.5 l 0,-19 z"/><path style="opacity:.41000001;fill:none;stroke:#000;stroke-opacity:1" id="path3804" d="m 12,26.5 c -5.2407828,0 -9.5,4.259217 -9.5,9.5 0,5.240782 4.2592171,9.5 9.5,9.5 5.240783,0 9.5,-4.259218 9.5,-9.5 0,-5.240783 -4.259217,-9.5 -9.5,-9.5 z"/><path id="path3806" d="m 12,27 c -4.9698807,0 -9,4.030119 -9,9 0,0.171541 0.021774,0.330826 0.03125,0.5 C 3.2963002,31.767849 7.2016599,28 12,28 c 4.79834,0 8.7037,3.767849 8.96875,8.5 C 20.978226,36.330826 21,36.171541 21,36 21,31.030119 16.969881,27 12,27 z" style="opacity:.2;fill:#fff;fill-opacity:1;fill-rule:evenodd;stroke:none"/><path style="opacity:.2;fill:#000;fill-opacity:1;fill-rule:evenodd;stroke:none" id="path3820" d="M 12,46 C 7.0301193,46 3,41.969881 3,37 3,36.828459 3.021774,36.669174 3.03125,36.5 3.2963002,41.232151 7.2016599,45 12,45 16.79834,45 20.7037,41.232151 20.96875,36.5 20.97825,36.669174 21,36.828459 21,37 c 0,4.969881 -4.030119,9 -9,9 z"/><rect id="rect4711" width="1" height="18" x="12" y="27" style="opacity:.20000000000000001;fill:#000;fill-opacity:1;stroke:none"/></g></svg>