<svg xmlns="http://www.w3.org/2000/svg" xmlns:svg="http://www.w3.org/2000/svg" xmlns:xlink="http://www.w3.org/1999/xlink" id="svg3495" width="24" height="24" version="1.1"><defs id="defs3497"><linearGradient id="linearGradient3881"><stop id="stop3883" offset="0" style="stop-color:#000;stop-opacity:0"/><stop style="stop-color:#000;stop-opacity:1" id="stop3891" offset=".078"/><stop style="stop-color:#000;stop-opacity:1" id="stop3889" offset=".917"/><stop id="stop3885" offset="1" style="stop-color:#000;stop-opacity:0"/></linearGradient><linearGradient id="linearGradient3413"><stop id="stop3415" offset="0" style="stop-color:#ddd;stop-opacity:1"/><stop id="stop3417" offset="1" style="stop-color:#f2f2f2;stop-opacity:1"/></linearGradient><linearGradient id="linearGradient4158" x1="1" x2="23" y1="12.5" y2="12.5" gradientTransform="translate(0,-2)" gradientUnits="userSpaceOnUse" xlink:href="#linearGradient3881"/><linearGradient id="linearGradient4160" x1="9" x2="0" y1="14" y2="14" gradientTransform="translate(1,-2)" gradientUnits="userSpaceOnUse" xlink:href="#linearGradient3413"/></defs><metadata id="metadata3500"/><g id="layer2" transform="translate(0,2)"><g id="g4150" transform="matrix(0,-1,1,0,2,22)"><path id="rect3859" d="m 0.5,9 0,0.5 0,1 0,0.5 L 1,11 2.5,11 3,11 3,10.5 3,9.5 3,9 2.5,9 1,9 0.5,9 z m 3.5,0 0,0.5 0,1 0,0.5 0.5,0 2,0 L 7,11 7,10.5 7,9.5 7,9 6.5,9 4.5,9 4,9 z m 4,0 0,0.5 0,1 0,0.5 0.5,0 2,0 0.5,0 0,-0.5 0,-1 L 11,9 10.5,9 8.5,9 8,9 z m 4,0 0,0.5 0,1 0,0.5 0.5,0 2,0 0.5,0 0,-0.5 0,-1 0,-0.5 -0.5,0 -2,0 -0.5,0 z m 4,0 0,0.5 0,1 0,0.5 0.5,0 2,0 0.5,0 0,-0.5 0,-1 0,-0.5 -0.5,0 -2,0 -0.5,0 z m 4,0 0,2 3,0 0,-2 -3,0 z" style="opacity:.61000001;fill:url(#linearGradient4158);fill-opacity:1;stroke:none"/><g id="g3907" transform="matrix(0,1,-1,0,22,-2)"><path id="path3878" d="m 1.5,18.5 8,-18 0,18 z" style="fill:url(#linearGradient4160);fill-opacity:1;stroke:none"/><path style="opacity:.41000001;fill:none;stroke:#000;stroke-linejoin:round;stroke-opacity:1" id="path3890" d="m 1.5,18.5 8,-18 0,18 z"/><path id="path3892" d="M 9,4.875 2.28125,20 2.71875,20 9,5.875 l 0,-1 z" transform="translate(0,-2)" style="opacity:.6;fill:#fff;fill-opacity:1;stroke:none"/></g><path style="opacity:.8;fill:none;stroke:#000;stroke-width:1;stroke-linejoin:round;stroke-miterlimit:4;stroke-opacity:1;stroke-dasharray:1,1;stroke-dashoffset:.8" id="path3916" d="m 3.5,20.5 18,-8 -18,0 z"/></g></g></svg>