<svg xmlns="http://www.w3.org/2000/svg" xmlns:svg="http://www.w3.org/2000/svg" xmlns:xlink="http://www.w3.org/1999/xlink" id="svg3495" width="24" height="24" version="1.1"><defs id="defs3497"><linearGradient id="linearGradient3881"><stop id="stop3883" offset="0" style="stop-color:#000;stop-opacity:0"/><stop style="stop-color:#000;stop-opacity:1" id="stop3891" offset=".078"/><stop style="stop-color:#000;stop-opacity:1" id="stop3889" offset=".917"/><stop id="stop3885" offset="1" style="stop-color:#000;stop-opacity:0"/></linearGradient><radialGradient id="radialGradient3923" cx="40" cy="43.5" r="2" fx="40" fy="43.5" gradientTransform="matrix(1,0,0,0.75,-20,13.874999)" gradientUnits="userSpaceOnUse" xlink:href="#linearGradient3952-8"/><linearGradient id="linearGradient3952-8"><stop id="stop3954-6" offset="0" style="stop-color:#000;stop-opacity:1"/><stop id="stop3956-0" offset="1" style="stop-color:#000;stop-opacity:0"/></linearGradient><radialGradient id="radialGradient3925" cx="9" cy="43.5" r="2" fx="9" fy="43.5" gradientTransform="matrix(1,0,0,0.75,-7,13.874999)" gradientUnits="userSpaceOnUse" xlink:href="#linearGradient3944-3"/><linearGradient id="linearGradient3944-3"><stop id="stop3946-5" offset="0" style="stop-color:#000;stop-opacity:1"/><stop id="stop3948-4" offset="1" style="stop-color:#000;stop-opacity:0"/></linearGradient><linearGradient id="linearGradient3927" x1="25" x2="25" y1="45" y2="42" gradientTransform="translate(-8,2.999999)" gradientUnits="userSpaceOnUse" xlink:href="#linearGradient3960-2"/><linearGradient id="linearGradient3960-2"><stop id="stop3962-1" offset="0" style="stop-color:#000;stop-opacity:0"/><stop style="stop-color:#000;stop-opacity:1" id="stop3970-4" offset=".5"/><stop id="stop3964-4" offset="1" style="stop-color:#000;stop-opacity:0"/></linearGradient><linearGradient id="linearGradient3929" x1="1.5" x2="20.5" y1="11" y2="11" gradientTransform="matrix(0,-1,1,0,1,23)" gradientUnits="userSpaceOnUse" xlink:href="#linearGradient3413-6"/><linearGradient id="linearGradient3413-6"><stop id="stop3415-3" offset="0" style="stop-color:#ddd;stop-opacity:1"/><stop id="stop3417-3" offset="1" style="stop-color:#f2f2f2;stop-opacity:1"/></linearGradient><linearGradient id="linearGradient4720" x1="1" x2="23" y1="12.5" y2="12.5" gradientTransform="translate(0,-3)" gradientUnits="userSpaceOnUse" xlink:href="#linearGradient3881"/></defs><metadata id="metadata3500"/><g id="layer2" transform="translate(0,2)"><g id="g3905" transform="matrix(0.98480776,0.17364818,-0.17364818,0.98480776,7.1472457,-28.233634)"><g id="g4741" transform="translate(1,-1)"><path id="rect3940" d="m 20,44.999999 0,3 0.5,0 c 0.831,0 1.5,-0.669 1.5,-1.5 0,-0.831 -0.669,-1.5 -1.5,-1.5 l -0.5,0 z" style="opacity:.3;fill:url(#radialGradient3923);fill-opacity:1;stroke:none"/><path id="rect3942" d="M 1.40625,44.999999 C 0.6271875,44.999999 0,45.627186 0,46.406249 l 0,0.1875 c 0,0.779063 0.6271875,1.40625 1.40625,1.40625 l 0.59375,0 0,-3 -0.59375,0 z" style="opacity:.3;fill:url(#radialGradient3925);fill-opacity:1;stroke:none"/><path id="rect3938" d="M 1.9998571,44.999999 20,45 l 0,3 -18.0001429,-10e-7 z" style="opacity:.3;fill:url(#linearGradient3927);fill-opacity:1;stroke:none"/></g><path style="fill:url(#linearGradient3929);fill-opacity:1;stroke:none" id="rect3847" d="m 3.5,2.5 c -1,0 -1,1 -1,1 l 0,3.5 0,13.5 c 0,1 1,1 1,1 l 17,0 c 0,0 1,0 1,-1 l 0,-13.5 0,-3.5 c 0,0 0,-1 -1,-1 l -17,0 z" transform="translate(0,24)"/><path style="opacity:.1;fill:#fff;fill-opacity:1;stroke:none" id="path3818" d="M 3.5,27 C 3.1666667,27 3.1278715,27.088007 3.0625,27.21875 2.99713,27.349493 3,27.5 3,27.5 L 3,31 3,44.5 c 0,0.333333 0.088007,0.372128 0.21875,0.4375 C 3.349493,45.0029 3.5,45 3.5,45 l 17,0 c 0,0 0.150507,0.0029 0.28125,-0.0625 C 20.91199,44.872128 21,44.833333 21,44.5 L 21,31 21,27.5 c 0,0 0.0029,-0.150507 -0.0625,-0.28125 C 20.872128,27.08801 20.833333,27 20.5,27 l -17,0 z M 4,28 20,28 20,44 4,44 4,28 z"/><path style="font-size:medium;font-style:normal;font-variant:normal;font-weight:400;font-stretch:normal;text-indent:0;text-align:start;text-decoration:none;line-height:normal;letter-spacing:normal;word-spacing:normal;text-transform:none;direction:ltr;block-progression:tb;writing-mode:lr-tb;text-anchor:start;baseline-shift:baseline;opacity:.41000001;color:#000;fill:#000;fill-opacity:1;stroke:none;stroke-width:1;marker:none;visibility:visible;display:inline;overflow:visible;enable-background:accumulate;font-family:Sans;-inkscape-font-specification:Sans" id="path3024" d="M 3.5,2 C 2.8333333,2 2.3721285,2.411993 2.1875,2.78125 2.0028715,3.150507 2,3.5 2,3.5 L 2,7 2,20.5 c 0,0.666667 0.411993,1.127872 0.78125,1.3125 C 3.150507,21.997128 3.5,22 3.5,22 l 17,0 c 0,0 0.349493,-0.0029 0.71875,-0.1875 C 21.588007,21.627872 22,21.166667 22,20.5 L 22,7 22,3.5 C 22,3.5 21.9971,3.150507 21.8125,2.78125 21.627872,2.411993 21.166667,2 20.5,2 l -17,0 z m 0,1 17,0 c 0.333333,0 0.372128,0.08801 0.4375,0.21875 C 21.002872,3.349493 21,3.5 21,3.5 l 0,3.5 0,13.5 c 0,0.333333 -0.08801,0.372128 -0.21875,0.4375 C 20.650507,21.002872 20.5,21 20.5,21 l -17,0 C 3.5,21 3.349493,21.0029 3.21875,20.9375 3.088007,20.872128 3,20.833333 3,20.5 L 3,7 3,3.5 C 3,3.5 2.99713,3.349493 3.0625,3.21875 3.1278715,3.088007 3.1666667,3 3.5,3 z" transform="translate(0,24)"/><path style="opacity:.15;fill:#fff;fill-opacity:1;stroke:none" id="path3799" d="M 3.5,27 C 3.1666667,27 3.1278715,27.088007 3.0625,27.21875 2.99713,27.349493 3,27.5 3,27.5 l 0,0.90625 C 3.00745,28.35228 3.029815,28.284121 3.0625,28.21875 3.1278715,28.08801 3.1666667,28 3.5,28 l 17,0 c 0.333333,0 0.37213,0.08801 0.4375,0.21875 0.0327,0.06537 0.05505,0.13353 0.0625,0.1875 L 21,27.5 c 0,0 0.0029,-0.150507 -0.0625,-0.28125 C 20.872128,27.08801 20.833333,27 20.5,27 l -17,0 z"/></g><path style="opacity:.61000001;fill:url(#linearGradient4720);fill-opacity:1;stroke:none" id="rect3859" d="m 0.5,8 0,0.5 0,1 0,0.5 L 1,10 2.5,10 3,10 3,9.5 3,8.5 3,8 2.5,8 1,8 0.5,8 z m 3.5,0 0,0.5 0,1 0,0.5 0.5,0 2,0 L 7,10 7,9.5 7,8.5 7,8 6.5,8 4.5,8 4,8 z m 4,0 0,0.5 0,1 0,0.5 0.5,0 2,0 0.5,0 0,-0.5 0,-1 L 11,8 10.5,8 8.5,8 8,8 z m 4,0 0,0.5 0,1 0,0.5 0.5,0 2,0 0.5,0 0,-0.5 0,-1 0,-0.5 -0.5,0 -2,0 -0.5,0 z m 4,0 0,0.5 0,1 0,0.5 0.5,0 2,0 0.5,0 0,-0.5 0,-1 0,-0.5 -0.5,0 -2,0 -0.5,0 z m 4,0 0,2 3,0 0,-2 -3,0 z"/></g></svg>