<svg xmlns="http://www.w3.org/2000/svg" xmlns:svg="http://www.w3.org/2000/svg" xmlns:xlink="http://www.w3.org/1999/xlink" id="svg4248" width="32" height="32" version="1.1"><defs id="defs4250"><linearGradient id="linearGradient3413"><stop style="stop-color:#ddd;stop-opacity:1" id="stop3415" offset="0"/><stop style="stop-color:#f2f2f2;stop-opacity:1" id="stop3417" offset="1"/></linearGradient><linearGradient id="linearGradient3952"><stop style="stop-color:#000;stop-opacity:1" id="stop3954" offset="0"/><stop style="stop-color:#000;stop-opacity:0" id="stop3956" offset="1"/></linearGradient><linearGradient id="linearGradient3944"><stop style="stop-color:#000;stop-opacity:1" id="stop3946" offset="0"/><stop style="stop-color:#000;stop-opacity:0" id="stop3948" offset="1"/></linearGradient><linearGradient id="linearGradient3960"><stop style="stop-color:#000;stop-opacity:0" id="stop3962" offset="0"/><stop id="stop3970" offset=".5" style="stop-color:#000;stop-opacity:1"/><stop style="stop-color:#000;stop-opacity:0" id="stop3964" offset="1"/></linearGradient><linearGradient id="linearGradient3903" x1="2.5" x2="29.5" y1="16" y2="16" gradientTransform="matrix(0,-1,1,0,0,32)" gradientUnits="userSpaceOnUse" xlink:href="#linearGradient3413"/><linearGradient id="linearGradient3921" x1="25" x2="25" y1="45" y2="42" gradientTransform="translate(-7,-14.000001)" gradientUnits="userSpaceOnUse" xlink:href="#linearGradient3960"/><radialGradient id="radialGradient3924" cx="9" cy="43.5" r="2" fx="9" fy="43.5" gradientTransform="matrix(1,0,0,0.75,-6,-3.125001)" gradientUnits="userSpaceOnUse" xlink:href="#linearGradient3944"/><radialGradient id="radialGradient3927" cx="40" cy="43.5" r="2" fx="40" fy="43.5" gradientTransform="matrix(1,0,0,0.75,-11,-3.125001)" gradientUnits="userSpaceOnUse" xlink:href="#linearGradient3952"/><linearGradient id="outerBackgroundGradient-7"><stop style="stop-color:#ddd;stop-opacity:1" id="stop3864-8-6-3" offset="0"/><stop style="stop-color:#f2f2f2;stop-opacity:1" id="stop3866-9-1-2" offset="1"/></linearGradient><linearGradient id="linearGradient4084"><stop style="stop-color:#cd5fc2;stop-opacity:1" id="stop4086" offset="0"/><stop style="stop-color:#9a4993;stop-opacity:1" id="stop4088" offset="1"/></linearGradient><linearGradient id="linearGradient4100"><stop id="stop4102" offset="0" style="stop-color:#aaa;stop-opacity:1"/><stop id="stop4104" offset="1" style="stop-color:#767676;stop-opacity:1"/></linearGradient><linearGradient id="linearGradient4185" x1="330.182" x2="330.182" y1="240.727" y2="272.364" gradientTransform="matrix(0.91666667,0,0,0.91666667,-283.66666,-219.66666)" gradientUnits="userSpaceOnUse" xlink:href="#linearGradient4100"/><linearGradient id="linearGradient4187" x1="325.818" x2="325.818" y1="234.545" y2="267.273" gradientTransform="matrix(0.91666667,0,0,0.91666667,-283.66666,-213.99999)" gradientUnits="userSpaceOnUse" xlink:href="#linearGradient4084"/><linearGradient id="linearGradient4189" x1="328" x2="328" y1="269.455" y2="236.727" gradientTransform="matrix(0.91666667,0,0,0.91666667,-283.66666,-215.99999)" gradientUnits="userSpaceOnUse" xlink:href="#outerBackgroundGradient-7"/><linearGradient id="linearGradient4191" x1="334.545" x2="334.545" y1="267.273" y2="234.545" gradientTransform="matrix(0.91666667,0,0,0.91666667,-283.66666,-213.99999)" gradientUnits="userSpaceOnUse" xlink:href="#outerBackgroundGradient-7"/></defs><metadata id="metadata4253"/><g id="layer1"><g id="g3930"><path id="rect3940" d="m 29,27.999999 0,3 0.5,0 c 0.831,0 1.5,-0.669 1.5,-1.5 0,-0.831 -0.669,-1.5 -1.5,-1.5 l -0.5,0 z" style="opacity:.3;fill:url(#radialGradient3927);fill-opacity:1;stroke:none"/><path id="rect3942" d="M 2.40625,27.999999 C 1.6271875,27.999999 1,28.627186 1,29.406249 l 0,0.1875 c 0,0.779063 0.6271875,1.40625 1.40625,1.40625 l 0.59375,0 0,-3 -0.59375,0 z" style="opacity:.3;fill:url(#radialGradient3924);fill-opacity:1;stroke:none"/><path id="rect3938" d="M 2.9998571,27.999999 29,28 l 0,3 -26.0001429,-1e-6 z" style="opacity:.3;fill:url(#linearGradient3921);fill-opacity:1;stroke:none"/></g><path style="fill:url(#linearGradient3903);fill-opacity:1;fill-rule:evenodd;stroke:none" id="rect3894" d="M 4 3 C 3.4373514 3 3 3.4373514 3 4 L 3 28 C 3 28.562649 3.4373514 29 4 29 L 28 29 C 28.562649 29 29 28.562649 29 28 L 29 4 C 29 3.4373514 28.562649 3 28 3 L 4 3 z"/><path style="fill:#fff;fill-opacity:1;fill-rule:evenodd;stroke:none;opacity:.1" id="path3951" d="M 4 3 C 3.4373514 3 3 3.4373514 3 4 L 3 28 C 3 28.562649 3.4373514 29 4 29 L 28 29 C 28.562649 29 29 28.562649 29 28 L 29 4 C 29 3.4373514 28.562649 3 28 3 L 4 3 z M 4 4 L 28 4 L 28 28 L 4 28 L 4 4 z"/><path id="path3906" d="m -28,2.5 24,0 c 0.831,0 1.5,0.669 1.5,1.5 l 0,24 c 0,0.831 -0.669,1.5 -1.5,1.5 l -24,0 c -0.831,0 -1.5,-0.669 -1.5,-1.5 l 0,-24 c 0,-0.831 0.669,-1.5 1.5,-1.5 z" transform="matrix(0,-1,1,0,0,0)" style="fill:none;fill-opacity:1;fill-rule:evenodd;stroke:#000;stroke-opacity:1;opacity:.40999999999999998"/><path style="fill:#fff;fill-opacity:1;fill-rule:evenodd;stroke:none;opacity:.14999999999999999" id="path3935" d="M 4 3 C 3.4373514 3 3 3.4373514 3 4 L 3 5 C 3 4.4373514 3.4373514 4 4 4 L 28 4 C 28.562649 4 29 4.4373514 29 5 L 29 4 C 29 3.4373514 28.562649 3 28 3 L 4 3 z"/><path id="path3949" d="M 4,29 C 3.4373514,29 3,28.562649 3,28 l 0,-1 c 0,0.562649 0.4373514,1 1,1 l 24,0 c 0.562649,0 1,-0.437351 1,-1 l 0,1 c 0,0.562649 -0.437351,1 -1,1 L 4,29 z" style="opacity:.1;fill:#fff;fill-opacity:1;fill-rule:evenodd;stroke:none"/></g><g id="layer2"><rect style="opacity:.4;color:#bebebe;fill:#fff;fill-opacity:1;fill-rule:nonzero;stroke:none;stroke-width:1;marker:none;visibility:visible;display:inline;overflow:visible;enable-background:accumulate" id="rect5050" width="18" height="7" x="7" y="19" ry="3.381"/><rect id="rect5052" width="18" height="7" x="7" y="8" ry="3.456" style="opacity:.4;color:#bebebe;fill:#fff;fill-opacity:1;fill-rule:nonzero;stroke:none;stroke-width:1;marker:none;visibility:visible;display:inline;overflow:visible;enable-background:accumulate"/><rect id="rect5054" width="10" height="5" x="8" y="21" ry="2.425" style="opacity:.4;color:#bebebe;fill:#fff;fill-opacity:1;fill-rule:nonzero;stroke:none;stroke-width:1;marker:none;visibility:visible;display:inline;overflow:visible;enable-background:accumulate"/><rect style="opacity:.4;color:#bebebe;fill:#fff;fill-opacity:1;fill-rule:nonzero;stroke:none;stroke-width:1;marker:none;visibility:visible;display:inline;overflow:visible;enable-background:accumulate" id="rect5056" width="10" height="5" x="8" y="20" ry="2.47"/><rect style="opacity:.4;color:#bebebe;fill:#fff;fill-opacity:1;fill-rule:nonzero;stroke:none;stroke-width:1;marker:none;visibility:visible;display:inline;overflow:visible;enable-background:accumulate" id="rect5058" width="10" height="5" x="14" y="10" ry="2.293"/><rect id="rect5060" width="10" height="5" x="14" y="9" ry="2.456" style="opacity:.4;color:#bebebe;fill:#fff;fill-opacity:1;fill-rule:nonzero;stroke:none;stroke-width:1;marker:none;visibility:visible;display:inline;overflow:visible;enable-background:accumulate"/><rect id="rect4474" width="18" height="7" x="7" y="18" ry="3.381" style="color:#bebebe;fill:url(#linearGradient4185);fill-opacity:1;fill-rule:nonzero;stroke:none;stroke-width:1;marker:none;visibility:visible;display:inline;overflow:visible;enable-background:accumulate"/><rect style="color:#bebebe;fill:url(#linearGradient4187);fill-opacity:1;fill-rule:nonzero;stroke:none;stroke-width:1;marker:none;visibility:visible;display:inline;overflow:visible;enable-background:accumulate" id="rect4476" width="18" height="7" x="7" y="7" ry="3.456"/><rect style="opacity:.15;color:#bebebe;fill:#000;fill-opacity:1;fill-rule:nonzero;stroke:none;stroke-width:1;marker:none;visibility:visible;display:inline;overflow:visible;enable-background:accumulate" id="rect4514" width="10" height="5" x="8" y="20" ry="2.425"/><rect id="rect4480" width="10" height="5" x="8" y="19" ry="2.47" style="color:#bebebe;fill:url(#linearGradient4189);fill-opacity:1;fill-rule:nonzero;stroke:none;stroke-width:1;marker:none;visibility:visible;display:inline;overflow:visible;enable-background:accumulate"/><rect id="rect4516" width="10" height="5" x="14" y="9" ry="2.293" style="opacity:.15;color:#bebebe;fill:#000;fill-opacity:1;fill-rule:nonzero;stroke:none;stroke-width:1;marker:none;visibility:visible;display:inline;overflow:visible;enable-background:accumulate"/><rect style="color:#bebebe;fill:url(#linearGradient4191);fill-opacity:1;fill-rule:nonzero;stroke:none;stroke-width:1;marker:none;visibility:visible;display:inline;overflow:visible;enable-background:accumulate" id="rect4484" width="10" height="5" x="14" y="8" ry="2.456"/></g></svg>