<svg xmlns="http://www.w3.org/2000/svg" xmlns:svg="http://www.w3.org/2000/svg" xmlns:xlink="http://www.w3.org/1999/xlink" id="svg5400" width="16" height="16" version="1.1"><defs id="defs5402"><linearGradient id="linearGradient3804"><stop id="stop3806" offset="0" style="stop-color:#fff;stop-opacity:1"/><stop id="stop3808" offset="1" style="stop-color:#fff;stop-opacity:0"/></linearGradient><linearGradient id="outerBackgroundGradient-4"><stop id="stop3864-8-6-6" offset="0" style="stop-color:#f0f0f0;stop-opacity:1"/><stop id="stop3866-9-1-7" offset="1" style="stop-color:#f9f9f9;stop-opacity:1"/></linearGradient><linearGradient id="linearGradient3905" x1="5" x2="5" y1="1" y2="14" gradientTransform="translate(2,1)" gradientUnits="userSpaceOnUse" xlink:href="#linearGradient3804"/><linearGradient id="linearGradient3908" x1="144" x2="144" y1="280" y2="40" gradientTransform="matrix(0.05555556,0,0,0.05714289,0,-1.1428659)" gradientUnits="userSpaceOnUse" xlink:href="#outerBackgroundGradient-4"/><linearGradient id="linearGradient3927" x1="144" x2="144" y1="280" y2="40" gradientTransform="matrix(0.05555556,0,0,0.05714289,0,-1.1428659)" gradientUnits="userSpaceOnUse" xlink:href="#outerBackgroundGradient-4"/><linearGradient id="linearGradient3929" x1="5" x2="5" y1="1" y2="14" gradientTransform="translate(2,1)" gradientUnits="userSpaceOnUse" xlink:href="#linearGradient3804"/><linearGradient id="outerBackgroundGradient-9"><stop id="stop3864-8-6-6-8" offset="0" style="stop-color:#8c166c;stop-opacity:1"/><stop style="stop-color:#ca3561;stop-opacity:1" id="stop4409-9" offset=".362"/><stop id="stop3866-9-1-1" offset="1" style="stop-color:#f38f4e;stop-opacity:1"/></linearGradient><clipPath id="clipPath4552" clipPathUnits="userSpaceOnUse"><rect id="rect4554" width="21.098" height="21.098" x="42.892" y="24.01" rx="0" style="opacity:.2;fill:#000;fill-opacity:1;stroke:none"/></clipPath><linearGradient id="linearGradient4094-8"><stop id="stop4096-0" offset="0" style="stop-color:#e28192;stop-opacity:1"/><stop style="stop-color:#f7d6c7;stop-opacity:1" id="stop4317-3" offset=".259"/><stop id="stop4098-7" offset="1" style="stop-color:#fffee4;stop-opacity:1"/></linearGradient><linearGradient id="linearGradient3998" x1="10" x2="13" y1="11.5" y2="11.5" gradientTransform="matrix(1.3333333,0,0,1.3333333,-3.3333333,-27.333333)" gradientUnits="userSpaceOnUse" xlink:href="#outerBackgroundGradient-9"/><clipPath id="clipPath4043" clipPathUnits="userSpaceOnUse"><rect style="fill:url(#linearGradient4047);fill-opacity:1;stroke:none" id="rect4045" width="4" height="4" x="10" y="-14"/></clipPath><linearGradient id="linearGradient4047" x1="10" x2="13" y1="11.5" y2="11.5" gradientTransform="matrix(1.3333333,0,0,1.3333333,-3.3333333,-27.333333)" gradientUnits="userSpaceOnUse" xlink:href="#outerBackgroundGradient-9"/><linearGradient id="linearGradient4065" x1="324" x2="332" y1="260" y2="260" gradientTransform="matrix(0,-1,1,0,-208.375,365.12502)" gradientUnits="userSpaceOnUse" xlink:href="#linearGradient4094-8"/></defs><metadata id="metadata5405"/><g id="layer1"><g id="g3917" transform="matrix(0.98480775,0.17364817,-0.17364817,0.98480775,1.5107235,-1.2676477)"><path style="opacity:.41000001;color:#bebebe;fill:none;stroke:#000;stroke-width:2;stroke-linejoin:round;stroke-miterlimit:4;stroke-opacity:1;stroke-dasharray:none;marker:none;visibility:visible;display:inline;overflow:visible;enable-background:accumulate" id="path3919" d="M 13.999996,3 14,13 C 10,13 5.999999,13 2,13 L 2,3 z"/><path id="path3921" d="M 13.999996,3 14,13 C 10,13 5.999999,13 2,13 L 2,3 z" style="color:#bebebe;fill:url(#linearGradient3927);fill-opacity:1;fill-rule:nonzero;stroke:none;stroke-width:0;marker:none;visibility:visible;display:inline;overflow:visible;enable-background:accumulate"/><path id="path3923" d="M 14,3 2,3 2,13 14,13 14,3 z m -1,1 0,8 -10,0 0,-8 10,0 z" style="color:#bebebe;fill:url(#linearGradient3929);fill-opacity:1;fill-rule:nonzero;stroke:none;stroke-width:0;marker:none;visibility:visible;display:inline;overflow:visible;enable-background:accumulate"/><path id="path3925" d="M 3.15625,4.5625 3,4.75 2.84375,4.9375 6.125,8.0625 l -3.03125,3 -0.03125,0 L 3.25,11.25 3.4375,11.4375 3.6875,11.21875 6.71875,8.5625 7.6875,9.375 7.84375,9.53125 8,9.65625 8.15625,9.53125 8.3125,9.375 9.28125,8.5625 12.3125,11.21875 12.59375,11.4375 12.75,11.25 l 0.1875,-0.1875 -0.03125,0 -3.03125,-3 3.28125,-3.125 L 13,4.75 12.84375,4.5625 8,8.34375 3.15625,4.5625 z" style="font-size:medium;font-style:normal;font-variant:normal;font-weight:400;font-stretch:normal;text-indent:0;text-align:start;text-decoration:none;line-height:normal;letter-spacing:normal;word-spacing:normal;text-transform:none;direction:ltr;block-progression:tb;writing-mode:lr-tb;text-anchor:start;baseline-shift:baseline;opacity:.4;color:#000;fill:#000;fill-opacity:1;stroke:none;stroke-width:.5;marker:none;visibility:visible;display:inline;overflow:visible;enable-background:accumulate;font-family:Sans;-inkscape-font-specification:Sans"/></g><g id="g3911"><path id="path3029" d="M 13.999996,3 14,13 C 10,13 5.999999,13 2,13 L 2,3 z" style="opacity:.41000001;color:#bebebe;fill:none;stroke:#000;stroke-width:2;stroke-linejoin:round;stroke-miterlimit:4;stroke-opacity:1;stroke-dasharray:none;marker:none;visibility:visible;display:inline;overflow:visible;enable-background:accumulate"/><path style="color:#bebebe;fill:url(#linearGradient3908);fill-opacity:1;fill-rule:nonzero;stroke:none;stroke-width:0;marker:none;visibility:visible;display:inline;overflow:visible;enable-background:accumulate" id="rect3373-6" d="M 13.999996,3 14,13 C 10,13 5.999999,13 2,13 L 2,3 z"/><path style="color:#bebebe;fill:url(#linearGradient3905);fill-opacity:1;fill-rule:nonzero;stroke:none;stroke-width:0;marker:none;visibility:visible;display:inline;overflow:visible;enable-background:accumulate" id="path3799" d="M 14,3 2,3 2,13 14,13 14,3 z m -1,1 0,8 -10,0 0,-8 10,0 z"/><path style="font-size:medium;font-style:normal;font-variant:normal;font-weight:400;font-stretch:normal;text-indent:0;text-align:start;text-decoration:none;line-height:normal;letter-spacing:normal;word-spacing:normal;text-transform:none;direction:ltr;block-progression:tb;writing-mode:lr-tb;text-anchor:start;baseline-shift:baseline;opacity:.4;color:#000;fill:#000;fill-opacity:1;stroke:none;stroke-width:.5;marker:none;visibility:visible;display:inline;overflow:visible;enable-background:accumulate;font-family:Sans;-inkscape-font-specification:Sans" id="path3886" d="M 3.15625,4.5625 3,4.75 2.84375,4.9375 6.125,8.0625 l -3.03125,3 -0.03125,0 L 3.25,11.25 3.4375,11.4375 3.6875,11.21875 6.71875,8.5625 7.6875,9.375 7.84375,9.53125 8,9.65625 8.15625,9.53125 8.3125,9.375 9.28125,8.5625 12.3125,11.21875 12.59375,11.4375 12.75,11.25 l 0.1875,-0.1875 -0.03125,0 -3.03125,-3 3.28125,-3.125 L 13,4.75 12.84375,4.5625 8,8.34375 3.15625,4.5625 z"/></g><g id="g4067"><rect id="rect4017" width="7" height="7" x="8.5" y="8.5" style="fill:#eeeeec;fill-opacity:1;stroke:none"/><rect style="fill:url(#linearGradient3998);fill-opacity:1;stroke:none" id="rect3990" width="4" height="4" x="10" y="-14" transform="matrix(0,1,-1,0,0,0)"/><g id="g4049" clip-path="url(#clipPath4552)" transform="matrix(0.18959397,0,0,0.18959397,1.8679784,5.4477544)"><path style="font-size:medium;font-style:normal;font-variant:normal;font-weight:400;font-stretch:normal;text-indent:0;text-align:start;text-decoration:none;line-height:normal;letter-spacing:normal;word-spacing:normal;text-transform:none;direction:ltr;block-progression:tb;writing-mode:lr-tb;text-anchor:start;baseline-shift:baseline;opacity:.1;color:#000;fill:#fed8cd;fill-opacity:1;stroke:none;stroke-width:2;marker:none;visibility:visible;display:inline;overflow:visible;enable-background:new;font-family:Sans;-inkscape-font-specification:Sans" id="path4051" d="m 51.625,32.125 c -2.74958,0 -5,2.25042 -5,5 0,2.74958 2.25042,5 5,5 2.74958,0 5,-2.25042 5,-5 0,-2.74958 -2.25042,-5 -5,-5 z m 0,2 c 1.6687,0 3,1.3313 3,3 0,1.6687 -1.3313,3 -3,3 -1.6687,0 -3,-1.3313 -3,-3 0,-1.6687 1.3313,-3 3,-3 z"/><path style="font-size:medium;font-style:normal;font-variant:normal;font-weight:400;font-stretch:normal;text-indent:0;text-align:start;text-decoration:none;line-height:normal;letter-spacing:normal;word-spacing:normal;text-transform:none;direction:ltr;block-progression:tb;writing-mode:lr-tb;text-anchor:start;baseline-shift:baseline;opacity:.1;color:#000;fill:#fed8cd;fill-opacity:1;stroke:none;stroke-width:4;marker:none;visibility:visible;display:inline;overflow:visible;enable-background:new;font-family:Sans;-inkscape-font-specification:Sans" id="path4053" d="m 51.625,31.125 c -3.29002,0 -6,2.70998 -6,6 0,3.29002 2.70998,6 6,6 3.29002,0 6,-2.70998 6,-6 0,-3.29002 -2.70998,-6 -6,-6 z m 0,4 c 1.12826,0 2,0.87174 2,2 0,1.12826 -0.87174,2 -2,2 -1.12826,0 -2,-0.87174 -2,-2 0,-1.12826 0.87174,-2 2,-2 z"/><path style="font-size:medium;font-style:normal;font-variant:normal;font-weight:400;font-stretch:normal;text-indent:0;text-align:start;text-decoration:none;line-height:normal;letter-spacing:normal;word-spacing:normal;text-transform:none;direction:ltr;block-progression:tb;writing-mode:lr-tb;text-anchor:start;baseline-shift:baseline;opacity:.1;color:#000;fill:#fed8cd;fill-opacity:1;stroke:none;stroke-width:6;marker:none;visibility:visible;display:inline;overflow:visible;enable-background:new;font-family:Sans;-inkscape-font-specification:Sans" id="path4055" d="m 51.625,30.125 c -3.83046,0 -7,3.16954 -7,7 0,3.83046 3.16954,7 7,7 3.83046,0 7,-3.16954 7,-7 0,-3.83046 -3.16954,-7 -7,-7 z m 0,6 c 0.58782,0 1,0.41218 1,1 0,0.58782 -0.41218,1 -1,1 -0.58782,0 -1,-0.41218 -1,-1 0,-0.58782 0.41218,-1 1,-1 z"/><path style="color:#000;fill:url(#linearGradient4065);fill-opacity:1;fill-rule:evenodd;stroke:none;stroke-width:14;marker:none;visibility:visible;display:inline;overflow:visible;enable-background:new" id="path4057" d="m 51.625,33.12502 c 2.20914,0 4,1.79086 4,4 0,2.20914 -1.79086,4 -4,4 -2.20914,0 -4,-1.79086 -4,-4 0,-2.20914 1.79086,-4 4,-4 z"/><path style="fill:#000;fill-opacity:1;stroke:none;display:inline" id="path4059" d="m 42.625,42.125017 0,-1 c 0,0 2.52394,-1.6666 3.23353,-1.812 0.7096,-0.1454 1.54759,-0.027 2.40882,0.1355 0.86124,0.162 2.14701,0.3811 2.54829,0.3948 0.40129,0.014 1.12747,-0.035 1.97121,-0.086 0.84374,-0.05 2.24079,-0.096 2.67654,-0.091 0.43575,0 1.52358,0.06 2.68316,0.1308 1.15958,0.071 2.75227,0.1896 3.11363,0.2228 0.36137,0.033 0.78614,0.094 1.26819,0.1605 0.48204,0.066 1.31657,0.1657 1.6118,0.1931 0.29522,0.027 0.97966,0.1211 1.7738,0.1942 0.79414,0.073 2.06499,0.098 2.432,0.071 0.36701,-0.027 1.13629,-0.2988 1.99357,-0.5493 0.85728,-0.2504 1.80257,-0.4797 2.5216,-0.423 0.71903,0.057 4.76386,1.4585 4.76386,1.4585 l 0,1 -5.25,0 -4.25,0 -4.25,0 -4.25,0 -4.25,0 -4.25,0 -4.25,0 z"/><path id="path4061" d="m 42.625,42.125017 0,0.6525 c 0,0 2.52394,1.0873 3.23353,1.1822 0.7096,0.095 1.54759,0.018 2.40882,-0.088 0.86124,-0.1057 2.14701,-0.2487 2.54829,-0.2576 0.40129,-0.01 1.12747,0.023 1.97121,0.056 0.84374,0.033 2.24079,0.063 2.67654,0.059 0.43575,0 1.52358,-0.039 2.68316,-0.085 1.15958,-0.046 2.75227,-0.1237 3.11363,-0.1453 0.36137,-0.022 0.78614,-0.061 1.26819,-0.1048 0.48204,-0.043 1.31657,-0.108 1.6118,-0.1259 0.29522,-0.018 0.97966,-0.079 1.7738,-0.1268 0.79414,-0.048 2.06499,-0.064 2.432,-0.046 0.36701,0.018 1.13629,0.195 1.99357,0.3584 0.85728,0.1634 1.80257,0.313 2.5216,0.276 0.71903,-0.037 4.76386,-0.9516 4.76386,-0.9516 l 0,-0.6524 -5.25,0 -4.25,0 -4.25,0 -4.25,0 -4.25,0 -4.25,0 -4.25,0 z" style="opacity:.9;fill:#000;fill-opacity:1;stroke:none;display:inline"/><path style="opacity:.3;color:#000;fill:#4d585e;fill-opacity:1;stroke:none;stroke-width:6;marker:none;visibility:visible;display:inline;overflow:visible;enable-background:new" id="path4063" d="m 42.625,42.125 35,0 0,3 -35,0 z"/></g><rect style="fill:none;fill-opacity:1;stroke:#000;stroke-opacity:1;opacity:.40999999999999998;stroke-linejoin:round" id="rect4022" width="7" height="7" x="8.5" y="8.5"/><path style="fill:#fff;fill-opacity:1;stroke:none;opacity:.6" id="rect4024" d="m 9,9 0,1 1,0 4,0 1,0 0,-1 -6,0 z"/><rect id="rect4039" width="4" height="4" x="10" y="-14" clip-path="url(#clipPath4043)" transform="matrix(0,1,-1,0,0,0)" style="fill:none;fill-opacity:1;stroke:#000;stroke-opacity:1;opacity:.1"/></g></g></svg>