<svg xmlns="http://www.w3.org/2000/svg" xmlns:svg="http://www.w3.org/2000/svg" xmlns:xlink="http://www.w3.org/1999/xlink" id="svg5400" width="16" height="16" version="1.1"><defs id="defs5402"><linearGradient id="linearGradient4313"><stop style="stop-color:#3e3e3e;stop-opacity:1" id="stop4315" offset="0"/><stop style="stop-color:#343434;stop-opacity:1" id="stop4318" offset=".262"/><stop style="stop-color:#272727;stop-opacity:1" id="stop4320" offset=".705"/><stop style="stop-color:#1d1d1d;stop-opacity:1" id="stop4322" offset="1"/></linearGradient><linearGradient id="linearGradient6402" x1="144" x2="144" y1="280" y2="40" gradientTransform="matrix(0,-0.05,0.05,0,-180.75031,-1391.8)" gradientUnits="userSpaceOnUse" xlink:href="#linearGradient3988"/><linearGradient id="linearGradient3988"><stop style="stop-color:#f1f1f1;stop-opacity:1" id="stop3990" offset="0"/><stop style="stop-color:#f4f4f4;stop-opacity:1" id="stop3992" offset="1"/></linearGradient><linearGradient id="linearGradient6404" x1="144" x2="144" y1="280" y2="40" gradientTransform="matrix(0,-0.04166667,0.04166667,0,-179.29196,-1393)" gradientUnits="userSpaceOnUse" xlink:href="#outerBackgroundGradient"/><linearGradient id="outerBackgroundGradient"><stop style="stop-color:#8c166c;stop-opacity:1" id="stop3864-8-6" offset="0"/><stop id="stop4409" offset=".362" style="stop-color:#ca3561;stop-opacity:1"/><stop style="stop-color:#f38f4e;stop-opacity:1" id="stop3866-9-1" offset="1"/></linearGradient><linearGradient id="linearGradient6406" x1="324" x2="332" y1="260" y2="260" gradientUnits="userSpaceOnUse" xlink:href="#linearGradient4094"/><linearGradient id="linearGradient4094"><stop style="stop-color:#e28192;stop-opacity:1" id="stop4096" offset="0"/><stop id="stop4317" offset=".259" style="stop-color:#f7d6c7;stop-opacity:1"/><stop style="stop-color:#fffee4;stop-opacity:1" id="stop4098" offset="1"/></linearGradient><linearGradient id="linearGradient6396" x1="144" x2="144" y1="280" y2="40" gradientTransform="matrix(0,-0.05,0.05,0,-180.75031,-1391.8)" gradientUnits="userSpaceOnUse" xlink:href="#linearGradient3988"/><linearGradient id="linearGradient6398" x1="144" x2="144" y1="280" y2="40" gradientTransform="matrix(0,-0.04166667,0.04166667,0,-179.29196,-1393)" gradientUnits="userSpaceOnUse" xlink:href="#outerBackgroundGradient"/><linearGradient id="linearGradient6400" x1="324" x2="332" y1="260" y2="260" gradientUnits="userSpaceOnUse" xlink:href="#linearGradient4094"/><linearGradient id="linearGradient3113" x1="19.759" x2="19.759" y1="24.735" y2="46.702" gradientTransform="matrix(0.36363634,0,0,0.36363634,6.0891102,-0.98144121)" gradientUnits="userSpaceOnUse" xlink:href="#linearGradient4270-7-5-1"/><linearGradient id="linearGradient4270-7-5-1"><stop id="stop4272-8-7-3" offset="0" style="stop-color:#000;stop-opacity:.32800001"/><stop id="stop4274-6-3-6" offset="1" style="stop-color:#000;stop-opacity:.68000001"/></linearGradient><linearGradient id="linearGradient3119" x1="79" x2="122.714" y1="32" y2="32" gradientTransform="matrix(0,-0.0909091,0.0909091,0,9.09092,20.727269)" gradientUnits="userSpaceOnUse" xlink:href="#linearGradient4174-396-4"/><linearGradient id="linearGradient4174-396-4"><stop id="stop5101-1" offset="0" style="stop-color:#000;stop-opacity:.736"/><stop id="stop5103-2" offset="1" style="stop-color:#000;stop-opacity:.096"/></linearGradient><linearGradient id="linearGradient3122" x1="68.313" x2="68.313" y1="52.925" y2="65.922" gradientTransform="matrix(0.04376593,0,0,0.03282445,9.07143,9.457648)" gradientUnits="userSpaceOnUse" xlink:href="#linearGradient3990-3-968-6"/><linearGradient id="linearGradient3990-3-968-6"><stop id="stop5069-2" offset="0" style="stop-color:#fff;stop-opacity:1"/><stop id="stop5071-8" offset="1" style="stop-color:#fff;stop-opacity:0"/></linearGradient><radialGradient id="radialGradient3125" cx="95.838" cy="95.388" r="9.498" fx="95.838" fy="95.388" gradientTransform="matrix(0.13501499,-2.0132531e-8,1.8916035e-8,0.12685679,-0.9605497,-0.15043121)" gradientUnits="userSpaceOnUse" xlink:href="#linearGradient4278-757-5"/><linearGradient id="linearGradient4278-757-5"><stop id="stop5107-6" offset="0" style="stop-color:#000;stop-opacity:0"/><stop id="stop5109-76" offset=".5" style="stop-color:#000;stop-opacity:0"/><stop id="stop5111-8" offset="1" style="stop-color:#000;stop-opacity:1"/></linearGradient><radialGradient id="radialGradient3128" cx="23.896" cy="3.99" r="20.397" gradientTransform="matrix(0,0.11731521,-0.15485401,0,12.61787,8.1211784)" gradientUnits="userSpaceOnUse" xlink:href="#linearGradient2867-449-88-871-390-598-476-591-434-148-57-177-691-923-3"/><linearGradient id="linearGradient2867-449-88-871-390-598-476-591-434-148-57-177-691-923-3"><stop id="stop5181-3" offset="0" style="stop-color:#432f91;stop-opacity:1"/><stop id="stop5183-3" offset="1" style="stop-color:#1972a2;stop-opacity:1"/></linearGradient><linearGradient id="linearGradient3131" x1="-166.576" x2="-166.576" y1="49.332" y2="73.351" gradientTransform="matrix(0.09879011,0,0,0.09995268,28.49201,5.7924984)" gradientUnits="userSpaceOnUse" xlink:href="#linearGradient3087-408-4-672-8-5-2"/><linearGradient id="linearGradient3087-408-4-672-8-5-2" x1="7.078" x2="7.078" y1="3.082" y2="45.369" gradientTransform="matrix(0.22110724,0,0,0.22110728,6.6934256,6.693263)" gradientUnits="userSpaceOnUse"><stop id="stop5153-9-6-3" offset="0" style="stop-color:#232323;stop-opacity:1"/><stop id="stop5155-8-8-9" offset="1" style="stop-color:#747474;stop-opacity:1"/></linearGradient><radialGradient id="radialGradient3134" cx="24.78" cy="4.077" r="20.397" fx="24.78" fy="4.077" gradientTransform="matrix(0,0.19508946,-0.25751464,0,13.02296,5.2222484)" gradientUnits="userSpaceOnUse" xlink:href="#linearGradient3707-319-631-407-324-616-79-9"/><linearGradient id="linearGradient3707-319-631-407-324-616-79-9"><stop id="stop5194-0" offset="0" style="stop-color:#787878;stop-opacity:1"/><stop id="stop5196-7" offset="1" style="stop-color:#474747;stop-opacity:1"/></linearGradient><linearGradient id="linearGradient3137" x1="71.204" x2="71.204" y1="6.238" y2="44.341" gradientTransform="matrix(0.13513513,0,0,0.13513726,2.3062802,8.5732484)" gradientUnits="userSpaceOnUse" xlink:href="#linearGradient3101-4-766-6"/><linearGradient id="linearGradient3101-4-766-6" x1="71.204" x2="71.204" y1="6.238" y2="44.341" gradientTransform="matrix(0.5135135,0,0,0.5135135,-24.836132,-1.021284)" gradientUnits="userSpaceOnUse"><stop id="stop5091-0" offset="0" style="stop-color:#fff;stop-opacity:1"/><stop id="stop5093-26" offset=".508" style="stop-color:#fff;stop-opacity:.23529412"/><stop id="stop5095-96" offset=".835" style="stop-color:#fff;stop-opacity:.15686275"/><stop id="stop5097-7" offset="1" style="stop-color:#fff;stop-opacity:.39215687"/></linearGradient><radialGradient id="radialGradient3140" cx="10.229" cy="22.955" r="20" fx="10.229" fy="22.955" gradientTransform="matrix(0,0.14982901,-0.17475775,0,16.02459,8.9813484)" gradientUnits="userSpaceOnUse" xlink:href="#linearGradient4313"/><linearGradient id="linearGradient3142" x1="83.59" x2="83.59" y1="73.439" y2="118.827" gradientTransform="matrix(0.06666669,0,0,0.06666669,5.6000002,5.5999984)" gradientUnits="userSpaceOnUse" xlink:href="#linearGradient4077-488-880-992-3"/><linearGradient id="linearGradient4077-488-880-992-3"><stop id="stop5085-9" offset="0" style="stop-color:#1b1b1b;stop-opacity:1"/><stop id="stop5087-8" offset="1" style="stop-color:#000;stop-opacity:1"/></linearGradient><radialGradient id="radialGradient3145" cx="23.896" cy="3.99" r="20.397" gradientTransform="matrix(0,0.41062756,-0.54202111,0,14.162732,-1.5763731)" gradientUnits="userSpaceOnUse" xlink:href="#radialGradient3093-718-5"/><radialGradient id="radialGradient3093-718-5" cx="23.896" cy="3.99" r="20.397" gradientTransform="matrix(0,1.2316483,-1.625754,0,18.486966,-28.721977)" gradientUnits="userSpaceOnUse"><stop id="stop5115-1" offset="0" style="stop-color:#898989;stop-opacity:1"/><stop id="stop5117-2" offset=".262" style="stop-color:#555;stop-opacity:1"/><stop id="stop5119-0" offset=".661" style="stop-color:#3e3e3e;stop-opacity:1"/><stop id="stop5121-3" offset="1" style="stop-color:#000;stop-opacity:1"/></radialGradient><radialGradient id="radialGradient3109-1" cx="62.625" cy="4.625" r="10.625" gradientTransform="matrix(1.1294118,0,0,0.2823525,-58.729414,19.694118)" gradientUnits="userSpaceOnUse"><stop id="stop8840-3-5" offset="0" style="stop-color:#000;stop-opacity:1"/><stop id="stop8842-5-9" offset="1" style="stop-color:#000;stop-opacity:0"/></radialGradient><radialGradient id="radialGradient3260" cx="62.625" cy="4.625" r="10.625" gradientTransform="matrix(0.30037568,0,0,0.0750938,-6.9812398,14.5144)" gradientUnits="userSpaceOnUse" xlink:href="#radialGradient3109-1"/></defs><metadata id="metadata5405"/><g id="layer1"><g style="display:inline;enable-background:new" id="g6374" transform="matrix(0.98480776,0.17364818,-0.17364818,0.98480776,-1399.7872,-64.561788)"><rect style="opacity:.41000001;color:#bebebe;fill:#000;fill-opacity:1;fill-rule:nonzero;stroke:#000;stroke-width:2;stroke-linejoin:round;stroke-miterlimit:4;stroke-opacity:1;stroke-dasharray:none;marker:none;visibility:visible;display:inline;overflow:visible;enable-background:accumulate" id="rect6376" width="10" height="12" x="-178" y="-1405" ry="0" transform="matrix(0,1,-1,0,0,0)"/><rect id="rect6378" width="10" height="12" x="-178" y="-1405" ry="0" transform="matrix(0,1,-1,0,0,0)" style="color:#bebebe;fill:url(#linearGradient6396);fill-opacity:1;fill-rule:nonzero;stroke:#000;stroke-width:0;stroke-opacity:1;marker:none;visibility:visible;display:inline;overflow:visible;enable-background:accumulate"/><rect style="color:#bebebe;fill:url(#linearGradient6398);fill-opacity:1;fill-rule:nonzero;stroke:#000;stroke-width:0;stroke-opacity:1;marker:none;visibility:visible;display:inline;overflow:visible;enable-background:accumulate" id="rect6380" width="8" height="10" x="-177" y="-1404" ry="0" transform="matrix(0,1,-1,0,0,0)"/><g id="g6382" transform="matrix(0.83333333,0,0,0.83333333,234.41667,-32.270878)"><rect id="rect6384" width="12" height="1.059" x="1391.5" y="-165.648" style="opacity:.3;color:#000;fill:#000;fill-opacity:1;stroke:none;stroke-width:6;marker:none;visibility:visible;display:inline;overflow:visible;enable-background:new"/><path id="path6386" d="m 332,260 c 0,2.20914 -1.79086,4 -4,4 -2.20914,0 -4,-1.79086 -4,-4 0,-2.20914 1.79086,-4 4,-4 2.20914,0 4,1.79086 4,4 z" transform="matrix(0.35294118,0,0,0.35294118,1279.3228,-259.40249)" style="opacity:.1;color:#000;fill:none;stroke:#fed8cd;stroke-width:13.59999943;stroke-miterlimit:4;stroke-opacity:1;stroke-dasharray:none;marker:none;visibility:visible;display:inline;overflow:visible;enable-background:new"/><path style="opacity:.1;color:#000;fill:none;stroke:#fed8cd;stroke-width:6.79999971;stroke-miterlimit:4;stroke-opacity:1;stroke-dasharray:none;marker:none;visibility:visible;display:inline;overflow:visible;enable-background:new" id="path6388" d="m 332,260 c 0,2.20914 -1.79086,4 -4,4 -2.20914,0 -4,-1.79086 -4,-4 0,-2.20914 1.79086,-4 4,-4 2.20914,0 4,1.79086 4,4 z" transform="matrix(0.35294118,0,0,0.35294118,1279.3228,-259.40249)"/><path id="path6390" d="m 332,260 c 0,2.20914 -1.79086,4 -4,4 -2.20914,0 -4,-1.79086 -4,-4 0,-2.20914 1.79086,-4 4,-4 2.20914,0 4,1.79086 4,4 z" transform="matrix(0,-0.35294118,0.35294118,0,1303.3228,-51.873061)" style="color:#000;fill:url(#linearGradient6400);fill-opacity:1;fill-rule:evenodd;stroke:none;stroke-width:14;marker:none;visibility:visible;display:inline;overflow:visible;enable-background:new"/><path id="path6392" d="m 1391.5,-165.64808 0,-0.35294 c 0,0 0.8908,-0.5882 1.1412,-0.63951 0.2505,-0.0513 0.5463,-0.009 0.8502,0.0478 0.304,0.0572 0.7578,0.13451 0.8994,0.13936 0.1416,0.005 0.3979,-0.0125 0.6957,-0.0302 0.2978,-0.0177 0.7909,-0.034 0.9447,-0.0322 0.1538,0.002 0.5377,0.0213 0.947,0.0462 0.4093,0.0249 0.9714,0.0669 1.0989,0.0786 0.1276,0.0117 0.2775,0.0332 0.4476,0.0567 0.1702,0.0234 0.4647,0.0584 0.5689,0.0681 0.1042,0.01 0.3458,0.0427 0.626,0.0686 0.2803,0.0258 0.7289,0.0347 0.8584,0.025 0.1295,-0.01 0.401,-0.10548 0.7036,-0.19386 0.3026,-0.0884 0.6362,-0.16933 0.89,-0.1493 0.2538,0.0201 1.3284,0.51474 1.3284,0.51474 l 0,0.35294 -1.5,0 -1.5,0 -1.5,0 -1.5,0 -1.5,0 -1.5,0 -1.5,0 z" style="fill:#000;fill-opacity:1;stroke:none;display:inline"/><path style="opacity:.9;fill:#000;fill-opacity:1;stroke:none;display:inline" id="path6394" d="m 1391.5,-165.64807 0,0.23029 c 0,0 0.8908,0.38376 1.1412,0.41725 0.2505,0.0335 0.5463,0.006 0.8502,-0.0311 0.304,-0.0373 0.7578,-0.0878 0.8994,-0.0909 0.1416,-0.004 0.3979,0.008 0.6957,0.0198 0.2978,0.0116 0.7909,0.0222 0.9447,0.0208 0.1538,0 0.5377,-0.0138 0.947,-0.03 0.4093,-0.0162 0.9714,-0.0437 1.0989,-0.0513 0.1276,-0.008 0.2775,-0.0215 0.4476,-0.037 0.1702,-0.0152 0.4647,-0.0381 0.5689,-0.0444 0.1042,-0.006 0.3458,-0.0279 0.626,-0.0448 0.2803,-0.0169 0.7289,-0.0226 0.8584,-0.0162 0.1295,0.006 0.401,0.0688 0.7036,0.12649 0.3026,0.0577 0.6362,0.11047 0.89,0.0974 0.2538,-0.013 1.3284,-0.33582 1.3284,-0.33582 l 0,-0.23026 -1.5,0 -1.5,0 -1.5,0 -1.5,0 -1.5,0 -1.5,0 -1.5,0 z"/></g></g><g style="display:inline;enable-background:new" id="g6362" transform="translate(-1391,181.00027)"><rect id="rect6270" width="10" height="12" x="-178" y="-1405" ry="0" transform="matrix(0,1,-1,0,0,0)" style="opacity:.41000001;color:#bebebe;fill:#000;fill-opacity:1;fill-rule:nonzero;stroke:#000;stroke-width:2;stroke-linejoin:round;stroke-miterlimit:4;stroke-opacity:1;stroke-dasharray:none;marker:none;visibility:visible;display:inline;overflow:visible;enable-background:accumulate"/><rect style="color:#bebebe;fill:url(#linearGradient6402);fill-opacity:1;fill-rule:nonzero;stroke:#000;stroke-width:0;stroke-opacity:1;marker:none;visibility:visible;display:inline;overflow:visible;enable-background:accumulate" id="rect5498" width="10" height="12" x="-178" y="-1405" ry="0" transform="matrix(0,1,-1,0,0,0)"/><rect id="rect3373" width="8" height="10" x="-177" y="-1404" ry="0" transform="matrix(0,1,-1,0,0,0)" style="color:#bebebe;fill:url(#linearGradient6404);fill-opacity:1;fill-rule:nonzero;stroke:none;stroke-width:0;marker:none;visibility:visible;display:inline;overflow:visible;enable-background:accumulate"/><g id="g6352" transform="matrix(0.83333333,0,0,0.83333333,234.41667,-32.270878)"><rect style="opacity:.3;color:#000;fill:#000;fill-opacity:1;stroke:none;stroke-width:6;marker:none;visibility:visible;display:inline;overflow:visible;enable-background:new" id="rect4145" width="12" height="1.059" x="1391.5" y="-165.648"/><path style="opacity:.1;color:#000;fill:none;stroke:#fed8cd;stroke-width:13.59999943;stroke-miterlimit:4;stroke-opacity:1;stroke-dasharray:none;marker:none;visibility:visible;display:inline;overflow:visible;enable-background:new" id="path4135" d="m 332,260 c 0,2.20914 -1.79086,4 -4,4 -2.20914,0 -4,-1.79086 -4,-4 0,-2.20914 1.79086,-4 4,-4 2.20914,0 4,1.79086 4,4 z" transform="matrix(0.35294118,0,0,0.35294118,1279.3228,-259.40249)"/><path id="path4133" d="m 332,260 c 0,2.20914 -1.79086,4 -4,4 -2.20914,0 -4,-1.79086 -4,-4 0,-2.20914 1.79086,-4 4,-4 2.20914,0 4,1.79086 4,4 z" transform="matrix(0.35294118,0,0,0.35294118,1279.3228,-259.40249)" style="opacity:.1;color:#000;fill:none;stroke:#fed8cd;stroke-width:6.79999971;stroke-miterlimit:4;stroke-opacity:1;stroke-dasharray:none;marker:none;visibility:visible;display:inline;overflow:visible;enable-background:new"/><path style="color:#000;fill:url(#linearGradient6406);fill-opacity:1;fill-rule:evenodd;stroke:none;stroke-width:14;marker:none;visibility:visible;display:inline;overflow:visible;enable-background:new" id="path4139" d="m 332,260 c 0,2.20914 -1.79086,4 -4,4 -2.20914,0 -4,-1.79086 -4,-4 0,-2.20914 1.79086,-4 4,-4 2.20914,0 4,1.79086 4,4 z" transform="matrix(0,-0.35294118,0.35294118,0,1303.3228,-51.873061)"/><path style="fill:#000;fill-opacity:1;stroke:none;display:inline" id="path4141" d="m 1391.5,-165.64808 0,-0.35294 c 0,0 0.8908,-0.5882 1.1412,-0.63951 0.2505,-0.0513 0.5463,-0.009 0.8502,0.0478 0.304,0.0572 0.7578,0.13451 0.8994,0.13936 0.1416,0.005 0.3979,-0.0125 0.6957,-0.0302 0.2978,-0.0177 0.7909,-0.034 0.9447,-0.0322 0.1538,0.002 0.5377,0.0213 0.947,0.0462 0.4093,0.0249 0.9714,0.0669 1.0989,0.0786 0.1276,0.0117 0.2775,0.0332 0.4476,0.0567 0.1702,0.0234 0.4647,0.0584 0.5689,0.0681 0.1042,0.01 0.3458,0.0427 0.626,0.0686 0.2803,0.0258 0.7289,0.0347 0.8584,0.025 0.1295,-0.01 0.401,-0.10548 0.7036,-0.19386 0.3026,-0.0884 0.6362,-0.16933 0.89,-0.1493 0.2538,0.0201 1.3284,0.51474 1.3284,0.51474 l 0,0.35294 -1.5,0 -1.5,0 -1.5,0 -1.5,0 -1.5,0 -1.5,0 -1.5,0 z"/><path id="path4143" d="m 1391.5,-165.64807 0,0.23029 c 0,0 0.8908,0.38376 1.1412,0.41725 0.2505,0.0335 0.5463,0.006 0.8502,-0.0311 0.304,-0.0373 0.7578,-0.0878 0.8994,-0.0909 0.1416,-0.004 0.3979,0.008 0.6957,0.0198 0.2978,0.0116 0.7909,0.0222 0.9447,0.0208 0.1538,0 0.5377,-0.0138 0.947,-0.03 0.4093,-0.0162 0.9714,-0.0437 1.0989,-0.0513 0.1276,-0.008 0.2775,-0.0215 0.4476,-0.037 0.1702,-0.0152 0.4647,-0.0381 0.5689,-0.0444 0.1042,-0.006 0.3458,-0.0279 0.626,-0.0448 0.2803,-0.0169 0.7289,-0.0226 0.8584,-0.0162 0.1295,0.006 0.401,0.0688 0.7036,0.12649 0.3026,0.0577 0.6362,0.11047 0.89,0.0974 0.2538,-0.013 1.3284,-0.33582 1.3284,-0.33582 l 0,-0.23026 -1.5,0 -1.5,0 -1.5,0 -1.5,0 -1.5,0 -1.5,0 -1.5,0 z" style="opacity:.9;fill:#000;fill-opacity:1;stroke:none;display:inline"/></g><path style="opacity:.15;color:#bebebe;fill:#000;fill-opacity:1;fill-rule:nonzero;stroke:none;stroke-width:0;marker:none;visibility:visible;display:inline;overflow:visible;enable-background:accumulate" id="rect7398" d="m 1404,-177.00028 0,8 -10,0 0,-8 10,0 z m -1,1 -8,0 0,6 8,0 0,-6 z"/></g><rect style="opacity:.15;fill:#fff;fill-opacity:1;stroke:none;display:inline;enable-background:new" id="rect7403" width="12" height="1" x="1" y="3"/><path style="opacity:.4;fill:url(#radialGradient3260);fill-rule:evenodd" id="path8836-6" d="m 15.02128,14.86171 c 0,0.44066 -1.42888,0.79787 -3.19149,0.79787 -1.76261,0 -3.19149,-0.35718 -3.19149,-0.79787 0,-0.4407 1.42888,-0.79788 3.19149,-0.79788 1.76261,0 3.19149,0.35721 3.19149,0.79788 z"/><path style="fill:url(#radialGradient3145);stroke:none" id="path2555-36-9-2" d="m 12,8.4999981 c -1.931265,0 -3.5,1.5688999 -3.5,3.5000019 0,1.931265 1.568898,3.5 3.5,3.5 1.931265,0 3.5,-1.568898 3.5,-3.5 0,-1.931265 -1.568898,-3.5000019 -3.5,-3.5000019 z"/><path style="color:#000;fill:url(#radialGradient3140);fill-opacity:1;fill-rule:nonzero;stroke:url(#linearGradient3142);stroke-width:.99999976000000002;stroke-opacity:1;marker:none;visibility:visible;display:inline;overflow:visible;enable-background:accumulate" id="path2555-36-4-3-8" d="m 12,10.5 c -0.82769,0 -1.5,0.67239 -1.5,1.5 0,0.82769 0.67239,1.5 1.5,1.5 0.82769,0 1.5,-0.67238 1.5,-1.5 0,-0.82769 -0.67239,-1.5 -1.5,-1.5 z"/><path style="opacity:.8;color:#000;fill:url(#linearGradient3113);fill-opacity:1;stroke:none;stroke-width:1;marker:none;visibility:visible;display:inline;overflow:visible;enable-background:accumulate" id="path4681-1" d="M 12,7.9999984 C 9.79086,7.9999984 8,9.790858 8,12 c 0,2.20914 1.79086,4 4,4 2.20914,0 4,-1.79086 4,-4 0,-2.209142 -1.79086,-4.0000016 -4,-4.0000016 z"/><path style="opacity:.3;color:#000;fill:none;stroke:url(#linearGradient3137);stroke-width:.99999988;stroke-linecap:round;stroke-linejoin:round;stroke-miterlimit:4;stroke-dasharray:none;stroke-dashoffset:0;enable-background:accumulate" id="path8655-6-38-42" d="M 14.5,11.99996 C 14.5,13.38077 13.38053,14.5 12,14.5 c -1.38068,0 -2.5,-1.11949 -2.5,-2.50004 0,-1.38071 1.11932,-2.499962 2.50003,-2.499962 1.3806,0 2.49997,1.119232 2.49997,2.499962 z"/><path style="fill:url(#radialGradient3134);fill-opacity:1;stroke:none" id="path2555-36-5-6" d="m 12,9.999998 c -1.10358,0 -2,0.896512 -2,2.000002 0,1.10358 0.89651,2 2,2 1.10358,0 2,-0.89651 2,-2 0,-1.10358 -0.89651,-2.000002 -2,-2.000002 z"/><path style="color:#000;fill:url(#linearGradient3131);fill-opacity:1;fill-rule:nonzero;stroke:none;stroke-width:2.13625455;marker:none;visibility:visible;display:inline;overflow:visible;enable-background:accumulate" id="path3200-9" d="m 13.2766,12 a 1.2766,1.2766 0 0 1 -2.5532,0 1.2766,1.2766 0 1 1 2.5532,0 z"/><path style="fill:url(#radialGradient3128);fill-opacity:1;stroke:none" id="path2555-3-4-6" d="m 12,11 c -0.55175,0 -1,0.44822 -1,1 0,0.55175 0.44825,1 1,1 0.55175,0 1,-0.44822 1,-1 0,-0.55175 -0.44822,-1 -1,-1 z"/><path style="opacity:.5;fill:url(#radialGradient3125);fill-opacity:1;stroke:none" id="path2555-3-3-5" d="m 12,11 c -0.55175,0 -1,0.44823 -1,1 0,0.55175 0.44825,1 1,1 0.55175,0 1,-0.44822 1,-1 0,-0.55175 -0.44822,-1 -1,-1 z"/><path style="opacity:.5;color:#000;fill:url(#linearGradient3122);fill-opacity:1;stroke:none;stroke-width:1;marker:none;visibility:visible;display:inline;overflow:visible;enable-background:accumulate" id="path3220-7-0" d="m 12.5,11.56989 a 0.5,0.37500011 0 0 1 -1,0 0.5,0.37500011 0 1 1 1,0 z"/><path style="opacity:.9;color:#000;fill:none;stroke:url(#linearGradient3119);stroke-width:.99999982;stroke-linecap:round;stroke-linejoin:round;stroke-miterlimit:4;stroke-opacity:1;stroke-dasharray:none;stroke-dashoffset:0;enable-background:accumulate" id="path8655-6-38-7-6" d="m 11.99998,10.5 c 0.82848,0 1.50002,0.67168 1.50002,1.5 0,0.82841 -0.67169,1.5 -1.50002,1.5 C 11.17155,13.5 10.5,12.82841 10.5,11.99998 10.5,11.17162 11.17154,10.5 11.99998,10.5 z"/></g></svg>