<svg xmlns="http://www.w3.org/2000/svg" xmlns:svg="http://www.w3.org/2000/svg" id="svg2" width="16" height="16" version="1.1"><metadata id="metadata90"/><g id="g4953" transform="translate(-601,-460.99997)"><path id="rect6190-8-8-4" fill="#bebebe" stroke-width="1.508" d="m 610.0002,469 0,1 0,3.28125 c -0.29454,-0.17076 -0.63503,-0.28125 -1,-0.28125 -1.10457,0 -2,0.89543 -2,2 0,1.10457 0.89543,2 2,2 1.10457,0 2,-0.89543 2,-2 l 0,-5 4,0 0,3.28125 c -0.29454,-0.17076 -0.63503,-0.28125 -1,-0.28125 -1.10457,0 -2,0.89543 -2,2 0,1.10457 0.89543,2 2,2 1.10457,0 2,-0.89543 2,-2 l 0,-5 0,-1 -1,0 -4,0 -1,0 z" color="#000"/><path id="rect5523-5" fill="#bebebe" stroke-width="1.508" d="m 602.96895,461 c 0,0 -0.96875,1 -0.96875,2 l 0,12 c 0,1.00959 -1,2 -1,2 l 1,0 c 0,0 0.42287,-0.42699 0.71875,-1 l 1,0 c -0.29588,0.57301 -0.71875,1 -0.71875,1 l 1,0 c 0,0 1,-1.02145 1,-2 l 0,-2 1,0 0,-1 -1,0 0,-5 8,0 0,1 1,0 1,0 1,0 0,-5 c 0,-1 0.96875,-2 0.96875,-2 l -3,0 c 0,0 -0.96875,1 -0.96875,2 l 0,3 -8,0 0,-3 c 0,-1 0.96875,-2 0.96875,-2 z m 0.3125,1 1,0 c -0.15291,0.30578 -0.28125,0.65211 -0.28125,1 l -1,0 c 0,-0.34789 0.12834,-0.69422 0.28125,-1 z m 11,0 1,0 c -0.15291,0.30578 -0.28125,0.65211 -0.28125,1 l -1,0 c 0,-0.34789 0.12834,-0.69422 0.28125,-1 z m -11.28125,2 1,0 0,1 -1,0 z m 11,0 1,0 0,1 -1,0 z m -11,2 1,0 0,1 -1,0 z m 11,0 1,0 0,1 -1,0 z m -11,2 1,0 0,1 -1,0 z m 0,2 1,0 0,1 -1,0 z m 0,2 1,0 0,1 -1,0 z m 0,2 1,0 0,1 -1,0 z" color="#000"/></g></svg>