<svg xmlns="http://www.w3.org/2000/svg" xmlns:osb="http://www.openswatchbook.org/uri/2009/osb" xmlns:svg="http://www.w3.org/2000/svg" style="enable-background:new" id="svg7384" width="16" height="16" version="1.1"><metadata id="metadata90"/><title id="title8473">Moka Symbolic Icon Theme</title><defs id="defs7386"><linearGradient id="linearGradient5606" osb:paint="solid"><stop style="stop-color:#000;stop-opacity:1" id="stop5608" offset="0"/></linearGradient><filter id="filter7554" color-interpolation-filters="sRGB"><feBlend id="feBlend7556" in2="BackgroundImage" mode="darken"/></filter></defs><g style="display:inline" id="layer2" transform="translate(-442.00018,-423.99664)"><path style="color:#000;fill:#bebebe;fill-opacity:1;fill-rule:nonzero;stroke:none;stroke-width:2;marker:none;visibility:visible;display:inline;overflow:visible;enable-background:accumulate" id="path6355" d="m 450,427 c -2.76142,0 -5,2.23858 -5,5 0,2.76142 2.23858,5 5,5 2.76142,0 5,-2.23858 5,-5 0,-2.76142 -2.23858,-5 -5,-5 z m 0,3 c 1.10457,0 2,0.89543 2,2 0,1.10457 -0.89543,2 -2,2 -1.10457,0 -2,-0.89543 -2,-2 0,-1.10457 0.89543,-2 2,-2 z"/><path style="color:#000;fill:#bebebe;fill-opacity:1;fill-rule:nonzero;stroke:none;stroke-width:2;marker:none;visibility:visible;display:inline;overflow:visible;enable-background:accumulate" id="rect6426" d="m 450,425 c -0.554,0 -1,0.446 -1,1 l 0,1 c 0,0.554 0.446,1 1,1 0.554,0 1,-0.446 1,-1 l 0,-1 c 0,-0.554 -0.446,-1 -1,-1 z m -5,2 0,1 c 0,0.25562 0.0854,0.52288 0.28125,0.71875 l 0.4375,0.40625 c 0.39174,0.39174 1.01451,0.39174 1.40625,0 0.39174,-0.39174 0.39174,-1.01451 0,-1.40625 l -0.40625,-0.4375 C 446.52288,427.08538 446.25562,427 446,427 z m 9,0 c -0.25562,0 -0.52288,0.0854 -0.71875,0.28125 l -0.40625,0.4375 c -0.39174,0.39174 -0.39174,1.01451 0,1.40625 0.39174,0.39174 1.01451,0.39174 1.40625,0 l 0.4375,-0.40625 C 454.91462,428.52288 455,428.25562 455,428 l 0,-1 z m -10,4 c -0.554,0 -1,0.446 -1,1 0,0.554 0.446,1 1,1 l 1,0 c 0.554,0 1,-0.446 1,-1 0,-0.554 -0.446,-1 -1,-1 z m 11,0 c -0.554,0 -1,0.446 -1,1 0,0.554 0.446,1 1,1 l 1,0 c 0.554,0 1,-0.446 1,-1 0,-0.554 -0.446,-1 -1,-1 z m -8.59375,3.59375 c -0.25562,0 -0.49163,0.0854 -0.6875,0.28125 l -0.4375,0.40625 C 445.08538,435.47712 445,435.74438 445,436 l 0,1 1,0 c 0.25562,0 0.52288,-0.11663 0.71875,-0.3125 l 0.40625,-0.40625 c 0.39174,-0.39174 0.39174,-1.01451 0,-1.40625 -0.19587,-0.19587 -0.46313,-0.28125 -0.71875,-0.28125 z m 7.1875,0 c -0.25562,0 -0.52288,0.0854 -0.71875,0.28125 -0.39174,0.39174 -0.39174,1.01451 0,1.40625 l 0.40625,0.40625 c 0.19587,0.19587 0.46428,0.28826 0.71875,0.3125 l 1,0 0,-1 c 0,-0.25562 -0.0854,-0.52288 -0.28125,-0.71875 l -0.4375,-0.40625 c -0.19587,-0.19587 -0.43188,-0.28125 -0.6875,-0.28125 z M 450,436 c -0.554,0 -1,0.446 -1,1 l 0,1 c 0,0.554 0.446,1 1,1 0.554,0 1,-0.446 1,-1 l 0,-1 c 0,-0.554 -0.446,-1 -1,-1 z"/></g></svg>