<svg xmlns="http://www.w3.org/2000/svg" xmlns:svg="http://www.w3.org/2000/svg" xmlns:xlink="http://www.w3.org/1999/xlink" id="svg3495" width="24" height="24" version="1.1"><defs id="defs3497"><linearGradient id="linearGradient3922"><stop id="stop3924" offset="0" style="stop-color:#a0a0a0;stop-opacity:1"/><stop id="stop3926" offset="1" style="stop-color:#cacaca;stop-opacity:1"/></linearGradient><linearGradient id="linearGradient3821"><stop id="stop3823" offset="0" style="stop-color:#f7f7f7;stop-opacity:1"/><stop id="stop3825" offset="1" style="stop-color:#ddd;stop-opacity:1"/></linearGradient><linearGradient id="linearGradient3859" x1="2.5" x2="19.5" y1="11" y2="11" gradientTransform="matrix(0,1,-1,0,23,25)" gradientUnits="userSpaceOnUse" xlink:href="#linearGradient3821"/><linearGradient id="linearGradient3952"><stop id="stop3954" offset="0" style="stop-color:#000;stop-opacity:1"/><stop id="stop3956" offset="1" style="stop-color:#000;stop-opacity:0"/></linearGradient><linearGradient id="linearGradient3944"><stop id="stop3946" offset="0" style="stop-color:#000;stop-opacity:1"/><stop id="stop3948" offset="1" style="stop-color:#000;stop-opacity:0"/></linearGradient><linearGradient id="linearGradient3960"><stop id="stop3962" offset="0" style="stop-color:#000;stop-opacity:0"/><stop style="stop-color:#000;stop-opacity:1" id="stop3970" offset=".5"/><stop id="stop3964" offset="1" style="stop-color:#000;stop-opacity:0"/></linearGradient><linearGradient id="linearGradient3870" x1="25" x2="25" y1="45" y2="42" gradientTransform="translate(-8,1)" gradientUnits="userSpaceOnUse" xlink:href="#linearGradient3960"/><radialGradient id="radialGradient3873" cx="9" cy="43.5" r="2" fx="9" fy="43.5" gradientTransform="matrix(1,0,0,0.75,-4,11.875)" gradientUnits="userSpaceOnUse" xlink:href="#linearGradient3944"/><radialGradient id="radialGradient3876" cx="40" cy="43.5" r="2" fx="40" fy="43.5" gradientTransform="matrix(1,0,0,0.75,-21,11.875)" gradientUnits="userSpaceOnUse" xlink:href="#linearGradient3952"/><linearGradient id="linearGradient3943" x1="12" x2="12" y1="-2" y2="22" gradientTransform="translate(1,0)" gradientUnits="userSpaceOnUse" xlink:href="#linearGradient3922"/></defs><metadata id="metadata3500"/><g id="layer1" transform="translate(0,-24)"><g style="opacity:.3" id="g3878"><path style="opacity:1;fill:url(#radialGradient3876);fill-opacity:1;stroke:none" id="rect3940" d="m 19,43 0,3 0.5,0 C 20.331,46 21,45.331 21,44.5 21,43.669 20.331,43 19.5,43 L 19,43 z"/><path style="opacity:1;fill:url(#radialGradient3873);fill-opacity:1;stroke:none" id="rect3942" d="M 4.40625,43 C 3.6271875,43 3,43.627187 3,44.40625 l 0,0.1875 C 3,45.372813 3.6271875,46 4.40625,46 L 5,46 5,43 4.40625,43 z"/><path style="opacity:1;fill:url(#linearGradient3870);fill-opacity:1;stroke:none" id="rect3938" d="m 5,43 14,0 0,3 -14,0 z"/></g><path id="rect2998" d="m 20.5,30 c 0,-1.376351 -1.123649,-2.5 -2.5,-2.5 l -12,0 c -1.376351,0 -2.5,1.123649 -2.5,2.5 l 0,12 c 0,1.376351 1.123649,2.5 2.5,2.5 l 12,0 c 1.376351,0 2.5,-1.123649 2.5,-2.5 l 0,-12 z" style="color:#000;fill:url(#linearGradient3859);fill-opacity:1;fill-rule:nonzero;stroke:none;stroke-width:4;marker:none;visibility:visible;display:inline;overflow:visible;enable-background:accumulate"/><path style="color:#000;fill:none;stroke:none;stroke-width:4;marker:none;visibility:visible;display:inline;overflow:visible;enable-background:accumulate" id="path3018" d="m 6,28 c -1.108,0 -2,0.892 -2,2 l 0,12 c 0,1.108 0.892,2 2,2 l 12,0 c 1.108,0 2,-0.892 2,-2 l 0,-12 c 0,-1.108 -0.892,-2 -2,-2 z"/><path style="opacity:.41000001;color:#000;fill:none;stroke:#000;stroke-width:1;stroke-miterlimit:4;stroke-opacity:1;stroke-dasharray:none;marker:none;visibility:visible;display:inline;overflow:visible;enable-background:accumulate" id="path3861" d="m 20.5,30 c 0,-1.376351 -1.123649,-2.5 -2.5,-2.5 l -12,0 c -1.376351,0 -2.5,1.123649 -2.5,2.5 l 0,12 c 0,1.376351 1.123649,2.5 2.5,2.5 l 12,0 c 1.376351,0 2.5,-1.123649 2.5,-2.5 l 0,-12 z"/></g><g id="layer2" transform="translate(0,2)"><path style="font-style:normal;font-variant:normal;font-weight:400;font-stretch:normal;text-indent:0;text-align:start;text-decoration:none;line-height:normal;letter-spacing:normal;word-spacing:normal;text-transform:none;direction:ltr;block-progression:tb;writing-mode:lr-tb;text-anchor:start;baseline-shift:baseline;opacity:.4;color:#bebebe;fill:#fff;fill-opacity:1;fill-rule:nonzero;stroke:none;stroke-width:0;marker:none;visibility:visible;display:inline;overflow:visible;enable-background:accumulate;font-family:Sans;-inkscape-font-specification:Sans" id="path3950" d="m 12,5 -6,4 6,4 0,-2 0,0 c 0,0 2.571606,0.873353 2.9375,2 0.437631,1.347538 -1.4375,4 -1.4375,4 0,0 4,-1.5 4,-4.75 C 17.5,9.126479 15.5,7 12.5,7 L 12,7 z"/><path id="path4400-3-3" d="m 12,4 -6,4 6,4 0,-2 0,0 c 0,0 2.571606,0.873353 2.9375,2 0.437631,1.347538 -1.4375,4 -1.4375,4 0,0 4,-1.5 4,-4.75 C 17.5,8.126479 15.5,6 12.5,6 L 12,6 z" style="font-style:normal;font-variant:normal;font-weight:400;font-stretch:normal;text-indent:0;text-align:start;text-decoration:none;line-height:normal;letter-spacing:normal;word-spacing:normal;text-transform:none;direction:ltr;block-progression:tb;writing-mode:lr-tb;text-anchor:start;baseline-shift:baseline;color:#bebebe;fill:url(#linearGradient3943);fill-opacity:1;fill-rule:nonzero;stroke:none;stroke-width:0;marker:none;visibility:visible;display:inline;overflow:visible;enable-background:accumulate;font-family:Sans;-inkscape-font-specification:Sans"/><path id="path3945" d="M 12,4 6,8 6.75,8.5 12,5 z m 0,2 0,1 0.5,0 c 2.864655,0 4.798375,1.949246 4.96875,4.84375 C 17.498047,11.654236 17.5,11.453125 17.5,11.25 17.5,8.126479 15.5,6 12.5,6 z m 2.9375,7 C 14.657179,14.357292 13.5,16 13.5,16 c 0,0 0.338472,-0.150365 0.8125,-0.40625 0.437301,-0.852565 0.853912,-1.888891 0.625,-2.59375 z" style="font-style:normal;font-variant:normal;font-weight:400;font-stretch:normal;text-indent:0;text-align:start;text-decoration:none;line-height:normal;letter-spacing:normal;word-spacing:normal;text-transform:none;direction:ltr;block-progression:tb;writing-mode:lr-tb;text-anchor:start;baseline-shift:baseline;opacity:.1;color:#bebebe;fill:#000;fill-opacity:1;fill-rule:nonzero;stroke:none;stroke-width:0;marker:none;visibility:visible;display:inline;overflow:visible;enable-background:accumulate;font-family:Sans;-inkscape-font-specification:Sans"/></g></svg>