<svg xmlns="http://www.w3.org/2000/svg" xmlns:svg="http://www.w3.org/2000/svg" xmlns:xlink="http://www.w3.org/1999/xlink" id="svg3786" width="48" height="48" version="1.0"><metadata id="metadata39"/><defs id="defs3788"><linearGradient id="linearGradient4097" x1="17.741" x2="11.218" y1="24.05" y2="12.883" gradientTransform="matrix(0.99778,0,0,0.88551429,0.053179,4.2043715)" gradientUnits="userSpaceOnUse"><stop id="stop4099" offset="0" style="stop-color:#acacac;stop-opacity:1"/><stop style="stop-color:#b6b6b6;stop-opacity:1" id="stop4101" offset=".25"/><stop style="stop-color:#d9d9d9;stop-opacity:1" id="stop4103" offset=".25"/><stop id="stop4105" offset="1" style="stop-color:#d4d4d4;stop-opacity:1"/></linearGradient><linearGradient id="linearGradient5060"><stop id="stop5062" offset="0"/><stop style="stop-opacity:0" id="stop5064" offset="1"/></linearGradient><linearGradient id="linearGradient2877" x1="302.86" x2="302.86" y1="366.65" y2="609.51" gradientTransform="matrix(0.076357,0,0,0.020588,-3.5974,32.451)" gradientUnits="userSpaceOnUse"><stop style="stop-opacity:0" id="stop5050" offset="0"/><stop id="stop5056" offset=".5"/><stop style="stop-opacity:0" id="stop5052" offset="1"/></linearGradient><linearGradient id="linearGradient4072" x1="25.25" x2="25.25" y1="39" y2="15" gradientTransform="translate(-0.25,1)" gradientUnits="userSpaceOnUse" xlink:href="#linearGradient4097"/><radialGradient id="radialGradient4075" cx="605.71" cy="486.65" r="117.14" gradientTransform="matrix(-0.044847,0,0,0.020588,32.611,31.451)" gradientUnits="userSpaceOnUse" xlink:href="#linearGradient5060"/><radialGradient id="radialGradient4078" cx="605.71" cy="486.65" r="117.14" gradientTransform="matrix(0.044847,0,0,0.020588,15.389,31.451)" gradientUnits="userSpaceOnUse" xlink:href="#linearGradient5060"/><linearGradient id="linearGradient4081" x1="302.86" x2="302.86" y1="366.65" y2="609.51" gradientTransform="matrix(0.076357,0,0,0.020588,-3.5974,31.451)" gradientUnits="userSpaceOnUse" xlink:href="#linearGradient2877"/></defs><g style="display:inline" id="layer1"><g id="g4092" transform="translate(0,-2)"><rect id="rect2723" width="36.869" height="5" x="5.565" y="39" style="opacity:.3;fill:url(#linearGradient4081)"/><path id="path2725" d="m 42.417,39 v 4.9997 c 2.309,0.009 5.583,-1.12 5.583,-2.5 0,-1.38 -2.577,-2.5 -5.583,-2.5 z" style="opacity:.3;fill:url(#radialGradient4078)"/><path id="path2727" d="m 5.5833,39 v 4.9997 C 3.2738,44.0087 0,42.8797 0,41.4997 c 0,-1.38 2.5773,-2.5 5.5833,-2.5 z" style="opacity:.3;fill:url(#radialGradient4075)"/></g><path id="rect6431" d="m 9.75,12.5 c -0.8098,0 -2.03495,0.167807 -2.21875,0.84375 L 1.25,34 l 1,5.5 43.09375,0 0.90625,-5.53125 -6.78125,-20.625 C 39.30875,12.79595 38.409,12.5 37.75,12.5 z" style="fill:url(#linearGradient4072);fill-opacity:1;fill-rule:evenodd;stroke:none;enable-background:new"/><path style="fill:none;stroke:none;enable-background:new" id="path3856" d="m 10,12.5 c -0.8098,0 -2.03495,0.167807 -2.21875,0.84375 L 1.5,34.46875 46.5,34.5 39.71875,13.34375 C 39.55875,12.79595 38.659,12.5 38,12.5 z m 36.5,22 -45,0 1,6 43.09375,0 z"/><path style="opacity:.41000001;fill:none;stroke:#000;stroke-opacity:1;enable-background:new" id="path3873" d="m 9.75,12.5 c -0.8098,0 -2.03495,0.167807 -2.21875,0.84375 L 1.25,34 l 1,5.5 43.09375,0 0.90625,-5.53125 -6.78125,-20.625 C 39.30875,12.79595 38.409,12.5 37.75,12.5 z"/><rect id="rect3875" width="44" height="1" x="2" y="33" ry=".5" style="opacity:.41000001;fill:#fff;fill-opacity:1;stroke:none"/><path id="path4161" d="M 9.75,13 C 9.3796367,13 8.8882313,13.051396 8.53125,13.15625 8.1742687,13.261104 8.0208424,13.3921 8,13.46875 L 8,13.5 1.78125,34 1.90625,34.625 8,14.5 8,14.46875 C 8.0208424,14.3921 8.1742687,14.261104 8.53125,14.15625 8.8882313,14.051396 9.3796367,14 9.75,14 l 28,0 c 0.254652,0 0.591508,0.07771 0.84375,0.1875 0.252242,0.109788 0.390172,0.226203 0.40625,0.28125 L 39,14.5 45.625,34.625 45.71875,33.96875 39,13.5 39,13.46875 C 38.983922,13.413703 38.845992,13.297288 38.59375,13.1875 38.341508,13.07771 38.004652,13 37.75,13 l -28,0 z" style="opacity:.5;fill:#fff;fill-opacity:1;fill-rule:evenodd;stroke:none;enable-background:new"/><path style="font-size:medium;font-style:normal;font-variant:normal;font-weight:400;font-stretch:normal;text-indent:0;text-align:start;text-decoration:none;line-height:normal;letter-spacing:normal;word-spacing:normal;text-transform:none;direction:ltr;block-progression:tb;writing-mode:lr-tb;text-anchor:start;baseline-shift:baseline;opacity:.40000000000000002;color:#000;fill:#fff;fill-opacity:1;stroke:none;stroke-width:.25;marker:none;visibility:visible;display:inline;overflow:visible;enable-background:accumulate;font-family:Sans;-inkscape-font-specification:Sans" id="path3912" d="m 9.5,14.375 c -0.3436975,0 -0.625,0.281303 -0.625,0.625 0,0.343697 0.2813025,0.625 0.625,0.625 0.3436975,0 0.625,-0.281303 0.625,-0.625 0,-0.343697 -0.2813025,-0.625 -0.625,-0.625 z m 28,0 c -0.343697,0 -0.625,0.281303 -0.625,0.625 0,0.343697 0.281303,0.625 0.625,0.625 0.343697,0 0.625,-0.281303 0.625,-0.625 0,-0.343697 -0.281303,-0.625 -0.625,-0.625 z m -33,17 c -0.3436975,0 -0.625,0.281303 -0.625,0.625 0,0.343697 0.2813025,0.625 0.625,0.625 0.3436975,0 0.625,-0.281303 0.625,-0.625 0,-0.343697 -0.2813025,-0.625 -0.625,-0.625 z m 38,0 c -0.343697,0 -0.625,0.281303 -0.625,0.625 0,0.343697 0.281303,0.625 0.625,0.625 0.343697,0 0.625,-0.281303 0.625,-0.625 0,-0.343697 -0.281303,-0.625 -0.625,-0.625 z"/><path id="path3905" d="M 9.5 13.875 C 9.1563025 13.875 8.875 14.156303 8.875 14.5 C 8.875 14.843697 9.1563025 15.125 9.5 15.125 C 9.8436975 15.125 10.125 14.843697 10.125 14.5 C 10.125 14.156303 9.8436975 13.875 9.5 13.875 z M 37.5 13.875 C 37.156303 13.875 36.875 14.156303 36.875 14.5 C 36.875 14.843697 37.156303 15.125 37.5 15.125 C 37.843697 15.125 38.125 14.843697 38.125 14.5 C 38.125 14.156303 37.843697 13.875 37.5 13.875 z M 4.5 30.875 C 4.1563025 30.875 3.875 31.156303 3.875 31.5 C 3.875 31.843697 4.1563025 32.125 4.5 32.125 C 4.8436975 32.125 5.125 31.843697 5.125 31.5 C 5.125 31.156303 4.8436975 30.875 4.5 30.875 z M 42.5 30.875 C 42.156303 30.875 41.875 31.156303 41.875 31.5 C 41.875 31.843697 42.156303 32.125 42.5 32.125 C 42.843697 32.125 43.125 31.843697 43.125 31.5 C 43.125 31.156303 42.843697 30.875 42.5 30.875 z" style="font-size:medium;font-style:normal;font-variant:normal;font-weight:400;font-stretch:normal;text-indent:0;text-align:start;text-decoration:none;line-height:normal;letter-spacing:normal;word-spacing:normal;text-transform:none;direction:ltr;block-progression:tb;writing-mode:lr-tb;text-anchor:start;baseline-shift:baseline;color:#000;fill:#000;fill-opacity:1;stroke:none;stroke-width:.25;marker:none;visibility:visible;display:inline;overflow:visible;enable-background:accumulate;font-family:Sans;-inkscape-font-specification:Sans;opacity:.4"/></g></svg>