<svg xmlns="http://www.w3.org/2000/svg" xmlns:svg="http://www.w3.org/2000/svg" xmlns:xlink="http://www.w3.org/1999/xlink" id="svg5572" width="48" height="48" version="1.1"><metadata id="metadata33"/><defs id="defs5574"><linearGradient id="linearGradient4596"><stop id="stop4598" offset="0" style="stop-color:#000;stop-opacity:1"/><stop id="stop4600" offset="1" style="stop-color:#000;stop-opacity:0"/></linearGradient><linearGradient id="linearGradient4576"><stop id="stop4578" offset="0" style="stop-color:#b22136;stop-opacity:1"/><stop style="stop-color:#d33b51;stop-opacity:1" id="stop4586" offset=".25"/><stop style="stop-color:#b22136;stop-opacity:1" id="stop4584" offset=".5"/><stop id="stop4580" offset="1" style="stop-color:#981024;stop-opacity:1"/></linearGradient><linearGradient id="linearGradient4080"><stop id="stop4082" offset="0" style="stop-color:#ea3e56;stop-opacity:1"/><stop id="stop4084" offset="1" style="stop-color:#d52d44;stop-opacity:1"/></linearGradient><radialGradient id="radialGradient4086" cx="24.263" cy="20.736" r="6.055" fx="24.263" fy="20.736" gradientTransform="matrix(1,0,0,0.65693432,0,7.825095)" gradientUnits="userSpaceOnUse" xlink:href="#linearGradient4080"/><linearGradient id="linearGradient4582" x1="18" x2="30" y1="26" y2="26" gradientTransform="translate(0.5,9.5000011)" gradientUnits="userSpaceOnUse" xlink:href="#linearGradient4576"/><radialGradient id="radialGradient4602" cx="24" cy="28.744" r="8" fx="24" fy="28.744" gradientTransform="matrix(1,0,0,0.53195626,0,13.453613)" gradientUnits="userSpaceOnUse" xlink:href="#linearGradient4596"/></defs><path id="path4594" d="m 32,28.74435 a 8,4.25565 0 1 1 -16,0 8,4.25565 0 1 1 16,0 z" transform="matrix(1.0625,0,0,1.1174908,-1,7.1228031)" style="opacity:.81000001;fill:url(#radialGradient4602);fill-opacity:1;stroke:none"/><path id="rect4088" d="m 18.5,33.500001 0,5 c 0,1 2.686292,3 6,3 3.313708,0 6,-2 6,-3 l 0,-5 z" style="fill:url(#linearGradient4582);fill-opacity:1;stroke:none"/><path style="opacity:.4;fill:#000;fill-opacity:1;stroke:none" id="path4095" d="m 30.317204,22.80932 a 6.0546017,3.9774756 0 1 1 -12.109204,0 6.0546017,3.9774756 0 1 1 12.109204,0 z" transform="matrix(1.1561454,0,0,1.005663,-3.5510957,9.5615113)"/><path style="opacity:.61;fill:none;stroke:#6e000f;stroke-width:1;stroke-miterlimit:4;stroke-opacity:1;stroke-dasharray:none" id="path4588" d="m 18.5,33.500001 0,5 c 0,1 2.686292,3 6,3 3.313708,0 6,-2 6,-3 l 0,-5 z"/><path id="path4078" d="m 30.317204,22.80932 a 6.0546017,3.9774756 0 1 1 -12.109204,0 6.0546017,3.9774756 0 1 1 12.109204,0 z" transform="matrix(1.1561454,0,0,1.005663,-3.5510957,8.561512)" style="fill:url(#radialGradient4086);fill-opacity:1;stroke:none"/><g id="g4446" transform="translate(0,9.0000011)"><g id="g4403"><rect id="rect4582" width="1" height="1" x="19" y="21" rx=".281" ry=".281" style="opacity:.4;fill:#000;fill-opacity:1;stroke:none"/><rect id="rect4584" width="1" height="1" x="19" y="23" rx=".281" ry=".281" style="opacity:.4;fill:#000;fill-opacity:1;stroke:none;display:inline;enable-background:new"/><rect id="rect4586" width="1" height="1" x="24" y="24" rx=".281" ry=".281" style="opacity:.4;fill:#000;fill-opacity:1;stroke:none;display:inline;enable-background:new"/><rect id="rect4588" width="1" height="1" x="18" y="22" rx=".281" ry=".281" style="opacity:.4;fill:#000;fill-opacity:1;stroke:none;display:inline;enable-background:new"/><rect id="rect4590" width="1" height="1" x="20" y="22" rx=".281" ry=".281" style="opacity:.4;fill:#000;fill-opacity:1;stroke:none;display:inline;enable-background:new"/><rect id="rect4592" width="1" height="1" x="20" y="24" rx=".281" ry=".281" style="opacity:.4;fill:#000;fill-opacity:1;stroke:none;display:inline;enable-background:new"/><rect id="rect4594" width="1" height="1" x="21" y="21" rx=".281" ry=".281" style="opacity:.4;fill:#000;fill-opacity:1;stroke:none;display:inline;enable-background:new"/><rect id="rect4607" width="1" height="1" x="23" y="21" rx=".281" ry=".281" style="opacity:.4;fill:#000;fill-opacity:1;stroke:none"/><rect id="rect4609" width="1" height="1" x="23" y="23" rx=".281" ry=".281" style="opacity:.4;fill:#000;fill-opacity:1;stroke:none;display:inline;enable-background:new"/><rect id="rect4611" width="1" height="1" x="22" y="24" rx=".281" ry=".281" style="opacity:.4;fill:#000;fill-opacity:1;stroke:none;display:inline;enable-background:new"/><rect id="rect4613" width="1" height="1" x="22" y="22" rx=".281" ry=".281" style="opacity:.4;fill:#000;fill-opacity:1;stroke:none;display:inline;enable-background:new"/><rect id="rect4615" width="1" height="1" x="24" y="22" rx=".281" ry=".281" style="opacity:.4;fill:#000;fill-opacity:1;stroke:none;display:inline;enable-background:new"/><rect id="rect4619" width="1" height="1" x="25" y="21" rx=".281" ry=".281" style="opacity:.4;fill:#000;fill-opacity:1;stroke:none;display:inline;enable-background:new"/><rect id="rect4628" width="1" height="1" x="25" y="23" rx=".281" ry=".281" style="opacity:.4;fill:#000;fill-opacity:1;stroke:none;display:inline;enable-background:new"/><rect id="rect4630" width="1" height="1" x="21" y="23" rx=".281" ry=".281" style="opacity:.4;fill:#000;fill-opacity:1;stroke:none;display:inline;enable-background:new"/><rect id="rect4639" width="1" height="1" x="27" y="21" rx=".281" ry=".281" style="opacity:.4;fill:#000;fill-opacity:1;stroke:none;display:inline;enable-background:new"/><rect id="rect4641" width="1" height="1" x="27" y="23" rx=".281" ry=".281" style="opacity:.4;fill:#000;fill-opacity:1;stroke:none;display:inline;enable-background:new"/><rect id="rect4645" width="1" height="1" x="26" y="22" rx=".281" ry=".281" style="opacity:.4;fill:#000;fill-opacity:1;stroke:none;display:inline;enable-background:new"/><rect id="rect4647" width="1" height="1" x="28" y="22" rx=".281" ry=".281" style="opacity:.4;fill:#000;fill-opacity:1;stroke:none;display:inline;enable-background:new"/><rect id="rect4651" width="1" height="1" x="29" y="21" rx=".281" ry=".281" style="opacity:.4;fill:#000;fill-opacity:1;stroke:none;display:inline;enable-background:new"/><rect id="rect4659" width="1" height="1" x="30" y="22" rx=".281" ry=".281" style="opacity:.4;fill:#000;fill-opacity:1;stroke:none;display:inline;enable-background:new"/><rect id="rect4669" width="1" height="1" x="29" y="23" rx=".281" ry=".281" style="opacity:.4;fill:#000;fill-opacity:1;stroke:none;display:inline;enable-background:new"/><rect id="rect3477" width="1" height="1" x="20" y="20" rx=".281" ry=".281" style="opacity:.4;fill:#000;fill-opacity:1;stroke:none"/><rect id="rect3485" width="1" height="1" x="21" y="19" rx=".281" ry=".281" style="opacity:.4;fill:#000;fill-opacity:1;stroke:none;display:inline;enable-background:new"/><rect id="rect3489" width="1" height="1" x="22" y="20" rx=".281" ry=".281" style="opacity:.4;fill:#000;fill-opacity:1;stroke:none;display:inline;enable-background:new"/><rect id="rect3491" width="1" height="1" x="24" y="20" rx=".281" ry=".281" style="opacity:.4;fill:#000;fill-opacity:1;stroke:none"/><rect id="rect3497" width="1" height="1" x="23" y="19" rx=".281" ry=".281" style="opacity:.4;fill:#000;fill-opacity:1;stroke:none;display:inline;enable-background:new"/><rect id="rect3499" width="1" height="1" x="25" y="19" rx=".281" ry=".281" style="opacity:.4;fill:#000;fill-opacity:1;stroke:none;display:inline;enable-background:new"/><rect id="rect3501" width="1" height="1" x="26" y="20" rx=".281" ry=".281" style="opacity:.4;fill:#000;fill-opacity:1;stroke:none;display:inline;enable-background:new"/><rect id="rect3507" width="1" height="1" x="28" y="20" rx=".281" ry=".281" style="opacity:.4;fill:#000;fill-opacity:1;stroke:none;display:inline;enable-background:new"/><rect id="rect3511" width="1" height="1" x="27" y="19" rx=".281" ry=".281" style="opacity:.4;fill:#000;fill-opacity:1;stroke:none;display:inline;enable-background:new"/><rect id="rect3515" width="1" height="1" x="28" y="24" rx=".281" ry=".281" style="opacity:.4;fill:#000;fill-opacity:1;stroke:none;display:inline;enable-background:new"/><rect style="opacity:.4;fill:#000;fill-opacity:1;stroke:none;display:inline;enable-background:new" id="rect4393" width="1" height="1" x="26" y="24" rx=".281" ry=".281"/><rect style="opacity:.4;fill:#000;fill-opacity:1;stroke:none;display:inline;enable-background:new" id="rect4395" width="1" height="1" x="21" y="25" rx=".281" ry=".281"/><rect style="opacity:.4;fill:#000;fill-opacity:1;stroke:none;display:inline;enable-background:new" id="rect4397" width="1" height="1" x="25" y="25" rx=".281" ry=".281"/><rect id="rect4399" width="1" height="1" x="23" y="25" rx=".281" ry=".281" style="opacity:.4;fill:#000;fill-opacity:1;stroke:none;display:inline;enable-background:new"/><rect id="rect4401" width="1" height="1" x="27" y="25" rx=".281" ry=".281" style="opacity:.4;fill:#000;fill-opacity:1;stroke:none;display:inline;enable-background:new"/></g></g><g style="opacity:.2;fill:#fff;fill-opacity:1" id="g4490" transform="translate(0,8.0000011)"><g style="fill:#fff;fill-opacity:1" id="g4492"><rect style="opacity:.4;fill:#fff;fill-opacity:1;stroke:none" id="rect4494" width="1" height="1" x="19" y="21" rx=".281" ry=".281"/><rect style="opacity:.4;fill:#fff;fill-opacity:1;stroke:none;display:inline;enable-background:new" id="rect4496" width="1" height="1" x="19" y="23" rx=".281" ry=".281"/><rect style="opacity:.4;fill:#fff;fill-opacity:1;stroke:none;display:inline;enable-background:new" id="rect4498" width="1" height="1" x="24" y="24" rx=".281" ry=".281"/><rect style="opacity:.4;fill:#fff;fill-opacity:1;stroke:none;display:inline;enable-background:new" id="rect4500" width="1" height="1" x="18" y="22" rx=".281" ry=".281"/><rect style="opacity:.4;fill:#fff;fill-opacity:1;stroke:none;display:inline;enable-background:new" id="rect4502" width="1" height="1" x="20" y="22" rx=".281" ry=".281"/><rect style="opacity:.4;fill:#fff;fill-opacity:1;stroke:none;display:inline;enable-background:new" id="rect4504" width="1" height="1" x="20" y="24" rx=".281" ry=".281"/><rect style="opacity:.4;fill:#fff;fill-opacity:1;stroke:none;display:inline;enable-background:new" id="rect4506" width="1" height="1" x="21" y="21" rx=".281" ry=".281"/><rect style="opacity:.4;fill:#fff;fill-opacity:1;stroke:none" id="rect4508" width="1" height="1" x="23" y="21" rx=".281" ry=".281"/><rect style="opacity:.4;fill:#fff;fill-opacity:1;stroke:none;display:inline;enable-background:new" id="rect4510" width="1" height="1" x="23" y="23" rx=".281" ry=".281"/><rect style="opacity:.4;fill:#fff;fill-opacity:1;stroke:none;display:inline;enable-background:new" id="rect4512" width="1" height="1" x="22" y="24" rx=".281" ry=".281"/><rect style="opacity:.4;fill:#fff;fill-opacity:1;stroke:none;display:inline;enable-background:new" id="rect4514" width="1" height="1" x="22" y="22" rx=".281" ry=".281"/><rect style="opacity:.4;fill:#fff;fill-opacity:1;stroke:none;display:inline;enable-background:new" id="rect4516" width="1" height="1" x="24" y="22" rx=".281" ry=".281"/><rect style="opacity:.4;fill:#fff;fill-opacity:1;stroke:none;display:inline;enable-background:new" id="rect4518" width="1" height="1" x="25" y="21" rx=".281" ry=".281"/><rect style="opacity:.4;fill:#fff;fill-opacity:1;stroke:none;display:inline;enable-background:new" id="rect4520" width="1" height="1" x="25" y="23" rx=".281" ry=".281"/><rect style="opacity:.4;fill:#fff;fill-opacity:1;stroke:none;display:inline;enable-background:new" id="rect4522" width="1" height="1" x="21" y="23" rx=".281" ry=".281"/><rect style="opacity:.4;fill:#fff;fill-opacity:1;stroke:none;display:inline;enable-background:new" id="rect4524" width="1" height="1" x="27" y="21" rx=".281" ry=".281"/><rect style="opacity:.4;fill:#fff;fill-opacity:1;stroke:none;display:inline;enable-background:new" id="rect4526" width="1" height="1" x="27" y="23" rx=".281" ry=".281"/><rect style="opacity:.4;fill:#fff;fill-opacity:1;stroke:none;display:inline;enable-background:new" id="rect4528" width="1" height="1" x="26" y="22" rx=".281" ry=".281"/><rect style="opacity:.4;fill:#fff;fill-opacity:1;stroke:none;display:inline;enable-background:new" id="rect4530" width="1" height="1" x="28" y="22" rx=".281" ry=".281"/><rect style="opacity:.4;fill:#fff;fill-opacity:1;stroke:none;display:inline;enable-background:new" id="rect4532" width="1" height="1" x="29" y="21" rx=".281" ry=".281"/><rect style="opacity:.4;fill:#fff;fill-opacity:1;stroke:none;display:inline;enable-background:new" id="rect4534" width="1" height="1" x="30" y="22" rx=".281" ry=".281"/><rect style="opacity:.4;fill:#fff;fill-opacity:1;stroke:none;display:inline;enable-background:new" id="rect4536" width="1" height="1" x="29" y="23" rx=".281" ry=".281"/><rect style="opacity:.4;fill:#fff;fill-opacity:1;stroke:none" id="rect4538" width="1" height="1" x="20" y="20" rx=".281" ry=".281"/><rect style="opacity:.4;fill:#fff;fill-opacity:1;stroke:none;display:inline;enable-background:new" id="rect4544" width="1" height="1" x="22" y="20" rx=".281" ry=".281"/><rect style="opacity:.4;fill:#fff;fill-opacity:1;stroke:none" id="rect4546" width="1" height="1" x="24" y="20" rx=".281" ry=".281"/><rect style="opacity:.4;fill:#fff;fill-opacity:1;stroke:none;display:inline;enable-background:new" id="rect4552" width="1" height="1" x="26" y="20" rx=".281" ry=".281"/><rect style="opacity:.4;fill:#fff;fill-opacity:1;stroke:none;display:inline;enable-background:new" id="rect4554" width="1" height="1" x="28" y="20" rx=".281" ry=".281"/><rect style="opacity:.4;fill:#fff;fill-opacity:1;stroke:none;display:inline;enable-background:new" id="rect4560" width="1" height="1" x="28" y="24" rx=".281" ry=".281"/><rect id="rect4566" width="1" height="1" x="26" y="24" rx=".281" ry=".281" style="opacity:.4;fill:#fff;fill-opacity:1;stroke:none;display:inline;enable-background:new"/><rect id="rect4568" width="1" height="1" x="21" y="25" rx=".281" ry=".281" style="opacity:.4;fill:#fff;fill-opacity:1;stroke:none;display:inline;enable-background:new"/><rect id="rect4570" width="1" height="1" x="25" y="25" rx=".281" ry=".281" style="opacity:.4;fill:#fff;fill-opacity:1;stroke:none;display:inline;enable-background:new"/><rect style="opacity:.4;fill:#fff;fill-opacity:1;stroke:none;display:inline;enable-background:new" id="rect4572" width="1" height="1" x="23" y="25" rx=".281" ry=".281"/><rect style="opacity:.4;fill:#fff;fill-opacity:1;stroke:none;display:inline;enable-background:new" id="rect4574" width="1" height="1" x="27" y="25" rx=".281" ry=".281"/></g></g><path style="opacity:.61;fill:none;stroke:#6e000f;stroke-width:.92740095;stroke-miterlimit:4;stroke-opacity:1;stroke-dasharray:none" id="path4590" d="m 30.317204,22.80932 a 6.0546017,3.9774756 0 1 1 -12.109204,0 6.0546017,3.9774756 0 1 1 12.109204,0 z" transform="matrix(1.1561454,0,0,1.005663,-3.5510957,8.561512)"/></svg>