<svg xmlns="http://www.w3.org/2000/svg" xmlns:svg="http://www.w3.org/2000/svg" xmlns:xlink="http://www.w3.org/1999/xlink" id="svg3786" width="48" height="48" version="1.0"><metadata id="metadata39"/><defs id="defs3788"><linearGradient id="linearGradient3874"><stop id="stop3876" offset="0" style="stop-color:#000;stop-opacity:1"/><stop id="stop3878" offset="1" style="stop-color:#000;stop-opacity:0"/></linearGradient><linearGradient id="linearGradient3861" x1="17.741" x2="11.218" y1="24.05" y2="12.883" gradientTransform="matrix(0.99778,0,0,0.88551429,0.053179,4.2043715)" gradientUnits="userSpaceOnUse"><stop style="stop-color:#c5c5c5;stop-opacity:1" id="stop3863" offset="0"/><stop id="stop3865" offset=".083" style="stop-color:#cfcfcf;stop-opacity:1"/><stop id="stop3867" offset=".083" style="stop-color:#d9d9d9;stop-opacity:1"/><stop style="stop-color:#d4d4d4;stop-opacity:1" id="stop3869" offset="1"/></linearGradient><radialGradient id="radialGradient3841" cx="14.237" cy="12.595" r="23" gradientTransform="matrix(1.1924,0.53139429,-0.49419,0.81474,3.4847,3.6991715)" gradientUnits="userSpaceOnUse"><stop id="stop3843" offset="0" style="stop-color:#f5f5f5;stop-opacity:1"/><stop id="stop3845" offset="1" style="stop-color:#e1e1e1;stop-opacity:1"/></radialGradient><linearGradient id="linearGradient5060"><stop id="stop5062" offset="0"/><stop style="stop-opacity:0" id="stop5064" offset="1"/></linearGradient><linearGradient id="linearGradient2877" x1="302.86" x2="302.86" y1="366.65" y2="609.51" gradientTransform="matrix(0.076357,0,0,0.020588,-3.5974,32.451)" gradientUnits="userSpaceOnUse"><stop style="stop-opacity:0" id="stop5050" offset="0"/><stop id="stop5056" offset=".5"/><stop style="stop-opacity:0" id="stop5052" offset="1"/></linearGradient><linearGradient id="linearGradient3839" x1="25.5" x2="18.25" y1="33.25" y2="24" gradientUnits="userSpaceOnUse" xlink:href="#radialGradient3841"/><linearGradient id="linearGradient3859" x1="25.25" x2="25.25" y1="39" y2="15" gradientTransform="translate(-0.25,3)" gradientUnits="userSpaceOnUse" xlink:href="#linearGradient3861"/><radialGradient id="radialGradient3891" cx="605.71" cy="486.65" r="117.14" gradientTransform="matrix(-0.044847,0,0,0.020588,32.611,31.451)" gradientUnits="userSpaceOnUse" xlink:href="#linearGradient5060"/><radialGradient id="radialGradient3894" cx="605.71" cy="486.65" r="117.14" gradientTransform="matrix(0.044847,0,0,0.020588,15.389,31.451)" gradientUnits="userSpaceOnUse" xlink:href="#linearGradient5060"/><linearGradient id="linearGradient3897" x1="302.86" x2="302.86" y1="366.65" y2="609.51" gradientTransform="matrix(0.076357,0,0,0.020588,-3.5974,31.451)" gradientUnits="userSpaceOnUse" xlink:href="#linearGradient2877"/><linearGradient id="linearGradient5033" x1="328.628" x2="327.479" y1="74.433" y2="67.362" gradientTransform="matrix(-1,0,0,1,356.87279,-62.181764)" gradientUnits="userSpaceOnUse" xlink:href="#linearGradient3847"/><linearGradient id="linearGradient3847"><stop id="stop3849" offset="0" style="stop-color:#f2f2f2;stop-opacity:1"/><stop id="stop3851" offset="1" style="stop-color:#ebebeb;stop-opacity:0"/></linearGradient><linearGradient id="linearGradient3918" x1="328.628" x2="327.479" y1="74.433" y2="67.362" gradientTransform="matrix(-1,0,0,1,356.87279,-61.181764)" gradientUnits="userSpaceOnUse" xlink:href="#linearGradient6883"/><linearGradient id="linearGradient6883"><stop style="stop-color:#000;stop-opacity:1" id="stop6885" offset="0"/><stop style="stop-color:#000;stop-opacity:0" id="stop6887" offset="1"/></linearGradient><linearGradient id="linearGradient3952-0"><stop id="stop3954-1" offset="0" style="stop-color:#000;stop-opacity:1"/><stop id="stop3956-6" offset="1" style="stop-color:#000;stop-opacity:0"/></linearGradient><linearGradient id="linearGradient3189" x1="328.628" x2="327.479" y1="74.433" y2="67.362" gradientTransform="matrix(-1,0,0,1,356.87279,-62.181764)" gradientUnits="userSpaceOnUse" xlink:href="#linearGradient3952-0"/><linearGradient id="linearGradient3880" x1="22.261" x2="22" y1="19.219" y2="51" gradientUnits="userSpaceOnUse" xlink:href="#linearGradient3874"/></defs><path style="opacity:.41000001;fill:none;stroke:url(#linearGradient3189);stroke-width:3;stroke-linecap:butt;stroke-linejoin:miter;stroke-miterlimit:4;stroke-opacity:1;stroke-dasharray:none;display:inline;enable-background:new" id="path3146" d="m 21.947331,19.283767 c 0,0 3.28582,-2.83484 2.51847,-4.932011 -0.93374,-2.55191 -12.127339,-1.379868 -12.17883,-5.888855 -0.06588,-5.7693784 15.745396,-2.401245 15.40703,-7.888855"/><path style="opacity:.2;fill:none;stroke:url(#linearGradient3918);stroke-width:1;stroke-linecap:butt;stroke-linejoin:miter;stroke-miterlimit:4;stroke-opacity:1;stroke-dasharray:none;display:inline;enable-background:new" id="path6877" d="m 21.947331,20.283767 c 0,0 3.28582,-2.83484 2.51847,-4.932011 -0.93374,-2.55191 -12.127339,-1.379868 -12.17883,-5.888855 -0.06588,-5.7693784 15.745396,-2.401245 15.40703,-7.888855"/><path id="path3590" d="m 21.947331,19.283767 c 0,0 3.28582,-2.83484 2.51847,-4.932011 -0.93374,-2.55191 -12.127339,-1.379868 -12.17883,-5.888855 -0.06588,-5.7693784 15.745396,-2.401245 15.40703,-7.888855" style="fill:none;stroke:url(#linearGradient5033);stroke-width:1;stroke-linecap:butt;stroke-linejoin:miter;stroke-miterlimit:4;stroke-opacity:1;stroke-dasharray:none;display:inline;enable-background:new"/><g id="g3899"><rect id="rect2723" width="36.869" height="5" x="5.565" y="39" style="opacity:.3;fill:url(#linearGradient3897)"/><path id="path2725" d="m 42.417,39 v 4.9997 c 2.309,0.009 5.583,-1.12 5.583,-2.5 0,-1.38 -2.577,-2.5 -5.583,-2.5 z" style="opacity:.3;fill:url(#radialGradient3894)"/><path id="path2727" d="m 5.5833,39 v 4.9997 C 3.2738,44.0087 0,42.8797 0,41.4997 c 0,-1.38 2.5773,-2.5 5.5833,-2.5 z" style="opacity:.3;fill:url(#radialGradient3891)"/></g><path id="rect6431" d="m 9.75,16.5 c -0.8098,0 -2.03495,0.167807 -2.21875,0.84375 L 1.25,40 l 1,1.5 43.09375,0 0.90625,-1.53125 -6.78125,-22.625 C 39.30875,16.79595 38.409,16.5 37.75,16.5 z" style="fill:url(#linearGradient3859);fill-opacity:1;fill-rule:evenodd;stroke:none;enable-background:new"/><path style="fill:#fff;fill-opacity:1;stroke:none" id="path3950" d="m 12,19.5 -4,18 31.5,0 -4,-18 z"/><path id="path3246" d="m 12,20.5 -4,16 31.5,0 -4,-16 z" style="fill:url(#linearGradient3839);stroke:none;stroke-width:.5;stroke-linecap:butt;stroke-linejoin:miter;stroke-miterlimit:4;stroke-opacity:1;stroke-dasharray:none;fill-opacity:1"/><path style="fill:none;stroke:url(#linearGradient3880);stroke-width:1;stroke-linecap:butt;stroke-linejoin:miter;stroke-miterlimit:4;stroke-opacity:1;stroke-dasharray:none;fill-opacity:1;opacity:.29999999999999999" id="path3854" d="m 12,20.5 -4,16 31.5,0 -4,-16 z"/><path style="fill:none;fill-opacity:1;fill-rule:evenodd;stroke:none;stroke-width:.99985999000000003;stroke-linecap:round;stroke-linejoin:round;stroke-opacity:1;enable-background:new" id="path3856" d="M 10 16.5 C 9.1902 16.5 7.96505 16.667807 7.78125 17.34375 L 1.5 40.46875 L 46.5 40.5 L 39.71875 17.34375 C 39.55875 16.79595 38.659 16.5 38 16.5 L 10 16.5 z M 46.5 40.5 L 1.5 40.5 L 2.5 42.5 L 45.59375 42.5 L 46.5 40.5 z"/><path style="fill:none;fill-opacity:1;fill-rule:evenodd;stroke:#000;enable-background:new;stroke-opacity:1;opacity:.41" id="path3873" d="m 9.75,16.5 c -0.8098,0 -2.03495,0.167807 -2.21875,0.84375 L 1.25,40 l 1,1.5 43.09375,0 0.90625,-1.53125 -6.78125,-22.625 C 39.30875,16.79595 38.409,16.5 37.75,16.5 z"/><rect id="rect3875" width="44" height="1" x="2" y="39" ry=".5" style="opacity:.41000001;fill:#fff;fill-opacity:1;stroke:none"/></svg>