<svg xmlns="http://www.w3.org/2000/svg" xmlns:svg="http://www.w3.org/2000/svg" xmlns:xlink="http://www.w3.org/1999/xlink" id="svg3786" width="48" height="48" version="1.0"><metadata id="metadata39"/><defs id="defs3788"><linearGradient id="linearGradient3877"><stop id="stop3879" offset="0" style="stop-color:#fff;stop-opacity:1"/><stop id="stop3881" offset="1" style="stop-color:#fff;stop-opacity:0"/></linearGradient><linearGradient id="linearGradient3861" x1="17.741" x2="11.218" y1="24.05" y2="12.883" gradientTransform="matrix(0.99778,0,0,0.88551429,0.053179,4.2043715)" gradientUnits="userSpaceOnUse"><stop style="stop-color:#c5c5c5;stop-opacity:1" id="stop3863" offset="0"/><stop id="stop3865" offset=".083" style="stop-color:#cfcfcf;stop-opacity:1"/><stop id="stop3867" offset=".083" style="stop-color:#ebebeb;stop-opacity:1"/><stop style="stop-color:#f2f2f2;stop-opacity:1" id="stop3869" offset="1"/></linearGradient><linearGradient id="linearGradient5060"><stop id="stop5062" offset="0"/><stop style="stop-opacity:0" id="stop5064" offset="1"/></linearGradient><linearGradient id="linearGradient2877" x1="302.86" x2="302.86" y1="366.65" y2="609.51" gradientTransform="matrix(0.076357,0,0,0.020588,-3.5974,32.451)" gradientUnits="userSpaceOnUse"><stop style="stop-opacity:0" id="stop5050" offset="0"/><stop id="stop5056" offset=".5"/><stop style="stop-opacity:0" id="stop5052" offset="1"/></linearGradient><linearGradient id="linearGradient3859" x1="25.25" x2="25.25" y1="39" y2="15" gradientTransform="translate(-0.25,3)" gradientUnits="userSpaceOnUse" xlink:href="#linearGradient3861"/><radialGradient id="radialGradient3891" cx="605.71" cy="486.65" r="117.14" gradientTransform="matrix(-0.044847,0,0,0.020588,32.611,31.451)" gradientUnits="userSpaceOnUse" xlink:href="#linearGradient5060"/><radialGradient id="radialGradient3894" cx="605.71" cy="486.65" r="117.14" gradientTransform="matrix(0.044847,0,0,0.020588,15.389,31.451)" gradientUnits="userSpaceOnUse" xlink:href="#linearGradient5060"/><linearGradient id="linearGradient3897" x1="302.86" x2="302.86" y1="366.65" y2="609.51" gradientTransform="matrix(0.076357,0,0,0.020588,-3.5974,31.451)" gradientUnits="userSpaceOnUse" xlink:href="#linearGradient2877"/><linearGradient id="linearGradient3884" x1="7.313" x2="33.313" y1="13" y2="33.75" gradientUnits="userSpaceOnUse" xlink:href="#linearGradient3877"/></defs><path style="fill:url(#linearGradient3884);fill-opacity:1;fill-rule:evenodd;stroke:none;enable-background:new" id="path3864" d="m 7.75,16 c -0.3703633,0 -0.8617687,0.272371 -1.21875,0.377221 -0.3322037,0.09758 -0.462942,0.20154 -0.5,0.28125 L 1.8125,40.75 2.34375,41 l 42.84375,0 0.5,-0.28125 -4.71875,-23.883502 c -0.03206,-0.06364 -0.144955,-0.149873 -0.375,-0.25 C 40.341508,16.475458 40.004652,16 39.75,16 z"/><g id="g3899"><rect id="rect2723" width="36.869" height="5" x="5.565" y="39" style="opacity:.3;fill:url(#linearGradient3897)"/><path id="path2725" d="m 42.417,39 v 4.9997 c 2.309,0.009 5.583,-1.12 5.583,-2.5 0,-1.38 -2.577,-2.5 -5.583,-2.5 z" style="opacity:.3;fill:url(#radialGradient3894)"/><path id="path2727" d="m 5.5833,39 v 4.9997 C 3.2738,44.0087 0,42.8797 0,41.4997 c 0,-1.38 2.5773,-2.5 5.5833,-2.5 z" style="opacity:.3;fill:url(#radialGradient3891)"/></g><path id="rect6431" d="m 7.75,15.5 c -0.8098,0 -1.9686587,0.03522 -2.21875,1.064721 L 1.25,40.999625 2.25,41.5 45.34375,41.5 46.25,40.968375 41.46875,16.741498 C 41.30875,15.972727 40.409,15.5 39.75,15.5 z" style="fill:url(#linearGradient3859);fill-opacity:1;fill-rule:evenodd;stroke:none;enable-background:new"/><path style="fill:none;stroke:none;enable-background:new" id="path3856" d="m 8,15.5 c -0.8098,0 -1.9686587,0.03522 -2.21875,1.064721 L 1.5,41.468375 l 45,0.03125 -4.78125,-24.758127 C 41.580847,15.862241 40.659,15.5 40,15.5 z m 38.5,25.999625 -45,0 1,1.000375 43.09375,0 z"/><path style="opacity:.41000001;fill:none;stroke:#000;stroke-opacity:1;enable-background:new" id="path3873" d="m 7.75,15.5 c -0.8098,0 -1.9686587,0.05732 -2.21875,1.064721 L 1.25,40.999625 2.25,41.5 45.34375,41.5 46.25,40.968375 41.46875,16.741498 C 41.30875,15.972727 40.409,15.5 39.75,15.5 z"/><rect id="rect3875" width="44" height="1" x="2" y="40" ry=".5" style="opacity:.41000001;fill:#fff;fill-opacity:1;stroke:none"/><path id="rect3878" d="M 2 35 L 2 36 L 23 36 L 23 41 L 24 41 L 24 36 L 45 36 L 45 35 L 2 35 z" style="opacity:.2;fill:#000;fill-opacity:1;stroke:none"/><path id="rect3880" d="m 3,36 0,1 20,0 0,-1 z m 21,0 0,1 20.5,0 0,-1 z" style="opacity:.4;fill:#fff;fill-opacity:1;stroke:none"/></svg>