<svg xmlns="http://www.w3.org/2000/svg" xmlns:svg="http://www.w3.org/2000/svg" xmlns:xlink="http://www.w3.org/1999/xlink" id="svg3786" width="48" height="48" version="1.0"><metadata id="metadata39"/><defs id="defs3788"><linearGradient id="linearGradient4217"><stop id="stop4219" offset="0" style="stop-color:#000;stop-opacity:1"/><stop id="stop4221" offset="1" style="stop-color:#000;stop-opacity:0"/></linearGradient><linearGradient id="linearGradient4150"><stop id="stop4152" offset="0" style="stop-color:#fff;stop-opacity:1"/><stop id="stop4154" offset="1" style="stop-color:#fff;stop-opacity:0"/></linearGradient><linearGradient id="linearGradient4022"><stop style="stop-color:#000;stop-opacity:1" id="stop4024" offset="0"/><stop id="stop4026" offset=".2" style="stop-color:#000;stop-opacity:.19607843"/><stop id="stop4028" offset=".8" style="stop-color:#000;stop-opacity:0"/><stop style="stop-color:#000;stop-opacity:1" id="stop4031" offset="1"/></linearGradient><linearGradient id="linearGradient3996"><stop id="stop3998" offset="0" style="stop-color:#000;stop-opacity:1"/><stop style="stop-color:#000;stop-opacity:.19607843" id="stop4006" offset=".2"/><stop style="stop-color:#000;stop-opacity:0" id="stop4004" offset=".8"/><stop id="stop4000" offset="1" style="stop-color:#000;stop-opacity:0"/></linearGradient><linearGradient id="linearGradient3984" x1="17.741" x2="11.218" y1="24.05" y2="12.883" gradientTransform="matrix(0.99778,0,0,0.88551429,0.053179,4.2043715)" gradientUnits="userSpaceOnUse"><stop style="stop-color:#212121;stop-opacity:1" id="stop3986" offset="0"/><stop id="stop3988" offset=".292" style="stop-color:#232323;stop-opacity:1"/><stop id="stop3990" offset=".292" style="stop-color:#464646;stop-opacity:1"/><stop style="stop-color:#2d2d2d;stop-opacity:1" id="stop3992" offset="1"/></linearGradient><linearGradient id="linearGradient3956"><stop id="stop3958" offset="0" style="stop-color:#141414;stop-opacity:1"/><stop id="stop3960" offset="1" style="stop-color:#555;stop-opacity:1"/></linearGradient><linearGradient id="linearGradient3888" x1="17.741" x2="11.218" y1="24.05" y2="12.883" gradientTransform="matrix(0.99778,0,0,0.88551429,0.053179,4.2043715)" gradientUnits="userSpaceOnUse"><stop style="stop-color:#212121;stop-opacity:1" id="stop3890" offset="0"/><stop id="stop3892" offset=".25" style="stop-color:#232323;stop-opacity:1"/><stop id="stop3894" offset=".25" style="stop-color:#2d2d2d;stop-opacity:1"/><stop style="stop-color:#4e4e4e;stop-opacity:1" id="stop3896" offset="1"/></linearGradient><linearGradient id="linearGradient5060"><stop id="stop5062" offset="0"/><stop style="stop-opacity:0" id="stop5064" offset="1"/></linearGradient><linearGradient id="linearGradient2877" x1="302.86" x2="302.86" y1="366.65" y2="609.51" gradientTransform="matrix(0.076357,0,0,0.020588,-3.5974,32.451)" gradientUnits="userSpaceOnUse"><stop style="stop-opacity:0" id="stop5050" offset="0"/><stop id="stop5056" offset=".5"/><stop style="stop-opacity:0" id="stop5052" offset="1"/></linearGradient><radialGradient id="radialGradient4075" cx="605.71" cy="486.65" r="117.14" gradientTransform="matrix(-0.044847,0,0,0.020588,32.611,31.451)" gradientUnits="userSpaceOnUse" xlink:href="#linearGradient5060"/><radialGradient id="radialGradient4078" cx="605.71" cy="486.65" r="117.14" gradientTransform="matrix(0.044847,0,0,0.020588,15.389,31.451)" gradientUnits="userSpaceOnUse" xlink:href="#linearGradient5060"/><linearGradient id="linearGradient3115" x1="25.25" x2="25.25" y1="39" y2="15" gradientTransform="translate(-0.25,5)" gradientUnits="userSpaceOnUse" xlink:href="#linearGradient3984"/><linearGradient id="linearGradient3886" x1="25.25" x2="25.25" y1="39" y2="15" gradientTransform="translate(-0.25,5)" gradientUnits="userSpaceOnUse" xlink:href="#linearGradient3888"/><linearGradient id="linearGradient3982" x1="302.86" x2="302.86" y1="366.65" y2="609.51" gradientTransform="matrix(0.076357,0,0,0.020588,-3.5974,31.451)" gradientUnits="userSpaceOnUse" xlink:href="#linearGradient2877"/><linearGradient id="linearGradient4020" x1=".551" x2="46.342" y1="38.75" y2="38.75" gradientUnits="userSpaceOnUse" xlink:href="#linearGradient4022"/><linearGradient id="linearGradient4064" x1="7" x2="11.503" y1="11" y2="9.358" gradientTransform="matrix(-1,0,0,1,47.008626,4)" gradientUnits="userSpaceOnUse" xlink:href="#linearGradient3956"/><linearGradient id="linearGradient4066" x1="7" x2="11.503" y1="11" y2="9.358" gradientTransform="translate(0,4)" gradientUnits="userSpaceOnUse" xlink:href="#linearGradient3956"/><linearGradient id="linearGradient3847-9"><stop id="stop3849-3" offset="0" style="stop-color:#222;stop-opacity:1"/><stop id="stop3851-4" offset="1" style="stop-color:#1e1e1e;stop-opacity:0"/></linearGradient><linearGradient id="linearGradient4143" x1="0" x2="45.884" y1="28" y2="33.657" gradientUnits="userSpaceOnUse" xlink:href="#linearGradient3996"/><linearGradient id="linearGradient4146" x1="0" x2="45.884" y1="28" y2="33.657" gradientTransform="matrix(-1,0,0,1,46.881,0)" gradientUnits="userSpaceOnUse" xlink:href="#linearGradient3996"/><linearGradient id="linearGradient4161" x1="31.18" x2="21.052" y1="41.751" y2="8.685" gradientUnits="userSpaceOnUse" xlink:href="#linearGradient4150"/><linearGradient id="linearGradient4190" x1="328.628" x2="327.479" y1="74.433" y2="67.362" gradientTransform="translate(-314.17816,-57.880952)" gradientUnits="userSpaceOnUse" xlink:href="#linearGradient3847-9"/><linearGradient id="linearGradient4227" x1="20" x2="20" y1="39" y2="43" gradientTransform="translate(4,0)" gradientUnits="userSpaceOnUse" xlink:href="#linearGradient4217"/><linearGradient id="linearGradient4231" x1="20" x2="20" y1="39" y2="43" gradientTransform="translate(8,0)" gradientUnits="userSpaceOnUse" xlink:href="#linearGradient4217"/><linearGradient id="linearGradient4235" x1="20" x2="20" y1="39" y2="43" gradientTransform="translate(12,0)" gradientUnits="userSpaceOnUse" xlink:href="#linearGradient4217"/><linearGradient id="linearGradient4239" x1="20" x2="20" y1="39" y2="43" gradientTransform="translate(16,0)" gradientUnits="userSpaceOnUse" xlink:href="#linearGradient4217"/><linearGradient id="linearGradient4243" x1="20" x2="20" y1="39" y2="43" gradientTransform="translate(20,0)" gradientUnits="userSpaceOnUse" xlink:href="#linearGradient4217"/></defs><g style="display:inline" id="layer1"><path id="path3590" d="m 18.972272,22.762563 c 0,0 -1.510793,-2.012824 -0.743443,-4.109995 0.93374,-2.55191 12.127339,-1.379868 12.17883,-5.888855 0.06588,-5.7693784 -15.745396,-2.401245 -15.40703,-7.888855" style="fill:none;stroke:url(#linearGradient4190);stroke-width:1;stroke-linecap:butt;stroke-linejoin:miter;stroke-miterlimit:4;stroke-opacity:1;stroke-dasharray:none;display:inline;enable-background:new"/><g id="g4060" transform="translate(-2,2)"><path id="path3964" d="m 42.571126,-1.03125 c 0.04228,0.00772 0.08406,0.018162 0.125,0.03125 0.560459,0.1105998 0.939255,0.7734924 0.75,1.3125 l -3.09375,9.96875 c 1.08e-4,0.01042 1.08e-4,0.02083 0,0.03125 0.174344,0.344157 0.208725,0.756733 0.09375,1.125 l -4,13 c -0.229379,0.752317 -1.122348,1.228278 -1.87478,0.999277 -0.752432,-0.229001 -1.228843,-1.12173 -1.00022,-1.874277 l 4,-13 c 0.119766,-0.426009 0.438215,-0.7916357 0.84375,-0.96875 l 0.03125,0 3.0625,-9.90625 c 0.128201,-0.4461394 0.600694,-0.765767 1.0625,-0.71875 z" style="font-size:medium;font-style:normal;font-variant:normal;font-weight:400;font-stretch:normal;text-indent:0;text-align:start;text-decoration:none;line-height:normal;letter-spacing:normal;word-spacing:normal;text-transform:none;direction:ltr;block-progression:tb;writing-mode:lr-tb;text-anchor:start;baseline-shift:baseline;color:#000;fill:url(#linearGradient4064);fill-opacity:1;stroke:none;stroke-width:3;marker:none;visibility:visible;display:inline;overflow:visible;enable-background:accumulate;font-family:Sans;-inkscape-font-specification:Sans"/><path style="font-size:medium;font-style:normal;font-variant:normal;font-weight:400;font-stretch:normal;text-indent:0;text-align:start;text-decoration:none;line-height:normal;letter-spacing:normal;word-spacing:normal;text-transform:none;direction:ltr;block-progression:tb;writing-mode:lr-tb;text-anchor:start;baseline-shift:baseline;opacity:.81000001;color:#000;fill:none;stroke:#000;stroke-width:1;stroke-miterlimit:4;stroke-opacity:1;stroke-dasharray:none;marker:none;visibility:visible;display:inline;overflow:visible;enable-background:accumulate;font-family:Sans;-inkscape-font-specification:Sans" id="path3968" d="m 42.571126,-1.03125 c 0.04228,0.00772 0.08406,0.018162 0.125,0.03125 0.560459,0.1105998 0.939255,0.7734924 0.75,1.3125 l -3.09375,9.96875 c 1.08e-4,0.01042 1.08e-4,0.02083 0,0.03125 0.174344,0.344157 0.208725,0.756733 0.09375,1.125 l -4,13 c -0.229379,0.752317 -1.122348,1.228278 -1.87478,0.999277 -0.752432,-0.229001 -1.228843,-1.12173 -1.00022,-1.874277 l 4,-13 c 0.119766,-0.426009 0.438215,-0.7916357 0.84375,-0.96875 l 0.03125,0 3.0625,-9.90625 c 0.128201,-0.4461394 0.600694,-0.765767 1.0625,-0.71875 z"/></g><g id="g4092"><path id="rect2723" d="m 5.5653,39 36.868999,0 0,5 L 5.5653,44 z" style="opacity:.3;fill:url(#linearGradient3982)"/><path id="path2725" d="m 42.417,39 v 4.9997 c 2.309,0.009 5.583,-1.12 5.583,-2.5 0,-1.38 -2.577,-2.5 -5.583,-2.5 z" style="opacity:.3;fill:url(#radialGradient4078)"/><path id="path2727" d="m 5.5833,39 v 4.9997 C 3.2738,44.0087 0,42.8797 0,41.4997 c 0,-1.38 2.5773,-2.5 5.5833,-2.5 z" style="opacity:.3;fill:url(#radialGradient4075)"/></g><path id="rect6431" d="m 2.25,36 c -2.25,0 -2.27948908,5.496343 0,5.5 l 42.094,0 C 47.046875,41.5 47,36 44.25,36 z" style="fill:url(#linearGradient3115);fill-opacity:1;fill-rule:evenodd;stroke:none;enable-background:new"/><path style="opacity:.4;fill:url(#linearGradient4020);fill-opacity:1;fill-rule:evenodd;stroke:none;enable-background:new" id="path4012" d="m 2.25,36 c -2.25,0 -2.27948908,5.496343 0,5.5 l 42.094,0 C 47.046875,41.5 47,36 44.25,36 z"/><g id="g4056" transform="translate(2,2)"><path style="font-size:medium;font-style:normal;font-variant:normal;font-weight:400;font-stretch:normal;text-indent:0;text-align:start;text-decoration:none;line-height:normal;letter-spacing:normal;word-spacing:normal;text-transform:none;direction:ltr;block-progression:tb;writing-mode:lr-tb;text-anchor:start;baseline-shift:baseline;color:#000;fill:url(#linearGradient4066);fill-opacity:1;stroke:none;stroke-width:3;marker:none;visibility:visible;display:inline;overflow:visible;enable-background:accumulate;font-family:Sans;-inkscape-font-specification:Sans" id="path3935" d="M 4.4375,-1.03125 C 4.39522,-1.02353 4.353438,-1.013088 4.3125,-1 3.752041,-0.8894002 3.3732453,-0.2265076 3.5625,0.3125 l 3.09375,9.96875 c -1.085e-4,0.01042 -1.085e-4,0.02083 0,0.03125 -0.1743438,0.344157 -0.2087252,0.756733 -0.09375,1.125 l 4,13 c 0.229074,0.752673 1.122327,1.229074 1.875,0.999999 0.752673,-0.229074 1.229074,-1.122326 1,-1.874999 l -4,-13 C 9.3177336,10.136491 8.9992849,9.7708643 8.59375,9.59375 l -0.03125,0 L 5.5,-0.3125 C 5.3717994,-0.7586394 4.8993064,-1.078267 4.4375,-1.03125 z"/><path id="path3970" d="M 4.4375,-1.03125 C 4.39522,-1.02353 4.353438,-1.013088 4.3125,-1 3.752041,-0.8894002 3.3732453,-0.2265076 3.5625,0.3125 l 3.09375,9.96875 c -1.085e-4,0.01042 -1.085e-4,0.02083 0,0.03125 -0.1743438,0.344157 -0.2087252,0.756733 -0.09375,1.125 l 4,13 c 0.229074,0.752673 1.122327,1.229074 1.875,0.999999 0.752673,-0.229074 1.229074,-1.122326 1,-1.874999 l -4,-13 C 9.3177336,10.136491 8.9992849,9.7708643 8.59375,9.59375 l -0.03125,0 L 5.5,-0.3125 C 5.3717994,-0.7586394 4.8993064,-1.078267 4.4375,-1.03125 z" style="font-size:medium;font-style:normal;font-variant:normal;font-weight:400;font-stretch:normal;text-indent:0;text-align:start;text-decoration:none;line-height:normal;letter-spacing:normal;word-spacing:normal;text-transform:none;direction:ltr;block-progression:tb;writing-mode:lr-tb;text-anchor:start;baseline-shift:baseline;opacity:.81000001;color:#000;fill:none;stroke:#000;stroke-width:1;stroke-miterlimit:4;stroke-opacity:1;stroke-dasharray:none;marker:none;visibility:visible;display:inline;overflow:visible;enable-background:accumulate;font-family:Sans;-inkscape-font-specification:Sans"/></g><path style="fill:none;stroke:none;enable-background:new" id="path3856" d="m 10,16.5 c -0.8098,0 -2.03495,0.167807 -2.21875,0.84375 L 1.5,36.46875 46.5,36.5 39.71875,17.34375 C 39.55875,16.79595 38.659,16.5 38,16.5 z m 36.5,20 -45,0 1,6 43.09375,0 z"/><path id="path3106" d="M 7.75,20.5 C 6.9402,20.5 5,20.51901 4.531,22.344 l -3.4,14.367 44.619,-0.01138 0,-0.03125 -4.28125,-14.710562 C 41.30875,21.410008 40.409,20.5 39.75,20.5 z" style="fill:url(#linearGradient3886);fill-opacity:1;fill-rule:evenodd;stroke:none;enable-background:new"/><g id="g4209"><path id="path4203" d="m 36.441,29.105 c -1.559393,0 -2.978084,0.470485 -4,1.239583 l 0.671875,0.509115 c 0.851597,-0.640916 2.028632,-1.040365 3.328125,-1.040365 1.299493,0 2.476527,0.399449 3.328125,1.040365 L 40.441,30.344583 C 39.419083,29.575485 38.000392,29.105 36.441,29.105 z m 0,1.0625 c -1.169544,0 -2.233562,0.352863 -3,0.929687 l 0.671875,0.509115 c 0.596118,-0.448641 1.418479,-0.730469 2.328125,-0.730469 0.909645,0 1.732007,0.281828 2.328125,0.730469 L 39.441,31.097187 c -0.766438,-0.576824 -1.830456,-0.929687 -3,-0.929687 z m 0,1.0625 c -0.779696,0 -1.489042,0.235243 -2,0.619792 l 0.65625,0.498046 c 0.340639,-0.256366 0.823952,-0.409505 1.34375,-0.409505 0.519797,0 1.003111,0.153139 1.34375,0.409505 L 38.441,31.849792 C 37.930042,31.465243 37.220696,31.23 36.441,31.23 z m 0,1.0625 c -0.389848,0 -0.744521,0.117621 -1,0.309896 l 1,0.752604 1,-0.752604 c -0.255479,-0.192275 -0.610152,-0.309896 -1,-0.309896 z" style="opacity:.4;color:#000;fill:#000;fill-opacity:1;fill-rule:nonzero;stroke:none;stroke-width:1.5;marker:none;visibility:visible;display:inline;overflow:visible;enable-background:accumulate"/><path style="opacity:.4;color:#000;fill:#fff;fill-opacity:1;fill-rule:nonzero;stroke:none;stroke-width:1.5;marker:none;visibility:visible;display:inline;overflow:visible;enable-background:accumulate" id="path3909" d="m 36.441,29.605 c -1.559393,0 -2.978084,0.470485 -4,1.239583 l 0.671875,0.509115 c 0.851597,-0.640916 2.028632,-1.040365 3.328125,-1.040365 1.299493,0 2.476527,0.399449 3.328125,1.040365 L 40.441,30.844583 C 39.419083,30.075485 38.000392,29.605 36.441,29.605 z m 0,1.0625 c -1.169544,0 -2.233562,0.352863 -3,0.929687 l 0.671875,0.509115 c 0.596118,-0.448641 1.418479,-0.730469 2.328125,-0.730469 0.909645,0 1.732007,0.281828 2.328125,0.730469 L 39.441,31.597187 c -0.766438,-0.576824 -1.830456,-0.929687 -3,-0.929687 z m 0,1.0625 c -0.779696,0 -1.489042,0.235243 -2,0.619792 l 0.65625,0.498046 c 0.340639,-0.256366 0.823952,-0.409505 1.34375,-0.409505 0.519797,0 1.003111,0.153139 1.34375,0.409505 L 38.441,32.349792 C 37.930042,31.965243 37.220696,31.73 36.441,31.73 z m 0,1.0625 c -0.389848,0 -0.744521,0.117621 -1,0.309896 l 1,0.752604 1,-0.752604 c -0.255479,-0.192275 -0.610152,-0.309896 -1,-0.309896 z"/></g><path id="path4008" d="m 39.131,20.5 c 0.8098,0 2.03495,1.060982 2.21875,1.736925 L 45.75,36.711 1.131,36.69962 l 0,-0.03125 4.28125,-15.32462 C 5.57225,20.79595 6.472,20.5 7.131,20.5 z" style="fill:url(#linearGradient4146);fill-opacity:1;fill-rule:evenodd;stroke:none;enable-background:new"/><path style="fill:url(#linearGradient4143);fill-opacity:1;fill-rule:evenodd;stroke:none;enable-background:new" id="path3994" d="m 7.75,20.5 c -0.8098,0 -3.0352,1.168057 -3.219,1.844 l -3.4,14.367 44.619,-0.01138 0,-0.03125 -4.28125,-14.543092 C 41.30875,21.577478 40.409,20.5 39.75,20.5 z"/><path id="path4148" d="m 7.75,20.5 c -0.8098,0 -3.03495,1.167807 -3.21875,1.84375 l -3.40625,14.375 13.9375,0 C 22.583864,30.138776 26.920194,26.308291 32.8125,21.125 32.47897,20.772054 32.09003,20.5 31.75,20.5 z" style="opacity:.10000000000000001;fill:url(#linearGradient4161);fill-opacity:1;fill-rule:evenodd;stroke:none;enable-background:new"/><path id="path3898" d="m 7.75,20.5 c -0.8098,0 -2.8142291,-0.02519 -3.219,1.844 L 1.15625,36.59375 C 0.08959656,38.014944 0.43564991,41.497089 2.25,41.5 l 42.09375,0 c 2.111621,0 2.535275,-3.343842 1.3125,-4.8125 l 0.09375,0 0,-0.03125 -4.28125,-14.530972 C 41.30875,21.577478 40.409,20.5 39.75,20.5 z" style="opacity:.81000001;fill:none;stroke:#000;stroke-opacity:1;enable-background:new"/><path id="rect3905" d="m 2.5,36 42,0 c 0.277,0 0.5,0.223 0.5,0.5 0,0.277 -0.223,0.5 -0.5,0.5 l -42,0 C 2.223,37 2,36.777 2,36.5 2,36.223 2.223,36 2.5,36 z" style="opacity:.2;fill:#fff;fill-opacity:1;stroke:none"/><path id="rect3907" d="m 1.5,37 44,0 c 0.277,0 0.5,0.223 0.5,0.5 0,0.277 -0.223,0.5 -0.5,0.5 l -44,0 C 1.223,38 1,37.777 1,37.5 1,37.223 1.223,37 1.5,37 z" style="opacity:.4;fill:#000;fill-opacity:1;stroke:none"/><path id="rect3909" d="m 4,38 1,0 0,1 -1,0 z" style="opacity:.8;fill:#0f0;fill-opacity:1;stroke:#0f0;stroke-width:.5;stroke-miterlimit:4;stroke-opacity:.44059406"/><path id="rect3911" d="m 6,38 1,0 0,1 -1,0 z" style="opacity:.79661016;fill:#ffbf00;fill-opacity:1;stroke:#ffbf00;stroke-width:.5;stroke-miterlimit:4;stroke-opacity:.65346524"/><path id="rect3913" d="m 8,38 1,0 0,1 -1,0 z" style="opacity:.8;fill:#0f0;fill-opacity:1;stroke:#0f0;stroke-width:.5;stroke-miterlimit:4;stroke-opacity:.44059406"/><path id="rect3915" d="m 10,38 1,0 0,1 -1,0 z" style="opacity:.8;fill:#0f0;fill-opacity:1;stroke:#0f0;stroke-width:.5;stroke-miterlimit:4;stroke-opacity:.44059406"/><path id="rect3917" d="m 12,38 1,0 0,1 -1,0 z" style="opacity:.5;fill:#000;fill-opacity:1;stroke:none"/><path id="rect3919" d="m 14,38 1,0 0,1 -1,0 z" style="opacity:.8;fill:#0f0;fill-opacity:1;stroke:#0f0;stroke-width:.5;stroke-miterlimit:4;stroke-opacity:.44059406"/><path id="rect3921" d="m 16,38 1,0 0,1 -1,0 z" style="opacity:.8;fill:#0f0;fill-opacity:1;stroke:#0f0;stroke-width:.5;stroke-miterlimit:4;stroke-opacity:.44059406"/><path id="path4163" d="M 8.9272231,12.42369 10.385631,11.937554" style="fill:none;stroke:#000;stroke-width:1px;stroke-linecap:butt;stroke-linejoin:miter;stroke-opacity:1;opacity:.85"/><path style="opacity:.85;fill:none;stroke:#000;stroke-width:1px;stroke-linecap:butt;stroke-linejoin:miter;stroke-opacity:1;display:inline" id="path4165" d="M 37.940698,12.401593 36.48229,11.915457"/><rect style="opacity:.4;fill:url(#linearGradient4227);fill-opacity:1;stroke:none" id="rect4225" width="1" height="3" x="23" y="38"/><rect id="rect4229" width="1" height="3" x="27" y="38" style="opacity:.4;fill:url(#linearGradient4231);fill-opacity:1;stroke:none"/><rect style="opacity:.4;fill:url(#linearGradient4235);fill-opacity:1;stroke:none" id="rect4233" width="1" height="3" x="31" y="38"/><rect id="rect4237" width="1" height="3" x="35" y="38" style="opacity:.4;fill:url(#linearGradient4239);fill-opacity:1;stroke:none"/><rect style="opacity:.4;fill:url(#linearGradient4243);fill-opacity:1;stroke:none" id="rect4241" width="1" height="3" x="39" y="38"/></g></svg>