<svg xmlns="http://www.w3.org/2000/svg" xmlns:svg="http://www.w3.org/2000/svg" xmlns:xlink="http://www.w3.org/1999/xlink" id="svg5014" width="48" height="48" version="1.1"><defs id="defs5016"><linearGradient id="linearGradient3919"><stop id="stop3921" offset="0" style="stop-color:#fff;stop-opacity:1"/><stop id="stop3923" offset="1" style="stop-color:#000;stop-opacity:1"/></linearGradient><linearGradient id="linearGradient3977"><stop id="stop3979" offset="0" style="stop-color:#fff;stop-opacity:1"/><stop id="stop3981" offset="1" style="stop-color:#004fff;stop-opacity:1"/></linearGradient><linearGradient id="linearGradient3930"><stop id="stop3932" offset="0" style="stop-color:#d7d7d7;stop-opacity:1"/><stop style="stop-color:#c5c5c5;stop-opacity:1" id="stop3934" offset=".751"/><stop style="stop-color:#b6b6b6;stop-opacity:1" id="stop3936" offset=".753"/><stop id="stop3938" offset="1" style="stop-color:#9b9b9b;stop-opacity:1"/></linearGradient><linearGradient id="linearGradient4235"><stop style="stop-color:#fff;stop-opacity:1" id="stop4237" offset="0"/><stop style="stop-color:#fff;stop-opacity:0" id="stop4239" offset="1"/></linearGradient><linearGradient id="linearGradient3591"><stop style="stop-color:#232323;stop-opacity:1" id="stop3593" offset="0"/><stop id="stop3595" offset=".758" style="stop-color:#535353;stop-opacity:1"/><stop id="stop3597" offset=".758" style="stop-color:#676767;stop-opacity:1"/><stop style="stop-color:#676767;stop-opacity:1" id="stop3599" offset="1"/></linearGradient><linearGradient id="linearGradient3129" x1="10.363" x2="10.421" y1="19" y2="5.292" gradientTransform="matrix(1.5254237,0,0,1.5254237,1.1975675,-7.0029686)" gradientUnits="userSpaceOnUse" xlink:href="#linearGradient3591"/><radialGradient id="radialGradient3161" cx="4.672" cy="19" r="1" fx="4.672" fy="19" gradientTransform="matrix(-5.9999994e-7,-1.7924659,2.0966214,-7.0181121e-7,-29.820178,19.867301)" gradientUnits="userSpaceOnUse" xlink:href="#linearGradient3977"/><linearGradient id="linearGradient3988-5-57"><stop style="stop-color:#a7a7a7;stop-opacity:1" id="stop3990-5-0" offset="0"/><stop id="stop4243" offset=".5" style="stop-color:#e6e6e6;stop-opacity:1"/><stop style="stop-color:#f2f2f2;stop-opacity:1" id="stop3992-0-5" offset="1"/></linearGradient><linearGradient id="linearGradient3960-3"><stop style="stop-color:#000;stop-opacity:0" id="stop3962-1" offset="0"/><stop id="stop3970-3" offset=".5" style="stop-color:#000;stop-opacity:1"/><stop style="stop-color:#000;stop-opacity:0" id="stop3964-2" offset="1"/></linearGradient><linearGradient id="linearGradient3952-0"><stop style="stop-color:#000;stop-opacity:1" id="stop3954-1" offset="0"/><stop style="stop-color:#000;stop-opacity:0" id="stop3956-6" offset="1"/></linearGradient><linearGradient id="linearGradient3944-3"><stop style="stop-color:#000;stop-opacity:1" id="stop3946-5" offset="0"/><stop style="stop-color:#000;stop-opacity:0" id="stop3948-5" offset="1"/></linearGradient><linearGradient id="linearGradient3940" x1="10.359" x2="10.421" y1="18.358" y2="5.292" gradientTransform="matrix(1.5254237,0,0,1.5254237,1.1975675,-7.0029686)" gradientUnits="userSpaceOnUse" xlink:href="#linearGradient3930"/><radialGradient id="radialGradient3961" cx="4.672" cy="19" r="1" fx="4.672" fy="19" gradientTransform="matrix(-5.9999994e-7,-1.7924659,2.0966214,-7.0181121e-7,-29.820178,19.867301)" gradientUnits="userSpaceOnUse" xlink:href="#linearGradient3919"/><radialGradient id="radialGradient3969" cx="4.672" cy="19" r="1" fx="4.672" fy="19" gradientTransform="matrix(-5.9999994e-7,-1.7924659,2.0966214,-7.0181121e-7,-29.820178,19.867301)" gradientUnits="userSpaceOnUse" xlink:href="#linearGradient3919"/><linearGradient id="linearGradient3998" x1="138.286" x2="138.286" y1="165.714" y2="74.286" gradientTransform="matrix(-0.175,0,0,0.175,52.20002,-19.000034)" gradientUnits="userSpaceOnUse" xlink:href="#linearGradient3988-5-57"/><radialGradient id="radialGradient3339" cx="1120.375" cy="394.781" r="20.625" fx="1120.375" fy="394.781" gradientTransform="matrix(1.0181815,0,0,0.14545458,-1116.4951,-12.422309)" gradientUnits="userSpaceOnUse" xlink:href="#linearGradient10997"/><linearGradient id="linearGradient10997"><stop id="stop10999" offset="0" style="stop-color:#000;stop-opacity:1"/><stop id="stop11001" offset="1" style="stop-color:#000;stop-opacity:0"/></linearGradient><linearGradient id="linearGradient3480" x1=".612" x2="5.086" y1="372.578" y2="372.578" gradientTransform="matrix(9.3885424,0,0,0.2235366,29.130395,-51.784906)" gradientUnits="userSpaceOnUse" xlink:href="#linearGradient272-6"/><linearGradient id="linearGradient272-6"><stop id="stop273-1" offset="0" style="stop-color:#474747;stop-opacity:0"/><stop id="stop275-8" offset=".1" style="stop-color:#474747;stop-opacity:1"/><stop id="stop276-3" offset=".9" style="stop-color:#474747;stop-opacity:1"/><stop id="stop274-5" offset="1" style="stop-color:#474747;stop-opacity:0"/></linearGradient><linearGradient id="linearGradient3482" x1=".612" x2="5.086" y1="372.578" y2="372.578" gradientTransform="matrix(9.3885418,0,0,0.2235361,29.130383,-45.865211)" gradientUnits="userSpaceOnUse" xlink:href="#linearGradient272-6"/><linearGradient id="linearGradient3484" x1="1.642" x2="15.343" y1="117.827" y2="117.827" gradientTransform="matrix(3.1119049,0,0,0.09123576,28.948795,19.750004)" gradientUnits="userSpaceOnUse" xlink:href="#linearGradient178-9"/><linearGradient id="linearGradient178-9"><stop id="stop179-9" offset="0" style="stop-color:#fff;stop-opacity:0"/><stop id="stop180-2" offset=".108" style="stop-color:#d9d9d9;stop-opacity:1"/><stop id="stop181-7" offset=".921" style="stop-color:#d9d9d9;stop-opacity:1"/><stop id="stop182-0" offset="1" style="stop-color:#fff;stop-opacity:0"/></linearGradient><linearGradient id="linearGradient3331" x1="23.1" x2="23.144" y1="38.297" y2="46.038" gradientTransform="matrix(0.7312763,0,0,0.6969978,7.1179686,14.1222)" gradientUnits="userSpaceOnUse" xlink:href="#linearGradient9347"/><linearGradient id="linearGradient9347"><stop id="stop9349" offset="0" style="stop-color:#7a7a7a;stop-opacity:1"/><stop id="stop9351" offset=".198" style="stop-color:#ebebeb;stop-opacity:1"/><stop id="stop9353" offset=".599" style="stop-color:#b9b9b9;stop-opacity:1"/><stop id="stop9355" offset="1" style="stop-color:#878787;stop-opacity:1"/></linearGradient><linearGradient id="linearGradient3247" x1="24" x2="24" y1="-12" y2="8" gradientTransform="translate(0,2)" gradientUnits="userSpaceOnUse" xlink:href="#linearGradient4235"/><linearGradient id="linearGradient3249" x1="25" x2="25" y1="45" y2="42" gradientTransform="matrix(1.4084181,0,0,1.6666667,-9.561478,-53.000001)" gradientUnits="userSpaceOnUse" xlink:href="#linearGradient3960-3"/><radialGradient id="radialGradient3251" cx="40" cy="43.5" r="2" fx="40" fy="43.5" gradientTransform="matrix(1.0571429,0,0,1.25,4.5999997,-34.875001)" gradientUnits="userSpaceOnUse" xlink:href="#linearGradient3952-0"/><radialGradient id="radialGradient3253" cx="9" cy="43.5" r="2" fx="9" fy="43.5" gradientTransform="matrix(1.0571429,0,0,1.25,-6.4000003,-34.875001)" gradientUnits="userSpaceOnUse" xlink:href="#linearGradient3944-3"/><linearGradient id="linearGradient3255" x1="25" x2="25" y1="45" y2="42" gradientTransform="matrix(1.3457637,0,0,1,-7.817562,-24.000001)" gradientUnits="userSpaceOnUse" xlink:href="#linearGradient3960-3"/><radialGradient id="radialGradient3257" cx="40" cy="43.5" r="2" fx="40" fy="43.5" gradientTransform="matrix(1,0,0,0.75,5.9999997,-13.125001)" gradientUnits="userSpaceOnUse" xlink:href="#linearGradient3952-0"/><radialGradient id="radialGradient3259" cx="9" cy="43.5" r="2" fx="9" fy="43.5" gradientTransform="matrix(1,0,0,0.75,-5.0000003,-13.125001)" gradientUnits="userSpaceOnUse" xlink:href="#linearGradient3944-3"/></defs><metadata id="metadata5019"/><g id="layer1" transform="translate(0,16)"><g id="g3486" transform="translate(-0.1249999,-15.999907)"><rect id="rect8955" width="3" height="5" x="22.75" y="35.501" style="fill:#d9d9d9;fill-opacity:1;stroke:#828282;stroke-width:1;stroke-miterlimit:4;stroke-opacity:1;stroke-dasharray:none"/><path id="path6774" d="m 45.24996,45.000414 a 20.999994,3 0 0 1 -41.9999874,0 20.999994,3.0000005 0 1 1 41.9999874,0 z" style="opacity:.3;fill:url(#radialGradient3339);fill-opacity:1;fill-rule:evenodd;stroke:none;display:inline;enable-background:new"/><g id="g7753" transform="translate(-31.627102,12.999991)" style="display:inline;enable-background:new"><rect id="rect8601" width="42" height="1" x="34.877" y="31" style="opacity:.65;fill:url(#linearGradient3480);fill-opacity:1;fill-rule:nonzero;stroke:none;stroke-width:1;marker:none;visibility:visible;display:block;overflow:visible"/><rect id="rect8603" width="42" height="1" x="34.877" y="29" style="opacity:.65;fill:url(#linearGradient3482);fill-opacity:1;fill-rule:nonzero;stroke:none;stroke-width:1;marker:none;visibility:visible;display:block;overflow:visible"/><rect id="rect8605" width="41.5" height="1" x="34.627" y="30" style="fill:url(#linearGradient3484);fill-opacity:1;fill-rule:nonzero;stroke:none;stroke-width:1;marker:none;visibility:visible;display:block;overflow:visible"/></g><path id="path8607" d="m 22.028715,40.500491 -3.233398,0 c -0.582372,0 -1.045288,0.42704 -1.045288,0.964275 l 0,4.071083 c 0,0.53723 0.462916,0.964574 1.045288,0.964574 l 10.909354,0 c 0.582367,0 1.04529,-0.427345 1.04529,-0.964574 l 0,-4.071083 c 0,-0.537235 -0.462923,-0.964275 -1.04529,-0.964275 l -2.821165,0 -4.854791,0 z" style="fill:url(#linearGradient3331);fill-opacity:1;fill-rule:nonzero;stroke:#5a5c58;stroke-width:1.00006688;stroke-linecap:butt;stroke-linejoin:miter;stroke-miterlimit:4;stroke-opacity:1;stroke-dasharray:none;stroke-dashoffset:0;marker:none;visibility:visible;display:block;overflow:visible;enable-background:new"/><rect id="rect8615" width="8" height="1.5" x="21.25" y="41.25" rx=".5" ry=".5" style="fill:#fff;fill-opacity:.72023806;fill-rule:nonzero;stroke:none;stroke-width:1.13999999;marker:none;visibility:visible;display:block;overflow:visible;enable-background:new"/><path id="path8617" d="m 20.499998,42.000458 a 0.75,0.75 0 0 1 -1.5,0 0.75,0.75 0 1 1 1.5,0 z" style="fill:#fff;fill-opacity:.72023806;fill-rule:nonzero;stroke:none;stroke-width:1.13999999;marker:none;visibility:visible;display:block;overflow:visible;enable-background:new"/></g><path style="fill:url(#linearGradient3129);fill-opacity:1;stroke:none;display:inline" id="rect3145" d="m 3.5,6 0,13 C 3.53125,21.53125 6,21.5 6,21.5 l 38,0 c 0,0 2.513864,-0.01386 2.5,-2.5 L 46.5,6 43,1.5 7,1.5 z"/><path id="path3160" d="m 5.5,6 0,7.5 16.5,0 6.4375,-2 16.0625,0 0,-5.5 -3.4,-4.5 -32.2,0 z" style="fill:url(#linearGradient3940);fill-opacity:1;stroke:none;display:inline"/><path style="opacity:.61000001;fill:none;stroke:#000;stroke-opacity:1;display:inline" id="path3942" d="m 5.5,6 0,7.5 16.5,0 6.625,-2 15.875,0 0,-5.5 -3.4,-4.5 -32.2,0 z"/><path style="opacity:.6;fill:#000;fill-opacity:1;stroke:none;display:inline" id="rect3948" d="M 8.9687533,4.03125 40,4 40,5 8.9687533,5.03125 z"/><path style="opacity:.40000000000000002;fill:#fff;fill-opacity:1;stroke:none;display:inline" id="rect4753" d="m 5.9687524,7.031252 37.9999976,0 0,-0.999999 -37.9999976,0 z"/><g id="g3948" transform="translate(0,-2)"><path id="path4031" d="m 10.015625,13.484375 c -0.828428,0 -1.5,-0.671573 -1.5,-1.5 0,-0.828427 0.671572,-1.5 1.5,-1.5 0.828427,0 1.5,0.671573 1.5,1.5 0,0.828427 -0.671573,1.5 -1.5,1.5 z" style="fill:url(#radialGradient3161);fill-opacity:1;stroke:none"/><path id="path4041" d="m 12.03125,11.984375 c 0,-1.098647 -0.916979,-2.015625 -2.015625,-2.015625 C 8.916978,9.96875 8,10.885728 8,11.984375 8,13.083022 8.916978,14 10.015625,14 c 1.098646,0 2.015625,-0.916978 2.015625,-2.015625 z m -1.03125,0 c 0,0.558207 -0.426168,0.984375 -0.984375,0.984375 -0.558207,0 -0.984375,-0.426168 -0.984375,-0.984375 C 9.03125,11.426168 9.457418,11 10.015625,11 10.573832,11 11,11.426168 11,11.984375 z" style="font-size:medium;font-style:normal;font-variant:normal;font-weight:400;font-stretch:normal;text-indent:0;text-align:start;text-decoration:none;line-height:normal;letter-spacing:normal;word-spacing:normal;text-transform:none;direction:ltr;block-progression:tb;writing-mode:lr-tb;text-anchor:start;baseline-shift:baseline;opacity:.61000001;color:#000;fill:#000;fill-opacity:1;stroke:none;stroke-width:.66666669;marker:none;visibility:visible;display:inline;overflow:visible;enable-background:accumulate;font-family:Sans;-inkscape-font-specification:Sans"/></g><g id="g3239" transform="translate(0,2)"><rect id="rect3615" width="43.661" height="5" x="3.114" y="17" style="opacity:.12000002;fill:url(#linearGradient3249);fill-opacity:1;stroke:none"/><path id="path3617" d="m 46.885716,17 0,5 0.528571,0 c 0.878486,0 1.585715,-1.115 1.585715,-2.5 0,-1.385 -0.707229,-2.5 -1.585715,-2.5 l -0.528571,0 z" style="opacity:.12000002;fill:url(#radialGradient3251);fill-opacity:1;stroke:none"/><path id="path3619" d="M 2.4866072,17 C 1.6630268,17 1,18.045312 1,19.34375 l 0,0.3125 C 1,20.954689 1.6630268,22 2.4866072,22 l 0.6276786,0 0,-5 -0.6276786,0 z" style="opacity:.12000002;fill:url(#radialGradient3253);fill-opacity:1;stroke:none"/><rect style="opacity:.12000002;fill:url(#linearGradient3255);fill-opacity:1;stroke:none" id="rect3623" width="41.719" height="3" x="4.294" y="18"/><path style="opacity:.12000002;fill:url(#radialGradient3257);fill-opacity:1;stroke:none" id="path3625" d="m 46,17.999999 0,3 0.5,0 c 0.831,0 1.5,-0.669 1.5,-1.5 0,-0.831 -0.669,-1.5 -1.5,-1.5 l -0.5,0 z"/><path style="opacity:.12000002;fill:url(#radialGradient3259);fill-opacity:1;stroke:none" id="path3627" d="m 3.4062497,17.999999 c -0.7790625,0 -1.40625,0.627187 -1.40625,1.40625 l 0,0.1875 c 0,0.779063 0.6271875,1.40625 1.40625,1.40625 l 0.59375,0 0,-3 -0.59375,0 z"/></g><path style="opacity:.41000001;color:#bebebe;fill:#000;fill-opacity:1;fill-rule:nonzero;stroke:none;stroke-width:0;marker:none;visibility:visible;display:inline;overflow:visible;enable-background:accumulate" id="rect3886" d="m 11,-11 c -0.554,0 -1,0.446 -1,1 l 0,14 29,0 0,-14 c 0,-0.554 -0.446,-1 -1,-1 z"/><path id="path4233" d="m 3.5,6 0,13 c 0,2.53125 2.5,2.5 2.5,2.5 l 38,0 c 0,0 2.544194,0.107456 2.5,-2.5 L 46.5,6 43,1.5 7,1.5 z" style="opacity:.61000001;fill:none;stroke:#000;stroke-linejoin:round;stroke-opacity:1;display:inline"/><path style="color:#bebebe;fill:url(#linearGradient3998);fill-opacity:1;fill-rule:nonzero;stroke:none;stroke-width:0;marker:none;visibility:visible;display:inline;overflow:visible;enable-background:accumulate" id="rect3882-6" d="m 11,-10 0,14 27,0 0,-14 z"/><path style="opacity:.4;fill:url(#linearGradient3247);fill-opacity:1;stroke:none" id="path3893" d="m 11,-10 0,14 1,0 0,-13 25,0 0,13 1,0 0,-14 z"/><path style="opacity:.5;fill:#000;fill-opacity:1;stroke:none;display:inline" id="rect3952" d="m 9.978796,15.985599 30.032928,0 0,0.999998 -30.032928,0 z"/><path style="opacity:.4;fill:#000;fill-opacity:1;stroke:none;display:inline" id="rect3954" d="m 9,17.000003 32.011723,-0.0144 0,0.999997 L 9,18 z"/><rect style="opacity:.2;fill:#fff;fill-opacity:1" id="rect3251" width="30" height="1" x="10" y="15"/><g id="g3952" transform="matrix(0.49612403,0,0,0.49612403,9.0310078,3.0542636)"><path style="fill:url(#radialGradient3961);fill-opacity:1;stroke:none" id="path3954" d="m 10.015625,13.484375 c -0.828428,0 -1.5,-0.671573 -1.5,-1.5 0,-0.828427 0.671572,-1.5 1.5,-1.5 0.828427,0 1.5,0.671573 1.5,1.5 0,0.828427 -0.671573,1.5 -1.5,1.5 z"/><path style="font-size:medium;font-style:normal;font-variant:normal;font-weight:400;font-stretch:normal;text-indent:0;text-align:start;text-decoration:none;line-height:normal;letter-spacing:normal;word-spacing:normal;text-transform:none;direction:ltr;block-progression:tb;writing-mode:lr-tb;text-anchor:start;baseline-shift:baseline;opacity:.61000001;color:#000;fill:#000;fill-opacity:1;stroke:none;stroke-width:.66666669;marker:none;visibility:visible;display:inline;overflow:visible;enable-background:accumulate;font-family:Sans;-inkscape-font-specification:Sans" id="path3956" d="m 12.03125,11.984375 c 0,-1.098647 -0.916979,-2.015625 -2.015625,-2.015625 C 8.916978,9.96875 8,10.885728 8,11.984375 8,13.083022 8.916978,14 10.015625,14 c 1.098646,0 2.015625,-0.916978 2.015625,-2.015625 z m -1.03125,0 c 0,0.558207 -0.426168,0.984375 -0.984375,0.984375 -0.558207,0 -0.984375,-0.426168 -0.984375,-0.984375 C 9.03125,11.426168 9.457418,11 10.015625,11 10.573832,11 11,11.426168 11,11.984375 z"/></g><g id="g3963" transform="matrix(0.49612403,0,0,0.49612403,12.031008,3.0542636)"><path id="path3965" d="m 10.015625,13.484375 c -0.828428,0 -1.5,-0.671573 -1.5,-1.5 0,-0.828427 0.671572,-1.5 1.5,-1.5 0.828427,0 1.5,0.671573 1.5,1.5 0,0.828427 -0.671573,1.5 -1.5,1.5 z" style="fill:url(#radialGradient3969);fill-opacity:1;stroke:none"/><path id="path3967" d="m 12.03125,11.984375 c 0,-1.098647 -0.916979,-2.015625 -2.015625,-2.015625 C 8.916978,9.96875 8,10.885728 8,11.984375 8,13.083022 8.916978,14 10.015625,14 c 1.098646,0 2.015625,-0.916978 2.015625,-2.015625 z m -1.03125,0 c 0,0.558207 -0.426168,0.984375 -0.984375,0.984375 -0.558207,0 -0.984375,-0.426168 -0.984375,-0.984375 C 9.03125,11.426168 9.457418,11 10.015625,11 10.573832,11 11,11.426168 11,11.984375 z" style="font-size:medium;font-style:normal;font-variant:normal;font-weight:400;font-stretch:normal;text-indent:0;text-align:start;text-decoration:none;line-height:normal;letter-spacing:normal;word-spacing:normal;text-transform:none;direction:ltr;block-progression:tb;writing-mode:lr-tb;text-anchor:start;baseline-shift:baseline;opacity:.61000001;color:#000;fill:#000;fill-opacity:1;stroke:none;stroke-width:.66666669;marker:none;visibility:visible;display:inline;overflow:visible;enable-background:accumulate;font-family:Sans;-inkscape-font-specification:Sans"/></g></g></svg>