<svg xmlns="http://www.w3.org/2000/svg" xmlns:svg="http://www.w3.org/2000/svg" xmlns:xlink="http://www.w3.org/1999/xlink" id="svg5356" width="96" height="96" version="1.1"><defs id="defs5358"><linearGradient id="linearGradient4291"><stop id="stop4293" offset="0" style="stop-color:#fff;stop-opacity:1"/><stop id="stop4295" offset="1" style="stop-color:#fff;stop-opacity:0"/></linearGradient><linearGradient id="linearGradient5300" x1="368" x2="368" y1="148" y2="212" gradientTransform="matrix(1.466657,0,0,1.466657,-444.79704,-215.8642)" gradientUnits="userSpaceOnUse" xlink:href="#linearGradient4968"/><linearGradient id="linearGradient4968"><stop style="stop-color:#f1e6f4;stop-opacity:1" id="stop4970" offset="0"/><stop id="stop4972" offset="1" style="stop-color:#c9bcce;stop-opacity:1"/></linearGradient><linearGradient id="linearGradient5303" x1="336" x2="336" y1="164" y2="180" gradientTransform="matrix(1.466657,0,0,1.466657,-444.79704,-221.73124)" gradientUnits="userSpaceOnUse" xlink:href="#linearGradient11359"/><linearGradient id="linearGradient11359"><stop id="stop11361" offset="0" style="stop-color:#d5cbd7;stop-opacity:1"/><stop id="stop11363" offset="1" style="stop-color:#d9bfdf;stop-opacity:1"/></linearGradient><clipPath id="clipPath4275" clipPathUnits="userSpaceOnUse"><path style="color:#000;font-style:normal;font-variant:normal;font-weight:400;font-stretch:normal;font-size:medium;line-height:normal;font-family:Sans;-inkscape-font-specification:Sans;text-indent:0;text-align:start;text-decoration:none;text-decoration-line:none;letter-spacing:normal;word-spacing:normal;text-transform:none;direction:ltr;block-progression:tb;writing-mode:lr-tb;baseline-shift:baseline;text-anchor:start;display:inline;overflow:visible;visibility:visible;fill:url(#linearGradient4279);fill-opacity:1;stroke:none;stroke-width:1;marker:none;enable-background:accumulate" id="path4277" d="m 6,32.5 c -0.8333333,0 -1.1123629,0.341913 -1.3027344,0.722656 -0.1889125,0.377819 -0.1951978,0.765475 -0.1953125,0.771485 L 7.5,83.984375 7.5,84 c 0,0 0.00689,0.396601 0.1972656,0.777344 C 7.8876371,85.158087 8.1666667,85.5 9,85.5 l 78,0 c 0.833333,0 1.112363,-0.341913 1.302734,-0.722656 C 88.4931,84.396601 88.5,84 88.5,84 l 0,-0.02539 0.002,-0.02539 c 0.0015,-0.0148 2.993294,-49.908195 2.996094,-49.955078 -1.15e-4,-0.006 -0.0064,-0.393666 -0.195313,-0.771485 C 91.112363,32.841913 90.833333,32.5 90,32.5 l -84,0 z"/></clipPath><linearGradient id="linearGradient4279" x1="368" x2="368" y1="148" y2="212" gradientTransform="matrix(1.466657,0,0,1.466657,-444.79704,-215.8642)" gradientUnits="userSpaceOnUse" xlink:href="#linearGradient4968"/><linearGradient id="linearGradient4297" x1="48" x2="48" y1="36" y2="84" gradientUnits="userSpaceOnUse" xlink:href="#linearGradient4291"/></defs><metadata id="metadata5361"/><path style="color:#000;font-style:normal;font-variant:normal;font-weight:400;font-stretch:normal;font-size:medium;line-height:normal;font-family:Sans;-inkscape-font-specification:Sans;text-indent:0;text-align:start;text-decoration:none;text-decoration-line:none;letter-spacing:normal;word-spacing:normal;text-transform:none;direction:ltr;block-progression:tb;writing-mode:lr-tb;baseline-shift:baseline;text-anchor:start;display:inline;overflow:visible;visibility:visible;fill:url(#linearGradient5303);fill-opacity:1;stroke:none;stroke-width:1;marker:none;enable-background:accumulate" id="path12179" d="m 11,12.5 c -0.833333,0 -1.1123629,0.341913 -1.3027344,0.722656 C 9.50689,13.603399 9.5,14 9.5,14 l 0,35.5 77,0 0,-29.5 c 0,-0.833333 -0.341913,-1.112363 -0.722656,-1.302734 C 85.396601,18.5069 85,18.5 85,18.5 l -29,0 c -4.125,0 -6.300781,-1.599609 -8.300781,-3.099609 C 45.699219,13.900391 43.875,12.5 40,12.5 Z"/><path id="path4242" d="m 4,43 3,42 c 0,0 0,2 2,2 l 78,0 c 2,0 2,-2 2,-2 0.0015,-0.01481 3,-42 3,-42 0,0 0,-2 -2,-2 L 6,41 c -2,0 -2,2 -2,2 z" style="color:#000;font-style:normal;font-variant:normal;font-weight:400;font-stretch:normal;font-size:medium;line-height:normal;font-family:Sans;-inkscape-font-specification:Sans;text-indent:0;text-align:start;text-decoration:none;text-decoration-line:none;letter-spacing:normal;word-spacing:normal;text-transform:none;direction:ltr;block-progression:tb;writing-mode:lr-tb;baseline-shift:baseline;text-anchor:start;display:inline;overflow:visible;visibility:visible;opacity:.2;fill:#000;fill-opacity:1;stroke:none;stroke-width:1;marker:none;enable-background:accumulate"/><path id="path4253" d="m 11,12.5 c -0.833333,0 -1.1123629,0.341913 -1.3027344,0.722656 C 9.50689,13.603399 9.5,14 9.5,14 l 0,35.5 77,0 0,-29.5 c 0,-0.833333 -0.341913,-1.112363 -0.722656,-1.302734 C 85.396601,18.5069 85,18.5 85,18.5 l -29,0 c -4.125,0 -6.300781,-1.599609 -8.300781,-3.099609 C 45.699219,13.900391 43.875,12.5 40,12.5 Z" style="color:#000;font-style:normal;font-variant:normal;font-weight:400;font-stretch:normal;font-size:medium;line-height:normal;font-family:Sans;-inkscape-font-specification:Sans;text-indent:0;text-align:start;text-decoration:none;text-decoration-line:none;letter-spacing:normal;word-spacing:normal;text-transform:none;direction:ltr;block-progression:tb;writing-mode:lr-tb;baseline-shift:baseline;text-anchor:start;display:inline;overflow:visible;visibility:visible;opacity:.41000001;fill:none;fill-opacity:1;stroke:#000;stroke-width:1;stroke-opacity:1;marker:none;enable-background:accumulate"/><path style="color:#000;font-style:normal;font-variant:normal;font-weight:400;font-stretch:normal;font-size:medium;line-height:normal;font-family:Sans;-inkscape-font-specification:Sans;text-indent:0;text-align:start;text-decoration:none;text-decoration-line:none;letter-spacing:normal;word-spacing:normal;text-transform:none;direction:ltr;block-progression:tb;writing-mode:lr-tb;baseline-shift:baseline;text-anchor:start;display:inline;overflow:visible;visibility:visible;fill:url(#linearGradient5300);fill-opacity:1;stroke:none;stroke-width:1;marker:none;enable-background:accumulate" id="path12181" d="m 6,40.5 c -0.8333333,0 -1.1123629,0.341913 -1.3027344,0.722656 -0.1889125,0.377819 -0.1951978,0.765475 -0.1953125,0.771485 L 7.5,83.984375 7.5,84 c 0,0 0.00689,0.396601 0.1972656,0.777344 C 7.8876371,85.158087 8.1666667,85.5 9,85.5 l 78,0 c 0.833333,0 1.112363,-0.341913 1.302734,-0.722656 C 88.4931,84.396601 88.5,84 88.5,84 l 0,-0.02539 0.002,-0.02539 c 0.0015,-0.0148 2.993294,-41.908195 2.996094,-41.955078 -1.15e-4,-0.006 -0.0064,-0.393666 -0.195313,-0.771485 C 91.112363,40.841913 90.833333,40.5 90,40.5 Z"/><path id="path4267" d="m 6,40.5 c -0.8333333,0 -1.1123629,0.341913 -1.3027344,0.722656 -0.1889125,0.377819 -0.1951978,0.765475 -0.1953125,0.771485 L 7.5,83.984375 7.5,84 c 0,0 0.00689,0.396601 0.1972656,0.777344 C 7.8876371,85.158087 8.1666667,85.5 9,85.5 l 78,0 c 0.833333,0 1.112363,-0.341913 1.302734,-0.722656 C 88.4931,84.396601 88.5,84 88.5,84 l 0,-0.02539 0.002,-0.02539 c 0.0015,-0.0148 2.993294,-41.908195 2.996094,-41.955078 -1.15e-4,-0.006 -0.0064,-0.393666 -0.195313,-0.771485 C 91.112363,40.841913 90.833333,40.5 90,40.5 Z" style="color:#000;font-style:normal;font-variant:normal;font-weight:400;font-stretch:normal;font-size:medium;line-height:normal;font-family:Sans;-inkscape-font-specification:Sans;text-indent:0;text-align:start;text-decoration:none;text-decoration-line:none;letter-spacing:normal;word-spacing:normal;text-transform:none;direction:ltr;block-progression:tb;writing-mode:lr-tb;baseline-shift:baseline;text-anchor:start;display:inline;overflow:visible;visibility:visible;opacity:.41000001;fill:none;fill-opacity:1;stroke:#000;stroke-width:1;stroke-opacity:1;marker:none;enable-background:accumulate"/><path id="path4271" d="m 6,40.5 c -0.8333333,0 -1.1123629,0.341913 -1.3027344,0.722656 -0.1889125,0.377819 -0.1951978,0.765475 -0.1953125,0.771485 L 7.5,83.984375 7.5,84 c 0,0 0.00689,0.396601 0.1972656,0.777344 C 7.8876371,85.158087 8.1666667,85.5 9,85.5 l 78,0 c 0.833333,0 1.112363,-0.341913 1.302734,-0.722656 C 88.4931,84.396601 88.5,84 88.5,84 l 0,-0.02539 0.002,-0.02539 c 0.0015,-0.0148 2.993294,-41.908195 2.996094,-41.955078 -1.15e-4,-0.006 -0.0064,-0.393666 -0.195313,-0.771485 C 91.112363,40.841913 90.833333,40.5 90,40.5 Z" clip-path="url(#clipPath4275)" style="color:#000;font-style:normal;font-variant:normal;font-weight:400;font-stretch:normal;font-size:medium;line-height:normal;font-family:Sans;-inkscape-font-specification:Sans;text-indent:0;text-align:start;text-decoration:none;text-decoration-line:none;letter-spacing:normal;word-spacing:normal;text-transform:none;direction:ltr;block-progression:tb;writing-mode:lr-tb;baseline-shift:baseline;text-anchor:start;display:inline;overflow:visible;visibility:visible;opacity:.2;fill:none;fill-opacity:1;stroke:url(#linearGradient4297);stroke-width:3;stroke-miterlimit:4;stroke-dasharray:none;stroke-opacity:1;marker:none;enable-background:accumulate"/></svg>