<svg xmlns="http://www.w3.org/2000/svg" xmlns:svg="http://www.w3.org/2000/svg" xmlns:xlink="http://www.w3.org/1999/xlink" id="svg3759" width="64" height="64" version="1.1"><metadata id="metadata37"/><defs id="defs3761"><linearGradient id="linearGradient3988-5"><stop id="stop3990-5" offset="0" style="stop-color:#ededed;stop-opacity:1"/><stop id="stop3992-0" offset="1" style="stop-color:#fafafa;stop-opacity:1"/></linearGradient><linearGradient id="linearGradient3204" x1="144" x2="144" y1="280" y2="40" gradientTransform="matrix(0.25967742,0,0,0.26025641,-21.135514,-29.384664)" gradientUnits="userSpaceOnUse" xlink:href="#linearGradient3988-5"/><linearGradient id="linearGradient3029" x1="302.857" x2="302.857" y1="366.648" y2="609.505" gradientTransform="matrix(0.09153846,0,0,0.02058823,-1.084616,49.45142)" gradientUnits="userSpaceOnUse" xlink:href="#linearGradient5048"/><linearGradient id="linearGradient5048"><stop style="stop-color:#000;stop-opacity:0" id="stop5050" offset="0"/><stop style="stop-color:#000;stop-opacity:1" id="stop5056" offset=".5"/><stop style="stop-color:#000;stop-opacity:0" id="stop5052" offset="1"/></linearGradient><radialGradient id="radialGradient3026" cx="605.714" cy="486.648" r="117.143" fx="605.714" fy="486.648" gradientTransform="matrix(-0.03132632,0,0,0.02058823,28.779136,49.45142)" gradientUnits="userSpaceOnUse" xlink:href="#linearGradient5060"/><linearGradient id="linearGradient5060"><stop style="stop-color:#000;stop-opacity:1" id="stop5062" offset="0"/><stop style="stop-color:#000;stop-opacity:0" id="stop5064" offset="1"/></linearGradient><radialGradient id="radialGradient3066" cx="605.714" cy="486.648" r="117.143" fx="605.714" fy="486.648" gradientTransform="matrix(0.03132633,0,0,0.02058823,35.220859,49.45142)" gradientUnits="userSpaceOnUse" xlink:href="#linearGradient5060"/></defs><g id="layer1" transform="translate(0,16)"><g id="g3031" transform="translate(0,-14.000004)"><rect style="opacity:.3;fill:url(#linearGradient3029);fill-opacity:1;fill-rule:nonzero;stroke:none;stroke-width:1;marker:none;visibility:visible;display:inline;overflow:visible" id="rect2879" width="44.2" height="5" x="9.9" y="57"/><path style="opacity:.3;fill:url(#radialGradient3026);fill-opacity:1;fill-rule:nonzero;stroke:none;stroke-width:1;marker:none;visibility:visible;display:inline;overflow:visible" id="path2881" d="m 9.9,57.00022 c 0,0 0,4.9997 0,4.9997 -1.6132281,0.01 -3.9,-1.1202 -3.9,-2.5002 0,-1.38 1.8002408,-2.4995 3.9,-2.4995 z"/><path style="opacity:.3;fill:url(#radialGradient3066);fill-opacity:1;fill-rule:nonzero;stroke:none;stroke-width:1;marker:none;visibility:visible;display:inline;overflow:visible" id="path2883" d="m 54.099999,57.00022 c 0,0 0,4.9997 0,4.9997 C 55.713227,62.00992 58,60.87972 58,59.49972 c 0,-1.38 -1.800241,-2.4995 -3.900001,-2.4995 z"/></g><g id="g4204" transform="matrix(0,1,-1,0,48,1.0000002)"><g id="g4020" transform="translate(2,-1)"><rect style="opacity:.35;color:#bebebe;fill:#000;fill-opacity:1;fill-rule:nonzero;stroke:none;stroke-width:0;marker:none;visibility:visible;display:inline;overflow:visible;enable-background:accumulate" id="rect3886" width="48" height="60" x="-7" y="-17" ry="1" transform="matrix(0,1,1,0,0,0)"/><rect id="rect3882" width="46" height="58" x="-6" y="-16" ry="0" transform="matrix(0,1,1,0,0,0)" style="color:#bebebe;fill:url(#linearGradient3204);fill-opacity:1;fill-rule:nonzero;stroke:none;stroke-width:0;marker:none;visibility:visible;display:inline;overflow:visible;enable-background:accumulate"/><path id="rect4018" d="m -40,-16 46,0 0,1 -46,0 z" transform="matrix(0,-1,1,0,0,0)" style="opacity:.4;fill:#fff;fill-opacity:1;stroke:none"/><path style="opacity:.4;fill:#fff;fill-opacity:1;stroke:none" id="path3893" d="m -16,-6 0,46 58,0 0,-46 z m 1,1 56,0 0,44 -56,0 z"/></g></g></g></svg>