<svg xmlns="http://www.w3.org/2000/svg" xmlns:svg="http://www.w3.org/2000/svg" xmlns:xlink="http://www.w3.org/1999/xlink" id="svg3786" width="16" height="16" version="1.0"><metadata id="metadata39"/><defs id="defs3788"><linearGradient id="linearGradient3932" x1="17.741" x2="11.218" y1="24.05" y2="12.883" gradientTransform="matrix(0.99778,0,0,0.88551429,0.053179,4.2043715)" gradientUnits="userSpaceOnUse"><stop id="stop3934" offset="0" style="stop-color:#acacac;stop-opacity:1"/><stop style="stop-color:#b6b6b6;stop-opacity:1" id="stop3936" offset=".1"/><stop style="stop-color:#d9d9d9;stop-opacity:1" id="stop3938" offset=".1"/><stop id="stop3940" offset="1" style="stop-color:#d4d4d4;stop-opacity:1"/></linearGradient><linearGradient id="linearGradient3961" x1="25" x2="25" y1="35" y2="15" gradientTransform="translate(-1,8)" gradientUnits="userSpaceOnUse" xlink:href="#linearGradient3932"/><linearGradient id="linearGradient3975" x1="25" x2="25" y1="35" y2="15" gradientTransform="translate(-1,8)" gradientUnits="userSpaceOnUse" xlink:href="#linearGradient3932"/><linearGradient id="linearGradient3977" x1="25" x2="25" y1="35" y2="15" gradientTransform="translate(-1,8)" gradientUnits="userSpaceOnUse" xlink:href="#linearGradient3932"/></defs><g style="display:inline" id="layer1" transform="translate(0,-32)"><g id="g3963" transform="translate(0,5)"><path style="fill:url(#linearGradient3975);fill-opacity:1;fill-rule:evenodd;stroke:none;enable-background:new" id="path3965" d="m 2,32.5 -1.5,8.5 0,1.5 15,0 0,-1.53125 L 14,32.5 z"/><path style="opacity:.41000001;fill:#fff;fill-opacity:1;stroke:none" id="path3967" d="m 1,40 14,0 0,1 -14,0 z"/><path id="path3969" d="m 2,32.5 -1.5,8.5 0,1.5 15,0 0,-1.53125 L 14,32.5 z" style="opacity:.41000001;fill:none;stroke:#000;stroke-linejoin:round;stroke-opacity:1;enable-background:new"/><path style="opacity:.2;fill:#fff;fill-opacity:1;fill-rule:evenodd;stroke:none;enable-background:new" id="path3971" d="M 2.4375,1 1,8.96875 1.09375,9.21875 2.4375,2 13.5625,2 14.90625,9.21875 15,8.9375 13.5625,1 z" transform="translate(0,32)"/><path style="opacity:.2;fill:#000;fill-opacity:1;stroke:none" id="path3973" d="M 3.5,1 C 3.2238576,1 3,1.2238576 3,1.5 3,1.7761424 3.2238576,2 3.5,2 3.7761424,2 4,1.7761424 4,1.5 4,1.2238576 3.7761424,1 3.5,1 z m 9,0 C 12.223858,1 12,1.2238576 12,1.5 12,1.7761424 12.223858,2 12.5,2 12.776142,2 13,1.7761424 13,1.5 13,1.2238576 12.776142,1 12.5,1 z M 2.5,7 C 2.2238576,7 2,7.223858 2,7.5 2,7.776142 2.2238576,8 2.5,8 2.7761424,8 3,7.776142 3,7.5 3,7.223858 2.7761424,7 2.5,7 z m 11,0 C 13.223858,7 13,7.223858 13,7.5 13,7.776142 13.223858,8 13.5,8 13.776142,8 14,7.776142 14,7.5 14,7.223858 13.776142,7 13.5,7 z" transform="translate(0,32)"/></g><g id="g3949" transform="translate(0,3)"><path id="path3951" d="m 2,32.5 -1.5,8.5 0,1.5 15,0 0,-1.53125 L 14,32.5 z" style="fill:url(#linearGradient3961);fill-opacity:1;fill-rule:evenodd;stroke:none;enable-background:new"/><path id="path3953" d="m 1,40 14,0 0,1 -14,0 z" style="opacity:.41000001;fill:#fff;fill-opacity:1;stroke:none"/><path style="opacity:.41000001;fill:none;stroke:#000;stroke-linejoin:round;stroke-opacity:1;enable-background:new" id="path3955" d="m 2,32.5 -1.5,8.5 0,1.5 15,0 0,-1.53125 L 14,32.5 z"/><path id="path3957" d="M 2.4375,1 1,8.96875 1.09375,9.21875 2.4375,2 13.5625,2 14.90625,9.21875 15,8.9375 13.5625,1 z" transform="translate(0,32)" style="opacity:.2;fill:#fff;fill-opacity:1;fill-rule:evenodd;stroke:none;enable-background:new"/><path id="path3959" d="M 3.5,1 C 3.2238576,1 3,1.2238576 3,1.5 3,1.7761424 3.2238576,2 3.5,2 3.7761424,2 4,1.7761424 4,1.5 4,1.2238576 3.7761424,1 3.5,1 z m 9,0 C 12.223858,1 12,1.2238576 12,1.5 12,1.7761424 12.223858,2 12.5,2 12.776142,2 13,1.7761424 13,1.5 13,1.2238576 12.776142,1 12.5,1 z M 2.5,7 C 2.2238576,7 2,7.223858 2,7.5 2,7.776142 2.2238576,8 2.5,8 2.7761424,8 3,7.776142 3,7.5 3,7.223858 2.7761424,7 2.5,7 z m 11,0 C 13.223858,7 13,7.223858 13,7.5 13,7.776142 13.223858,8 13.5,8 13.776142,8 14,7.776142 14,7.5 14,7.223858 13.776142,7 13.5,7 z" transform="translate(0,32)" style="opacity:.2;fill:#000;fill-opacity:1;stroke:none"/></g><g id="g3942" transform="translate(0,1)"><path style="fill:url(#linearGradient3977);fill-opacity:1;fill-rule:evenodd;stroke:none;enable-background:new" id="rect6431" d="m 2,32.5 -1.5,8.5 0,1.5 15,0 0,-1.53125 L 14,32.5 z"/><path style="opacity:.41000001;fill:#fff;fill-opacity:1;stroke:none" id="rect3875" d="m 1,40 14,0 0,1 -14,0 z"/><path id="path3116" d="m 2,32.5 -1.5,8.5 0,1.5 15,0 0,-1.53125 L 14,32.5 z" style="opacity:.41000001;fill:none;stroke:#000;stroke-linejoin:round;stroke-opacity:1;enable-background:new"/><path style="opacity:.2;fill:#fff;fill-opacity:1;fill-rule:evenodd;stroke:none;enable-background:new" id="path3907" d="M 2.4375,1 1,8.96875 1.09375,9.21875 2.4375,2 13.5625,2 14.90625,9.21875 15,8.9375 13.5625,1 z" transform="translate(0,32)"/><path style="opacity:.2;fill:#000;fill-opacity:1;stroke:none" id="path3923" d="M 3.5,1 C 3.2238576,1 3,1.2238576 3,1.5 3,1.7761424 3.2238576,2 3.5,2 3.7761424,2 4,1.7761424 4,1.5 4,1.2238576 3.7761424,1 3.5,1 z m 9,0 C 12.223858,1 12,1.2238576 12,1.5 12,1.7761424 12.223858,2 12.5,2 12.776142,2 13,1.7761424 13,1.5 13,1.2238576 12.776142,1 12.5,1 z M 2.5,7 C 2.2238576,7 2,7.223858 2,7.5 2,7.776142 2.2238576,8 2.5,8 2.7761424,8 3,7.776142 3,7.5 3,7.223858 2.7761424,7 2.5,7 z m 11,0 C 13.223858,7 13,7.223858 13,7.5 13,7.776142 13.223858,8 13.5,8 13.776142,8 14,7.776142 14,7.5 14,7.223858 13.776142,7 13.5,7 z" transform="translate(0,32)"/></g></g></svg>