<svg xmlns="http://www.w3.org/2000/svg" xmlns:svg="http://www.w3.org/2000/svg" xmlns:xlink="http://www.w3.org/1999/xlink" id="svg3786" width="16" height="16" version="1.0"><metadata id="metadata39"/><defs id="defs3788"><linearGradient id="linearGradient3106" x1="17.741" x2="11.218" y1="24.05" y2="12.883" gradientTransform="matrix(0.99778,0,0,0.88551429,0.053179,4.2043715)" gradientUnits="userSpaceOnUse"><stop style="stop-color:#acacac;stop-opacity:1" id="stop3108" offset="0"/><stop id="stop3110" offset=".083" style="stop-color:#b6b6b6;stop-opacity:1"/><stop id="stop3112" offset=".083" style="stop-color:#d9d9d9;stop-opacity:1"/><stop style="stop-color:#d4d4d4;stop-opacity:1" id="stop3114" offset="1"/></linearGradient><linearGradient id="linearGradient4072" x1="25.25" x2="25.25" y1="39" y2="15" gradientTransform="translate(-1,8)" gradientUnits="userSpaceOnUse" xlink:href="#linearGradient3106"/></defs><g style="display:inline" id="layer1" transform="translate(0,-32)"><path id="rect6431" d="M 2,32.5 0.5,45 l 0,1.5 15,0 0,-1.53125 L 14,32.5 z" style="fill:url(#linearGradient4072);fill-opacity:1;fill-rule:evenodd;stroke:none;enable-background:new"/><rect id="rect3875" width="14" height="1" x="1" y="44" ry="0" style="opacity:.41000001;fill:#fff;fill-opacity:1;stroke:none"/><path style="opacity:.41000001;fill:none;stroke:#000;stroke-linejoin:round;stroke-opacity:1;enable-background:new" id="path3116" d="M 2,32.5 0.5,45 l 0,1.5 15,0 0,-1.53125 L 14,32.5 z"/><path id="path3907" d="M 2.4375,1 1,12.96875 1.09375,13.21875 2.4375,2 13.5625,2 14.90625,13.21875 15,12.9375 13.5625,1 z" transform="translate(0,32)" style="opacity:.2;fill:#fff;fill-opacity:1;fill-rule:evenodd;stroke:none;enable-background:new"/><path id="path3923" d="M 3.5 1 C 3.2238576 1 3 1.2238576 3 1.5 C 3 1.7761424 3.2238576 2 3.5 2 C 3.7761424 2 4 1.7761424 4 1.5 C 4 1.2238576 3.7761424 1 3.5 1 z M 12.5 1 C 12.223858 1 12 1.2238576 12 1.5 C 12 1.7761424 12.223858 2 12.5 2 C 12.776142 2 13 1.7761424 13 1.5 C 13 1.2238576 12.776142 1 12.5 1 z M 2.5 11 C 2.2238576 11 2 11.223858 2 11.5 C 2 11.776142 2.2238576 12 2.5 12 C 2.7761424 12 3 11.776142 3 11.5 C 3 11.223858 2.7761424 11 2.5 11 z M 13.5 11 C 13.223858 11 13 11.223858 13 11.5 C 13 11.776142 13.223858 12 13.5 12 C 13.776142 12 14 11.776142 14 11.5 C 14 11.223858 13.776142 11 13.5 11 z" transform="translate(0,32)" style="opacity:.2;fill:#000;fill-opacity:1;stroke:none"/></g></svg>