<svg xmlns="http://www.w3.org/2000/svg" xmlns:svg="http://www.w3.org/2000/svg" id="svg2" width="48" height="48" version="1.1"><metadata id="metadata90"/><title id="title8473">Faba Symbolic Icon Theme</title><g id="layer9" transform="translate(-289.0002,-137)"><path id="path3169" d="m 307.00023,155 0,16 12,0 0,-16 z" style="opacity:.2;fill:#e13f2b;stroke:none"/><path id="path3173" d="m 309.00019,147 0,2 8,0 0,-2 z m -4.3125,4 c -0.5625,0.0938 -1.6875,0.5 -1.6875,2 l 0,20 c 0,2 2,2 2,2 l 16,0 c 2,0 2,-2 2,-2 l 0,-20 c 0,0 0,-2 -2,-2 l -16,0 c 0,0 -0.125,-0.0312 -0.3125,0 z m 0.3125,2 16,0 0,20 -16,0 z" style="fill:#fff;fill-opacity:1;stroke:none"/><path id="path3175" d="m 307.00023,167 0,4 12,0 0,-4 z" style="fill:#e13f2b;stroke:none"/></g></svg>