<svg xmlns="http://www.w3.org/2000/svg" xmlns:svg="http://www.w3.org/2000/svg" xmlns:xlink="http://www.w3.org/1999/xlink" id="svg3759" width="48" height="48" version="1.1"><metadata id="metadata37"/><defs id="defs3761"><linearGradient id="linearGradient3857"><stop id="stop3859" offset="0" style="stop-color:#fff;stop-opacity:1"/><stop id="stop3861" offset="1" style="stop-color:#fff;stop-opacity:0"/></linearGradient><linearGradient id="linearGradient5048-2"><stop style="stop-color:#000;stop-opacity:0" id="stop5050-6" offset="0"/><stop style="stop-color:#000;stop-opacity:1" id="stop5056-4" offset=".5"/><stop style="stop-color:#000;stop-opacity:0" id="stop5052-5" offset="1"/></linearGradient><linearGradient id="linearGradient5060-6"><stop style="stop-color:#000;stop-opacity:1" id="stop5062-0" offset="0"/><stop style="stop-color:#000;stop-opacity:0" id="stop5064-0" offset="1"/></linearGradient><linearGradient id="linearGradient3846-7"><stop style="stop-color:#fff3cb;stop-opacity:1" id="stop3848-7" offset="0"/><stop style="stop-color:#fdde76;stop-opacity:1" id="stop3850-5" offset=".262"/><stop style="stop-color:#f9c440;stop-opacity:1" id="stop3852-9" offset=".661"/><stop style="stop-color:#e48b20;stop-opacity:1" id="stop3854-2" offset="1"/></linearGradient><linearGradient id="linearGradient4287" x1="24" x2="24" y1="-14.604" y2="54.67" gradientTransform="matrix(0.97781815,0,0,0.97679637,0.53236,0.98473607)" gradientUnits="userSpaceOnUse" xlink:href="#linearGradient3846-7"/><radialGradient id="radialGradient4290" cx="605.714" cy="486.648" r="117.143" fx="605.714" fy="486.648" gradientTransform="matrix(0.02409728,0,0,0.01544124,28.97761,36.588616)" gradientUnits="userSpaceOnUse" xlink:href="#linearGradient5060-6"/><radialGradient id="radialGradient4293" cx="605.714" cy="486.648" r="117.143" fx="605.714" fy="486.648" gradientTransform="matrix(-0.02409728,0,0,0.01544124,19.02239,36.588616)" gradientUnits="userSpaceOnUse" xlink:href="#linearGradient5060-6"/><linearGradient id="linearGradient4296" x1="302.857" x2="302.857" y1="366.648" y2="609.505" gradientTransform="matrix(0.0807696,0,0,0.01544124,-5.19244,36.588616)" gradientUnits="userSpaceOnUse" xlink:href="#linearGradient5048-2"/><linearGradient id="linearGradient3863" x1="24" x2="24" y1="0" y2="44" gradientUnits="userSpaceOnUse" xlink:href="#linearGradient3857"/></defs><g id="layer1"><g id="g3865"><rect style="opacity:.5;fill:url(#linearGradient4296);fill-opacity:1;fill-rule:nonzero;stroke:none;stroke-width:1;marker:none;visibility:visible;display:inline;overflow:visible" id="rect2879-1" width="39" height="3.75" x="4.5" y="42.25"/><path style="opacity:.5;fill:url(#radialGradient4293);fill-opacity:1;fill-rule:nonzero;stroke:none;stroke-width:1;marker:none;visibility:visible;display:inline;overflow:visible" id="path2881-5" d="m 4.49991,42.250236 c 0,0 0,3.7498 0,3.7498 -1.24095,0.007 -3.00001,-0.84016 -3.00001,-1.87516 0,-1.03501 1.3848,-1.87464 3.00001,-1.87464 z"/><path style="opacity:.5;fill:url(#radialGradient4290);fill-opacity:1;fill-rule:nonzero;stroke:none;stroke-width:1;marker:none;visibility:visible;display:inline;overflow:visible" id="path2883-9" d="m 43.50009,42.250236 c 0,0 0,3.7498 0,3.7498 1.24094,0.007 3.00001,-0.84016 3.00001,-1.87516 0,-1.03501 -1.38481,-1.87464 -3.00001,-1.87464 z"/></g><path id="path11155-5" d="M 45.68687,40.055616 26.58988,4.0554561 c -0.54891,-1 -1.54213,-1.55556 -2.64829,-1.55556 -1.10615,0 -2.10447,0.66666 -2.66171,1.66667 L 2.32509,40.166736 c -0.44617,0.88889 -0.45127,2.11112 0.0981,3.00001 0.54936,0.8889 1.43243,1.33334 2.53859,1.33334 l 38.05177,0 c 1.10616,0 2.10401,-0.55556 2.55019,-1.44445 0.55677,-0.88889 0.56141,-2.00001 0.12312,-3.00002 z" style="fill:url(#linearGradient4287);fill-opacity:1;fill-rule:nonzero;stroke:none"/><path id="path11155-8" d="M 45.68687,40.055616 26.58988,4.0554561 c -0.54891,-1 -1.54213,-1.55556 -2.64829,-1.55556 -1.10615,0 -2.10447,0.66666 -2.66171,1.66667 L 2.32509,40.166736 c -0.44617,0.88889 -0.45127,2.11112 0.0981,3.00001 0.54936,0.8889 1.43243,1.33334 2.53859,1.33334 l 38.05177,0 c 1.10616,0 2.10401,-0.55556 2.55019,-1.44445 0.55677,-0.88889 0.56141,-2.00001 0.12312,-3.00002 z" style="opacity:.81000000000000005;fill:none;stroke:#744000;stroke-width:1;stroke-miterlimit:4;stroke-opacity:1;stroke-dasharray:none"/><path id="path3843" d="M 23.9375 3 C 23.032245 3 22.198382 3.5455128 21.71875 4.40625 L 2.78125 40.40625 C 2.5510577 40.864855 2.4867152 41.446239 2.5625 42 C 2.6081666 41.787323 2.6901449 41.587756 2.78125 41.40625 L 21.71875 5.40625 C 22.198382 4.5455128 23.032245 4 23.9375 4 C 24.876246 4 25.692174 4.4357999 26.15625 5.28125 L 45.125 41.0625 L 45.21875 41.25 C 45.314527 41.468526 45.392555 41.685088 45.4375 41.90625 C 45.529295 41.371093 45.462797 40.806821 45.21875 40.25 L 45.125 40.0625 L 26.15625 4.28125 C 25.692174 3.4357999 24.876246 3 23.9375 3 z" style="fill:url(#linearGradient3863);fill-opacity:1;fill-rule:nonzero;stroke:none"/></g><g id="layer2"><path id="path3972" d="m 24.99999,33 -2,0 c 0,-3 -0.98417,-7.79026 -1,-11 l 0,-8 4,0 0,8 c -0.196,3.85555 -1,8 -1,11 z" style="font-size:40px;font-style:normal;font-variant:normal;font-weight:300;font-stretch:normal;line-height:125%;letter-spacing:0;word-spacing:0;opacity:.4;fill:#fff;fill-opacity:1;stroke:none;font-family:Ubuntu;-inkscape-font-specification:Ubuntu Light"/><path style="opacity:.4;color:#bebebe;fill:#fff;fill-opacity:1;stroke:none;stroke-width:5;marker:none;visibility:visible;display:inline;overflow:visible;enable-background:accumulate" id="path3974" d="m 330,268.25 a 2,2.25 0 1 1 -4,0 2,2.25 0 1 1 4,0 z" transform="matrix(1,0,0,0.88888889,-304.00001,-199.44444)"/><path style="font-size:40px;font-style:normal;font-variant:normal;font-weight:300;font-stretch:normal;line-height:125%;letter-spacing:0;word-spacing:0;fill:#1a1a1a;fill-opacity:1;stroke:none;font-family:Ubuntu;-inkscape-font-specification:Ubuntu Light" id="path4064" d="m 24.99999,32 -2,0 c 0,-3 -0.98417,-7.79026 -1,-11 l 0,-8 4,0 0,8 c -0.196,3.85555 -1,8 -1,11 z"/><path id="path4067" d="m 330,268.25 a 2,2.25 0 1 1 -4,0 2,2.25 0 1 1 4,0 z" transform="matrix(1,0,0,0.88888889,-304.00001,-200.44444)" style="color:#bebebe;fill:#1a1a1a;fill-opacity:1;stroke:none;stroke-width:5;marker:none;visibility:visible;display:inline;overflow:visible;enable-background:accumulate"/></g></svg>