<svg xmlns="http://www.w3.org/2000/svg" xmlns:svg="http://www.w3.org/2000/svg" xmlns:xlink="http://www.w3.org/1999/xlink" id="svg5014" width="48" height="48" version="1.1"><defs id="defs5016"><linearGradient id="linearGradient3971"><stop style="stop-color:#fff;stop-opacity:1" id="stop3973" offset="0"/><stop style="stop-color:#ff0007;stop-opacity:1" id="stop3975" offset="1"/></linearGradient><linearGradient id="linearGradient3930"><stop style="stop-color:#d7d7d7;stop-opacity:1" id="stop3932" offset="0"/><stop id="stop3934" offset=".751" style="stop-color:#c5c5c5;stop-opacity:1"/><stop id="stop3936" offset=".753" style="stop-color:#b6b6b6;stop-opacity:1"/><stop style="stop-color:#9b9b9b;stop-opacity:1" id="stop3938" offset="1"/></linearGradient><linearGradient id="linearGradient4235"><stop id="stop4237" offset="0" style="stop-color:#fff;stop-opacity:1"/><stop id="stop4239" offset="1" style="stop-color:#fff;stop-opacity:0"/></linearGradient><linearGradient id="linearGradient3591"><stop id="stop3593" offset="0" style="stop-color:#232323;stop-opacity:1"/><stop style="stop-color:#535353;stop-opacity:1" id="stop3595" offset=".758"/><stop style="stop-color:#676767;stop-opacity:1" id="stop3597" offset=".758"/><stop id="stop3599" offset="1" style="stop-color:#676767;stop-opacity:1"/></linearGradient><linearGradient id="linearGradient3988-5-5"><stop id="stop3990-5-2" offset="0" style="stop-color:#ededed;stop-opacity:1"/><stop id="stop3992-0-1" offset="1" style="stop-color:#b9b9b9;stop-opacity:1"/></linearGradient><linearGradient id="linearGradient3120" x1="26.031" x2="26.031" y1="22.635" y2="45.011" gradientTransform="matrix(0.74092183,0,0,-0.40221422,0.71271507,34.103957)" gradientUnits="userSpaceOnUse" xlink:href="#linearGradient3988-5-5"/><linearGradient id="linearGradient3129" x1="10.363" x2="10.421" y1="19" y2="5.292" gradientTransform="matrix(1.5254237,0,0,1.5254237,1.1975675,-5.0029686)" gradientUnits="userSpaceOnUse" xlink:href="#linearGradient3591"/><radialGradient id="radialGradient3161" cx="4.672" cy="19" r="1" fx="4.672" fy="19" gradientTransform="matrix(-5.9999994e-7,-1.7924659,2.0966214,-7.0181121e-7,-29.820178,19.867301)" gradientUnits="userSpaceOnUse" xlink:href="#linearGradient3971"/><linearGradient id="linearGradient3988-5-57"><stop id="stop3990-5-0" offset="0" style="stop-color:#a7a7a7;stop-opacity:1"/><stop style="stop-color:#e6e6e6;stop-opacity:1" id="stop4243" offset=".5"/><stop id="stop3992-0-5" offset="1" style="stop-color:#f2f2f2;stop-opacity:1"/></linearGradient><linearGradient id="linearGradient3968" x1="25" x2="25" y1="45" y2="42" gradientUnits="userSpaceOnUse" xlink:href="#linearGradient3960-3"/><linearGradient id="linearGradient3960-3"><stop id="stop3962-1" offset="0" style="stop-color:#000;stop-opacity:0"/><stop style="stop-color:#000;stop-opacity:1" id="stop3970-3" offset=".5"/><stop id="stop3964-2" offset="1" style="stop-color:#000;stop-opacity:0"/></linearGradient><radialGradient id="radialGradient3958" cx="40" cy="43.5" r="2" fx="40" fy="43.5" gradientTransform="matrix(1,0,0,0.75,0,10.875)" gradientUnits="userSpaceOnUse" xlink:href="#linearGradient3952-0"/><linearGradient id="linearGradient3952-0"><stop id="stop3954-1" offset="0" style="stop-color:#000;stop-opacity:1"/><stop id="stop3956-6" offset="1" style="stop-color:#000;stop-opacity:0"/></linearGradient><radialGradient id="radialGradient3950" cx="9" cy="43.5" r="2" fx="9" fy="43.5" gradientTransform="matrix(1,0,0,0.75,0,10.875)" gradientUnits="userSpaceOnUse" xlink:href="#linearGradient3944-3"/><linearGradient id="linearGradient3944-3"><stop id="stop3946-5" offset="0" style="stop-color:#000;stop-opacity:1"/><stop id="stop3948-5" offset="1" style="stop-color:#000;stop-opacity:0"/></linearGradient><linearGradient id="linearGradient3997" x1="25" x2="25" y1="45" y2="42" gradientUnits="userSpaceOnUse" xlink:href="#linearGradient3960-3"/><radialGradient id="radialGradient3999" cx="40" cy="43.5" r="2" fx="40" fy="43.5" gradientTransform="matrix(1,0,0,0.75,0,10.875)" gradientUnits="userSpaceOnUse" xlink:href="#linearGradient3952-0"/><radialGradient id="radialGradient3588" cx="9" cy="43.5" r="2" fx="9" fy="43.5" gradientTransform="matrix(1,0,0,0.75,0,10.875)" gradientUnits="userSpaceOnUse" xlink:href="#linearGradient3944-3"/><radialGradient id="radialGradient3656" cx="9" cy="43.5" r="2" fx="9" fy="43.5" gradientTransform="matrix(1,0,0,0.75,-5.0000003,-9.125001)" gradientUnits="userSpaceOnUse" xlink:href="#linearGradient3944-3"/><radialGradient id="radialGradient3659" cx="40" cy="43.5" r="2" fx="40" fy="43.5" gradientTransform="matrix(1,0,0,0.75,5.8674171,-9.125001)" gradientUnits="userSpaceOnUse" xlink:href="#linearGradient3952-0"/><linearGradient id="linearGradient3662" x1="25" x2="25" y1="45" y2="42" gradientTransform="matrix(1.3457637,0,0,1,-7.817562,-20.000001)" gradientUnits="userSpaceOnUse" xlink:href="#linearGradient3960-3"/><radialGradient id="radialGradient3671" cx="9" cy="43.5" r="2" fx="9" fy="43.5" gradientTransform="matrix(1.0571429,0,0,1.25,-6.4000003,-30.875001)" gradientUnits="userSpaceOnUse" xlink:href="#linearGradient3944-3"/><radialGradient id="radialGradient3674" cx="40" cy="43.5" r="2" fx="40" fy="43.5" gradientTransform="matrix(1.0571429,0,0,1.25,4.4674171,-30.875001)" gradientUnits="userSpaceOnUse" xlink:href="#linearGradient3952-0"/><linearGradient id="linearGradient3677" x1="25" x2="25" y1="45" y2="42" gradientTransform="matrix(1.4084181,0,0,1.6666667,-9.561478,-49.000001)" gradientUnits="userSpaceOnUse" xlink:href="#linearGradient3960-3"/><linearGradient id="linearGradient3725" x1="138.286" x2="138.286" y1="165.714" y2="97.143" gradientTransform="matrix(-0.175,0,0,0.175,52.20002,-21.000034)" gradientUnits="userSpaceOnUse" xlink:href="#linearGradient3988-5-57"/><linearGradient id="linearGradient4241" x1="24" x2="24" y1="-12" y2="8" gradientUnits="userSpaceOnUse" xlink:href="#linearGradient4235"/><linearGradient id="linearGradient3940" x1="10.359" x2="10.421" y1="18.358" y2="5.292" gradientTransform="matrix(1.5254237,0,0,1.5254237,1.1975675,-5.0029686)" gradientUnits="userSpaceOnUse" xlink:href="#linearGradient3930"/><radialGradient id="radialGradient3961" cx="4.672" cy="19" r="1" fx="4.672" fy="19" gradientTransform="matrix(-5.9999994e-7,-1.7924659,2.0966214,-7.0181121e-7,-29.820178,19.867301)" gradientUnits="userSpaceOnUse" xlink:href="#linearGradient3971"/><radialGradient id="radialGradient3969" cx="4.672" cy="19" r="1" fx="4.672" fy="19" gradientTransform="matrix(-5.9999994e-7,-1.7924659,2.0966214,-7.0181121e-7,-29.820178,19.867301)" gradientUnits="userSpaceOnUse" xlink:href="#linearGradient3971"/><linearGradient id="linearGradient3998" x1="138.286" x2="138.286" y1="142.857" y2="74.286" gradientTransform="matrix(-0.175,0,0,0.175,52.20002,-21.000034)" gradientUnits="userSpaceOnUse" xlink:href="#linearGradient3988-5-57"/><linearGradient id="linearGradient3760-9-1"><stop id="stop3762-6" offset="0" style="stop-color:#e44343;stop-opacity:1"/><stop id="stop3764-6" offset="1" style="stop-color:#ac0808;stop-opacity:1"/></linearGradient><linearGradient id="linearGradient3949"><stop id="stop3951" offset="0" style="stop-color:#000;stop-opacity:1"/><stop id="stop3953" offset="1" style="stop-color:#000;stop-opacity:0"/></linearGradient><linearGradient id="linearGradient4044" x1="11" x2="11" y1="0" y2="22" gradientTransform="translate(27,10)" gradientUnits="userSpaceOnUse" xlink:href="#linearGradient3760-9-1"/><radialGradient id="radialGradient4049" cx="11" cy="20" r="9" fx="11" fy="20" gradientTransform="matrix(1,0,0,0.22222222,0,15.555556)" gradientUnits="userSpaceOnUse" xlink:href="#linearGradient3949"/><radialGradient id="radialGradient4051" cx="11" cy="20" r="9" fx="11" fy="20" gradientTransform="matrix(1,0,0,0.22222222,0,15.555556)" gradientUnits="userSpaceOnUse" xlink:href="#linearGradient3949"/></defs><metadata id="metadata5019"/><g id="layer1" transform="translate(0,16)"><g id="g3601"><g id="g3983" transform="matrix(1.0571429,0,0,1.6666667,-1.4000003,-45.000001)" style="opacity:.2"><rect style="opacity:.6;fill:url(#linearGradient3997);fill-opacity:1;stroke:none" id="rect3985" width="31" height="3" x="9" y="42"/><path style="opacity:.6;fill:url(#radialGradient3999);fill-opacity:1;stroke:none" id="path3987" d="m 40,42 0,3 0.5,0 C 41.331,45 42,44.331 42,43.5 42,42.669 41.331,42 40.5,42 L 40,42 z"/><path style="opacity:.6;fill:url(#radialGradient3588);fill-opacity:1;stroke:none" id="path3989" d="M 8.40625,42 C 7.6271875,42 7,42.627187 7,43.40625 l 0,0.1875 C 7,44.372813 7.6271875,45 8.40625,45 L 9,45 9,42 8.40625,42 z"/></g><g id="g3978" transform="translate(-3e-7,-16.000001)" style="opacity:.2"><rect id="rect3938-1" width="31" height="3" x="9" y="42" style="opacity:.6;fill:url(#linearGradient3968);fill-opacity:1;stroke:none"/><path id="rect3940-00" d="m 40,42 0,3 0.5,0 C 41.331,45 42,44.331 42,43.5 42,42.669 41.331,42 40.5,42 L 40,42 z" style="opacity:.6;fill:url(#radialGradient3958);fill-opacity:1;stroke:none"/><path id="rect3942-9" d="M 8.40625,42 C 7.6271875,42 7,42.627187 7,43.40625 l 0,0.1875 C 7,44.372813 7.6271875,45 8.40625,45 L 9,45 9,42 8.40625,42 z" style="opacity:.6;fill:url(#radialGradient3950);fill-opacity:1;stroke:none"/></g></g><path id="rect3145" d="m 3.5,8 0,13 C 3.53125,23.53125 6,23.5 6,23.5 l 38,0 c 0,0 2.513864,-0.01386 2.5,-2.5 L 46.5,8 43,3.5 7,3.5 z" style="fill:url(#linearGradient3129);fill-opacity:1;stroke:none;display:inline"/><path style="fill:url(#linearGradient3940);fill-opacity:1;stroke:none;display:inline" id="path3160" d="m 5.5,8 0,7.5 16.5,0 6.4375,-2 16.0625,0 0,-5.5 -3.4,-4.5 -32.2,0 z"/><path id="path3942" d="m 5.5,8 0,7.5 16.5,0 6.625,-2 15.875,0 0,-5.5 -3.4,-4.5 -32.2,0 z" style="opacity:.61000001;fill:none;stroke:#000;stroke-opacity:1;display:inline"/><path id="rect3948" d="M 8.9687533,6.03125 40,6 40,7 8.9687533,7.03125 z" style="opacity:.6;fill:#000;fill-opacity:1;stroke:none;display:inline"/><path id="rect4753" d="m 5.9687524,9.031252 37.9999976,0 0,-0.999999 -37.9999976,0 z" style="opacity:.40000000000000002;fill:#fff;fill-opacity:1;stroke:none;display:inline"/><g id="g3948"><path style="fill:url(#radialGradient3161);fill-opacity:1;stroke:none" id="path4031" d="m 10.015625,13.484375 c -0.828428,0 -1.5,-0.671573 -1.5,-1.5 0,-0.828427 0.671572,-1.5 1.5,-1.5 0.828427,0 1.5,0.671573 1.5,1.5 0,0.828427 -0.671573,1.5 -1.5,1.5 z"/><path style="font-size:medium;font-style:normal;font-variant:normal;font-weight:400;font-stretch:normal;text-indent:0;text-align:start;text-decoration:none;line-height:normal;letter-spacing:normal;word-spacing:normal;text-transform:none;direction:ltr;block-progression:tb;writing-mode:lr-tb;text-anchor:start;baseline-shift:baseline;opacity:.61000001;color:#000;fill:#000;fill-opacity:1;stroke:none;stroke-width:.66666669;marker:none;visibility:visible;display:inline;overflow:visible;enable-background:accumulate;font-family:Sans;-inkscape-font-specification:Sans" id="path4041" d="m 12.03125,11.984375 c 0,-1.098647 -0.916979,-2.015625 -2.015625,-2.015625 C 8.916978,9.96875 8,10.885728 8,11.984375 8,13.083022 8.916978,14 10.015625,14 c 1.098646,0 2.015625,-0.916978 2.015625,-2.015625 z m -1.03125,0 c 0,0.558207 -0.426168,0.984375 -0.984375,0.984375 -0.558207,0 -0.984375,-0.426168 -0.984375,-0.984375 C 9.03125,11.426168 9.457418,11 10.015625,11 10.573832,11 11,11.426168 11,11.984375 z"/></g><rect id="rect3615" width="43.661" height="5" x="3.114" y="21" style="opacity:.12000002;fill:url(#linearGradient3677);fill-opacity:1;stroke:none"/><path id="path3617" d="m 46.753134,21 0,5 0.528571,0 c 0.878486,0 1.585715,-1.115 1.585715,-2.5 0,-1.385 -0.707229,-2.5 -1.585715,-2.5 l -0.528571,0 z" style="opacity:.12000002;fill:url(#radialGradient3674);fill-opacity:1;stroke:none"/><path id="path3619" d="M 2.4866072,21 C 1.6630268,21 1,22.045312 1,23.34375 l 0,0.3125 C 1,24.954689 1.6630268,26 2.4866072,26 l 0.6276786,0 0,-5 -0.6276786,0 z" style="opacity:.12000002;fill:url(#radialGradient3671);fill-opacity:1;stroke:none"/><rect style="opacity:.12000002;fill:url(#linearGradient3662);fill-opacity:1;stroke:none" id="rect3623" width="41.719" height="3" x="4.294" y="22"/><path style="opacity:.12000002;fill:url(#radialGradient3659);fill-opacity:1;stroke:none" id="path3625" d="m 45.867418,21.999999 0,3 0.5,0 c 0.831,0 1.5,-0.669 1.5,-1.5 0,-0.831 -0.669,-1.5 -1.5,-1.5 l -0.5,0 z"/><path style="opacity:.12000002;fill:url(#radialGradient3656);fill-opacity:1;stroke:none" id="path3627" d="m 3.4062497,21.999999 c -0.7790625,0 -1.40625,0.627187 -1.40625,1.40625 l 0,0.1875 c 0,0.779063 0.6271875,1.40625 1.40625,1.40625 l 0.59375,0 0,-3 -0.59375,0 z"/><path id="rect3886" d="m 11,-13 c -0.554,0 -1,0.446 -1,1 l 0,18 29,0 0,-18 c 0,-0.554 -0.446,-1 -1,-1 z" style="opacity:.41;color:#bebebe;fill:#000;fill-opacity:1;fill-rule:nonzero;stroke:none;stroke-width:0;marker:none;visibility:visible;display:inline;overflow:visible;enable-background:accumulate"/><path style="opacity:.61000001;fill:none;stroke:#000;stroke-linejoin:round;stroke-opacity:1;display:inline" id="path4233" d="m 3.5,8 0,13 c 0,2.53125 2.5,2.5 2.5,2.5 l 38,0 c 0,0 2.544194,0.107456 2.5,-2.5 L 46.5,8 43,3.5 7,3.5 z"/><path id="rect3882-6" d="m 11,-12 0,18 27,0 0,-18 z" style="color:#bebebe;fill:url(#linearGradient3998);fill-opacity:1;fill-rule:nonzero;stroke:none;stroke-width:0;marker:none;visibility:visible;display:inline;overflow:visible;enable-background:accumulate"/><path id="path3893" d="m 11,-12 0,18 1,0 0,-17 25,0 0,17 1,0 0,-18 z" style="opacity:.40000000000000002;fill:url(#linearGradient4241);fill-opacity:1;stroke:none"/><path id="rect3952" d="m 9.978796,17.985599 30.032928,0 0,0.999998 -30.032928,0 z" style="opacity:.5;fill:#000;fill-opacity:1;stroke:none;display:inline"/><path id="path3983" d="m 40,27 c 0,0 -1,-2 -1,-8 0,0 -19.355891,0 -28,0 0,6 -1.013,8 -1.013,8 z" style="opacity:.41000001;fill:none;stroke:#000;stroke-width:2;stroke-miterlimit:4;stroke-opacity:1;stroke-dasharray:none;display:inline"/><path id="rect3954" d="m 9,19.000003 32.011723,-0.0144 0,0.999997 L 9,20 z" style="opacity:.4;fill:#000;fill-opacity:1;stroke:none;display:inline"/><path style="fill:url(#linearGradient3120);fill-opacity:1;stroke:none;display:inline" id="path4030" d="m 40,27 c 0,0 -1,-2 -1,-8 0,0 -19.355891,0 -28,0 0,6 -1.013,8 -1.013,8 z"/><rect id="rect3251" width="30" height="1" x="10" y="17" style="opacity:.2;fill:#fff;fill-opacity:1"/><g id="g3952" transform="matrix(0.49612403,0,0,0.49612403,9.0310078,5.0542636)"><path id="path3954" d="m 10.015625,13.484375 c -0.828428,0 -1.5,-0.671573 -1.5,-1.5 0,-0.828427 0.671572,-1.5 1.5,-1.5 0.828427,0 1.5,0.671573 1.5,1.5 0,0.828427 -0.671573,1.5 -1.5,1.5 z" style="fill:url(#radialGradient3961);fill-opacity:1;stroke:none"/><path id="path3956" d="m 12.03125,11.984375 c 0,-1.098647 -0.916979,-2.015625 -2.015625,-2.015625 C 8.916978,9.96875 8,10.885728 8,11.984375 8,13.083022 8.916978,14 10.015625,14 c 1.098646,0 2.015625,-0.916978 2.015625,-2.015625 z m -1.03125,0 c 0,0.558207 -0.426168,0.984375 -0.984375,0.984375 -0.558207,0 -0.984375,-0.426168 -0.984375,-0.984375 C 9.03125,11.426168 9.457418,11 10.015625,11 10.573832,11 11,11.426168 11,11.984375 z" style="font-size:medium;font-style:normal;font-variant:normal;font-weight:400;font-stretch:normal;text-indent:0;text-align:start;text-decoration:none;line-height:normal;letter-spacing:normal;word-spacing:normal;text-transform:none;direction:ltr;block-progression:tb;writing-mode:lr-tb;text-anchor:start;baseline-shift:baseline;opacity:.61000001;color:#000;fill:#000;fill-opacity:1;stroke:none;stroke-width:.66666669;marker:none;visibility:visible;display:inline;overflow:visible;enable-background:accumulate;font-family:Sans;-inkscape-font-specification:Sans"/></g><g id="g3963" transform="matrix(0.49612403,0,0,0.49612403,12.031008,5.0542636)"><path style="fill:url(#radialGradient3969);fill-opacity:1;stroke:none" id="path3965" d="m 10.015625,13.484375 c -0.828428,0 -1.5,-0.671573 -1.5,-1.5 0,-0.828427 0.671572,-1.5 1.5,-1.5 0.828427,0 1.5,0.671573 1.5,1.5 0,0.828427 -0.671573,1.5 -1.5,1.5 z"/><path style="font-size:medium;font-style:normal;font-variant:normal;font-weight:400;font-stretch:normal;text-indent:0;text-align:start;text-decoration:none;line-height:normal;letter-spacing:normal;word-spacing:normal;text-transform:none;direction:ltr;block-progression:tb;writing-mode:lr-tb;text-anchor:start;baseline-shift:baseline;opacity:.61000001;color:#000;fill:#000;fill-opacity:1;stroke:none;stroke-width:.66666669;marker:none;visibility:visible;display:inline;overflow:visible;enable-background:accumulate;font-family:Sans;-inkscape-font-specification:Sans" id="path3967" d="m 12.03125,11.984375 c 0,-1.098647 -0.916979,-2.015625 -2.015625,-2.015625 C 8.916978,9.96875 8,10.885728 8,11.984375 8,13.083022 8.916978,14 10.015625,14 c 1.098646,0 2.015625,-0.916978 2.015625,-2.015625 z m -1.03125,0 c 0,0.558207 -0.426168,0.984375 -0.984375,0.984375 -0.558207,0 -0.984375,-0.426168 -0.984375,-0.984375 C 9.03125,11.426168 9.457418,11 10.015625,11 10.573832,11 11,11.426168 11,11.984375 z"/></g><path style="opacity:.41000001;color:#bebebe;fill:#000;fill-opacity:1;fill-rule:nonzero;stroke:none;stroke-width:0;marker:none;visibility:visible;display:inline;overflow:visible;enable-background:accumulate" id="path3990" d="m 11,1 c -0.554,0 -1,0.446 -1,1 l 0,4 29,0 0,-4 C 39,1.446 38.554,1 38,1 z"/><path style="color:#bebebe;fill:url(#linearGradient3725);fill-opacity:1;fill-rule:nonzero;stroke:none;stroke-width:0;marker:none;visibility:visible;display:inline;overflow:visible;enable-background:accumulate" id="path3992" d="m 11,2 0,4 27,0 0,-4 z"/><path style="opacity:.4;fill:url(#linearGradient4241);fill-opacity:1;stroke:none" id="path3994" d="m 11,2 0,4 1,0 0,-3 25,0 0,3 1,0 0,-4 z"/><path id="path4037" d="M 10,2 5.2060808,-1.4368057 6.1922268,-3.4999999 2.3844536,-9 l 5.3582446,4.9494445 -0.986146,2.0631944 z" style="opacity:.8;fill:#000;fill-opacity:1;stroke:none"/><path style="opacity:.8;fill:#000;fill-opacity:1;stroke:none" id="path4332" d="m 39,2 4.494235,-3.5367223 -0.886,-2.2629999 L 46.615546,-9 l -5.557781,4.6497222 0.885999,2.2630001 z"/><rect id="rect4334" width="96" height="96" x="-24" y="-40" style="opacity:.29999999999999999;fill:none;fill-opacity:1;stroke:none"/></g><g id="layer2" transform="translate(0,16)"><g id="g4055"><path style="opacity:.4;fill:url(#radialGradient4049);fill-opacity:1;stroke:none" id="path3163" d="M 20,20 A 9,2 0 1 1 2,20 9,2 0 1 1 20,20 z" transform="matrix(1,0,0,1.5,27,-1)"/><path id="path3995" d="M 20,20 A 9,2 0 1 1 2,20 9,2 0 1 1 20,20 z" transform="matrix(0.66666667,0,0,1,30.666667,10)" style="opacity:.8;fill:url(#radialGradient4051);fill-opacity:1;stroke:none"/><path style="fill:url(#linearGradient4044);fill-opacity:1;fill-rule:evenodd;stroke:none" id="path4791" d="m 38,11.5 c -5.240783,0 -9.5,4.259217 -9.5,9.5 0,5.240782 4.259217,9.5 9.5,9.5 5.240783,0 9.5,-4.259218 9.5,-9.5 0,-5.240783 -4.259217,-9.5 -9.5,-9.5 z"/><path id="path3804" d="m 28.5,21 c 0,-5.240783 4.259217,-9.5 9.5,-9.5 5.240782,0 9.5,4.259217 9.5,9.5 0,5.240783 -4.259218,9.5 -9.5,9.5 -5.240783,0 -9.5,-4.259217 -9.5,-9.5 z" style="opacity:.81000001;fill:none;stroke:#5c0303;stroke-opacity:1"/><path style="opacity:.2;fill:#fff;fill-opacity:1;fill-rule:evenodd;stroke:none" id="path3806" d="m 38,12 c -4.969881,0 -9,4.030119 -9,9 0,0.171541 0.02177,0.330826 0.03125,0.5 C 29.2963,16.767849 33.20166,13 38,13 c 4.79834,0 8.7037,3.767849 8.96875,8.5 C 46.978226,21.330826 47,21.171541 47,21 47,16.030119 42.969881,12 38,12 z"/><path id="path3820" d="m 38,31 c -4.969881,0 -9,-4.030119 -9,-9 0,-0.171541 0.02177,-0.330826 0.03125,-0.5 C 29.2963,26.232151 33.20166,30 38,30 42.79834,30 46.7037,26.232151 46.96875,21.5 46.97825,21.669174 47,21.828459 47,22 c 0,4.969881 -4.030119,9 -9,9 z" style="opacity:.2;fill:#000;fill-opacity:1;fill-rule:evenodd;stroke:none"/><path id="path4038" d="m 34,18 0,1 c 0,0.27614 0.10029,0.53778 0.28125,0.71875 L 36.5625,22 34.28125,24.28125 C 34.10029,24.46222 34,24.723859 34,25 l 0,1 1,0 c 0.27614,0 0.53779,-0.10028 0.71875,-0.28125 L 38,23.4375 40.28125,25.71875 C 40.46221,25.89972 40.727796,25.953526 41,26 l 1,0 0,-1 c 0,-0.27614 -0.10029,-0.53778 -0.28125,-0.71875 L 39.4375,22 41.71875,19.71875 C 41.89971,19.53778 42,19.27614 42,19 l 0,-1 -1,0 c -0.27614,0 -0.53779,0.10028 -0.71875,0.28125 L 38,20.5625 35.71875,18.28125 C 35.53779,18.10028 35.276143,18 35,18 z" style="color:#000;fill:#000;fill-opacity:1;fill-rule:nonzero;stroke:none;stroke-width:2;marker:none;visibility:visible;display:inline;overflow:visible;enable-background:new;opacity:.3"/><path style="color:#000;fill:#fff;fill-opacity:1;fill-rule:nonzero;stroke:none;stroke-width:2;marker:none;visibility:visible;display:inline;overflow:visible;enable-background:new" id="path5757" d="m 34,17 0,1 c 0,0.27614 0.10029,0.53778 0.28125,0.71875 L 36.5625,21 34.28125,23.28125 C 34.10029,23.46222 34,23.723859 34,24 l 0,1 1,0 c 0.27614,0 0.53779,-0.10028 0.71875,-0.28125 L 38,22.4375 40.28125,24.71875 C 40.46221,24.89972 40.727796,24.953526 41,25 l 1,0 0,-1 c 0,-0.27614 -0.10029,-0.53778 -0.28125,-0.71875 L 39.4375,21 41.71875,18.71875 C 41.89971,18.53778 42,18.27614 42,18 l 0,-1 -1,0 c -0.27614,0 -0.53779,0.10028 -0.71875,0.28125 L 38,19.5625 35.71875,17.28125 C 35.53779,17.10028 35.276143,17 35,17 z"/></g></g></svg>