<svg xmlns="http://www.w3.org/2000/svg" xmlns:svg="http://www.w3.org/2000/svg" xmlns:xlink="http://www.w3.org/1999/xlink" id="svg5014" width="48" height="48" version="1.1"><defs id="defs5016"><linearGradient id="linearGradient4140"><stop id="stop4142" offset="0" style="stop-color:#fff;stop-opacity:1"/><stop id="stop4144" offset="1" style="stop-color:#ffcb00;stop-opacity:1"/></linearGradient><linearGradient id="linearGradient3930"><stop style="stop-color:#d7d7d7;stop-opacity:1" id="stop3932" offset="0"/><stop id="stop3934" offset=".751" style="stop-color:#c5c5c5;stop-opacity:1"/><stop id="stop3936" offset=".753" style="stop-color:#b6b6b6;stop-opacity:1"/><stop style="stop-color:#9b9b9b;stop-opacity:1" id="stop3938" offset="1"/></linearGradient><linearGradient id="linearGradient4235"><stop id="stop4237" offset="0" style="stop-color:#fff;stop-opacity:1"/><stop id="stop4239" offset="1" style="stop-color:#fff;stop-opacity:0"/></linearGradient><linearGradient id="linearGradient3591"><stop id="stop3593" offset="0" style="stop-color:#232323;stop-opacity:1"/><stop style="stop-color:#535353;stop-opacity:1" id="stop3595" offset=".758"/><stop style="stop-color:#676767;stop-opacity:1" id="stop3597" offset=".758"/><stop id="stop3599" offset="1" style="stop-color:#676767;stop-opacity:1"/></linearGradient><linearGradient id="linearGradient3988-5-5"><stop id="stop3990-5-2" offset="0" style="stop-color:#ededed;stop-opacity:1"/><stop id="stop3992-0-1" offset="1" style="stop-color:#b9b9b9;stop-opacity:1"/></linearGradient><linearGradient id="linearGradient3120" x1="26.031" x2="26.031" y1="22.635" y2="45.011" gradientTransform="matrix(0.74092183,0,0,-0.40221422,0.71271507,34.103957)" gradientUnits="userSpaceOnUse" xlink:href="#linearGradient3988-5-5"/><linearGradient id="linearGradient3129" x1="10.363" x2="10.421" y1="19" y2="5.292" gradientTransform="matrix(1.5254237,0,0,1.5254237,1.1975675,-5.0029686)" gradientUnits="userSpaceOnUse" xlink:href="#linearGradient3591"/><radialGradient id="radialGradient3161" cx="4.672" cy="19" r="1" fx="4.672" fy="19" gradientTransform="matrix(-5.9999994e-7,-1.7924659,2.0966214,-7.0181121e-7,-29.820178,19.867301)" gradientUnits="userSpaceOnUse" xlink:href="#linearGradient4140"/><linearGradient id="linearGradient3988-5-57"><stop id="stop3990-5-0" offset="0" style="stop-color:#a7a7a7;stop-opacity:1"/><stop style="stop-color:#e6e6e6;stop-opacity:1" id="stop4243" offset=".5"/><stop id="stop3992-0-5" offset="1" style="stop-color:#f2f2f2;stop-opacity:1"/></linearGradient><linearGradient id="linearGradient3968" x1="25" x2="25" y1="45" y2="42" gradientUnits="userSpaceOnUse" xlink:href="#linearGradient3960-3"/><linearGradient id="linearGradient3960-3"><stop id="stop3962-1" offset="0" style="stop-color:#000;stop-opacity:0"/><stop style="stop-color:#000;stop-opacity:1" id="stop3970-3" offset=".5"/><stop id="stop3964-2" offset="1" style="stop-color:#000;stop-opacity:0"/></linearGradient><radialGradient id="radialGradient3958" cx="40" cy="43.5" r="2" fx="40" fy="43.5" gradientTransform="matrix(1,0,0,0.75,0,10.875)" gradientUnits="userSpaceOnUse" xlink:href="#linearGradient3952-0"/><linearGradient id="linearGradient3952-0"><stop id="stop3954-1" offset="0" style="stop-color:#000;stop-opacity:1"/><stop id="stop3956-6" offset="1" style="stop-color:#000;stop-opacity:0"/></linearGradient><radialGradient id="radialGradient3950" cx="9" cy="43.5" r="2" fx="9" fy="43.5" gradientTransform="matrix(1,0,0,0.75,0,10.875)" gradientUnits="userSpaceOnUse" xlink:href="#linearGradient3944-3"/><linearGradient id="linearGradient3944-3"><stop id="stop3946-5" offset="0" style="stop-color:#000;stop-opacity:1"/><stop id="stop3948-5" offset="1" style="stop-color:#000;stop-opacity:0"/></linearGradient><linearGradient id="linearGradient3997" x1="25" x2="25" y1="45" y2="42" gradientUnits="userSpaceOnUse" xlink:href="#linearGradient3960-3"/><radialGradient id="radialGradient3999" cx="40" cy="43.5" r="2" fx="40" fy="43.5" gradientTransform="matrix(1,0,0,0.75,0,10.875)" gradientUnits="userSpaceOnUse" xlink:href="#linearGradient3952-0"/><radialGradient id="radialGradient3588" cx="9" cy="43.5" r="2" fx="9" fy="43.5" gradientTransform="matrix(1,0,0,0.75,0,10.875)" gradientUnits="userSpaceOnUse" xlink:href="#linearGradient3944-3"/><radialGradient id="radialGradient3656" cx="9" cy="43.5" r="2" fx="9" fy="43.5" gradientTransform="matrix(1,0,0,0.75,-5.0000003,-9.125001)" gradientUnits="userSpaceOnUse" xlink:href="#linearGradient3944-3"/><radialGradient id="radialGradient3659" cx="40" cy="43.5" r="2" fx="40" fy="43.5" gradientTransform="matrix(1,0,0,0.75,5.8674171,-9.125001)" gradientUnits="userSpaceOnUse" xlink:href="#linearGradient3952-0"/><linearGradient id="linearGradient3662" x1="25" x2="25" y1="45" y2="42" gradientTransform="matrix(1.3457637,0,0,1,-7.817562,-20.000001)" gradientUnits="userSpaceOnUse" xlink:href="#linearGradient3960-3"/><radialGradient id="radialGradient3671" cx="9" cy="43.5" r="2" fx="9" fy="43.5" gradientTransform="matrix(1.0571429,0,0,1.25,-6.4000003,-30.875001)" gradientUnits="userSpaceOnUse" xlink:href="#linearGradient3944-3"/><radialGradient id="radialGradient3674" cx="40" cy="43.5" r="2" fx="40" fy="43.5" gradientTransform="matrix(1.0571429,0,0,1.25,4.4674171,-30.875001)" gradientUnits="userSpaceOnUse" xlink:href="#linearGradient3952-0"/><linearGradient id="linearGradient3677" x1="25" x2="25" y1="45" y2="42" gradientTransform="matrix(1.4084181,0,0,1.6666667,-9.561478,-49.000001)" gradientUnits="userSpaceOnUse" xlink:href="#linearGradient3960-3"/><linearGradient id="linearGradient3725" x1="138.286" x2="138.286" y1="165.714" y2="97.143" gradientTransform="matrix(-0.175,0,0,0.175,52.20002,-21.000034)" gradientUnits="userSpaceOnUse" xlink:href="#linearGradient3988-5-57"/><linearGradient id="linearGradient4241" x1="24" x2="24" y1="-12" y2="8" gradientUnits="userSpaceOnUse" xlink:href="#linearGradient4235"/><linearGradient id="linearGradient3940" x1="10.359" x2="10.421" y1="18.358" y2="5.292" gradientTransform="matrix(1.5254237,0,0,1.5254237,1.1975675,-5.0029686)" gradientUnits="userSpaceOnUse" xlink:href="#linearGradient3930"/><radialGradient id="radialGradient3961" cx="4.672" cy="19" r="1" fx="4.672" fy="19" gradientTransform="matrix(-5.9999994e-7,-1.7924659,2.0966214,-7.0181121e-7,-29.820178,19.867301)" gradientUnits="userSpaceOnUse" xlink:href="#linearGradient4140"/><radialGradient id="radialGradient3969" cx="4.672" cy="19" r="1" fx="4.672" fy="19" gradientTransform="matrix(-5.9999994e-7,-1.7924659,2.0966214,-7.0181121e-7,-29.820178,19.867301)" gradientUnits="userSpaceOnUse" xlink:href="#linearGradient4140"/><linearGradient id="linearGradient3998" x1="138.286" x2="138.286" y1="142.857" y2="74.286" gradientTransform="matrix(-0.175,0,0,0.175,52.20002,-21.000034)" gradientUnits="userSpaceOnUse" xlink:href="#linearGradient3988-5-57"/><linearGradient id="linearGradient5048-2"><stop style="stop-color:#000;stop-opacity:0" id="stop5050-6" offset="0"/><stop style="stop-color:#000;stop-opacity:1" id="stop5056-4" offset=".5"/><stop style="stop-color:#000;stop-opacity:0" id="stop5052-5" offset="1"/></linearGradient><linearGradient id="linearGradient5060-6"><stop style="stop-color:#000;stop-opacity:1" id="stop5062-0" offset="0"/><stop style="stop-color:#000;stop-opacity:0" id="stop5064-0" offset="1"/></linearGradient><linearGradient id="linearGradient4047" x1="302.857" x2="302.857" y1="366.648" y2="609.505" gradientTransform="matrix(0.04128206,0,0,0.00823529,24.079486,26.480562)" gradientUnits="userSpaceOnUse" xlink:href="#linearGradient5048-2"/><radialGradient id="radialGradient4049" cx="605.714" cy="486.648" r="117.143" fx="605.714" fy="486.648" gradientTransform="matrix(-0.01231633,0,0,0.00823529,36.4559,26.480562)" gradientUnits="userSpaceOnUse" xlink:href="#linearGradient5060-6"/><radialGradient id="radialGradient4051" cx="605.714" cy="486.648" r="117.143" fx="605.714" fy="486.648" gradientTransform="matrix(0.01231633,0,0,0.00823529,41.544101,26.480562)" gradientUnits="userSpaceOnUse" xlink:href="#linearGradient5060-6"/><linearGradient id="linearGradient3846-7"><stop style="stop-color:#fff3cb;stop-opacity:1" id="stop3848-7" offset="0"/><stop style="stop-color:#fdde76;stop-opacity:1" id="stop3850-5" offset=".262"/><stop style="stop-color:#f9c440;stop-opacity:1" id="stop3852-9" offset=".661"/><stop style="stop-color:#e48b20;stop-opacity:1" id="stop3854-2" offset="1"/></linearGradient><linearGradient id="linearGradient4134" x1="24" x2="24" y1="-14.604" y2="54.67" gradientTransform="matrix(0.46765214,0,0,0.46716346,24.77635,9.7100489)" gradientUnits="userSpaceOnUse" xlink:href="#linearGradient3846-7"/></defs><metadata id="metadata5019"/><g id="layer1" transform="translate(0,16)"><g id="g3601"><g id="g3983" transform="matrix(1.0571429,0,0,1.6666667,-1.4000003,-45.000001)" style="opacity:.2"><rect style="opacity:.6;fill:url(#linearGradient3997);fill-opacity:1;stroke:none" id="rect3985" width="31" height="3" x="9" y="42"/><path style="opacity:.6;fill:url(#radialGradient3999);fill-opacity:1;stroke:none" id="path3987" d="m 40,42 0,3 0.5,0 C 41.331,45 42,44.331 42,43.5 42,42.669 41.331,42 40.5,42 L 40,42 z"/><path style="opacity:.6;fill:url(#radialGradient3588);fill-opacity:1;stroke:none" id="path3989" d="M 8.40625,42 C 7.6271875,42 7,42.627187 7,43.40625 l 0,0.1875 C 7,44.372813 7.6271875,45 8.40625,45 L 9,45 9,42 8.40625,42 z"/></g><g id="g3978" transform="translate(-3e-7,-16.000001)" style="opacity:.2"><rect id="rect3938-1" width="31" height="3" x="9" y="42" style="opacity:.6;fill:url(#linearGradient3968);fill-opacity:1;stroke:none"/><path id="rect3940-00" d="m 40,42 0,3 0.5,0 C 41.331,45 42,44.331 42,43.5 42,42.669 41.331,42 40.5,42 L 40,42 z" style="opacity:.6;fill:url(#radialGradient3958);fill-opacity:1;stroke:none"/><path id="rect3942-9" d="M 8.40625,42 C 7.6271875,42 7,42.627187 7,43.40625 l 0,0.1875 C 7,44.372813 7.6271875,45 8.40625,45 L 9,45 9,42 8.40625,42 z" style="opacity:.6;fill:url(#radialGradient3950);fill-opacity:1;stroke:none"/></g></g><path id="rect3145" d="m 3.5,8 0,13 C 3.53125,23.53125 6,23.5 6,23.5 l 38,0 c 0,0 2.513864,-0.01386 2.5,-2.5 L 46.5,8 43,3.5 7,3.5 z" style="fill:url(#linearGradient3129);fill-opacity:1;stroke:none;display:inline"/><path style="fill:url(#linearGradient3940);fill-opacity:1;stroke:none;display:inline" id="path3160" d="m 5.5,8 0,7.5 16.5,0 6.4375,-2 16.0625,0 0,-5.5 -3.4,-4.5 -32.2,0 z"/><path id="path3942" d="m 5.5,8 0,7.5 16.5,0 6.625,-2 15.875,0 0,-5.5 -3.4,-4.5 -32.2,0 z" style="opacity:.61000001;fill:none;stroke:#000;stroke-opacity:1;display:inline"/><path id="rect3948" d="M 8.9687533,6.03125 40,6 40,7 8.9687533,7.03125 z" style="opacity:.6;fill:#000;fill-opacity:1;stroke:none;display:inline"/><path id="rect4753" d="m 5.9687524,9.031252 37.9999976,0 0,-0.999999 -37.9999976,0 z" style="opacity:.40000000000000002;fill:#fff;fill-opacity:1;stroke:none;display:inline"/><g id="g3948"><path style="fill:url(#radialGradient3161);fill-opacity:1;stroke:none" id="path4031" d="m 10.015625,13.484375 c -0.828428,0 -1.5,-0.671573 -1.5,-1.5 0,-0.828427 0.671572,-1.5 1.5,-1.5 0.828427,0 1.5,0.671573 1.5,1.5 0,0.828427 -0.671573,1.5 -1.5,1.5 z"/><path style="font-size:medium;font-style:normal;font-variant:normal;font-weight:400;font-stretch:normal;text-indent:0;text-align:start;text-decoration:none;line-height:normal;letter-spacing:normal;word-spacing:normal;text-transform:none;direction:ltr;block-progression:tb;writing-mode:lr-tb;text-anchor:start;baseline-shift:baseline;opacity:.61000001;color:#000;fill:#000;fill-opacity:1;stroke:none;stroke-width:.66666669;marker:none;visibility:visible;display:inline;overflow:visible;enable-background:accumulate;font-family:Sans;-inkscape-font-specification:Sans" id="path4041" d="m 12.03125,11.984375 c 0,-1.098647 -0.916979,-2.015625 -2.015625,-2.015625 C 8.916978,9.96875 8,10.885728 8,11.984375 8,13.083022 8.916978,14 10.015625,14 c 1.098646,0 2.015625,-0.916978 2.015625,-2.015625 z m -1.03125,0 c 0,0.558207 -0.426168,0.984375 -0.984375,0.984375 -0.558207,0 -0.984375,-0.426168 -0.984375,-0.984375 C 9.03125,11.426168 9.457418,11 10.015625,11 10.573832,11 11,11.426168 11,11.984375 z"/></g><rect id="rect3615" width="43.661" height="5" x="3.114" y="21" style="opacity:.12000002;fill:url(#linearGradient3677);fill-opacity:1;stroke:none"/><path id="path3617" d="m 46.753134,21 0,5 0.528571,0 c 0.878486,0 1.585715,-1.115 1.585715,-2.5 0,-1.385 -0.707229,-2.5 -1.585715,-2.5 l -0.528571,0 z" style="opacity:.12000002;fill:url(#radialGradient3674);fill-opacity:1;stroke:none"/><path id="path3619" d="M 2.4866072,21 C 1.6630268,21 1,22.045312 1,23.34375 l 0,0.3125 C 1,24.954689 1.6630268,26 2.4866072,26 l 0.6276786,0 0,-5 -0.6276786,0 z" style="opacity:.12000002;fill:url(#radialGradient3671);fill-opacity:1;stroke:none"/><rect style="opacity:.12000002;fill:url(#linearGradient3662);fill-opacity:1;stroke:none" id="rect3623" width="41.719" height="3" x="4.294" y="22"/><path style="opacity:.12000002;fill:url(#radialGradient3659);fill-opacity:1;stroke:none" id="path3625" d="m 45.867418,21.999999 0,3 0.5,0 c 0.831,0 1.5,-0.669 1.5,-1.5 0,-0.831 -0.669,-1.5 -1.5,-1.5 l -0.5,0 z"/><path style="opacity:.12000002;fill:url(#radialGradient3656);fill-opacity:1;stroke:none" id="path3627" d="m 3.4062497,21.999999 c -0.7790625,0 -1.40625,0.627187 -1.40625,1.40625 l 0,0.1875 c 0,0.779063 0.6271875,1.40625 1.40625,1.40625 l 0.59375,0 0,-3 -0.59375,0 z"/><path id="rect3886" d="m 11,-13 c -0.554,0 -1,0.446 -1,1 l 0,18 29,0 0,-18 c 0,-0.554 -0.446,-1 -1,-1 z" style="opacity:.41;color:#bebebe;fill:#000;fill-opacity:1;fill-rule:nonzero;stroke:none;stroke-width:0;marker:none;visibility:visible;display:inline;overflow:visible;enable-background:accumulate"/><path style="opacity:.61000001;fill:none;stroke:#000;stroke-linejoin:round;stroke-opacity:1;display:inline" id="path4233" d="m 3.5,8 0,13 c 0,2.53125 2.5,2.5 2.5,2.5 l 38,0 c 0,0 2.544194,0.107456 2.5,-2.5 L 46.5,8 43,3.5 7,3.5 z"/><path id="rect3882-6" d="m 11,-12 0,18 27,0 0,-18 z" style="color:#bebebe;fill:url(#linearGradient3998);fill-opacity:1;fill-rule:nonzero;stroke:none;stroke-width:0;marker:none;visibility:visible;display:inline;overflow:visible;enable-background:accumulate"/><path id="path3893" d="m 11,-12 0,18 1,0 0,-17 25,0 0,17 1,0 0,-18 z" style="opacity:.40000000000000002;fill:url(#linearGradient4241);fill-opacity:1;stroke:none"/><path id="rect3952" d="m 9.978796,17.985599 30.032928,0 0,0.999998 -30.032928,0 z" style="opacity:.5;fill:#000;fill-opacity:1;stroke:none;display:inline"/><path id="path3983" d="m 40,27 c 0,0 -1,-2 -1,-8 0,0 -19.355891,0 -28,0 0,6 -1.013,8 -1.013,8 z" style="opacity:.41000001;fill:none;stroke:#000;stroke-width:2;stroke-miterlimit:4;stroke-opacity:1;stroke-dasharray:none;display:inline"/><path id="rect3954" d="m 9,19.000003 32.011723,-0.0144 0,0.999997 L 9,20 z" style="opacity:.4;fill:#000;fill-opacity:1;stroke:none;display:inline"/><path style="fill:url(#linearGradient3120);fill-opacity:1;stroke:none;display:inline" id="path4030" d="m 40,27 c 0,0 -1,-2 -1,-8 0,0 -19.355891,0 -28,0 0,6 -1.013,8 -1.013,8 z"/><rect id="rect3251" width="30" height="1" x="10" y="17" style="opacity:.2;fill:#fff;fill-opacity:1"/><g id="g3952" transform="matrix(0.49612403,0,0,0.49612403,9.0310078,5.0542636)"><path id="path3954" d="m 10.015625,13.484375 c -0.828428,0 -1.5,-0.671573 -1.5,-1.5 0,-0.828427 0.671572,-1.5 1.5,-1.5 0.828427,0 1.5,0.671573 1.5,1.5 0,0.828427 -0.671573,1.5 -1.5,1.5 z" style="fill:url(#radialGradient3961);fill-opacity:1;stroke:none"/><path id="path3956" d="m 12.03125,11.984375 c 0,-1.098647 -0.916979,-2.015625 -2.015625,-2.015625 C 8.916978,9.96875 8,10.885728 8,11.984375 8,13.083022 8.916978,14 10.015625,14 c 1.098646,0 2.015625,-0.916978 2.015625,-2.015625 z m -1.03125,0 c 0,0.558207 -0.426168,0.984375 -0.984375,0.984375 -0.558207,0 -0.984375,-0.426168 -0.984375,-0.984375 C 9.03125,11.426168 9.457418,11 10.015625,11 10.573832,11 11,11.426168 11,11.984375 z" style="font-size:medium;font-style:normal;font-variant:normal;font-weight:400;font-stretch:normal;text-indent:0;text-align:start;text-decoration:none;line-height:normal;letter-spacing:normal;word-spacing:normal;text-transform:none;direction:ltr;block-progression:tb;writing-mode:lr-tb;text-anchor:start;baseline-shift:baseline;opacity:.61000001;color:#000;fill:#000;fill-opacity:1;stroke:none;stroke-width:.66666669;marker:none;visibility:visible;display:inline;overflow:visible;enable-background:accumulate;font-family:Sans;-inkscape-font-specification:Sans"/></g><g id="g3963" transform="matrix(0.49612403,0,0,0.49612403,12.031008,5.0542636)"><path style="fill:url(#radialGradient3969);fill-opacity:1;stroke:none" id="path3965" d="m 10.015625,13.484375 c -0.828428,0 -1.5,-0.671573 -1.5,-1.5 0,-0.828427 0.671572,-1.5 1.5,-1.5 0.828427,0 1.5,0.671573 1.5,1.5 0,0.828427 -0.671573,1.5 -1.5,1.5 z"/><path style="font-size:medium;font-style:normal;font-variant:normal;font-weight:400;font-stretch:normal;text-indent:0;text-align:start;text-decoration:none;line-height:normal;letter-spacing:normal;word-spacing:normal;text-transform:none;direction:ltr;block-progression:tb;writing-mode:lr-tb;text-anchor:start;baseline-shift:baseline;opacity:.61000001;color:#000;fill:#000;fill-opacity:1;stroke:none;stroke-width:.66666669;marker:none;visibility:visible;display:inline;overflow:visible;enable-background:accumulate;font-family:Sans;-inkscape-font-specification:Sans" id="path3967" d="m 12.03125,11.984375 c 0,-1.098647 -0.916979,-2.015625 -2.015625,-2.015625 C 8.916978,9.96875 8,10.885728 8,11.984375 8,13.083022 8.916978,14 10.015625,14 c 1.098646,0 2.015625,-0.916978 2.015625,-2.015625 z m -1.03125,0 c 0,0.558207 -0.426168,0.984375 -0.984375,0.984375 -0.558207,0 -0.984375,-0.426168 -0.984375,-0.984375 C 9.03125,11.426168 9.457418,11 10.015625,11 10.573832,11 11,11.426168 11,11.984375 z"/></g><path style="opacity:.41000001;color:#bebebe;fill:#000;fill-opacity:1;fill-rule:nonzero;stroke:none;stroke-width:0;marker:none;visibility:visible;display:inline;overflow:visible;enable-background:accumulate" id="path3990" d="m 11,1 c -0.554,0 -1,0.446 -1,1 l 0,4 29,0 0,-4 C 39,1.446 38.554,1 38,1 z"/><path style="color:#bebebe;fill:url(#linearGradient3725);fill-opacity:1;fill-rule:nonzero;stroke:none;stroke-width:0;marker:none;visibility:visible;display:inline;overflow:visible;enable-background:accumulate" id="path3992" d="m 11,2 0,4 27,0 0,-4 z"/><path style="opacity:.4;fill:url(#linearGradient4241);fill-opacity:1;stroke:none" id="path3994" d="m 11,2 0,4 1,0 0,-3 25,0 0,3 1,0 0,-4 z"/><rect id="rect4334" width="96" height="96" x="-24" y="-40" style="opacity:.29999999999999999;fill:none;fill-opacity:1;stroke:none"/></g><g id="layer2" transform="translate(0,16)"><g style="opacity:.3" id="g4042" transform="matrix(0.95652174,0,0,1,-1.3043478,0)"><rect style="fill:url(#linearGradient4047);fill-opacity:1;fill-rule:nonzero;stroke:none;stroke-width:1;marker:none;visibility:visible;display:inline;overflow:visible" id="rect2879-1" width="19.933" height="2" x="29.033" y="29.5"/><path style="fill:url(#radialGradient4049);fill-opacity:1;fill-rule:nonzero;stroke:none;stroke-width:1;marker:none;visibility:visible;display:inline;overflow:visible" id="path2881-5" d="m 29.033332,29.500079 c 0,0 0,1.999884 0,1.999884 C 28.399071,31.503697 27.5,31.05188 27.5,30.499883 c 0,-0.552003 0.707784,-0.999804 1.533332,-0.999804 z"/><path style="fill:url(#radialGradient4051);fill-opacity:1;fill-rule:nonzero;stroke:none;stroke-width:1;marker:none;visibility:visible;display:inline;overflow:visible" id="path2883-9" d="m 48.966669,29.500079 c 0,0 0,1.999884 0,1.999884 0.634255,0.0037 1.533331,-0.448083 1.533331,-1.00008 0,-0.552003 -0.707788,-0.999804 -1.533331,-0.999804 z"/></g><path id="path11155-5" d="M 46.371984,28.396121 37.238642,11.178654 c -0.262523,-0.478261 -0.737541,-0.743964 -1.266574,-0.743964 -0.529028,0 -1.006485,0.318838 -1.272992,0.797103 l -9.065333,17.217472 c -0.213386,0.425121 -0.215825,1.009666 0.04692,1.434788 0.262737,0.425126 0.685075,0.637684 1.214108,0.637684 l 18.198672,0 c 0.529033,0 1.006266,-0.265703 1.219656,-0.690824 0.266281,-0.425121 0.2685,-0.956527 0.05888,-1.434792 z" style="fill:url(#linearGradient4134);fill-opacity:1;fill-rule:nonzero;stroke:none"/><path id="path11155-8" d="M 46.371984,28.396121 37.238642,11.178654 c -0.262523,-0.478261 -0.737541,-0.743964 -1.266574,-0.743964 -0.529028,0 -1.006485,0.318838 -1.272992,0.797103 l -9.065333,17.217472 c -0.213386,0.425121 -0.215825,1.009666 0.04692,1.434788 0.262737,0.425126 0.685075,0.637684 1.214108,0.637684 l 18.198672,0 c 0.529033,0 1.006266,-0.265703 1.219656,-0.690824 0.266281,-0.425121 0.2685,-0.956527 0.05888,-1.434792 z" style="opacity:.81000000999999999;fill:none;stroke:#744000;stroke-width:.95652627999999995;stroke-miterlimit:4;stroke-opacity:1;stroke-dasharray:none"/><path style="opacity:.2;fill:#fff;fill-opacity:1;fill-rule:nonzero;stroke:none" id="path3229" d="m 35.970161,10.912955 c -0.333508,0 -0.673867,0.199178 -0.866852,0.538046 l 0,0.02989 -9.057108,17.187581 c -0.131111,0.261208 -0.115346,0.667366 0.02989,0.926635 l 9.027217,-17.157689 0,-0.02989 c 0.192985,-0.338867 0.533344,-0.538046 0.866852,-0.538046 0.368897,0 0.655584,0.177725 0.83696,0.508155 l 9.116891,17.127798 c 0.136313,-0.256614 0.161716,-0.575269 0.02989,-0.896744 l -0.02989,-0.02989 -9.116891,-17.15769 c -0.181376,-0.33043 -0.468063,-0.508154 -0.83696,-0.508154 z"/><path style="opacity:.29999999999999999;fill:#fff;fill-opacity:1" id="path4016" d="m 35,16 0,6 0.25,3 1.5,0 0.25,-3 0,-6 z m 0,11 0,2 2,0 0,-2 z"/><path id="rect4011" d="m 35,15 0,6 0.25,3 1.5,0 0.25,-3 0,-6 z m 0,11 0,2 2,0 0,-2 z" style="fill:#1a1a1a;fill-opacity:1"/></g></svg>