<svg xmlns="http://www.w3.org/2000/svg" xmlns:svg="http://www.w3.org/2000/svg" xmlns:xlink="http://www.w3.org/1999/xlink" id="svg3759" width="48" height="48" version="1.1"><metadata id="metadata37"/><defs id="defs3761"><linearGradient id="linearGradient3997" x1="25" x2="25" y1="45" y2="42" gradientUnits="userSpaceOnUse" xlink:href="#linearGradient3960-7"/><linearGradient id="linearGradient3960-7"><stop id="stop3962-5" offset="0" style="stop-color:#000;stop-opacity:0"/><stop style="stop-color:#000;stop-opacity:1" id="stop3970-2" offset=".5"/><stop id="stop3964-3" offset="1" style="stop-color:#000;stop-opacity:0"/></linearGradient><radialGradient id="radialGradient3999" cx="40" cy="43.5" r="2" fx="40" fy="43.5" gradientTransform="matrix(1,0,0,0.75,0,10.875)" gradientUnits="userSpaceOnUse" xlink:href="#linearGradient3952-6"/><linearGradient id="linearGradient3952-6"><stop id="stop3954-4" offset="0" style="stop-color:#000;stop-opacity:1"/><stop id="stop3956-4" offset="1" style="stop-color:#000;stop-opacity:0"/></linearGradient><linearGradient id="linearGradient3944-4"><stop id="stop3946-3" offset="0" style="stop-color:#000;stop-opacity:1"/><stop id="stop3948-1" offset="1" style="stop-color:#000;stop-opacity:0"/></linearGradient><linearGradient id="linearGradient3968" x1="25" x2="25" y1="45" y2="42" gradientUnits="userSpaceOnUse" xlink:href="#linearGradient3960-7"/><radialGradient id="radialGradient3958" cx="40" cy="43.5" r="2" fx="40" fy="43.5" gradientTransform="matrix(1,0,0,0.75,0,10.875)" gradientUnits="userSpaceOnUse" xlink:href="#linearGradient3952-6"/><radialGradient id="radialGradient3950" cx="9" cy="43.5" r="2" fx="9" fy="43.5" gradientTransform="matrix(1,0,0,0.75,0,10.875)" gradientUnits="userSpaceOnUse" xlink:href="#linearGradient3944-4"/><linearGradient id="linearGradient3158-9" x1="144" x2="144" y1="280" y2="40" gradientTransform="matrix(0.175,0,0,0.175,-1.20002,-6.0000326)" gradientUnits="userSpaceOnUse" xlink:href="#linearGradient3988-5-2"/><linearGradient id="linearGradient3988-5-2"><stop id="stop3990-5-4" offset="0" style="stop-color:#ededed;stop-opacity:1"/><stop id="stop3992-0-9" offset="1" style="stop-color:#fafafa;stop-opacity:1"/></linearGradient><radialGradient id="radialGradient3272" cx="9" cy="43.5" r="2" fx="9" fy="43.5" gradientTransform="matrix(1,0,0,0.75,0,10.875)" gradientUnits="userSpaceOnUse" xlink:href="#linearGradient3944-4"/><linearGradient id="outerBackgroundGradient-4-3"><stop id="stop3864-8-6-6-4" offset="0" style="stop-color:#f0f0f0;stop-opacity:1"/><stop id="stop3866-9-1-7-8" offset="1" style="stop-color:#f9f9f9;stop-opacity:1"/></linearGradient><linearGradient id="linearGradient3097" x1="71.204" x2="71.204" y1="15.369" y2="40.496" gradientTransform="matrix(0.77562456,0,0,0.77562491,-19.98157,14.385739)" gradientUnits="userSpaceOnUse" xlink:href="#linearGradient3812"/><linearGradient id="linearGradient3812"><stop id="stop3814-3" offset="0" style="stop-color:#fff;stop-opacity:1"/><stop id="stop3816" offset="1" style="stop-color:#fff;stop-opacity:0"/></linearGradient><linearGradient id="linearGradient3173" x1=".5" x2="21.5" y1="11" y2="11" gradientTransform="matrix(0,-1,-1,0,47,47)" gradientUnits="userSpaceOnUse" xlink:href="#outerBackgroundGradient-4-3"/></defs><g id="layer1"><g style="opacity:.2" id="g3983" transform="matrix(1.0571429,0,0,1.6666667,-1.4000003,-29.000001)"><rect id="rect3985" width="31" height="3" x="9" y="42" style="opacity:.6;fill:url(#linearGradient3997);fill-opacity:1;stroke:none"/><path id="path3987" d="m 40,42 0,3 0.5,0 C 41.331,45 42,44.331 42,43.5 42,42.669 41.331,42 40.5,42 L 40,42 z" style="opacity:.6;fill:url(#radialGradient3999);fill-opacity:1;stroke:none"/><path id="path3989" d="M 8.40625,42 C 7.6271875,42 7,42.627187 7,43.40625 l 0,0.1875 C 7,44.372813 7.6271875,45 8.40625,45 L 9,45 9,42 8.40625,42 z" style="opacity:.6;fill:url(#radialGradient3272);fill-opacity:1;stroke:none"/></g><g style="opacity:.2" id="g3978" transform="translate(-3e-7,-1.2e-6)"><rect style="opacity:.6;fill:url(#linearGradient3968);fill-opacity:1;stroke:none" id="rect3938" width="31" height="3" x="9" y="42"/><path style="opacity:.6;fill:url(#radialGradient3958);fill-opacity:1;stroke:none" id="rect3940" d="m 40,42 0,3 0.5,0 C 41.331,45 42,44.331 42,43.5 42,42.669 41.331,42 40.5,42 L 40,42 z"/><path style="opacity:.6;fill:url(#radialGradient3950);fill-opacity:1;stroke:none" id="rect3942" d="M 8.40625,42 C 7.6271875,42 7,42.627187 7,43.40625 l 0,0.1875 C 7,44.372813 7.6271875,45 8.40625,45 L 9,45 9,42 8.40625,42 z"/></g><g id="g4204" transform="matrix(0,1,-1,0,48,-1.0000015)"><g id="g4020" transform="translate(2,-1)"><rect style="opacity:.35;color:#bebebe;fill:#000;fill-opacity:1;fill-rule:nonzero;stroke:none;stroke-width:0;marker:none;visibility:visible;display:inline;overflow:visible;enable-background:accumulate" id="rect3886" width="33" height="41" x="8" y="2" ry="1" transform="matrix(0,1,1,0,0,0)"/><rect id="rect3882" width="31" height="39" x="9" y="3" ry="0" transform="matrix(0,1,1,0,0,0)" style="color:#bebebe;fill:url(#linearGradient3158-9);fill-opacity:1;fill-rule:nonzero;stroke:none;stroke-width:0;marker:none;visibility:visible;display:inline;overflow:visible;enable-background:accumulate"/><path style="opacity:.4;fill:#fff;fill-opacity:1;stroke:none" id="path3893" d="m 3,9 0,31 39,0 0,-31 z m 1,1 37,0 0,29 -37,0 z"/><rect id="rect4018" width="39" height="1" x="3" y="9" style="opacity:.4;fill:#fff;fill-opacity:1;stroke:none"/></g></g></g><g style="display:inline" id="layer2"><path style="color:#000;fill:url(#linearGradient3173);fill-opacity:1;fill-rule:nonzero;stroke:none;stroke-width:1;marker:none;visibility:visible;display:inline;overflow:visible;enable-background:accumulate" id="path2555-7-65" d="m 46.5,36 c 0,5.793538 -4.70646,10.5 -10.5,10.5 -5.79354,0 -10.5,-4.706462 -10.5,-10.5 0,-5.793537 4.70646,-10.500004 10.5,-10.5 5.79354,0 10.5,4.706463 10.5,10.5 z"/><path style="opacity:.41000001;color:#000;fill:none;stroke:#000;stroke-width:.99999988;stroke-linecap:round;stroke-linejoin:round;stroke-miterlimit:4;stroke-opacity:1;stroke-dasharray:none;stroke-dashoffset:0;marker:none;visibility:visible;display:inline;overflow:visible;enable-background:accumulate" id="path2555-7-1-7" d="m 46.5,36 c 0,-5.793538 -4.70646,-10.5 -10.5,-10.5 -5.79354,0 -10.5,4.706462 -10.5,10.5 0,5.793538 4.70646,10.500007 10.5,10.5 5.79354,0 10.5,-4.706462 10.5,-10.5 z"/><path style="color:#000;fill:none;stroke:url(#linearGradient3097);stroke-width:1;stroke-linecap:round;stroke-linejoin:round;stroke-miterlimit:4;stroke-opacity:1;stroke-dasharray:none;stroke-dashoffset:0;marker:none;visibility:visible;display:inline;overflow:visible;enable-background:accumulate" id="path3421" d="m 45.5,36 c 0,5.246706 -4.2533,9.5 -9.5,9.5 -5.2467,0 -9.5,-4.253294 -9.5,-9.5 0,-5.246704 4.2533,-9.5 9.5,-9.5 5.2467,0 9.5,4.253296 9.5,9.5 z"/><path id="path3933" d="M 31.05025,31.050252 36,36 39.53553,32.464466" style="opacity:.6;fill:none;stroke:#000;stroke-width:1;stroke-linecap:round;stroke-linejoin:miter;stroke-miterlimit:4;stroke-opacity:1;stroke-dasharray:none"/></g><path style="fill:none;fill-opacity:1;stroke:none;display:inline" id="path3204" d="m 33,27 0,6 -6,0 0,6 6,0 0,6 6,0 0,-6 6,0 0,-6 -6,0 0,-6 -6,0 z"/></svg>