<svg xmlns="http://www.w3.org/2000/svg" xmlns:svg="http://www.w3.org/2000/svg" xmlns:xlink="http://www.w3.org/1999/xlink" id="svg3759" width="48" height="48" version="1.1"><metadata id="metadata37"/><defs id="defs3761"><linearGradient id="linearGradient4192"><stop id="stop4194" offset="0" style="stop-color:#000;stop-opacity:1"/><stop id="stop4196" offset="1" style="stop-color:#000;stop-opacity:0"/></linearGradient><linearGradient id="linearGradient4154"><stop id="stop4156" offset="0" style="stop-color:#fff;stop-opacity:1"/><stop id="stop4158" offset="1" style="stop-color:#fff;stop-opacity:0"/></linearGradient><linearGradient id="linearGradient3960"><stop id="stop3962" offset="0" style="stop-color:#000;stop-opacity:0"/><stop style="stop-color:#000;stop-opacity:1" id="stop3970" offset=".5"/><stop id="stop3964" offset="1" style="stop-color:#000;stop-opacity:0"/></linearGradient><linearGradient id="linearGradient3952"><stop id="stop3954" offset="0" style="stop-color:#000;stop-opacity:1"/><stop id="stop3956" offset="1" style="stop-color:#000;stop-opacity:0"/></linearGradient><linearGradient id="linearGradient3944"><stop id="stop3946" offset="0" style="stop-color:#000;stop-opacity:1"/><stop id="stop3948" offset="1" style="stop-color:#000;stop-opacity:0"/></linearGradient><linearGradient id="linearGradient3988-5-1"><stop id="stop3990-5-6" offset="0" style="stop-color:#e6e6e6;stop-opacity:1"/><stop id="stop3992-0-6" offset="1" style="stop-color:#f0f0f0;stop-opacity:1"/></linearGradient><linearGradient id="linearGradient3372" x1="24.5" x2="24.5" y1="10" y2="36.5" gradientTransform="translate(-0.9999992,1)" gradientUnits="userSpaceOnUse" xlink:href="#linearGradient4154"/><linearGradient id="linearGradient3376" x1="144" x2="144" y1="280" y2="40" gradientTransform="matrix(-0.175,0,0,0.175,49.200021,-3.000033)" gradientUnits="userSpaceOnUse" xlink:href="#linearGradient3988-5-1"/><linearGradient id="linearGradient4156" x1="25" x2="25" y1="45" y2="42" gradientTransform="matrix(1.0571429,0,0,1.6666667,-4.9000011,-31.500001)" gradientUnits="userSpaceOnUse" xlink:href="#linearGradient3960"/><radialGradient id="radialGradient4158" cx="40" cy="43.5" r="2" fx="40" fy="43.5" gradientTransform="matrix(1.0571429,0,0,1.25,2.0999999,-13.375001)" gradientUnits="userSpaceOnUse" xlink:href="#linearGradient3952"/><radialGradient id="radialGradient4160" cx="9" cy="43.5" r="2" fx="9" fy="43.5" gradientTransform="matrix(1.0571429,0,0,1.25,-4.9000011,-13.375001)" gradientUnits="userSpaceOnUse" xlink:href="#linearGradient3944"/><linearGradient id="linearGradient4162" x1="25" x2="25" y1="45" y2="42" gradientTransform="translate(-3.5000011,-2.5000014)" gradientUnits="userSpaceOnUse" xlink:href="#linearGradient3960"/><radialGradient id="radialGradient4164" cx="40" cy="43.5" r="2" fx="40" fy="43.5" gradientTransform="matrix(1,0,0,0.75,3.4999999,8.3749986)" gradientUnits="userSpaceOnUse" xlink:href="#linearGradient3952"/><radialGradient id="radialGradient4166" cx="9" cy="43.5" r="2" fx="9" fy="43.5" gradientTransform="matrix(1,0,0,0.75,-3.5000011,8.3749986)" gradientUnits="userSpaceOnUse" xlink:href="#linearGradient3944"/><radialGradient id="radialGradient4198" cx="24" cy="38.681" r="17.859" fx="24" fy="38.681" gradientTransform="matrix(1,0,0,0.78390198,0,-4.3222175)" gradientUnits="userSpaceOnUse" xlink:href="#linearGradient4192"/><linearGradient id="linearGradient4361" x1="25" x2="25" y1="45" y2="42" gradientTransform="matrix(1.0571429,0,0,1.6666667,-4.9000011,-31.500001)" gradientUnits="userSpaceOnUse" xlink:href="#linearGradient3960"/><radialGradient id="radialGradient4363" cx="40" cy="43.5" r="2" fx="40" fy="43.5" gradientTransform="matrix(1.0571429,0,0,1.25,2.0999999,-13.375001)" gradientUnits="userSpaceOnUse" xlink:href="#linearGradient3952"/><radialGradient id="radialGradient4365" cx="9" cy="43.5" r="2" fx="9" fy="43.5" gradientTransform="matrix(1.0571429,0,0,1.25,-4.9000011,-13.375001)" gradientUnits="userSpaceOnUse" xlink:href="#linearGradient3944"/><linearGradient id="linearGradient4367" x1="25" x2="25" y1="45" y2="42" gradientTransform="translate(-3.5000011,-2.5000014)" gradientUnits="userSpaceOnUse" xlink:href="#linearGradient3960"/><radialGradient id="radialGradient4369" cx="40" cy="43.5" r="2" fx="40" fy="43.5" gradientTransform="matrix(1,0,0,0.75,3.4999999,8.3749986)" gradientUnits="userSpaceOnUse" xlink:href="#linearGradient3952"/><radialGradient id="radialGradient4371" cx="9" cy="43.5" r="2" fx="9" fy="43.5" gradientTransform="matrix(1,0,0,0.75,-3.5000011,8.3749986)" gradientUnits="userSpaceOnUse" xlink:href="#linearGradient3944"/><linearGradient id="linearGradient4374" x1="144" x2="144" y1="280" y2="40" gradientTransform="matrix(-0.175,0,0,0.175,49.200021,-3.000033)" gradientUnits="userSpaceOnUse" xlink:href="#linearGradient3988-5-1"/><linearGradient id="linearGradient4376" x1="24.5" x2="24.5" y1="10" y2="36.5" gradientTransform="translate(-0.9999992,1)" gradientUnits="userSpaceOnUse" xlink:href="#linearGradient4154"/><radialGradient id="radialGradient4378" cx="24" cy="38.681" r="17.859" fx="24" fy="38.681" gradientTransform="matrix(1,0,0,0.78390198,0,-4.3222175)" gradientUnits="userSpaceOnUse" xlink:href="#linearGradient4192"/></defs><g style="display:inline" id="layer1"><g id="g4323" transform="matrix(0.98480775,0.17364818,-0.17364818,0.98480775,4.8284584,-3.6895321)"><g id="g4325" transform="translate(-0.9999992,-1)"><path style="opacity:.12000002;fill:url(#linearGradient4361);fill-opacity:1;stroke:none" id="path4327" d="m 4.614285,38.5 39.771573,0 0,5 -39.771573,0 z"/><path id="path4329" d="m 44.385716,38.5 0,5 0.528571,0 c 0.878486,0 1.585715,-1.115 1.585715,-2.5 0,-1.385 -0.707229,-2.5 -1.585715,-2.5 l -0.528571,0 z" style="opacity:.12000002;fill:url(#radialGradient4363);fill-opacity:1;stroke:none"/><path id="path4331" d="m 3.9866064,38.5 c -0.8235804,0 -1.4866072,1.045312 -1.4866072,2.34375 l 0,0.3125 c 0,1.298439 0.6630268,2.34375 1.4866072,2.34375 l 0.6276786,0 0,-5 -0.6276786,0 z" style="opacity:.12000002;fill:url(#radialGradient4365);fill-opacity:1;stroke:none"/><path style="opacity:.12000002;fill:url(#linearGradient4367);fill-opacity:1;stroke:none" id="path4333" d="m 5.499999,39.5 38.000142,0 0,3 -38.000142,0 z"/><path style="opacity:.12000002;fill:url(#radialGradient4369);fill-opacity:1;stroke:none" id="path4335" d="m 43.5,39.499999 0,3 0.5,0 c 0.831,0 1.5,-0.669 1.5,-1.5 0,-0.831 -0.669,-1.5 -1.5,-1.5 l -0.5,0 z"/><path style="opacity:.12000002;fill:url(#radialGradient4371);fill-opacity:1;stroke:none" id="path4337" d="m 4.9062489,39.499999 c -0.7790625,0 -1.40625,0.627187 -1.40625,1.40625 l 0,0.1875 c 0,0.779063 0.6271875,1.40625 1.40625,1.40625 l 0.59375,0 0,-3 -0.59375,0 z"/></g><path id="path4339" d="m 3.0000008,10 0,29 c 0,0.554 0.446,1 1,1 l 40.0000002,0 c 0.554,0 1,-0.446 1,-1 l 0,-29 c 0,-0.554 -0.446,-1 -1,-1 L 4.0000008,9 c -0.554,0 -1,0.446 -1,1 z" style="opacity:.35;color:#bebebe;fill:#000;fill-opacity:1;fill-rule:nonzero;stroke:none;stroke-width:0;marker:none;visibility:visible;display:inline;overflow:visible;enable-background:accumulate"/><path id="path4341" d="m 4.0000008,10 0,29 40.0000002,0 0,-29 z" style="color:#bebebe;fill:url(#linearGradient4374);fill-opacity:1;fill-rule:nonzero;stroke:none;stroke-width:0;marker:none;visibility:visible;display:inline;overflow:visible;enable-background:accumulate"/><path style="opacity:.6;fill:url(#linearGradient4376);fill-opacity:1;stroke:none" id="path4343" d="m 4.0000008,10 0,29 40.0000002,0 0,-29 z m 1,1 38.0000002,0 0,27 -38.0000002,0 z"/><path id="path4345" d="M 6.09375,13.625 16,25.50065 16.78125,24.53125 z M 41.8125,13.78125 30.75,25.03125 31.741498,26 z" style="font-size:medium;font-style:normal;font-variant:normal;font-weight:400;font-stretch:normal;text-indent:0;text-align:start;text-decoration:none;line-height:normal;letter-spacing:normal;word-spacing:normal;text-transform:none;direction:ltr;block-progression:tb;writing-mode:lr-tb;text-anchor:start;baseline-shift:baseline;opacity:.2;color:#000;fill:url(#radialGradient4378);fill-opacity:1;stroke:none;stroke-width:1px;marker:none;visibility:visible;display:inline;overflow:visible;enable-background:accumulate;font-family:Sans;-inkscape-font-specification:Sans"/><path id="path4347" d="m 18.65625,26.84375 c 0.883883,0.883883 1.419773,1.453714 2.1875,1.78125 C 21.611477,28.952536 22.487098,29 24,29 c 1.512902,0 2.388523,-0.04746 3.15625,-0.375 0.767727,-0.327536 1.303617,-0.897367 2.1875,-1.78125 L 42,13.5 28.65625,26.15625 c -0.883883,0.883883 -1.334669,1.300728 -1.875,1.53125 C 26.240919,27.918022 25.487098,28 24,28 c -1.487098,0 -2.240919,-0.08198 -2.78125,-0.3125 -0.540331,-0.230522 -0.991116,-0.647367 -1.875,-1.53125 L 6,13.5 z" style="font-size:medium;font-style:normal;font-variant:normal;font-weight:400;font-stretch:normal;text-indent:0;text-align:start;text-decoration:none;line-height:normal;letter-spacing:normal;word-spacing:normal;text-transform:none;direction:ltr;block-progression:tb;writing-mode:lr-tb;text-anchor:start;baseline-shift:baseline;color:#000;fill:#999;fill-opacity:1;stroke:none;stroke-width:1px;marker:none;visibility:visible;display:inline;overflow:visible;enable-background:accumulate;font-family:Sans;-inkscape-font-specification:Sans"/><path id="path4349" d="M 16.65625,24.65625 6,36 17.34375,25.34375 z" style="font-size:medium;font-style:normal;font-variant:normal;font-weight:400;font-stretch:normal;text-indent:0;text-align:start;text-decoration:none;line-height:normal;letter-spacing:normal;word-spacing:normal;text-transform:none;direction:ltr;block-progression:tb;writing-mode:lr-tb;text-anchor:start;baseline-shift:baseline;color:#000;fill:#999;fill-opacity:1;stroke:none;stroke-width:1px;marker:none;visibility:visible;display:inline;overflow:visible;enable-background:accumulate;font-family:Sans;-inkscape-font-specification:Sans"/><path id="path4351" d="m 30.34375,24.625 -0.6875,0.75 L 42,36 z" style="font-size:medium;font-style:normal;font-variant:normal;font-weight:400;font-stretch:normal;text-indent:0;text-align:start;text-decoration:none;line-height:normal;letter-spacing:normal;word-spacing:normal;text-transform:none;direction:ltr;block-progression:tb;writing-mode:lr-tb;text-anchor:start;baseline-shift:baseline;color:#000;fill:#999;fill-opacity:1;stroke:none;stroke-width:1px;marker:none;visibility:visible;display:inline;overflow:visible;enable-background:accumulate;font-family:Sans;-inkscape-font-specification:Sans"/><path style="font-size:medium;font-style:normal;font-variant:normal;font-weight:400;font-stretch:normal;text-indent:0;text-align:start;text-decoration:none;line-height:normal;letter-spacing:normal;word-spacing:normal;text-transform:none;direction:ltr;block-progression:tb;writing-mode:lr-tb;text-anchor:start;baseline-shift:baseline;opacity:.6;color:#000;fill:#fff;fill-opacity:1;stroke:none;stroke-width:1px;marker:none;visibility:visible;display:inline;overflow:visible;enable-background:accumulate;font-family:Sans;-inkscape-font-specification:Sans" id="path4353" d="m 18.9375,25.84375 c 0.901822,0.865572 1.419773,1.453714 2.1875,1.78125 C 21.892727,27.952536 22.487098,28 24,28 c 1.512902,0 2.107273,-0.04746 2.875,-0.375 0.767727,-0.327536 1.284341,-0.917072 2.1875,-1.78125 L 42.176777,13.295495 28.375,25.15625 C 27.426971,25.970952 27.040331,26.456978 26.5,26.6875 25.959669,26.918022 25.487098,27 24,27 22.512902,27 22.040331,26.91802 21.5,26.6875 20.959669,26.456978 20.572154,25.97197 19.625,25.15625 L 5.9558058,13.383883 z"/><path style="font-size:medium;font-style:normal;font-variant:normal;font-weight:400;font-stretch:normal;text-indent:0;text-align:start;text-decoration:none;line-height:normal;letter-spacing:normal;word-spacing:normal;text-transform:none;direction:ltr;block-progression:tb;writing-mode:lr-tb;text-anchor:start;baseline-shift:baseline;opacity:.6;color:#000;fill:#fff;fill-opacity:1;stroke:none;stroke-width:1px;marker:none;visibility:visible;display:inline;overflow:visible;enable-background:accumulate;font-family:Sans;-inkscape-font-specification:Sans" id="path4355" d="M 17.28125,25.421875 6,36 17.96875,26.109375 z"/><path style="font-size:medium;font-style:normal;font-variant:normal;font-weight:400;font-stretch:normal;text-indent:0;text-align:start;text-decoration:none;line-height:normal;letter-spacing:normal;word-spacing:normal;text-transform:none;direction:ltr;block-progression:tb;writing-mode:lr-tb;text-anchor:start;baseline-shift:baseline;opacity:.6;color:#000;fill:#fff;fill-opacity:1;stroke:none;stroke-width:1px;marker:none;visibility:visible;display:inline;overflow:visible;enable-background:accumulate;font-family:Sans;-inkscape-font-specification:Sans" id="path4357" d="m 30.234375,25.875 -0.6875,0.75 L 42,36 z"/><rect id="rect4359" width="40" height="1" x="4" y="38" style="opacity:.4;fill:#fff;fill-opacity:1;stroke-linecap:square;stroke-linejoin:round"/></g><g id="g4303"><g id="g3162" transform="translate(-0.9999992,-1)"><path id="rect3985" d="m 4.614285,38.5 39.771573,0 0,5 -39.771573,0 z" style="opacity:.12000002;fill:url(#linearGradient4156);fill-opacity:1;stroke:none"/><path style="opacity:.12000002;fill:url(#radialGradient4158);fill-opacity:1;stroke:none" id="path3987" d="m 44.385716,38.5 0,5 0.528571,0 c 0.878486,0 1.585715,-1.115 1.585715,-2.5 0,-1.385 -0.707229,-2.5 -1.585715,-2.5 l -0.528571,0 z"/><path style="opacity:.12000002;fill:url(#radialGradient4160);fill-opacity:1;stroke:none" id="path3989" d="m 3.9866064,38.5 c -0.8235804,0 -1.4866072,1.045312 -1.4866072,2.34375 l 0,0.3125 c 0,1.298439 0.6630268,2.34375 1.4866072,2.34375 l 0.6276786,0 0,-5 -0.6276786,0 z"/><path id="rect3938" d="m 5.499999,39.5 38.000142,0 0,3 -38.000142,0 z" style="opacity:.12000002;fill:url(#linearGradient4162);fill-opacity:1;stroke:none"/><path id="rect3940" d="m 43.5,39.499999 0,3 0.5,0 c 0.831,0 1.5,-0.669 1.5,-1.5 0,-0.831 -0.669,-1.5 -1.5,-1.5 l -0.5,0 z" style="opacity:.12000002;fill:url(#radialGradient4164);fill-opacity:1;stroke:none"/><path id="rect3942" d="m 4.9062489,39.499999 c -0.7790625,0 -1.40625,0.627187 -1.40625,1.40625 l 0,0.1875 c 0,0.779063 0.6271875,1.40625 1.40625,1.40625 l 0.59375,0 0,-3 -0.59375,0 z" style="opacity:.12000002;fill:url(#radialGradient4166);fill-opacity:1;stroke:none"/></g><path style="opacity:.35;color:#bebebe;fill:#000;fill-opacity:1;fill-rule:nonzero;stroke:none;stroke-width:0;marker:none;visibility:visible;display:inline;overflow:visible;enable-background:accumulate" id="rect3886" d="m 3.0000008,10 0,29 c 0,0.554 0.446,1 1,1 l 40.0000002,0 c 0.554,0 1,-0.446 1,-1 l 0,-29 c 0,-0.554 -0.446,-1 -1,-1 L 4.0000008,9 c -0.554,0 -1,0.446 -1,1 z"/><path style="color:#bebebe;fill:url(#linearGradient3376);fill-opacity:1;fill-rule:nonzero;stroke:none;stroke-width:0;marker:none;visibility:visible;display:inline;overflow:visible;enable-background:accumulate" id="rect3882" d="m 4.0000008,10 0,29 40.0000002,0 0,-29 z"/><path id="path3893" d="m 4.0000008,10 0,29 40.0000002,0 0,-29 z m 1,1 38.0000002,0 0,27 -38.0000002,0 z" style="opacity:.6;fill:url(#linearGradient3372);fill-opacity:1;stroke:none"/><path style="font-size:medium;font-style:normal;font-variant:normal;font-weight:400;font-stretch:normal;text-indent:0;text-align:start;text-decoration:none;line-height:normal;letter-spacing:normal;word-spacing:normal;text-transform:none;direction:ltr;block-progression:tb;writing-mode:lr-tb;text-anchor:start;baseline-shift:baseline;opacity:.2;color:#000;fill:url(#radialGradient4198);fill-opacity:1;stroke:none;stroke-width:1px;marker:none;visibility:visible;display:inline;overflow:visible;enable-background:accumulate;font-family:Sans;-inkscape-font-specification:Sans" id="path4184" d="M 6.09375,13.625 16,25.50065 16.78125,24.53125 z M 41.8125,13.78125 30.75,25.03125 31.741498,26 z"/><path style="font-size:medium;font-style:normal;font-variant:normal;font-weight:400;font-stretch:normal;text-indent:0;text-align:start;text-decoration:none;line-height:normal;letter-spacing:normal;word-spacing:normal;text-transform:none;direction:ltr;block-progression:tb;writing-mode:lr-tb;text-anchor:start;baseline-shift:baseline;color:#000;fill:#999;fill-opacity:1;stroke:none;stroke-width:1px;marker:none;visibility:visible;display:inline;overflow:visible;enable-background:accumulate;font-family:Sans;-inkscape-font-specification:Sans" id="path3386" d="m 18.65625,26.84375 c 0.883883,0.883883 1.419773,1.453714 2.1875,1.78125 C 21.611477,28.952536 22.487098,29 24,29 c 1.512902,0 2.388523,-0.04746 3.15625,-0.375 0.767727,-0.327536 1.303617,-0.897367 2.1875,-1.78125 L 42,13.5 28.65625,26.15625 c -0.883883,0.883883 -1.334669,1.300728 -1.875,1.53125 C 26.240919,27.918022 25.487098,28 24,28 c -1.487098,0 -2.240919,-0.08198 -2.78125,-0.3125 -0.540331,-0.230522 -0.991116,-0.647367 -1.875,-1.53125 L 6,13.5 z"/><path style="font-size:medium;font-style:normal;font-variant:normal;font-weight:400;font-stretch:normal;text-indent:0;text-align:start;text-decoration:none;line-height:normal;letter-spacing:normal;word-spacing:normal;text-transform:none;direction:ltr;block-progression:tb;writing-mode:lr-tb;text-anchor:start;baseline-shift:baseline;color:#000;fill:#999;fill-opacity:1;stroke:none;stroke-width:1px;marker:none;visibility:visible;display:inline;overflow:visible;enable-background:accumulate;font-family:Sans;-inkscape-font-specification:Sans" id="path4172" d="M 16.65625,24.65625 6,36 17.34375,25.34375 z"/><path style="font-size:medium;font-style:normal;font-variant:normal;font-weight:400;font-stretch:normal;text-indent:0;text-align:start;text-decoration:none;line-height:normal;letter-spacing:normal;word-spacing:normal;text-transform:none;direction:ltr;block-progression:tb;writing-mode:lr-tb;text-anchor:start;baseline-shift:baseline;color:#000;fill:#999;fill-opacity:1;stroke:none;stroke-width:1px;marker:none;visibility:visible;display:inline;overflow:visible;enable-background:accumulate;font-family:Sans;-inkscape-font-specification:Sans" id="path4174" d="m 30.34375,24.625 -0.6875,0.75 L 42,36 z"/><path id="path4200" d="m 18.9375,25.84375 c 0.901822,0.865572 1.419773,1.453714 2.1875,1.78125 C 21.892727,27.952536 22.487098,28 24,28 c 1.512902,0 2.107273,-0.04746 2.875,-0.375 0.767727,-0.327536 1.284341,-0.917072 2.1875,-1.78125 L 42.176777,13.295495 28.375,25.15625 C 27.426971,25.970952 27.040331,26.456978 26.5,26.6875 25.959669,26.918022 25.487098,27 24,27 22.512902,27 22.040331,26.91802 21.5,26.6875 20.959669,26.456978 20.572154,25.97197 19.625,25.15625 L 5.9558058,13.383883 z" style="font-size:medium;font-style:normal;font-variant:normal;font-weight:400;font-stretch:normal;text-indent:0;text-align:start;text-decoration:none;line-height:normal;letter-spacing:normal;word-spacing:normal;text-transform:none;direction:ltr;block-progression:tb;writing-mode:lr-tb;text-anchor:start;baseline-shift:baseline;opacity:.6;color:#000;fill:#fff;fill-opacity:1;stroke:none;stroke-width:1px;marker:none;visibility:visible;display:inline;overflow:visible;enable-background:accumulate;font-family:Sans;-inkscape-font-specification:Sans"/><path id="path4202" d="M 17.28125,25.421875 6,36 17.96875,26.109375 z" style="font-size:medium;font-style:normal;font-variant:normal;font-weight:400;font-stretch:normal;text-indent:0;text-align:start;text-decoration:none;line-height:normal;letter-spacing:normal;word-spacing:normal;text-transform:none;direction:ltr;block-progression:tb;writing-mode:lr-tb;text-anchor:start;baseline-shift:baseline;opacity:.6;color:#000;fill:#fff;fill-opacity:1;stroke:none;stroke-width:1px;marker:none;visibility:visible;display:inline;overflow:visible;enable-background:accumulate;font-family:Sans;-inkscape-font-specification:Sans"/><path id="path4204" d="m 30.234375,25.875 -0.6875,0.75 L 42,36 z" style="font-size:medium;font-style:normal;font-variant:normal;font-weight:400;font-stretch:normal;text-indent:0;text-align:start;text-decoration:none;line-height:normal;letter-spacing:normal;word-spacing:normal;text-transform:none;direction:ltr;block-progression:tb;writing-mode:lr-tb;text-anchor:start;baseline-shift:baseline;opacity:.6;color:#000;fill:#fff;fill-opacity:1;stroke:none;stroke-width:1px;marker:none;visibility:visible;display:inline;overflow:visible;enable-background:accumulate;font-family:Sans;-inkscape-font-specification:Sans"/><rect style="opacity:.4;fill:#fff;fill-opacity:1;stroke-linecap:square;stroke-linejoin:round" id="rect4206" width="40" height="1" x="4" y="38"/></g></g></svg>