<svg xmlns="http://www.w3.org/2000/svg" xmlns:svg="http://www.w3.org/2000/svg" xmlns:xlink="http://www.w3.org/1999/xlink" id="svg2436" width="48" height="48" version="1.1"><defs id="defs2438"><linearGradient id="linearGradient5106"><stop style="stop-color:#555;stop-opacity:1" id="stop5108" offset="0"/><stop style="stop-color:#222;stop-opacity:1" id="stop5110" offset="1"/></linearGradient><linearGradient id="linearGradient3786" x1="33.748" x2="33.748" y1="27.631" y2="12.5" gradientTransform="matrix(1,0,0,-1,-0.98483573,48.000461)" gradientUnits="userSpaceOnUse" xlink:href="#linearGradient5106"/><linearGradient id="linearGradient3789" x1="15.748" x2="15.748" y1="27.193" y2="12.5" gradientTransform="matrix(1,0,0,-1,-0.99999973,48.000461)" gradientUnits="userSpaceOnUse" xlink:href="#linearGradient5106"/></defs><metadata id="metadata2441"/><path id="path3791" d="M 5.5,13.000461 5.5,35 23.995772,23.990267 5.5,13.000461 z" style="fill:url(#linearGradient3789);fill-opacity:1;fill-rule:evenodd;stroke:none"/><path id="path3793" d="M 23.515166,13.000461 23.515166,35 42.010936,23.990267 23.515166,13.000461 z" style="fill:url(#linearGradient3786);fill-opacity:1;fill-rule:evenodd;stroke:none"/><path style="opacity:.5;fill:none;stroke:#000;stroke-width:.99999994;stroke-linecap:square;stroke-linejoin:miter;stroke-miterlimit:4;stroke-opacity:1;stroke-dashoffset:.69999992" id="path8027" d="M 5.5,13.000461 5.5,35 23.995772,23.990267 5.5,13.000461 z"/><path style="opacity:.5;fill:none;stroke:#000;stroke-width:.99999994;stroke-linecap:square;stroke-linejoin:miter;stroke-miterlimit:4;stroke-opacity:1;stroke-dashoffset:.69999992" id="path8033" d="M 23.515166,13.000461 23.515166,35 42.010936,23.990267 23.515166,13.000461 z"/><path id="path8035" d="m 24.013051,13.90625 0.75,0.4375 15.53125,9.21875 0.71875,0.4375 -0.71875,0.4375 -0.25,0.15625 -1,-0.59375 -14.03125,-8.34375 -0.25,-0.125 -0.75,-0.4375 0,-0.3125 z" style="font-size:medium;font-style:normal;font-variant:normal;font-weight:400;font-stretch:normal;text-indent:0;text-align:start;text-decoration:none;line-height:normal;letter-spacing:normal;word-spacing:normal;text-transform:none;direction:ltr;block-progression:tb;writing-mode:lr-tb;text-anchor:start;baseline-shift:baseline;opacity:.3;color:#000;fill:#fff;fill-opacity:1;stroke:none;stroke-width:.99999994;marker:none;visibility:visible;display:inline;overflow:visible;enable-background:accumulate;font-family:Sans;-inkscape-font-specification:Sans"/><path id="path8029" d="m 5.997885,13.90625 0.75,0.4375 15.531252,9.21875 0.71875,0.4375 -0.71875,0.4375 -0.25,0.15625 -1,-0.59375 -14.031252,-8.34375 -0.25,-0.125 -0.75,-0.4375 0,-0.3125 z" style="font-size:medium;font-style:normal;font-variant:normal;font-weight:400;font-stretch:normal;text-indent:0;text-align:start;text-decoration:none;line-height:normal;letter-spacing:normal;word-spacing:normal;text-transform:none;direction:ltr;block-progression:tb;writing-mode:lr-tb;text-anchor:start;baseline-shift:baseline;opacity:.3;color:#000;fill:#fff;fill-opacity:1;stroke:none;stroke-width:.99999994;marker:none;visibility:visible;display:inline;overflow:visible;enable-background:accumulate;font-family:Sans;-inkscape-font-specification:Sans"/><path style="font-size:medium;font-style:normal;font-variant:normal;font-weight:400;font-stretch:normal;text-indent:0;text-align:start;text-decoration:none;line-height:normal;letter-spacing:normal;word-spacing:normal;text-transform:none;direction:ltr;block-progression:tb;writing-mode:lr-tb;text-anchor:start;baseline-shift:baseline;opacity:.3;color:#000;fill:#000;fill-opacity:1;stroke:none;stroke-width:.99999994;marker:none;visibility:visible;display:inline;overflow:visible;enable-background:accumulate;font-family:Sans;-inkscape-font-specification:Sans" id="path3809" d="m 24.013051,35.025415 0.75,-0.4375 15.53125,-9.21875 0.71875,-0.4375 -0.71875,-0.4375 -0.25,-0.15625 -1,0.59375 -14.03125,8.34375 -0.25,0.125 -0.75,0.4375 0,0.3125 z"/><path style="font-size:medium;font-style:normal;font-variant:normal;font-weight:400;font-stretch:normal;text-indent:0;text-align:start;text-decoration:none;line-height:normal;letter-spacing:normal;word-spacing:normal;text-transform:none;direction:ltr;block-progression:tb;writing-mode:lr-tb;text-anchor:start;baseline-shift:baseline;opacity:.3;color:#000;fill:#000;fill-opacity:1;stroke:none;stroke-width:.99999994;marker:none;visibility:visible;display:inline;overflow:visible;enable-background:accumulate;font-family:Sans;-inkscape-font-specification:Sans" id="path3811" d="m 5.997885,35.025415 0.75,-0.4375 15.531252,-9.21875 0.71875,-0.4375 -0.71875,-0.4375 -0.25,-0.15625 -1,0.59375 -14.031252,8.34375 -0.25,0.125 -0.75,0.4375 0,0.3125 z"/></svg>