<svg xmlns="http://www.w3.org/2000/svg" xmlns:svg="http://www.w3.org/2000/svg" xmlns:xlink="http://www.w3.org/1999/xlink" id="svg2436" width="48" height="48" version="1.1"><defs id="defs2438"><linearGradient id="linearGradient5106"><stop style="stop-color:#555;stop-opacity:1" id="stop5108" offset="0"/><stop style="stop-color:#222;stop-opacity:1" id="stop5110" offset="1"/></linearGradient><linearGradient id="linearGradient3786" x1="33.748" x2="33.748" y1="27.631" y2="12.5" gradientTransform="matrix(-1,0,0,-1,48.997885,48.000461)" gradientUnits="userSpaceOnUse" xlink:href="#linearGradient5106"/><linearGradient id="linearGradient3789" x1="15.748" x2="15.748" y1="27.193" y2="12.5" gradientTransform="matrix(-1,0,0,-1,49.013049,48.000461)" gradientUnits="userSpaceOnUse" xlink:href="#linearGradient5106"/></defs><metadata id="metadata2441"/><path id="path3791" d="M 42.513049,13.000461 42.513049,35 24.017279,23.990267 42.513049,13.000461 z" style="fill:url(#linearGradient3789);fill-opacity:1;fill-rule:evenodd;stroke:none"/><path id="path3793" d="M 24.497885,13.000461 24.497885,35 6.002115,23.990267 24.497885,13.000461 z" style="fill:url(#linearGradient3786);fill-opacity:1;fill-rule:evenodd;stroke:none"/><path style="opacity:.5;fill:none;stroke:#000;stroke-width:.99999994;stroke-linecap:square;stroke-linejoin:miter;stroke-miterlimit:4;stroke-opacity:1;stroke-dashoffset:.69999992" id="path8027" d="M 42.513049,13.000461 42.513049,35 24.017279,23.990267 42.513049,13.000461 z"/><path style="opacity:.5;fill:none;stroke:#000;stroke-width:.99999994;stroke-linecap:square;stroke-linejoin:miter;stroke-miterlimit:4;stroke-opacity:1;stroke-dashoffset:.69999992" id="path8033" d="M 24.497885,13.000461 24.497885,35 6.002115,23.990267 24.497885,13.000461 z"/><path id="path8035" d="M 24,13.90625 23.25,14.34375 7.71875,23.5625 7,24 l 0.71875,0.4375 0.25,0.15625 L 8.96875,24 23,15.65625 l 0.25,-0.125 0.75,-0.4375 0,-0.3125 z" style="font-size:medium;font-style:normal;font-variant:normal;font-weight:400;font-stretch:normal;text-indent:0;text-align:start;text-decoration:none;line-height:normal;letter-spacing:normal;word-spacing:normal;text-transform:none;direction:ltr;block-progression:tb;writing-mode:lr-tb;text-anchor:start;baseline-shift:baseline;opacity:.3;color:#000;fill:#fff;fill-opacity:1;stroke:none;stroke-width:.99999994000000003;marker:none;visibility:visible;display:inline;overflow:visible;enable-background:accumulate;font-family:Sans;-inkscape-font-specification:Sans"/><path id="path8029" d="m 42.015164,13.90625 -0.75,0.4375 -15.53125,9.21875 -0.71875,0.4375 0.71875,0.4375 0.25,0.15625 1,-0.59375 14.03125,-8.34375 0.25,-0.125 0.75,-0.4375 0,-0.3125 z" style="font-size:medium;font-style:normal;font-variant:normal;font-weight:400;font-stretch:normal;text-indent:0;text-align:start;text-decoration:none;line-height:normal;letter-spacing:normal;word-spacing:normal;text-transform:none;direction:ltr;block-progression:tb;writing-mode:lr-tb;text-anchor:start;baseline-shift:baseline;opacity:.3;color:#000;fill:#fff;fill-opacity:1;stroke:none;stroke-width:.99999994000000003;marker:none;visibility:visible;display:inline;overflow:visible;enable-background:accumulate;font-family:Sans;-inkscape-font-specification:Sans"/><path style="font-size:medium;font-style:normal;font-variant:normal;font-weight:400;font-stretch:normal;text-indent:0;text-align:start;text-decoration:none;line-height:normal;letter-spacing:normal;word-spacing:normal;text-transform:none;direction:ltr;block-progression:tb;writing-mode:lr-tb;text-anchor:start;baseline-shift:baseline;opacity:.3;color:#000;fill:#000;fill-opacity:1;stroke:none;stroke-width:.99999994;marker:none;visibility:visible;display:inline;overflow:visible;enable-background:accumulate;font-family:Sans;-inkscape-font-specification:Sans" id="path3809" d="m 24,35.025415 -0.75,-0.4375 -15.5312503,-9.21875 -0.71875,-0.4375 0.71875,-0.4375 0.25,-0.15625 1,0.59375 L 23,33.275415 l 0.25,0.125 0.75,0.4375 0,0.3125 z"/><path style="font-size:medium;font-style:normal;font-variant:normal;font-weight:400;font-stretch:normal;text-indent:0;text-align:start;text-decoration:none;line-height:normal;letter-spacing:normal;word-spacing:normal;text-transform:none;direction:ltr;block-progression:tb;writing-mode:lr-tb;text-anchor:start;baseline-shift:baseline;opacity:.3;color:#000;fill:#000;fill-opacity:1;stroke:none;stroke-width:.99999994;marker:none;visibility:visible;display:inline;overflow:visible;enable-background:accumulate;font-family:Sans;-inkscape-font-specification:Sans" id="path3811" d="m 42.015164,35.025415 -0.75,-0.4375 -15.53125,-9.21875 -0.71875,-0.4375 0.71875,-0.4375 0.25,-0.15625 1,0.59375 14.03125,8.34375 0.25,0.125 0.75,0.4375 0,0.3125 z"/></svg>