<svg xmlns="http://www.w3.org/2000/svg" xmlns:svg="http://www.w3.org/2000/svg" xmlns:xlink="http://www.w3.org/1999/xlink" id="svg5014" width="32" height="32" version="1.1"><defs id="defs5016"><linearGradient id="linearGradient3988-5"><stop id="stop3990-5" offset="0" style="stop-color:#ededed;stop-opacity:1"/><stop id="stop3992-0" offset="1" style="stop-color:#fafafa;stop-opacity:1"/></linearGradient><linearGradient id="linearGradient3960"><stop id="stop3962" offset="0" style="stop-color:#000;stop-opacity:0"/><stop style="stop-color:#000;stop-opacity:1" id="stop3970" offset=".5"/><stop id="stop3964" offset="1" style="stop-color:#000;stop-opacity:0"/></linearGradient><linearGradient id="linearGradient3952"><stop id="stop3954" offset="0" style="stop-color:#000;stop-opacity:1"/><stop id="stop3956" offset="1" style="stop-color:#000;stop-opacity:0"/></linearGradient><linearGradient id="linearGradient3944"><stop id="stop3946" offset="0" style="stop-color:#000;stop-opacity:1"/><stop id="stop3948" offset="1" style="stop-color:#000;stop-opacity:0"/></linearGradient><linearGradient id="linearGradient5128" x1="146.857" x2="146.857" y1="290.204" y2="35.51" gradientTransform="matrix(0.12419355,0,0,0.12564103,-34.238722,-4.461562)" gradientUnits="userSpaceOnUse" xlink:href="#linearGradient3988-5"/><radialGradient id="radialGradient5914" cx="9" cy="43.5" r="2" fx="9" fy="43.5" gradientTransform="matrix(1,0,0,0.75,-4,-2.125)" gradientUnits="userSpaceOnUse" xlink:href="#linearGradient3944"/><radialGradient id="radialGradient5917" cx="40" cy="43.5" r="2" fx="40" fy="43.5" gradientTransform="matrix(1,0,0,0.75,-13,-2.125)" gradientUnits="userSpaceOnUse" xlink:href="#linearGradient3952"/><linearGradient id="linearGradient5920" x1="25" x2="25" y1="45" y2="42" gradientTransform="translate(-4,-13)" gradientUnits="userSpaceOnUse" xlink:href="#linearGradient3960"/></defs><metadata id="metadata5019"/><g id="layer1"><g id="g5922"><rect style="opacity:.4;fill:url(#linearGradient5920);fill-opacity:1;stroke:none" id="rect3938" width="22" height="3" x="5" y="29"/><path style="opacity:.4;fill:url(#radialGradient5917);fill-opacity:1;stroke:none" id="rect3940" d="m 27,29 0,3 0.5,0 C 28.331,32 29,31.331 29,30.5 29,29.669 28.331,29 27.5,29 L 27,29 z"/><path style="opacity:.4;fill:url(#radialGradient5914);fill-opacity:1;stroke:none" id="rect3942" d="M 4.40625,29 C 3.6271875,29 3,29.627187 3,30.40625 l 0,0.1875 C 3,31.372813 3.6271875,32 4.40625,32 L 5,32 5,29 4.40625,29 z"/></g><rect style="color:#bebebe;fill:none;fill-opacity:1;fill-rule:nonzero;stroke:#000;stroke-width:2;marker:none;visibility:visible;display:inline;overflow:visible;enable-background:accumulate;stroke-opacity:1;stroke-miterlimit:4;stroke-dasharray:none;opacity:.40999999999999998;stroke-linejoin:round" id="rect5133" width="22" height="28" x="-27" y="2" ry="0" transform="scale(-1,1)"/><rect id="rect3882" width="22" height="28" x="-27" y="2" ry="0" transform="scale(-1,1)" style="color:#bebebe;fill:url(#linearGradient5128);fill-opacity:1;fill-rule:nonzero;stroke:none;stroke-width:0;marker:none;visibility:visible;display:inline;overflow:visible;enable-background:accumulate"/><path id="rect5903" d="M 5 2 L 5 30 L 27 30 L 27 2 L 5 2 z M 6 3 L 26 3 L 26 29 L 6 29 L 6 3 z" style="color:#bebebe;fill:#fff;fill-opacity:1;fill-rule:nonzero;stroke:none;stroke-width:0;marker:none;visibility:visible;display:inline;overflow:visible;enable-background:accumulate;opacity:.4"/><path id="path5908" d="M 5 2 L 5 3 L 6 3 L 26 3 L 27 3 L 27 2 L 5 2 z" style="color:#bebebe;fill:#fff;fill-opacity:1;fill-rule:nonzero;stroke:none;stroke-width:0;marker:none;visibility:visible;display:inline;overflow:visible;enable-background:accumulate;opacity:.4"/></g></svg>