<svg xmlns="http://www.w3.org/2000/svg" xmlns:svg="http://www.w3.org/2000/svg" xmlns:xlink="http://www.w3.org/1999/xlink" id="svg4032" width="32" height="32" version="1.1"><metadata id="metadata41"/><defs id="defs4034"><linearGradient id="linearGradient3880"><stop id="stop3883" offset="0" style="stop-color:#fff;stop-opacity:1"/><stop id="stop3885" offset="1" style="stop-color:#fff;stop-opacity:0"/></linearGradient><linearGradient id="linearGradient3835"><stop id="stop3841" offset="0" style="stop-color:#f2f2f2;stop-opacity:1"/><stop id="stop3844" offset="1" style="stop-color:#d4d4d4;stop-opacity:1"/></linearGradient><linearGradient id="linearGradient3878"><stop id="stop3880" offset="0" style="stop-color:#fff;stop-opacity:1"/><stop id="stop3882" offset="1" style="stop-color:#fff;stop-opacity:0"/></linearGradient><linearGradient id="linearGradient3841"><stop style="stop-color:#080808;stop-opacity:1" id="stop3843" offset="0"/><stop style="stop-color:#262626;stop-opacity:1" id="stop3845" offset="1"/></linearGradient><linearGradient id="linearGradient3178"><stop style="stop-color:#787878;stop-opacity:1" id="stop3180" offset="0"/><stop style="stop-color:#c8c8c8;stop-opacity:1" id="stop3184" offset=".24"/><stop style="stop-color:#e6e6e6;stop-opacity:1" id="stop3186" offset=".335"/><stop style="stop-color:#8c8c8c;stop-opacity:1" id="stop3188" offset="1"/></linearGradient><linearGradient id="linearGradient10691-1"><stop style="stop-color:#000;stop-opacity:1" id="stop10693-3" offset="0"/><stop style="stop-color:#000;stop-opacity:0" id="stop10695-1" offset="1"/></linearGradient><linearGradient id="linearGradient3028" x1="397.073" x2="397.073" y1="87.076" y2="95.366" gradientTransform="matrix(0.68184398,0,0,0.6063426,-255.2496,-27.797984)" gradientUnits="userSpaceOnUse" xlink:href="#linearGradient3178"/><radialGradient id="radialGradient3033" cx="8.074" cy="73.296" r="7.228" fx="8.074" fy="73.296" gradientTransform="matrix(1.2450862,0,0,0.27668578,6.6545456,8.631578)" gradientUnits="userSpaceOnUse" xlink:href="#linearGradient10691-1"/><clipPath id="clipPath3872" clipPathUnits="userSpaceOnUse"><path style="fill:url(#linearGradient3876);fill-opacity:1;stroke:none" id="path3874" d="M 1.1875,3 C 1.0655458,3 1,3.064217 1,3.15625 l 0,20.6875 C 1,23.935783 1.0655458,24 1.1875,24 l 29.625,0 C 30.934454,24 31,23.935783 31,23.84375 L 31,3.15625 C 31,3.064217 30.934454,3 30.8125,3 L 1.1875,3 z"/></clipPath><linearGradient id="linearGradient3876" x1="15" x2="15" y1="24.619" y2="2" gradientUnits="userSpaceOnUse" xlink:href="#linearGradient3841"/><linearGradient id="linearGradient3884" x1="15" x2="15" y1="2" y2="24.637" gradientUnits="userSpaceOnUse" xlink:href="#linearGradient3878"/><linearGradient id="outerBackgroundGradient-5-0"><stop id="stop3864-8-6-4" offset="0" style="stop-color:#261e2b;stop-opacity:1"/><stop id="stop3866-9-1-86" offset="1" style="stop-color:#352f39;stop-opacity:1"/></linearGradient><linearGradient id="linearGradient3856" x1="15" x2="15" y1="24.619" y2="2" gradientTransform="translate(0,-26.999999)" gradientUnits="userSpaceOnUse" xlink:href="#linearGradient3835"/><clipPath id="clipPath3862" clipPathUnits="userSpaceOnUse"><rect style="fill:url(#linearGradient3866);fill-opacity:1;stroke:none" id="rect3864" width="28" height="17" x="2" y="4" rx="0" ry="0"/></clipPath><linearGradient id="linearGradient3866" x1="15" x2="15" y1="24.619" y2="2" gradientUnits="userSpaceOnUse" xlink:href="#outerBackgroundGradient-5-0"/><linearGradient id="linearGradient3887" x1="10" x2="20" y1="-3" y2="12" gradientUnits="userSpaceOnUse" xlink:href="#linearGradient3880"/><radialGradient id="radialGradient4222" cx="6.703" cy="73.616" r="7.228" fx="6.703" fy="73.616" gradientTransform="matrix(2.2134866,0,0,0.27668578,1.1636366,7.631578)" gradientUnits="userSpaceOnUse" xlink:href="#linearGradient10691-1"/><linearGradient id="outerBackgroundGradient-0"><stop id="stop3864-8-6-3" offset="0" style="stop-color:#c3c3c3;stop-opacity:1"/><stop id="stop3866-9-1-7" offset="1" style="stop-color:#ebebeb;stop-opacity:1"/></linearGradient><linearGradient id="linearGradient3894"><stop id="stop3896" offset="0" style="stop-color:#fff;stop-opacity:1"/><stop id="stop3898" offset="1" style="stop-color:#fff;stop-opacity:0"/></linearGradient><clipPath id="clipPath3865" clipPathUnits="userSpaceOnUse"><path style="opacity:.2;fill:#000;fill-opacity:1;stroke:none" id="path3867" d="m 32,24 a 8,8 0 1 1 -16,0 8,8 0 1 1 16,0 z"/></clipPath><linearGradient id="linearGradient3881"><stop id="stop3883-9" offset="0" style="stop-color:#2d2d2d;stop-opacity:1"/><stop id="stop3885-1" offset="1" style="stop-color:#3f3f3f;stop-opacity:1"/></linearGradient><linearGradient id="linearGradient4971" x1="15" x2="15" y1="24.619" y2="2" gradientUnits="userSpaceOnUse" xlink:href="#outerBackgroundGradient-5-0"/><linearGradient id="linearGradient4977" x1="24" x2="24" y1="14" y2="33" gradientTransform="matrix(0.33333328,0,0,0.42857143,8.0000011,2.2142857)" gradientUnits="userSpaceOnUse" xlink:href="#linearGradient3881"/><linearGradient id="linearGradient4987" x1="9" x2="37" y1="23" y2="23" gradientTransform="matrix(0,0.39285714,-0.39285714,0,25.035714,3.4642856)" gradientUnits="userSpaceOnUse" xlink:href="#outerBackgroundGradient-0"/><linearGradient id="linearGradient5006" x1="15" x2="33" y1="24" y2="24" gradientTransform="matrix(0,-0.44444443,0.44444443,0,5.3333339,23.166666)" gradientUnits="userSpaceOnUse" xlink:href="#linearGradient3894"/></defs><g id="layer1"><path id="path4220" d="m 32,28 c 0,1.10457 -7.163445,2 -16.000002,2 C 7.163442,30 0,29.10457 0,28 0,26.895431 7.163442,26 15.999998,26 24.836555,26 32,26.895431 32,28 z" style="opacity:.1;fill:url(#radialGradient4222);fill-opacity:1;fill-rule:nonzero;stroke:none;stroke-width:.80000000999999998;marker:none;visibility:visible;display:inline;overflow:visible"/><path id="path2589" d="m 24,29 c 0,1.10457 -2.529437,2 -7.5,2 C 11.529437,31 8,30.10457 8,29 c 0,-1.104569 3.529437,-2 8.5,-2 4.970563,0 7.5,0.895431 7.5,2 z" style="opacity:.29999999999999999;fill:url(#radialGradient3033);fill-opacity:1;fill-rule:nonzero;stroke:none;stroke-width:.80000000999999998;marker:none;visibility:visible;display:inline;overflow:visible"/><path id="rect1789-8" d="m 13,22 c 0,0 -0.01619,4.398544 -0.5,5 -0.483816,0.601454 -1.5,1 -1.5,1 -0.617765,0.06319 -0.622875,1.5 0,1.5 l 10,0 c 0.622876,0 0.617894,-1.437619 0,-1.5 0,0 -1.01619,-0.39853 -1.5,-1 C 19.01619,26.398546 19,22 19,22 z" style="color:#000;fill:url(#linearGradient3028);fill-opacity:1;fill-rule:nonzero;stroke:none;stroke-width:.99827468;marker:none;visibility:visible;display:inline;overflow:visible;enable-background:new"/><path style="opacity:.41000001;color:#000;fill:none;stroke:#000;stroke-width:1;stroke-miterlimit:4;stroke-opacity:1;stroke-dasharray:none;marker:none;visibility:visible;display:inline;overflow:visible;enable-background:new" id="path3849" d="m 13,22 c 0,0 -0.01619,4.398544 -0.5,5 -0.483816,0.601454 -1.5,1 -1.5,1 -0.617765,0.06319 -0.622875,1.5 0,1.5 l 10,0 c 0.622876,0 0.617894,-1.437619 0,-1.5 0,0 -1.01619,-0.39853 -1.5,-1 C 19.01619,26.398546 19,22 19,22 z"/><path id="rect3851" d="m 11,28 10,0 0,1 -10,0 z" style="opacity:.41000001;fill:#fff;fill-opacity:1;stroke:none"/><path id="rect3853" d="m 12,27 8,0 0,1 -8,0 z" style="opacity:.11000001;fill:#000;fill-opacity:1;stroke:none"/><path id="rect3854" d="m 1.1888871,-24.49988 29.6222259,0 c 0.381647,0 0.688893,0.297332 0.688893,0.666664 l 0,20.6664315 c 0,0.3693321 -0.307246,0.6666643 -0.688893,0.6666643 l -29.6222259,0 c -0.38164661,0 -0.68889282,-0.2973322 -0.68889282,-0.6666643 l 0,-20.6664315 c 0,-0.369332 0.30724621,-0.666664 0.68889282,-0.666664 z" transform="scale(1,-1)" style="fill:url(#linearGradient3856);fill-opacity:1;stroke:none"/><path id="rect3889" d="m 24,23 5,0 0,1.5 -5,0 z" style="fill:#2b2b2b;fill-opacity:1;stroke:none"/><path id="rect2722" d="M 2.0000002,4 30,4 30,21 2.0000002,21 z" style="fill:url(#linearGradient4971);fill-opacity:1;stroke:none"/><path id="rect3872" d="M 2,4 2,16 30,8.875 30,4 z" style="opacity:.2;fill:url(#linearGradient3887);fill-opacity:1;stroke:none"/><path style="opacity:.1;fill:none;stroke:url(#linearGradient3884);stroke-width:2;stroke-linecap:round;stroke-linejoin:round;stroke-miterlimit:4;stroke-opacity:1;stroke-dasharray:none;stroke-dashoffset:.50000001" id="path3868" d="M 1.1875,3 C 1.0655458,3 1,3.064217 1,3.15625 l 0,20.6875 C 1,23.935783 1.0655458,24 1.1875,24 l 29.625,0 C 30.934454,24 31,23.935783 31,23.84375 L 31,3.15625 C 31,3.064217 30.934454,3 30.8125,3 z" clip-path="url(#clipPath3872)"/><path style="opacity:.05;fill:#fff;fill-opacity:1;stroke:none" id="path3829" d="M 1.1875,24 C 1.0655458,24 1,23.935783 1,23.84375 l 0,-1 C 1,22.93578 1.065546,23 1.1875,23 l 29.625,0 C 30.934454,23 31,22.93578 31,22.84375 l 0,1 C 31,23.93578 30.93445,24 30.8125,24 z"/><path id="rect3803" d="m 1.1888871,2.5001197 29.6222259,0 c 0.381647,0 0.688893,0.2973323 0.688893,0.6666643 l 0,20.666431 c 0,0.369332 -0.307246,0.666664 -0.688893,0.666664 l -29.6222259,0 c -0.38164661,0 -0.68889282,-0.297332 -0.68889282,-0.666664 l 0,-20.666431 c 0,-0.369332 0.30724621,-0.6666643 0.68889282,-0.6666643 z" style="opacity:.61000001;fill:none;stroke:#000;stroke-width:1;stroke-linecap:round;stroke-linejoin:round;stroke-miterlimit:4;stroke-opacity:1;stroke-dashoffset:.50000001"/><path id="rect3858" d="M 2,4 30,4 30,21 2,21 z" clip-path="url(#clipPath3862)" style="opacity:.2;fill:none;stroke:#000;stroke-width:2;stroke-miterlimit:4;stroke-opacity:1"/><path id="rect3815" d="M 1.1875,3 C 1.0655458,3 1,3.064217 1,3.15625 l 0,1 C 1,4.064217 1.0655458,4 1.1875,4 l 29.625,0 C 30.934454,4 31,4.064217 31,4.15625 l 0,-1 C 31,3.064217 30.934454,3 30.8125,3 z" style="opacity:.1;fill:#fff;fill-opacity:1;stroke:none"/><path id="rect3868" d="m 2,21 28,0 0,1 -28,0 z" style="opacity:.6;fill:#fff;fill-opacity:1;stroke:none"/><path id="rect3870" d="M 2,4 30,4 30,5 2,5 z" style="opacity:.2;fill:#000;fill-opacity:1;stroke:none"/></g><g id="layer2"><path style="fill:none;fill-opacity:1;fill-rule:nonzero;stroke:#000;stroke-opacity:1;stroke-width:3;stroke-miterlimit:4;stroke-dasharray:none;opacity:.05" id="path4995" d="M 16.000195,7 C 12.962532,7 10.5,9.4626156 10.5,12.499931 10.5,15.537524 12.962559,18 16.000195,18 19.03772,18 21.5,15.537524 21.5,12.499931 21.5,9.4626156 19.03772,7 16.000195,7 l 0,0 z"/><path style="fill:none;fill-opacity:1;fill-rule:nonzero;stroke:#000;stroke-opacity:1;stroke-width:1;stroke-miterlimit:4;stroke-dasharray:none;opacity:.59999999999999998" id="path4991" d="M 16.000195,7 C 12.962532,7 10.5,9.4626156 10.5,12.499931 10.5,15.537524 12.962559,18 16.000195,18 19.03772,18 21.5,15.537524 21.5,12.499931 21.5,9.4626156 19.03772,7 16.000195,7 l 0,0 z"/><path id="path4993" d="M 16.000195,7 C 12.962532,7 10.5,9.4626156 10.5,12.499931 10.5,15.537524 12.962559,18 16.000195,18 19.03772,18 21.5,15.537524 21.5,12.499931 21.5,9.4626156 19.03772,7 16.000195,7 l 0,0 z" style="fill:none;fill-opacity:1;fill-rule:nonzero;stroke:#000;stroke-opacity:1;stroke-width:2;stroke-miterlimit:4;stroke-dasharray:none;opacity:.10000000000000001"/><path id="path3824" d="M 16.000195,7 C 12.962532,7 10.5,9.4626156 10.5,12.499931 10.5,15.537524 12.962559,18 16.000195,18 19.03772,18 21.5,15.537524 21.5,12.499931 21.5,9.4626156 19.03772,7 16.000195,7 l 0,0 z" style="fill:url(#linearGradient4987);fill-opacity:1;fill-rule:nonzero;stroke:none"/><path id="path3889" d="m 12,12.5 c 0,2.209139 1.790861,4 4,4 2.20914,0 4,-1.790861 4,-4 0,-2.209139 -1.79086,-4 -4,-4 -2.209139,0 -4,1.790861 -4,4 z m 0.444445,0 c 0,-1.963679 1.591876,-3.5555554 3.555555,-3.5555554 1.963679,0 3.555556,1.5918764 3.555556,3.5555554 0,1.963679 -1.591877,3.555555 -3.555556,3.555555 -1.963679,0 -3.555555,-1.591876 -3.555555,-3.555555 z" style="opacity:.4;fill:url(#linearGradient5006);fill-opacity:1;stroke:none"/><path id="path3857" d="m 32,24 a 8,8 0 1 1 -16,0 8,8 0 1 1 16,0 z" transform="matrix(0.4375,0,0,0.4375,5.5,2)" style="opacity:.1;fill:#000;fill-opacity:1;stroke:none"/><path style="opacity:.1;fill:none;stroke:#000;stroke-width:2;stroke-miterlimit:4;stroke-opacity:1;stroke-dasharray:none" id="path3859" d="m 32,24 a 8,8 0 1 1 -16,0 8,8 0 1 1 16,0 z" clip-path="url(#clipPath3865)" transform="matrix(0.4375,0,0,0.4375,5.5,2)"/><path style="opacity:.20000000000000001;fill:#fff;fill-opacity:1;stroke:none" id="path4989" d="m 15,9 2,0 0,2.938957 -1,0.846757 1,0.857143 L 17,15 l -2,0 0,-3.974641 1,-0.811073 -1,-0.857143 z"/><path id="rect3030" d="m 15,9 2,0 0,3.938957 -1,0.846757 1,0.857143 L 17,16 l -2,0 0,-3.974641 1,-0.811073 -1,-0.857143 z" style="fill:url(#linearGradient4977);fill-opacity:1;stroke:none"/></g></svg>