<svg xmlns="http://www.w3.org/2000/svg" xmlns:osb="http://www.openswatchbook.org/uri/2009/osb" xmlns:svg="http://www.w3.org/2000/svg" style="enable-background:new" id="svg7384" width="16" height="16" version="1.1"><metadata id="metadata90"/><title id="title8473">Moka Symbolic Icon Theme</title><defs id="defs7386"><linearGradient id="linearGradient5606" osb:paint="solid"><stop style="stop-color:#000;stop-opacity:1" id="stop5608" offset="0"/></linearGradient><filter id="filter7554" color-interpolation-filters="sRGB"><feBlend id="feBlend7556" in2="BackgroundImage" mode="darken"/></filter></defs><path id="path1234-2" d="m 2,2 c -0.52358,5e-5 -0.99995,0.47642 -1,1 l 0,10 c 5e-5,0.52358 0.47642,0.99995 1,1 l 4,0 -2e-4,-1.99664 -3,0 0,-8 11,0 0,8 -2,0 L 12,14 l 3,0 c 0.51929,0 1,-0.43513 1,-1 L 16,3 C 16.00075,2.53337 15.56291,1.99978 15,2 Z" style="fill:#bebebe;fill-opacity:1;stroke:none"/><path id="path4136-5" d="m 8.71759,6.01328 a 3,3 0 0 0 -2.71875,3.0625 3.0000004,3.0000004 0 0 0 6,0 3,3 0 0 0 -3.28125,-3.0625 z m 0.28125,1 c 1.10457,0 2.00001,0.89543 2.00001,2 0,1.10457 -0.89544,2 -2.00001,2 -1.10457,0 -2,-0.89543 -2,-2 0,-1.10457 0.89543,-2 2,-2 z" style="fill:#bebebe;fill-opacity:1;fill-rule:nonzero;stroke:none"/><path id="path3655-4-1" d="m 6.9998,10.99998 0,5 1.2e-4,2e-5 2.00018,-2 1.99983,2 -1.3e-4,-2e-5 0,-5" style="fill:#bebebe;fill-opacity:1;fill-rule:evenodd;stroke:none"/></svg>