<svg xmlns="http://www.w3.org/2000/svg" xmlns:osb="http://www.openswatchbook.org/uri/2009/osb" xmlns:svg="http://www.w3.org/2000/svg" id="svg2" width="16" height="16" enable-background="new" version="1.1"><metadata id="metadata90"/><defs id="defs7386"><linearGradient id="linearGradient5606" osb:paint="solid"><stop id="stop5608"/></linearGradient></defs><g id="layer14" transform="translate(-781,238.99987)"><ellipse id="path4983" cx="323.06" cy="97.19" fill="#bebebe" stroke-width="1.696" color="#000" rx="2" ry="3.236" transform="matrix(1.0000007,0,0,0.61803426,461.93747,-287.0652)"/><path id="path5814" fill="#bebebe" stroke-width="1.333" d="m 783.0002,-236.99999 0,1 c 0,0.55016 0.45347,1 1,1 4.97056,0 9,4.02944 9,9 0,0.55016 0.45347,1 1,1 l 1,0 0,-1 c 0,-6.07513 -4.92487,-11 -11,-11 l -1,0 z m 0,4 0,1 c 0,0.55016 0.45347,1 1,1 2.76143,0 5,2.23857 5,5 0,0.55016 0.45347,1 1,1 l 1,0 0,-1 c 0,-3.866 -3.134,-7 -7,-7 l -1,0 z" color="#000"/></g></svg>