<svg xmlns="http://www.w3.org/2000/svg" xmlns:osb="http://www.openswatchbook.org/uri/2009/osb" xmlns:svg="http://www.w3.org/2000/svg" style="enable-background:new" id="svg7384" width="16" height="16.003" version="1.1"><metadata id="metadata90"/><title id="title8473">Moka Symbolic Icon Theme</title><defs id="defs7386"><linearGradient id="linearGradient5606" osb:paint="solid"><stop style="stop-color:#000;stop-opacity:1" id="stop5608" offset="0"/></linearGradient><filter id="filter7554" color-interpolation-filters="sRGB"><feBlend id="feBlend7556" in2="BackgroundImage" mode="darken"/></filter></defs><g style="display:inline" id="layer14" transform="translate(-669.00037,306.67584)"><path style="fill:#bebebe;fill-opacity:1;stroke:none" id="path6119" d="m 683.00037,-305.87248 -10,1 0,3.2 0,5.1875 c -0.31647,-0.11352 -0.64447,-0.1875 -1,-0.1875 -1.65685,0 -3,1.34315 -3,3 0,1.65685 1.34315,3 3,3 1.65685,0 3,-1.34315 3,-3 l 0,-8.01838 6,-0.5625 0,4.76838 c -0.31647,-0.11352 -0.64447,-0.1875 -1,-0.1875 -1.65685,0 -3,1.34315 -3,3 0,1.65685 1.34315,3 3,3 1.65685,0 3,-1.34315 3,-3 l 0,-7.79963 z"/></g></svg>