<svg xmlns="http://www.w3.org/2000/svg" xmlns:osb="http://www.openswatchbook.org/uri/2009/osb" xmlns:svg="http://www.w3.org/2000/svg" id="svg2" width="16" height="16" enable-background="new" version="1.1"><metadata id="metadata90"/><defs id="defs7386"><linearGradient id="linearGradient5606" osb:paint="solid"><stop id="stop5608"/></linearGradient></defs><g id="layer14" transform="translate(-740.00012,238)"><path id="rect7356-3" fill="#bebebe" d="m 742.99971,-235.00002 -2.1e-4,0.99998 10.00021,2e-5 2.1e-4,-0.99998 z" color="#bebebe"/><path id="path6091-3" fill="#bebebe" d="m 742.99992,-232.00002 -2.1e-4,0.99998 10.00021,2e-5 2.1e-4,-0.99998 z" color="#bebebe"/><path id="path6094-6" fill="#bebebe" d="m 742.99992,-229 -2.1e-4,0.99998 6.00028,0 2.1e-4,-0.99998 z" color="#bebebe"/><path id="path6097-0" fill="#bebebe" d="m 742.99992,-226.00002 -2.1e-4,0.99998 4.00028,2e-5 2.1e-4,-0.99998 z" color="#bebebe"/><path id="path6113-7" fill="#bebebe" stroke-width="2" d="m 750.0002,-230.00005 0,2 0,2.09375 c -0.15432,-0.0536 -0.32741,-0.0937 -0.5,-0.0937 -0.82843,0 -1.5,0.67157 -1.5,1.5 0,0.82843 0.67157,1.5 1.5,1.5 0.82843,0 1.5,-0.67157 1.5,-1.5 l 0,-3.5 3,0 0,2.09375 c -0.15432,-0.0536 -0.32741,-0.0937 -0.5,-0.0937 -0.82843,0 -1.5,0.67157 -1.5,1.5 0,0.82843 0.67157,1.5 1.5,1.5 0.82843,0 1.5,-0.67157 1.5,-1.5 l 0,-5.5 -1,0 -3,0 -1,0 z" color="#000"/></g></svg>