<svg xmlns="http://www.w3.org/2000/svg" xmlns:svg="http://www.w3.org/2000/svg" xmlns:xlink="http://www.w3.org/1999/xlink" id="svg3540" width="48" height="48" version="1.1"><defs id="defs3542"><linearGradient id="linearGradient5390"><stop id="stop5392" offset="0" style="stop-color:#f8f8f8;stop-opacity:1"/><stop id="stop5394" offset="1" style="stop-color:#c6c6c6;stop-opacity:1"/></linearGradient><linearGradient id="linearGradient5319"><stop id="stop5321" offset="0" style="stop-color:#fff;stop-opacity:1"/><stop id="stop5323" offset="1" style="stop-color:#fff;stop-opacity:0"/></linearGradient><linearGradient id="linearGradient5048-7"><stop style="stop-color:black;stop-opacity:0" id="stop5050-8" offset="0"/><stop id="stop5056-0" offset=".5" style="stop-color:black;stop-opacity:1"/><stop style="stop-color:black;stop-opacity:0" id="stop5052-6" offset="1"/></linearGradient><linearGradient id="linearGradient5060-6"><stop style="stop-color:black;stop-opacity:1" id="stop5062-6" offset="0"/><stop style="stop-color:black;stop-opacity:0" id="stop5064-2" offset="1"/></linearGradient><linearGradient id="linearGradient5491-8"><stop style="stop-color:#444;stop-opacity:1" id="stop5493-1" offset="0"/><stop id="stop5501-4" offset=".25" style="stop-color:#858585;stop-opacity:1"/><stop id="stop5499-3" offset=".624" style="stop-color:#a0a0a0;stop-opacity:1"/><stop style="stop-color:#fff;stop-opacity:1" id="stop5771-3" offset=".797"/><stop style="stop-color:#90928d;stop-opacity:1" id="stop5495-2" offset="1"/></linearGradient><linearGradient id="linearGradient5785-4"><stop style="stop-color:#f2f2f2;stop-opacity:1" id="stop5787-5" offset="0"/><stop style="stop-color:#464646;stop-opacity:1" id="stop5789-7" offset="1"/></linearGradient><linearGradient id="linearGradient5508-3"><stop style="stop-color:white;stop-opacity:1" id="stop5510-6" offset="0"/><stop style="stop-color:white;stop-opacity:0" id="stop5512-2" offset="1"/></linearGradient><linearGradient id="linearGradient5737-4"><stop style="stop-color:#babdb6;stop-opacity:1" id="stop5739-8" offset="0"/><stop style="stop-color:#dddedb;stop-opacity:1" id="stop5741-1" offset="1"/></linearGradient><linearGradient id="linearGradient6832-0"><stop style="stop-color:#505050;stop-opacity:1" id="stop6834-7" offset="0"/><stop style="stop-color:#737373;stop-opacity:1" id="stop6836-0" offset="1"/></linearGradient><filter id="filter6876-3" width="1.248" height="1.16" x="-.124" y="-.08" color-interpolation-filters="sRGB"><feGaussianBlur id="feGaussianBlur6878-2" stdDeviation=".283"/></filter><linearGradient id="linearGradient6842-3"><stop style="stop-color:#d8d9d7;stop-opacity:1" id="stop6844-9" offset="0"/><stop style="stop-color:#7c7f79;stop-opacity:1" id="stop6846-9" offset="1"/></linearGradient><linearGradient id="linearGradient5683-1"><stop style="stop-color:#fff;stop-opacity:1" id="stop5685-6" offset="0"/><stop style="stop-color:#fff;stop-opacity:0" id="stop5687-9" offset="1"/></linearGradient><filter id="filter5733-3" width="1.153" height="1.715" x="-.076" y="-.357" color-interpolation-filters="sRGB"><feGaussianBlur id="feGaussianBlur5735-1" stdDeviation=".6"/></filter><linearGradient id="linearGradient5817-4"><stop style="stop-color:#fff;stop-opacity:1" id="stop5819-6" offset="0"/><stop style="stop-color:#fff;stop-opacity:0" id="stop5821-9" offset="1"/></linearGradient><linearGradient id="linearGradient4646-7-4-3-5"><stop style="stop-color:#f9f9f9;stop-opacity:1" id="stop4648-8-0-3-6" offset="0"/><stop style="stop-color:#d8d8d8;stop-opacity:1" id="stop4650-1-7-3-4" offset="1"/></linearGradient><linearGradient id="linearGradient4632-0-6-4-3-4"><stop style="stop-color:#b4cee1;stop-opacity:1" id="stop4634-4-4-7-7-4" offset="0"/><stop id="stop5298" offset=".5" style="stop-color:#5d9fcd;stop-opacity:1"/><stop style="stop-color:#7aaacb;stop-opacity:1" id="stop4636-3-1-5-1-3" offset="1"/></linearGradient><linearGradient id="linearGradient5408" x1="38.907" x2="35.315" y1="38.791" y2="23.059" gradientUnits="userSpaceOnUse" xlink:href="#linearGradient5534-6-0"/><radialGradient id="radialGradient5410" cx="30.128" cy="29.84" r="6.999" fx="30.128" fy="29.84" gradientTransform="matrix(1.7481488,0,0,1.7805361,-23.042966,-23.568319)" gradientUnits="userSpaceOnUse" xlink:href="#linearGradient5785-4"/><linearGradient id="linearGradient5418" x1="40.546" x2="42.913" y1="9.438" y2="9.835" gradientUnits="userSpaceOnUse" xlink:href="#linearGradient5817-4"/><linearGradient id="linearGradient5423" x1="38.449" x2="38.537" y1="8.667" y2="10.435" gradientTransform="translate(-0.01777,-0.94639)" gradientUnits="userSpaceOnUse" xlink:href="#linearGradient5817-4"/><linearGradient id="linearGradient5427" x1="38.449" x2="38.626" y1="8.667" y2="12.291" gradientTransform="translate(-0.01777,-0.94639)" gradientUnits="userSpaceOnUse" xlink:href="#linearGradient5817-4"/><linearGradient id="linearGradient5432" x1="30.25" x2="30.25" y1="10.232" y2="8.625" gradientTransform="matrix(1.05298,0,0,1,-2.262804,-0.94639)" gradientUnits="userSpaceOnUse" xlink:href="#linearGradient6832-0"/><linearGradient id="linearGradient5438" x1="13.5" x2="14" y1="35.844" y2="40" gradientTransform="translate(1,2.75)" gradientUnits="userSpaceOnUse" xlink:href="#linearGradient5319"/><linearGradient id="linearGradient5441" x1="23.556" x2="23.238" y1="17.459" y2="43.121" gradientTransform="matrix(-0.448615,0,0.279321,0.468907,19.64541,25.69152)" gradientUnits="userSpaceOnUse" xlink:href="#linearGradient4632-0-6-4-3-4"/><linearGradient id="linearGradient5452" x1="24.612" x2="28.121" y1="19.318" y2="32.114" gradientTransform="matrix(-0.448615,0,0.279321,0.468907,19.64541,25.69152)" gradientUnits="userSpaceOnUse" xlink:href="#linearGradient4646-7-4-3-5"/><linearGradient id="linearGradient5461" x1="27.445" x2="26.719" y1="16.572" y2="26.118" gradientTransform="translate(-0.01777,1.24111)" gradientUnits="userSpaceOnUse" xlink:href="#linearGradient5737-4"/><linearGradient id="linearGradient5464" x1="21.5" x2="23.892" y1="21.859" y2="49.359" gradientTransform="matrix(1,0,0,0.998582,-0.01777,3.04855)" gradientUnits="userSpaceOnUse" xlink:href="#linearGradient5508-3"/><linearGradient id="linearGradient5468" x1="15.876" x2="15.876" y1="39.987" y2="19.573" gradientTransform="matrix(1,0,0,1.012575,-0.01777,2.78327)" gradientUnits="userSpaceOnUse" xlink:href="#linearGradient5491-8"/><linearGradient id="linearGradient5498" x1="15" x2="13" y1="24" y2="34" gradientUnits="userSpaceOnUse" xlink:href="#linearGradient5683-1"/><linearGradient id="linearGradient5500" x1="10.412" x2="11.412" y1="26.908" y2="35.908" gradientTransform="translate(2.58781,0.8421)" gradientUnits="userSpaceOnUse" xlink:href="#linearGradient5390"/><radialGradient id="radialGradient6717" cx="34.313" cy="31.953" r="2.281" fx="34.313" fy="31.953" gradientTransform="matrix(1,0,0,1.554795,0,-17.72742)" gradientUnits="userSpaceOnUse" xlink:href="#linearGradient6842-3"/><linearGradient id="linearGradient5534-6-0"><stop style="stop-color:#414141;stop-opacity:1" id="stop5536-3-5" offset="0"/><stop style="stop-color:#bebebe;stop-opacity:1" id="stop5538-3-1" offset="1"/></linearGradient><linearGradient id="linearGradient7264"><stop id="stop7266" offset="0" style="stop-color:#fff;stop-opacity:1"/><stop id="stop7268" offset="1" style="stop-color:#fff;stop-opacity:0"/></linearGradient><linearGradient id="linearGradient4183" x1="46.876" x2="60.692" y1="27.761" y2="17.861" gradientTransform="matrix(0.75,0,0,0.75,-22.565902,0.29722331)" gradientUnits="userSpaceOnUse" xlink:href="#linearGradient7264"/><radialGradient id="radialGradient4245" cx="605.714" cy="486.648" r="117.143" fx="605.714" fy="486.648" gradientTransform="matrix(-0.05557431,0,0,0.0279493,42.161213,30.718433)" gradientUnits="userSpaceOnUse" xlink:href="#linearGradient5060-6"/><radialGradient id="radialGradient4248" cx="605.714" cy="486.648" r="117.143" fx="605.714" fy="486.648" gradientTransform="matrix(0.05557431,0,0,0.0279493,2.01079,30.718433)" gradientUnits="userSpaceOnUse" xlink:href="#linearGradient5060-6"/><linearGradient id="linearGradient4251" x1="302.857" x2="302.857" y1="366.648" y2="609.505" gradientTransform="matrix(0.05557431,0,0,0.0279493,1.9998529,30.718433)" gradientUnits="userSpaceOnUse" xlink:href="#linearGradient5048-7"/><linearGradient id="linearGradient4255" x1="46.876" x2="60.692" y1="27.761" y2="17.861" gradientTransform="matrix(0.75,0,0,0.75,-2.0156111,8.7383105)" gradientUnits="userSpaceOnUse" xlink:href="#linearGradient7264"/></defs><metadata id="metadata3545"/><g id="layer1"><path id="path5398" d="m 20.65291,39.1127 18.56694,0.28082 c 0.36016,0 0.4237,0.67686 0.4237,0.67686 -0.7476,2.79007 -3.87429,4.35572 -5.96676,4.35572 l -23.56927,0.0323 c 7.23359,-0.45208 7.73661,-0.8855 8.30628,-4.03938 0.48898,-0.9883 1.40137,-1.30627 2.23911,-1.30627 z" style="color:#000;fill:#5094c3;fill-opacity:1;fill-rule:evenodd;stroke:none;stroke-width:.99999964;marker:none;visibility:visible;display:inline;overflow:visible"/><rect id="rect3954" width="26.834" height="6.788" x="8.669" y="40.966" style="opacity:.24123709;color:#000;fill:url(#linearGradient4251);fill-opacity:1;fill-rule:nonzero;stroke:none;stroke-width:1;marker:none;visibility:visible;display:inline;overflow:visible"/><path id="path3956" d="m 35.503225,40.966219 0,6.787313 c 2.861939,0.01278 6.918777,-1.520693 6.918776,-3.394094 0,-1.873401 -3.193709,-3.393219 -6.918776,-3.393219 z" style="opacity:.24123709;color:#000;fill:url(#radialGradient4248);fill-opacity:1;fill-rule:nonzero;stroke:none;stroke-width:1;marker:none;visibility:visible;display:inline;overflow:visible"/><path style="opacity:.24123709;color:#000;fill:url(#radialGradient4245);fill-opacity:1;fill-rule:nonzero;stroke:none;stroke-width:1;marker:none;visibility:visible;display:inline;overflow:visible" id="path3958" d="m 8.6687709,40.966219 0,6.787313 c -2.8619402,0.01278 -6.918777,-1.520693 -6.918777,-3.394094 0,-1.873401 3.1937088,-3.393219 6.918777,-3.393219 z"/><path style="color:#000;fill:none;stroke:#000;stroke-width:.99999964;stroke-linecap:butt;stroke-linejoin:round;stroke-miterlimit:4;stroke-opacity:.49803922;stroke-dashoffset:0;marker:none;visibility:visible;display:inline;overflow:visible" id="path5759" d="m 20.65291,39.1127 18.56694,0.28082 c 0.36016,0 0.4237,0.67686 0.4237,0.67686 -0.7476,2.79007 -3.87429,4.35572 -5.96676,4.35572 l -23.56927,0.0323 c 7.23359,-0.45208 7.73661,-0.8855 8.30628,-4.03938 0.48898,-0.9883 1.40137,-1.30627 2.23911,-1.30627 z"/><path id="path5472" d="m 9.98223,21.51591 c -3.588,0 -6.5,4.98997 -6.5,11.13832 0,6.14836 2.912,10.86983 6.5,10.86983 0.0857,0 0.16513,-0.026 0.25,-0.0316 l 0,0.0316 22.21967,0 0,-22.03436 c 0,0 -14.81222,0.18883 -22.46967,0.0262 z" style="color:#000;fill:url(#linearGradient5468);fill-opacity:1;fill-rule:nonzero;stroke:#626262;stroke-width:.99715477;stroke-linecap:square;stroke-linejoin:miter;stroke-miterlimit:4;stroke-opacity:1;stroke-dasharray:none;stroke-dashoffset:0;marker:none;visibility:visible;display:inline;overflow:visible;enable-background:accumulate"/><path id="path4585" d="m 43.125,29.5625 a 6.5,10.9375 0 1 1 -13,0 6.5,10.9375 0 1 1 13,0 z" transform="matrix(1,0,0,1.005714,-3.642774,2.75969)" style="color:#000;fill:url(#linearGradient5408);fill-opacity:1;fill-rule:nonzero;stroke:url(#radialGradient5410);stroke-width:.99715447000000001;stroke-linecap:square;stroke-linejoin:miter;stroke-miterlimit:4;stroke-opacity:1;stroke-dasharray:none;stroke-dashoffset:0;marker:none;visibility:visible;display:inline;overflow:visible;enable-background:accumulate"/><path id="path5503" d="m 32.45579,22.48969 c 0,0 -14.97315,0.17419 -21.94713,0.0284 -3.26775,0 -5.91984,4.47428 -5.91984,9.98723 0,5.51296 2.65209,9.98724 5.91984,9.98724 0.078,0 0.15039,-0.0233 0.22769,-0.0284 l 0,0.0284 21.71944,0 c 3.26776,0 5.91985,-4.47428 5.91985,-9.98724 0,-5.51295 -2.65209,-9.98723 -5.91985,-9.98723 z" style="opacity:.41714286;color:#000;fill:none;stroke:url(#linearGradient5464);stroke-width:.99715441;stroke-linecap:square;stroke-linejoin:miter;stroke-miterlimit:4;stroke-opacity:1;stroke-dasharray:none;stroke-dashoffset:0;marker:none;visibility:visible;display:inline;overflow:visible;enable-background:accumulate"/><path id="path5477" d="m 22.16973,7.544725 c -1.05383,0 -1.89453,0.46004 -2.375,1.25 l -5.98123,12.168505 -0.375,0.75 0.8125,0 1.125,0 0.3125,0 0.125,-0.28125 5.60623,-11.481005 c 0.0971,-0.15684 0.42421,-0.40625 0.75,-0.40625 L 43.84161,9.45243 c 0.20957,-0.0156 0.28456,0.19864 0.21093,0.29688 l -10.91406,22.18286 -0.25,0.4375 0.4375,0.25 0.875,0.46875 0.4375,0.21875 0.25,-0.4375 11.0625,-22.4563 C 46.32083,9.78749 46.19185,9.09215 45.88848,8.53838 45.55195,7.92408 44.86404,7.42546 43.98223,7.44463 l -21.8125,0.100295 z" style="fill:url(#linearGradient5461);fill-opacity:1;fill-rule:evenodd;stroke:none"/><path id="rect5631" d="m 8.46875,25 c -0.1619753,0 -0.2454729,0.01326 -0.28125,0.03125 -1.9622842,2.13264 -2.1148519,4.763031 -1.75,7.5625 0.3648519,2.799469 1.2815227,5.705407 1.40625,8.1875 0,0.156778 0.040343,0.347732 0.09375,0.4375 0.044506,0.07481 0.035694,0.09336 0.0625,0.09375 0.00536,7.7e-5 0.02353,0 0.03125,0 L 23.21875,40 23.25,40 c 0.203083,0 0.34375,-0.171917 0.34375,-0.375 C 21.909614,35.420287 20.938591,29.708983 23.625,25.25 l 0,-0.03125 0.03125,-0.03125 C 23.73951,25.07589 23.71104,25.13004 23.6875,25.09375 23.663964,25.05746 23.55735,25 23.5,25 z" style="color:#000;fill:url(#linearGradient5500);fill-opacity:1;fill-rule:nonzero;stroke:none;stroke-width:1;marker:none;visibility:visible;display:inline;overflow:visible;enable-background:accumulate"/><path id="path5677" d="m 22.9375,25.78125 c 0.0089,0.01544 0.03128,0.06253 0.03125,0.0625 0.04943,0.03557 0.160651,0.142446 0.1875,0.15625 0.01367,0.007 0.08034,0.0217 0.09375,0.03125 -0.102705,-0.05547 -0.211501,-0.142092 -0.3125,-0.25 z M 8.75,26.0625 C 7.2707379,27.857693 7.1045198,29.976329 7.4375,32.53125 7.7661703,35.053102 8.5412934,37.755867 8.75,40.3125 L 22.375,39.125 C 20.971375,35.230597 20.332311,30.356542 22.28125,26.0625 l -13.53125,0 z m 14.5,0 c 0.03083,0.01612 0.0462,0.0245 0.0625,0.03125 -0.0043,-0.0018 0.0045,-0.02924 0,-0.03125 l -0.0625,0 z" xlink:href="#rect5631" style="color:#000;fill:none;stroke:url(#linearGradient5498);stroke-width:1;stroke-linecap:square;stroke-linejoin:miter;stroke-miterlimit:4;stroke-opacity:1;stroke-dashoffset:0;marker:none;visibility:visible;display:inline;overflow:visible;enable-background:accumulate"/><path id="path5691" d="m 7.98223,30.56985 5.08233,0.17678 0.39775,1.37002 10.03207,0.7513 0.22098,1.06066 -15.24699,-0.22097 z" style="opacity:.20571427;fill:#000;fill-opacity:1;fill-rule:evenodd;stroke:none;filter:url(#filter5733-3)"/><path style="opacity:.3;color:#000;fill:none;stroke:#000;stroke-width:1;stroke-linecap:square;stroke-linejoin:miter;stroke-miterlimit:4;stroke-opacity:1;stroke-dashoffset:0;marker:none;visibility:visible;display:inline;overflow:visible;enable-background:accumulate" id="path5388" d="m 8.47689,24.49111 15.02939,0 c 0.47143,0 0.91345,0.50452 0.53845,1.0072 -2.60088,4.31702 -1.63566,10.00583 0.0625,14.14014 0,0.47143 -0.37952,0.85095 -0.85095,0.85095 L 8.03939,41.8019 c -0.47142,0 -0.6947,-0.53577 -0.6947,-1.0072 -0.23847,-4.74559 -3.70409,-11.54585 0.4817,-16.09503 0,0 0.17908,-0.20856 0.6505,-0.20856 z"/><path id="rect337" d="M 12.69003,33.25 C 10.78953,33.3328 12.24328,31.61137 10.76995,31.2546 8.13373,31.1783 3.85001,31.2456 3.85001,31.2456 3,31.75 4,33.75 2.9616,33.25 c -0.64887,0.0655 -0.22944,1.59699 -0.22944,1.59699 0.51319,3.15411 1.56572,6.54273 4.23775,8.52327 1.48573,1.15536 3.4031,1.03514 5.17382,1.02869 7.23773,0.01 14.47547,0.0198 21.71321,0.0297 -3.16918,-0.11676 -6.26059,-1.82079 -7.84339,-4.60685 -0.94697,-1.56294 -1.51354,-3.32915 -1.83789,-5.12004 0,0 -0.0109,-1.33048 -1.21816,-1.3809 -1.95729,0.0121 -10.26747,-0.0709 -10.26747,-0.0709 z" style="color:#000;fill:url(#linearGradient5452);fill-opacity:1;fill-rule:evenodd;stroke:#000;stroke-width:.99999964;stroke-linecap:butt;stroke-linejoin:round;stroke-miterlimit:4;stroke-opacity:.3669065;stroke-dashoffset:0;marker:none;visibility:visible;display:inline;overflow:visible"/><path id="path5795" d="m 39.13848,39.92861 c -0.25,1.8125 -2.71875,3.59375 -5.0625,4.03125 1.51729,-0.61136 3.77336,-1.29324 5.0625,-4.03125 z" style="opacity:.53142856;fill:#fff;fill-opacity:1;fill-rule:evenodd;stroke:none"/><path id="path5302" d="m 3.25,37.25 c 1.04939,3.8112 3.24127,7.17137 7.03125,7.15625 l 23.5625,0.0312 c -5.5742,-0.34837 -7.93432,-4.05832 -9,-7.1875 l -21.59375,0 z" style="color:#000;fill:url(#linearGradient5441);fill-opacity:1;fill-rule:evenodd;stroke:none;stroke-width:.99999964;marker:none;visibility:visible;display:inline;overflow:visible"/><path style="opacity:.5;color:#000;fill:none;stroke:url(#linearGradient5438);stroke-width:.99999964;stroke-linecap:butt;stroke-linejoin:round;stroke-miterlimit:4;stroke-opacity:.3669065;stroke-dashoffset:0;marker:none;visibility:visible;display:inline;overflow:visible" id="path5317" d="m 4.51692,38.21041 c 1.68285,3.89038 3.83513,5.30036 6.75411,5.28524 l 16.71323,-0.008 c -0.90245,-0.50673 -2.70829,-2.14772 -3.77397,-5.2769 z"/><path style="opacity:.4;fill:none;stroke:#000;stroke-width:1;stroke-linecap:butt;stroke-linejoin:miter;stroke-miterlimit:4;stroke-opacity:1;stroke-dasharray:none" id="path5384" d="m 22.16973,7.544725 c -1.05383,0 -1.89453,0.46004 -2.375,1.25 l -5.98123,12.168505 -0.375,0.75 0.8125,0 1.125,0 0.3125,0 0.125,-0.28125 5.60623,-11.481005 c 0.0971,-0.15684 0.42421,-0.40625 0.75,-0.40625 L 43.84161,9.45243 c 0.20957,-0.0156 0.28456,0.19864 0.21093,0.29688 l -10.91406,22.18286 -0.25,0.4375 0.4375,0.25 0.875,0.46875 0.4375,0.21875 0.25,-0.4375 11.0625,-22.4563 C 46.32083,9.78749 46.19185,9.09215 45.88848,8.53838 45.55195,7.92408 44.86404,7.42546 43.98223,7.44463 l -21.8125,0.100295 z"/><path style="opacity:.38285714;color:#000;fill:#2e3436;fill-opacity:1;fill-rule:nonzero;stroke:#2e3436;stroke-width:1.1361264;stroke-linecap:square;stroke-linejoin:miter;stroke-miterlimit:4;stroke-opacity:1;stroke-dasharray:none;stroke-dashoffset:0;marker:none;visibility:visible;display:inline;overflow:visible;filter:url(#filter6876-3);enable-background:accumulate" id="path6850" d="m 35.5625,31.953125 a 1.78125,3.046875 0 1 1 -3.5625,0 1.78125,3.046875 0 1 1 3.5625,0 z" transform="matrix(1,0,0,0.7747234,-0.525353,8.09676)"/><path id="path6840" d="m 35.5625,31.953125 a 1.78125,3.046875 0 1 1 -3.5625,0 1.78125,3.046875 0 1 1 3.5625,0 z" transform="translate(-0.01777,-0.00889)" style="color:#000;fill:url(#radialGradient6717);fill-opacity:1;fill-rule:nonzero;stroke:#000;stroke-width:1;stroke-linecap:square;stroke-linejoin:miter;stroke-miterlimit:4;stroke-opacity:.352518;stroke-dasharray:none;stroke-dashoffset:0;marker:none;visibility:visible;display:inline;overflow:visible;enable-background:accumulate"/><rect id="rect6826" width="19.875" height="4" x="22.482" y="6.554" rx="2" ry="2" style="color:#000;fill:url(#linearGradient5432);fill-opacity:1;fill-rule:nonzero;stroke:none;stroke-width:.9999994;marker:none;visibility:visible;display:inline;overflow:visible;enable-background:accumulate"/><rect style="opacity:.4;color:#000;fill:none;stroke:#000;stroke-width:.9999994;stroke-linecap:square;stroke-linejoin:miter;stroke-miterlimit:4;stroke-opacity:1;stroke-dasharray:none;stroke-dashoffset:0;marker:none;visibility:visible;display:inline;overflow:visible;enable-background:accumulate" id="rect5386" width="19.875" height="4" x="22.482" y="6.554" rx="2" ry="2"/><path id="path5797" d="m 38.16973,7.07214 c -0.52345,0.13606 -0.9375,0.73309 -0.9375,1.4375 0,0.79095 0.50605,1.44643 1.125,1.46875 0.011,4e-4 0.0202,0 0.0312,0 l 2.25,0 c 0.0111,0 0.0202,4e-4 0.0312,0 0.61895,-0.0223 1.125,-0.6778 1.125,-1.46875 0,-0.79067 -0.50637,-1.41474 -1.125,-1.4375 l -0.25,0 -1.8125,0 -0.21875,0 c -0.0113,0 -0.02,-4.1e-4 -0.0312,0 -0.0675,0.002 -0.12341,-0.0167 -0.1875,0 z" style="opacity:.53142856;color:#000;fill:url(#linearGradient5427);fill-opacity:1;fill-rule:nonzero;stroke:none;stroke-width:1;marker:none;visibility:visible;display:inline;overflow:visible;enable-background:accumulate"/><path id="path5829" d="m 41.71875,9.4375 a 0.703125,1.15625 0 1 1 -1.40625,0 0.703125,1.15625 0 1 1 1.40625,0 z" transform="matrix(1.2222222,0,0,1,-9.283242,-0.92429)" style="opacity:.4857143;color:#000;fill:url(#linearGradient5418);fill-opacity:1;fill-rule:nonzero;stroke:none;stroke-width:1;marker:none;visibility:visible;display:inline;overflow:visible;enable-background:accumulate"/><path id="path5804" d="m 24.29473,7.08486 c -0.65867,0 -1.25,0.63246 -1.25,1.4375 0,0.80504 0.57571,1.51562 1.23438,1.51562 l 1.56046,0.0339 c -0.41891,-0.18971 -0.9365,-0.70502 -0.9365,-1.5404 0,-0.81977 0.56738,-1.3238 0.89767,-1.47143 -0.30906,-0.0446 -1.21905,0.0248 -1.50601,0.0248 z" style="opacity:.53142856;color:#000;fill:url(#linearGradient5423);fill-opacity:1;fill-rule:nonzero;stroke:none;stroke-width:1;marker:none;visibility:visible;display:inline;overflow:visible;enable-background:accumulate"/><path style="opacity:.4;color:#000;fill:none;stroke:#000;stroke-width:.99999964;stroke-linecap:butt;stroke-linejoin:round;stroke-miterlimit:4;stroke-opacity:1;stroke-dashoffset:0;marker:none;visibility:visible;display:inline;overflow:visible" id="path5400" d="m 3.25,37.25 c 1.04939,3.8112 3.24127,7.17137 7.03125,7.15625 l 23.5625,0.0312 c -5.5742,-0.34837 -7.93432,-4.05832 -9,-7.1875 l -21.59375,0 z"/><path style="fill:none;stroke:url(#linearGradient4183);stroke-width:1px;stroke-linecap:round;stroke-linejoin:miter;stroke-opacity:1" id="path7272" d="m 15.066738,20.918933 4.441515,-9.281658"/><path id="path4253" d="M 35.617029,29.36002 46.058544,7.978067" style="fill:none;stroke:url(#linearGradient4255);stroke-width:1px;stroke-linecap:round;stroke-linejoin:miter;stroke-opacity:1"/><path id="path4257" d="m 24.441942,7.5303301 15.028414,0.066765" style="opacity:.3;fill:none;stroke:#fff;stroke-width:1px;stroke-linecap:round;stroke-linejoin:miter;stroke-opacity:1"/><path style="opacity:.3;fill:none;stroke:#000;stroke-width:1px;stroke-linecap:round;stroke-linejoin:miter;stroke-opacity:1" id="path4259" d="m 24.486136,9.6035534 15.072608,0.066765"/></g></svg>