<svg xmlns="http://www.w3.org/2000/svg" xmlns:svg="http://www.w3.org/2000/svg" xmlns:xlink="http://www.w3.org/1999/xlink" id="svg3759" width="48" height="48" version="1.1"><metadata id="metadata37"/><defs id="defs3761"><linearGradient id="linearGradient3978"><stop id="stop3980" offset="0" style="stop-color:#fff;stop-opacity:1"/><stop id="stop3982" offset="1" style="stop-color:#fff;stop-opacity:0"/></linearGradient><linearGradient id="linearGradient3931"><stop id="stop3933" offset="0" style="stop-color:#828282;stop-opacity:1"/><stop id="stop3935" offset="1" style="stop-color:#373737;stop-opacity:1"/></linearGradient><linearGradient id="linearGradient4140" x1="789" x2="827" y1="256" y2="256" gradientUnits="userSpaceOnUse" xlink:href="#linearGradient4134"/><linearGradient id="linearGradient4134"><stop id="stop4136" offset="0" style="stop-color:#fff;stop-opacity:1"/><stop id="stop4138" offset="1" style="stop-color:#fff;stop-opacity:0"/></linearGradient><clipPath id="clipPath4130" clipPathUnits="userSpaceOnUse"><path style="fill:#ba2222;fill-opacity:1;stroke:none" id="path4132" d="M 790.4375,237 C 789.62555,237 789,237.62555 789,238.4375 l 0,35.09375 c 0,0.812 0.62555,1.46875 1.4375,1.46875 l 35.125,0 c 0.81195,0 1.4375,-0.65675 1.4375,-1.46875 l 0,-35.09375 C 827,237.62555 826.37445,237 825.5625,237 l -35.125,0 z"/></clipPath><linearGradient id="linearGradient4117" x1="-1023.862" x2="-984.862" y1="-808" y2="-808" gradientTransform="translate(1028.3622,784)" gradientUnits="userSpaceOnUse" xlink:href="#linearGradient3931"/><linearGradient id="linearGradient3952"><stop id="stop3954" offset="0" style="stop-color:#000;stop-opacity:1"/><stop id="stop3956" offset="1" style="stop-color:#000;stop-opacity:0"/></linearGradient><linearGradient id="linearGradient3944"><stop id="stop3946" offset="0" style="stop-color:#000;stop-opacity:1"/><stop id="stop3948" offset="1" style="stop-color:#000;stop-opacity:0"/></linearGradient><linearGradient id="linearGradient3960"><stop id="stop3962" offset="0" style="stop-color:#000;stop-opacity:0"/><stop style="stop-color:#000;stop-opacity:1" id="stop3970" offset=".5"/><stop id="stop3964" offset="1" style="stop-color:#000;stop-opacity:0"/></linearGradient><radialGradient id="radialGradient5537" cx="40" cy="43.5" r="2" fx="40" fy="43.5" gradientTransform="matrix(1.0571429,0,0,1.25,0.6,-10.875)" gradientUnits="userSpaceOnUse" xlink:href="#linearGradient3952"/><radialGradient id="radialGradient5539" cx="40" cy="43.5" r="2" fx="40" fy="43.5" gradientTransform="matrix(1,0,0,0.75,2,10.875)" gradientUnits="userSpaceOnUse" xlink:href="#linearGradient3952"/><radialGradient id="radialGradient5541" cx="9" cy="43.5" r="2" fx="9" fy="43.5" gradientTransform="matrix(1.0571429,0,0,1.25,-4.4000003,-10.875)" gradientUnits="userSpaceOnUse" xlink:href="#linearGradient3944"/><radialGradient id="radialGradient5543" cx="9" cy="43.5" r="2" fx="9" fy="43.5" gradientTransform="matrix(1,0,0,0.75,-3.0000003,10.875)" gradientUnits="userSpaceOnUse" xlink:href="#linearGradient3944"/><linearGradient id="linearGradient5545" x1="25" x2="25" y1="45" y2="42" gradientTransform="matrix(1.0571429,0,0,1.6666667,-5.4000003,-29)" gradientUnits="userSpaceOnUse" xlink:href="#linearGradient3960"/><linearGradient id="linearGradient5547" x1="25" x2="25" y1="45" y2="42" gradientTransform="translate(-4.0000003,0)" gradientUnits="userSpaceOnUse" xlink:href="#linearGradient3960"/><linearGradient id="linearGradient5803-6"><stop id="stop5805-7" offset="0" style="stop-color:#fff;stop-opacity:1"/><stop id="stop5807-8" offset="1" style="stop-color:#dedede;stop-opacity:1"/></linearGradient><linearGradient id="linearGradient4950"><stop style="stop-color:#90dbec;stop-opacity:1" id="stop4952" offset="0"/><stop style="stop-color:#55c1ec;stop-opacity:1" id="stop4954" offset=".262"/><stop style="stop-color:#3689e6;stop-opacity:1" id="stop4956" offset=".705"/><stop style="stop-color:#2b63a0;stop-opacity:1" id="stop4958" offset="1"/></linearGradient><linearGradient id="linearGradient3920" x1="33.625" x2="33.75" y1="12" y2="52" gradientTransform="matrix(0.9981902,0,0,0.9981902,-6.943897,-7.9710428)" gradientUnits="userSpaceOnUse" xlink:href="#linearGradient5803-6"/><linearGradient id="linearGradient3937" x1="20" x2="20" y1="8" y2="40" gradientTransform="translate(-1,-1)" gradientUnits="userSpaceOnUse" xlink:href="#linearGradient4950"/><linearGradient id="linearGradient3984" x1="25" x2="25" y1="13" y2="36" gradientUnits="userSpaceOnUse" xlink:href="#linearGradient3978"/></defs><g id="layer1"><g id="g3111"><path id="path3987" d="m 42.885716,41.000001 0,5 0.528571,0 c 0.878486,0 1.585715,-1.115 1.585715,-2.5 0,-1.385 -0.707229,-2.5 -1.585715,-2.5 l -0.528571,0 z" style="opacity:.12000002;fill:url(#radialGradient5537);fill-opacity:1;stroke:none"/><path style="opacity:.12000002;fill:url(#radialGradient5539);fill-opacity:1;stroke:none" id="rect3940" d="m 42,42 0,3 0.5,0 C 43.331,45 44,44.331 44,43.5 44,42.669 43.331,42 42.5,42 L 42,42 z"/><path id="path3989" d="M 4.4866072,41.000001 C 3.6630268,41.000001 3,42.045313 3,43.343751 l 0,0.3125 c 0,1.298439 0.6630268,2.34375 1.4866072,2.34375 l 0.6276786,0 0,-5 -0.6276786,0 z" style="opacity:.12000002;fill:url(#radialGradient5541);fill-opacity:1;stroke:none"/><path style="opacity:.12000002;fill:url(#radialGradient5543);fill-opacity:1;stroke:none" id="rect3942" d="m 5.4062497,42 c -0.7790625,0 -1.40625,0.627187 -1.40625,1.40625 l 0,0.1875 c 0,0.779063 0.6271875,1.40625 1.40625,1.40625 l 0.59375,0 0,-3 -0.59375,0 z"/><path style="opacity:.12000002;fill:url(#linearGradient5545);fill-opacity:1;stroke:none" id="rect3985" d="m 5.1141432,41 37.7717148,0 0,5 -37.7717148,0 z"/><path style="opacity:.12000002;fill:url(#linearGradient5547);fill-opacity:1;stroke:none" id="rect3938" d="m 5.9998568,42 36.0002842,0 0,3 -36.0002842,0 z"/></g><rect style="fill:url(#linearGradient4117);fill-opacity:1;stroke:none;display:inline" id="rect4073" width="39" height="39" x="4.5" y="-43.5" rx="1.95" ry="1.95" transform="matrix(0,1,-1,0,0,0)"/><rect id="rect4085" width="39" height="39" x="-43.5" y="-43.5" rx="1.95" ry="1.95" transform="matrix(0,-1,-1,0,0,0)" style="opacity:.60999999999999999;fill:none;stroke:#000;stroke-opacity:1;display:inline"/><path id="rect4089-4" d="M 6.4375,5.00002 C 5.62555,5.00002 5,5.62557 5,6.43752 l 0,1 C 5,6.62557 5.62555,6.00002 6.4375,6.00002 l 35.125,0 c 0.81195,0 1.4375,0.62555 1.4375,1.4375 l 0,-1 c 0,-0.81195 -0.62555,-1.4375 -1.4375,-1.4375 l -35.125,0 z" style="opacity:.14999999999999999;fill:#fff;fill-opacity:1;stroke:none;display:inline"/><path id="path4128" d="M 790.4375,237 C 789.62555,237 789,237.62555 789,238.4375 l 0,35.09375 c 0,0.812 0.62555,1.46875 1.4375,1.46875 l 35.125,0 c 0.81195,0 1.4375,-0.65675 1.4375,-1.46875 l 0,-35.09375 C 827,237.62555 826.37445,237 825.5625,237 l -35.125,0 z" clip-path="url(#clipPath4130)" transform="matrix(0,1,-1,0,280,-784)" style="opacity:.10000000000000001;fill:none;stroke:url(#linearGradient4140);stroke-width:2;stroke-miterlimit:4;stroke-opacity:1;stroke-dasharray:none;display:inline"/><path style="opacity:.10000000000000001;fill:#fff;fill-opacity:1;stroke:none;display:inline" id="path4105" d="M 6.4375,43.000017 C 5.62555,43.000017 5,42.374417 5,41.562517 L 5,40.56252 c 0,0.811897 0.62555,1.437497 1.4375,1.437497 l 35.125,0 c 0.81195,0 1.4375,-0.6256 1.4375,-1.437497 l 0,0.999997 c 0,0.8119 -0.62555,1.4375 -1.4375,1.4375 l -35.125,0 z"/></g><g id="layer2"><path id="path3941" d="M 9,14.032577 39,14 39,35.967423 9,36 z" style="opacity:.1;color:#000;fill:#000;fill-opacity:1;fill-rule:nonzero;stroke:#000;stroke-width:2;stroke-miterlimit:4;stroke-opacity:1;stroke-dasharray:none;marker:none;visibility:visible;display:inline;overflow:visible;enable-background:accumulate"/><path style="opacity:.2;color:#000;fill:#000;fill-opacity:1;fill-rule:nonzero;stroke:none;stroke-width:.99999994;marker:none;visibility:visible;display:inline;overflow:visible;enable-background:accumulate" id="path3939" d="M 9,14.032577 39,14 39,35.967423 9,36 z"/><path id="rect4948" d="M 9,13.032577 39,13 39,34.967423 9,35 z" style="color:#000;fill:url(#linearGradient3937);fill-opacity:1;fill-rule:nonzero;stroke:none;stroke-width:.99999994;marker:none;visibility:visible;display:inline;overflow:visible;enable-background:accumulate"/><path id="path5057" d="m 8.032576,10.998191 c -0.552997,0 -0.99819,0.445192 -0.99819,0.99819 l 0,8.980092 c 0,0.552997 0.445193,0.99819 0.99819,0.99819 l 13.971044,0 c 0.552997,0 0.99819,-0.445193 0.99819,-0.99819 l 0,-8.980092 c 0,-0.552998 -0.445193,-0.99819 -0.99819,-0.99819 z m 20.958375,-0.0018 c -0.552997,0 -0.99819,0.445193 -0.99819,0.99819 l 0,8.980092 c 0,0.552998 0.445193,0.99819 0.99819,0.99819 l 10.976473,0 c 0.552997,0 0.99819,-0.445192 0.99819,-0.99819 l 0,-8.980092 c 0,-0.552997 -0.445193,-0.99819 -0.99819,-0.99819 z M 17.018098,26.965614 c -0.552997,0 -0.99819,0.445193 -0.99819,0.99819 l 0,8.981902 c 0,0.552998 0.445193,0.998191 0.99819,0.998191 l 12.967424,0 c 0.552997,0 0.99819,-0.445193 0.99819,-0.998191 l 0,-8.981902 c 0,-0.552997 -0.445193,-0.99819 -0.99819,-0.99819 z" style="opacity:.1;fill:#000;fill-opacity:1;stroke:#000;stroke-width:2;stroke-miterlimit:4;stroke-opacity:1;stroke-dasharray:none"/><path id="path3973" d="M 39,13 9,13.03125 9,35 39,34.96875 z M 38,14 38,33.96875 10,34 10,14.03125 z" style="opacity:.2;color:#000;fill:url(#linearGradient3984);fill-opacity:1;fill-rule:nonzero;stroke:none;stroke-width:.99999994;marker:none;visibility:visible;display:inline;overflow:visible;enable-background:accumulate"/><path style="opacity:.2;fill:#000;fill-opacity:1;stroke:none" id="path5053" d="m 8.032576,10.998191 c -0.552997,0 -0.99819,0.445192 -0.99819,0.99819 l 0,8.980092 c 0,0.552997 0.445193,0.99819 0.99819,0.99819 l 13.971044,0 c 0.552997,0 0.99819,-0.445193 0.99819,-0.99819 l 0,-8.980092 c 0,-0.552998 -0.445193,-0.99819 -0.99819,-0.99819 z m 20.958375,-0.0018 c -0.552997,0 -0.99819,0.445193 -0.99819,0.99819 l 0,8.980092 c 0,0.552998 0.445193,0.99819 0.99819,0.99819 l 10.976473,0 c 0.552997,0 0.99819,-0.445192 0.99819,-0.99819 l 0,-8.980092 c 0,-0.552997 -0.445193,-0.99819 -0.99819,-0.99819 z M 17.018098,26.965614 c -0.552997,0 -0.99819,0.445193 -0.99819,0.99819 l 0,8.981902 c 0,0.552998 0.445193,0.998191 0.99819,0.998191 l 12.967424,0 c 0.552997,0 0.99819,-0.445193 0.99819,-0.998191 l 0,-8.981902 c 0,-0.552997 -0.445193,-0.99819 -0.99819,-0.99819 z"/><path id="rect4981" d="m 8.032576,10 c -0.552997,0 -0.99819,0.445193 -0.99819,0.998191 l 0,8.980092 c 0,0.552997 0.445193,0.99819 0.99819,0.99819 l 13.971044,0 c 0.552997,0 0.99819,-0.445193 0.99819,-0.99819 l 0,-8.980092 C 23.00181,10.445193 22.556617,10 22.00362,10 z M 28.990951,9.99819 c -0.552997,0 -0.99819,0.445192 -0.99819,0.99819 l 0,8.980092 c 0,0.552997 0.445193,0.99819 0.99819,0.99819 l 10.976473,0 c 0.552997,0 0.99819,-0.445193 0.99819,-0.99819 l 0,-8.980092 c 0,-0.552998 -0.445193,-0.99819 -0.99819,-0.99819 z M 17.018098,25.967424 c -0.552997,0 -0.99819,0.445193 -0.99819,0.99819 l 0,8.981902 c 0,0.552998 0.445193,0.99819 0.99819,0.99819 l 12.967424,0 c 0.552997,0 0.99819,-0.445192 0.99819,-0.99819 l 0,-8.981902 c 0,-0.552997 -0.445193,-0.99819 -0.99819,-0.99819 z" style="fill:url(#linearGradient3920);fill-opacity:1;stroke:none"/><path id="path3962" d="m 8.03125,10 c -0.552997,0 -1,0.447002 -1,1 l 0,1 c 0,-0.552998 0.447003,-1 1,-1 L 22,11 c 0.552997,0 1,0.447002 1,1 l 0,-1 c 0,-0.552998 -0.447003,-1 -1,-1 z M 29,10 c -0.552997,0 -1,1 -1,1 l 0,1 c 0,-0.552998 0.447003,-1 1,-1 l 10.96875,0 c 0.552997,0 1,0.447002 1,1 l 0,-1 c 0,0 -0.447003,-1 -1,-1 z M 17.03125,25.96875 c -0.552997,0 -1,0.447003 -1,1 l 0,1 c 0,-0.552997 0.447003,-1 1,-1 l 12.96875,0 c 0.552997,0 0.96875,0.447003 0.96875,1 l 0,-1 c 0,-0.552997 -0.415753,-1 -0.96875,-1 z" style="fill:#fff;fill-opacity:1;stroke:none"/></g></svg>