<svg xmlns="http://www.w3.org/2000/svg" xmlns:svg="http://www.w3.org/2000/svg" xmlns:xlink="http://www.w3.org/1999/xlink" id="svg4032" width="48" height="48" version="1.1"><metadata id="metadata41"/><defs id="defs4034"><linearGradient id="linearGradient3947"><stop style="stop-color:#4e4e4e;stop-opacity:1" id="stop3949" offset="0"/><stop id="stop3951" offset=".514" style="stop-color:#aeaead;stop-opacity:1"/><stop style="stop-color:#dfdfdf;stop-opacity:1" id="stop3953" offset=".628"/><stop id="stop3955" offset=".772" style="stop-color:#fff;stop-opacity:1"/><stop style="stop-color:#a2a2a2;stop-opacity:1" id="stop3957" offset="1"/></linearGradient><linearGradient id="linearGradient3880"><stop id="stop3883" offset="0" style="stop-color:#fff;stop-opacity:1"/><stop id="stop3885" offset="1" style="stop-color:#fff;stop-opacity:0"/></linearGradient><linearGradient id="linearGradient3835"><stop id="stop3841" offset="0" style="stop-color:#f2f2f2;stop-opacity:1"/><stop id="stop3844" offset="1" style="stop-color:#d4d4d4;stop-opacity:1"/></linearGradient><linearGradient id="linearGradient10691-1"><stop style="stop-color:#000;stop-opacity:1" id="stop10693-3" offset="0"/><stop style="stop-color:#000;stop-opacity:0" id="stop10695-1" offset="1"/></linearGradient><linearGradient id="linearGradient3811" x1="15" x2="15" y1="24.619" y2="2" gradientTransform="translate(3,0)" gradientUnits="userSpaceOnUse" xlink:href="#outerBackgroundGradient-0-1"/><linearGradient id="linearGradient3856" x1="15" x2="15" y1="24.619" y2="2" gradientTransform="matrix(1,0,0,-1,2.9999998,26.999999)" gradientUnits="userSpaceOnUse" xlink:href="#linearGradient3835"/><linearGradient id="linearGradient3887" x1="10" x2="20" y1="-3" y2="12" gradientTransform="translate(3,0)" gradientUnits="userSpaceOnUse" xlink:href="#linearGradient3880"/><linearGradient id="linearGradient6429" x1="320.281" x2="320.281" y1="83.457" y2="93.069" gradientTransform="matrix(1.2915983,0,0,0.7041466,-389.23032,-39.047924)" gradientUnits="userSpaceOnUse" xlink:href="#linearGradient3947"/><radialGradient id="radialGradient3919" cx="6.703" cy="73.616" r="7.228" fx="6.703" fy="73.616" gradientTransform="matrix(3.0435441,0,0,0.38044295,3.600001,-1.1315802)" gradientUnits="userSpaceOnUse" xlink:href="#linearGradient10691-1"/><radialGradient id="radialGradient3921" cx="8.074" cy="73.296" r="7.228" fx="8.074" fy="73.296" gradientTransform="matrix(1.7119935,0,0,0.38044295,11.150001,0.24341975)" gradientUnits="userSpaceOnUse" xlink:href="#linearGradient10691-1"/><clipPath id="clipPath4298" clipPathUnits="userSpaceOnUse"><path style="fill:url(#linearGradient4302);fill-opacity:1;stroke:none" id="path4300" d="m 412.56306,54.066997 32.49568,0 0,20.893998 -32.49568,0 z"/></clipPath><linearGradient id="linearGradient4094-1-8"><stop style="stop-color:#676767;stop-opacity:1" id="stop4096-0-9" offset="0"/><stop style="stop-color:#8a8a8a;stop-opacity:1" id="stop4098-37-6" offset="1"/></linearGradient><clipPath id="clipPath4172-0-6" clipPathUnits="userSpaceOnUse"><rect id="rect4174-3-1" width="90" height="90" x="307" y="43" ry="18.75" style="color:#bebebe;fill:url(#linearGradient4176);fill-opacity:1;fill-rule:nonzero;stroke:none;stroke-width:0;marker:none;visibility:visible;display:inline;overflow:visible;enable-background:accumulate"/></clipPath><linearGradient id="linearGradient4121-4-8"><stop style="stop-color:#c3b7a4;stop-opacity:1" id="stop4123-0-37" offset="0"/><stop style="stop-color:#fff;stop-opacity:1" id="stop4125-76-2" offset="1"/></linearGradient><linearGradient id="linearGradient4762"><stop id="stop4764" offset="0" style="stop-color:#e3e3e3;stop-opacity:1"/><stop id="stop4766" offset="1" style="stop-color:#e3e3e3;stop-opacity:0"/></linearGradient><linearGradient id="linearGradient4892"><stop style="stop-color:#000;stop-opacity:1" id="stop4894" offset="0"/><stop style="stop-color:#000;stop-opacity:0" id="stop4896" offset="1"/></linearGradient><linearGradient id="outerBackgroundGradient-0-1"><stop id="stop3864-8-6-3-6" offset="0" style="stop-color:#a348b1;stop-opacity:1"/><stop id="stop3866-9-1-7-3" offset="1" style="stop-color:#b1488f;stop-opacity:1"/></linearGradient><linearGradient id="linearGradient3534" x1="186.667" x2="186.667" y1="170.667" y2="42.667" gradientTransform="matrix(0.375,0,0,0.375,298,27.999997)" gradientUnits="userSpaceOnUse" xlink:href="#linearGradient4094-1-8"/><linearGradient id="linearGradient3536" x1="392" x2="368" y1="128" y2="48" gradientUnits="userSpaceOnUse" xlink:href="#linearGradient4121-4-8"/><linearGradient id="linearGradient4404" x1="6" x2="6" y1="0" y2="20" gradientTransform="matrix(1,0,0,1.4705882,1.0000001,1.117647)" gradientUnits="userSpaceOnUse" xlink:href="#linearGradient4762"/><linearGradient id="linearGradient4451" x1="6" x2="6" y1="0" y2="20" gradientTransform="matrix(1,0,0,-1.4705882,2.0000001,22.882353)" gradientUnits="userSpaceOnUse" xlink:href="#linearGradient4892"/><linearGradient id="linearGradient4683" x1="186.667" x2="186.667" y1="170.667" y2="42.667" gradientTransform="matrix(0.375,0,0,0.375,298,27.999997)" gradientUnits="userSpaceOnUse" xlink:href="#linearGradient4094-1-8"/></defs><g id="layer1" transform="translate(0,16)"><g id="g3915" transform="translate(0,-1)"><path style="opacity:.1;fill:url(#radialGradient3919);fill-opacity:1;fill-rule:nonzero;stroke:none;stroke-width:.80000001;marker:none;visibility:visible;display:inline;overflow:visible" id="path4220" d="m 46,26.875 c 0,1.518784 -9.849737,2.75 -22.000003,2.75 C 11.849733,29.625 2,28.393784 2,26.875 2,25.356218 11.849733,24.125 23.999997,24.125 36.150263,24.125 46,25.356218 46,26.875 z"/><path style="opacity:.3;fill:url(#radialGradient3921);fill-opacity:1;fill-rule:nonzero;stroke:none;stroke-width:.80000001;marker:none;visibility:visible;display:inline;overflow:visible" id="path2589" d="M 35,28.25 C 35,29.768784 31.522024,31 24.6875,31 17.852976,31 13,29.768784 13,28.25 13,26.731218 17.852976,25.5 24.6875,25.5 31.522024,25.5 35,26.731218 35,28.25 z"/></g><path id="path2682-8" d="m 17.505733,19.044176 0,4.92902 c -0.0286,1.26886 -4.61672,1.54994 -4.61672,1.54994 -2.07922,-0.0678 -1.75634,2.05487 0.125,1.97079 l 21.96499,0 c 2.16857,0.1353 1.98793,-2.03522 0,-1.97079 0,0 -4.3306,-0.28108 -4.35914,-1.54994 l 0,-4.92902 z" style="fill:url(#linearGradient6429);fill-opacity:1;stroke:none;display:inline;enable-background:new"/><path style="opacity:.61;fill:none;stroke:#000;stroke-width:1;stroke-linecap:round;stroke-linejoin:round;stroke-miterlimit:4;stroke-opacity:1;stroke-dasharray:none;stroke-dashoffset:.50000001000000005;display:inline;enable-background:new" id="path3903" d="m 17.505733,19.044176 0,4.92902 c -0.0286,1.26886 -4.61672,1.54994 -4.61672,1.54994 -2.07922,-0.0678 -1.75634,2.05487 0.125,1.97079 l 21.96499,0 c 2.16857,0.1353 1.98793,-2.03522 0,-1.97079 0,0 -4.3306,-0.28108 -4.35914,-1.54994 l 0,-4.92902 z"/><path id="rect3854" d="m 2.1888869,20.49988 43.6222261,0 c 0.381647,0 0.688893,-0.297332 0.688893,-0.666664 l 0,-30.666432 c 0,-0.369332 -0.307246,-0.666664 -0.688893,-0.666664 l -43.622226,0 c -0.3816466,0 -0.6888928,0.297332 -0.6888928,0.666664 l 0,30.666432 c 0,0.369332 0.3072462,0.666664 0.6888927,0.666664 z" style="fill:url(#linearGradient3856);fill-opacity:1;stroke:none"/><path id="rect3889" d="m 39,19 5,0 0,1.5 -5,0 z" style="fill:#2b2b2b;fill-opacity:1;stroke:none"/><path id="rect2722" d="m 3,-10 42,0 0,27 -42,0 z" style="fill:url(#linearGradient3811);fill-opacity:1;stroke:none"/><path id="rect3872" d="M 3,-10 3,12 45,-5.125 45,-10 z" style="opacity:.2;fill:url(#linearGradient3887);fill-opacity:1;stroke:none"/><path id="rect3803" d="m 2.1888869,-11.49988 43.6222261,0 c 0.381647,0 0.688893,0.297332 0.688893,0.666664 l 0,30.666431 c 0,0.369332 -0.307246,0.666664 -0.688893,0.666664 l -43.622226,0 c -0.3816466,0 -0.6888928,-0.297332 -0.6888928,-0.666664 l 0,-30.666431 c 0,-0.369332 0.3072462,-0.666664 0.6888927,-0.666664 z" style="opacity:.61000001;fill:none;stroke:#000;stroke-width:1;stroke-linecap:round;stroke-linejoin:round;stroke-miterlimit:4;stroke-opacity:1;stroke-dashoffset:.50000001"/><path id="rect3868" d="m 3,17 42,0 0,1 -42,0 z" style="opacity:.6;fill:#fff;fill-opacity:1;stroke:none"/><path style="opacity:.4;fill:url(#linearGradient4451);fill-opacity:1;stroke:none" id="path4449" d="m 5,17 0,-23.53125 1,0 L 6,17 5,17 z m 2,0 0,-23.53125 1,0 L 8,17 7,17 z m 2,0 0,-23.53125 1,0 L 10,17 9,17 z m 2,0 0,-23.53125 1,0 L 12,17 11,17 z m 2,0 0,-23.53125 1,0 L 14,17 13,17 z m 2,0 0,-23.53125 1,0 L 16,17 15,17 z m 2,0 0,-23.53125 1,0 L 18,17 17,17 z m 2,0 0,-23.53125 1,0 L 20,17 19,17 z m 2,0 0,-23.53125 1,0 L 22,17 21,17 z m 2,0 0,-23.53125 1,0 L 24,17 23,17 z m 2,0 0,-23.53125 1,0 L 26,17 25,17 z m 2,0 0,-23.53125 1,0 L 28,17 27,17 z m 2,0 0,-23.53125 1,0 L 30,17 29,17 z m 2,0 0,-23.53125 1,0 L 32,17 31,17 z m 2,0 0,-23.53125 1,0 L 34,17 33,17 z m 2,0 0,-23.53125 1,0 L 36,17 35,17 z m 2,0 0,-23.53125 1,0 L 38,17 37,17 z m 2,0 0,-23.53125 1,0 L 40,17 39,17 z m 2,0 0,-23.53125 1,0 L 42,17 41,17 z m 2,0 0,-23.53125 1,0 L 44,17 43,17 z"/><path id="rect4760" d="M 4 7 L 4 30.53125 L 5 30.53125 L 5 7 L 4 7 z M 6 7 L 6 30.53125 L 7 30.53125 L 7 7 L 6 7 z M 8 7 L 8 30.53125 L 9 30.53125 L 9 7 L 8 7 z M 10 7 L 10 30.53125 L 11 30.53125 L 11 7 L 10 7 z M 12 7 L 12 30.53125 L 13 30.53125 L 13 7 L 12 7 z M 14 7 L 14 30.53125 L 15 30.53125 L 15 7 L 14 7 z M 16 7 L 16 30.53125 L 17 30.53125 L 17 7 L 16 7 z M 18 7 L 18 30.53125 L 19 30.53125 L 19 7 L 18 7 z M 20 7 L 20 30.53125 L 21 30.53125 L 21 7 L 20 7 z M 22 7 L 22 30.53125 L 23 30.53125 L 23 7 L 22 7 z M 24 7 L 24 30.53125 L 25 30.53125 L 25 7 L 24 7 z M 26 7 L 26 30.53125 L 27 30.53125 L 27 7 L 26 7 z M 28 7 L 28 30.53125 L 29 30.53125 L 29 7 L 28 7 z M 30 7 L 30 30.53125 L 31 30.53125 L 31 7 L 30 7 z M 32 7 L 32 30.53125 L 33 30.53125 L 33 7 L 32 7 z M 34 7 L 34 30.53125 L 35 30.53125 L 35 7 L 34 7 z M 36 7 L 36 30.53125 L 37 30.53125 L 37 7 L 36 7 z M 38 7 L 38 30.53125 L 39 30.53125 L 39 7 L 38 7 z M 40 7 L 40 30.53125 L 41 30.53125 L 41 7 L 40 7 z M 42 7 L 42 30.53125 L 43 30.53125 L 43 7 L 42 7 z" transform="translate(0,-16)" style="opacity:.40000000000000002;fill:url(#linearGradient4404);fill-opacity:1;stroke:none"/><g style="display:inline;enable-background:new" id="g4669" clip-path="url(#clipPath4298)" transform="matrix(1.2924795,0,0,1.2204462,-530.2293,-75.98629)"><g id="g4671" transform="matrix(0.375,0,0,0.375,297.135,38.375)" style="display:inline;enable-background:new"><path id="path4673" d="m 351,43 9,4 37,39 0,-24.333333 C 397.8723,57.444033 402.38518,38.937067 378.33333,43 z" clip-path="none" transform="translate(0,-4)" style="color:#bebebe;fill:url(#linearGradient4683);fill-opacity:1;fill-rule:nonzero;stroke:none;stroke-width:0;marker:none;visibility:visible;display:inline;overflow:visible;enable-background:accumulate"/><path style="opacity:0;color:#bebebe;fill:none;stroke:#000;stroke-width:5.33333349;stroke-linecap:round;stroke-linejoin:round;stroke-miterlimit:4;stroke-opacity:1;stroke-dasharray:none;marker:none;visibility:visible;display:inline;overflow:visible;enable-background:accumulate" id="path4679" d="m 351,43 c 0,0 4.92422,1.850473 6,4 2.7267,5.448227 -1,12 -1,18.25 C 356,75.6375 364.3625,84 374.75,84 386,84 388,78 397,86 397,86 367,43 351,43 z" clip-path="url(#clipPath4172-0-6)" transform="translate(0,-4)"/></g></g><g id="g4127" clip-path="url(#clipPath4298)" transform="matrix(1.2924795,0,0,1.2204462,-530.2293,-74.98629)" style="display:inline;enable-background:new"><g style="display:inline;enable-background:new" id="g4343" transform="matrix(0.375,0,0,0.375,297.135,38.375)"><path style="color:#bebebe;fill:url(#linearGradient3534);fill-opacity:1;fill-rule:nonzero;stroke:none;stroke-width:0;marker:none;visibility:visible;display:inline;overflow:visible;enable-background:accumulate" id="path4347" d="m 351,43 9,4 37,39 0,-24.333333 C 397.8723,57.444033 402.38518,38.937067 378.33333,43 z" clip-path="none" transform="translate(0,-4)"/><path id="path4240" d="m 351,43 c 0,0 4.76696,1.936657 6,4 6.04018,10.107486 3.33333,35.166667 3.33333,35.166667 0,0 27.66667,-7.37868 36.66667,0.62132 C 397,82.787987 367,43 351,43 z" transform="translate(0,-4)" style="opacity:.10000000000000001;color:#bebebe;fill:none;stroke:#000;stroke-width:4.24646527;stroke-miterlimit:4;stroke-opacity:1;stroke-dasharray:none;marker:none;visibility:visible;display:inline;overflow:visible;enable-background:accumulate"/><path id="path4345" d="m 349.84688,42.37378 c 0,0 4.75568,1.872234 6,4 5.8573,10.015876 3.33333,35.166666 3.33333,35.166666 0,0 28.76086,-7.378679 37.76086,0.621321 0,0 -31.09419,-39.787987 -47.09419,-39.787987 z" style="opacity:.2;color:#bebebe;fill:#000;fill-opacity:1;fill-rule:nonzero;stroke:none;stroke-width:0;marker:none;visibility:visible;display:inline;overflow:visible;enable-background:accumulate"/><path id="path4349" d="m 351,43 c 0,0 4.92422,1.850473 6,4 2.7267,5.448227 -1,12 -1,18.25 C 356,75.6375 364.3625,84 374.75,84 386,84 388,78 397,86 397,86 367,43 351,43 z" clip-path="url(#clipPath4172-0-6)" transform="translate(0,-4)" style="opacity:0;color:#bebebe;fill:none;stroke:#000;stroke-width:5.33333349;stroke-linecap:round;stroke-linejoin:round;stroke-miterlimit:4;stroke-opacity:1;stroke-dasharray:none;marker:none;visibility:visible;display:inline;overflow:visible;enable-background:accumulate"/><path style="color:#bebebe;fill:url(#linearGradient3536);fill-opacity:1;fill-rule:nonzero;stroke:none;stroke-width:0;marker:none;visibility:visible;display:inline;overflow:visible;enable-background:accumulate" id="path4351" d="m 349.90581,43 c 0,0 4.75568,1.872234 6,4 5.8573,10.015876 3.33333,35.166667 3.33333,35.166667 0,0 28.76086,-7.37868 37.76086,0.62132 C 397,82.787987 365.90581,43 349.90581,43 z" transform="translate(0,-4)"/></g></g><rect id="rect2694-8" width="23.695" height=".956" x="12.153" y="26.044" rx=".478" ry=".478" style="opacity:.8;fill:#fff;fill-opacity:1;stroke:none;display:inline;enable-background:new"/><path id="path3942" d="M 3 6 L 3 33 L 45 33 L 45 6 L 3 6 z M 4 7 L 44 7 L 44 32 L 4 32 L 4 7 z" transform="translate(0,-16)" style="fill:#000;fill-opacity:1;stroke:none;opacity:.4"/><path id="rect3815" d="M 2.1875,-11 C 2.0655458,-11 2,-10.935783 2,-10.84375 l 0,1 C 2,-9.935783 2.0655458,-10 2.1875,-10 l 43.625,0 C 45.934454,-10 46,-9.935783 46,-9.84375 l 0,-1 C 46,-10.935783 45.934454,-11 45.8125,-11 z" style="opacity:.1;fill:#fff;fill-opacity:1;stroke:none"/><path id="rect3870" d="m 3,-10 42,0 0,1 -42,0 z" style="opacity:.2;fill:#000;fill-opacity:1;stroke:none"/></g></svg>