<svg xmlns="http://www.w3.org/2000/svg" xmlns:osb="http://www.openswatchbook.org/uri/2009/osb" xmlns:svg="http://www.w3.org/2000/svg" style="enable-background:new" id="svg7384" width="16" height="16" version="1.1"><metadata id="metadata90"/><title id="title8473">Moka Symbolic Icon Theme</title><defs id="defs7386"><linearGradient id="linearGradient5606" osb:paint="solid"><stop style="stop-color:#000;stop-opacity:1" id="stop5608" offset="0"/></linearGradient><filter style="color-interpolation-filters:sRGB" id="filter7554"><feBlend id="feBlend7556" in2="BackgroundImage" mode="darken"/></filter></defs><g style="display:inline" id="g6058" transform="translate(-460.00002,-481.99664)"><path style="color:#000;display:inline;overflow:visible;visibility:visible;fill:#bebebe;fill-opacity:1;fill-rule:nonzero;stroke:none;stroke-width:2;marker:none;enable-background:accumulate" id="path6194" d="m 468.00002,481.99664 c -4.41828,0 -8,3.58172 -8,8 0,4.41828 3.58172,8 8,8 4.41828,0 8,-3.58172 8,-8 0,-4.41828 -3.58172,-8 -8,-8 z m 0,2 a 6,6 0 0 1 6,6 6,6 0 0 1 -6,6 6,6 0 0 1 -6,-6 6,6 0 0 1 6,-6 z"/><path style="color:#000;display:inline;overflow:visible;visibility:visible;fill:#bebebe;fill-opacity:1;fill-rule:nonzero;stroke:none;stroke-width:2;marker:none;enable-background:accumulate" id="path6327" d="m 467.96682,484.99664 c -0.68883,0 -1.2461,0.55923 -1.2461,1.24805 0,0.68883 0.55727,1.24609 1.2461,1.24609 0.68882,0 1.24804,-0.55726 1.24804,-1.24609 0,-0.68882 -0.55922,-1.24805 -1.24804,-1.24805 z m -3.97852,3 c -0.27088,0 -0.48828,0.2174 -0.48828,0.48828 l 0,0.0234 c 0,0.27088 0.2174,0.48828 0.48828,0.48828 l 2.51172,0.25004 0,1.75 -1.43164,2.74801 c -0.36601,0.58317 0.53548,1.10937 0.86328,0.5039 l 1.60547,-2.25191 0.92578,0 1.60547,2.25195 c 0.3278,0.60547 1.22929,0.0793 0.86328,-0.5039 l -1.43164,-2.74805 0,-1.75 2.51172,-0.25 c 0.27088,0 0.48828,-0.2174 0.48828,-0.48828 l 0,-0.0234 c 0,-0.271 -0.2174,-0.48832 -0.48828,-0.48832 z"/></g></svg>