<svg xmlns="http://www.w3.org/2000/svg" xmlns:osb="http://www.openswatchbook.org/uri/2009/osb" xmlns:svg="http://www.w3.org/2000/svg" style="enable-background:new" id="svg7384" width="16" height="16" version="1.1"><metadata id="metadata90"/><title id="title8473">Moka Symbolic Icon Theme</title><defs id="defs7386"><linearGradient id="linearGradient5606" osb:paint="solid"><stop style="stop-color:#000;stop-opacity:1" id="stop5608" offset="0"/></linearGradient><filter id="filter7554" color-interpolation-filters="sRGB"><feBlend id="feBlend7556" in2="BackgroundImage" mode="darken"/></filter></defs><g style="display:inline" id="layer9" transform="translate(-485.0004,231.00336)"><path style="color:#000;fill:#444;fill-opacity:1;fill-rule:nonzero;stroke:none;stroke-width:.84323651;marker:none;visibility:visible;display:inline;overflow:visible;enable-background:accumulate" id="path7141" d="m 494.2147,-229.89364 c -1.76425,-0.31106 -3.63723,0.0651 -5.22064,1.17379 -3.16683,2.21743 -3.93221,6.55814 -1.71478,9.72497 2.21745,3.16683 6.55813,3.93222 9.72497,1.71478 2.27736,-1.59463 3.3114,-4.28091 2.89004,-6.85226 -0.11726,-0.71752 -0.33572,-1.38448 -0.65922,-2.02016 -0.14958,-0.29582 -0.32036,-0.57307 -0.51604,-0.85256 -1.10872,-1.58343 -2.7401,-2.57747 -4.50433,-2.88856 z m 2.47974,3.00855 c 0.66738,0.11294 1.04012,1.02501 0.64287,1.57304 l -4.41616,6.3293 c -0.35656,0.54299 -1.2814,0.5573 -1.65458,0.0256 l -2.43348,-3.47537 c -0.30778,-0.43586 -0.18978,-1.11294 0.2473,-1.41898 0.43707,-0.30604 1.11368,-0.18535 1.41798,0.25295 l 1.62234,2.31691 3.57273,-5.14526 c 0.17445,-0.27218 0.48781,-0.44991 0.81093,-0.45994 0.0632,-0.005 0.12698,-0.005 0.19009,0.002 z"/></g></svg>