<svg xmlns="http://www.w3.org/2000/svg" xmlns:osb="http://www.openswatchbook.org/uri/2009/osb" xmlns:svg="http://www.w3.org/2000/svg" style="enable-background:new" id="svg7384" width="16" height="16" version="1.1"><metadata id="metadata90"/><title id="title8473">Moka Symbolic Icon Theme</title><defs id="defs7386"><linearGradient id="linearGradient5606" osb:paint="solid"><stop style="stop-color:#000;stop-opacity:1" id="stop5608" offset="0"/></linearGradient><filter id="filter7554" color-interpolation-filters="sRGB"><feBlend id="feBlend7556" in2="BackgroundImage" mode="darken"/></filter></defs><g style="display:inline" id="layer9" transform="translate(-321.00018,391.00375)"><path style="font-size:medium;font-style:normal;font-variant:normal;font-weight:400;font-stretch:normal;text-indent:0;text-align:start;text-decoration:none;line-height:normal;letter-spacing:normal;word-spacing:normal;text-transform:none;direction:ltr;block-progression:tb;writing-mode:lr-tb;text-anchor:start;baseline-shift:baseline;color:#000;fill:#00aff0;fill-opacity:1;stroke:none;stroke-width:1.5;marker:none;visibility:visible;display:inline;overflow:visible;enable-background:accumulate;font-family:Sans;-inkscape-font-specification:Sans" id="path6508" d="m 333.46894,-389.51566 -11,11 1.0625,1.0625 11,-11 -1.0625,-1.0625 z"/><path style="color:#444;fill:#00aff0;fill-opacity:1;fill-rule:nonzero;stroke:none;stroke-width:1;marker:none;visibility:visible;display:inline;overflow:visible" id="path6770" d="m 327.46895,-389 -2.96875,3 -2.5,0 0,6 2.5,0 0.71875,0.71875 2.78125,-2.78125 0,-6.9375 -0.53125,0 z m 3.53125,1 0,2 c 0.13751,0.17883 0.2615,0.36399 0.375,0.5625 L 332.9377,-387 c -0.26616,-0.39813 -0.585,-0.72604 -0.9375,-1 l -1,0 z m -2,2 0,2.9375 1.71875,-1.71875 c -0.16379,-0.45547 -0.39697,-0.85212 -0.71875,-1.21875 l -1,0 z m 4.59375,0.46875 -1.65625,1.65625 c 0.0464,0.27781 0.0625,0.56472 0.0625,0.875 0,1.24113 -0.39348,2.21938 -1,3 l 0,2 1,0 c 1.2229,-0.99478 2,-2.8734 2,-5 0,-0.91695 -0.158,-1.769 -0.40625,-2.53125 z m -2.59375,2.59375 -2,2 0,0.9375 1,0 c 0.66012,-0.82203 0.98855,-1.71469 1,-2.9375 z m -3,3 -1.71875,1.71875 1.25,1.25 0.46875,-0.0312 0,-2.9375 z"/></g></svg>