<svg xmlns="http://www.w3.org/2000/svg" xmlns:osb="http://www.openswatchbook.org/uri/2009/osb" xmlns:svg="http://www.w3.org/2000/svg" style="enable-background:new" id="svg7384" width="16" height="16" version="1.1"><metadata id="metadata90"/><title id="title8473">Moka Symbolic Icon Theme</title><defs id="defs7386"><linearGradient id="linearGradient5606" osb:paint="solid"><stop style="stop-color:#000;stop-opacity:1" id="stop5608" offset="0"/></linearGradient><filter id="filter7554" color-interpolation-filters="sRGB"><feBlend id="feBlend7556" in2="BackgroundImage" mode="darken"/></filter></defs><g style="display:inline" id="layer9" transform="translate(-341.00018,368.00336)"><path style="opacity:.35;fill:#444;fill-opacity:1;stroke:none" id="path7592" d="m 347.0002,-367 0,1 4,0 0,-1 -4,0 z m -2,2 c -0.554,0 -1,0.446 -1,1 l 0,10 c 0,0.554 0.446,1 1,1 l 5,0 c 0,-0.63155 0.34574,-1.1317 0.8125,-1.5 -0.47775,-0.36281 -0.8215,-0.83219 -0.8125,-1.5 0,-0.79995 0.33733,-1.43593 0.6875,-1.875 0.0435,-0.0546 0.0811,-0.0748 0.125,-0.125 l -1.8125,0 -0.9375,0 -0.0625,-0.9375 c -0.12216,-2.18094 1.62492,-3.94334 3.75,-4.0625 0.0214,-10e-4 0.0411,8.6e-4 0.0625,0 0.78457,-0.0314 1.54308,0.16069 2.1875,0.53125 l 0,-1.53125 c 0,-0.554 -0.446,-1 -1,-1 l -8,0 z m 9,9.46875 c -0.0902,0.068 -0.17532,0.1493 -0.21875,0.1875 -0.006,0.006 -0.025,-0.007 -0.0312,0 -0.005,0.0131 -0.0263,0.0182 -0.0312,0.0312 -0.13247,0.33129 -0.25348,0.60156 -0.53125,0.8125 0.30496,0.24063 0.54853,0.55318 0.6875,0.90625 0.0612,-0.12968 0.1249,-0.2527 0.1249,-0.4062 l 0,-1.53125 z"/><path style="color:#444;fill:#444;fill-opacity:1;stroke:none;stroke-width:2;marker:none;visibility:visible;display:inline;overflow:visible" id="path19592-2-3" d="m 351.8127,-362.00336 c 1.64243,-0.092 3.0955,1.17008 3.1875,2.8125 -1e-4,1.40136 -0.37771,1.92177 -1.59375,2.84375 -0.19093,0.14364 -0.3256,0.2506 -0.375,0.3125 -0.0494,0.0621 -0.0312,0.0332 -0.0312,0.0312 0.007,0.52831 -0.47163,1 -1,1 -0.52837,0 -1.007,-0.47169 -1,-1 0,-0.50239 0.22424,-0.94342 0.46875,-1.25 0.24451,-0.30663 0.4913,-0.51638 0.71875,-0.6875 0.20405,-0.16056 0.46083,-0.38454 0.6875,-0.65625 0.0935,-0.1121 0.129,-0.30766 0.125,-0.4375 l 0,-0.0312 c -0.0316,-0.56324 -0.49926,-0.9691 -1.0625,-0.9375 -0.56324,0.0316 -0.9691,0.43676 -0.9375,1 l -2,0 c -0.092,-1.64243 1.17007,-2.9079 2.8125,-3 z m 0.1875,8 c 0.55228,0 1,0.44772 1,1 0,0.55228 -0.44772,1 -1,1 -0.55228,0 -1,-0.44772 -1,-1 0,-0.55228 0.44772,-1 1,-1 z"/></g></svg>