<svg xmlns="http://www.w3.org/2000/svg" xmlns:osb="http://www.openswatchbook.org/uri/2009/osb" xmlns:svg="http://www.w3.org/2000/svg" id="svg2" width="16.03" height="16" enable-background="new" version="1.1"><metadata id="metadata90"/><defs id="defs7386"><linearGradient id="linearGradient5606" osb:paint="solid"><stop id="stop5608"/></linearGradient></defs><g id="layer9" transform="translate(-360.96897,363)"><path id="path7627" d="M 8.03125 2 C 4.9969 2 2.26537 3.07815 0 4.75 L 8.03125 13.5 L 16 4.71875 C 13.74339 3.06546 11.0423 2 8.03125 2 z M 5 5 L 11 5 C 12.108 5 13 5.892 13 7 C 13 8.108 12.108 9 11 9 L 5 9 C 3.892 9 3 8.108 3 7 C 3 5.892 3.892 5 5 5 z" transform="translate(360.96897,-363)" style="opacity:.35;color:#000;fill:#444"/><path id="path4955" fill="#444" d="m 366.00022,-357 c -0.55228,0 -1,0.44772 -1,1 0,0.55228 0.44772,1 1,1 0.55228,0 1,-0.44772 1,-1 0,-0.55228 -0.44772,-1 -1,-1 z m 3,0 c -0.55228,0 -1,0.44772 -1,1 0,0.55228 0.44772,1 1,1 0.55228,0 1,-0.44772 1,-1 0,-0.55228 -0.44772,-1 -1,-1 z m 3,0 c -0.55228,0 -1,0.44772 -1,1 0,0.55228 0.44772,1 1,1 0.55228,0 1,-0.44772 1,-1 0,-0.55228 -0.44772,-1 -1,-1 z"/></g></svg>