<svg xmlns="http://www.w3.org/2000/svg" xmlns:osb="http://www.openswatchbook.org/uri/2009/osb" xmlns:svg="http://www.w3.org/2000/svg" style="enable-background:new" id="svg7384" width="16" height="16" version="1.1"><metadata id="metadata90"/><title id="title8473">Moka Symbolic Icon Theme</title><defs id="defs7386"><linearGradient id="linearGradient5606" osb:paint="solid"><stop style="stop-color:#000;stop-opacity:1" id="stop5608" offset="0"/></linearGradient><filter id="filter7554" color-interpolation-filters="sRGB"><feBlend id="feBlend7556" in2="BackgroundImage" mode="darken"/></filter></defs><g style="display:inline" id="layer9" transform="translate(-485.0004,451.00336)"><path style="fill:#444;fill-opacity:1;stroke:none" id="path5858-0" d="m 490.0004,-444.00336 c -0.55228,0 -1,0.44772 -1,1 0,0.55228 0.44772,1 1,1 0.55228,0 1,-0.44772 1,-1 0,-0.55228 -0.44772,-1 -1,-1 z m 3,0 c -0.55228,0 -1,0.44772 -1,1 0,0.55228 0.44772,1 1,1 0.55228,0 1,-0.44772 1,-1 0,-0.55228 -0.44772,-1 -1,-1 z m 3,0 c -0.55228,0 -1,0.44772 -1,1 0,0.55228 0.44772,1 1,1 0.55228,0 1,-0.44772 1,-1 0,-0.55228 -0.44772,-1 -1,-1 z"/><path style="opacity:.35;color:#000;fill:#444;fill-opacity:1;stroke:none" id="path9644" d="m 495.0002,-451 c 0.004,0.003 0,1.33333 0,2 l -3,0 0,4 4,0 c 0.67626,0 1.26337,0.33287 1.625,0.84375 l 2.875,-2.34375 -5.5,-4.5 z m -6.96875,8.4375 -2.53125,2.0625 5.5,4.5 c -0.004,-0.003 0,-1.33333 0,-2 l 3,0 0,-2.1875 0,-0.8125 -4,0 c -0.95911,0 -1.7718,-0.6642 -1.96875,-1.5625 z"/></g></svg>