<svg xmlns="http://www.w3.org/2000/svg" xmlns:osb="http://www.openswatchbook.org/uri/2009/osb" xmlns:svg="http://www.w3.org/2000/svg" id="svg7384" width="16" height="16" version="1.1" style="enable-background:new"><metadata id="metadata90"/><title id="title8473">Moka Symbolic Icon Theme</title><defs id="defs7386"><linearGradient id="linearGradient5606" osb:paint="solid"><stop id="stop5608" offset="0" style="stop-color:#000;stop-opacity:1"/></linearGradient><filter id="filter7554" color-interpolation-filters="sRGB"><feBlend id="feBlend7556" in2="BackgroundImage" mode="darken"/></filter></defs><g id="layer9" transform="translate(-281.0002,327.00333)" style="display:inline"><path style="opacity:.35;fill:#444;fill-opacity:1;stroke:none" id="path6535" d="M 15 1 L 1 15 L 9 15 L 9 13 L 9 12 L 9 11 L 10 11 C 10.01675 9.36263 11.35439 8 13 8 C 13.767637 8 14.46927 8.2987675 15 8.78125 L 15 1 z M 11 13 L 11 15 L 15 15 L 15 13 L 14 13 L 12 13 L 11 13 z" transform="translate(281.0002,-327.00333)"/><path style="fill:#444;fill-opacity:1;stroke:none" id="path6554" d="M 12 4 L 1 15 L 9 15 L 9 13 L 9 12 L 9 11 L 10 11 C 10.013156 9.7139823 10.847952 8.6074642 12 8.1875 L 12 4 z M 11 13 L 11 15 L 12 15 L 12 13 L 11 13 z" transform="translate(281.0002,-327.00333)"/><path style="fill:#444" id="path5983" d="m 294.0002,-318 c -1.108,0 -2,0.91081 -2,2.03125 l 0,0.96875 -1,0 0,1 0,2 0,1 1,0 4,0 1,0 0,-1 0,-2 0,-1 -1,0 0,-0.96875 c 0,-1.12 -0.892,-2.03125 -2,-2.03125 z m 0,1 c 0.554,0 1,0.44236 1,1 l 0,1 -2,0 0,-1 c 0,-0.55764 0.446,-1 1,-1 z"/></g></svg>