<svg xmlns="http://www.w3.org/2000/svg" xmlns:osb="http://www.openswatchbook.org/uri/2009/osb" xmlns:svg="http://www.w3.org/2000/svg" id="svg7384" width="16" height="16" version="1.1" style="enable-background:new"><metadata id="metadata90"/><title id="title8473">Moka Symbolic Icon Theme</title><defs id="defs7386"><linearGradient id="linearGradient5606" osb:paint="solid"><stop id="stop5608" offset="0" style="stop-color:#000;stop-opacity:1"/></linearGradient><filter id="filter7554" color-interpolation-filters="sRGB"><feBlend id="feBlend7556" in2="BackgroundImage" mode="darken"/></filter></defs><g id="layer9" transform="translate(-281.0002,428.00336)" style="display:inline"><path style="opacity:.35;color:#000;fill:#444;fill-opacity:1;fill-rule:nonzero;stroke:none;stroke-width:1;marker:none;visibility:visible;display:inline;overflow:visible;enable-background:accumulate" id="path5907" d="M 8.03125 2 C 4.9969 2 2.26537 3.07815 0 4.75 L 8.03125 13.5 L 9 12.4375 L 9 12 L 9 11 L 10 11 C 10.01675 9.36263 11.35439 8 13 8 L 13.03125 8 L 16 4.71875 C 13.74339 3.06546 11.0423 2 8.03125 2 z" transform="translate(281.0002,-428.00336)"/><path style="color:#000;fill:#444;fill-opacity:1;fill-rule:nonzero;stroke:none;stroke-width:1;marker:none;visibility:visible;display:inline;overflow:visible;enable-background:accumulate" id="path5949" d="M 8 5 C 5.76744 5 3.69538 5.73219 2.03125 6.96875 L 8.03125 13.5 L 9 12.4375 L 9 12 L 9 11 L 10 11 C 10.01675 9.36263 11.35439 8 13 8 C 13.010709 8 13.020567 7.9998849 13.03125 8 L 13.96875 6.96875 C 12.30462 5.73219 10.23256 5 8 5 z" transform="translate(281.0002,-428.00336)"/><path style="fill:#444" id="path3767" d="m 294.0004,-419.00336 c -1.108,0 -2,0.91081 -2,2.03125 l 0,0.96875 -1,0 0,1 0,2 0,1 1,0 4,0 1,0 0,-1 0,-2 0,-1 -1,0 0,-0.96875 c 0,-1.12 -0.892,-2.03125 -2,-2.03125 z m 0,1 c 0.554,0 1,0.44236 1,1 l 0,1 -2,0 0,-1 c 0,-0.55764 0.446,-1 1,-1 z"/></g></svg>