<svg xmlns="http://www.w3.org/2000/svg" xmlns:osb="http://www.openswatchbook.org/uri/2009/osb" xmlns:svg="http://www.w3.org/2000/svg" id="svg7384" width="16" height="16" version="1.1" style="enable-background:new"><metadata id="metadata90"/><title id="title8473">Moka Symbolic Icon Theme</title><defs id="defs7386"><linearGradient id="linearGradient5606" osb:paint="solid"><stop id="stop5608" offset="0" style="stop-color:#000;stop-opacity:1"/></linearGradient><filter id="filter7554" color-interpolation-filters="sRGB"><feBlend id="feBlend7556" in2="BackgroundImage" mode="darken"/></filter></defs><g id="layer9" transform="translate(-505.00043,431.00336)" style="display:inline"><path id="path9723" d="m 515.0002,-431 c 0.004,0.003 0,1.33333 0,2 l -3,0 0,5 3,0 0,2 1,-0.8125 0,-3.1875 3.875,0 0.625,-0.5 -5.5,-4.5 z" style="color:#000;fill:#444;fill-opacity:1;stroke:none"/><path id="path9727" d="m 511.0002,-425 -5.5,4.5 5.5,4.5 c -0.004,-0.003 0,-1.33333 0,-2 1,0 3,0 3,0 l 0,-2.1875 0,-0.8125 0,-2 c 0,0 -2,0 -3,0 0,-0.66667 0,-2 0,-2 z" style="color:#000;fill:#444;fill-opacity:1;stroke:none"/><path id="path6053-9" d="m 517.0002,-425 -10e-6,4 0.25,2 1.5,0 0.25,-2 10e-6,-4 z m 0,7 0,2 2,0 0,-2 z" style="color:#444;fill:#ef2929;stroke:none"/></g></svg>