<svg xmlns="http://www.w3.org/2000/svg" xmlns:svg="http://www.w3.org/2000/svg" xmlns:xlink="http://www.w3.org/1999/xlink" id="svg3495" width="24" height="24" version="1.1"><defs id="defs3497"><linearGradient id="linearGradient3802" x1="11" x2="11" y1="0" y2="22" gradientTransform="matrix(1,0,0,-1,1,47)" gradientUnits="userSpaceOnUse" xlink:href="#outerBackgroundGradient-0"/><linearGradient id="linearGradient3904"><stop style="stop-color:#234683;stop-opacity:1" id="stop3906" offset="0"/><stop style="stop-color:#30589e;stop-opacity:1" id="stop3908" offset="1"/></linearGradient><linearGradient id="outerBackgroundGradient-0"><stop id="stop3864-8-6-3" offset="0" style="stop-color:#1c6aba;stop-opacity:1"/><stop id="stop3866-9-1-7" offset="1" style="stop-color:#4195ec;stop-opacity:1"/></linearGradient><linearGradient id="linearGradient3839" x1="1" x2="21" y1="11" y2="11" gradientTransform="matrix(0,-1,1,0,1,47)" gradientUnits="userSpaceOnUse" xlink:href="#linearGradient3904"/><radialGradient id="radialGradient3993" cx="11" cy="20" r="9" fx="11" fy="20" gradientTransform="matrix(1,0,0,0.22222222,0,15.555556)" gradientUnits="userSpaceOnUse" xlink:href="#linearGradient3949"/><linearGradient id="linearGradient3949"><stop id="stop3951" offset="0" style="stop-color:#000;stop-opacity:1"/><stop id="stop3953" offset="1" style="stop-color:#000;stop-opacity:0"/></linearGradient><radialGradient id="radialGradient4535" cx="11" cy="20" r="9" fx="11" fy="20" gradientTransform="matrix(1,0,0,0.22222222,0,15.555556)" gradientUnits="userSpaceOnUse" xlink:href="#linearGradient3949"/></defs><metadata id="metadata3500"/><g id="layer1" transform="translate(0,-24)"><g id="g4507" transform="translate(1,-1)"><path style="opacity:.4;fill:url(#radialGradient3993);fill-opacity:1;stroke:none" id="path3163" d="m 20,20 c 0,1.104569 -4.029437,2 -9,2 -4.9705627,0 -9,-0.895431 -9,-2 0,-1.104569 4.0294373,-2 9,-2 4.970563,0 9,0.895431 9,2 z" transform="matrix(1,0,0,1.5,0,15)"/><path id="path3995" d="m 20,20 c 0,1.104569 -4.029437,2 -9,2 -4.9705627,0 -9,-0.895431 -9,-2 0,-1.104569 4.0294373,-2 9,-2 4.970563,0 9,0.895431 9,2 z" transform="matrix(0.66666667,0,0,1,3.6666666,26)" style="opacity:.8;fill:url(#radialGradient4535);fill-opacity:1;stroke:none"/></g><path id="path4791" d="m 12,45.5 c -5.2407828,0 -9.5,-4.259217 -9.5,-9.5 0,-5.240782 4.2592171,-9.5 9.5,-9.5 5.240783,0 9.5,4.259218 9.5,9.5 0,5.240783 -4.259217,9.5 -9.5,9.5 z" style="fill:url(#linearGradient3802);fill-opacity:1;fill-rule:evenodd;stroke:none"/><path style="opacity:.81000001;fill:none;stroke:url(#linearGradient3839);stroke-opacity:1" id="path3804" d="m 2.5,36 c 0,5.240783 4.259217,9.5 9.5,9.5 5.240782,0 9.5,-4.259217 9.5,-9.5 0,-5.240783 -4.259218,-9.5 -9.5,-9.5 -5.240783,0 -9.5,4.259217 -9.5,9.5 z"/><path id="path3806" d="m 12,27 c -4.9698807,0 -9,4.030119 -9,9 0,0.171541 0.021774,0.330826 0.03125,0.5 C 3.2963002,31.767849 7.2016599,28 12,28 c 4.79834,0 8.7037,3.767849 8.96875,8.5 C 20.978226,36.330826 21,36.171541 21,36 21,31.030119 16.969881,27 12,27 z" style="opacity:.2;fill:#fff;fill-opacity:1;fill-rule:evenodd;stroke:none"/><path style="opacity:.2;fill:#000;fill-opacity:1;fill-rule:evenodd;stroke:none" id="path3820" d="M 12,46 C 7.0301193,46 3,41.969881 3,37 3,36.828459 3.021774,36.669174 3.03125,36.5 3.2963002,41.232151 7.2016599,45 12,45 16.79834,45 20.7037,41.232151 20.96875,36.5 20.97825,36.669174 21,36.828459 21,37 c 0,4.969881 -4.030119,9 -9,9 z"/></g><g id="layer2" transform="translate(0,2)"><path style="fill:#000;fill-opacity:1;stroke:none;opacity:.29999999999999999" id="path3802" d="m 12,30 c -3.8660295,0 -6.9999995,3.13412 -6.9999995,7 0,3.86603 3.13397,7 6.9999995,7 3.86603,0 7,-3.13397 7,-7 0,-3.86588 -3.13397,-7 -7,-7 z m 0,1 c 3.31371,0 6,2.68629 6,6 0,3.31371 -2.68629,6 -6,6 -3.3137095,0 -5.9999995,-2.68629 -5.9999995,-6 0,-3.31371 2.68629,-6 5.9999995,-6 z m 0,1.75 c -0.69036,0 -1.25,0.55964 -1.25,1.25 0,0.69036 0.55964,1.25 1.25,1.25 0.69036,0 1.25,-0.55964 1.25,-1.25 0,-0.69036 -0.55964,-1.25 -1.25,-1.25 z m -1,3.25 0,5 2,0 0,-5 -1,0 -1,0 z" transform="translate(0,-26)"/><path id="path4995" d="m 12,29 c -3.8660295,0 -6.9999995,3.13412 -6.9999995,7 0,3.86603 3.13397,7 6.9999995,7 3.86603,0 7,-3.13397 7,-7 0,-3.86588 -3.13397,-7 -7,-7 z m 0,1 c 3.31371,0 6,2.68629 6,6 0,3.31371 -2.68629,6 -6,6 -3.3137095,0 -5.9999995,-2.68629 -5.9999995,-6 0,-3.31371 2.68629,-6 5.9999995,-6 z m 0,1.75 c -0.69036,0 -1.25,0.55964 -1.25,1.25 0,0.69036 0.55964,1.25 1.25,1.25 0.69036,0 1.25,-0.55964 1.25,-1.25 0,-0.69036 -0.55964,-1.25 -1.25,-1.25 z m -1,3.25 0,5 2,0 0,-5 -1,0 -1,0 z" transform="translate(0,-26)" style="fill:#fff;fill-opacity:1;stroke:none"/></g></svg>