<svg xmlns="http://www.w3.org/2000/svg" xmlns:svg="http://www.w3.org/2000/svg" id="svg2" width="24" height="24" version="1.1"><metadata id="metadata90"/><g id="layer9" transform="translate(-553.0002,-89)"><path id="path3991-1" fill="#bebebe" d="m 561.0002,91 0,3 -2.5,0 c -2.46705,0 -4.5,2.03295 -4.5,4.5 l 0,6 c 0,2.46705 2.03295,4.5 4.5,4.5 l 1.5,0 1,0 5,0 4.5,0 c 2.46705,0 4.5,-2.03295 4.5,-4.5 l 0,-6 c 0,-2.46705 -2,-4.5 -4.5,-4.5 l -0.375,0 -1.125,0 0,0.75 0,1.5 0,0.75 1.125,0 0.375,0 c 0.85695,0 1.5,0.64305 1.5,1.5 l 0,6 c 0,0.85695 -0.64305,1.5 -1.5,1.5 l -4.5,0 -5,0 -1,0 -1.5,0 c -0.85695,0 -1.5,-0.64305 -1.5,-1.5 l 0,-6 c 0,-0.85695 0.64305,-1.5 1.5,-1.5 l 2.5,0 0,3 6,-4.5 -6,-4.5 z" color="#000"/></g></svg>