<svg xmlns="http://www.w3.org/2000/svg" xmlns:svg="http://www.w3.org/2000/svg" xmlns:xlink="http://www.w3.org/1999/xlink" id="svg3759" width="48" height="48" version="1.1"><metadata id="metadata37"/><defs id="defs3761"><linearGradient id="linearGradient3801"><stop id="stop3803" offset="0" style="stop-color:#b4b4b4;stop-opacity:1"/><stop style="stop-color:#fff;stop-opacity:1" id="stop3811" offset=".5"/><stop style="stop-color:#d2d2d2;stop-opacity:1" id="stop3809" offset=".841"/><stop id="stop3805" offset="1" style="stop-color:#d7d7d7;stop-opacity:1"/></linearGradient><radialGradient id="radialGradient3755" cx="24.85" cy="38.909" r="20.203" fx="24.85" fy="38.909" gradientTransform="matrix(1,0,0,0.37,0,24.5124)" gradientUnits="userSpaceOnUse" xlink:href="#linearGradient26113-9-3-1"/><linearGradient id="linearGradient26113-9-3-1"><stop id="stop26115-7-7-9" offset="0" style="stop-color:#000;stop-opacity:1"/><stop id="stop26117-3-7-8" offset="1" style="stop-color:#000;stop-opacity:0"/></linearGradient><linearGradient id="linearGradient26121-3-8-2"><stop id="stop26123-4-7-8" offset="0" style="stop-color:#000;stop-opacity:1"/><stop id="stop26125-3-9-9" offset="1" style="stop-color:#000;stop-opacity:0"/></linearGradient><radialGradient id="radialGradient4274" cx="24.85" cy="38.909" r="20.203" fx="24.85" fy="38.909" gradientTransform="matrix(1.00851,0,0,0.373148,-0.211403,24.39)" gradientUnits="userSpaceOnUse" xlink:href="#linearGradient26121-3-8-2"/><linearGradient id="linearGradient3901"><stop id="stop3903" offset="0" style="stop-color:#f5f5f5;stop-opacity:1"/><stop style="stop-color:#e8e8e8;stop-opacity:1" id="stop3791" offset=".5"/><stop id="stop3905" offset="1" style="stop-color:#c3c3c3;stop-opacity:1"/></linearGradient><radialGradient id="radialGradient3789" cx="24" cy="18.472" r="19.5" fx="24" fy="18.472" gradientTransform="matrix(-1.846154,-5.2072031e-8,4.5634652e-8,-1.6180158,68.307698,41.888255)" gradientUnits="userSpaceOnUse" xlink:href="#linearGradient3901"/><clipPath id="clipPath3795" clipPathUnits="userSpaceOnUse"><path style="fill:url(#radialGradient3799);fill-opacity:1;fill-rule:nonzero;stroke:none" id="path3797" d="M 4.5000031,23.999309 C 4.5000031,34.769208 13.231094,43.5 23.999758,43.5 c 10.769649,0 19.500245,-8.730891 19.500245,-19.500691 0,-10.769405 -8.730596,-19.4993089 -19.500245,-19.4993089 -10.768664,0 -19.4997549,8.7299039 -19.4997549,19.4993089 l 0,0 z"/></clipPath><radialGradient id="radialGradient3799" cx="24" cy="18.472" r="19.5" fx="24" fy="18.472" gradientTransform="matrix(-1.846154,-5.2072031e-8,4.5634652e-8,-1.6180158,68.307698,41.888255)" gradientUnits="userSpaceOnUse" xlink:href="#linearGradient3901"/><linearGradient id="linearGradient3807" x1="8" x2="40" y1="40" y2="8" gradientUnits="userSpaceOnUse" xlink:href="#linearGradient3801"/><radialGradient id="radialGradient4379" cx="23" cy="20" r="10" fx="23" fy="20" gradientUnits="userSpaceOnUse" xlink:href="#linearGradient4271"/><linearGradient id="linearGradient4271"><stop id="stop4273" offset="0" style="stop-color:#fff;stop-opacity:1"/><stop id="stop4275" offset="1" style="stop-color:#fff;stop-opacity:0"/></linearGradient><radialGradient id="radialGradient4381" cx="20.494" cy="18.611" r="10" fx="20.494" fy="18.611" gradientTransform="matrix(0.50000002,6.2017721e-8,-6.1533745e-8,0.50000004,10.753172,9.6942657)" gradientUnits="userSpaceOnUse" xlink:href="#linearGradient4271"/></defs><g id="layer1"><path style="fill:url(#radialGradient4274);fill-opacity:1;stroke:none;display:inline;filter:url(#filter5927);enable-background:new" id="path9641" d="m 45.052803,38.908627 a 20.203051,7.4751287 0 1 1 -40.4061012,0 20.203051,7.4751287 0 1 1 40.4061012,0 z" transform="matrix(0.76992689,0,0,0.70231451,4.8675074,13.673907)"/><path id="path9643" d="m 45.052803,38.908627 a 20.203051,7.4751287 0 1 1 -40.4061012,0 20.203051,7.4751287 0 1 1 40.4061012,0 z" transform="matrix(1.0408039,0,0,0.94940366,-1.8632526,3.514402)" style="opacity:.51836696999999998;fill:url(#radialGradient3755);fill-opacity:1;stroke:none;display:inline;filter:url(#filter5788);enable-background:new"/><path id="path6495" d="M 4.5000031,23.999309 C 4.5000031,34.769208 13.231094,43.5 23.999758,43.5 c 10.769649,0 19.500245,-8.730891 19.500245,-19.500691 0,-10.769405 -8.730596,-19.4993089 -19.500245,-19.4993089 -10.768664,0 -19.4997549,8.7299039 -19.4997549,19.4993089 l 0,0 z" style="fill:url(#radialGradient3789);fill-opacity:1;fill-rule:nonzero;stroke:none"/><path id="path3872" d="M 24 5 C 13.500552 5 5 13.500823 5 24 C 5 24.169463 5.0268485 24.331605 5.03125 24.5 C 5.299553 14.235412 13.670013 6 24 6 C 34.328993 6 42.700416 14.235427 42.96875 24.5 C 42.973152 24.331604 43 24.169465 43 24 C 43 13.500839 34.498438 5 24 5 z" style="fill:#fff;fill-opacity:1;fill-rule:nonzero;stroke:none;opacity:.40000000000000002"/><path id="path3813" d="M 4.5000031,23.999309 C 4.5000031,34.769208 13.231094,43.5 23.999758,43.5 c 10.769649,0 19.500245,-8.730891 19.500245,-19.500691 0,-10.769405 -8.730596,-19.4993089 -19.500245,-19.4993089 -10.768664,0 -19.4997549,8.7299039 -19.4997549,19.4993089 l 0,0 z" clip-path="url(#clipPath3795)" style="fill:none;fill-opacity:1;fill-rule:nonzero;stroke:#000;stroke-opacity:1;stroke-width:6;stroke-miterlimit:4;stroke-dasharray:none;opacity:.4"/><path style="fill:none;fill-opacity:1;fill-rule:nonzero;stroke:url(#linearGradient3807);stroke-opacity:1;stroke-width:4;stroke-miterlimit:4;stroke-dasharray:none" id="path3023" d="M 4.5000031,23.999309 C 4.5000031,34.769208 13.231094,43.5 23.999758,43.5 c 10.769649,0 19.500245,-8.730891 19.500245,-19.500691 0,-10.769405 -8.730596,-19.4993089 -19.500245,-19.4993089 -10.768664,0 -19.4997549,8.7299039 -19.4997549,19.4993089 l 0,0 z" clip-path="url(#clipPath3795)"/><path style="opacity:.41;fill:none;stroke:#000;stroke-width:1;stroke-miterlimit:4;stroke-opacity:1;stroke-dasharray:none" id="path3796" d="m 23.999312,4.5000001 c 10.769899,0 19.500691,8.7310909 19.500691,19.4997549 C 43.500003,34.769404 34.769112,43.5 23.999312,43.5 13.229907,43.5 4.5000031,34.769404 4.5000031,23.999755 c 0,-10.768664 8.7299039,-19.4997549 19.4993089,-19.4997549 l 0,0 z"/><g id="g4395" transform="matrix(1.3995423,0,0,1.3995423,-9.5890121,-9.4641988)"><path style="fill:url(#radialGradient4379);fill-opacity:1;stroke:none" id="path4269" d="m 34,24 c 0,5.522847 -4.477153,10 -10,10 -5.522847,0 -10,-4.477153 -10,-10 0,-5.522847 4.477153,-10 10,-10 5.522847,0 10,4.477153 10,10 z" transform="matrix(1.1789569,0,0,1.1789569,-4.2949656,-4.3841493)"/><path id="path4279" d="m 34,24 c 0,5.522847 -4.477153,10 -10,10 -5.522847,0 -10,-4.477153 -10,-10 0,-5.522847 4.477153,-10 10,-10 5.522847,0 10,4.477153 10,10 z" transform="matrix(1.1789569,0,0,1.1789569,-4.2949656,-4.3841493)" style="opacity:.8;fill:url(#radialGradient4381);fill-opacity:1;stroke:none"/><path style="opacity:.8;fill:#fff;fill-opacity:1;stroke:none" id="path4290" d="M 22,18.5 C 22,19.328427 21.328427,20 20.5,20 19.671573,20 19,19.328427 19,18.5 19,17.671573 19.671573,17 20.5,17 c 0.828427,0 1.5,0.671573 1.5,1.5 z" transform="matrix(1.1789569,0,0,1.1789569,-4.2949656,-4.3841493)"/><path id="path3848" d="m 23.999998,36.414904 c -6.5112,0 -11.789569,-5.278369 -11.789569,-11.789569 0,-0.120624 0.01873,-0.237507 0.02233,-0.357259 0.190584,6.34438 5.376665,11.432309 11.76724,11.432309 6.390575,0 11.576655,-5.087929 11.76724,-11.432309 0.0036,0.119752 0.02233,0.236635 0.02233,0.357259 0,6.5112 -5.278369,11.789569 -11.789568,11.789569 z" style="opacity:.2;fill:#000;fill-opacity:1;stroke:none"/><path style="opacity:.2;fill:#000;fill-opacity:1;stroke:none" id="path3853" d="m 23.999998,11.763988 c -6.5112,0 -11.789569,5.278369 -11.789569,11.789569 0,0.120624 0.01873,0.237507 0.02233,0.357259 0.190584,-6.34438 5.376665,-11.432309 11.76724,-11.432309 6.390575,0 11.576655,5.087929 11.76724,11.432309 0.0036,-0.119752 0.02233,-0.236635 0.02233,-0.357259 0,-6.5112 -5.278369,-11.789569 -11.789568,-11.789569 z"/></g></g><g id="layer2"><g id="g3815" transform="matrix(0.81581488,0,0,0.81581488,4.5454425,4.4204429)"><path style="opacity:.5;fill:none;stroke:#000;stroke-width:1.22576833;stroke-linecap:round;stroke-linejoin:round;stroke-miterlimit:4;stroke-opacity:1;stroke-dasharray:none;display:inline;enable-background:new" id="path3953" d="M 13.343086,13.343086 24,24 33.990857,16.506857"/><path style="fill:none;stroke:#dc0000;stroke-width:.61288416;stroke-linecap:butt;stroke-linejoin:miter;stroke-miterlimit:4;stroke-opacity:1;stroke-dasharray:none;display:inline;enable-background:new" id="path4005-8" d="M 24,24 34.656915,12.010971"/></g></g></svg>