<svg xmlns="http://www.w3.org/2000/svg" xmlns:svg="http://www.w3.org/2000/svg" xmlns:xlink="http://www.w3.org/1999/xlink" id="svg2436" width="48" height="48" version="1.1"><defs id="defs2438"><clipPath id="clipPath3985" clipPathUnits="userSpaceOnUse"><path id="path3987" d="m 309,232.99972 c -0.53578,0 -1,0.46422 -1,1 l -5e-5,8 -1,0 c -0.3277,0 -0.58618,0.18225 -0.75,0.375 -0.1489,0.17519 -0.22283,0.39373 -0.21875,0.65625 l -0.0312,0 0,0.0312 c 7.3e-4,0.0115 -10e-4,0.0195 0,0.0312 l 1.00005,26.96875 0,0.0312 c 0.0279,0.29662 0.18255,0.47236 0.34375,0.625 0.1612,0.15264 0.34482,0.28259 0.65625,0.28125 l 40,0 c 0.31123,10e-4 0.49504,-0.12858 0.65625,-0.28125 0.16121,-0.15267 0.31581,-0.32853 0.34375,-0.625 l 0,-0.0312 0.99995,-26.96875 0,-0.0312 c 10e-4,-0.013 -6.9e-4,-0.0186 0,-0.0312 0.0177,-0.32247 -0.12059,-0.51812 -0.28125,-0.6875 -0.16696,-0.17602 -0.38333,-0.34519 -0.71875,-0.34375 l -1,0 5e-5,-4 c 1e-5,-0.53578 -0.46422,-1 -1,-1 l -15,0 c -1.98879,0 -3.00245,-1.00245 -4,-2 -0.99755,-0.99755 -2.01326,-2 -4,-2 l -15,0 z" style="font-size:medium;font-style:normal;font-variant:normal;font-weight:400;font-stretch:normal;text-indent:0;text-align:start;text-decoration:none;line-height:normal;letter-spacing:normal;word-spacing:normal;text-transform:none;direction:ltr;block-progression:tb;writing-mode:lr-tb;text-anchor:start;baseline-shift:baseline;color:#000;fill:#3465a4;fill-opacity:1;fill-rule:nonzero;stroke:none;stroke-width:1;marker:none;visibility:visible;display:inline;overflow:visible;enable-background:accumulate;font-family:Sans;-inkscape-font-specification:Sans"/></clipPath><linearGradient id="linearGradient3991" x1="328" x2="328" y1="243" y2="255" gradientUnits="userSpaceOnUse" xlink:href="#linearGradient11342"/><linearGradient id="linearGradient11342"><stop style="stop-color:#fff;stop-opacity:1" id="stop11344" offset="0"/><stop style="stop-color:#fff;stop-opacity:0" id="stop11346" offset="1"/></linearGradient><clipPath id="clipPath3995" clipPathUnits="userSpaceOnUse"><path style="font-size:medium;font-style:normal;font-variant:normal;font-weight:400;font-stretch:normal;text-indent:0;text-align:start;text-decoration:none;line-height:normal;letter-spacing:normal;word-spacing:normal;text-transform:none;direction:ltr;block-progression:tb;writing-mode:lr-tb;text-anchor:start;baseline-shift:baseline;color:#000;fill:url(#linearGradient3999);fill-opacity:1;fill-rule:nonzero;stroke:none;stroke-width:2;marker:none;visibility:visible;display:inline;overflow:visible;enable-background:accumulate;font-family:Sans;-inkscape-font-specification:Sans" id="path3997" d="m 306,242.09347 1,27 c 0.0463,0.49158 0.50624,0.90838 1,0.90625 l 40,0 c 0.49376,0.002 0.95367,-0.41467 1,-0.90625 l 1,-27 c 0.0521,-0.5539 -0.44366,-1.09614 -1,-1.09375 l -42,0 c -0.60937,0 -1.0514,0.56975 -1,1.09375 z"/></clipPath><linearGradient id="linearGradient5271" x1="352" x2="352" y1="228" y2="276" gradientTransform="translate(-304,-227.99973)" gradientUnits="userSpaceOnUse" xlink:href="#linearGradient4968"/><linearGradient id="linearGradient4968"><stop id="stop4970" offset="0" style="stop-color:#f1e6f4;stop-opacity:1"/><stop style="stop-color:#c9bcce;stop-opacity:1" id="stop4972" offset="1"/></linearGradient><linearGradient id="linearGradient5274" x1="328" x2="328" y1="240" y2="260" gradientTransform="translate(-304,-236.00001)" gradientUnits="userSpaceOnUse" xlink:href="#linearGradient11359"/><linearGradient id="linearGradient11359"><stop style="stop-color:#d5cbd7;stop-opacity:1" id="stop11361" offset="0"/><stop style="stop-color:#d9bfdf;stop-opacity:1" id="stop11363" offset="1"/></linearGradient></defs><metadata id="metadata2441"/><g id="layer1"><path id="path13868" d="m 3,16.500045 c -0.29771,0 -0.52077,0.31947 -0.5,0.53125 l 0,0.0312 1,24.96875 c 0.0198,0.21007 0.28895,0.46966 0.5,0.46875 l 40,0 c 0.21122,8.6e-4 0.4802,-0.25864 0.5,-0.46875 l 1,-24.96875 0,-0.0312 c 0.0216,-0.22918 -0.26981,-0.53224 -0.5,-0.53125 l -42,0 z" style="font-size:medium;font-style:normal;font-variant:normal;font-weight:400;font-stretch:normal;text-indent:0;text-align:start;text-decoration:none;line-height:normal;letter-spacing:normal;word-spacing:normal;text-transform:none;direction:ltr;block-progression:tb;writing-mode:lr-tb;text-anchor:start;baseline-shift:baseline;opacity:.2;color:#000;fill:#000;fill-opacity:1;fill-rule:nonzero;stroke:none;stroke-width:2;marker:none;visibility:visible;display:inline;overflow:visible;enable-background:accumulate;font-family:Sans;-inkscape-font-specification:Sans"/><path style="color:#000;fill:url(#linearGradient5274);fill-opacity:1;stroke:none;stroke-width:4;marker:none;visibility:visible;display:inline;overflow:visible;enable-background:accumulate" id="rect11352" d="m 5,4.499995 c -0.28565,0 -0.5,0.21435 -0.5,0.5 l 0,18 c 0,0.28565 0.21435,0.5 0.5,0.5 l 38,0 c 0.28565,0 0.5,-0.21435 0.5,-0.5 l 0,-14 c 0,-0.28565 -0.21435,-0.5 -0.5,-0.5 l -15,0 c -2.16667,0 -3.34375,-1.15625 -4.34375,-2.15625 -1,-1 -1.82292,-1.84375 -3.65625,-1.84375 l -15,0 z"/><path style="font-size:medium;font-style:normal;font-variant:normal;font-weight:400;font-stretch:normal;text-indent:0;text-align:start;text-decoration:none;line-height:normal;letter-spacing:normal;word-spacing:normal;text-transform:none;direction:ltr;block-progression:tb;writing-mode:lr-tb;text-anchor:start;baseline-shift:baseline;color:#000;fill:url(#linearGradient5271);fill-opacity:1;fill-rule:nonzero;stroke:none;stroke-width:2;marker:none;visibility:visible;display:inline;overflow:visible;enable-background:accumulate;font-family:Sans;-inkscape-font-specification:Sans" id="path10548" d="m 2.99995,13.499995 c -0.29771,0 -0.52077,0.31947 -0.5,0.53125 l 0,0.0312 L 3.5,41.031195 c 0.0198,0.21007 0.28895,0.46966 0.5,0.46875 l 40,0 c 0.21122,8.6e-4 0.4802,-0.25864 0.5,-0.46875 l 0.99995,-26.96875 0,-0.0312 c 0.0216,-0.22918 -0.26981,-0.53224 -0.5,-0.53125 z"/><path id="path11392" d="M 2.90625,14.999995 C 2.38183,15.046895 1.9486,15.569745 2,16.093745 l 1,23.90625 c 0.0463,0.49158 0.50624,0.90838 1,0.90625 l 40,0 c 0.49376,0.002 0.95367,-0.41467 1,-0.90625 l 1,-23.90625 c 0.0521,-0.5539 -0.44366,-1.09614 -1,-1.09375 l -42,0 c -0.0312,-10e-4 -0.0625,-10e-4 -0.0937,0 z" style="font-size:medium;font-style:normal;font-variant:normal;font-weight:400;font-stretch:normal;text-indent:0;text-align:start;text-decoration:none;line-height:normal;letter-spacing:normal;word-spacing:normal;text-transform:none;direction:ltr;block-progression:tb;writing-mode:lr-tb;text-anchor:start;baseline-shift:baseline;color:#000;fill:none;stroke:none;stroke-width:2;marker:none;visibility:visible;display:inline;overflow:visible;enable-background:accumulate;font-family:Sans;-inkscape-font-specification:Sans"/><path style="font-size:medium;font-style:normal;font-variant:normal;font-weight:400;font-stretch:normal;text-indent:0;text-align:start;text-decoration:none;line-height:normal;letter-spacing:normal;word-spacing:normal;text-transform:none;direction:ltr;block-progression:tb;writing-mode:lr-tb;text-anchor:start;baseline-shift:baseline;opacity:.2;color:#000;fill:none;stroke:url(#linearGradient3991);stroke-width:4;stroke-miterlimit:4;stroke-opacity:1;stroke-dasharray:none;marker:none;visibility:visible;display:inline;overflow:visible;enable-background:accumulate;font-family:Sans;-inkscape-font-specification:Sans" id="path11814" d="m 306,242.09347 1,27 c 0.0463,0.49158 0.50624,0.90838 1,0.90625 l 40,0 c 0.49376,0.002 0.95367,-0.41467 1,-0.90625 l 1,-27 c 0.0521,-0.5539 -0.44366,-1.09614 -1,-1.09375 l -42,0 c -0.60937,0 -1.0514,0.56975 -1,1.09375 z" clip-path="url(#clipPath3995)" transform="translate(-304,-227.99973)"/><path id="path12028" d="m 309,232.99972 c -0.53578,0 -1,0.46422 -1,1 l -5e-5,8 -1,0 c -0.3277,0 -0.58618,0.18225 -0.75,0.375 -0.1489,0.17519 -0.22283,0.39373 -0.21875,0.65625 l -0.0312,0 0,0.0312 c 7.3e-4,0.0115 -10e-4,0.0195 0,0.0312 l 1.00005,26.96875 0,0.0312 c 0.0279,0.29662 0.18255,0.47236 0.34375,0.625 0.1612,0.15264 0.34482,0.28259 0.65625,0.28125 l 40,0 c 0.31123,10e-4 0.49504,-0.12858 0.65625,-0.28125 0.16121,-0.15267 0.31581,-0.32853 0.34375,-0.625 l 0,-0.0312 0.99995,-26.96875 0,-0.0312 c 10e-4,-0.013 -6.9e-4,-0.0186 0,-0.0312 0.0177,-0.32247 -0.12059,-0.51812 -0.28125,-0.6875 -0.16696,-0.17602 -0.38333,-0.34519 -0.71875,-0.34375 l -1,0 5e-5,-4 c 1e-5,-0.53578 -0.46422,-1 -1,-1 l -15,0 c -1.98879,0 -3.00245,-1.00245 -4,-2 -0.99755,-0.99755 -2.01326,-2 -4,-2 l -15,0 z" clip-path="url(#clipPath3985)" transform="translate(-304,-228.99973)" style="font-size:medium;font-style:normal;font-variant:normal;font-weight:400;font-stretch:normal;text-indent:0;text-align:start;text-decoration:none;line-height:normal;letter-spacing:normal;word-spacing:normal;text-transform:none;direction:ltr;block-progression:tb;writing-mode:lr-tb;text-anchor:start;baseline-shift:baseline;opacity:.41000001;color:#000;fill:none;stroke:#141414;stroke-width:2;stroke-miterlimit:4;stroke-opacity:1;stroke-dasharray:none;marker:none;visibility:visible;display:inline;overflow:visible;enable-background:accumulate;font-family:Sans;-inkscape-font-specification:Sans"/><rect style="opacity:.41000001;color:#000;fill:#000;fill-opacity:1;stroke:none;stroke-width:2;marker:none;visibility:visible;display:inline;overflow:visible;enable-background:accumulate" id="rect12034" width="38" height="1" x="5" y="13"/></g><g id="layer2"><path id="path4005" d="m 31.999759,20 -11,1.25 -3.4e-4,10.53125 C 20.467679,31.301756 19.771809,31 18.99942,31 c -1.656854,0 -3,1.343146 -3,3 0,1.656854 1.343146,3 3,3 1.503649,0 2.720069,-1.119486 2.937499,-2.5625 0.0292,-0.142714 0.0587,-0.287057 0.0625,-0.4375 0,-0.02156 4.5e-4,-0.04105 0,-0.0625 l 3.4e-4,-8.9375 9,-0.9375 -3.4e-4,6.71875 C 30.467679,30.301756 29.771809,30 28.999419,30 c -1.65685,0 -3,1.343146 -3,3 0,1.656854 1.34315,3 3,3 1.31168,0 2.40482,-0.858426 2.8125,-2.03125 0.0247,-0.07099 0.0431,-0.145451 0.0625,-0.21875 0.0172,-0.05307 0.0495,-0.101642 0.0625,-0.15625 0.0337,-0.164795 0.057,-0.326569 0.0625,-0.5 -1.6e-4,-0.03164 0.002,-0.0618 0,-0.09375 0,-0.02156 4.5e-4,-0.04105 0,-0.0625 z" style="color:#bebebe;fill:#fff;fill-opacity:1;fill-rule:nonzero;stroke:none;stroke-width:4;marker:none;visibility:visible;display:inline;overflow:visible;enable-background:accumulate;opacity:.4"/><path style="color:#bebebe;fill:#000;fill-opacity:1;fill-rule:nonzero;stroke:none;stroke-width:4;marker:none;visibility:visible;display:inline;overflow:visible;enable-background:accumulate;opacity:.4" id="path8432-5" d="m 31.999759,18.99997 -11,1.25 -3.4e-4,10.53125 c -0.53174,-0.479494 -1.22761,-0.78125 -1.999999,-0.78125 -1.656854,0 -3,1.343146 -3,3 0,1.656854 1.343146,3 3,3 1.503649,0 2.720069,-1.119486 2.937499,-2.5625 0.0292,-0.142714 0.0587,-0.287057 0.0625,-0.4375 0,-0.02156 4.5e-4,-0.04105 0,-0.0625 l 3.4e-4,-8.9375 9,-0.9375 -3.4e-4,6.71875 c -0.53174,-0.479494 -1.22761,-0.78125 -2,-0.78125 -1.65685,0 -3,1.343146 -3,3 0,1.656854 1.34315,3 3,3 1.31168,0 2.40482,-0.858426 2.8125,-2.03125 0.0247,-0.07099 0.0431,-0.145451 0.0625,-0.21875 0.0172,-0.05307 0.0495,-0.101642 0.0625,-0.15625 0.0337,-0.164795 0.057,-0.326569 0.0625,-0.5 -1.6e-4,-0.03164 0.002,-0.0618 0,-0.09375 0,-0.02156 4.5e-4,-0.04105 0,-0.0625 z"/></g></svg>