<svg xmlns="http://www.w3.org/2000/svg" xmlns:svg="http://www.w3.org/2000/svg" xmlns:xlink="http://www.w3.org/1999/xlink" id="svg4045" width="48" height="48" version="1.1"><defs id="defs4047"><linearGradient id="linearGradient4439"><stop id="stop4441" offset="0" style="stop-color:#85b916;stop-opacity:1"/><stop id="stop4443" offset="1" style="stop-color:#4c680d;stop-opacity:1"/></linearGradient><linearGradient id="linearGradient4433"><stop id="stop4435" offset="0" style="stop-color:#beeb5c;stop-opacity:1"/><stop id="stop4437" offset="1" style="stop-color:#88b32d;stop-opacity:1"/></linearGradient><linearGradient id="linearGradient2867-449-88-871-390-598-476-591-434-148-57-177-641-289-620-227-114-444-680-744-8"><stop style="stop-color:#5f5f5f;stop-opacity:1" id="stop5430-8" offset="0"/><stop style="stop-color:#4f4f4f;stop-opacity:1" id="stop5432-3" offset=".262"/><stop style="stop-color:#3b3b3b;stop-opacity:1" id="stop5434-1" offset=".705"/><stop style="stop-color:#2b2b2b;stop-opacity:1" id="stop5436-8" offset="1"/></linearGradient><linearGradient id="linearGradient3707-319-631-407-324-616-674-812-821-107-178-392-400-6"><stop style="stop-color:#272727;stop-opacity:1" id="stop5440-4" offset="0"/><stop style="stop-color:#454545;stop-opacity:1" id="stop5442-3" offset="1"/></linearGradient><linearGradient id="linearGradient2346"><stop style="stop-color:#eee;stop-opacity:1" id="stop2348" offset="0"/><stop style="stop-color:#d9d9da;stop-opacity:1" id="stop2350" offset="1"/></linearGradient><linearGradient id="linearGradient3707-319-631-407-324-616-674-812-821-107-178-392-400-6-2"><stop style="stop-color:#272727;stop-opacity:1" id="stop5440-4-8" offset="0"/><stop style="stop-color:#454545;stop-opacity:1" id="stop5442-3-8" offset="1"/></linearGradient><radialGradient id="radialGradient3013" cx="4.993" cy="43.5" r="2.5" fx="4.993" fy="43.5" gradientTransform="matrix(2.003784,0,0,1.4,27.98813,-17.4)" gradientUnits="userSpaceOnUse" xlink:href="#linearGradient3688-166-749"/><linearGradient id="linearGradient3688-166-749"><stop style="stop-color:#181818;stop-opacity:1" id="stop2883" offset="0"/><stop style="stop-color:#181818;stop-opacity:0" id="stop2885" offset="1"/></linearGradient><radialGradient id="radialGradient3015" cx="4.993" cy="43.5" r="2.5" fx="4.993" fy="43.5" gradientTransform="matrix(2.003784,0,0,1.4,-20.01187,-104.4)" gradientUnits="userSpaceOnUse" xlink:href="#linearGradient3688-464-309"/><linearGradient id="linearGradient3688-464-309"><stop style="stop-color:#181818;stop-opacity:1" id="stop2889" offset="0"/><stop style="stop-color:#181818;stop-opacity:0" id="stop2891" offset="1"/></linearGradient><linearGradient id="linearGradient3702-501-757"><stop style="stop-color:#181818;stop-opacity:0" id="stop2895" offset="0"/><stop style="stop-color:#181818;stop-opacity:1" id="stop2897" offset=".5"/><stop style="stop-color:#181818;stop-opacity:0" id="stop2899" offset="1"/></linearGradient><linearGradient id="linearGradient4043" x1="25.058" x2="25.058" y1="47.028" y2="39.999" gradientUnits="userSpaceOnUse" xlink:href="#linearGradient3702-501-757"/><radialGradient id="radialGradient3075" cx="7.496" cy="8.45" r="20" fx="7.496" fy="8.45" gradientTransform="matrix(1.9428467e-8,2.4568358,-2.4722567,-4.5264291e-8,46.890103,-13.303252)" gradientUnits="userSpaceOnUse" xlink:href="#linearGradient2867-449-88-871-390-598-476-591-434-148-57-177-641-289-620-227-114-444-680-744-8"/><linearGradient id="linearGradient3077" x1="24" x2="24" y1="44" y2="3.899" gradientTransform="matrix(1,0,0,1.0512821,2.0000013,-0.2307699)" gradientUnits="userSpaceOnUse" xlink:href="#linearGradient3707-319-631-407-324-616-674-812-821-107-178-392-400-6"/><radialGradient id="radialGradient3080" cx="24.502" cy="6.648" r="17.498" fx="24.502" fy="6.648" gradientTransform="matrix(0,2.744544,-3.1834145,0,45.663735,-63.070829)" gradientUnits="userSpaceOnUse" xlink:href="#linearGradient4433"/><linearGradient id="linearGradient3082" x1="32.901" x2="32.901" y1="4.648" y2="61.482" gradientTransform="matrix(0.7007108,0,0,0.73712869,2.0789348,0.87557489)" gradientUnits="userSpaceOnUse" xlink:href="#linearGradient4439"/><linearGradient id="linearGradient3085" x1="10.654" x2="10.654" y1="1" y2="3" gradientTransform="translate(0,1)" gradientUnits="userSpaceOnUse" xlink:href="#linearGradient2346"/><linearGradient id="linearGradient3087" x1="24" x2="24" y1="44" y2="3.899" gradientTransform="matrix(1,0,0,0.10256346,2.0002611,1.038489)" gradientUnits="userSpaceOnUse" xlink:href="#linearGradient3707-319-631-407-324-616-674-812-821-107-178-392-400-6-2"/><linearGradient id="linearGradient3090" x1="24.627" x2="24.64" y1="3.123" y2="4.883" gradientTransform="matrix(1.0040453,0,0,1.5380658,1.2232785,-3.0400179)" gradientUnits="userSpaceOnUse" xlink:href="#linearGradient2346"/><linearGradient id="linearGradient3092" x1="5.212" x2="54.887" y1=".065" y2=".065" gradientTransform="matrix(0.7162781,0,0,0.7471593,2.1541503,0.94834832)" gradientUnits="userSpaceOnUse" xlink:href="#linearGradient4439"/><linearGradient id="linearGradient4636"><stop style="stop-color:#fff;stop-opacity:1" id="stop4638" offset="0"/><stop style="stop-color:#fff;stop-opacity:0" id="stop4640" offset="1"/></linearGradient><linearGradient id="linearGradient3993" x1="3" x2="42" y1="25" y2="24.5" gradientTransform="matrix(0,1,-1,0,46.974576,2.1230056)" gradientUnits="userSpaceOnUse" xlink:href="#linearGradient4636"/></defs><metadata id="metadata4050"/><g style="opacity:.4" id="g3712" transform="matrix(1.0526316,0,0,0.57142859,-1.2631579,20.642856)"><rect style="fill:url(#radialGradient3013);fill-opacity:1;stroke:none" id="rect2801" width="5" height="7" x="38" y="40"/><rect style="fill:url(#radialGradient3015);fill-opacity:1;stroke:none" id="rect3696" width="5" height="7" x="-10" y="-47" transform="scale(-1,-1)"/><rect style="fill:url(#linearGradient4043);fill-opacity:1;stroke:none" id="rect3700" width="28" height="7" x="10" y="40"/></g><path style="fill:url(#linearGradient3090);fill-opacity:1;stroke:url(#linearGradient3092);stroke-width:1.01739752;stroke-linecap:butt;stroke-linejoin:round;stroke-miterlimit:0;stroke-opacity:1;stroke-dasharray:none;stroke-dashoffset:0;display:inline" id="path2723" d="M 40.838991,4.217154 C 40.543588,3.2259354 40.727705,2.4453462 40.56455,1.4999998 l -30.239763,0 0.178478,3"/><path style="color:#000;fill:url(#linearGradient3085);fill-opacity:1;fill-rule:nonzero;stroke:url(#linearGradient3087);stroke-width:.99999994;stroke-linecap:round;stroke-linejoin:round;stroke-miterlimit:4;stroke-opacity:1;stroke-dasharray:none;stroke-dashoffset:0;marker:none;visibility:visible;display:inline;overflow:visible;enable-background:accumulate" id="rect5505-21-3-9" d="m 11.50026,5.4999996 -4.0000002,0 c -0.5708481,0 -1,-0.042333 -1,-0.09756 l 0,-2.7964211 c 0,-0.8879195 0.5590322,-1.1059935 1.2908943,-1.1059935 l 3.7091059,0"/><rect style="fill:url(#radialGradient3080);fill-opacity:1;stroke:url(#linearGradient3082);stroke-width:1.0190411800000001;stroke-linecap:round;stroke-linejoin:round;stroke-miterlimit:0;stroke-opacity:1;stroke-dasharray:none;stroke-dashoffset:0;display:inline" id="rect2719" width="33.978" height="40.981" x="7.513" y="4.51" rx="1" ry="1"/><path style="color:#000;fill:url(#radialGradient3075);fill-opacity:1;fill-rule:nonzero;stroke:url(#linearGradient3077);stroke-width:1;stroke-linecap:round;stroke-linejoin:round;stroke-miterlimit:4;stroke-opacity:1;stroke-dasharray:none;stroke-dashoffset:0;marker:none;visibility:visible;display:inline;overflow:visible;enable-background:accumulate" id="rect5505-21-3" d="m 11.5,4.4999998 c 0,0 0,28.5091172 0,41.0000002 l -4,0 c -0.5708481,0 -1,-0.43395 -1,-1 l 0,-40.0000002 z"/><path id="path3893" d="m 7,5 0,40 33,0 1,0 0,-40 -1,0 z m 1,1 32,0 0,38 -32,0 z" style="opacity:.2;fill:url(#linearGradient3993);fill-opacity:1;stroke:none"/><g id="g4445" transform="translate(0,0.39699975)"><path id="path3663" d="m 25.939169,31.259301 -5.65624,-5.656702 5.65624,-5.6559 1.88557,1.885224 -3.77114,3.770676 1.88545,1.885567 5.65625,-5.655899 -4.92725,-4.927249 c -0.40235,-0.402691 -1.05496,-0.402691 -1.45765,0 l -7.96927,7.969274 c -0.40235,0.402347 -0.40235,1.054955 0,1.457645 l 7.96939,7.969045 c 0.40269,0.402691 1.0553,0.402691 1.45764,0 l 7.96939,-7.969045 c 0.40235,-0.40269 0.40235,-1.055298 0,-1.457645 l -1.15691,-1.156573 -7.54147,7.541582 z" style="opacity:.2;fill:#000"/><path style="fill:#fff;fill-opacity:1" id="path3284" d="m 25.939169,30.25957 -5.65624,-5.656702 5.65624,-5.6559 1.88557,1.885224 -3.77114,3.770676 1.88545,1.885567 5.65625,-5.655899 -4.92725,-4.927249 c -0.40235,-0.402691 -1.05496,-0.402691 -1.45765,0 l -7.96927,7.969274 c -0.40235,0.402347 -0.40235,1.054955 0,1.457645 l 7.96939,7.969045 c 0.40269,0.402691 1.0553,0.402691 1.45764,0 l 7.96939,-7.969045 c 0.40235,-0.40269 0.40235,-1.055298 0,-1.457645 l -1.15691,-1.156573 -7.54147,7.541582 z"/></g></svg>