<svg xmlns="http://www.w3.org/2000/svg" xmlns:svg="http://www.w3.org/2000/svg" xmlns:xlink="http://www.w3.org/1999/xlink" id="svg3759" width="48" height="48" version="1.1"><metadata id="metadata37"/><defs id="defs3761"><linearGradient id="linearGradient4140" x1="789" x2="827" y1="256" y2="256" gradientUnits="userSpaceOnUse" xlink:href="#linearGradient4134"/><linearGradient id="linearGradient4134"><stop id="stop4136" offset="0" style="stop-color:#fff;stop-opacity:1"/><stop id="stop4138" offset="1" style="stop-color:#fff;stop-opacity:0"/></linearGradient><clipPath id="clipPath4130" clipPathUnits="userSpaceOnUse"><path style="fill:#ba2222;fill-opacity:1;stroke:none" id="path4132" d="M 790.4375,237 C 789.62555,237 789,237.62555 789,238.4375 l 0,35.09375 c 0,0.812 0.62555,1.46875 1.4375,1.46875 l 35.125,0 c 0.81195,0 1.4375,-0.65675 1.4375,-1.46875 l 0,-35.09375 C 827,237.62555 826.37445,237 825.5625,237 l -35.125,0 z"/></clipPath><linearGradient id="linearGradient3877" x1="-1023.862" x2="-984.862" y1="-808" y2="-808" gradientTransform="matrix(0,-1,-1,0,-784,-980.3622)" gradientUnits="userSpaceOnUse" xlink:href="#linearGradient3988-5"/><linearGradient id="linearGradient3988-5"><stop id="stop3990-5" offset="0" style="stop-color:#ededed;stop-opacity:1"/><stop id="stop3992-0" offset="1" style="stop-color:#fafafa;stop-opacity:1"/></linearGradient><linearGradient id="linearGradient3960"><stop id="stop3962" offset="0" style="stop-color:#000;stop-opacity:0"/><stop style="stop-color:#000;stop-opacity:1" id="stop3970" offset=".5"/><stop id="stop3964" offset="1" style="stop-color:#000;stop-opacity:0"/></linearGradient><linearGradient id="linearGradient3952"><stop id="stop3954" offset="0" style="stop-color:#000;stop-opacity:1"/><stop id="stop3956" offset="1" style="stop-color:#000;stop-opacity:0"/></linearGradient><linearGradient id="linearGradient3944"><stop id="stop3946" offset="0" style="stop-color:#000;stop-opacity:1"/><stop id="stop3948" offset="1" style="stop-color:#000;stop-opacity:0"/></linearGradient><radialGradient id="radialGradient4202" cx="9" cy="43.5" r="2" fx="9" fy="43.5" gradientTransform="matrix(1.0571429,0,0,1.25,-4.4000003,-10.875)" gradientUnits="userSpaceOnUse" xlink:href="#linearGradient3944"/><radialGradient id="radialGradient4205" cx="40" cy="43.5" r="2" fx="40" fy="43.5" gradientTransform="matrix(1.0571429,0,0,1.25,0.6,-10.875)" gradientUnits="userSpaceOnUse" xlink:href="#linearGradient3952"/><linearGradient id="linearGradient4208" x1="25" x2="25" y1="45" y2="42" gradientTransform="matrix(1.0571429,0,0,1.6666667,-5.4000003,-29)" gradientUnits="userSpaceOnUse" xlink:href="#linearGradient3960"/><radialGradient id="radialGradient4211" cx="9" cy="43.5" r="2" fx="9" fy="43.5" gradientTransform="matrix(1,0,0,0.75,-3.0000003,10.875)" gradientUnits="userSpaceOnUse" xlink:href="#linearGradient3944"/><radialGradient id="radialGradient4214" cx="40" cy="43.5" r="2" fx="40" fy="43.5" gradientTransform="matrix(1,0,0,0.75,2,10.875)" gradientUnits="userSpaceOnUse" xlink:href="#linearGradient3952"/><linearGradient id="linearGradient4217" x1="25" x2="25" y1="45" y2="42" gradientTransform="translate(-4.0000003,0)" gradientUnits="userSpaceOnUse" xlink:href="#linearGradient3960"/><linearGradient id="linearGradient4671"><stop style="stop-color:#ffec3b;stop-opacity:1" id="stop4673" offset="0"/><stop style="stop-color:#ffe62e;stop-opacity:1" id="stop4675" offset="1"/></linearGradient><linearGradient id="linearGradient4689"><stop style="stop-color:#5a9fd4;stop-opacity:1" id="stop4691" offset="0"/><stop style="stop-color:#306998;stop-opacity:1" id="stop4693" offset="1"/></linearGradient><linearGradient id="linearGradient4403" x1="307" x2="307" y1="231" y2="273" gradientTransform="matrix(0.875,0,0,0.875,-309.36723,-196.5)" gradientUnits="userSpaceOnUse" xlink:href="#linearGradient4689"/><linearGradient id="linearGradient4405" x1="349" x2="349" y1="232" y2="273" gradientTransform="matrix(0.875,0,0,0.875,-262,-196.5)" gradientUnits="userSpaceOnUse" xlink:href="#linearGradient4671"/></defs><g id="layer1"><path style="opacity:.12000002;fill:url(#radialGradient4205);fill-opacity:1;stroke:none" id="path3987" d="m 42.885716,41.000001 0,5 0.528571,0 c 0.878486,0 1.585715,-1.115 1.585715,-2.5 0,-1.385 -0.707229,-2.5 -1.585715,-2.5 l -0.528571,0 z"/><path id="rect3940" d="m 42,42 0,3 0.5,0 C 43.331,45 44,44.331 44,43.5 44,42.669 43.331,42 42.5,42 L 42,42 z" style="opacity:.12000002;fill:url(#radialGradient4214);fill-opacity:1;stroke:none"/><path style="opacity:.12000002;fill:url(#radialGradient4202);fill-opacity:1;stroke:none" id="path3989" d="M 4.4866072,41.000001 C 3.6630268,41.000001 3,42.045313 3,43.343751 l 0,0.3125 c 0,1.298439 0.6630268,2.34375 1.4866072,2.34375 l 0.6276786,0 0,-5 -0.6276786,0 z"/><path id="rect3942" d="m 5.4062497,42 c -0.7790625,0 -1.40625,0.627187 -1.40625,1.40625 l 0,0.1875 c 0,0.779063 0.6271875,1.40625 1.40625,1.40625 l 0.59375,0 0,-3 -0.59375,0 z" style="opacity:.12000002;fill:url(#radialGradient4211);fill-opacity:1;stroke:none"/><path id="rect3985" d="m 5.1141432,41 37.7717148,0 0,5 -37.7717148,0 z" style="opacity:.12000002;fill:url(#linearGradient4208);fill-opacity:1;stroke:none"/><path id="rect3938" d="m 5.9998568,42 36.0002842,0 0,3 -36.0002842,0 z" style="opacity:.12000002;fill:url(#linearGradient4217);fill-opacity:1;stroke:none"/><path id="rect4073" d="M 6.4375 5 C 5.625551 5 5 5.6255532 5 6.4375 L 5 41.5625 C 5 42.374447 5.625551 43 6.4375 43 L 41.5625 43 C 42.374449 43 43 42.374447 43 41.5625 L 43 6.4375 C 43 5.6255532 42.374449 5 41.5625 5 L 6.4375 5 z" style="fill:url(#linearGradient3877);fill-opacity:1;stroke:none;display:inline"/><rect id="rect4085" width="39" height="39" x="-43.5" y="-43.5" rx="1.95" ry="1.95" transform="matrix(0,-1,-1,0,0,0)" style="opacity:.41;fill:none;stroke:#000;stroke-opacity:1;display:inline"/><path id="rect4089-4" d="M 6.4375,5.00002 C 5.62555,5.00002 5,5.62557 5,6.43752 l 0,1 C 5,6.62557 5.62555,6.00002 6.4375,6.00002 l 35.125,0 c 0.81195,0 1.4375,0.62555 1.4375,1.4375 l 0,-1 c 0,-0.81195 -0.62555,-1.4375 -1.4375,-1.4375 l -35.125,0 z" style="opacity:.14999999999999999;fill:#fff;fill-opacity:1;stroke:none;display:inline"/><path id="path4128" d="M 790.4375,237 C 789.62555,237 789,237.62555 789,238.4375 l 0,35.09375 c 0,0.812 0.62555,1.46875 1.4375,1.46875 l 35.125,0 c 0.81195,0 1.4375,-0.65675 1.4375,-1.46875 l 0,-35.09375 C 827,237.62555 826.37445,237 825.5625,237 l -35.125,0 z" clip-path="url(#clipPath4130)" transform="matrix(0,1,-1,0,280,-784)" style="opacity:.10000000000000001;fill:none;stroke:url(#linearGradient4140);stroke-width:2;stroke-miterlimit:4;stroke-opacity:1;stroke-dasharray:none;display:inline"/><path style="opacity:.10000000000000001;fill:#fff;fill-opacity:1;stroke:none;display:inline" id="path4105" d="M 6.4375,43.000017 C 5.62555,43.000017 5,42.374417 5,41.562517 L 5,40.56252 c 0,0.811897 0.62555,1.437497 1.4375,1.437497 l 35.125,0 c 0.81195,0 1.4375,-0.6256 1.4375,-1.437497 l 0,0.999997 c 0,0.8119 -0.62555,1.4375 -1.4375,1.4375 l -35.125,0 z"/></g><g id="layer2"><g id="g4394" transform="translate(46.417226,0)"><path id="path9194" d="m -23.242226,10.499999 c -1.6008,0 -3.0225,0.46694 -4.0312,1.1875 -1.0089,0.72056 -1.5938,1.66347 -1.5938,2.6875 l 0,2.125 4.75,0 0,1 -5.25,0 -0.5,0 -2.125,0 c -1.0241,0 -1.9669,0.55371 -2.6875,1.5625 -0.7206,1.00879 -1.1875,2.46171 -1.1875,4.0625 l 0,1.75 c 0,1.60079 0.4669,3.02246 1.1875,4.03125 0.7206,1.00879 1.6634,1.59375 2.6875,1.59375 l 2.125,0 0,-3 c 0,-2.20735 1.7926,-4 4,-4 l 7,0 c 0,0 0.7756,-0.02838 1.5312,-0.40625 0.7559,-0.37787 1.4688,-1.01042 1.4688,-2.59375 l 0,-3.5 0,-2.625 c 0,-1.02403 -0.5849,-1.96693 -1.5938,-2.6875 -1.0086,-0.72057 -2.4304,-1.1875 -4.0312,-1.1875 l -1.75,0 z" clip-path="none" style="color:#000;fill:url(#linearGradient4403);fill-opacity:1;fill-rule:nonzero;stroke:none;stroke-width:2;marker:none;visibility:visible;display:inline;overflow:visible;enable-background:accumulate"/><path style="color:#000;fill:#fff;fill-opacity:1;stroke:none;stroke-width:1;marker:none;visibility:visible;display:inline;overflow:visible;enable-background:accumulate" id="path9206" d="m 327,244.5 c 0,0.82843 -0.67157,1.5 -1.5,1.5 -0.82843,0 -1.5,-0.67157 -1.5,-1.5 0,-0.82843 0.67157,-1.5 1.5,-1.5 0.82843,0 1.5,0.67157 1.5,1.5 z" transform="matrix(0.875,0,0,0.875,-309.36723,-200)"/><path style="opacity:.61000001;color:#000;fill:none;stroke:#043683;stroke-width:1;stroke-miterlimit:4;stroke-opacity:1;stroke-dasharray:none;marker:none;visibility:visible;display:inline;overflow:visible;enable-background:accumulate" id="path7034" d="m -23.242226,10.499999 c -1.6008,0 -3.0225,0.46694 -4.0312,1.1875 -1.0089,0.72056 -1.5938,1.66347 -1.5938,2.6875 l 0,2.125 4.75,0 0,1 -5.25,0 -0.5,0 -2.125,0 c -1.0241,0 -1.9669,0.55371 -2.6875,1.5625 -0.7206,1.00879 -1.1875,2.46171 -1.1875,4.0625 l 0,1.75 c 0,1.60079 0.4669,3.02246 1.1875,4.03125 0.7206,1.00879 1.6634,1.59375 2.6875,1.59375 l 2.125,0 0,-3 c 0,-2.20735 1.7926,-4 4,-4 l 7,0 c 0,0 0.7756,-0.02838 1.5312,-0.40625 0.7559,-0.37787 1.4688,-1.01042 1.4688,-2.59375 l 0,-3.5 0,-2.625 c 0,-1.02403 -0.5849,-1.96693 -1.5938,-2.6875 -1.0086,-0.72057 -2.4304,-1.1875 -4.0312,-1.1875 l -1.75,0 z" clip-path="none"/><g id="g3171" transform="translate(-47.467226,-0.100001)"><path style="color:#000;fill:url(#linearGradient4405);fill-opacity:1;fill-rule:nonzero;stroke:none;stroke-width:2;marker:none;visibility:visible;display:inline;overflow:visible;enable-background:accumulate" id="path9196" d="m 32.5,17.5 0,3 c 0,2.20735 -1.7926,4 -4,4 l -7,0 c 0,0 -0.7756,-0.0029 -1.5312,0.375 C 19.2129,25.25287 18.5,25.91667 18.5,27.5 l 0,3.5 0,2.625 c 0,1.02403 0.5849,1.96693 1.5938,2.6875 1.0086,0.72057 2.4304,1.1875 4.0312,1.1875 l 1.75,0 c 1.6008,0 3.0225,-0.46694 4.0312,-1.1875 C 30.9151,35.59194 31.5,34.64903 31.5,33.625 l 0,-2.125 -4.75,0 0,-1 5.25,0 0.5,0 2.125,0 c 1.0241,0 1.9669,-0.58496 2.6875,-1.59375 C 38.0331,27.89746 38.5,26.47579 38.5,24.875 l 0,-1.75 c 0,-1.60079 -0.4669,-3.05371 -1.1875,-4.0625 C 36.5919,18.05371 35.6491,17.5 34.625,17.5 l -2.125,0 z"/><path style="color:#000;fill:#fff;fill-opacity:1;stroke:none;stroke-width:1;marker:none;visibility:visible;display:inline;overflow:visible;enable-background:accumulate" id="path9208" d="m 327,244.5 c 0,0.82843 -0.67157,1.5 -1.5,1.5 -0.82843,0 -1.5,-0.67157 -1.5,-1.5 0,-0.82843 0.67157,-1.5 1.5,-1.5 0.82843,0 1.5,0.67157 1.5,1.5 z" transform="matrix(0.875,0,0,0.875,-257.625,-179.875)"/><path id="path7036" d="m 32.5,17.5 0,3 c 0,2.20735 -1.7926,4 -4,4 l -7,0 c 0,0 -0.7756,-0.0029 -1.5312,0.375 C 19.2129,25.25287 18.5,25.91667 18.5,27.5 l 0,3.5 0,2.625 c 0,1.02403 0.5849,1.96693 1.5938,2.6875 1.0086,0.72057 2.4304,1.1875 4.0312,1.1875 l 1.75,0 c 1.6008,0 3.0225,-0.46694 4.0312,-1.1875 C 30.9151,35.59194 31.5,34.64903 31.5,33.625 l 0,-2.125 -4.75,0 0,-1 5.25,0 0.5,0 2.125,0 c 1.0241,0 1.9669,-0.58496 2.6875,-1.59375 C 38.0331,27.89746 38.5,26.47579 38.5,24.875 l 0,-1.75 c 0,-1.60079 -0.4669,-3.05371 -1.1875,-4.0625 C 36.5919,18.05371 35.6491,17.5 34.625,17.5 l -2.125,0 z" style="opacity:.61000001;color:#000;fill:none;stroke:#766e00;stroke-width:1;stroke-miterlimit:4;stroke-opacity:1;stroke-dasharray:none;marker:none;visibility:visible;display:inline;overflow:visible;enable-background:accumulate"/></g></g></g></svg>