<svg xmlns="http://www.w3.org/2000/svg" xmlns:svg="http://www.w3.org/2000/svg" xmlns:xlink="http://www.w3.org/1999/xlink" id="svg3759" width="48" height="48" version="1.1"><metadata id="metadata37"/><defs id="defs3761"><linearGradient id="linearGradient3865"><stop id="stop3867" offset="0" style="stop-color:#fff;stop-opacity:1"/><stop id="stop3869" offset="1" style="stop-color:#fff;stop-opacity:0"/></linearGradient><linearGradient id="linearGradient3914"><stop id="stop3916" offset="0" style="stop-color:#fff;stop-opacity:1"/><stop id="stop3918" offset="1" style="stop-color:#fff;stop-opacity:0"/></linearGradient><linearGradient id="linearGradient3960"><stop id="stop3962" offset="0" style="stop-color:#000;stop-opacity:0"/><stop style="stop-color:#000;stop-opacity:1" id="stop3970" offset=".5"/><stop id="stop3964" offset="1" style="stop-color:#000;stop-opacity:0"/></linearGradient><linearGradient id="linearGradient3952"><stop id="stop3954" offset="0" style="stop-color:#000;stop-opacity:1"/><stop id="stop3956" offset="1" style="stop-color:#000;stop-opacity:0"/></linearGradient><linearGradient id="linearGradient3944"><stop id="stop3946" offset="0" style="stop-color:#000;stop-opacity:1"/><stop id="stop3948" offset="1" style="stop-color:#000;stop-opacity:0"/></linearGradient><linearGradient id="linearGradient3142" x1="144" x2="144" y1="280" y2="40" gradientTransform="matrix(-0.18046875,0,0,0.17948718,49.987521,-5.7308027)" gradientUnits="userSpaceOnUse" xlink:href="#outerBackgroundGradient-3"/><linearGradient id="linearGradient3920" x1="24" x2="24" y1="0" y2="48" gradientUnits="userSpaceOnUse" xlink:href="#linearGradient3914"/><radialGradient id="radialGradient3925" cx="9" cy="43.5" r="2" fx="9" fy="43.5" gradientTransform="matrix(1,0,0,0.75,-1.0000003,10.875)" gradientUnits="userSpaceOnUse" xlink:href="#linearGradient3944"/><radialGradient id="radialGradient3928" cx="40" cy="43.5" r="2" fx="40" fy="43.5" gradientTransform="matrix(1,0,0,0.75,-3e-7,10.875)" gradientUnits="userSpaceOnUse" xlink:href="#linearGradient3952"/><linearGradient id="linearGradient3931" x1="25" x2="25" y1="45" y2="42" gradientTransform="matrix(1.0305144,0,0,1,-1.2476025,0)" gradientUnits="userSpaceOnUse" xlink:href="#linearGradient3960"/><radialGradient id="radialGradient3934" cx="9" cy="43.5" r="2" fx="9" fy="43.5" gradientTransform="matrix(1.0571429,0,0,1.25,-2.4000003,-10.875)" gradientUnits="userSpaceOnUse" xlink:href="#linearGradient3944"/><radialGradient id="radialGradient3937" cx="40" cy="43.5" r="2" fx="40" fy="43.5" gradientTransform="matrix(1.0571429,0,0,1.25,-1.4000003,-10.875)" gradientUnits="userSpaceOnUse" xlink:href="#linearGradient3952"/><linearGradient id="linearGradient3940" x1="25" x2="25" y1="45" y2="42" gradientTransform="matrix(1.0894009,0,0,1.6666667,-2.6903226,-29)" gradientUnits="userSpaceOnUse" xlink:href="#linearGradient3960"/><linearGradient id="outerBackgroundGradient-3"><stop id="stop3864-8-6-9" offset="0" style="stop-color:#389fca;stop-opacity:1"/><stop id="stop3866-9-1-9" offset="1" style="stop-color:#36acf4;stop-opacity:1"/></linearGradient><radialGradient id="radialGradient3871" cx="24" cy="24" r="16" fx="24" fy="24" gradientTransform="matrix(2,0,0,2,-24,-24)" gradientUnits="userSpaceOnUse" xlink:href="#linearGradient3865"/></defs><g id="layer1"><g id="g3942"><rect id="rect3985" width="33.771" height="5" x="7.114" y="41" style="opacity:.12000002;fill:url(#linearGradient3940);fill-opacity:1;stroke:none"/><path id="path3987" d="m 40.885716,41.000001 0,5 0.528571,0 c 0.878486,0 1.585715,-1.115 1.585715,-2.5 0,-1.385 -0.707229,-2.5 -1.585715,-2.5 l -0.528571,0 z" style="opacity:.12000002;fill:url(#radialGradient3937);fill-opacity:1;stroke:none"/><path id="path3989" d="M 6.4866072,41.000001 C 5.6630268,41.000001 5,42.045313 5,43.343751 l 0,0.3125 c 0,1.298439 0.6630268,2.34375 1.4866072,2.34375 l 0.6276786,0 0,-5 -0.6276786,0 z" style="opacity:.12000002;fill:url(#radialGradient3934);fill-opacity:1;stroke:none"/><rect style="opacity:.12000002;fill:url(#linearGradient3931);fill-opacity:1;stroke:none" id="rect3938" width="31.946" height="3" x="8.027" y="42"/><path style="opacity:.12000002;fill:url(#radialGradient3928);fill-opacity:1;stroke:none" id="rect3940" d="m 40,42 0,3 0.5,0 C 41.331,45 42,44.331 42,43.5 42,42.669 41.331,42 40.5,42 L 40,42 z"/><path style="opacity:.12000002;fill:url(#radialGradient3925);fill-opacity:1;stroke:none" id="rect3942" d="m 7.4062497,42 c -0.7790625,0 -1.40625,0.627187 -1.40625,1.40625 l 0,0.1875 c 0,0.779063 0.6271875,1.40625 1.40625,1.40625 l 0.59375,0 0,-3 -0.59375,0 z"/></g><path id="rect3882" d="m 40.5,3.5 -33,0 0,40 33,0 z" style="color:#bebebe;fill:url(#linearGradient3142);fill-opacity:1;fill-rule:nonzero;stroke:none;stroke-width:0;marker:none;visibility:visible;display:inline;overflow:visible;enable-background:accumulate"/><path style="opacity:.2;fill:url(#linearGradient3920);fill-opacity:1;stroke:none" id="path3893" d="M 40,4 8,4 8,43 40,43 z M 39,5 39,42 9,42 9,5 z"/><rect id="rect3144" width="32" height="1" x="8" y="4" style="opacity:.2;fill:#fff;fill-opacity:1;stroke:none;stroke-width:1;stroke-linecap:square;stroke-miterlimit:4;stroke-opacity:1;stroke-dasharray:none"/><rect style="opacity:.1;fill:#fff;fill-opacity:1;stroke:none" id="rect3922" width="32" height="1" x="8" y="42"/><path style="color:#bebebe;fill:none;fill-opacity:1;fill-rule:nonzero;stroke:#2d6493;stroke-width:1;marker:none;visibility:visible;display:inline;overflow:visible;enable-background:accumulate;stroke-opacity:1;stroke-miterlimit:4;stroke-dasharray:none;opacity:.81" id="path4870" d="m 40.5,3.5 -33,0 0,40 33,0 z"/><path id="rect3813" d="m 10,4 0,3 -2,0 0,1 2,0 0,3 -2,0 0,1 2,0 0,3 -2,0 0,1 2,0 0,3 -2,0 0,1 2,0 0,3 -2,0 0,1 2,0 0,3 -2,0 0,1 2,0 0,3 -2,0 0,1 2,0 0,3 -2,0 0,1 2,0 0,3 -2,0 0,1 2,0 0,4 1,0 0,-4 3,0 0,4 1,0 0,-4 3,0 0,4 1,0 0,-4 3,0 0,4 1,0 0,-4 3,0 0,4 1,0 0,-4 3,0 0,4 1,0 0,-4 3,0 0,4 1,0 0,-4 3,0 0,4 1,0 0,-4 1,0 0,-1 -1,0 0,-3 1,0 0,-1 -1,0 0,-3 1,0 0,-1 -1,0 0,-3 1,0 0,-1 -1,0 0,-3 1,0 0,-1 -1,0 0,-3 1,0 0,-1 -1,0 0,-3 1,0 0,-1 -1,0 0,-3 1,0 0,-1 -1,0 0,-3 1,0 0,-1 -1,0 0,-3 -1,0 0,3 -3,0 0,-3 -1,0 0,3 -3,0 0,-3 -1,0 0,3 -3,0 0,-3 -1,0 0,3 -3,0 0,-3 -1,0 0,3 -3,0 0,-3 -1,0 0,3 -3,0 0,-3 -1,0 0,3 -3,0 0,-3 z m 1,4 3,0 0,3 -3,0 z m 4,0 3,0 0,3 -3,0 z m 4,0 3,0 0,3 -3,0 z m 4,0 3,0 0,3 -3,0 z m 4,0 3,0 0,3 -3,0 z m 4,0 3,0 0,3 -3,0 z m 4,0 3,0 0,3 -3,0 z m -24,4 3,0 0,3 -3,0 z m 4,0 3,0 0,3 -3,0 z m 4,0 3,0 0,3 -3,0 z m 4,0 3,0 0,3 -3,0 z m 4,0 3,0 0,3 -3,0 z m 4,0 3,0 0,3 -3,0 z m 4,0 3,0 0,3 -3,0 z m -24,4 3,0 0,3 -3,0 z m 4,0 3,0 0,3 -3,0 z m 4,0 3,0 0,3 -3,0 z m 4,0 3,0 0,3 -3,0 z m 4,0 3,0 0,3 -3,0 z m 4,0 3,0 0,3 -3,0 z m 4,0 3,0 0,3 -3,0 z m -24,4 3,0 0,3 -3,0 z m 4,0 3,0 0,3 -3,0 z m 4,0 3,0 0,3 -3,0 z m 4,0 3,0 0,3 -3,0 z m 4,0 3,0 0,3 -3,0 z m 4,0 3,0 0,3 -3,0 z m 4,0 3,0 0,3 -3,0 z m -24,4 3,0 0,3 -3,0 z m 4,0 3,0 0,3 -3,0 z m 4,0 3,0 0,3 -3,0 z m 4,0 3,0 0,3 -3,0 z m 4,0 3,0 0,3 -3,0 z m 4,0 3,0 0,3 -3,0 z m 4,0 3,0 0,3 -3,0 z m -24,4 3,0 0,3 -3,0 z m 4,0 3,0 0,3 -3,0 z m 4,0 3,0 0,3 -3,0 z m 4,0 3,0 0,3 -3,0 z m 4,0 3,0 0,3 -3,0 z m 4,0 3,0 0,3 -3,0 z m 4,0 3,0 0,3 -3,0 z m -24,4 3,0 0,3 -3,0 z m 4,0 3,0 0,3 -3,0 z m 4,0 3,0 0,3 -3,0 z m 4,0 3,0 0,3 -3,0 z m 4,0 3,0 0,3 -3,0 z m 4,0 3,0 0,3 -3,0 z m 4,0 3,0 0,3 -3,0 z m -24,4 3,0 0,3 -3,0 z m 4,0 3,0 0,3 -3,0 z m 4,0 3,0 0,3 -3,0 z m 4,0 3,0 0,3 -3,0 z m 4,0 3,0 0,3 -3,0 z m 4,0 3,0 0,3 -3,0 z m 4,0 3,0 0,3 -3,0 z" style="opacity:.20000000000000001;fill:url(#radialGradient3871);fill-opacity:1;stroke:none"/></g><g id="layer2"><text id="context" x="81.303" y="-103.852" xml:space="preserve" style="font-size:18px;font-style:normal;font-variant:normal;font-weight:400;font-stretch:normal;fill:#000;fill-opacity:1;stroke:none;display:none;enable-background:new;font-family:DejaVu Sans;-inkscape-font-specification:DejaVu Sans"><tspan id="tspan3933" x="81.303" y="-103.852" style="font-style:normal;font-variant:normal;font-weight:400;font-stretch:normal;font-family:DejaVu Sans;-inkscape-font-specification:DejaVu Sans">apps</tspan></text><text id="icon-name" x="188.784" y="-103.852" xml:space="preserve" style="font-size:18px;font-style:normal;font-variant:normal;font-weight:700;font-stretch:normal;text-align:start;line-height:125%;writing-mode:lr-tb;text-anchor:start;fill:#000;fill-opacity:1;stroke:none;display:none;enable-background:new;font-family:DejaVu Sans;-inkscape-font-specification:DejaVu Sans Bold"><tspan id="tspan3937" x="188.784" y="-103.852" style="font-size:18px;font-style:normal;font-variant:normal;font-weight:700;font-stretch:normal;font-family:DejaVu Sans;-inkscape-font-specification:DejaVu Sans Bold">sketchup</tspan></text><rect id="rect16x16" width="16" height="16" x="482.296" y="16.403" style="fill:#eeeeec;fill-opacity:1;fill-rule:nonzero;stroke:none;stroke-width:2;marker:none;visibility:visible;display:none;overflow:visible;enable-background:accumulate"/><rect id="rect24x24" width="24" height="24" x="482.296" y="-23.597" style="fill:#d4d4d4;fill-opacity:1;fill-rule:nonzero;stroke:none;stroke-width:2;marker:none;visibility:visible;display:none;overflow:visible;enable-background:accumulate"/><rect id="rect32x32" width="32" height="32" x="482.296" y="-71.597" style="fill:#eeeeec;fill-opacity:1;fill-rule:nonzero;stroke:none;stroke-width:2;marker:none;visibility:visible;display:none;overflow:visible;enable-background:accumulate"/><rect style="fill:#eeeeec;fill-opacity:1;fill-rule:nonzero;stroke:none;stroke-width:2;marker:none;visibility:visible;display:none;overflow:visible;enable-background:accumulate" id="rect22x22" width="22" height="22" x="483.296" y="-22.597"/><rect style="fill:#eeeeec;fill-opacity:1;fill-rule:nonzero;stroke:none;stroke-width:2;marker:none;visibility:visible;display:none;overflow:visible;enable-background:accumulate" id="rect48x48" width="48" height="48" x="354.296" y="96.403"/><rect id="rect256x256" width="256" height="256" x="82.296" y="-95.597" style="fill:#eeeeec;fill-opacity:1;fill-rule:nonzero;stroke:none;stroke-width:2;marker:none;visibility:visible;display:none;overflow:visible;enable-background:accumulate"/><rect id="rect64x64" width="64" height="64" x="354.296" y="16.403" style="fill:#eeeeec;fill-opacity:1;fill-rule:nonzero;stroke:none;stroke-width:2;marker:none;visibility:visible;display:none;overflow:visible;enable-background:accumulate"/><rect id="rect96x96" width="96" height="96" x="354.296" y="-95.597" style="fill:#eeeeec;fill-opacity:1;fill-rule:nonzero;stroke:none;stroke-width:2;marker:none;visibility:visible;display:none;overflow:visible;enable-background:accumulate"/><g id="g5126"><path id="path4344" d="M 27.168752,16.094683 15,17.639963 15.869387,19.558976 24.679873,18.254895 27.865854,21.53895 33,20.637754 27.168752,16.094683 z m -2.385508,5.802094 -8.381095,1.426005 0.816377,2.144308 4.558975,-0.861435 1.168901,2.022383 4.829329,-1.041672 -2.992487,-3.689589 z m -2.743341,6.777495 -4.145484,0.909148 0.79517,2.321897 4.474157,-1.131795 -1.123843,-2.09925 z" style="opacity:.2;fill:#000;fill-opacity:0;stroke:#fff;stroke-width:1;stroke-miterlimit:4;stroke-opacity:1;stroke-dasharray:none;display:inline;enable-background:new"/><path style="fill:#fff;fill-opacity:1;stroke:none;display:inline;enable-background:new" id="path14126-7" d="M 27.168752,16.094683 15,17.639963 15.869387,19.558976 24.679873,18.254895 27.865854,21.53895 33,20.637754 27.168752,16.094683 z m -2.385508,5.802094 -8.381095,1.426005 0.816377,2.144308 4.558975,-0.861435 1.168901,2.022383 4.829329,-1.041672 -2.992487,-3.689589 z m -2.743341,6.777495 -4.145484,0.909148 0.79517,2.321897 4.474157,-1.131795 -1.123843,-2.09925 z"/></g></g></svg>