<svg xmlns="http://www.w3.org/2000/svg" xmlns:svg="http://www.w3.org/2000/svg" xmlns:xlink="http://www.w3.org/1999/xlink" id="svg2436" width="48" height="48" version="1.1"><defs id="defs2438"><linearGradient id="linearGradient3991" x1="328" x2="328" y1="243" y2="255" gradientUnits="userSpaceOnUse" xlink:href="#linearGradient11342"/><linearGradient id="linearGradient11342"><stop id="stop11344" offset="0" style="stop-color:#fff;stop-opacity:1"/><stop id="stop11346" offset="1" style="stop-color:#fff;stop-opacity:0"/></linearGradient><clipPath id="clipPath3995" clipPathUnits="userSpaceOnUse"><path id="path3997" d="m 306,242.09347 1,27 c 0.0463,0.49158 0.50624,0.90838 1,0.90625 l 40,0 c 0.49376,0.002 0.95367,-0.41467 1,-0.90625 l 1,-27 c 0.0521,-0.5539 -0.44366,-1.09614 -1,-1.09375 l -42,0 c -0.60937,0 -1.0514,0.56975 -1,1.09375 z" style="font-size:medium;font-style:normal;font-variant:normal;font-weight:400;font-stretch:normal;text-indent:0;text-align:start;text-decoration:none;line-height:normal;letter-spacing:normal;word-spacing:normal;text-transform:none;direction:ltr;block-progression:tb;writing-mode:lr-tb;text-anchor:start;baseline-shift:baseline;color:#000;fill:url(#linearGradient3999);fill-opacity:1;fill-rule:nonzero;stroke:none;stroke-width:2;marker:none;visibility:visible;display:inline;overflow:visible;enable-background:accumulate;font-family:Sans;-inkscape-font-specification:Sans"/></clipPath><linearGradient id="linearGradient5271" x1="352" x2="352" y1="228" y2="276" gradientTransform="translate(-304,-227.99973)" gradientUnits="userSpaceOnUse" xlink:href="#linearGradient4968"/><linearGradient id="linearGradient4968"><stop style="stop-color:#f1e6f4;stop-opacity:1" id="stop4970" offset="0"/><stop id="stop4972" offset="1" style="stop-color:#c9bcce;stop-opacity:1"/></linearGradient><linearGradient id="linearGradient5274" x1="328" x2="328" y1="240" y2="260" gradientTransform="translate(-304,-236.00001)" gradientUnits="userSpaceOnUse" xlink:href="#linearGradient11359"/><linearGradient id="linearGradient11359"><stop id="stop11361" offset="0" style="stop-color:#d5cbd7;stop-opacity:1"/><stop id="stop11363" offset="1" style="stop-color:#d9bfdf;stop-opacity:1"/></linearGradient></defs><metadata id="metadata2441"/><path style="font-size:medium;font-style:normal;font-variant:normal;font-weight:400;font-stretch:normal;text-indent:0;text-align:start;text-decoration:none;line-height:normal;letter-spacing:normal;word-spacing:normal;text-transform:none;direction:ltr;block-progression:tb;writing-mode:lr-tb;text-anchor:start;baseline-shift:baseline;opacity:.2;color:#000;fill:#000;fill-opacity:1;fill-rule:nonzero;stroke:none;stroke-width:2;marker:none;visibility:visible;display:inline;overflow:visible;enable-background:accumulate;font-family:Sans;-inkscape-font-specification:Sans" id="path13868" d="m 3,16.500045 c -0.29771,0 -0.52077,0.31947 -0.5,0.53125 l 0,0.0312 1,24.96875 c 0.0198,0.21007 0.28895,0.46966 0.5,0.46875 l 40,0 c 0.21122,8.6e-4 0.4802,-0.25864 0.5,-0.46875 l 1,-24.96875 0,-0.0312 c 0.0216,-0.22918 -0.26981,-0.53224 -0.5,-0.53125 l -42,0 z"/><path id="rect11352" d="m 5,4.499995 c -0.28565,0 -0.5,0.21435 -0.5,0.5 l 0,18 c 0,0.28565 0.21435,0.5 0.5,0.5 l 38,0 c 0.28565,0 0.5,-0.21435 0.5,-0.5 l 0,-14 c 0,-0.28565 -0.21435,-0.5 -0.5,-0.5 l -15,0 c -2.16667,0 -3.34375,-1.15625 -4.34375,-2.15625 -1,-1 -1.82292,-1.84375 -3.65625,-1.84375 l -15,0 z" style="color:#000;fill:url(#linearGradient5274);fill-opacity:1;stroke:none;stroke-width:4;marker:none;visibility:visible;display:inline;overflow:visible;enable-background:accumulate"/><path style="color:#000;fill:none;fill-opacity:1;stroke:#000;stroke-width:1;marker:none;visibility:visible;display:inline;overflow:visible;enable-background:accumulate;stroke-opacity:1;stroke-miterlimit:4;stroke-dasharray:none;opacity:.41" id="path3787" d="m 5,4.499995 c -0.28565,0 -0.5,0.21435 -0.5,0.5 l 0,18 c 0,0.28565 0.21435,0.5 0.5,0.5 l 38,0 c 0.28565,0 0.5,-0.21435 0.5,-0.5 l 0,-14 c 0,-0.28565 -0.21435,-0.5 -0.5,-0.5 l -15,0 c -2.16667,0 -3.34375,-1.15625 -4.34375,-2.15625 -1,-1 -1.82292,-1.84375 -3.65625,-1.84375 l -15,0 z"/><path id="path10548" d="m 2.99995,13.499995 c -0.29771,0 -0.52077,0.31947 -0.5,0.53125 l 0,0.0312 L 3.5,41.031195 c 0.0198,0.21007 0.28895,0.46966 0.5,0.46875 l 40,0 c 0.21122,8.6e-4 0.4802,-0.25864 0.5,-0.46875 l 0.99995,-26.96875 0,-0.0312 c 0.0216,-0.22918 -0.26981,-0.53224 -0.5,-0.53125 z" style="font-size:medium;font-style:normal;font-variant:normal;font-weight:400;font-stretch:normal;text-indent:0;text-align:start;text-decoration:none;line-height:normal;letter-spacing:normal;word-spacing:normal;text-transform:none;direction:ltr;block-progression:tb;writing-mode:lr-tb;text-anchor:start;baseline-shift:baseline;color:#000;fill:url(#linearGradient5271);fill-opacity:1;fill-rule:nonzero;stroke:none;stroke-width:2;marker:none;visibility:visible;display:inline;overflow:visible;enable-background:accumulate;font-family:Sans;-inkscape-font-specification:Sans"/><path style="font-size:medium;font-style:normal;font-variant:normal;font-weight:400;font-stretch:normal;text-indent:0;text-align:start;text-decoration:none;line-height:normal;letter-spacing:normal;word-spacing:normal;text-transform:none;direction:ltr;block-progression:tb;writing-mode:lr-tb;text-anchor:start;baseline-shift:baseline;color:#000;fill:none;stroke:none;stroke-width:2;marker:none;visibility:visible;display:inline;overflow:visible;enable-background:accumulate;font-family:Sans;-inkscape-font-specification:Sans" id="path11392" d="M 2.90625,14.999995 C 2.38183,15.046895 1.9486,15.569745 2,16.093745 l 1,23.90625 c 0.0463,0.49158 0.50624,0.90838 1,0.90625 l 40,0 c 0.49376,0.002 0.95367,-0.41467 1,-0.90625 l 1,-23.90625 c 0.0521,-0.5539 -0.44366,-1.09614 -1,-1.09375 l -42,0 c -0.0312,-10e-4 -0.0625,-10e-4 -0.0937,0 z"/><path id="path11814" d="m 306,242.09347 1,27 c 0.0463,0.49158 0.50624,0.90838 1,0.90625 l 40,0 c 0.49376,0.002 0.95367,-0.41467 1,-0.90625 l 1,-27 c 0.0521,-0.5539 -0.44366,-1.09614 -1,-1.09375 l -42,0 c -0.60937,0 -1.0514,0.56975 -1,1.09375 z" clip-path="url(#clipPath3995)" transform="translate(-304,-227.99973)" style="font-size:medium;font-style:normal;font-variant:normal;font-weight:400;font-stretch:normal;text-indent:0;text-align:start;text-decoration:none;line-height:normal;letter-spacing:normal;word-spacing:normal;text-transform:none;direction:ltr;block-progression:tb;writing-mode:lr-tb;text-anchor:start;baseline-shift:baseline;opacity:.2;color:#000;fill:none;stroke:url(#linearGradient3991);stroke-width:4;stroke-miterlimit:4;stroke-opacity:1;stroke-dasharray:none;marker:none;visibility:visible;display:inline;overflow:visible;enable-background:accumulate;font-family:Sans;-inkscape-font-specification:Sans"/><path style="font-size:medium;font-style:normal;font-variant:normal;font-weight:400;font-stretch:normal;text-indent:0;text-align:start;text-decoration:none;line-height:normal;letter-spacing:normal;word-spacing:normal;text-transform:none;direction:ltr;block-progression:tb;writing-mode:lr-tb;text-anchor:start;baseline-shift:baseline;color:#000;fill:none;fill-opacity:1;fill-rule:nonzero;stroke:#000;stroke-width:1;marker:none;visibility:visible;display:inline;overflow:visible;enable-background:accumulate;font-family:Sans;-inkscape-font-specification:Sans;stroke-opacity:1;stroke-miterlimit:4;stroke-dasharray:none;opacity:.41" id="path3789" d="m 2.99995,13.499995 c -0.29771,0 -0.52077,0.31947 -0.5,0.53125 l 0,0.0312 L 3.5,41.031195 c 0.0198,0.21007 0.28895,0.46966 0.5,0.46875 l 40,0 c 0.21122,8.6e-4 0.4802,-0.25864 0.5,-0.46875 l 0.99995,-26.96875 0,-0.0312 c 0.0216,-0.22918 -0.26981,-0.53224 -0.5,-0.53125 z"/></svg>