<svg xmlns="http://www.w3.org/2000/svg" xmlns:svg="http://www.w3.org/2000/svg" xmlns:xlink="http://www.w3.org/1999/xlink" id="svg3759" width="48" height="48" version="1.1"><metadata id="metadata37"/><defs id="defs3761"><linearGradient id="linearGradient3960"><stop id="stop3962" offset="0" style="stop-color:#000;stop-opacity:0"/><stop style="stop-color:#000;stop-opacity:1" id="stop3970" offset=".5"/><stop id="stop3964" offset="1" style="stop-color:#000;stop-opacity:0"/></linearGradient><linearGradient id="linearGradient3952"><stop id="stop3954" offset="0" style="stop-color:#000;stop-opacity:1"/><stop id="stop3956" offset="1" style="stop-color:#000;stop-opacity:0"/></linearGradient><linearGradient id="linearGradient3944"><stop id="stop3946" offset="0" style="stop-color:#000;stop-opacity:1"/><stop id="stop3948" offset="1" style="stop-color:#000;stop-opacity:0"/></linearGradient><linearGradient id="linearGradient3988-5"><stop id="stop3990-5" offset="0" style="stop-color:#ededed;stop-opacity:1"/><stop id="stop3992-0" offset="1" style="stop-color:#fafafa;stop-opacity:1"/></linearGradient><linearGradient id="linearGradient3158" x1="144" x2="144" y1="280" y2="40" gradientTransform="matrix(0.175,0,0,0.175,-1.20002,-6.0000326)" gradientUnits="userSpaceOnUse" xlink:href="#linearGradient3988-5"/><radialGradient id="radialGradient3950" cx="9" cy="43.5" r="2" fx="9" fy="43.5" gradientTransform="matrix(1,0,0,0.75,0,10.875)" gradientUnits="userSpaceOnUse" xlink:href="#linearGradient3944"/><radialGradient id="radialGradient3958" cx="40" cy="43.5" r="2" fx="40" fy="43.5" gradientTransform="matrix(1,0,0,0.75,0,10.875)" gradientUnits="userSpaceOnUse" xlink:href="#linearGradient3952"/><linearGradient id="linearGradient3968" x1="25" x2="25" y1="45" y2="42" gradientUnits="userSpaceOnUse" xlink:href="#linearGradient3960"/><linearGradient id="linearGradient3997" x1="25" x2="25" y1="45" y2="42" gradientUnits="userSpaceOnUse" xlink:href="#linearGradient3960"/><radialGradient id="radialGradient3999" cx="40" cy="43.5" r="2" fx="40" fy="43.5" gradientTransform="matrix(1,0,0,0.75,0,10.875)" gradientUnits="userSpaceOnUse" xlink:href="#linearGradient3952"/><radialGradient id="radialGradient4001" cx="9" cy="43.5" r="2" fx="9" fy="43.5" gradientTransform="matrix(1,0,0,0.75,0,10.875)" gradientUnits="userSpaceOnUse" xlink:href="#linearGradient3944"/></defs><g id="layer1"><g style="opacity:.20000000000000001" id="g3983" transform="matrix(1.0571429,0,0,1.6666667,-1.4,-29)"><rect id="rect3985" width="31" height="3" x="9" y="42" style="opacity:.59999999999999998;fill:url(#linearGradient3997);fill-opacity:1;stroke:none"/><path id="path3987" d="m 40,42 0,3 0.5,0 C 41.331,45 42,44.331 42,43.5 42,42.669 41.331,42 40.5,42 L 40,42 z" style="opacity:.59999999999999998;fill:url(#radialGradient3999);fill-opacity:1;stroke:none"/><path id="path3989" d="M 8.40625,42 C 7.6271875,42 7,42.627187 7,43.40625 l 0,0.1875 C 7,44.372813 7.6271875,45 8.40625,45 L 9,45 9,42 8.40625,42 z" style="opacity:.59999999999999998;fill:url(#radialGradient4001);fill-opacity:1;stroke:none"/></g><g style="opacity:.20000000000000001" id="g3978"><rect style="opacity:.59999999999999998;fill:url(#linearGradient3968);fill-opacity:1;stroke:none" id="rect3938" width="31" height="3" x="9" y="42"/><path style="opacity:.59999999999999998;fill:url(#radialGradient3958);fill-opacity:1;stroke:none" id="rect3940" d="M 40 42 L 40 45 L 40.5 45 C 41.331 45 42 44.331 42 43.5 C 42 42.669 41.331 42 40.5 42 L 40 42 z"/><path style="opacity:.59999999999999998;fill:url(#radialGradient3950);fill-opacity:1;stroke:none" id="rect3942" d="M 8.40625 42 C 7.6271875 42 7 42.627187 7 43.40625 L 7 43.59375 C 7 44.372813 7.6271875 45 8.40625 45 L 9 45 L 9 42 L 8.40625 42 z"/></g><g id="g4204" transform="matrix(0,1,-1,0,48,-1)"><g id="g4020" transform="translate(2,-1)"><rect style="opacity:.35;color:#bebebe;fill:#000;fill-opacity:1;fill-rule:nonzero;stroke:none;stroke-width:0;marker:none;visibility:visible;display:inline;overflow:visible;enable-background:accumulate" id="rect3886" width="33" height="41" x="8" y="2" ry="1" transform="matrix(0,1,1,0,0,0)"/><rect id="rect3882" width="31" height="39" x="9" y="3" ry="0" transform="matrix(0,1,1,0,0,0)" style="color:#bebebe;fill:url(#linearGradient3158);fill-opacity:1;fill-rule:nonzero;stroke:none;stroke-width:0;marker:none;visibility:visible;display:inline;overflow:visible;enable-background:accumulate"/><path style="opacity:.4;fill:#fff;fill-opacity:1;stroke:none" id="path3893" d="m 3,9 0,31 39,0 0,-31 z m 1,1 37,0 0,29 -37,0 z"/><rect id="rect4018" width="39" height="1" x="3" y="9" style="opacity:.4;fill:#fff;fill-opacity:1;stroke:none"/></g></g></g><g id="layer2"><path style="font-size:20.4187431299999993px;font-style:normal;font-variant:normal;font-weight:700;font-stretch:normal;line-height:125%;letter-spacing:0;word-spacing:0;fill:#fff;fill-opacity:1;stroke:none;font-family:Open Sans;-inkscape-font-specification:Open Sans Bold;opacity:.4" id="path8934" d="m 25.594022,18 -4.46884,12 2.281296,0 4.46884,-12 -2.281296,0 z m -5.281357,1.5 -8.156415,4.0625 0,1.1875 8.156415,3.59375 0,-1.96875 -5.625114,-2.3125 5.625114,-2.59375 0,-1.96875 z m 8.37517,0 0,1.96875 5.625114,2.59375 -5.625114,2.3125 0,1.96875 8.156415,-3.59375 0,-1.1875 L 28.687835,19.5 z"/><path id="path13405" d="m 25.594022,17 -4.46884,12 2.281296,0 4.46884,-12 -2.281296,0 z m -5.281357,1.5 -8.156415,4.0625 0,1.1875 8.156415,3.59375 0,-1.96875 -5.625114,-2.3125 5.625114,-2.59375 0,-1.96875 z m 8.37517,0 0,1.96875 5.625114,2.59375 -5.625114,2.3125 0,1.96875 8.156415,-3.59375 0,-1.1875 L 28.687835,18.5 z" style="font-size:20.4187431299999993px;font-style:normal;font-variant:normal;font-weight:700;font-stretch:normal;line-height:125%;letter-spacing:0;word-spacing:0;opacity:1;fill:#ccc;fill-opacity:1;stroke:none;font-family:Open Sans;-inkscape-font-specification:Open Sans Bold"/><path id="path4802" d="m 25.594022,17 -4.46884,12 0.375007,0 4.093833,-11 1.906289,0 0.375007,-1 -2.281296,0 z m -5.281357,1.5 -8.156415,4.0625 0,1 8.156415,-4.0625 0,-1 z m 8.37517,0 0,1 8.156415,4.0625 0,-1 L 28.687835,18.5 z m -12.84401,5.03125 -1.156274,0.53125 5.625114,2.3125 0,-1 -4.46884,-1.84375 z m 17.31285,0 -4.46884,1.84375 0,1 5.625114,-2.3125 -1.156274,-0.53125 z" style="font-size:20.41874313px;font-style:normal;font-variant:normal;font-weight:700;font-stretch:normal;line-height:125%;letter-spacing:0;word-spacing:0;opacity:.1;fill:#000;fill-opacity:1;stroke:none;font-family:Open Sans;-inkscape-font-specification:Open Sans Bold"/></g></svg>