<svg xmlns="http://www.w3.org/2000/svg" xmlns:svg="http://www.w3.org/2000/svg" xmlns:xlink="http://www.w3.org/1999/xlink" id="svg3759" width="48" height="48" version="1.1"><metadata id="metadata37"/><defs id="defs3761"><linearGradient id="linearGradient3914"><stop style="stop-color:#fff;stop-opacity:1" id="stop3916" offset="0"/><stop style="stop-color:#fff;stop-opacity:0" id="stop3918" offset="1"/></linearGradient><linearGradient id="linearGradient3960"><stop style="stop-color:#000;stop-opacity:0" id="stop3962" offset="0"/><stop id="stop3970" offset=".5" style="stop-color:#000;stop-opacity:1"/><stop style="stop-color:#000;stop-opacity:0" id="stop3964" offset="1"/></linearGradient><linearGradient id="linearGradient3952"><stop style="stop-color:#000;stop-opacity:1" id="stop3954" offset="0"/><stop style="stop-color:#000;stop-opacity:0" id="stop3956" offset="1"/></linearGradient><linearGradient id="linearGradient3944"><stop style="stop-color:#000;stop-opacity:1" id="stop3946" offset="0"/><stop style="stop-color:#000;stop-opacity:0" id="stop3948" offset="1"/></linearGradient><linearGradient id="linearGradient3988-5"><stop style="stop-color:#e8e8e8;stop-opacity:1" id="stop3990-5" offset="0"/><stop style="stop-color:#f0f0f0;stop-opacity:1" id="stop3992-0" offset="1"/></linearGradient><linearGradient id="linearGradient3142" x1="144" x2="144" y1="280" y2="40" gradientTransform="matrix(-0.175,0,0,0.175,49.20002,-5.0000326)" gradientUnits="userSpaceOnUse" xlink:href="#linearGradient3988-5"/><linearGradient id="linearGradient3920" x1="24" x2="24" y1="0" y2="48" gradientUnits="userSpaceOnUse" xlink:href="#linearGradient3914"/><radialGradient id="radialGradient3925" cx="9" cy="43.5" r="2" fx="9" fy="43.5" gradientTransform="matrix(1,0,0,0.75,-1.0000003,10.875)" gradientUnits="userSpaceOnUse" xlink:href="#linearGradient3944"/><radialGradient id="radialGradient3928" cx="40" cy="43.5" r="2" fx="40" fy="43.5" gradientTransform="matrix(1,0,0,0.75,-3e-7,10.875)" gradientUnits="userSpaceOnUse" xlink:href="#linearGradient3952"/><linearGradient id="linearGradient3931" x1="25" x2="25" y1="45" y2="42" gradientTransform="matrix(1.0305144,0,0,1,-1.2476025,0)" gradientUnits="userSpaceOnUse" xlink:href="#linearGradient3960"/><radialGradient id="radialGradient3934" cx="9" cy="43.5" r="2" fx="9" fy="43.5" gradientTransform="matrix(1.0571429,0,0,1.25,-2.4000003,-10.875)" gradientUnits="userSpaceOnUse" xlink:href="#linearGradient3944"/><radialGradient id="radialGradient3937" cx="40" cy="43.5" r="2" fx="40" fy="43.5" gradientTransform="matrix(1.0571429,0,0,1.25,-1.4000003,-10.875)" gradientUnits="userSpaceOnUse" xlink:href="#linearGradient3952"/><linearGradient id="linearGradient3940" x1="25" x2="25" y1="45" y2="42" gradientTransform="matrix(1.0894009,0,0,1.6666667,-2.6903226,-29)" gradientUnits="userSpaceOnUse" xlink:href="#linearGradient3960"/><linearGradient id="linearGradient4093" x1="1304" x2="1304" y1="-50" y2="-92" gradientTransform="matrix(0.96428571,0,0,0.96428571,-1218,92.928572)" gradientUnits="userSpaceOnUse" xlink:href="#linearGradient8085"/><linearGradient id="linearGradient8085"><stop id="stop8087" offset="0" style="stop-color:#37a12e;stop-opacity:1"/><stop id="stop8089" offset="1" style="stop-color:#54bc43;stop-opacity:1"/></linearGradient></defs><g id="layer1"><g id="g3942"><rect style="opacity:.12000002;fill:url(#linearGradient3940);fill-opacity:1;stroke:none" id="rect3985" width="33.771" height="5" x="7.114" y="41"/><path style="opacity:.12000002;fill:url(#radialGradient3937);fill-opacity:1;stroke:none" id="path3987" d="m 40.885716,41.000001 0,5 0.528571,0 c 0.878486,0 1.585715,-1.115 1.585715,-2.5 0,-1.385 -0.707229,-2.5 -1.585715,-2.5 l -0.528571,0 z"/><path style="opacity:.12000002;fill:url(#radialGradient3934);fill-opacity:1;stroke:none" id="path3989" d="M 6.4866072,41.000001 C 5.6630268,41.000001 5,42.045313 5,43.343751 l 0,0.3125 c 0,1.298439 0.6630268,2.34375 1.4866072,2.34375 l 0.6276786,0 0,-5 -0.6276786,0 z"/><rect id="rect3938" width="31.946" height="3" x="8.027" y="42" style="opacity:.12000002;fill:url(#linearGradient3931);fill-opacity:1;stroke:none"/><path id="rect3940" d="m 40,42 0,3 0.5,0 C 41.331,45 42,44.331 42,43.5 42,42.669 41.331,42 40.5,42 L 40,42 z" style="opacity:.12000002;fill:url(#radialGradient3928);fill-opacity:1;stroke:none"/><path id="rect3942" d="m 7.4062497,42 c -0.7790625,0 -1.40625,0.627187 -1.40625,1.40625 l 0,0.1875 c 0,0.779063 0.6271875,1.40625 1.40625,1.40625 l 0.59375,0 0,-3 -0.59375,0 z" style="opacity:.12000002;fill:url(#radialGradient3925);fill-opacity:1;stroke:none"/></g><path style="opacity:.35;color:#bebebe;fill:#000;fill-opacity:1;fill-rule:nonzero;stroke:none;stroke-width:0;marker:none;visibility:visible;display:inline;overflow:visible;enable-background:accumulate" id="rect3886" d="M 40,3 8,3 C 7.446,3 7,3.446 7,4 l 0,39 c 0,0.554 0.446,1 1,1 l 32,0 c 0.554,0 1,-0.446 1,-1 L 41,4 C 41,3.446 40.554,3 40,3 z"/><path style="color:#bebebe;fill:url(#linearGradient3142);fill-opacity:1;fill-rule:nonzero;stroke:none;stroke-width:0;marker:none;visibility:visible;display:inline;overflow:visible;enable-background:accumulate" id="rect3882" d="M 40,4 8,4 8,43 40,43 z"/><path id="path3893" d="M 40,4 8,4 8,43 40,43 z M 39,5 39,42 9,42 9,5 z" style="opacity:.40000000000000002;fill:url(#linearGradient3920);fill-opacity:1;stroke:none"/><rect style="opacity:.40000000000000002;fill:#fff;fill-opacity:1;stroke:none;stroke-width:1;stroke-linecap:square;stroke-miterlimit:4;stroke-opacity:1;stroke-dasharray:none" id="rect3144" width="32" height="1" x="8" y="4"/><rect id="rect3922" width="32" height="1" x="8" y="42" style="opacity:.2;fill:#fff;fill-opacity:1;stroke:none"/></g><g id="layer2"><path style="font-size:17.06666756px;font-style:normal;font-variant:normal;font-weight:700;font-stretch:normal;line-height:125%;letter-spacing:0;word-spacing:0;opacity:.41000001;fill:#fff;fill-opacity:1;stroke:#fff;stroke-opacity:1;font-family:Open Sans;-inkscape-font-specification:Open Sans Bold" id="path4109" d="m 16,18.4685 c -1.119632,1.1e-5 -2.0706,0.225904 -2.90625,0.71875 -0.830347,0.48751 -1.492868,1.203582 -1.9375,2.125 C 10.711617,22.22833 10.5,23.309578 10.5,24.531 c 0,1.939289 0.438382,3.429467 1.34375,4.46875 0.905368,1.033929 2.228496,1.531249 3.9375,1.53125 1.189253,-10e-7 2.254464,-0.191964 3.21875,-0.59375 l 0,-2.09375 c -1.173246,0.412502 -2.174957,0.625002 -3,0.625 -1.966082,2e-6 -2.9375,-1.317854 -2.9375,-3.9375 0,-1.258922 0.266996,-2.235706 0.78125,-2.9375 0.514253,-0.707134 1.218772,-1.06249 2.15625,-1.0625 0.428625,10e-6 0.867771,0.09465 1.3125,0.25 0.444632,0.155367 0.904421,0.322331 1.34375,0.53125 L 19.4375,19.281 C 18.285661,18.729226 17.141136,18.468511 16,18.4685 z m 8.90625,0 c -1.242868,1.1e-5 -2.230292,0.280368 -2.9375,0.875 -0.70171,0.594653 -1.0625,1.429474 -1.0625,2.46875 0,0.551793 0.129485,1.025007 0.34375,1.4375 0.214264,0.412507 0.484747,0.783042 0.84375,1.09375 0.358907,0.31072 0.907089,0.631256 1.625,0.96875 0.766028,0.364291 1.253528,0.615184 1.5,0.78125 0.251775,0.166076 0.465211,0.349111 0.59375,0.53125 0.128247,0.176789 0.1875,0.394646 0.1875,0.625 0,0.412503 -0.142814,0.697324 -0.4375,0.90625 -0.289286,0.208931 -0.70354,0.312502 -1.25,0.3125 -0.455336,2e-6 -0.979389,-0.0741 -1.53125,-0.21875 -0.546364,-0.144641 -1.207164,-0.365176 -2,-0.71875 l 0,2.3125 c 0.964286,0.471428 2.058928,0.687499 3.3125,0.6875 1.360703,-10e-7 2.426775,-0.295535 3.1875,-0.90625 0.766029,-0.610712 1.15625,-1.439283 1.15625,-2.5 0,-0.766067 -0.217878,-1.412496 -0.625,-1.9375 -0.407121,-0.530351 -1.151872,-1.068744 -2.25,-1.59375 C 24.732153,23.197078 24.193718,22.931007 23.96875,22.781 23.749086,22.625651 23.601829,22.472972 23.5,22.31225 23.398464,22.146187 23.34375,21.938152 23.34375,21.7185 c 0,-0.353562 0.123225,-0.624099 0.375,-0.84375 0.251775,-0.219634 0.622311,-0.34374 1.09375,-0.34375 0.396418,10e-6 0.811629,0.05448 1.21875,0.15625 0.412522,0.101796 0.904464,0.274116 1.53125,0.53125 L 28.375,19.281 c -0.605378,-0.262488 -1.192836,-0.449096 -1.75,-0.59375 -0.551765,-0.144634 -1.108068,-0.218739 -1.71875,-0.21875 z m 9.0625,0 c -1.242867,1.1e-5 -2.230293,0.280368 -2.9375,0.875 -0.701711,0.594653 -1.0625,1.429474 -1.0625,2.46875 0,0.551793 0.129486,1.025007 0.34375,1.4375 0.214265,0.412507 0.484746,0.783042 0.84375,1.09375 0.358907,0.31072 0.90709,0.631256 1.625,0.96875 0.766029,0.364291 1.253529,0.615184 1.5,0.78125 0.251775,0.166076 0.465211,0.349111 0.59375,0.53125 0.128247,0.176789 0.1875,0.394646 0.1875,0.625 0,0.412503 -0.142814,0.697324 -0.4375,0.90625 -0.289286,0.208931 -0.703539,0.312502 -1.25,0.3125 -0.455335,2e-6 -0.979389,-0.0741 -1.53125,-0.21875 -0.546364,-0.144641 -1.207165,-0.365176 -2,-0.71875 l 0,2.3125 c 0.964285,0.471428 2.058929,0.687499 3.3125,0.6875 1.360704,-10e-7 2.426775,-0.295535 3.1875,-0.90625 0.766029,-0.610712 1.15625,-1.439283 1.15625,-2.5 0,-0.766067 -0.217879,-1.412496 -0.625,-1.9375 -0.407122,-0.530351 -1.151871,-1.068744 -2.25,-1.59375 -0.830346,-0.396422 -1.337533,-0.662493 -1.5625,-0.8125 -0.219665,-0.155349 -0.398172,-0.308028 -0.5,-0.46875 -0.101537,-0.166063 -0.15625,-0.374098 -0.15625,-0.59375 0,-0.353562 0.123225,-0.624099 0.375,-0.84375 0.251775,-0.219634 0.622311,-0.34374 1.09375,-0.34375 0.396418,10e-6 0.811629,0.05448 1.21875,0.15625 0.412522,0.101796 0.904464,0.274116 1.53125,0.53125 l 0.8125,-1.9375 c -0.605378,-0.262488 -1.192835,-0.449096 -1.75,-0.59375 -0.551764,-0.144634 -1.108067,-0.218739 -1.71875,-0.21875 z"/><path style="font-size:17.06666756px;font-style:normal;font-variant:normal;font-weight:700;font-stretch:normal;line-height:125%;letter-spacing:0;word-spacing:0;fill:url(#linearGradient4093);fill-opacity:1;stroke:none;font-family:Open Sans;-inkscape-font-specification:Open Sans Bold" id="path9908" d="m 16,17.46875 c -1.119632,1.1e-5 -2.0706,0.225904 -2.90625,0.71875 -0.830347,0.48751 -1.492868,1.203582 -1.9375,2.125 C 10.711617,21.22858 10.5,22.309828 10.5,23.53125 c 0,1.939289 0.438382,3.429467 1.34375,4.46875 0.905368,1.033929 2.228496,1.531249 3.9375,1.53125 1.189253,-1e-6 2.254464,-0.191964 3.21875,-0.59375 l 0,-2.09375 c -1.173246,0.412502 -2.174957,0.625002 -3,0.625 -1.966082,2e-6 -2.9375,-1.317854 -2.9375,-3.9375 0,-1.258922 0.266996,-2.235706 0.78125,-2.9375 0.514253,-0.707134 1.218772,-1.06249 2.15625,-1.0625 0.428625,10e-6 0.867771,0.09465 1.3125,0.25 0.444632,0.155367 0.904421,0.322331 1.34375,0.53125 L 19.4375,18.28125 C 18.285661,17.729476 17.141136,17.468761 16,17.46875 z m 8.90625,0 c -1.242868,1.1e-5 -2.230292,0.280368 -2.9375,0.875 -0.70171,0.594653 -1.0625,1.429474 -1.0625,2.46875 0,0.551793 0.129485,1.025007 0.34375,1.4375 0.214264,0.412507 0.484747,0.783042 0.84375,1.09375 0.358907,0.31072 0.907089,0.631256 1.625,0.96875 0.766028,0.364291 1.253528,0.615184 1.5,0.78125 0.251775,0.166076 0.465211,0.349111 0.59375,0.53125 C 25.940747,25.801789 26,26.019646 26,26.25 c 0,0.412503 -0.142814,0.697324 -0.4375,0.90625 -0.289286,0.208931 -0.70354,0.312502 -1.25,0.3125 -0.455336,2e-6 -0.979389,-0.0741 -1.53125,-0.21875 -0.546364,-0.144641 -1.207164,-0.365176 -2,-0.71875 l 0,2.3125 c 0.964286,0.471428 2.058928,0.687499 3.3125,0.6875 1.360703,-1e-6 2.426775,-0.295535 3.1875,-0.90625 0.766029,-0.610712 1.15625,-1.439283 1.15625,-2.5 0,-0.766067 -0.217878,-1.412496 -0.625,-1.9375 -0.407121,-0.530351 -1.151872,-1.068744 -2.25,-1.59375 -0.830347,-0.396422 -1.368782,-0.662493 -1.59375,-0.8125 C 23.749086,21.625901 23.601829,21.473222 23.5,21.3125 c -0.101536,-0.166063 -0.15625,-0.374098 -0.15625,-0.59375 0,-0.353562 0.123225,-0.624099 0.375,-0.84375 0.251775,-0.219634 0.622311,-0.34374 1.09375,-0.34375 0.396418,10e-6 0.811629,0.05448 1.21875,0.15625 0.412522,0.101796 0.904464,0.274116 1.53125,0.53125 l 0.8125,-1.9375 c -0.605378,-0.262488 -1.192836,-0.449096 -1.75,-0.59375 -0.551765,-0.144634 -1.108068,-0.218739 -1.71875,-0.21875 z m 9.0625,0 c -1.242867,1.1e-5 -2.230293,0.280368 -2.9375,0.875 -0.701711,0.594653 -1.0625,1.429474 -1.0625,2.46875 0,0.551793 0.129486,1.025007 0.34375,1.4375 0.214265,0.412507 0.484746,0.783042 0.84375,1.09375 0.358907,0.31072 0.90709,0.631256 1.625,0.96875 0.766029,0.364291 1.253529,0.615184 1.5,0.78125 0.251775,0.166076 0.465211,0.349111 0.59375,0.53125 0.128247,0.176789 0.1875,0.394646 0.1875,0.625 0,0.412503 -0.142814,0.697324 -0.4375,0.90625 -0.289286,0.208931 -0.703539,0.312502 -1.25,0.3125 -0.455335,2e-6 -0.979389,-0.0741 -1.53125,-0.21875 -0.546364,-0.144641 -1.207165,-0.365176 -2,-0.71875 l 0,2.3125 c 0.964285,0.471428 2.058929,0.687499 3.3125,0.6875 1.360704,-1e-6 2.426775,-0.295535 3.1875,-0.90625 0.766029,-0.610712 1.15625,-1.439283 1.15625,-2.5 0,-0.766067 -0.217879,-1.412496 -0.625,-1.9375 -0.407122,-0.530351 -1.151871,-1.068744 -2.25,-1.59375 -0.830346,-0.396422 -1.337533,-0.662493 -1.5625,-0.8125 -0.219665,-0.155349 -0.398172,-0.308028 -0.5,-0.46875 -0.101537,-0.166063 -0.15625,-0.374098 -0.15625,-0.59375 0,-0.353562 0.123225,-0.624099 0.375,-0.84375 0.251775,-0.219634 0.622311,-0.34374 1.09375,-0.34375 0.396418,10e-6 0.811629,0.05448 1.21875,0.15625 0.412522,0.101796 0.904464,0.274116 1.53125,0.53125 l 0.8125,-1.9375 c -0.605378,-0.262488 -1.192835,-0.449096 -1.75,-0.59375 -0.551764,-0.144634 -1.108067,-0.218739 -1.71875,-0.21875 z"/><path id="path4107" d="m 16,17.46875 c -1.119632,1.1e-5 -2.0706,0.225904 -2.90625,0.71875 -0.830347,0.48751 -1.492868,1.203582 -1.9375,2.125 C 10.711617,21.22858 10.5,22.309828 10.5,23.53125 c 0,1.939289 0.438382,3.429467 1.34375,4.46875 0.905368,1.033929 2.228496,1.531249 3.9375,1.53125 1.189253,-1e-6 2.254464,-0.191964 3.21875,-0.59375 l 0,-2.09375 c -1.173246,0.412502 -2.174957,0.625002 -3,0.625 -1.966082,2e-6 -2.9375,-1.317854 -2.9375,-3.9375 0,-1.258922 0.266996,-2.235706 0.78125,-2.9375 0.514253,-0.707134 1.218772,-1.06249 2.15625,-1.0625 0.428625,10e-6 0.867771,0.09465 1.3125,0.25 0.444632,0.155367 0.904421,0.322331 1.34375,0.53125 L 19.4375,18.28125 C 18.285661,17.729476 17.141136,17.468761 16,17.46875 z m 8.90625,0 c -1.242868,1.1e-5 -2.230292,0.280368 -2.9375,0.875 -0.70171,0.594653 -1.0625,1.429474 -1.0625,2.46875 0,0.551793 0.129485,1.025007 0.34375,1.4375 0.214264,0.412507 0.484747,0.783042 0.84375,1.09375 0.358907,0.31072 0.907089,0.631256 1.625,0.96875 0.766028,0.364291 1.253528,0.615184 1.5,0.78125 0.251775,0.166076 0.465211,0.349111 0.59375,0.53125 C 25.940747,25.801789 26,26.019646 26,26.25 c 0,0.412503 -0.142814,0.697324 -0.4375,0.90625 -0.289286,0.208931 -0.70354,0.312502 -1.25,0.3125 -0.455336,2e-6 -0.979389,-0.0741 -1.53125,-0.21875 -0.546364,-0.144641 -1.207164,-0.365176 -2,-0.71875 l 0,2.3125 c 0.964286,0.471428 2.058928,0.687499 3.3125,0.6875 1.360703,-1e-6 2.426775,-0.295535 3.1875,-0.90625 0.766029,-0.610712 1.15625,-1.439283 1.15625,-2.5 0,-0.766067 -0.217878,-1.412496 -0.625,-1.9375 -0.407121,-0.530351 -1.151872,-1.068744 -2.25,-1.59375 -0.830347,-0.396422 -1.368782,-0.662493 -1.59375,-0.8125 C 23.749086,21.625901 23.601829,21.473222 23.5,21.3125 c -0.101536,-0.166063 -0.15625,-0.374098 -0.15625,-0.59375 0,-0.353562 0.123225,-0.624099 0.375,-0.84375 0.251775,-0.219634 0.622311,-0.34374 1.09375,-0.34375 0.396418,10e-6 0.811629,0.05448 1.21875,0.15625 0.412522,0.101796 0.904464,0.274116 1.53125,0.53125 l 0.8125,-1.9375 c -0.605378,-0.262488 -1.192836,-0.449096 -1.75,-0.59375 -0.551765,-0.144634 -1.108068,-0.218739 -1.71875,-0.21875 z m 9.0625,0 c -1.242867,1.1e-5 -2.230293,0.280368 -2.9375,0.875 -0.701711,0.594653 -1.0625,1.429474 -1.0625,2.46875 0,0.551793 0.129486,1.025007 0.34375,1.4375 0.214265,0.412507 0.484746,0.783042 0.84375,1.09375 0.358907,0.31072 0.90709,0.631256 1.625,0.96875 0.766029,0.364291 1.253529,0.615184 1.5,0.78125 0.251775,0.166076 0.465211,0.349111 0.59375,0.53125 0.128247,0.176789 0.1875,0.394646 0.1875,0.625 0,0.412503 -0.142814,0.697324 -0.4375,0.90625 -0.289286,0.208931 -0.703539,0.312502 -1.25,0.3125 -0.455335,2e-6 -0.979389,-0.0741 -1.53125,-0.21875 -0.546364,-0.144641 -1.207165,-0.365176 -2,-0.71875 l 0,2.3125 c 0.964285,0.471428 2.058929,0.687499 3.3125,0.6875 1.360704,-1e-6 2.426775,-0.295535 3.1875,-0.90625 0.766029,-0.610712 1.15625,-1.439283 1.15625,-2.5 0,-0.766067 -0.217879,-1.412496 -0.625,-1.9375 -0.407122,-0.530351 -1.151871,-1.068744 -2.25,-1.59375 -0.830346,-0.396422 -1.337533,-0.662493 -1.5625,-0.8125 -0.219665,-0.155349 -0.398172,-0.308028 -0.5,-0.46875 -0.101537,-0.166063 -0.15625,-0.374098 -0.15625,-0.59375 0,-0.353562 0.123225,-0.624099 0.375,-0.84375 0.251775,-0.219634 0.622311,-0.34374 1.09375,-0.34375 0.396418,10e-6 0.811629,0.05448 1.21875,0.15625 0.412522,0.101796 0.904464,0.274116 1.53125,0.53125 l 0.8125,-1.9375 c -0.605378,-0.262488 -1.192835,-0.449096 -1.75,-0.59375 -0.551764,-0.144634 -1.108067,-0.218739 -1.71875,-0.21875 z" style="font-size:17.06666756px;font-style:normal;font-variant:normal;font-weight:700;font-stretch:normal;line-height:125%;letter-spacing:0;word-spacing:0;opacity:.61000001;fill:none;stroke:#070;stroke-opacity:1;font-family:Open Sans;-inkscape-font-specification:Open Sans Bold"/></g></svg>