<svg xmlns="http://www.w3.org/2000/svg" xmlns:svg="http://www.w3.org/2000/svg" xmlns:xlink="http://www.w3.org/1999/xlink" id="svg3759" width="48" height="48" version="1.1"><metadata id="metadata37"/><defs id="defs3761"><linearGradient id="linearGradient3914"><stop id="stop3916" offset="0" style="stop-color:#fff;stop-opacity:1"/><stop id="stop3918" offset="1" style="stop-color:#fff;stop-opacity:0"/></linearGradient><linearGradient id="linearGradient3960"><stop id="stop3962" offset="0" style="stop-color:#000;stop-opacity:0"/><stop style="stop-color:#000;stop-opacity:1" id="stop3970" offset=".5"/><stop id="stop3964" offset="1" style="stop-color:#000;stop-opacity:0"/></linearGradient><linearGradient id="linearGradient3952"><stop id="stop3954" offset="0" style="stop-color:#000;stop-opacity:1"/><stop id="stop3956" offset="1" style="stop-color:#000;stop-opacity:0"/></linearGradient><linearGradient id="linearGradient3944"><stop id="stop3946" offset="0" style="stop-color:#000;stop-opacity:1"/><stop id="stop3948" offset="1" style="stop-color:#000;stop-opacity:0"/></linearGradient><linearGradient id="linearGradient3988-5"><stop id="stop3990-5" offset="0" style="stop-color:#e8e8e8;stop-opacity:1"/><stop id="stop3992-0" offset="1" style="stop-color:#f0f0f0;stop-opacity:1"/></linearGradient><linearGradient id="linearGradient3142" x1="144" x2="144" y1="280" y2="40" gradientTransform="matrix(-0.175,0,0,0.175,49.20002,-5.0000326)" gradientUnits="userSpaceOnUse" xlink:href="#linearGradient3988-5"/><linearGradient id="linearGradient3920" x1="24" x2="24" y1="0" y2="48" gradientUnits="userSpaceOnUse" xlink:href="#linearGradient3914"/><radialGradient id="radialGradient3925" cx="9" cy="43.5" r="2" fx="9" fy="43.5" gradientTransform="matrix(1,0,0,0.75,-1.0000003,10.875)" gradientUnits="userSpaceOnUse" xlink:href="#linearGradient3944"/><radialGradient id="radialGradient3928" cx="40" cy="43.5" r="2" fx="40" fy="43.5" gradientTransform="matrix(1,0,0,0.75,-3e-7,10.875)" gradientUnits="userSpaceOnUse" xlink:href="#linearGradient3952"/><linearGradient id="linearGradient3931" x1="25" x2="25" y1="45" y2="42" gradientTransform="matrix(1.0305144,0,0,1,-1.2476025,0)" gradientUnits="userSpaceOnUse" xlink:href="#linearGradient3960"/><radialGradient id="radialGradient3934" cx="9" cy="43.5" r="2" fx="9" fy="43.5" gradientTransform="matrix(1.0571429,0,0,1.25,-2.4000003,-10.875)" gradientUnits="userSpaceOnUse" xlink:href="#linearGradient3944"/><radialGradient id="radialGradient3937" cx="40" cy="43.5" r="2" fx="40" fy="43.5" gradientTransform="matrix(1.0571429,0,0,1.25,-1.4000003,-10.875)" gradientUnits="userSpaceOnUse" xlink:href="#linearGradient3952"/><linearGradient id="linearGradient3940" x1="25" x2="25" y1="45" y2="42" gradientTransform="matrix(1.0894009,0,0,1.6666667,-2.6903226,-29)" gradientUnits="userSpaceOnUse" xlink:href="#linearGradient3960"/></defs><g id="layer1"><g id="g3942"><rect id="rect3985" width="33.771" height="5" x="7.114" y="41" style="opacity:.12000002;fill:url(#linearGradient3940);fill-opacity:1;stroke:none"/><path id="path3987" d="m 40.885716,41.000001 0,5 0.528571,0 c 0.878486,0 1.585715,-1.115 1.585715,-2.5 0,-1.385 -0.707229,-2.5 -1.585715,-2.5 l -0.528571,0 z" style="opacity:.12000002;fill:url(#radialGradient3937);fill-opacity:1;stroke:none"/><path id="path3989" d="M 6.4866072,41.000001 C 5.6630268,41.000001 5,42.045313 5,43.343751 l 0,0.3125 c 0,1.298439 0.6630268,2.34375 1.4866072,2.34375 l 0.6276786,0 0,-5 -0.6276786,0 z" style="opacity:.12000002;fill:url(#radialGradient3934);fill-opacity:1;stroke:none"/><rect style="opacity:.12000002;fill:url(#linearGradient3931);fill-opacity:1;stroke:none" id="rect3938" width="31.946" height="3" x="8.027" y="42"/><path style="opacity:.12000002;fill:url(#radialGradient3928);fill-opacity:1;stroke:none" id="rect3940" d="m 40,42 0,3 0.5,0 C 41.331,45 42,44.331 42,43.5 42,42.669 41.331,42 40.5,42 L 40,42 z"/><path style="opacity:.12000002;fill:url(#radialGradient3925);fill-opacity:1;stroke:none" id="rect3942" d="m 7.4062497,42 c -0.7790625,0 -1.40625,0.627187 -1.40625,1.40625 l 0,0.1875 c 0,0.779063 0.6271875,1.40625 1.40625,1.40625 l 0.59375,0 0,-3 -0.59375,0 z"/></g><path id="rect3886" d="M 40,3 8,3 C 7.446,3 7,3.446 7,4 l 0,39 c 0,0.554 0.446,1 1,1 l 32,0 c 0.554,0 1,-0.446 1,-1 L 41,4 C 41,3.446 40.554,3 40,3 z" style="opacity:.35;color:#bebebe;fill:#000;fill-opacity:1;fill-rule:nonzero;stroke:none;stroke-width:0;marker:none;visibility:visible;display:inline;overflow:visible;enable-background:accumulate"/><path id="rect3882" d="M 40,4 8,4 8,43 40,43 z" style="color:#bebebe;fill:url(#linearGradient3142);fill-opacity:1;fill-rule:nonzero;stroke:none;stroke-width:0;marker:none;visibility:visible;display:inline;overflow:visible;enable-background:accumulate"/><path style="opacity:.40000000000000002;fill:url(#linearGradient3920);fill-opacity:1;stroke:none" id="path3893" d="M 40,4 8,4 8,43 40,43 z M 39,5 39,42 9,42 9,5 z"/><rect id="rect3144" width="32" height="1" x="8" y="4" style="opacity:.40000000000000002;fill:#fff;fill-opacity:1;stroke:none;stroke-width:1;stroke-linecap:square;stroke-miterlimit:4;stroke-opacity:1;stroke-dasharray:none"/><rect style="opacity:.2;fill:#fff;fill-opacity:1;stroke:none" id="rect3922" width="32" height="1" x="8" y="42"/></g><g id="layer2"><path id="path4741" d="m 25.98749,13 c 1.32549,0 2.40001,1.074536 2.40001,2.399996 0,1.325473 -1.07453,2.400009 -2.40001,2.400009 -1.32546,0 -2.39998,-1.074536 -2.39998,-2.400009 C 23.58751,14.074536 24.66203,13 25.98749,13 z m -1.19997,7.200001 c 1.3296,0 2.39998,1.070398 2.39998,2.399997 0,2.399996 -2.39998,7.200001 -2.39998,9.599997 0,1.702711 0.91152,0.671672 1.64998,0.150001 l 1.125,1.650006 C 26.14725,35.749266 24.05025,36.970286 22.38751,37 c -1.32958,0 -2.4,-1.07041 -2.4,-2.400009 0,-2.399996 2.4,-7.199989 2.4,-9.599997 0,-1.702711 -0.91149,-0.671672 -1.65,-0.150001 L 19.6125,23.2 c 1.4153,-1.749278 3.51228,-2.970297 5.17502,-2.999999 z" style="opacity:.4;fill:#fff;fill-opacity:1;stroke:none;display:inline;enable-background:new"/><path style="fill:#ccc;fill-opacity:1;stroke:none;display:inline;enable-background:new" id="path3861" d="m 25.98749,12 c 1.32549,0 2.40001,1.074536 2.40001,2.399996 0,1.325473 -1.07453,2.400009 -2.40001,2.400009 -1.32546,0 -2.39998,-1.074536 -2.39998,-2.400009 C 23.58751,13.074536 24.66203,12 25.98749,12 z m -1.19997,7.200001 c 1.3296,0 2.39998,1.070398 2.39998,2.399997 0,2.399996 -2.39998,7.200001 -2.39998,9.599997 0,1.702711 0.91152,0.671672 1.64998,0.150001 l 1.125,1.650006 C 26.14725,34.749266 24.05025,35.970286 22.38751,36 c -1.32958,0 -2.4,-1.07041 -2.4,-2.400009 0,-2.399996 2.4,-7.199989 2.4,-9.599997 0,-1.702711 -0.91149,-0.671672 -1.65,-0.150001 L 19.6125,22.2 c 1.4153,-1.749278 3.51228,-2.970297 5.17502,-2.999999 z"/><path id="path4129" d="m 26,12 c -1.32546,0 -2.40625,1.08079 -2.40625,2.40625 0,0.165684 -7.2e-4,0.312516 0.0312,0.46875 0.23506,-1.078826 1.22572,-1.875 2.375,-1.875 1.14931,0 2.10869,0.796174 2.34375,1.875 0.032,-0.156234 0.0312,-0.303066 0.0312,-0.46875 C 28.375,13.08079 27.32549,12 26,12 z m -1.21875,7.1875 c -1.66273,0.0297 -3.74095,1.250722 -5.15625,3 L 20,22.75 c 1.39337,-1.512304 3.26091,-2.535342 4.78125,-2.5625 1.1634,0 2.12069,0.841892 2.34375,1.9375 0.0198,-0.179575 0.0625,-0.371521 0.0625,-0.53125 0,-1.329599 -1.07665,-2.40625 -2.40625,-2.40625 z m -2.4375,5.28125 C 22.09504,26.977192 20,31.334025 20,33.59375 c 0,0.1662 -6.2e-4,0.343484 0.0312,0.5 0.26301,-2.51344 2.34375,-6.843307 2.34375,-9.09375 0,-0.212839 -0.005,-0.397507 -0.0312,-0.53125 z m 4.09375,6.875 c -0.64615,0.456462 -1.40918,1.311204 -1.59375,0.375 -0.0155,0.156314 -0.0625,0.327981 -0.0625,0.46875 0,1.702711 0.91779,0.677921 1.65625,0.15625 l 0.75,1.09375 C 27.31799,33.295865 27.44131,33.149799 27.5625,33 l -1.125,-1.65625 z" style="opacity:.1;fill:#000;fill-opacity:1;stroke:none;display:inline;enable-background:new"/></g></svg>