<svg xmlns="http://www.w3.org/2000/svg" xmlns:svg="http://www.w3.org/2000/svg" xmlns:xlink="http://www.w3.org/1999/xlink" id="svg5400" width="16" height="16" version="1.1"><defs id="defs5402"><linearGradient id="linearGradient7048" x1="16" x2="16" y1="0" y2="16" gradientUnits="userSpaceOnUse" xlink:href="#linearGradient3760"/><linearGradient id="linearGradient3760"><stop id="stop3762" offset="0" style="stop-color:#e44343;stop-opacity:1"/><stop id="stop3764" offset="1" style="stop-color:#ac0808;stop-opacity:1"/></linearGradient></defs><metadata id="metadata5405"/><g id="layer1"><path id="path2555-7" d="M 8,0.5 C 3.8618,0.5 0.5,3.86176 0.5,8 c 0,4.13824 3.3618,7.5 7.5,7.5 4.1382,0 7.5,-3.36176 7.5,-7.5 C 15.5,3.86176 12.1382,0.5 8,0.5 z" style="color:#000;fill:url(#linearGradient7048);fill-opacity:1;fill-rule:nonzero;stroke:none;stroke-width:.99999994;marker:none;visibility:visible;display:inline;overflow:visible;enable-background:accumulate"/><path style="opacity:.81000000000000005;color:#000;fill:none;stroke:#790000;stroke-width:.99999994000000003;stroke-linecap:round;stroke-linejoin:round;stroke-miterlimit:4;stroke-opacity:1;stroke-dasharray:none;stroke-dashoffset:0;marker:none;visibility:visible;display:inline;overflow:visible;enable-background:accumulate" id="path7037" d="m 8,15.5 c 4.1382,0 7.5,-3.3618 7.5,-7.5 C 15.5,3.8618 12.1382,0.5 8,0.5 3.8618,0.5 0.5,3.8618 0.5,8 c 0,4.1382 3.3618,7.5 7.5,7.5 z"/><path style="opacity:.2;color:#000;fill:#000;fill-opacity:1;fill-rule:nonzero;stroke:none;stroke-width:.99999994;marker:none;visibility:visible;display:inline;overflow:visible;enable-background:accumulate" id="path3805" d="M 8,16 C 4.132594,16 1,12.867406 1,9 1,8.8317131 1.0195845,8.6653066 1.03125,8.5 1.2876687,12.13361 4.3008809,15 8,15 11.699119,15 14.712331,12.13361 14.96875,8.5 14.980415,8.6653066 15,8.8317131 15,9 c 0,3.867406 -3.132594,7 -7,7 z"/><path id="path3021" d="M 8 1 C 4.132594 1 1 4.132594 1 8 C 1 8.1682869 1.0195845 8.3346934 1.03125 8.5 C 1.2876687 4.8663902 4.3008809 2 8 2 C 11.699119 2 14.712331 4.8663902 14.96875 8.5 C 14.980415 8.3346934 15 8.1682869 15 8 C 15 4.132594 11.867406 1 8 1 z" style="color:#000;fill:#fff;fill-opacity:1;fill-rule:nonzero;stroke:none;stroke-width:.99999994000000003;marker:none;visibility:visible;display:inline;overflow:visible;enable-background:accumulate;opacity:.2"/></g><g style="display:inline" id="layer2"><rect style="fill:#000;fill-opacity:1;stroke:none;opacity:.3" id="rect3859" width="10" height="2" x="3" y="8"/><rect id="rect3857" width="10" height="2" x="3" y="7" style="fill:#fff;fill-opacity:1;stroke:none;stroke-opacity:1"/></g></svg>