<svg xmlns="http://www.w3.org/2000/svg" xmlns:svg="http://www.w3.org/2000/svg" xmlns:xlink="http://www.w3.org/1999/xlink" id="svg5400" width="16" height="16" version="1.1"><defs id="defs5402"><linearGradient id="linearGradient3813"><stop id="stop3815" offset="0" style="stop-color:#5a5a5a;stop-opacity:1"/><stop id="stop3817" offset="1" style="stop-color:#8c8c8c;stop-opacity:1"/></linearGradient><linearGradient id="linearGradient3804"><stop id="stop3806" offset="0" style="stop-color:#fff;stop-opacity:1"/><stop id="stop3808" offset="1" style="stop-color:#fff;stop-opacity:0"/></linearGradient><linearGradient id="outerBackgroundGradient-4"><stop id="stop3864-8-6-6" offset="0" style="stop-color:#f0f0f0;stop-opacity:1"/><stop id="stop3866-9-1-7" offset="1" style="stop-color:#f9f9f9;stop-opacity:1"/></linearGradient><linearGradient id="linearGradient3819" x1="8" x2="8" y1="12" y2="4" gradientUnits="userSpaceOnUse" xlink:href="#linearGradient3813"/><linearGradient id="linearGradient3760-7"><stop id="stop3762-7" offset="0" style="stop-color:#e44343;stop-opacity:1"/><stop id="stop3764-8" offset="1" style="stop-color:#ac0808;stop-opacity:1"/></linearGradient><linearGradient id="linearGradient3097" x1="168" x2="168" y1="280" y2="264" gradientTransform="matrix(0.42857143,0,0,-0.42857143,-59.5,129.07143)" gradientUnits="userSpaceOnUse" xlink:href="#linearGradient3760-7"/><linearGradient id="linearGradient3914" x1="5" x2="5" y1="1" y2="14" gradientTransform="translate(2,1)" gradientUnits="userSpaceOnUse" xlink:href="#linearGradient3804"/><linearGradient id="linearGradient3917" x1="144" x2="144" y1="280" y2="40" gradientTransform="matrix(0.05555556,0,0,0.05714289,0,-1.1428659)" gradientUnits="userSpaceOnUse" xlink:href="#outerBackgroundGradient-4"/></defs><metadata id="metadata5405"/><g id="layer1"><g style="opacity:.5" id="g3920"><path id="path3029" d="M 13.999996,3 14,13 C 10,13 5.999999,13 2,13 L 2,3 z" style="opacity:.41000001000000003;color:#bebebe;fill:none;stroke:#000;stroke-width:2;stroke-linejoin:round;stroke-miterlimit:4;stroke-opacity:1;stroke-dasharray:none;marker:none;visibility:visible;display:inline;overflow:visible;enable-background:accumulate"/><path style="color:#bebebe;fill:url(#linearGradient3917);fill-opacity:1;fill-rule:nonzero;stroke:none;stroke-width:0;marker:none;visibility:visible;display:inline;overflow:visible;enable-background:accumulate" id="rect3373-6" d="M 13.999996,3 14,13 C 10,13 5.999999,13 2,13 L 2,3 z"/><path style="color:#bebebe;fill:url(#linearGradient3914);fill-opacity:1;fill-rule:nonzero;stroke:none;stroke-width:0;marker:none;visibility:visible;display:inline;overflow:visible;enable-background:accumulate" id="path3799" d="M 14,3 2,3 2,13 14,13 14,3 z m -1,1 0,8 -10,0 0,-8 10,0 z"/><rect style="opacity:1;fill:url(#linearGradient3819);fill-opacity:1;stroke:none" id="rect3811" width="10" height="8" x="3" y="4"/><path style="opacity:.20000000000000001;fill:#000;fill-opacity:1;stroke:none;stroke-width:12;stroke-linecap:square;stroke-linejoin:round;stroke-miterlimit:4;stroke-opacity:1;stroke-dasharray:none" id="rect3038" d="M 3 4 L 3 12 L 13 12 L 13 4 L 3 4 z M 4 5 L 12 5 L 12 11 L 4 11 L 4 5 z"/></g></g><g id="layer2"><path id="path2922-6-6-0" d="m 12.5,15.5 c -1.656853,0 -3,-1.343147 -3,-3 0,-1.656853 1.343147,-3 3,-3 1.656857,0 3,1.343147 3,3 0,1.656853 -1.343143,3 -3,3 z" style="color:#000;fill:url(#linearGradient3097);fill-opacity:1;fill-rule:nonzero;stroke:none;stroke-width:.84323651;marker:none;visibility:visible;display:inline;overflow:visible;enable-background:accumulate"/><path style="color:#000;fill:none;fill-opacity:1;fill-rule:nonzero;stroke:#790000;stroke-width:1;marker:none;visibility:visible;display:inline;overflow:visible;enable-background:accumulate;stroke-opacity:1;stroke-miterlimit:4;stroke-dasharray:none;opacity:.81" id="path3907" d="m 12.5,15.5 c -1.656853,0 -3,-1.343147 -3,-3 0,-1.656853 1.343147,-3 3,-3 1.656857,0 3,1.343147 3,3 0,1.656853 -1.343143,3 -3,3 z"/><path id="path3909" d="m 11,11 3,3" style="fill:none;stroke:#fff;stroke-width:1px;stroke-linecap:butt;stroke-linejoin:miter;stroke-opacity:1"/><path id="path3911" d="m 11,14 3,-3" style="fill:none;stroke:#fff;stroke-width:1px;stroke-linecap:butt;stroke-linejoin:miter;stroke-opacity:1"/></g></svg>