<svg xmlns="http://www.w3.org/2000/svg" xmlns:svg="http://www.w3.org/2000/svg" xmlns:xlink="http://www.w3.org/1999/xlink" id="svg3732" width="16" height="16" version="1.1"><metadata id="metadata23"/><defs id="defs3734"><linearGradient id="linearGradient3603"><stop style="stop-color:#a7651c;stop-opacity:1" id="stop3605" offset="0"/><stop style="stop-color:#c8a700;stop-opacity:1" id="stop3607" offset="1"/></linearGradient><linearGradient id="linearGradient3683" x1="63.397" x2="63.397" y1="-12.489" y2="5.468" gradientTransform="matrix(0.51455032,0,0,0.51453856,-24.005236,9.8064595)" gradientUnits="userSpaceOnUse" xlink:href="#linearGradient4873"/><linearGradient id="linearGradient4873"><stop style="stop-color:#fff;stop-opacity:1" id="stop4875" offset="0"/><stop style="stop-color:#fff;stop-opacity:0" id="stop4877" offset="1"/></linearGradient><linearGradient id="linearGradient3690"><stop style="stop-color:#ffeb9f;stop-opacity:1" id="stop3692" offset="0"/><stop style="stop-color:#ffd57e;stop-opacity:1" id="stop3694" offset=".262"/><stop style="stop-color:#ffbc43;stop-opacity:1" id="stop3696" offset=".661"/><stop style="stop-color:#ff921a;stop-opacity:1" id="stop3698" offset="1"/></linearGradient><radialGradient id="radialGradient3728" cx="23.896" cy="3.99" r="20.397" fx="23.896" fy="3.99" gradientTransform="matrix(0,0.64524082,-0.85170617,0,11.39831,-13.333564)" gradientUnits="userSpaceOnUse" xlink:href="#linearGradient3690"/><linearGradient id="linearGradient3730" x1="18.379" x2="18.379" y1="44.98" y2="3.082" gradientTransform="matrix(0.2703533,0,0,0.27035337,1.5115215,1.5115197)" gradientUnits="userSpaceOnUse" xlink:href="#linearGradient3603"/></defs><g id="layer1"><path style="fill:url(#radialGradient3728);fill-opacity:1;stroke:url(#linearGradient3730);stroke-width:1;stroke-linecap:round;stroke-linejoin:round;stroke-miterlimit:4;stroke-opacity:1;stroke-dasharray:none;stroke-dashoffset:0" id="path2555" d="M 8.0000007,2.5 C 4.9652912,2.5 2.5,4.9652892 2.5,8.0000002 2.5,11.034712 4.9652912,13.500003 8.0000007,13.5 11.034709,13.5 13.500003,11.034712 13.5,8.0000002 13.5,4.9652892 11.034709,2.5 8.0000007,2.5 z"/><path style="opacity:.4;fill:none;stroke:url(#linearGradient3683);stroke-width:1;stroke-miterlimit:4;stroke-opacity:1;stroke-dasharray:none" id="path2463" d="M 12.5,7.9998378 C 12.5,10.485198 10.485132,12.5 8.0000561,12.5 5.5147526,12.5 3.5,10.48518 3.5,7.9998378 3.5,5.5145945 5.5147526,3.5000005 8.0000561,3.5000005 10.485132,3.5000005 12.5,5.5145945 12.5,7.9998378 l 0,0 z"/></g></svg>