<svg xmlns="http://www.w3.org/2000/svg" xmlns:svg="http://www.w3.org/2000/svg" xmlns:xlink="http://www.w3.org/1999/xlink" id="svg4248" width="32" height="32" version="1.1"><defs id="defs4250"><linearGradient id="linearGradient3838"><stop id="stop3840" offset="0" style="stop-color:#32a5dc;stop-opacity:1"/><stop style="stop-color:#248ec3;stop-opacity:1" id="stop3843" offset=".357"/><stop id="stop3845" offset=".74" style="stop-color:#1f5271;stop-opacity:1"/><stop id="stop3847" offset="1" style="stop-color:#020509;stop-opacity:1"/></linearGradient><radialGradient id="radialGradient3805" cx="11.105" cy="8.45" r="20" fx="11.105" fy="8.45" gradientTransform="matrix(0,1.3257479,-1.2500006,-1.4754776e-8,26.56227,-6.7225691)" gradientUnits="userSpaceOnUse" xlink:href="#linearGradient3838"/><radialGradient id="radialGradient3755" cx="24.85" cy="38.909" r="20.203" fx="24.85" fy="38.909" gradientTransform="matrix(1,0,0,0.37,0,24.5124)" gradientUnits="userSpaceOnUse" xlink:href="#linearGradient26113-9-3-1"/><linearGradient id="linearGradient26113-9-3-1"><stop id="stop26115-7-7-9" offset="0" style="stop-color:#000;stop-opacity:1"/><stop id="stop26117-3-7-8" offset="1" style="stop-color:#000;stop-opacity:0"/></linearGradient><linearGradient id="linearGradient26121-3-8-2"><stop id="stop26123-4-7-8" offset="0" style="stop-color:#000;stop-opacity:1"/><stop id="stop26125-3-9-9" offset="1" style="stop-color:#000;stop-opacity:0"/></linearGradient><radialGradient id="radialGradient3972" cx="24.85" cy="38.909" r="20.203" fx="24.85" fy="38.909" gradientTransform="matrix(1.00851,0,0,0.373148,-0.211403,24.39)" gradientUnits="userSpaceOnUse" xlink:href="#linearGradient26121-3-8-2"/><linearGradient id="linearGradient3902" x1="1" x2="31" y1="16" y2="16" gradientTransform="matrix(0,1,1,0,5.0000306e-7,-5.0000565e-7)" gradientUnits="userSpaceOnUse" xlink:href="#linearGradient3840"/><linearGradient id="linearGradient3840"><stop style="stop-color:#1e7488;stop-opacity:1" id="stop3842" offset="0"/><stop id="stop3844" offset=".5" style="stop-color:#1e5976;stop-opacity:1"/><stop style="stop-color:#122937;stop-opacity:1" id="stop3846" offset=".75"/><stop style="stop-color:#020509;stop-opacity:1" id="stop3848" offset="1"/></linearGradient><linearGradient id="linearGradient3678"><stop style="stop-color:#fff;stop-opacity:.13368984" id="stop3680" offset="0"/><stop style="stop-color:#fff;stop-opacity:0" id="stop3682" offset="1"/></linearGradient><linearGradient id="linearGradient3672"><stop style="stop-color:#fff;stop-opacity:.49197862" id="stop3674" offset="0"/><stop style="stop-color:#fff;stop-opacity:1" id="stop3676" offset="1"/></linearGradient><linearGradient id="linearGradient4047" x1="35.5" x2="48.263" y1="22" y2="21.914" gradientTransform="matrix(0,0.64663181,0.64663181,0,12.139062,-1.3430444)" gradientUnits="userSpaceOnUse" xlink:href="#linearGradient3678"/><linearGradient id="linearGradient4049" x1="3.5" x2="47.5" y1="23" y2="23" gradientTransform="matrix(0,0.64663181,0.64663181,0,12.139062,-1.3430444)" gradientUnits="userSpaceOnUse" xlink:href="#linearGradient3672"/><linearGradient id="linearGradient4051" x1="14.893" x2="4.063" y1="22.293" y2="21.83" gradientTransform="matrix(0.45723773,0.45723773,-0.45723773,0.45723773,25.868502,-7.0299641)" gradientUnits="userSpaceOnUse" xlink:href="#linearGradient3678"/><linearGradient id="linearGradient4053" x1="46.006" x2="4.287" y1="23.707" y2="27.243" gradientTransform="matrix(0.45723773,0.45723773,-0.45723773,0.45723773,25.868502,-7.0299641)" gradientUnits="userSpaceOnUse" xlink:href="#linearGradient3672"/><linearGradient id="linearGradient4055" x1="48.127" x2="2.873" y1="25.828" y2="24.414" gradientTransform="matrix(0.45723773,-0.45723773,-0.45723773,-0.45723773,25.748778,37.381191)" gradientUnits="userSpaceOnUse" xlink:href="#linearGradient3672"/><linearGradient id="linearGradient4057" x1="14.893" x2="2.832" y1="23.707" y2="24.109" gradientTransform="matrix(0.45723773,-0.45723773,-0.45723773,-0.45723773,25.748778,37.381191)" gradientUnits="userSpaceOnUse" xlink:href="#linearGradient3678"/><linearGradient id="linearGradient4059" x1="4.49" x2="47.5" y1="23" y2="23" gradientTransform="matrix(0.64663181,0,0,-0.64663181,10.522485,30.018601)" gradientUnits="userSpaceOnUse" xlink:href="#linearGradient3672"/><linearGradient id="linearGradient4061" x1="37.5" x2="49.09" y1="23" y2="23.173" gradientTransform="matrix(0.64663181,0,0,-0.64663181,10.522485,30.018601)" gradientUnits="userSpaceOnUse" xlink:href="#linearGradient3678"/></defs><metadata id="metadata4253"/><g id="layer1"><path id="path8606" d="m 45.052803,38.908627 a 20.203051,7.4751287 0 1 1 -40.4061012,0 20.203051,7.4751287 0 1 1 40.4061012,0 z" transform="matrix(0.51081599,0,0,0.46595786,3.1704533,10.023687)" style="fill:url(#radialGradient3972);fill-opacity:1;stroke:none;display:inline;filter:url(#filter5927);enable-background:new"/><path style="opacity:.51836697;fill:url(#radialGradient3755);fill-opacity:1;stroke:none;display:inline;filter:url(#filter5788);enable-background:new" id="path8608" d="m 45.052803,38.908627 a 20.203051,7.4751287 0 1 1 -40.4061012,0 20.203051,7.4751287 0 1 1 40.4061012,0 z" transform="matrix(0.69053217,0,0,0.62989172,-1.2951468,3.2832567)"/><path id="path2555-7" d="M 16.000001,1.499999 C 7.999402,1.499999 1.5,7.999398 1.5,15.999999 1.5,24.0006 7.999402,30.500002 16.000001,30.5 24.000598,30.5 30.500007,24.0006 30.5,15.999999 c 0,-8.000601 -6.499402,-14.5 -14.499999,-14.5 z" style="color:#000;fill:url(#radialGradient3805);fill-opacity:1;fill-rule:nonzero;stroke:none;stroke-width:1;marker:none;visibility:visible;display:inline;overflow:visible;enable-background:accumulate"/><path style="opacity:.91000001;color:#000;fill:none;stroke:url(#linearGradient3902);stroke-width:1;stroke-opacity:1;marker:none;visibility:visible;display:inline;overflow:visible;enable-background:accumulate" id="path3866" d="m 30.500001,16 c 0,-8.0005985 -6.499399,-14.5000005 -14.5,-14.5000005 -8.0006015,0 -14.5000035,6.499402 -14.5000015,14.5000005 0,8.000598 6.4994,14.500007 14.5000015,14.5 8.000601,0 14.5,-6.499402 14.5,-14.5 z"/><path id="path3101" d="M 16 2 C 8.2701871 1.9999932 2 8.2701906 2 16 C 2 16.168178 2.0253633 16.333253 2.03125 16.5 C 2.295928 9.0027282 8.4383652 2.9999933 16 3 C 23.561635 3 29.704072 9.0027285 29.96875 16.5 C 29.974637 16.333253 30 16.168178 30 16 C 30 8.2701906 23.729813 2 16 2 z" style="color:#000;fill:#fff;fill-opacity:1;fill-rule:nonzero;stroke:none;stroke-width:1;marker:none;visibility:visible;display:inline;overflow:visible;enable-background:accumulate;opacity:.2"/></g><g id="layer2"><g id="g4033" transform="matrix(1,0,0,-1,-11,31)"><path style="fill:none;stroke:url(#linearGradient4047);stroke-width:1;stroke-linecap:round;stroke-linejoin:round;stroke-miterlimit:4;stroke-opacity:1;stroke-dasharray:none;stroke-dashoffset:0" id="path3805" d="M 26.989917,1.2435693 A 6.1430022,13.902584 0 0 0 25.758898,28.756517"/><path style="fill:none;stroke:url(#linearGradient4049);stroke-width:1;stroke-linecap:round;stroke-linejoin:round;stroke-miterlimit:4;stroke-opacity:1;stroke-dasharray:none;stroke-dashoffset:0" id="path3609" d="M 29.613717,27.739769 A 6.1430022,13.902584 0 0 0 26.996842,1.2435227"/><path style="color:#000;fill:#fff;fill-opacity:1;fill-rule:nonzero;stroke:#fff;stroke-width:1.00042665;stroke-linecap:round;stroke-linejoin:round;stroke-miterlimit:4;stroke-opacity:.52127662;stroke-dasharray:none;stroke-dashoffset:0;marker:none;visibility:visible;display:inline;overflow:visible;enable-background:accumulate" id="path3775" d="m 28.466687,27.331003 a 1.293126,1.293126 0 0 0 2.586252,0 1.293126,1.293126 0 1 0 -2.586252,0 z"/><path style="fill:none;stroke:url(#linearGradient4051);stroke-width:1;stroke-linecap:round;stroke-linejoin:round;stroke-miterlimit:4;stroke-opacity:1;stroke-dasharray:none;stroke-dashoffset:0" id="path3801" d="M 18.910689,4.4696331 A 13.902584,6.1430022 45 0 1 36.569844,25.215037"/><path style="fill:none;stroke:url(#linearGradient4053);stroke-width:1;stroke-linecap:round;stroke-linejoin:round;stroke-miterlimit:4;stroke-opacity:1;stroke-dasharray:none;stroke-dashoffset:0" id="path3611" d="M 36.842209,24.976678 A 13.902584,6.1430022 45 0 1 16.277885,7.5163604"/><path style="color:#000;fill:#fff;fill-opacity:1;fill-rule:nonzero;stroke:#fff;stroke-width:1.00042665;stroke-linecap:round;stroke-linejoin:round;stroke-miterlimit:4;stroke-opacity:.52127662;stroke-dasharray:none;stroke-dashoffset:0;marker:none;visibility:visible;display:inline;overflow:visible;enable-background:accumulate" id="path3781" d="m 17.635297,7.9725644 a 1.2931258,1.2931258 0 0 1 -2.586251,0 1.2931258,1.2931258 0 1 1 2.586251,0 z"/><path style="fill:none;stroke:url(#linearGradient4055);stroke-width:1;stroke-linecap:round;stroke-linejoin:round;stroke-miterlimit:4;stroke-opacity:1;stroke-dasharray:none;stroke-dashoffset:0" id="path3613" d="M 36.96666,5.6545467 A 6.1430022,13.902584 45 0 0 16.412625,20.496507"/><path style="fill:#fff;fill-opacity:1;stroke:#fff;stroke-width:1.00042665;stroke-linecap:round;stroke-linejoin:round;stroke-miterlimit:4;stroke-opacity:.52127662;stroke-dasharray:none;stroke-dashoffset:0" id="path3615" d="m 16.222448,22.661548 a 1.2931257,1.2931257 0 0 0 0,-2.586251 1.2931257,1.2931257 0 1 0 0,2.586251 z"/><path style="fill:none;stroke:url(#linearGradient4057);stroke-width:1;stroke-linecap:round;stroke-linejoin:round;stroke-miterlimit:4;stroke-opacity:1;stroke-dasharray:none;stroke-dashoffset:0" id="path3787" d="M 17.086254,25.060444 A 6.1430022,13.902584 45 0 0 37.146795,5.9223341"/><path style="fill:none;stroke:url(#linearGradient4059);stroke-width:1;stroke-linecap:round;stroke-linejoin:round;stroke-miterlimit:4;stroke-opacity:1;stroke-dasharray:none;stroke-dashoffset:0" id="path2835" d="m 38.852839,11.927246 a 13.902584,6.1430022 0 0 0 -25.72862,3.506071"/><path style="color:#000;fill:#fff;fill-opacity:1;fill-rule:nonzero;stroke:#fff;stroke-width:1.00042665;stroke-linecap:round;stroke-linejoin:round;stroke-miterlimit:4;stroke-opacity:.52127662;stroke-dasharray:none;stroke-dashoffset:0;marker:none;visibility:visible;display:inline;overflow:visible;enable-background:accumulate" id="path3722" d="m 40.38866,12.1756 a 1.2931257,1.2931257 0 0 0 -2.586248,0 1.2931257,1.2931257 0 1 0 2.586248,0 z"/><path style="fill:none;stroke:url(#linearGradient4061);stroke-width:1;stroke-linecap:round;stroke-linejoin:round;stroke-miterlimit:4;stroke-opacity:1;stroke-dasharray:none;stroke-dashoffset:0" id="path3797" d="M 13.192682,15.819015 A 13.902584,6.1430022 0 0 0 40.890989,15.500737"/></g></g></svg>