<svg xmlns="http://www.w3.org/2000/svg" xmlns:svg="http://www.w3.org/2000/svg" xmlns:xlink="http://www.w3.org/1999/xlink" id="svg4248" width="32" height="32" version="1.1"><defs id="defs4250"><radialGradient id="radialGradient3755" cx="24.85" cy="38.909" r="20.203" fx="24.85" fy="38.909" gradientTransform="matrix(1,0,0,0.37,0,24.5124)" gradientUnits="userSpaceOnUse" xlink:href="#linearGradient26113-9-3-1"/><linearGradient id="linearGradient26113-9-3-1"><stop id="stop26115-7-7-9" offset="0" style="stop-color:#000;stop-opacity:1"/><stop id="stop26117-3-7-8" offset="1" style="stop-color:#000;stop-opacity:0"/></linearGradient><linearGradient id="linearGradient26121-3-8-2"><stop id="stop26123-4-7-8" offset="0" style="stop-color:#000;stop-opacity:1"/><stop id="stop26125-3-9-9" offset="1" style="stop-color:#000;stop-opacity:0"/></linearGradient><radialGradient id="radialGradient3972" cx="24.85" cy="38.909" r="20.203" fx="24.85" fy="38.909" gradientTransform="matrix(1.00851,0,0,0.373148,-0.211403,24.39)" gradientUnits="userSpaceOnUse" xlink:href="#linearGradient26121-3-8-2"/><linearGradient id="linearGradient3844"><stop style="stop-color:#fae794;stop-opacity:1" id="stop3846" offset="0"/><stop style="stop-color:#ffcb3d;stop-opacity:1" id="stop3850" offset="1"/></linearGradient><linearGradient id="linearGradient3833" x1="1.5" x2="30.5" y1="16" y2="16" gradientTransform="matrix(0,1,-1,0,32,0)" gradientUnits="userSpaceOnUse" xlink:href="#linearGradient3844"/></defs><metadata id="metadata4253"/><g id="layer1"><path id="path8606" d="m 45.052803,38.908627 a 20.203051,7.4751287 0 1 1 -40.4061012,0 20.203051,7.4751287 0 1 1 40.4061012,0 z" transform="matrix(0.51081599,0,0,0.46595786,3.1704533,10.023687)" style="fill:url(#radialGradient3972);fill-opacity:1;stroke:none;display:inline;filter:url(#filter5927);enable-background:new"/><path style="opacity:.51836697;fill:url(#radialGradient3755);fill-opacity:1;stroke:none;display:inline;filter:url(#filter5788);enable-background:new" id="path8608" d="m 45.052803,38.908627 a 20.203051,7.4751287 0 1 1 -40.4061012,0 20.203051,7.4751287 0 1 1 40.4061012,0 z" transform="matrix(0.69053217,0,0,0.62989172,-1.2951468,3.2832567)"/><path id="path6495" d="M 16.000514,1.5 C 7.992127,1.5 1.5,7.9923496 1.5,15.999818 1.5,24.008018 7.992201,30.5 16.000514,30.5 24.008533,30.5 30.5,24.008018 30.5,15.999818 30.5,7.9923496 24.008533,1.5 16.000514,1.5 l 0,0 z" style="fill:url(#linearGradient3833);fill-opacity:1;fill-rule:nonzero;stroke:none"/><path style="opacity:.91000000000000003;color:#000;fill:none;stroke:#8d7300;stroke-width:1;stroke-opacity:1;marker:none;visibility:visible;display:inline;overflow:visible;enable-background:accumulate" id="path3866" d="m 30.500001,15.999999 c 0,8.000599 -6.499399,14.500001 -14.5,14.500001 -8.0006015,0 -14.5000035,-6.499402 -14.5000015,-14.500001 0,-8.0005975 6.4994,-14.5000065 14.5000015,-14.4999995 8.000601,0 14.5,6.499402 14.5,14.4999995 z"/><path id="path3076" d="M 16 2 C 8.2701871 1.9999932 2 8.2701906 2 16 C 2 16.168178 2.0253633 16.333253 2.03125 16.5 C 2.295928 9.0027282 8.4383652 2.9999933 16 3 C 23.561635 3 29.704072 9.0027285 29.96875 16.5 C 29.974637 16.333253 30 16.168178 30 16 C 30 8.2701906 23.729813 2 16 2 z" style="fill:#fff;fill-opacity:1;fill-rule:nonzero;stroke:none;opacity:.4"/></g><g id="layer2"><g id="g3117" transform="matrix(0.67102636,-0.24423361,0.24423361,0.67102636,-253.01367,-69.607746)" style="display:inline;enable-background:new"><path id="path3121" d="m 307.81646,241.1036 9.10852,-7.75523 -3.44602,6.8357 4.70458,1.71232 -9.10851,7.75525 3.44601,-6.83571 z" style="fill:#333;fill-opacity:1;stroke:none;display:inline;enable-background:new"/></g></g></svg>