<svg xmlns="http://www.w3.org/2000/svg" xmlns:svg="http://www.w3.org/2000/svg" xmlns:xlink="http://www.w3.org/1999/xlink" id="svg5014" width="32" height="32" version="1.1"><defs id="defs5016"><linearGradient id="linearGradient3973"><stop id="stop3975" offset="0" style="stop-color:#000;stop-opacity:1"/><stop id="stop3977" offset="1" style="stop-color:#000;stop-opacity:0"/></linearGradient><linearGradient id="linearGradient3925"><stop style="stop-color:#ebebeb;stop-opacity:1" id="stop3927" offset="0"/><stop style="stop-color:#787878;stop-opacity:1" id="stop3929" offset="1"/></linearGradient><linearGradient id="linearGradient3913"><stop id="stop3915" offset="0" style="stop-color:#000;stop-opacity:1"/><stop style="stop-color:#171717;stop-opacity:1" id="stop3933" offset=".5"/><stop id="stop3917" offset="1" style="stop-color:#232323;stop-opacity:1"/></linearGradient><linearGradient id="linearGradient3119"><stop id="stop3121" offset="0" style="stop-color:#232323;stop-opacity:1"/><stop style="stop-color:#535353;stop-opacity:1" id="stop3123" offset=".838"/><stop style="stop-color:#676767;stop-opacity:1" id="stop3125" offset=".838"/><stop id="stop3127" offset="1" style="stop-color:#676767;stop-opacity:1"/></linearGradient><linearGradient id="linearGradient3100"><stop id="stop3102" offset="0" style="stop-color:#fff;stop-opacity:1"/><stop id="stop3104" offset="1" style="stop-color:#a7a7a7;stop-opacity:1"/></linearGradient><linearGradient id="linearGradient3944-0"><stop id="stop3946-4" offset="0" style="stop-color:#000;stop-opacity:1"/><stop id="stop3948-8" offset="1" style="stop-color:#000;stop-opacity:0"/></linearGradient><linearGradient id="linearGradient3952-7"><stop id="stop3954-8" offset="0" style="stop-color:#000;stop-opacity:1"/><stop id="stop3956-9" offset="1" style="stop-color:#000;stop-opacity:0"/></linearGradient><linearGradient id="linearGradient3960-9"><stop id="stop3962-7" offset="0" style="stop-color:#000;stop-opacity:0"/><stop style="stop-color:#000;stop-opacity:1" id="stop3970-0" offset=".5"/><stop id="stop3964-8" offset="1" style="stop-color:#000;stop-opacity:0"/></linearGradient><linearGradient id="linearGradient3129" x1="11" x2="10.995" y1="19" y2="-1.289" gradientTransform="matrix(1.5254237,0,0,1.5254237,-1.7714325,1.9657814)" gradientUnits="userSpaceOnUse" xlink:href="#linearGradient3119"/><radialGradient id="radialGradient3943" cx="16" cy="20" r="6" fx="16" fy="20" gradientUnits="userSpaceOnUse" xlink:href="#linearGradient3913"/><radialGradient id="radialGradient3961" cx="16" cy="19" r="2" fx="16" fy="19" gradientUnits="userSpaceOnUse" xlink:href="#linearGradient3100"/><linearGradient id="linearGradient4001" x1="10" x2="22" y1="20" y2="20" gradientUnits="userSpaceOnUse" xlink:href="#linearGradient3925"/><linearGradient id="linearGradient4041" x1="10" x2="22" y1="20" y2="20" gradientUnits="userSpaceOnUse" xlink:href="#linearGradient3973"/><linearGradient id="linearGradient4043" x1="10" x2="22" y1="20" y2="20" gradientUnits="userSpaceOnUse" xlink:href="#linearGradient3973"/><linearGradient id="linearGradient4049" x1="10" x2="22" y1="20" y2="20" gradientUnits="userSpaceOnUse" xlink:href="#linearGradient3973"/><linearGradient id="linearGradient4051" x1="10" x2="22" y1="20" y2="20" gradientUnits="userSpaceOnUse" xlink:href="#linearGradient3973"/><radialGradient id="radialGradient4087" cx="14" cy="22" r="6" fx="14" fy="22" gradientTransform="matrix(2,0,0,2,-14,-22)" gradientUnits="userSpaceOnUse" xlink:href="#linearGradient3973"/><radialGradient id="radialGradient4091" cx="14" cy="22" r="6" fx="14" fy="22" gradientTransform="matrix(2,0,0,2,-14,-22)" gradientUnits="userSpaceOnUse" xlink:href="#linearGradient3973"/><radialGradient id="radialGradient4094" cx="9" cy="43.5" r="2" fx="9" fy="43.5" gradientTransform="matrix(1,0,0,0.75,-3,-2.125)" gradientUnits="userSpaceOnUse" xlink:href="#linearGradient3944-0"/><radialGradient id="radialGradient4097" cx="40" cy="43.5" r="2" fx="40" fy="43.5" gradientTransform="matrix(1,0,0,0.75,-14,-2.125)" gradientUnits="userSpaceOnUse" xlink:href="#linearGradient3952-7"/><linearGradient id="linearGradient4100" x1="25" x2="25" y1="45" y2="42" gradientTransform="matrix(1.2727273,0,0,1,-9.454545,-13)" gradientUnits="userSpaceOnUse" xlink:href="#linearGradient3960-9"/></defs><metadata id="metadata5019"/><g id="layer1"><path id="rect3938-8" d="m 6,29 20,0 0,3 -20,0 z" style="opacity:.4;fill:url(#linearGradient4100);fill-opacity:1;stroke:none"/><path id="rect3940-0" d="m 26,29 0,3 0.5,0 C 27.331,32 28,31.331 28,30.5 28,29.669 27.331,29 26.5,29 z" style="opacity:.4;fill:url(#radialGradient4097);fill-opacity:1;stroke:none"/><path id="rect3942-3" d="M 5.40625,29 C 4.6271875,29 4,29.627187 4,30.40625 l 0,0.1875 C 4,31.372813 4.6271875,32 5.40625,32 L 6,32 6,29 z" style="opacity:.4;fill:url(#radialGradient4094);fill-opacity:1;stroke:none"/><path id="rect3145" d="M 5.5,4.955878 5.5,30.5 l 21,0 0,-25.455878 L 24,2.5 7.9965759,2.5 z" style="fill:url(#linearGradient3129);fill-opacity:1;stroke:none;display:inline"/><path id="rect4753" d="m 5.9997524,6.000002 19.9996016,0 0,-0.999999 -19.9996016,0 z" style="opacity:.2;fill:#fff;fill-opacity:1;stroke:none;display:inline"/><path style="opacity:.61000001;fill:none;stroke:#000;stroke-opacity:1;display:inline" id="path4102" d="M 5.5,4.955878 5.5,30.5 l 21,0 0,-25.455878 L 24,2.5 7.9965759,2.5 z"/></g><g id="layer2"><path id="path3938" d="m 22,20 a 6,6 0 1 1 -12,0 6,6 0 1 1 12,0 z" transform="matrix(0,1.3333333,-1.3333333,0,42.666666,-5.333333)" style="opacity:.41000001;fill:none;stroke:#000;stroke-width:1.5;stroke-miterlimit:4;stroke-opacity:1;stroke-dasharray:none"/><path style="fill:url(#linearGradient4001);fill-opacity:1;fill-rule:evenodd;stroke:none" id="path3921" d="m 22,20 a 6,6 0 1 1 -12,0 6,6 0 1 1 12,0 z" transform="matrix(0,1.3333333,-1.3333333,0,42.666666,-5.3333326)"/><path id="path3143" d="m 22,20 a 6,6 0 1 1 -12,0 6,6 0 1 1 12,0 z" transform="matrix(0,1,-1,0,36,0)" style="fill:url(#radialGradient3943);fill-opacity:1;fill-rule:evenodd;stroke:none"/><path style="opacity:.2;fill:#000;fill-opacity:1;stroke:none" id="path3963" d="m 18,20 a 2,2 0 1 1 -4,0 2,2 0 1 1 4,0 z" transform="translate(0,-3)"/><path id="path3945" d="m 16,10 c -3.313708,0 -6,2.686292 -6,6 0,3.313708 2.686292,6 6,6 3.313708,0 6,-2.686292 6,-6 0,-3.313708 -2.686292,-6 -6,-6 z m 0,1 c 2.761424,0 5,2.238576 5,5 0,2.761424 -2.238576,5 -5,5 -2.761424,0 -5,-2.238576 -5,-5 0,-2.761424 2.238576,-5 5,-5 z" style="opacity:.2;fill:#000;fill-opacity:1;fill-rule:evenodd;stroke:none"/><path id="path4080" d="m 16,8 c -4.418278,0 -8,3.581722 -8,8 0,0.170091 0.02079,0.332546 0.03125,0.5 C 8.2924933,12.317655 11.751813,9 16,9 c 4.248187,0 7.707507,3.317655 7.96875,7.5 C 23.97921,16.332546 24,16.170091 24,16 24,11.581722 20.418278,8 16,8 z" style="opacity:.4;fill:#fff;fill-opacity:1;fill-rule:evenodd;stroke:none"/><path id="path3952" d="m 18,20 a 2,2 0 1 1 -4,0 2,2 0 1 1 4,0 z" transform="translate(0,-4)" style="fill:url(#radialGradient3961);fill-opacity:1;stroke:none"/><path style="fill:url(#radialGradient4087);fill-opacity:1;fill-rule:evenodd;stroke:none" id="path3969" d="m 22,20 a 6,6 0 1 1 -12,0 6,6 0 1 1 12,0 z" transform="matrix(0,0.25,-0.25,0,14.5,22.5)"/><g id="g4053" transform="translate(0,-4)"><path style="opacity:.5;fill:url(#linearGradient4043);fill-opacity:1;fill-rule:evenodd;stroke:none" id="path3985" d="m 22,20 c 0,3.313708 -2.686292,6 -6,6 -3.313708,0 -6,-2.686292 -6,-6 0,-3.313708 2.686292,-6 6,-6 3.313708,0 6,2.686292 6,6 z" transform="matrix(0,0.08333333,-0.08333333,0,22.616414,23.616414)"/><path id="path3989" d="m 22,20 c 0,3.313708 -2.686292,6 -6,6 -3.313708,0 -6,-2.686292 -6,-6 0,-3.313708 2.686292,-6 6,-6 3.313708,0 6,2.686292 6,6 z" transform="matrix(0,0.08333333,-0.08333333,0,12.716919,13.716919)" style="opacity:.5;fill:url(#linearGradient4041);fill-opacity:1;fill-rule:evenodd;stroke:none"/><path id="path4025" d="m 22,20 c 0,3.313708 -2.686292,6 -6,6 -3.313708,0 -6,-2.686292 -6,-6 0,-3.313708 2.686292,-6 6,-6 3.313708,0 6,2.686292 6,6 z" transform="matrix(0,0.08333333,0.08333333,0,9.3835867,23.616414)" style="opacity:.5;fill:url(#linearGradient4051);fill-opacity:1;fill-rule:evenodd;stroke:none"/><path style="opacity:.5;fill:url(#linearGradient4049);fill-opacity:1;fill-rule:evenodd;stroke:none" id="path4027" d="m 22,20 c 0,3.313708 -2.686292,6 -6,6 -3.313708,0 -6,-2.686292 -6,-6 0,-3.313708 2.686292,-6 6,-6 3.313708,0 6,2.686292 6,6 z" transform="matrix(0,0.08333333,0.08333333,0,19.283082,13.716919)"/></g><path id="path4075" d="m 16,14 c -1.104569,0 -2,0.895431 -2,2 0,0.172589 0.0214,0.340241 0.0625,0.5 C 14.284463,15.637301 15.068019,15 16,15 c 0.931981,0 1.715537,0.637301 1.9375,1.5 C 17.978604,16.340241 18,16.172589 18,16 18,14.895431 17.104569,14 16,14 z" style="opacity:.4;fill:#fff;fill-opacity:1;stroke:none"/><path style="opacity:.4;fill:#000;fill-opacity:1;fill-rule:evenodd;stroke:none" id="path4085" d="M 16,25 C 11.581722,25 8,21.418278 8,17 8,16.829909 8.02079,16.667454 8.03125,16.5 8.2924933,20.682345 11.751813,24 16,24 20.248187,24 23.707507,20.682345 23.96875,16.5 23.97921,16.667454 24,16.829909 24,17 c 0,4.418278 -3.581722,8 -8,8 z"/><path id="path4089" d="m 22,20 a 6,6 0 1 1 -12,0 6,6 0 1 1 12,0 z" transform="matrix(0,0.25,-0.25,0,27.5,22.5)" style="fill:url(#radialGradient4091);fill-opacity:1;fill-rule:evenodd;stroke:none"/></g></svg>