<svg xmlns="http://www.w3.org/2000/svg" xmlns:svg="http://www.w3.org/2000/svg" xmlns:xlink="http://www.w3.org/1999/xlink" id="svg5400" width="16" height="16" version="1.1"><defs id="defs5402"><clipPath id="clipPath11908-0" clipPathUnits="userSpaceOnUse"><path style="font-size:medium;font-style:normal;font-variant:normal;font-weight:400;font-stretch:normal;text-indent:0;text-align:start;text-decoration:none;line-height:normal;letter-spacing:normal;word-spacing:normal;text-transform:none;direction:ltr;block-progression:tb;writing-mode:lr-tb;text-anchor:start;baseline-shift:baseline;color:#000;fill:#4e9a06;fill-opacity:1;stroke:none;stroke-width:2;marker:none;visibility:visible;display:inline;overflow:visible;enable-background:accumulate;font-family:Sans;-inkscape-font-specification:Sans" id="path11910-2" d="m 432,129 0,1 0,3 0,2 0,7.5 c 0,0 0,1.5 1.5,1.5 l 13,0 c 0,0 1.5,0 1.5,-1.5 l 0,-7.5 0,-2 0,-1 0,-1 -1,0 -5,0 c -0.66667,0 -0.78125,-0.21875 -1.28125,-0.71875 C 440.21875,129.78125 439.33333,129 438,129 l -5,0 -1,0 z"/></clipPath><linearGradient id="linearGradient4968"><stop style="stop-color:#f1e6f4;stop-opacity:1" id="stop4970" offset="0"/><stop id="stop4972" offset="1" style="stop-color:#c9bcce;stop-opacity:1"/></linearGradient><linearGradient id="linearGradient11359"><stop id="stop11361" offset="0" style="stop-color:#d5cbd7;stop-opacity:1"/><stop id="stop11363" offset="1" style="stop-color:#d9bfdf;stop-opacity:1"/></linearGradient><linearGradient id="linearGradient7396" x1="440" x2="440" y1="127" y2="131" gradientTransform="translate(-432,-125)" gradientUnits="userSpaceOnUse" xlink:href="#linearGradient11359"/><linearGradient id="linearGradient7398" x1="352" x2="352" y1="228" y2="276" gradientTransform="matrix(0.38091417,0,0,0.38091417,-116.93905,-88.84701)" gradientUnits="userSpaceOnUse" xlink:href="#linearGradient4968"/></defs><metadata id="metadata5405"/><g id="layer1"><path style="font-size:medium;font-style:normal;font-variant:normal;font-weight:400;font-stretch:normal;text-indent:0;text-align:start;text-decoration:none;line-height:normal;letter-spacing:normal;word-spacing:normal;text-transform:none;direction:ltr;block-progression:tb;writing-mode:lr-tb;text-anchor:start;baseline-shift:baseline;opacity:.3;color:#000;fill:#fff;fill-opacity:1;stroke:none;stroke-width:.57142859999999995;marker:none;visibility:visible;display:inline;overflow:visible;enable-background:accumulate;font-family:Sans;-inkscape-font-specification:Sans" id="path3024" d="m 8.0225244,5.0225243 c -2.2032167,0 -4,1.7967833 -4,4 0,2.2032167 1.7967833,3.9999997 4,3.9999997 2.2032176,0 4.0000006,-1.796783 4.0000006,-3.9999997 0,-2.2032167 -1.796783,-4 -4.0000006,-4 z m -0.34375,2.09375 a 0.250025,0.250025 0 0 1 0.03125,0 0.250025,0.250025 0 0 1 0.03125,0 0.250025,0.250025 0 0 1 0.0625,0 0.250025,0.250025 0 0 1 0.09375,0.03125 0.250025,0.250025 0 0 1 0.09375,0.09375 0.250025,0.250025 0 0 1 0.03125,0.09375 0.250025,0.250025 0 0 1 0,0.03125 l 0,1.75 1.25,0 a 0.250025,0.250025 0 0 1 0.03125,0 0.250025,0.250025 0 0 1 0.09375,0.03125 0.250025,0.250025 0 0 1 0.09375,0.09375 0.250025,0.250025 0 0 1 0.03125,0.0625 0.250025,0.250025 0 0 1 0,0.0625 0.250025,0.250025 0 0 1 0,0.0625 0.250025,0.250025 0 0 1 -0.03125,0.0625 0.250025,0.250025 0 0 1 -0.03125,0.0625 0.250025,0.250025 0 0 1 -0.0625,0.03125 0.250025,0.250025 0 0 1 -0.0625,0.03125 0.250025,0.250025 0 0 1 -0.0625,0 l -1.5,0 -0.25,0 0,-0.25 0,-2 a 0.250025,0.250025 0 0 1 0.03125,-0.09375 0.250025,0.250025 0 0 1 0.03125,-0.0625 0.250025,0.250025 0 0 1 0.03125,-0.03125 0.250025,0.250025 0 0 1 0.0625,-0.0625 z"/><path style="font-size:medium;font-style:normal;font-variant:normal;font-weight:400;font-stretch:normal;text-indent:0;text-align:start;text-decoration:none;line-height:normal;letter-spacing:normal;word-spacing:normal;text-transform:none;direction:ltr;block-progression:tb;writing-mode:lr-tb;text-anchor:start;baseline-shift:baseline;color:#000;fill:url(#linearGradient7396);fill-opacity:1;stroke:none;stroke-width:2;marker:none;visibility:visible;display:inline;overflow:visible;enable-background:accumulate;font-family:Sans;-inkscape-font-specification:Sans" id="path4938-1" d="m 0.50000014,0.49972 0,0.5 0,2.5 14.99999986,0 0,-0.5 0,-0.5 -0.5,0 -5,0 c -0.3880199,0 -0.7106699,-0.0767 -0.9687499,-0.25 -0.25808,-0.17334 -0.41853,-0.38728 -0.65625,-0.625 -0.47545,-0.47545 -1.23698,-1.125 -2.375,-1.125 l -5,0 z"/><path style="font-size:medium;font-style:normal;font-variant:normal;font-weight:400;font-stretch:normal;text-indent:0;text-align:start;text-decoration:none;line-height:normal;letter-spacing:normal;word-spacing:normal;text-transform:none;direction:ltr;block-progression:tb;writing-mode:lr-tb;text-anchor:start;baseline-shift:baseline;color:#000;fill:url(#linearGradient7398);fill-opacity:1;fill-rule:nonzero;stroke:none;stroke-width:2;marker:none;visibility:visible;display:inline;overflow:visible;enable-background:accumulate;font-family:Sans;-inkscape-font-specification:Sans" id="path11441" d="m 0.50000014,2.49972 0,11 c 0,0 -0.003,0.27549 0.125,0.53125 0.12792,0.25576 0.29167,0.46875 0.87499996,0.46875 l 12.9999999,0 c 0,0 0.27551,0.003 0.53125,-0.125 C 15.28699,14.24685 15.5,14.08305 15.5,13.49972 l 0,-11 z"/><path id="rect11912" d="m 1,1.9997253 7,0 2,1 -9,0 z" style="opacity:.41000001;color:#000;fill:#000;fill-opacity:1;stroke:none;stroke-width:1;marker:none;visibility:visible;display:inline;overflow:visible;enable-background:accumulate"/><path id="path11904" d="m 432,129 0,1 0,1 0,2 0,9.5 c 0,0 0,1.5 1.5,1.5 l 13,0 c 0,0 1.5,0 1.5,-1.5 l 0,-9.5 0,-2 0,1 0,-1 -1,0 -5,0 c -0.66667,0 -0.78125,-0.21875 -1.28125,-0.71875 C 440.21875,129.78125 439.33333,129 438,129 l -5,0 z" clip-path="url(#clipPath11908-0)" transform="translate(-432,-129.00028)" style="font-size:medium;font-style:normal;font-variant:normal;font-weight:400;font-stretch:normal;text-indent:0;text-align:start;text-decoration:none;line-height:normal;letter-spacing:normal;word-spacing:normal;text-transform:none;direction:ltr;block-progression:tb;writing-mode:lr-tb;text-anchor:start;baseline-shift:baseline;opacity:.41000001;color:#000;fill:none;stroke:#000;stroke-width:2;stroke-opacity:1;marker:none;visibility:visible;display:inline;overflow:visible;enable-background:accumulate;font-family:Sans;-inkscape-font-specification:Sans"/><path id="path7434" d="M 1,3 1,4 15,4 15,3 z" style="font-size:medium;font-style:normal;font-variant:normal;font-weight:400;font-stretch:normal;text-indent:0;text-align:start;text-decoration:none;line-height:normal;letter-spacing:normal;word-spacing:normal;text-transform:none;direction:ltr;block-progression:tb;writing-mode:lr-tb;text-anchor:start;baseline-shift:baseline;opacity:.1;color:#000;fill:#fff;fill-opacity:1;fill-rule:nonzero;stroke:none;stroke-width:2;marker:none;visibility:visible;display:inline;overflow:visible;enable-background:accumulate;font-family:Sans;-inkscape-font-specification:Sans"/><path id="path3814" d="m 8.0225244,4.0225243 c -2.2032167,0 -4,1.7967833 -4,4 0,2.2032167 1.7967833,3.9999997 4,3.9999997 2.2032176,0 4.0000006,-1.796783 4.0000006,-3.9999997 0,-2.2032167 -1.796783,-4 -4.0000006,-4 z m -0.34375,2.09375 a 0.250025,0.250025 0 0 1 0.03125,0 0.250025,0.250025 0 0 1 0.03125,0 0.250025,0.250025 0 0 1 0.0625,0 0.250025,0.250025 0 0 1 0.09375,0.03125 0.250025,0.250025 0 0 1 0.09375,0.09375 0.250025,0.250025 0 0 1 0.03125,0.09375 0.250025,0.250025 0 0 1 0,0.03125 l 0,1.75 1.25,0 a 0.250025,0.250025 0 0 1 0.03125,0 0.250025,0.250025 0 0 1 0.09375,0.03125 0.250025,0.250025 0 0 1 0.09375,0.09375 0.250025,0.250025 0 0 1 0.03125,0.0625 0.250025,0.250025 0 0 1 0,0.0625 0.250025,0.250025 0 0 1 0,0.0625 0.250025,0.250025 0 0 1 -0.03125,0.0625 0.250025,0.250025 0 0 1 -0.03125,0.0625 0.250025,0.250025 0 0 1 -0.0625,0.03125 0.250025,0.250025 0 0 1 -0.0625,0.03125 0.250025,0.250025 0 0 1 -0.0625,0 l -1.5,0 -0.25,0 0,-0.25 0,-2 a 0.250025,0.250025 0 0 1 0.03125,-0.09375 0.250025,0.250025 0 0 1 0.03125,-0.0625 0.250025,0.250025 0 0 1 0.03125,-0.03125 0.250025,0.250025 0 0 1 0.0625,-0.0625 z" style="font-size:medium;font-style:normal;font-variant:normal;font-weight:400;font-stretch:normal;text-indent:0;text-align:start;text-decoration:none;line-height:normal;letter-spacing:normal;word-spacing:normal;text-transform:none;direction:ltr;block-progression:tb;writing-mode:lr-tb;text-anchor:start;baseline-shift:baseline;opacity:.4;color:#000;fill:#000;fill-opacity:1;stroke:none;stroke-width:.57142859999999995;marker:none;visibility:visible;display:inline;overflow:visible;enable-background:accumulate;font-family:Sans;-inkscape-font-specification:Sans"/></g></svg>