<svg xmlns="http://www.w3.org/2000/svg" xmlns:svg="http://www.w3.org/2000/svg" xmlns:xlink="http://www.w3.org/1999/xlink" id="svg5400" width="16" height="16" version="1.1"><defs id="defs5402"><linearGradient id="linearGradient2378"><stop id="stop2380" offset="0" style="stop-color:#fff;stop-opacity:1"/><stop id="stop4146" offset=".25" style="stop-color:#fefede;stop-opacity:.91836733"/><stop id="stop2386" offset=".5" style="stop-color:#f5f328;stop-opacity:1"/><stop id="stop10317" offset="1" style="stop-color:#f5f32d;stop-opacity:.12234043"/></linearGradient><linearGradient id="linearGradient5621-0"><stop style="stop-color:#a348b1;stop-opacity:1" id="stop5623-0" offset="0"/><stop style="stop-color:#bd32d2;stop-opacity:1" id="stop5625-3" offset="1"/></linearGradient><linearGradient id="linearGradient3815"><stop style="stop-color:#fff;stop-opacity:1" id="stop3817" offset="0"/><stop style="stop-color:#fff;stop-opacity:0" id="stop3819" offset="1"/></linearGradient><linearGradient id="linearGradient3963"><stop style="stop-color:#f0d8ff;stop-opacity:1" id="stop3965" offset="0"/><stop style="stop-color:#fcf3ff;stop-opacity:1" id="stop3967" offset="1"/></linearGradient><linearGradient id="linearGradient3979"><stop id="stop3981" offset="0" style="stop-color:#7c239f;stop-opacity:1"/><stop id="stop3983" offset="1" style="stop-color:#ab1bc2;stop-opacity:1"/></linearGradient><linearGradient id="linearGradient4628" x1="4.5" x2="15.5" y1="10" y2="10" gradientTransform="translate(-18,-2)" gradientUnits="userSpaceOnUse" xlink:href="#linearGradient5621-0"/><linearGradient id="linearGradient4630" x1="-15" x2="-3" y1="9" y2="9" gradientTransform="translate(1,-1)" gradientUnits="userSpaceOnUse" xlink:href="#linearGradient3979"/><linearGradient id="linearGradient4632" x1="5" x2="15" y1="10" y2="10" gradientTransform="matrix(0,1,-1,0,18,-2)" gradientUnits="userSpaceOnUse" xlink:href="#linearGradient3815"/><linearGradient id="linearGradient4634" x1="8.75" x2="8.75" y1="12.25" y2="6" gradientTransform="translate(-1,-1)" gradientUnits="userSpaceOnUse" xlink:href="#linearGradient3963"/><radialGradient id="radialGradient4636" cx="38.659" cy="9.341" r="8.342" fx="38.659" fy="9.341" gradientUnits="userSpaceOnUse" xlink:href="#linearGradient2378"/></defs><metadata id="metadata5405"/><g style="display:inline" id="layer2"><g id="layer1-0"><g id="g4050" transform="translate(-1,2)"><rect id="rect3000" width="11" height="11" x="-13.5" y="2.5" transform="matrix(0,-1,1,0,0,0)" style="fill:url(#linearGradient4628);fill-opacity:1;stroke:none"/><rect style="fill:none;stroke:url(#linearGradient4630);stroke-linejoin:round;stroke-opacity:1" id="rect3778" width="11" height="11" x="-13.5" y="2.5" transform="matrix(0,-1,1,0,0,0)"/><path id="rect3794" d="M 13,3 3,3 3,13 13,13 13,3 z m -1,1 0,8 -8,0 0,-8 8,0 z" style="opacity:.2;fill:url(#linearGradient4632);fill-opacity:1;stroke:none"/><path id="path3807" d="M 3,3 3,4 13,4 13,3 3,3 z" style="opacity:.2;fill:#fff;fill-opacity:1;stroke:none"/><path style="opacity:.3;fill:#000;fill-opacity:1;stroke:none" id="path3953" d="M 6,6 6,7.5 6,9.78125 C 5.918628,9.764599 5.8362945,9.75 5.75,9.75 5.0596441,9.75 4.5,10.309644 4.5,11 c 0,0.690356 0.5596441,1.25 1.25,1.25 C 6.4403559,12.25 7,11.690356 7,11 l 0,-3.5 3,0 0,2.28125 C 9.918628,9.764599 9.836294,9.75 9.75,9.75 9.059644,9.75 8.5,10.309644 8.5,11 c 0,0.690356 0.559644,1.25 1.25,1.25 C 10.440356,12.25 11,11.690356 11,11 L 11,7.5 11,6 10,6 7,6 6,6 z"/><path id="path3940" d="M 6,5 6,6.5 6,8.78125 C 5.918628,8.7645989 5.8362945,8.75 5.75,8.75 5.0596441,8.75 4.5,9.309644 4.5,10 c 0,0.690356 0.5596441,1.25 1.25,1.25 C 6.4403559,11.25 7,10.690356 7,10 l 0,-3.5 3,0 0,2.28125 C 9.918628,8.7645989 9.836294,8.75 9.75,8.75 9.059644,8.75 8.5,9.309644 8.5,10 c 0,0.690356 0.559644,1.25 1.25,1.25 C 10.440356,11.25 11,10.690356 11,10 L 11,6.5 11,5 10,5 7,5 6,5 z" style="fill:url(#linearGradient4634);fill-opacity:1;stroke:none"/></g><g id="g11289" transform="translate(-17.207104,-421.7727)"><g id="g11291" transform="translate(1,-2)"><path id="path11293" d="m 47.000506,9.3411446 a 8.341651,8.341651 0 1 1 -16.683302,0 8.341651,8.341651 0 1 1 16.683302,0 z" transform="matrix(0.6381964,0,0,0.6527009,1.8280575,423.27802)" style="fill:url(#radialGradient4636);fill-opacity:1;fill-rule:evenodd;stroke:none"/><path id="path11295" d="m 33.71875,0.03125 c -0.46837,-0.02427825 -1.008512,0.01404767 -1.5625,0.25 -1.129977,0.48127465 -1.700725,1.4483493 -1.9375,2.0625 -0.236775,0.6141507 -0.281018,1.0549602 -0.3125,1.46875 -0.06296,0.8275796 0.01008,1.5217193 0.0625,2.1875 0.03304,0.4196326 0.06923,0.7273675 0.09375,1.0625 -0.319841,0.1605167 -0.619458,0.3286599 -1.03125,0.53125 -0.610226,0.3002144 -1.253218,0.6168944 -1.9375,1.09375 -0.342141,0.2384278 -0.720058,0.4999648 -1.125,1 -0.404942,0.500035 -0.919606,1.417742 -0.8125,2.625 0.108676,1.224957 0.83472,2.054022 1.34375,2.46875 0.50903,0.414728 0.929157,0.59112 1.3125,0.75 0.766686,0.31776 1.443306,0.466599 2.09375,0.625 0.423819,0.103212 0.72877,0.16643 1.0625,0.25 0.05591,0.355577 0.119142,0.696752 0.1875,1.15625 0.09984,0.671109 0.191872,1.391649 0.4375,2.1875 0.122814,0.397926 0.273261,0.807176 0.625,1.34375 0.351739,0.536574 1.042902,1.323794 2.21875,1.59375 1.189482,0.273085 2.196543,-0.144295 2.75,-0.5 0.553457,-0.355705 0.855882,-0.716081 1.125,-1.03125 0.538236,-0.630338 0.901965,-1.215335 1.25,-1.78125 0.224135,-0.36445 0.38361,-0.619366 0.5625,-0.90625 0.357545,0.05568 0.696337,0.112092 1.15625,0.1875 0.671715,0.110135 1.385879,0.209184 2.21875,0.21875 0.416435,0.0048 0.85184,0.01304 1.46875,-0.15625 0.61691,-0.169294 1.597608,-0.588383 2.21875,-1.625 0.629824,-1.051107 0.511312,-2.177123 0.34375,-2.8125 -0.167562,-0.635377 -0.377164,-1.02135 -0.59375,-1.375 -0.433171,-0.7073 -0.91187,-1.241553 -1.34375,-1.75 -0.276147,-0.325105 -0.469802,-0.553142 -0.6875,-0.8125 0.161407,-0.316481 0.320983,-0.6265922 0.53125,-1.03125 0.311591,-0.5996545 0.63911,-1.2121538 0.90625,-2 C 46.47732,6.9185769 46.595828,6.484287 46.625,5.84375 46.654172,5.203213 46.538668,4.1550279 45.75,3.25 44.950066,2.3320462 43.904222,2.1026594 43.25,2.0625 c -0.654222,-0.040159 -1.096889,0.03051 -1.5,0.125 -0.806222,0.1889801 -1.478143,0.4689271 -2.09375,0.71875 -0.40176,0.1630405 -0.683141,0.2800004 -1,0.40625 C 38.401264,3.0584702 38.169883,2.830184 37.84375,2.5 37.367094,2.0174234 36.855154,1.4970295 36.1875,1 35.853673,0.75148523 35.505496,0.47536814 34.90625,0.25 34.606627,0.13731593 34.18712,0.05552825 33.71875,0.03125 z" transform="matrix(0.3735602,0.1529503,-0.1660098,0.3441734,14.555208,419.81907)" style="color:#000;fill:#edd400;fill-opacity:1;fill-rule:evenodd;stroke:none;stroke-width:.5;marker:none;visibility:visible;display:inline;overflow:visible"/><path id="path11297" d="m 44.503206,15.464878 c -1.191831,1.966747 -3.665135,-0.99033 -5.763376,-0.04909 -2.024585,0.908204 -1.431674,4.753003 -3.591868,4.245718 -2.238783,-0.52574 -0.190729,-3.79178 -1.734298,-5.496465 -1.489383,-1.644844 -4.962785,0.107157 -5.147865,-2.10407 -0.191814,-2.2916723 3.547258,-1.353118 4.691521,-3.3479161 1.104095,-1.9247728 -1.635497,-4.6867762 0.410312,-5.5461045 2.120236,-0.8905915 2.383055,2.9555064 4.633817,3.4273387 2.171752,0.4552692 3.951993,-3.0037432 5.401452,-1.3236111 1.502192,1.7412568 -2.074449,3.1797221 -1.827664,5.466128 0.238121,2.206145 4.077962,2.830361 2.927969,4.728068 z" transform="matrix(0.3831859,0.1529503,-0.1702874,0.3441734,14.241265,419.81907)" style="color:#000;fill:#fff;fill-opacity:1;fill-rule:evenodd;stroke:none;stroke-width:.5;marker:none;visibility:visible;display:inline;overflow:visible"/></g><rect id="rect11299" width="1" height="1" x="27" y="424" style="fill:#fff;fill-opacity:1;stroke:none"/><rect id="rect11301" width="1" height="1" x="24" y="426" style="fill:#fff;fill-opacity:1;stroke:none"/><rect id="rect11303" width="1" height="1" x="30" y="426" style="fill:#fff;fill-opacity:1;stroke:none"/><rect id="rect11305" width="1" height="1" x="29" y="429" style="fill:#fff;fill-opacity:1;stroke:none"/><rect id="rect11307" width="1" height="1" x="25" y="429" style="fill:#fff;fill-opacity:1;stroke:none"/></g></g></g></svg>