<svg xmlns="http://www.w3.org/2000/svg" xmlns:svg="http://www.w3.org/2000/svg" xmlns:xlink="http://www.w3.org/1999/xlink" id="svg4161" width="64" height="64" version="1.1"><defs id="defs4163"><linearGradient id="linearGradient3905"><stop id="stop3907" offset="0" style="stop-color:#fff;stop-opacity:1"/><stop id="stop3909" offset="1" style="stop-color:#fff;stop-opacity:0"/></linearGradient><linearGradient id="linearGradient3688-166-749-4-0-3-8"><stop style="stop-color:#181818;stop-opacity:1" id="stop2883-4-0-1-8" offset="0"/><stop style="stop-color:#181818;stop-opacity:0" id="stop2885-9-2-9-6" offset="1"/></linearGradient><linearGradient id="linearGradient3688-464-309-9-2-4-2"><stop style="stop-color:#181818;stop-opacity:1" id="stop2889-7-9-6-9" offset="0"/><stop style="stop-color:#181818;stop-opacity:0" id="stop2891-6-6-1-7" offset="1"/></linearGradient><linearGradient id="linearGradient3702-501-757-8-4-1-1"><stop style="stop-color:#181818;stop-opacity:0" id="stop2895-8-9-9-1" offset="0"/><stop style="stop-color:#181818;stop-opacity:1" id="stop2897-7-8-7-7" offset=".5"/><stop style="stop-color:#181818;stop-opacity:0" id="stop2899-4-5-1-5" offset="1"/></linearGradient><linearGradient id="linearGradient3897" x1="25.058" x2="25.058" y1="47.028" y2="39.999" gradientTransform="matrix(1.5789502,0,0,0.7142857,-5.894751,27.928572)" gradientUnits="userSpaceOnUse" xlink:href="#linearGradient3702-501-757-8-4-1-1"/><radialGradient id="radialGradient3900" cx="4.993" cy="43.5" r="2.5" fx="4.993" fy="43.5" gradientTransform="matrix(3.1638751,0,0,0.99999998,-25.702995,-102.5)" gradientUnits="userSpaceOnUse" xlink:href="#linearGradient3688-464-309-9-2-4-2"/><radialGradient id="radialGradient3903" cx="4.993" cy="43.5" r="2.5" fx="4.993" fy="43.5" gradientTransform="matrix(3.1638751,0,0,0.99999998,38.297112,15.500001)" gradientUnits="userSpaceOnUse" xlink:href="#linearGradient3688-166-749-4-0-3-8"/><linearGradient id="linearGradient3911" x1="32" x2="32" y1="4" y2="60" gradientUnits="userSpaceOnUse" xlink:href="#linearGradient3905"/><linearGradient id="outerBackgroundGradient-0"><stop id="stop3864-8-6-9" offset="0" style="stop-color:#3f3f3f;stop-opacity:1"/><stop style="stop-color:#595959;stop-opacity:1" id="stop4668" offset=".5"/><stop style="stop-color:#3f3f3f;stop-opacity:1" id="stop4666" offset=".5"/><stop id="stop3866-9-1-6" offset="1" style="stop-color:#595959;stop-opacity:1"/></linearGradient><linearGradient id="linearGradient4163"><stop style="stop-color:#f55c11;stop-opacity:1" id="stop4165" offset="0"/><stop id="stop4672" offset=".5" style="stop-color:#ff8431;stop-opacity:1"/><stop id="stop4670" offset="1" style="stop-color:#ee7d1a;stop-opacity:1"/></linearGradient><linearGradient id="linearGradient4215" x1="4.5" x2="59.5" y1="32" y2="32" gradientTransform="matrix(0,-1,-1,0,64,64)" gradientUnits="userSpaceOnUse" xlink:href="#outerBackgroundGradient-0"/><linearGradient id="linearGradient4229" x1="4.5" x2="59.5" y1="32" y2="32" gradientTransform="matrix(0,-1,-1,0,64,64)" gradientUnits="userSpaceOnUse" xlink:href="#linearGradient4163"/></defs><metadata id="metadata4166"/><g style="display:inline" id="layer1"><rect style="opacity:.6;fill:url(#radialGradient3903);fill-opacity:1;stroke:none" id="rect2801-5-5-7-9" width="7.895" height="5" x="54.105" y="56.5"/><rect style="opacity:.6;fill:url(#radialGradient3900);fill-opacity:1;stroke:none" id="rect3696-3-0-3-7" width="7.895" height="5" x="-9.895" y="-61.5" transform="scale(-1,-1)"/><rect style="opacity:.6;fill:url(#linearGradient3897);fill-opacity:1;stroke:none" id="rect3700-5-6-8-4" width="44.211" height="5" x="9.895" y="56.5"/><path id="rect5505-21-3-8-5-2" d="M 7.5 4.5 C 5.838 4.5 4.5 5.838 4.5 7.5 L 4.5 56.5 C 4.5 58.162 5.838 59.5 7.5 59.5 L 32 59.5 L 32 32 L 59.5 32 L 59.5 7.5 C 59.5 5.838 58.162 4.5 56.5 4.5 L 7.5 4.5 z" style="color:#000;fill:url(#linearGradient4215);fill-opacity:1;fill-rule:nonzero;stroke:none;stroke-width:.99999994000000003;marker:none;visibility:visible;display:inline;overflow:visible;enable-background:accumulate"/><path id="rect4224" d="M 32 32 L 32 59.5 L 56.5 59.5 C 58.162 59.5 59.5 58.162 59.5 56.5 L 59.5 32 L 32 32 z" style="color:#000;fill:url(#linearGradient4229);fill-opacity:1;fill-rule:nonzero;stroke:none;stroke-width:.99999994000000003;marker:none;visibility:visible;display:inline;overflow:visible;enable-background:accumulate"/><rect id="rect6741-5-0-2-3" width="53" height="53.142" x="5.5" y="5.429" rx="2" ry="2" style="opacity:.1;fill:none;stroke:url(#linearGradient3911);stroke-width:1;stroke-linecap:round;stroke-linejoin:round;stroke-miterlimit:4;stroke-opacity:1;stroke-dasharray:none;stroke-dashoffset:0"/><rect id="rect5505-21-3-8-9-1-1" width="55" height="55" x="4.5" y="4.5" rx="3" ry="3" style="opacity:.61000001;color:#000;fill:none;stroke:#000;stroke-width:1;stroke-linecap:round;stroke-linejoin:round;stroke-miterlimit:4;stroke-opacity:1;stroke-dasharray:none;stroke-dashoffset:0;marker:none;visibility:visible;display:inline;overflow:visible;enable-background:accumulate"/><path id="rect3932" d="M 7.5,5 C 6.1063514,5 5,6.1063514 5,7.5 l 0,1 C 5,7.1063514 6.1063514,6 7.5,6 l 49,0 C 57.893649,6 59,7.1063514 59,8.5 l 0,-1 C 59,6.1063514 57.893649,5 56.5,5 l -49,0 z" style="opacity:.15;color:#000;fill:#fff;fill-opacity:1;fill-rule:nonzero;stroke:none;stroke-width:.99999994;marker:none;visibility:visible;display:inline;overflow:visible;enable-background:accumulate"/><path style="opacity:.15;color:#000;fill:#fff;fill-opacity:1;fill-rule:nonzero;stroke:none;stroke-width:.99999994;marker:none;visibility:visible;display:inline;overflow:visible;enable-background:accumulate" id="path3946" d="M 7.5,59 C 6.1063514,59 5,57.893649 5,56.5 l 0,-1 C 5,56.893649 6.1063514,58 7.5,58 l 49,0 c 1.393649,0 2.5,-1.106351 2.5,-2.5 l 0,1 c 0,1.393649 -1.106351,2.5 -2.5,2.5 l -49,0 z"/><path id="path4260" d="M 7.5 5 C 6.1063514 5 5 6.1063514 5 7.5 L 5 8.5 L 5 31 L 6 31 L 6 7.5 C 6 7.0644847 6.1214113 6.6669069 6.3125 6.3125 C 6.6669069 6.1214113 7.0644848 6 7.5 6 L 31 6 L 31 5 L 8.5 5 L 7.5 5 z M 32 5 L 32 6 L 32 31 L 33 31 L 33 6 L 56.5 6 C 57.893649 6 59 7.1063514 59 8.5 L 59 7.5 C 59 6.1063514 57.893649 5 56.5 5 L 33 5 L 32 5 z M 5 32 L 5 33 L 5 56.5 C 5 57.893649 6.106351 59 7.5 59 L 8.5 59 C 7.106351 59 6 57.893649 6 56.5 L 6 33 L 31 33 L 31 32 L 6 32 L 5 32 z M 32 32 L 32 59 L 33 59 L 33 33 L 59 33 L 59 32 L 32 32 z" style="opacity:.15;color:#000;fill:#fff;fill-opacity:1;fill-rule:nonzero;stroke:none;stroke-width:.99999994;marker:none;visibility:visible;display:inline;overflow:visible;enable-background:accumulate"/></g><g style="display:inline" id="layer2"><path id="path4355" d="m 51,17 0,3 -11,0 0,-3 z" style="font-size:9.881423px;font-style:normal;font-variant:normal;font-weight:400;font-stretch:normal;line-height:125%;letter-spacing:0;word-spacing:0;opacity:.2;fill:#000;fill-opacity:1;stroke:none;display:inline;enable-background:new;font-family:Helvetica;-inkscape-font-specification:Helvetica"/><path id="path4357" d="m 12.00005,40 0,1.375 c 0,0.37969 0.15742,0.71992 0.40625,0.96875 0.0311,0.0311 0.0598,0.0657 0.0937,0.0937 l 3.0625,3.0625 -3.0625,3.0625 c -0.30559,0.25219 -0.5,0.63534 -0.5,1.0625 l 0,1.375 1.375,0 c 0.42716,0 0.8103,-0.19441 1.0625,-0.5 l 3.0625,-3.0625 3.0625,3.0625 0.0937,0.0937 C 20.90512,50.84257 21.24535,51 21.62505,51 l 1.375,0 0,-1.375 c 0,-0.3797 -0.15743,-0.71993 -0.40625,-0.96875 -0.0311,-0.0311 -0.0598,-0.0657 -0.0937,-0.0937 l -3.0625,-3.0625 3.15625,-3.15625 c 0.24877,-0.24888 0.4062,-0.58911 0.4062,-0.9688 l 0,-1.375 -1.375,0 c -0.42716,0 -0.8103,0.19441 -1.0625,0.5 l -3.0625,3.0625 -3.0625,-3.0625 c -0.028,-0.034 -0.0627,-0.0626 -0.0937,-0.0937 C 14.09497,40.15742 13.75475,40 13.37505,40 l -1.375,0 z" style="font-size:medium;font-style:normal;font-variant:normal;font-weight:400;font-stretch:normal;text-indent:0;text-align:start;text-decoration:none;line-height:normal;letter-spacing:normal;word-spacing:normal;text-transform:none;direction:ltr;block-progression:tb;writing-mode:lr-tb;text-anchor:start;baseline-shift:baseline;opacity:.2;color:#000;fill:#000;fill-opacity:1;stroke:none;stroke-width:10.99999809;marker:none;visibility:visible;display:inline;overflow:visible;enable-background:new;font-family:Sans;-inkscape-font-specification:Sans"/><path id="path4359" d="m 16.00005,13 0,4 -4,0 0,3 4,0 0,4 3,0 0,-4 4,0 0,-3 -4,0 0,-4 -3,0 z" style="opacity:.2;color:#000;fill:#000;fill-opacity:1;fill-rule:nonzero;stroke:none;stroke-width:2;marker:none;visibility:visible;display:inline;overflow:visible;enable-background:new"/><path id="rect4361" d="m 40,41 0,3 11,0 0,-3 -11,0 z m 0,6 0,3 11,0 0,-3 -11,0 z" style="opacity:.2;color:#000;fill:#000;fill-opacity:1;fill-rule:nonzero;stroke:none;stroke-width:2;marker:none;visibility:visible;display:inline;overflow:visible;enable-background:new"/><path style="font-size:9.881423px;font-style:normal;font-variant:normal;font-weight:400;font-stretch:normal;line-height:125%;letter-spacing:0;word-spacing:0;fill:#fff;fill-opacity:1;stroke:none;display:inline;enable-background:new;font-family:Helvetica;-inkscape-font-specification:Helvetica" id="path4323" d="m 51,16 0,3 -11,0 0,-3 z"/><path style="font-size:medium;font-style:normal;font-variant:normal;font-weight:400;font-stretch:normal;text-indent:0;text-align:start;text-decoration:none;line-height:normal;letter-spacing:normal;word-spacing:normal;text-transform:none;direction:ltr;block-progression:tb;writing-mode:lr-tb;text-anchor:start;baseline-shift:baseline;color:#000;fill:#fff;fill-opacity:1;stroke:none;stroke-width:10.99999809;marker:none;visibility:visible;display:inline;overflow:visible;enable-background:new;font-family:Sans;-inkscape-font-specification:Sans" id="path4325" d="m 12.00005,39 0,1.375 c 0,0.37969 0.15742,0.71992 0.40625,0.96875 0.0311,0.0311 0.0598,0.0657 0.0937,0.0937 l 3.0625,3.0625 -3.0625,3.0625 c -0.30559,0.25219 -0.5,0.63534 -0.5,1.0625 l 0,1.375 1.375,0 c 0.42716,0 0.8103,-0.19441 1.0625,-0.5 l 3.0625,-3.0625 3.0625,3.0625 0.0937,0.0937 C 20.90512,49.84257 21.24535,50 21.62505,50 l 1.375,0 0,-1.375 c 0,-0.3797 -0.15743,-0.71993 -0.40625,-0.96875 -0.0311,-0.0311 -0.0598,-0.0657 -0.0937,-0.0937 l -3.0625,-3.0625 3.15625,-3.15625 c 0.24877,-0.24888 0.4062,-0.58911 0.4062,-0.9688 l 0,-1.375 -1.375,0 c -0.42716,0 -0.8103,0.19441 -1.0625,0.5 l -3.0625,3.0625 -3.0625,-3.0625 c -0.028,-0.034 -0.0627,-0.0626 -0.0937,-0.0937 C 14.09497,39.15742 13.75475,39 13.37505,39 l -1.375,0 z"/><path style="color:#000;fill:#fff;fill-opacity:1;fill-rule:nonzero;stroke:none;stroke-width:2;marker:none;visibility:visible;display:inline;overflow:visible;enable-background:new" id="path4327" d="m 16.00005,12 0,4 -4,0 0,3 4,0 0,4 3,0 0,-4 4,0 0,-3 -4,0 0,-4 -3,0 z"/><path id="rect4329" d="m 40,40 0,3 11,0 0,-3 -11,0 z m 0,6 0,3 11,0 0,-3 -11,0 z" style="color:#000;fill:#fff;fill-opacity:1;fill-rule:nonzero;stroke:none;stroke-width:2;marker:none;visibility:visible;display:inline;overflow:visible;enable-background:new"/><path id="rect4338" d="m 30.999999,5.0000019 0,26.0000001 -26.0000004,0 0,1 26.0000004,0 0,27 1,0 0,-27 27,0 0,-1 -27,0 0,-26.0000001 z" style="opacity:.2;fill:#000;fill-opacity:1;stroke:none;display:inline;enable-background:new"/></g></svg>