<svg xmlns="http://www.w3.org/2000/svg" xmlns:svg="http://www.w3.org/2000/svg" xmlns:xlink="http://www.w3.org/1999/xlink" id="svg5521" width="64" height="64" version="1.1"><defs id="defs5523"><linearGradient id="linearGradient3904"><stop id="stop3906" offset="0" style="stop-color:#000;stop-opacity:1"/><stop id="stop3908" offset="1" style="stop-color:#000;stop-opacity:0"/></linearGradient><linearGradient id="linearGradient3892"><stop id="stop3894" offset="0" style="stop-color:#fff;stop-opacity:1"/><stop id="stop3896" offset="1" style="stop-color:#fff;stop-opacity:0"/></linearGradient><linearGradient id="linearGradient7335"><stop id="stop7337" offset="0" style="stop-color:#737373;stop-opacity:1"/><stop id="stop7339" offset="1" style="stop-color:#848484;stop-opacity:1"/></linearGradient><linearGradient id="linearGradient7327"><stop id="stop7329" offset="0" style="stop-color:#fff;stop-opacity:1"/><stop id="stop7331" offset="1" style="stop-color:#fff;stop-opacity:0"/></linearGradient><linearGradient id="linearGradient7313"><stop id="stop7315" offset="0" style="stop-color:#fff;stop-opacity:1"/><stop id="stop7317" offset="1" style="stop-color:#fff;stop-opacity:0"/></linearGradient><linearGradient id="linearGradient7264"><stop id="stop7266" offset="0" style="stop-color:#fff;stop-opacity:1"/><stop id="stop7268" offset="1" style="stop-color:#fff;stop-opacity:0"/></linearGradient><linearGradient id="linearGradient5048-7"><stop style="stop-color:black;stop-opacity:0" id="stop5050-8" offset="0"/><stop id="stop5056-0" offset=".5" style="stop-color:black;stop-opacity:1"/><stop style="stop-color:black;stop-opacity:0" id="stop5052-6" offset="1"/></linearGradient><linearGradient id="linearGradient5060-6"><stop style="stop-color:black;stop-opacity:1" id="stop5062-6" offset="0"/><stop style="stop-color:black;stop-opacity:0" id="stop5064-2" offset="1"/></linearGradient><linearGradient id="linearGradient5491-8"><stop style="stop-color:#2b2b2b;stop-opacity:1" id="stop5493-1" offset="0"/><stop id="stop5501-4" offset=".25" style="stop-color:#858585;stop-opacity:1"/><stop id="stop5499-3" offset=".624" style="stop-color:#b1b1b1;stop-opacity:1"/><stop style="stop-color:#fff;stop-opacity:1" id="stop5771-3" offset=".797"/><stop style="stop-color:#979797;stop-opacity:1" id="stop5495-2" offset="1"/></linearGradient><linearGradient id="linearGradient5534-6"><stop style="stop-color:#414141;stop-opacity:1" id="stop5536-3" offset="0"/><stop style="stop-color:#bebebe;stop-opacity:1" id="stop5538-3" offset="1"/></linearGradient><linearGradient id="linearGradient5785-4"><stop style="stop-color:#b3a1a1;stop-opacity:1" id="stop5787-5" offset="0"/><stop style="stop-color:#676767;stop-opacity:1" id="stop5789-7" offset="1"/></linearGradient><linearGradient id="linearGradient5508-3"><stop style="stop-color:white;stop-opacity:1" id="stop5510-6" offset="0"/><stop style="stop-color:white;stop-opacity:0" id="stop5512-2" offset="1"/></linearGradient><linearGradient id="linearGradient5737-4"><stop style="stop-color:#a9a9a9;stop-opacity:1" id="stop5739-8" offset="0"/><stop style="stop-color:#cecece;stop-opacity:1" id="stop5741-1" offset="1"/></linearGradient><linearGradient id="linearGradient5390"><stop id="stop5392" offset="0" style="stop-color:#f8f8f8;stop-opacity:1"/><stop id="stop5394" offset="1" style="stop-color:#c6c6c6;stop-opacity:1"/></linearGradient><filter id="filter5733-3" width="1.153" height="1.715" x="-.076" y="-.357" color-interpolation-filters="sRGB"><feGaussianBlur id="feGaussianBlur5735-1" stdDeviation=".6"/></filter><linearGradient id="linearGradient4646-7-4-3-5"><stop style="stop-color:#f9f9f9;stop-opacity:1" id="stop4648-8-0-3-6" offset="0"/><stop style="stop-color:#d8d8d8;stop-opacity:1" id="stop4650-1-7-3-4" offset="1"/></linearGradient><linearGradient id="linearGradient5817-4"><stop style="stop-color:#fff;stop-opacity:1" id="stop5819-6" offset="0"/><stop style="stop-color:#fff;stop-opacity:0" id="stop5821-9" offset="1"/></linearGradient><linearGradient id="linearGradient4632-0-6-4-3-4"><stop style="stop-color:#b4cee1;stop-opacity:1" id="stop4634-4-4-7-7-4" offset="0"/><stop id="stop5298" offset=".5" style="stop-color:#5d9fcd;stop-opacity:1"/><stop style="stop-color:#7aaacb;stop-opacity:1" id="stop4636-3-1-5-1-3" offset="1"/></linearGradient><linearGradient id="linearGradient5319"><stop id="stop5321" offset="0" style="stop-color:#fff;stop-opacity:1"/><stop id="stop5323" offset="1" style="stop-color:#fff;stop-opacity:0"/></linearGradient><linearGradient id="linearGradient6832-0"><stop style="stop-color:#505050;stop-opacity:1" id="stop6834-7" offset="0"/><stop style="stop-color:#737373;stop-opacity:1" id="stop6836-0" offset="1"/></linearGradient><linearGradient id="linearGradient6587" x1="23.609" x2="22.909" y1="22.629" y2="51.318" gradientTransform="matrix(-0.59815332,0,0.37242799,0.62520932,25.390874,33.043202)" gradientUnits="userSpaceOnUse" xlink:href="#linearGradient4632-0-6-4-3-4"/><linearGradient id="linearGradient6604" x1="10.412" x2="11.412" y1="26.908" y2="35.908" gradientTransform="matrix(1.3333333,0,0,1.3333333,2.6474097,-0.0893597)" gradientUnits="userSpaceOnUse" xlink:href="#linearGradient5390"/><radialGradient id="radialGradient6689" cx="605.714" cy="486.648" r="117.143" fx="605.714" fy="486.648" gradientTransform="matrix(-0.07409908,0,0,0.03726573,55.411944,39.745752)" gradientUnits="userSpaceOnUse" xlink:href="#linearGradient5060-6"/><radialGradient id="radialGradient6692" cx="605.714" cy="486.648" r="117.143" fx="605.714" fy="486.648" gradientTransform="matrix(0.07409908,0,0,0.03726573,1.8780547,39.745752)" gradientUnits="userSpaceOnUse" xlink:href="#linearGradient5060-6"/><linearGradient id="linearGradient6695" x1="302.857" x2="302.857" y1="366.648" y2="609.505" gradientTransform="matrix(0.07409908,0,0,0.03726573,1.863472,39.745752)" gradientUnits="userSpaceOnUse" xlink:href="#linearGradient5048-7"/><linearGradient id="linearGradient6701" x1="11.172" x2="11.149" y1="35.323" y2="39.006" gradientTransform="matrix(1.3333333,0,0,1.3333333,0.5303301,2.4545065)" gradientUnits="userSpaceOnUse" xlink:href="#linearGradient5319"/><linearGradient id="linearGradient6703" x1="24.612" x2="28.121" y1="19.318" y2="32.114" gradientTransform="matrix(-0.59815332,0,0.37242799,0.62520932,25.390874,33.043202)" gradientUnits="userSpaceOnUse" xlink:href="#linearGradient4646-7-4-3-5"/><linearGradient id="linearGradient6707" x1="21.5" x2="24.025" y1="21.859" y2="40.065" gradientTransform="matrix(1.3333333,0,0,1.3314426,-0.8266965,2.8525733)" gradientUnits="userSpaceOnUse" xlink:href="#linearGradient5508-3"/><linearGradient id="linearGradient6709" x1="38.907" x2="35.315" y1="38.791" y2="23.059" gradientUnits="userSpaceOnUse" xlink:href="#linearGradient5534-6"/><radialGradient id="radialGradient6711" cx="30.128" cy="29.84" r="6.999" fx="30.128" fy="29.84" gradientTransform="matrix(1.7481488,0,0,1.7805361,-23.042966,-23.568319)" gradientUnits="userSpaceOnUse" xlink:href="#linearGradient5785-4"/><linearGradient id="linearGradient7270" x1="45.677" x2="58.836" y1="46.334" y2="19.275" gradientTransform="translate(0,2)" gradientUnits="userSpaceOnUse" xlink:href="#linearGradient7264"/><linearGradient id="linearGradient7274" x1="46.876" x2="60.692" y1="27.761" y2="17.861" gradientTransform="translate(-31.466252,-1.2703689)" gradientUnits="userSpaceOnUse" xlink:href="#linearGradient7264"/><linearGradient id="linearGradient7291" x1="38.449" x2="38.537" y1="8.667" y2="10.435" gradientTransform="matrix(1.383648,0,0,1.2500004,-3.4891067,0.1250037)" gradientUnits="userSpaceOnUse" xlink:href="#linearGradient5817-4"/><linearGradient id="linearGradient7295" x1="38.449" x2="38.626" y1="8.667" y2="12.291" gradientTransform="matrix(1.383648,0,0,1.2500004,-3.4891067,0.1250037)" gradientUnits="userSpaceOnUse" xlink:href="#linearGradient5817-4"/><linearGradient id="linearGradient7319" x1="40.72" x2="45.143" y1="24.062" y2="45.401" gradientUnits="userSpaceOnUse" xlink:href="#linearGradient7313"/><linearGradient id="linearGradient7333" x1="33.821" x2="29.5" y1="26.813" y2="44.938" gradientTransform="translate(0,2)" gradientUnits="userSpaceOnUse" xlink:href="#linearGradient7327"/><linearGradient id="linearGradient7345" x1="15.876" x2="15.876" y1="39.987" y2="19.573" gradientTransform="matrix(1.3333333,0,0,1.3501,-0.8266965,2.4988665)" gradientUnits="userSpaceOnUse" xlink:href="#linearGradient5491-8"/><linearGradient id="linearGradient4066" x1="40.546" x2="42.913" y1="9.438" y2="9.835" gradientUnits="userSpaceOnUse" xlink:href="#linearGradient5817-4"/><linearGradient id="linearGradient4068" x1="30.25" x2="30.25" y1="10.232" y2="8.625" gradientTransform="matrix(1.4569537,0,0,1.2500004,-6.5954435,-3.8749963)" gradientUnits="userSpaceOnUse" xlink:href="#linearGradient6832-0"/><linearGradient id="linearGradient3883" x1="27.445" x2="26.719" y1="16.572" y2="26.118" gradientTransform="matrix(1.3333333,0,0,1.3333333,-1.3570264,-0.345185)" gradientUnits="userSpaceOnUse" xlink:href="#linearGradient5737-4"/><linearGradient id="linearGradient3885" x1="37.018" x2="43.567" y1="44.159" y2="3.409" gradientTransform="translate(0,2)" gradientUnits="userSpaceOnUse" xlink:href="#linearGradient7335"/><radialGradient id="radialGradient3910" cx="33.781" cy="31.953" r="1.781" fx="33.781" fy="31.953" gradientTransform="matrix(1,0,0,1.7105263,0,-22.703536)" gradientUnits="userSpaceOnUse" xlink:href="#linearGradient3904"/><radialGradient id="radialGradient3912" cx="44.135" cy="42.785" r="1.656" fx="44.135" fy="42.785" gradientTransform="matrix(1.6762469,0.09006766,-0.19047483,3.1944071,-21.470159,-98.261467)" gradientUnits="userSpaceOnUse" xlink:href="#linearGradient3892"/></defs><metadata id="metadata5526"/><g id="layer1"><path id="path5398" d="m 26.734207,50.938108 24.75592,0.374427 c 0.480213,0 0.564933,0.90248 0.564933,0.90248 -0.9968,3.720093 -5.16572,5.807626 -7.95568,5.807626 l -31.425692,0.04307 c 9.644786,-0.602773 10.315479,-1.180667 11.075039,-5.38584 0.651974,-1.317733 1.868494,-1.741693 2.98548,-1.741693 z" style="color:#000;fill:#5094c3;fill-opacity:1;fill-rule:evenodd;stroke:none;stroke-width:.99999964;marker:none;visibility:visible;display:inline;overflow:visible"/><rect id="rect3954" width="35.779" height="9.05" x="10.755" y="53.409" style="opacity:.24123709;color:#000;fill:url(#linearGradient6695);fill-opacity:1;fill-rule:nonzero;stroke:none;stroke-width:1;marker:none;visibility:visible;display:inline;overflow:visible"/><path id="path3956" d="m 46.534627,53.409467 0,9.04975 c 3.815919,0.01704 9.225036,-2.02759 9.225034,-4.525457 0,-2.497869 -4.258279,-4.524293 -9.225034,-4.524293 z" style="opacity:.24123709;color:#000;fill:url(#radialGradient6692);fill-opacity:1;fill-rule:nonzero;stroke:none;stroke-width:1;marker:none;visibility:visible;display:inline;overflow:visible"/><path style="opacity:.24123709;color:#000;fill:url(#radialGradient6689);fill-opacity:1;fill-rule:nonzero;stroke:none;stroke-width:1;marker:none;visibility:visible;display:inline;overflow:visible" id="path3958" d="m 10.75536,53.409467 0,9.04975 c -3.8159183,0.01704 -9.2250333,-2.02759 -9.2250333,-4.525457 0,-2.497869 4.2582779,-4.524293 9.2250333,-4.524293 z"/><path style="color:#000;fill:none;stroke:#000;stroke-width:.99999964;stroke-linecap:butt;stroke-linejoin:round;stroke-miterlimit:4;stroke-opacity:.49803922;stroke-dashoffset:0;marker:none;visibility:visible;display:inline;overflow:visible" id="path5759" d="m 26.734207,50.938108 24.75592,0.374427 c 0.480213,0 0.564933,0.90248 0.564933,0.90248 -0.9968,3.720093 -5.16572,5.807626 -7.95568,5.807626 l -31.425692,0.04307 c 9.644786,-0.602773 10.315479,-1.180667 11.075039,-5.38584 0.651974,-1.317733 1.868494,-1.741693 2.98548,-1.741693 z"/><path id="path5472" d="m 12.506634,27.475722 c -4.7839977,0 -8.6666643,6.553673 -8.6666643,14.751473 0,8.197813 3.8826666,14.592726 8.6666643,14.592726 0.114267,0 0.220174,-0.03467 0.333334,-0.04213 l 0,0.04213 29.626226,0 0,-29.379146 c 0,0 -19.749627,0.251774 -29.95956,0.03493 z" style="color:#000;fill:url(#linearGradient7345);fill-opacity:1;fill-rule:nonzero;stroke:#828282;stroke-width:.99715476999999997;stroke-linecap:square;stroke-linejoin:miter;stroke-miterlimit:4;stroke-opacity:1;stroke-dasharray:none;stroke-dashoffset:0;marker:none;visibility:visible;display:inline;overflow:visible;enable-background:accumulate"/><path id="path5503" d="m 42.913322,28.50893 c 0,0 -20.936471,0.232254 -30.235111,0.03787 -4.3569982,0 -7.8931181,6.131251 -7.8931181,13.481851 0,7.350613 3.5361199,13.681105 7.8931181,13.681105 0.104,0 0.20052,-0.03107 0.303587,-0.03787 l 0,0.03787 29.931524,0 c 4.357014,0 7.893133,-6.230872 7.893133,-13.581485 0,-7.3506 -3.536119,-13.581471 -7.893133,-13.581471 z" style="opacity:.1;color:#000;fill:none;stroke:url(#linearGradient6707);stroke-width:.99715436000000002;stroke-linecap:square;stroke-linejoin:miter;stroke-miterlimit:4;stroke-opacity:1;stroke-dasharray:none;stroke-dashoffset:0;marker:none;visibility:visible;display:inline;overflow:visible;enable-background:accumulate"/><path id="path4585" d="m 43.125,29.5625 a 6.5,10.9375 0 1 1 -13,0 6.5,10.9375 0 1 1 13,0 z" transform="matrix(1.3333333,0,0,1.340952,-5.6600351,2.4674265)" style="color:#000;fill:url(#linearGradient6709);fill-opacity:1;fill-rule:nonzero;stroke:url(#radialGradient6711);stroke-width:.74786586;stroke-linecap:square;stroke-linejoin:miter;stroke-miterlimit:4;stroke-opacity:1;stroke-dasharray:none;stroke-dashoffset:0;marker:none;visibility:visible;display:inline;overflow:visible;enable-background:accumulate"/><path id="path7308" d="m 51.353629,39.604816 a 7.7781744,13.523417 0 1 1 -15.556349,0 7.7781744,13.523417 0 1 1 15.556349,0 z" transform="matrix(0.96022727,0,0,1.0065359,1.4237555,2.3598635)" style="opacity:.1;fill:none;stroke:url(#linearGradient7319);stroke-width:1.01718116000000003;stroke-linecap:round;stroke-linejoin:round;stroke-miterlimit:4;stroke-opacity:1;stroke-dasharray:none"/><path style="opacity:.5;color:#000;fill:url(#radialGradient3910);fill-opacity:1;fill-rule:nonzero;stroke:none;stroke-width:.85209482999999997;marker:none;visibility:visible;display:inline;overflow:visible;enable-background:accumulate" id="path6850" d="m 35.5625,31.953125 a 1.78125,3.046875 0 1 1 -3.5625,0 1.78125,3.046875 0 1 1 3.5625,0 z" transform="matrix(1.6842105,0,0,1.3128205,-13.173487,2.6799516)"/><path id="path5477" d="M 30.3125 5.5 C 29.43725 5.5 28.673141 5.8929879 28.1875 6.5 C 27.687457 6.4999741 27.187537 6.5000316 26.6875 6.5 C 24.548325 6.55836 23.440274 8.618844 22.6875 10.34375 C 20.624198 14.542844 16.48298 23.370053 14.40625 27.5625 L 17.40625 27.5625 C 19.444009 23.25045 23.631718 14.334974 25.6875 10.03125 C 26.32751 9.347001 27.264504 9.456339 28.15625 9.5 C 28.160459 9.5053492 28.183247 9.4946838 28.1875 9.5 C 28.673141 10.107012 29.43725 10.5 30.3125 10.5 L 52.46875 10.5 C 53.3164 10.5 54.074731 10.13703 54.5625 9.5625 C 55.378973 9.5636697 56.22098 9.5622179 57.03125 9.5625 L 56.09375 11.375 C 52.046885 19.041289 48.058601 29.906766 44 38.25 C 43.925247 38.237869 43.85786 38.21875 43.78125 38.21875 C 42.469574 38.21875 41.40625 40.037593 41.40625 42.28125 C 41.40625 44.524907 42.469574 46.34375 43.78125 46.34375 C 45.092926 46.34375 46.15625 44.524907 46.15625 42.28125 C 46.15625 41.593525 46.051337 40.942752 45.875 40.375 C 50.473624 31.242349 55.009894 19.127514 59.59375 10.46875 C 60.929209 7.511256 59.0502 6.249865 56.65625 6.5 C 55.979086 6.4999878 55.30217 6.5000062 54.625 6.5 C 54.139987 5.8862146 53.3497 5.5 52.46875 5.5 L 30.3125 5.5 z" style="fill:url(#linearGradient3883);fill-opacity:1;fill-rule:evenodd;stroke:url(#linearGradient3885);stroke-linejoin:round;stroke-opacity:1"/><path id="rect5631" d="M 9.5973942,50.101232 29.282571,49.509978 c -1.66825,-2.6112 -3.227633,-9.316273 -1.343246,-14.48853 l -19.689684,0 C 5.5054869,45.74416 9.5394587,50.331287 9.5973942,50.101232 z" style="color:#000;fill:url(#linearGradient6604);fill-opacity:1;fill-rule:nonzero;stroke:none;stroke-width:1;marker:none;visibility:visible;display:inline;overflow:visible;enable-background:accumulate"/><path id="path5691" d="m 16.7663,29.382464 5.480078,-0.187822 0.39775,1.37002 10.03207,0.7513 0.22098,1.06066 -16.83798,-0.08839 -0.229369,-0.959791 1.011205,-0.319452 z" transform="matrix(1.3333333,0,0,1.3333333,-14.724808,1.1110906)" style="opacity:.20571427;fill:#000;fill-opacity:1;fill-rule:evenodd;stroke:none;filter:url(#filter5733-3)"/><path style="opacity:.3;color:#000;fill:none;stroke:#000;stroke-width:1;stroke-linecap:square;stroke-linejoin:miter;stroke-miterlimit:4;stroke-opacity:1;stroke-dashoffset:0;marker:none;visibility:visible;display:inline;overflow:visible;enable-background:accumulate" id="path5388" d="m 28.810674,34.521448 c -2.683776,6.437002 0.38876,13.449221 0.847526,15.673963 0,0.628574 -20.3953351,0.831931 -20.3953351,0.831931 C 8.5211717,47.530978 4.4864756,43.987562 7.868359,34.491118 z"/><path id="rect337" d="m 16.117034,43.536772 c -2.534,0.1104 -0.595666,-1.477734 -2.560106,-1.953427 -3.514958,-0.101734 -9.226585,-0.012 -9.226585,-0.012 -1.1333466,0.672533 0.2624867,2.209759 -1.1845466,2.230592 -0.86516,0.08733 -0.30592,1.864155 -0.30592,1.864155 0.6842533,4.20548 2.0876266,8.308043 5.6503332,10.948763 1.9809714,1.54048 4.5374644,1.380186 6.8984244,1.371586 9.650307,0.01333 19.300626,0.0264 28.950946,0.0396 -4.225573,-0.15568 -8.347453,-2.42772 -10.457853,-6.142466 -1.262626,-2.08392 -2.018053,-4.02327 -2.45052,-6.411123 0,0 -0.01453,-1.773973 -1.624213,-1.8412 -2.60972,0.01613 -13.68996,-0.09453 -13.68996,-0.09453 z" style="color:#000;fill:url(#linearGradient6703);fill-opacity:1;fill-rule:evenodd;stroke:#000;stroke-width:.99999964;stroke-linecap:butt;stroke-linejoin:round;stroke-miterlimit:4;stroke-opacity:.3669065;stroke-dashoffset:0;marker:none;visibility:visible;display:inline;overflow:visible"/><path id="path5752" d="m 24.866589,9.627015 -7.450618,17.022539 -1.590993,0.265165 z" style="opacity:0;fill:#fff;fill-opacity:1;fill-rule:evenodd;stroke:none"/><path id="path5795" d="m 51.381633,52.025988 c -0.333333,2.416667 -3.625,4.791667 -6.749999,5.375 2.023053,-0.815147 5.031146,-1.72432 6.749999,-5.375 z" style="opacity:.53142856;fill:#fff;fill-opacity:1;fill-rule:evenodd;stroke:none"/><path id="path5302" d="m 2.7303867,47.596539 c 1.3991867,5.0816 5.4751896,10.508184 10.1749413,10.399636 l 31.416666,0.0416 c -7.432267,-0.464494 -9.960376,-3.529024 -12,-10.441303 l -29.5916073,0 z" style="color:#000;fill:url(#linearGradient6587);fill-opacity:1;fill-rule:evenodd;stroke:none;stroke-width:.99999964;marker:none;visibility:visible;display:inline;overflow:visible"/><path style="opacity:.5;color:#000;fill:none;stroke:url(#linearGradient6701);stroke-width:.99999964;stroke-linecap:butt;stroke-linejoin:round;stroke-miterlimit:4;stroke-opacity:.3669065;stroke-dashoffset:0;marker:none;visibility:visible;display:inline;overflow:visible" id="path5317" d="m 4.4196133,48.788697 c 2.2438,5.187173 5.8250607,8.278669 7.9492657,8.258509 L 36.50934,56.771371 c -1.203266,-0.675636 -3.169111,-2.484156 -5.120347,-8.247385 z"/><path style="opacity:.3;color:#000;fill:none;stroke:#000;stroke-width:.99999964;stroke-linecap:butt;stroke-linejoin:round;stroke-miterlimit:4;stroke-opacity:1;stroke-dashoffset:0;marker:none;visibility:visible;display:inline;overflow:visible" id="path5400" d="m 2.7303867,47.596539 c 1.487575,5.0816 5.1216362,10.419796 10.1749413,10.399636 l 31.416666,0.0416 c -7.432267,-0.464494 -10.225541,-5.296791 -12,-10.441303 l -29.5916073,0 z"/><path id="path7262" d="M 46.050329,38.246059 57.098873,13.386409" style="opacity:.6;fill:none;stroke:url(#linearGradient7270);stroke-width:1px;stroke-linecap:round;stroke-linejoin:miter;stroke-opacity:1"/><path style="fill:none;stroke:url(#linearGradient7274);stroke-width:1px;stroke-linecap:round;stroke-linejoin:miter;stroke-opacity:1" id="path7272" d="M 16.710601,26.578797 24.632621,10.11604"/><path id="path7325" d="M 37.5,29.125 C 33.31316,33.737713 30.104538,44.868453 38.875,57.5" style="opacity:.1;fill:none;stroke:url(#linearGradient7333);stroke-width:1px;stroke-linecap:round;stroke-linejoin:miter;stroke-opacity:1"/><path style="opacity:.2;fill:#000;fill-opacity:1;stroke:none" id="path3902" d="m 45.3125,42.1875 a 1.65625,3.125 0 1 1 -3.3125,0 1.65625,3.125 0 1 1 3.3125,0 z" transform="matrix(1.0943396,0,0,-1.15,-3.9622642,90.796875)"/><path id="path3890" d="m 45.3125,42.1875 a 1.65625,3.125 0 1 1 -3.3125,0 1.65625,3.125 0 1 1 3.3125,0 z" transform="matrix(1.0943396,0,0,-1.15,-3.9622642,90.796875)" style="opacity:.40000000000000002;fill:url(#radialGradient3912);fill-opacity:1;stroke:none"/><path id="rect6826" d="M 30.3125 6 C 29.586917 6 28.954077 6.32306 28.5625 6.8125 A 0.50005 0.50005 0 0 1 28.1875 7 C 28.083336 6.9999946 27.97916 6.9999997 27.875 7 C 27.729435 7.3092821 27.65625 7.6391009 27.65625 8 C 27.65625 8.34625 27.709167 8.6694531 27.84375 8.96875 C 27.844217 8.968774 27.843283 8.999976 27.84375 9 C 27.956757 9.0058101 28.07921 8.994698 28.1875 9 C 28.19653 8.9998758 28.20742 8.9994872 28.21875 9 C 28.24359 9.00335 28.281595 9.0000769 28.28125 9 A 0.50005 0.50005 0 0 1 28.3125 9.03125 C 28.32332 9.03532 28.33084 9.02641 28.34375 9.03125 A 0.50005 0.50005 0 0 1 28.53125 9.15625 C 28.54278 9.165967 28.562558 9.1875734 28.5625 9.1875 C 28.954077 9.67694 29.586917 10 30.3125 10 L 52.46875 10 C 53.173664 10 53.797965 9.7088234 54.1875 9.25 A 0.50005 0.50005 0 0 1 54.5625 9.0625 C 54.665714 9.0626481 54.77104 9.0624271 54.875 9.0625 C 55.039339 8.7374607 55.15625 8.3848702 55.15625 8 C 55.15625 7.6391009 55.051815 7.3092821 54.90625 7 C 54.812495 6.9999999 54.718764 7.0000009 54.625 7 A 0.50005 0.50005 0 0 1 54.21875 6.8125 C 53.834288 6.3259618 53.203564 6 52.46875 6 L 30.3125 6 z" style="color:#000;fill:url(#linearGradient4068);fill-opacity:1;fill-rule:nonzero;stroke:none;stroke-width:.99999939999999998;marker:none;visibility:visible;display:inline;overflow:visible;enable-background:accumulate"/><rect id="rect3108" width="3" height="2" x="54" y="7" style="fill:#a9a9a9;fill-opacity:1;stroke:none"/><path id="path5797" d="m 49.348951,6.14817 c -0.724271,0.170075 -1.29717,0.916362 -1.29717,1.796875 0,0.988688 0.700195,1.808038 1.556604,1.835938 0.01522,5e-4 0.02795,0 0.04317,0 l 3.113208,0 c 0.01536,0 0.02795,5e-4 0.04317,0 0.856408,-0.02787 1.556604,-0.84725 1.556604,-1.835938 0,-0.988338 -0.700638,-1.768425 -1.556604,-1.796875 l -0.345913,0 -2.507861,0 -0.302674,0 c -0.01564,0 -0.02768,-5.13e-4 -0.04317,0 -0.0934,0.0025 -0.170757,-0.02088 -0.259434,0 z" style="opacity:.53142856;color:#000;fill:url(#linearGradient7295);fill-opacity:1;fill-rule:nonzero;stroke:none;stroke-width:1;marker:none;visibility:visible;display:inline;overflow:visible;enable-background:accumulate"/><path id="path5829" d="m 41.71875,9.4375 a 0.703125,1.15625 0 1 1 -1.40625,0 0.703125,1.15625 0 1 1 1.40625,0 z" transform="matrix(1.6911253,0,0,1.2500004,-16.309259,-3.8473712)" style="opacity:.4857143;color:#000;fill:url(#linearGradient4066);fill-opacity:1;fill-rule:nonzero;stroke:none;stroke-width:1;marker:none;visibility:visible;display:inline;overflow:visible;enable-background:accumulate"/><path id="path5804" d="m 30.150835,6.16407 c -0.911367,0 -1.72956,0.790575 -1.72956,1.796875 0,1.0063 0.79658,1.894525 1.707948,1.894525 l 2.159127,0.04237 c -0.579624,-0.237137 -1.295787,-0.881274 -1.295787,-1.9255 0,-1.024713 0.785055,-1.65475 1.24206,-1.839288 -0.42763,-0.05575 -1.686736,0.031 -2.083788,0.031 z" style="opacity:.53142856;color:#000;fill:url(#linearGradient7291);fill-opacity:1;fill-rule:nonzero;stroke:none;stroke-width:1;marker:none;visibility:visible;display:inline;overflow:visible;enable-background:accumulate"/><path style="opacity:.3;fill:none;stroke:#fff;stroke-width:1px;stroke-linecap:round;stroke-linejoin:miter;stroke-opacity:1" id="path7278" d="m 30.5,6.5 21,0"/><path id="path7276" d="m 54.386877,7.600244 2.933244,-0.0467" style="opacity:.3;fill:none;stroke:#fff;stroke-width:1px;stroke-linecap:round;stroke-linejoin:miter;stroke-opacity:1"/><rect style="fill:#a9a9a9;fill-opacity:1;stroke:none" id="rect3878" width="3" height="2" x="26" y="7"/><path style="opacity:.3;fill:none;stroke:#fff;stroke-width:1px;stroke-linecap:round;stroke-linejoin:miter;stroke-opacity:1" id="path3880" d="m 26.386877,7.600244 2.933244,-0.0467"/><path id="path3921" d="m 30.5,5.5625 22,0" style="opacity:.3;fill:none;stroke:#000;stroke-width:1px;stroke-linecap:round;stroke-linejoin:miter;stroke-opacity:1"/><path style="opacity:.3;fill:none;stroke:#000;stroke-width:1px;stroke-linecap:round;stroke-linejoin:miter;stroke-opacity:1" id="path3923" d="m 29.5,10.5625 22,0"/></g></svg>