<svg xmlns="http://www.w3.org/2000/svg" xmlns:svg="http://www.w3.org/2000/svg" xmlns:xlink="http://www.w3.org/1999/xlink" id="svg6333" width="64" height="64" version="1.1"><defs id="defs6335"><linearGradient id="linearGradient4962"><stop style="stop-color:#959595;stop-opacity:1" id="stop4964" offset="0"/><stop style="stop-color:#717171;stop-opacity:1" id="stop4966" offset=".262"/><stop style="stop-color:#535353;stop-opacity:1" id="stop4968" offset=".705"/><stop style="stop-color:#373737;stop-opacity:1" id="stop4970" offset="1"/></linearGradient><linearGradient id="linearGradient4950"><stop style="stop-color:#90dbec;stop-opacity:1" id="stop4952" offset="0"/><stop style="stop-color:#55c1ec;stop-opacity:1" id="stop4954" offset=".262"/><stop style="stop-color:#3689e6;stop-opacity:1" id="stop4956" offset=".705"/><stop style="stop-color:#2b63a0;stop-opacity:1" id="stop4958" offset="1"/></linearGradient><linearGradient id="linearGradient3924-2-2-5-8"><stop style="stop-color:#fff;stop-opacity:1" id="stop3926-9-4-9-6" offset="0"/><stop style="stop-color:#fff;stop-opacity:.23529412" id="stop3928-9-8-6-5" offset=".063"/><stop style="stop-color:#fff;stop-opacity:.15686275" id="stop3930-3-5-1-7" offset=".951"/><stop style="stop-color:#fff;stop-opacity:.39215687" id="stop3932-8-0-4-8" offset="1"/></linearGradient><radialGradient id="radialGradient3337-2-2" cx="4.993" cy="43.5" r="2.5" fx="4.993" fy="43.5" gradientTransform="matrix(2.003784,0,0,1.4,27.98813,-17.4)" gradientUnits="userSpaceOnUse" xlink:href="#linearGradient3688-166-749-4-0-3-8"/><linearGradient id="linearGradient3688-166-749-4-0-3-8"><stop style="stop-color:#181818;stop-opacity:1" id="stop2883-4-0-1-8" offset="0"/><stop style="stop-color:#181818;stop-opacity:0" id="stop2885-9-2-9-6" offset="1"/></linearGradient><radialGradient id="radialGradient3339-1-4" cx="4.993" cy="43.5" r="2.5" fx="4.993" fy="43.5" gradientTransform="matrix(2.003784,0,0,1.4,-20.01187,-104.4)" gradientUnits="userSpaceOnUse" xlink:href="#linearGradient3688-464-309-9-2-4-2"/><linearGradient id="linearGradient3688-464-309-9-2-4-2"><stop style="stop-color:#181818;stop-opacity:1" id="stop2889-7-9-6-9" offset="0"/><stop style="stop-color:#181818;stop-opacity:0" id="stop2891-6-6-1-7" offset="1"/></linearGradient><linearGradient id="linearGradient3702-501-757-8-4-1-1"><stop style="stop-color:#181818;stop-opacity:0" id="stop2895-8-9-9-1" offset="0"/><stop style="stop-color:#181818;stop-opacity:1" id="stop2897-7-8-7-7" offset=".5"/><stop style="stop-color:#181818;stop-opacity:0" id="stop2899-4-5-1-5" offset="1"/></linearGradient><linearGradient id="linearGradient6394" x1="25.058" x2="25.058" y1="47.028" y2="39.999" gradientUnits="userSpaceOnUse" xlink:href="#linearGradient3702-501-757-8-4-1-1"/><linearGradient id="linearGradient5803-6"><stop id="stop5805-7" offset="0" style="stop-color:#fff;stop-opacity:1"/><stop id="stop5807-8" offset="1" style="stop-color:#e6f4f8;stop-opacity:1"/></linearGradient><linearGradient id="linearGradient3448" x1="24" x2="24" y1="5" y2="43" gradientTransform="matrix(1.4324324,0,0,1.4362832,-2.378381,-2.4707782)" gradientUnits="userSpaceOnUse" xlink:href="#linearGradient3924-2-2-5-8"/><radialGradient id="radialGradient3422-5" cx="7.739" cy="9.957" r="12.672" fx="7.209" fy="9.957" gradientTransform="matrix(0,8.4616298,-16.443533,0,196.90204,-80.463829)" gradientUnits="userSpaceOnUse" xlink:href="#linearGradient4962"/><linearGradient id="linearGradient5023" x1="33.625" x2="33.75" y1="12" y2="52" gradientTransform="translate(0,-5)" gradientUnits="userSpaceOnUse" xlink:href="#linearGradient5803-6"/><clipPath id="clipPath5039" clipPathUnits="userSpaceOnUse"><rect id="rect5041" width="47" height="38" x="8" y="10" rx="1.1" ry="0" style="color:#000;fill:url(#radialGradient5043);fill-opacity:1;fill-rule:nonzero;stroke:none;stroke-width:.99999994;marker:none;visibility:visible;display:inline;overflow:visible;enable-background:accumulate"/></clipPath><radialGradient id="radialGradient5043" cx="7.739" cy="9.957" r="12.672" fx="7.209" fy="9.957" gradientTransform="matrix(0,8.4616298,-18.087886,0,215.59224,-82.463827)" gradientUnits="userSpaceOnUse" xlink:href="#linearGradient4950"/><linearGradient id="linearGradient5051" x1="30" x2="30" y1="10.5" y2="49" gradientUnits="userSpaceOnUse" xlink:href="#linearGradient3924-2-2-5-8"/><clipPath id="clipPath5114" clipPathUnits="userSpaceOnUse"><rect style="opacity:.15;fill:#000;fill-opacity:1;stroke:none" id="rect5116" width="10" height="10" x="22" y="47" rx="1" ry="1"/></clipPath><radialGradient id="radialGradient5156" cx="7.739" cy="9.957" r="12.672" fx="7.209" fy="9.957" gradientTransform="matrix(0,8.4616298,-18.087886,0,215.59224,-84.463827)" gradientUnits="userSpaceOnUse" xlink:href="#linearGradient4950"/></defs><metadata id="metadata6338"/><g id="g3712-8-2-4-4" transform="matrix(1.5789502,0,0,0.7142857,-5.894751,27.928572)" style="opacity:.6"><rect id="rect2801-5-5-7-9" width="5" height="7" x="38" y="40" style="fill:url(#radialGradient3337-2-2);fill-opacity:1;stroke:none"/><rect id="rect3696-3-0-3-7" width="5" height="7" x="-10" y="-47" transform="scale(-1,-1)" style="fill:url(#radialGradient3339-1-4);fill-opacity:1;stroke:none"/><rect id="rect3700-5-6-8-4" width="28" height="7" x="10" y="40" style="fill:url(#linearGradient6394);fill-opacity:1;stroke:none"/></g><rect id="rect5505-21-3-8-5-2" width="55" height="55" x="4.5" y="4.5" rx="3" ry="3" style="color:#000;fill:url(#radialGradient3422-5);fill-opacity:1;fill-rule:nonzero;stroke:none;stroke-width:.99999994000000003;marker:none;visibility:visible;display:inline;overflow:visible;enable-background:accumulate"/><path id="rect5148" d="M 8,9 55,9 55,45 8,45 z" style="opacity:.15;color:#000;fill:#000;fill-opacity:1;fill-rule:nonzero;stroke:#000;stroke-width:2;stroke-linejoin:round;stroke-miterlimit:4;stroke-opacity:1;marker:none;visibility:visible;display:inline;overflow:visible;enable-background:accumulate"/><path id="rect5146" d="M 8,9 55,9 55,45 8,45 z" style="opacity:.3;color:#000;fill:#000;fill-opacity:1;fill-rule:nonzero;stroke:none;stroke-width:.99999994;marker:none;visibility:visible;display:inline;overflow:visible;enable-background:accumulate"/><path id="rect4948" d="M 8,8 55,8 55,44 8,44 z" style="color:#000;fill:url(#radialGradient5156);fill-opacity:1;fill-rule:nonzero;stroke:none;stroke-width:.99999994;marker:none;visibility:visible;display:inline;overflow:visible;enable-background:accumulate"/><rect id="rect6741-5-0-2-3" width="53" height="53.142" x="5.5" y="5.429" rx="2" ry="2" style="opacity:.5;fill:none;stroke:url(#linearGradient3448);stroke-width:1;stroke-linecap:round;stroke-linejoin:round;stroke-miterlimit:4;stroke-opacity:1;stroke-dasharray:none;stroke-dashoffset:0"/><rect id="rect5505-21-3-8-9-1-1" width="55" height="55" x="4.5" y="4.5" rx="3" ry="3" style="opacity:.8;color:#000;fill:none;stroke:#000;stroke-width:1;stroke-linecap:round;stroke-linejoin:round;stroke-miterlimit:4;stroke-opacity:1;stroke-dasharray:none;stroke-dashoffset:0;marker:none;visibility:visible;display:inline;overflow:visible;enable-background:accumulate"/><path id="path5057" d="m 13,12 c -0.554,0 -1,0.446 -1,1 l 0,11 c 0,0.554 0.446,1 1,1 l 16,0 c 0.554,0 1,-0.446 1,-1 l 0,-11 c 0,-0.554 -0.446,-1 -1,-1 z m 23,1 c -0.554,0 -1,0.446 -1,1 l 0,11 c 0,0.554 0.446,1 1,1 l 13,0 c 0.554,0 1,-0.446 1,-1 l 0,-11 c 0,-0.554 -0.446,-1 -1,-1 z M 21,30 c -0.554,0 -1,0.446 -1,1 l 0,10 c 0,0.554 0.446,1 1,1 l 18,0 c 0.554,0 1,-0.446 1,-1 l 0,-10 c 0,-0.554 -0.446,-1 -1,-1 z" style="opacity:.15;fill:#0935ae;fill-opacity:1;stroke:#0935ae;stroke-width:2;stroke-miterlimit:4;stroke-opacity:1;stroke-dasharray:none"/><path style="opacity:.3;fill:#0935ae;fill-opacity:1;stroke:none" id="path5053" d="m 13,12 c -0.554,0 -1,0.446 -1,1 l 0,11 c 0,0.554 0.446,1 1,1 l 16,0 c 0.554,0 1,-0.446 1,-1 l 0,-11 c 0,-0.554 -0.446,-1 -1,-1 z m 23,1 c -0.554,0 -1,0.446 -1,1 l 0,11 c 0,0.554 0.446,1 1,1 l 13,0 c 0.554,0 1,-0.446 1,-1 l 0,-11 c 0,-0.554 -0.446,-1 -1,-1 z M 21,30 c -0.554,0 -1,0.446 -1,1 l 0,10 c 0,0.554 0.446,1 1,1 l 18,0 c 0.554,0 1,-0.446 1,-1 l 0,-10 c 0,-0.554 -0.446,-1 -1,-1 z"/><path id="rect4981" d="m 13,11 c -0.554,0 -1,0.446 -1,1 l 0,11 c 0,0.554 0.446,1 1,1 l 16,0 c 0.554,0 1,-0.446 1,-1 l 0,-11 c 0,-0.554 -0.446,-1 -1,-1 z m 23,1 c -0.554,0 -1,0.446 -1,1 l 0,11 c 0,0.554 0.446,1 1,1 l 13,0 c 0.554,0 1,-0.446 1,-1 l 0,-11 c 0,-0.554 -0.446,-1 -1,-1 z M 21,29 c -0.554,0 -1,0.446 -1,1 l 0,10 c 0,0.554 0.446,1 1,1 l 18,0 c 0.554,0 1,-0.446 1,-1 l 0,-10 c 0,-0.554 -0.446,-1 -1,-1 z" style="fill:url(#linearGradient5023);fill-opacity:1;stroke:none"/><path style="color:#000;fill:none;fill-opacity:1;fill-rule:nonzero;stroke:none;stroke-width:1;marker:none;visibility:visible;display:inline;overflow:visible;enable-background:accumulate" id="path4972" d="M 11.40625 12 C 10.63065 12 10 12.605084 10 13.34375 L 10 26.65625 C 10 27.394917 10.63065 28 11.40625 28 L 29.59375 28 C 30.36935 28 31 27.394917 31 26.65625 L 31 13.34375 C 31 12.605084 30.36935 12 29.59375 12 L 11.40625 12 z M 37.21875 14 C 36.55395 14 36 14.706318 36 15.5625 L 36 29.4375 C 36 30.293682 36.55395 31 37.21875 31 L 52.78125 31 C 53.446049 31 54 30.293682 54 29.4375 L 54 15.5625 C 54 14.706318 53.446049 14 52.78125 14 L 37.21875 14 z M 20.65625 35 C 19.732917 35 19 35.706318 19 36.5625 L 19 50.4375 C 19 51.293682 19.732917 52 20.65625 52 L 42.34375 52 C 43.267083 52 44 51.293682 44 50.4375 L 44 36.5625 C 44 35.706318 43.267083 35 42.34375 35 L 20.65625 35 z"/><path id="rect5035" d="m 8,10 47,0 0,36 -47,0 z" clip-path="url(#clipPath5039)" transform="translate(0,-2)" style="opacity:.4;color:#000;fill:none;stroke:url(#linearGradient5051);stroke-width:2;stroke-miterlimit:4;stroke-opacity:1;marker:none;visibility:visible;display:inline;overflow:visible;enable-background:accumulate"/><g id="g5122" transform="translate(11,1)"><rect id="rect5124" width="10" height="10" x="22" y="47" rx="1" ry="1" style="opacity:.15;fill:#000;fill-opacity:1;stroke:none"/><rect style="opacity:.15;fill:none;stroke:#000;stroke-width:2;stroke-miterlimit:4;stroke-opacity:1;stroke-dasharray:none" id="rect5126" width="10" height="10" x="22" y="47" clip-path="url(#clipPath5114)" rx="0" ry="1"/></g><path style="opacity:.3;fill:#000;fill-opacity:1;stroke:none" id="path5074" d="m 37,51 0,2 -2,0 0,2 2,0 0,2 2,0 0,-2 2,0 0,-2 -2,0 0,-2 -2,0 z"/><path id="rect5069" d="m 37,50 0,2 -2,0 0,2 2,0 0,2 2,0 0,-2 2,0 0,-2 -2,0 0,-2 -2,0 z" style="fill:#e8e8e8;fill-opacity:1;stroke:none"/><g id="g5118" transform="translate(-1,1)"><rect style="opacity:.15;fill:#000;fill-opacity:1;stroke:none" id="rect5059" width="10" height="10" x="22" y="47" rx="1" ry="1"/><rect id="rect5110" width="10" height="10" x="22" y="47" clip-path="url(#clipPath5114)" rx="0" ry="1" style="opacity:.15;fill:none;stroke:#000;stroke-width:2;stroke-miterlimit:4;stroke-opacity:1;stroke-dasharray:none"/></g></svg>