<svg xmlns="http://www.w3.org/2000/svg" xmlns:svg="http://www.w3.org/2000/svg" xmlns:xlink="http://www.w3.org/1999/xlink" id="svg4161" width="64" height="64" version="1.1"><defs id="defs4163"><linearGradient id="linearGradient3988-5"><stop id="stop3990-5" offset="0" style="stop-color:#ededed;stop-opacity:1"/><stop id="stop3992-0" offset="1" style="stop-color:#fff;stop-opacity:1"/></linearGradient><clipPath id="clipPath4072" clipPathUnits="userSpaceOnUse"><path style="fill:url(#linearGradient4076);fill-opacity:1;stroke:none;display:inline" id="path4074" d="m 58.999941,52.997 6e-5,-42.997 c 0,0 -36.000002,0 -54.000002,0 0,14.33332 1e-6,43 1e-6,43 z"/></clipPath><linearGradient id="linearGradient4076" x1="24" x2="24" y1="-8.715" y2="59.784" gradientTransform="matrix(1.5428538,0,0,-0.93431845,-5.028491,55.357)" gradientUnits="userSpaceOnUse" xlink:href="#linearGradient3988-5"/><linearGradient id="linearGradient3702-501-757-8-4-1-1-4"><stop style="stop-color:#181818;stop-opacity:0" id="stop2895-8-9-9-1-2" offset="0"/><stop style="stop-color:#181818;stop-opacity:1" id="stop2897-7-8-7-7-7" offset=".5"/><stop style="stop-color:#181818;stop-opacity:0" id="stop2899-4-5-1-5-6" offset="1"/></linearGradient><linearGradient id="linearGradient3688-464-309-9-2-4-2-3"><stop style="stop-color:#181818;stop-opacity:1" id="stop2889-7-9-6-9-1" offset="0"/><stop style="stop-color:#181818;stop-opacity:0" id="stop2891-6-6-1-7-0" offset="1"/></linearGradient><linearGradient id="linearGradient3688-166-749-4-0-3-8-1"><stop style="stop-color:#181818;stop-opacity:1" id="stop2883-4-0-1-8-9" offset="0"/><stop style="stop-color:#181818;stop-opacity:0" id="stop2885-9-2-9-6-3" offset="1"/></linearGradient><linearGradient id="outerBackgroundGradient"><stop id="stop3864-8-6" offset="0" style="stop-color:#8c166c;stop-opacity:1"/><stop style="stop-color:#ca3561;stop-opacity:1" id="stop4409" offset=".362"/><stop id="stop3866-9-1" offset="1" style="stop-color:#f38f4e;stop-opacity:1"/></linearGradient><linearGradient id="linearGradient4094"><stop id="stop4096" offset="0" style="stop-color:#e28192;stop-opacity:1"/><stop style="stop-color:#f7d6c7;stop-opacity:1" id="stop4317" offset=".259"/><stop id="stop4098" offset="1" style="stop-color:#fffee4;stop-opacity:1"/></linearGradient><clipPath id="clipPath4657" clipPathUnits="userSpaceOnUse"><rect id="rect4659" width="39" height="50" x="12" y="7" ry="0" style="color:#bebebe;fill:url(#linearGradient4661);fill-opacity:1;fill-rule:nonzero;stroke:none;stroke-width:0;marker:none;visibility:visible;display:inline;overflow:visible;enable-background:accumulate"/></clipPath><linearGradient id="linearGradient4661" x1="144" x2="144" y1="280" y2="40" gradientTransform="matrix(0,-0.18229167,0.18445946,0,-3.8108455,49.916685)" gradientUnits="userSpaceOnUse" xlink:href="#outerBackgroundGradient"/><radialGradient id="radialGradient4743" cx="4.993" cy="43.5" r="2.5" fx="4.993" fy="43.5" gradientTransform="matrix(3.1638751,0,0,0.99999998,57.208746,36.409903)" gradientUnits="userSpaceOnUse" xlink:href="#linearGradient3688-166-749-4-0-3-8-1"/><radialGradient id="radialGradient4745" cx="4.993" cy="43.5" r="2.5" fx="4.993" fy="43.5" gradientTransform="matrix(3.1638751,0,0,0.99999998,-44.614629,-123.4099)" gradientUnits="userSpaceOnUse" xlink:href="#linearGradient3688-464-309-9-2-4-2-3"/><linearGradient id="linearGradient4747" x1="25.058" x2="25.058" y1="47.028" y2="39.999" gradientTransform="matrix(1.5789502,0,0,0.7142857,13.016883,48.838474)" gradientUnits="userSpaceOnUse" xlink:href="#linearGradient3702-501-757-8-4-1-1-4"/><linearGradient id="linearGradient4749" x1="24" x2="24" y1="-8.715" y2="59.784" gradientTransform="matrix(1.5428538,0,0,-0.93431845,-5.028491,55.357)" gradientUnits="userSpaceOnUse" xlink:href="#linearGradient3988-5"/><linearGradient id="linearGradient4751" x1="144" x2="144" y1="280" y2="40" gradientTransform="matrix(0,-0.18229167,0.18445946,0,-3.8108455,49.916685)" gradientUnits="userSpaceOnUse" xlink:href="#outerBackgroundGradient"/><linearGradient id="linearGradient4753" x1="324" x2="332" y1="260" y2="260" gradientTransform="matrix(0,-1.4285714,1.4285714,0,-350.8643,506.31966)" gradientUnits="userSpaceOnUse" xlink:href="#linearGradient4094"/><radialGradient id="radialGradient3972-3" cx="24.85" cy="38.909" r="20.203" fx="24.85" fy="38.909" gradientTransform="matrix(1.00851,0,0,0.373148,-0.211403,24.39)" gradientUnits="userSpaceOnUse" xlink:href="#linearGradient26121-3-8-2-6"/><linearGradient id="linearGradient26121-3-8-2-6"><stop id="stop26123-4-7-8-7" offset="0" style="stop-color:#000;stop-opacity:1"/><stop id="stop26125-3-9-9-8" offset="1" style="stop-color:#000;stop-opacity:0"/></linearGradient><radialGradient id="radialGradient3755-9" cx="24.85" cy="38.909" r="20.203" fx="24.85" fy="38.909" gradientTransform="matrix(1,0,0,0.37,0,24.5124)" gradientUnits="userSpaceOnUse" xlink:href="#linearGradient26113-9-3-1-8"/><linearGradient id="linearGradient26113-9-3-1-8"><stop id="stop26115-7-7-9-7" offset="0" style="stop-color:#000;stop-opacity:1"/><stop id="stop26117-3-7-8-4" offset="1" style="stop-color:#000;stop-opacity:0"/></linearGradient><radialGradient id="radialGradient3630" cx="23.896" cy="3.99" r="20.397" fx="23.896" fy="3.99" gradientTransform="matrix(0,2.0431014,-2.6968576,0,27.488646,0.55990825)" gradientUnits="userSpaceOnUse" xlink:href="#radialGradient4793-7-7"/><radialGradient id="radialGradient4793-7-7" cx="23.896" cy="3.99" r="20.397" gradientTransform="matrix(0,1.2316483,-1.625754,0,18.486966,-28.721977)" gradientUnits="userSpaceOnUse"><stop id="stop4795-6-3" offset="0" style="stop-color:#232323;stop-opacity:1"/><stop id="stop4797-5-5" offset=".262" style="stop-color:#212121;stop-opacity:1"/><stop id="stop4799-7-2" offset=".661" style="stop-color:#1c1c1c;stop-opacity:1"/><stop id="stop4801-8-8" offset="1" style="stop-color:#121212;stop-opacity:1"/></radialGradient><linearGradient id="linearGradient3632" x1="26" x2="46" y1="36" y2="36" gradientTransform="matrix(0,1.3809704,-1.3809704,0,66.443043,14.467997)" gradientUnits="userSpaceOnUse" xlink:href="#linearGradient4847-3-2"/><linearGradient id="linearGradient4847-3-2"><stop id="stop4849-2-3" offset="0" style="stop-color:#fff;stop-opacity:1"/><stop id="stop4851-0-0" offset="1" style="stop-color:#fff;stop-opacity:0"/></linearGradient><linearGradient id="linearGradient3634" x1="51.2" x2="51.2" y1="8.114" y2="56.115" gradientTransform="matrix(0.517864,0,0,-0.51786159,-9.8459024,80.754309)" gradientUnits="userSpaceOnUse" xlink:href="#linearGradient4803-8-2"/><linearGradient id="linearGradient4803-8-2"><stop id="stop4805-4-7" offset="0" style="stop-color:#5f5f5f;stop-opacity:1"/><stop id="stop4807-0-3" offset=".331" style="stop-color:#505050;stop-opacity:1"/><stop id="stop4809-0-9" offset="1" style="stop-color:#1c1c1c;stop-opacity:1"/></linearGradient><linearGradient id="linearGradient3636" x1="91.566" x2="91.566" y1="16.543" y2="48.631" gradientTransform="matrix(0.64617596,0,0,0.64617596,-42.775653,43.135864)" gradientUnits="userSpaceOnUse" xlink:href="#linearGradient4811-9-5"/><linearGradient id="linearGradient4811-9-5"><stop id="stop4813-8-9" offset="0" style="stop-color:#3a3842;stop-opacity:1"/><stop id="stop4815-1-5" offset="1" style="stop-color:#303036;stop-opacity:1"/></linearGradient><radialGradient id="radialGradient3638" cx="32" cy="21.239" r="10.498" fx="32" fy="21.239" gradientTransform="matrix(0,0.92988622,-2.1420378,0,62.223256,29.451901)" gradientUnits="userSpaceOnUse" xlink:href="#linearGradient6042-1-7-8-8-5-6-7"/><linearGradient id="linearGradient6042-1-7-8-8-5-6-7"><stop style="stop-color:#261b2b;stop-opacity:1" id="stop6044-9-6-3-6-6-7-2" offset="0"/><stop style="stop-color:#332f35;stop-opacity:1" id="stop6046-9-5-1-2-5-2-5" offset="1"/></linearGradient><radialGradient id="radialGradient3640" cx="23.896" cy="3.99" r="20.397" gradientTransform="matrix(0,0.3237217,-0.42730885,0,18.432905,53.479436)" gradientUnits="userSpaceOnUse" xlink:href="#linearGradient2867-449-88-871-390-598-476-591-434-148-57-177-691-4-22-1-2-5-8-0"/><linearGradient id="linearGradient2867-449-88-871-390-598-476-591-434-148-57-177-691-4-22-1-2-5-8-0"><stop style="stop-color:#612f91;stop-opacity:1" id="stop7191-4-6-8-8-0-3-1" offset="0"/><stop style="stop-color:#1a4aa2;stop-opacity:1" id="stop7197-2-8-6-5-9-2-0" offset="1"/></linearGradient><linearGradient id="linearGradient3642" x1="7.078" x2="7.078" y1="3.082" y2="45.369" gradientTransform="matrix(0.13563873,0,0,0.13563815,13.472584,60.927324)" gradientUnits="userSpaceOnUse" xlink:href="#linearGradient3087-408-5-3-7-9-1-0-7"/><linearGradient id="linearGradient3087-408-5-3-7-9-1-0-7" x1="7.078" x2="7.078" y1="3.082" y2="45.369" gradientTransform="matrix(0.22110724,0,0,0.22110728,6.6934256,6.693263)" gradientUnits="userSpaceOnUse"><stop style="stop-color:#170418;stop-opacity:1" id="stop7201-5-71-3-5-2-6-8" offset="0"/><stop style="stop-color:#50386b;stop-opacity:1" id="stop7203-2-8-8-5-3-1-3" offset="1"/></linearGradient><radialGradient id="radialGradient3644" cx="95.838" cy="95.388" r="9.498" fx="95.838" fy="95.388" gradientTransform="matrix(0.27003341,-4.0265383e-8,3.7832551e-8,0.25371562,-9.1935044,39.881669)" gradientUnits="userSpaceOnUse" xlink:href="#linearGradient4278-3-5-5-9-2-5-3"/><linearGradient id="linearGradient4278-3-5-5-9-2-5-3"><stop style="stop-color:#000;stop-opacity:0" id="stop4280-6-90-6-3-6-0-7" offset="0"/><stop style="stop-color:#000;stop-opacity:0" id="stop4286-1-9-5-7-9-3-1" offset=".5"/><stop style="stop-color:#000;stop-opacity:1" id="stop4282-24-4-0-5-4-5-3" offset="1"/></linearGradient><radialGradient id="radialGradient3646" cx="32.373" cy="31.405" r="3.857" fx="32.373" fy="31.405" gradientTransform="matrix(-0.96458415,0,0,-0.96457967,47.958402,94.480092)" gradientUnits="userSpaceOnUse" xlink:href="#linearGradient6088-74-4-8-8-8-6-6"/><linearGradient id="linearGradient6088-74-4-8-8-8-6-6"><stop style="stop-color:#ff54d2;stop-opacity:0" id="stop6090-5-66-7-7-4-8-0" offset="0"/><stop style="stop-color:#f62b68;stop-opacity:1" id="stop6257-5-4-6-4-1-0-9" offset=".324"/><stop style="stop-color:#ff0105;stop-opacity:1" id="stop6255-6-7-9-7-1-8-5" offset=".561"/><stop style="stop-color:#ff54d2;stop-opacity:.47826087" id="stop6092-0-22-2-1-1-8-3" offset="1"/></linearGradient><linearGradient id="linearGradient3648" x1="92.696" x2="92.696" y1="16.555" y2="48.984" gradientTransform="matrix(0.15597308,0,0,0.15597308,2.3650245,59.102467)" gradientUnits="userSpaceOnUse" xlink:href="#linearGradient4316-4-6-6-4-5-1-8-2-5"/><linearGradient id="linearGradient4316-4-6-6-4-5-1-8-2-5"><stop style="stop-color:#fff;stop-opacity:1" id="stop4318-4-4-6-5-3-0-4-0-8" offset="0"/><stop style="stop-color:#fff;stop-opacity:.23529412" id="stop4320-2-2-6-59-35-1-3-3-1" offset=".338"/><stop style="stop-color:#fff;stop-opacity:.15686275" id="stop4322-4-5-5-0-1-8-6-1-9" offset=".62"/><stop style="stop-color:#fff;stop-opacity:.39215687" id="stop4324-4-1-5-5-42-0-0-9-3" offset="1"/></linearGradient><linearGradient id="linearGradient3650" x1="68.313" x2="68.313" y1="52.925" y2="65.922" gradientTransform="matrix(0.07463932,0,0,0.05597924,11.733362,59.941105)" gradientUnits="userSpaceOnUse" xlink:href="#linearGradient3990-3-1-7-0-9-2-4-4"/><linearGradient id="linearGradient3990-3-1-7-0-9-2-4-4"><stop style="stop-color:#fff;stop-opacity:1" id="stop3992-0-0-1-0-0-2-4-3" offset="0"/><stop style="stop-color:#fff;stop-opacity:0" id="stop3994-2-1-8-6-6-3-9-3" offset="1"/></linearGradient><radialGradient id="radialGradient3652" cx="32.373" cy="31.405" r="3.857" fx="32.373" fy="31.405" gradientTransform="matrix(0.96512258,0.25860262,-0.24965275,0.93171239,-6.6798455,26.546265)" gradientUnits="userSpaceOnUse" xlink:href="#linearGradient6191-9-9-5-0-4-6-9"/><linearGradient id="linearGradient6191-9-9-5-0-4-6-9"><stop style="stop-color:#fff;stop-opacity:0" id="stop6193-8-1-3-2-6-5-5" offset="0"/><stop style="stop-color:#fff;stop-opacity:0" id="stop6197-8-8-7-1-9-0-8" offset=".405"/><stop style="stop-color:#fff;stop-opacity:.47826087" id="stop6195-9-3-6-0-8-1-0" offset="1"/></linearGradient><radialGradient id="radialGradient3654" cx="32.373" cy="31.405" r="3.857" fx="32.373" fy="31.405" gradientTransform="matrix(0,0.99916378,-0.96458415,-4.0234314e-8,47.023815,31.831874)" gradientUnits="userSpaceOnUse" xlink:href="#linearGradient6191-7-9-4-9-2-5-5-2"/><linearGradient id="linearGradient6191-7-9-4-9-2-5-5-2"><stop style="stop-color:#fff;stop-opacity:0" id="stop6193-7-3-6-0-5-9-4-7" offset="0"/><stop style="stop-color:#fff;stop-opacity:0" id="stop6197-2-2-0-4-9-6-6-2" offset=".405"/><stop style="stop-color:#fff;stop-opacity:.47826087" id="stop6195-2-1-9-1-9-7-6-7" offset="1"/></linearGradient><radialGradient id="radialGradient3656" cx="32.373" cy="31.405" r="3.857" fx="32.373" fy="31.405" gradientTransform="matrix(0.58389446,0.81080125,-0.78274057,0.56368145,22.407018,20.226368)" gradientUnits="userSpaceOnUse" xlink:href="#linearGradient6191-8-3-4-5-4-0-3-7"/><linearGradient id="linearGradient6191-8-3-4-5-4-0-3-7"><stop style="stop-color:#fff;stop-opacity:0" id="stop6193-75-7-6-4-2-2-6-6" offset="0"/><stop style="stop-color:#fff;stop-opacity:0" id="stop6197-3-4-1-4-8-0-7-9" offset=".405"/><stop style="stop-color:#fff;stop-opacity:.47826087" id="stop6195-7-2-5-7-8-4-8-5" offset="1"/></linearGradient><radialGradient id="radialGradient3658" cx="32.373" cy="31.405" r="3.857" fx="32.373" fy="31.405" gradientTransform="matrix(-0.68206399,-0.68206081,0.68206399,-0.68206081,17.387712,106.78923)" gradientUnits="userSpaceOnUse" xlink:href="#linearGradient6088-6-1-0-06-8-8-5-6"/><linearGradient id="linearGradient6088-6-1-0-06-8-8-5-6"><stop style="stop-color:#ff54d2;stop-opacity:0" id="stop6090-2-0-4-9-4-0-9-3" offset="0"/><stop style="stop-color:#ff54d2;stop-opacity:0" id="stop6257-4-6-1-76-0-7-7-0" offset=".324"/><stop style="stop-color:#ff54d2;stop-opacity:.2521739" id="stop6255-3-6-7-23-8-1-3-4" offset=".561"/><stop style="stop-color:#ff54d2;stop-opacity:.47826087" id="stop6092-9-6-8-9-2-4-7-6" offset="1"/></linearGradient><radialGradient id="radialGradient3660" cx="36.491" cy="39.709" r="3.159" fx="36.491" fy="39.709" gradientTransform="matrix(1.0665464,-0.61576799,0.35035238,0.60682534,-33.787938,65.609824)" gradientUnits="userSpaceOnUse" xlink:href="#linearGradient6303-4-8-5-0-9-5-3"/><linearGradient id="linearGradient6303-4-8-5-0-9-5-3"><stop style="stop-color:#fff;stop-opacity:1" id="stop6305-33-3-3-7-8-7-0" offset="0"/><stop style="stop-color:#fff;stop-opacity:0" id="stop6307-9-3-4-0-8-1-7" offset="1"/></linearGradient><radialGradient id="radialGradient3662" cx="36.491" cy="39.709" r="3.159" fx="36.491" fy="39.709" gradientTransform="matrix(0.85824228,-0.49550411,0.28192606,0.48830798,-28.7651,59.553221)" gradientUnits="userSpaceOnUse" xlink:href="#linearGradient6303-3-2-1-4-9-8-8-5"/><linearGradient id="linearGradient6303-3-2-1-4-9-8-8-5"><stop style="stop-color:#fff;stop-opacity:1" id="stop6305-3-0-9-0-0-0-4-5" offset="0"/><stop style="stop-color:#fff;stop-opacity:0" id="stop6307-1-0-1-2-1-0-3-2" offset="1"/></linearGradient><radialGradient id="radialGradient3664" cx="36.491" cy="39.709" r="3.159" fx="36.491" fy="39.709" gradientTransform="matrix(0.24482215,0,0,0.25611161,7.5154779,53.607191)" gradientUnits="userSpaceOnUse" xlink:href="#linearGradient6303-33-0-2-0-0-5-3-0"/><linearGradient id="linearGradient6303-33-0-2-0-0-5-3-0"><stop style="stop-color:#fff;stop-opacity:1" id="stop6305-1-0-2-0-2-6-7-5" offset="0"/><stop style="stop-color:#fff;stop-opacity:0" id="stop6307-5-0-6-1-8-7-2-6" offset="1"/></linearGradient><linearGradient id="linearGradient3666" x1="38.851" x2="34.131" y1="41.608" y2="37.81" gradientTransform="matrix(0.24482215,0,0,0.25611161,5.4616573,52.364098)" gradientUnits="userSpaceOnUse" xlink:href="#linearGradient6413-0-0-0-9-7-9-1"/><linearGradient id="linearGradient6413-0-0-0-9-7-9-1"><stop style="stop-color:#feffff;stop-opacity:1" id="stop6415-1-7-3-8-5-5-1" offset="0"/><stop style="stop-color:#fe70ca;stop-opacity:1" id="stop6417-4-9-2-3-3-0-0" offset="1"/></linearGradient><linearGradient id="linearGradient3668" x1="38.851" x2="34.131" y1="41.608" y2="37.81" gradientTransform="matrix(0.17122308,0,0,0.17911867,8.5865171,55.880804)" gradientUnits="userSpaceOnUse" xlink:href="#linearGradient6455-7-3-3-2-4-9-4"/><linearGradient id="linearGradient6455-7-3-3-2-4-9-4"><stop style="stop-color:#fbac9b;stop-opacity:1" id="stop6457-5-1-10-5-0-8-4" offset="0"/><stop style="stop-color:#fcfafc;stop-opacity:1" id="stop6459-8-9-7-0-2-3-1" offset="1"/></linearGradient><linearGradient id="linearGradient3670" x1="28.5" x2="43.5" y1="35.999" y2="35.999" gradientTransform="matrix(0,1.3809704,-1.3809704,0,66.441351,14.467992)" gradientUnits="userSpaceOnUse" xlink:href="#linearGradient4823-3-9"/><linearGradient id="linearGradient4823-3-9"><stop id="stop4825-9-2" offset="0" style="stop-color:#fff;stop-opacity:1"/><stop id="stop4827-2-3" offset="1" style="stop-color:#fff;stop-opacity:0"/></linearGradient></defs><metadata id="metadata4166"/><g style="display:inline" id="layer1"><use id="use4741" width="64" height="64" x="0" y="0" transform="matrix(0.98480775,-0.17364818,0.17364818,0.98480775,-4.2962657,8.0352978)" xlink:href="#g4674"/><g id="g4674" transform="translate(0,-1)"><g id="g4245" transform="translate(-18.911688,-26.409905)"><rect style="opacity:.6;fill:url(#radialGradient4743);fill-opacity:1;stroke:none;display:inline" id="rect2801-5-5-7-9" width="7.895" height="5" x="73.017" y="77.41"/><rect style="opacity:.6;fill:url(#radialGradient4745);fill-opacity:1;stroke:none;display:inline" id="rect3696-3-0-3-7" width="7.895" height="5" x="-28.806" y="-82.41" transform="scale(-1,-1)"/><rect style="opacity:.6;fill:url(#linearGradient4747);fill-opacity:1;stroke:none;display:inline" id="rect3700-5-6-8-4" width="44.211" height="5" x="28.806" y="77.41"/></g><path id="path4059" d="m 58.999941,52.997 6e-5,-42.997 c 0,0 -36.000002,0 -54.000002,0 0,14.33332 1e-6,43 1e-6,43 z" style="opacity:.35;fill:none;stroke:#000;stroke-width:2;stroke-linejoin:round;stroke-miterlimit:4;stroke-opacity:1;stroke-dasharray:none;display:inline"/><path style="fill:url(#linearGradient4749);fill-opacity:1;stroke:none;display:inline" id="path4160-9-48" d="m 58.999941,52.997 6e-5,-42.997 c 0,0 -36.000002,0 -54.000002,0 0,14.33332 1e-6,43 1e-6,43 z"/><path style="opacity:.4;fill:none;stroke:#fff;stroke-width:2;stroke-linejoin:round;stroke-miterlimit:4;stroke-opacity:1;stroke-dasharray:none;display:inline" id="path4238" d="m 58.999941,52.997 6e-5,-42.997 c 0,0 -36.000002,0 -54.000002,0 0,14.33332 1e-6,43 1e-6,43 z" clip-path="url(#clipPath4072)"/><path style="opacity:.4;fill:#fff;fill-opacity:1;stroke:none;display:inline" id="path4078" d="m 5,10 0,1 54,0 0,-1 -54,0 z"/><rect id="rect3383" width="39" height="50" x="12" y="7" ry="0" transform="matrix(0,1,1,0,0,0)" style="color:#bebebe;fill:url(#linearGradient4751);fill-opacity:1;fill-rule:nonzero;stroke:none;stroke-width:0;marker:none;visibility:visible;display:inline;overflow:visible;enable-background:accumulate"/><path style="font-size:medium;font-style:normal;font-variant:normal;font-weight:400;font-stretch:normal;text-indent:0;text-align:start;text-decoration:none;line-height:normal;letter-spacing:normal;word-spacing:normal;text-transform:none;direction:ltr;block-progression:tb;writing-mode:lr-tb;text-anchor:start;baseline-shift:baseline;opacity:.1;color:#000;fill:#fed8cd;fill-opacity:1;stroke:none;stroke-width:2;marker:none;visibility:visible;display:inline;overflow:visible;enable-background:new;font-family:Sans;-inkscape-font-specification:Sans" id="path4086" d="m 20.564248,30.605348 c -3.927972,0 -7.142857,3.214885 -7.142857,7.142857 0,3.927971 3.214885,7.142857 7.142857,7.142857 3.927971,0 7.142857,-3.214886 7.142857,-7.142857 0,-3.927972 -3.214886,-7.142857 -7.142857,-7.142857 z m 0,2.857143 c 2.383857,0 4.285714,1.901857 4.285714,4.285714 0,2.383857 -1.901857,4.285714 -4.285714,4.285714 -2.383857,0 -4.285715,-1.901857 -4.285715,-4.285714 0,-2.383857 1.901858,-4.285714 4.285715,-4.285714 z"/><path style="font-size:medium;font-style:normal;font-variant:normal;font-weight:400;font-stretch:normal;text-indent:0;text-align:start;text-decoration:none;line-height:normal;letter-spacing:normal;word-spacing:normal;text-transform:none;direction:ltr;block-progression:tb;writing-mode:lr-tb;text-anchor:start;baseline-shift:baseline;opacity:.1;color:#000;fill:#fed8cd;fill-opacity:1;stroke:none;stroke-width:4;marker:none;visibility:visible;display:inline;overflow:visible;enable-background:new;font-family:Sans;-inkscape-font-specification:Sans" id="path4088" d="m 20.564248,29.176776 c -4.700029,0 -8.571429,3.8714 -8.571429,8.571429 0,4.700028 3.8714,8.571428 8.571429,8.571428 4.700028,0 8.571428,-3.8714 8.571428,-8.571428 0,-4.700029 -3.8714,-8.571429 -8.571428,-8.571429 z m 0,5.714286 c 1.6118,0 2.857142,1.245343 2.857142,2.857143 0,1.6118 -1.245342,2.857143 -2.857142,2.857143 -1.6118,0 -2.857143,-1.245343 -2.857143,-2.857143 0,-1.6118 1.245343,-2.857143 2.857143,-2.857143 z"/><path style="font-size:medium;font-style:normal;font-variant:normal;font-weight:400;font-stretch:normal;text-indent:0;text-align:start;text-decoration:none;line-height:normal;letter-spacing:normal;word-spacing:normal;text-transform:none;direction:ltr;block-progression:tb;writing-mode:lr-tb;text-anchor:start;baseline-shift:baseline;opacity:.1;color:#000;fill:#fed8cd;fill-opacity:1;stroke:none;stroke-width:6;marker:none;visibility:visible;display:inline;overflow:visible;enable-background:new;font-family:Sans;-inkscape-font-specification:Sans" id="path4090" d="m 20.564248,27.748205 c -5.472086,0 -10,4.527914 -10,10 0,5.472085 4.527914,10 10,10 5.472085,0 9.999999,-4.527915 9.999999,-10 0,-5.472086 -4.527914,-10 -9.999999,-10 z m 0,8.571428 c 0.839742,0 1.428571,0.588829 1.428571,1.428572 0,0.839743 -0.588829,1.428571 -1.428571,1.428571 -0.839743,0 -1.428572,-0.588828 -1.428572,-1.428571 0,-0.839743 0.588829,-1.428572 1.428572,-1.428572 z"/><path style="color:#000;fill:url(#linearGradient4753);fill-opacity:1;fill-rule:evenodd;stroke:none;stroke-width:14;marker:none;visibility:visible;display:inline;overflow:visible;enable-background:new" id="path4082" d="m 20.564248,32.033948 c 3.155914,0 5.714285,2.558371 5.714285,5.714285 0,3.155915 -2.558371,5.714286 -5.714285,5.714286 -3.155915,0 -5.714286,-2.558371 -5.714286,-5.714286 0,-3.155914 2.558371,-5.714285 5.714286,-5.714285 z"/><path style="fill:#000;fill-opacity:1;stroke:none;display:inline" id="path4084" d="m 7.0000016,44.71431 0,-1.428571 c 0,0 3.6056284,-2.380857 4.6193274,-2.588572 1.013715,-0.207714 2.210843,-0.03857 3.441172,0.193572 1.230343,0.231428 3.067157,0.544428 3.640414,0.564 0.573271,0.02 1.610671,-0.05 2.816014,-0.122857 1.205343,-0.07143 3.201129,-0.137143 3.823629,-0.13 0.6225,0 2.176543,0.08571 3.833085,0.186857 1.656543,0.101428 3.931815,0.270857 4.448043,0.318285 0.516243,0.04714 1.123057,0.134286 1.8117,0.229286 0.688629,0.09429 1.880814,0.236714 2.302572,0.275857 0.421742,0.03857 1.399514,0.173 2.533999,0.277429 1.134486,0.104286 2.949986,0.14 3.474286,0.101428 0.5243,-0.03857 1.623272,-0.426857 2.847957,-0.784714 1.224686,-0.357714 2.5751,-0.685286 3.602286,-0.604286 C 51.221672,41.283453 57,43.285596 57,43.285596 l 0,1.428571 -7.5,0 -6.071428,0 -6.071429,0 -6.071428,0 -6.071429,0 -6.071428,0 -6.071429,0 z"/><path id="path4092" d="m 7.0000016,44.71431 0,0.932143 c 0,0 3.6056284,1.553286 4.6193274,1.688857 1.013715,0.135714 2.210843,0.02571 3.441172,-0.125714 1.230343,-0.151 3.067157,-0.355286 3.640414,-0.368 0.573271,-0.01429 1.610671,0.03286 2.816014,0.08 1.205343,0.04714 3.201129,0.09 3.823629,0.08429 0.6225,0 2.176543,-0.05571 3.833085,-0.121428 1.656543,-0.06571 3.931815,-0.176714 4.448043,-0.207572 0.516243,-0.03143 1.123057,-0.08714 1.8117,-0.149714 0.688629,-0.06143 1.880814,-0.154286 2.302572,-0.179857 0.421742,-0.02571 1.399514,-0.112857 2.533999,-0.181143 1.134486,-0.06857 2.949986,-0.09143 3.474286,-0.06571 0.5243,0.02571 1.623272,0.278571 2.847957,0.512 1.224686,0.233428 2.5751,0.447143 3.602286,0.394286 C 51.221672,46.953881 57,45.64731 57,45.64731 l 0,-0.932 -7.5,0 -6.071428,0 -6.071429,0 -6.071428,0 -6.071429,0 -6.071428,0 -6.071429,0 z" style="opacity:.9;fill:#000;fill-opacity:1;stroke:none;display:inline"/><path style="opacity:.3;color:#000;fill:#4d585e;fill-opacity:1;stroke:none;stroke-width:6;marker:none;visibility:visible;display:inline;overflow:visible;enable-background:new" id="rect4102" d="M 7.000001,44.714286 57,44.714286 57,49 7.000001,49 z"/><rect style="opacity:.2;color:#bebebe;fill:none;stroke:#000;stroke-width:2;stroke-miterlimit:4;stroke-opacity:1;stroke-dasharray:none;marker:none;visibility:visible;display:inline;overflow:visible;enable-background:accumulate" id="rect4653" width="39" height="50" x="12" y="7" clip-path="url(#clipPath4657)" ry="0" transform="matrix(0,1,1,0,0,0)"/></g></g><g style="display:inline" id="layer2"><g id="g3691" transform="translate(29.999996,30)"><path style="fill:url(#radialGradient3972-3);fill-opacity:1;stroke:none;display:inline;filter:url(#filter5927);enable-background:new" id="path8606" d="m 45.052803,38.908627 c 0,4.128399 -9.045214,7.475128 -20.203051,7.475128 -11.157836,0 -20.2030502,-3.346729 -20.2030502,-7.475128 0,-4.1284 9.0452142,-7.475129 20.2030502,-7.475129 11.157837,0 20.203051,3.346729 20.203051,7.475129 z" transform="matrix(0.51081599,0,0,0.46595786,3.1704533,10.023687)"/><path id="path8608" d="m 45.052803,38.908627 c 0,4.128399 -9.045214,7.475128 -20.203051,7.475128 -11.157836,0 -20.2030502,-3.346729 -20.2030502,-7.475128 0,-4.1284 9.0452142,-7.475129 20.2030502,-7.475129 11.157837,0 20.203051,3.346729 20.203051,7.475129 z" transform="matrix(0.69053217,0,0,0.62989172,-1.2951468,3.2832567)" style="opacity:.51836697;fill:url(#radialGradient3755-9);fill-opacity:1;stroke:none;display:inline;filter:url(#filter5788);enable-background:new"/><g style="display:inline" id="g5064" transform="translate(37.999942,-76.999999)"><g id="g4796" transform="translate(-38.72786,28.81726)" style="display:inline"><path id="path3431" d="m 16.727918,49.682739 c -8.0005971,0 -14.4999962,6.499398 -14.4999962,14.5 0,8.000602 6.4993991,14.5 14.4999962,14.5 8.000596,0 14.500009,-6.499398 14.499996,-14.5 0,-8.000602 -6.4994,-14.5 -14.499996,-14.5 z" style="color:#000;fill:url(#radialGradient3630);fill-opacity:1;fill-rule:nonzero;stroke:none;stroke-width:.99999994;marker:none;visibility:visible;display:inline;overflow:visible;enable-background:accumulate"/><path id="path3433" d="m 16.727918,77.301955 c -7.2455488,0 -13.1192191,-5.873667 -13.1192191,-13.119231 0,-7.245539 5.8736703,-13.119204 13.1192191,-13.119204 7.245551,0 13.11922,5.873667 13.11922,13.119204 0,7.245564 -5.873669,13.119233 -13.11922,13.119233 z" style="opacity:.6;color:#000;fill:none;stroke:url(#linearGradient3632);stroke-width:1.38097012;stroke-linecap:round;stroke-linejoin:round;stroke-miterlimit:4;stroke-opacity:1;stroke-dasharray:none;stroke-dashoffset:0;marker:none;visibility:visible;display:inline;overflow:visible;enable-background:accumulate"/><path id="path3435" d="m 16.727931,76.611416 c -6.8580919,0 -12.4287469,-5.571247 -12.4287469,-12.428677 0,-6.858022 5.5712765,-12.428678 12.4287469,-12.428678 6.858038,0 12.42872,5.571247 12.42872,12.428678 0,6.85803 -5.571276,12.428677 -12.42872,12.428677 z" style="color:#000;fill:url(#linearGradient3634);fill-opacity:1;fill-rule:nonzero;stroke:none;stroke-width:.99999994;marker:none;visibility:visible;display:inline;overflow:visible;enable-background:accumulate"/><path id="path3437" d="m 27.085203,64.182739 a 10.357279,10.357279 0 0 1 -20.7145578,0 10.357279,10.357279 0 1 1 20.7145578,0 z" style="color:#000;fill:url(#linearGradient3636);fill-opacity:1;fill-rule:nonzero;stroke:none;stroke-width:.79069769;marker:none;visibility:visible;display:inline;overflow:visible;enable-background:accumulate"/><path id="path3439" d="m 27.08525,64.182739 a 10.357327,10.35728 0 0 1 -20.7146531,0 10.357327,10.35728 0 1 1 20.7146531,0 z" style="opacity:.3;color:#000;fill:none;stroke:#000;stroke-width:1.38097036;stroke-linecap:butt;stroke-linejoin:miter;stroke-miterlimit:4;stroke-opacity:1;stroke-dasharray:none;stroke-dashoffset:0;marker:none;visibility:visible;display:inline;overflow:visible;enable-background:accumulate"/><path id="path3441" d="m 24.323294,64.182738 a 7.5953723,7.5953372 0 1 1 -15.1907425,0 7.5953723,7.5953372 0 1 1 15.1907425,0 z" style="opacity:.1;color:#000;fill:none;stroke:#000;stroke-width:2.76194072;stroke-linecap:butt;stroke-linejoin:miter;stroke-miterlimit:4;stroke-opacity:1;stroke-dasharray:none;stroke-dashoffset:0;marker:none;visibility:visible;display:inline;overflow:visible;enable-background:accumulate"/><path id="path3445" d="m 16.727918,59.329639 c -2.677702,0 -4.853103,2.175273 -4.853103,4.853091 0,2.677716 2.175401,4.8531 4.853103,4.8531 2.677715,0 4.853103,-2.175273 4.853103,-4.8531 0,-2.677709 -2.175277,-4.853091 -4.853103,-4.853091 z" style="fill:url(#radialGradient3638);fill-opacity:1;stroke:none"/><path id="path3447" d="m 16.727904,59.351864 c -2.665453,0 -4.830869,2.165323 -4.830869,4.830868 0,2.665449 2.165416,4.830879 4.830869,4.830879 2.66548,0 4.830911,-2.165313 4.830911,-4.830879 0,-2.665448 -2.165334,-4.830868 -4.830911,-4.830868 z" style="opacity:.3;fill:none;stroke:#000;stroke-width:1.38601661;stroke-linecap:round;stroke-linejoin:round;stroke-miterlimit:4;stroke-opacity:1;stroke-dasharray:none;stroke-dashoffset:0"/><path id="path3449" d="m 16.727821,60.35757 c -2.110661,0 -3.825357,1.714598 -3.825357,3.825329 0,2.110631 1.714696,3.82532 3.825357,3.82532 2.110634,0 3.825343,-1.714598 3.825343,-3.82532 0,-2.110651 -1.714626,-3.825329 -3.825343,-3.825329 z" style="fill:#2a232b;fill-opacity:1;stroke:none"/><path id="path3451" d="m 16.727918,61.423321 c -1.522534,0 -2.759428,1.236835 -2.759428,2.759411 0,1.522523 1.236894,2.759424 2.759428,2.759424 1.52252,0 2.759441,-1.236835 2.759441,-2.759424 0,-1.52251 -1.236866,-2.759411 -2.759441,-2.759411 z" style="fill:url(#radialGradient3640);fill-opacity:1;stroke:url(#linearGradient3642);stroke-width:1.38601661;stroke-linecap:round;stroke-linejoin:round;stroke-miterlimit:4;stroke-dasharray:none;stroke-dashoffset:0"/><path id="path3453" d="m 16.727931,62.182718 c -1.103547,0 -2.000031,0.89646 -2.000031,2.000012 0,1.103521 0.896484,2.00003 2.000031,2.00003 1.10352,0 2.000018,-0.89646 2.000018,-2.00003 0,-1.103502 -0.896456,-2.000012 -2.000018,-2.000012 z" style="opacity:.5;fill:url(#radialGradient3644);fill-opacity:1;stroke:none"/><path id="path3455" d="m 16.727918,60.684523 c -1.930155,0 -3.498219,1.567986 -3.498219,3.498205 0,1.93016 1.568064,3.498216 3.498219,3.498216 1.930154,0 3.498219,-1.567976 3.498219,-3.498216 0,-1.930149 -1.567996,-3.498205 -3.498219,-3.498205 z" style="opacity:.3;fill:none;stroke:#000;stroke-width:1.38601661;stroke-linecap:round;stroke-linejoin:round;stroke-miterlimit:4;stroke-opacity:1;stroke-dasharray:none;stroke-dashoffset:0"/><path id="path3457" d="m 13.192777,63.496315 a 3.6011013,3.6010846 0 0 1 2.603011,-2.791798 l 0.932033,3.47838 z" style="opacity:.4;color:#000;fill:url(#radialGradient3646);fill-opacity:1;fill-rule:nonzero;stroke:none;stroke-width:1;marker:none;visibility:visible;display:inline;overflow:visible;enable-background:accumulate"/><path id="path3459" d="m 19.227944,64.182734 a 2.500026,2.500026 0 0 1 -5.000052,0 2.500026,2.500026 0 1 1 5.000052,0 z" style="opacity:.3;color:#000;fill:none;stroke:url(#linearGradient3648);stroke-width:1.3809706;stroke-linecap:butt;stroke-linejoin:miter;stroke-miterlimit:4;stroke-opacity:1;stroke-dasharray:none;stroke-dashoffset:0;marker:none;visibility:visible;display:inline;overflow:visible;enable-background:accumulate"/><path id="path3461" d="m 17.580529,63.543362 a 0.852715,0.63953324 0 0 1 -1.70543,0 0.852715,0.63953324 0 1 1 1.70543,0 z" style="opacity:.5;color:#000;fill:url(#linearGradient3650);fill-opacity:1;stroke:none;stroke-width:1;marker:none;visibility:visible;display:inline;overflow:visible;enable-background:accumulate"/><path id="path3463" d="m 20.328908,64.182892 a 3.6011013,3.6010846 0 0 1 -0.227375,1.25932 l -3.373726,-1.25932 z" style="opacity:.4;color:#000;fill:url(#radialGradient3652);fill-opacity:1;fill-rule:nonzero;stroke:none;stroke-width:1;marker:none;visibility:visible;display:inline;overflow:visible;enable-background:accumulate"/><path id="path3465" d="m 17.051487,67.769408 a 3.6011014,3.6010846 0.22315868 0 1 -1.151145,-0.08178 l 0.82746,-3.504729 z" style="opacity:.4;color:#000;fill:url(#radialGradient3654);fill-opacity:1;fill-rule:nonzero;stroke:none;stroke-width:1;marker:none;visibility:visible;display:inline;overflow:visible;enable-background:accumulate"/><path id="path3467" d="m 19.786299,66.083819 a 3.6011013,3.6010846 0.09114427 0 1 -1.681852,1.426635 l -1.376638,-3.327566 z" style="opacity:.4;color:#000;fill:url(#radialGradient3656);fill-opacity:1;fill-rule:nonzero;stroke:none;stroke-width:1;marker:none;visibility:visible;display:inline;overflow:visible;enable-background:accumulate"/><path id="path3469" d="m 14.181446,60.736272 a 3.6011013,3.6010844 0 0 1 5.092726,0 l -2.546363,2.546352 z" style="opacity:.5;color:#000;fill:url(#radialGradient3658);fill-opacity:1;fill-rule:nonzero;stroke:none;stroke-width:1;marker:none;visibility:visible;display:inline;overflow:visible;enable-background:accumulate"/><path id="path3471" d="m 22.412742,65.291008 a 2.2134687,3.8903478 60.000225 1 1 -6.738288,3.890334 2.2134687,3.8903478 60.000225 0 1 6.738288,-3.890334 z" style="opacity:.2;color:#000;fill:url(#radialGradient3660);fill-opacity:1;fill-rule:nonzero;stroke:none;stroke-width:1;marker:none;visibility:visible;display:inline;overflow:visible;enable-background:accumulate"/><path id="path3473" d="m 16.459186,59.29667 a 1.7811627,3.1305357 60.000226 0 1 -5.422253,3.130524 1.7811627,3.1305357 60.000226 1 1 5.422253,-3.130524 z" style="opacity:.4;color:#000;fill:url(#radialGradient3662);fill-opacity:1;fill-rule:nonzero;stroke:none;stroke-width:1;marker:none;visibility:visible;display:inline;overflow:visible;enable-background:accumulate"/><path id="path3475" d="m 17.222675,63.777108 a 0.77337568,0.80903828 0 1 1 -1.54675,0 0.77337568,0.80903828 0 1 1 1.54675,0 z" style="opacity:.8;color:#000;fill:url(#radialGradient3664);fill-opacity:1;fill-rule:nonzero;stroke:none;stroke-width:1;marker:none;visibility:visible;display:inline;overflow:visible;enable-background:accumulate"/><path id="path3477" d="m 15.168855,62.534015 a 0.77337568,0.80903828 0 1 1 -1.546751,0 0.77337568,0.80903828 0 1 1 1.546751,0 z" style="opacity:.4;color:#000;fill:url(#linearGradient3666);fill-opacity:1;fill-rule:nonzero;stroke:none;stroke-width:1;marker:none;visibility:visible;display:inline;overflow:visible;enable-background:accumulate"/><path id="path3479" d="m 15.375513,62.993414 a 0.540882,0.56582361 0 1 1 -1.081764,0 0.540882,0.56582361 0 1 1 1.081764,0 z" style="opacity:.4;color:#000;fill:url(#linearGradient3668);fill-opacity:1;fill-rule:nonzero;stroke:none;stroke-width:1;marker:none;visibility:visible;display:inline;overflow:visible;enable-background:accumulate"/><path style="opacity:.2;color:#000;fill:url(#linearGradient3670);fill-opacity:1;stroke:none;stroke-width:1;marker:none;visibility:visible;display:inline;overflow:visible;enable-background:accumulate" id="path3481" d="m 16.726226,74.540064 a 10.357279,10.357326 0 0 1 0,-20.714653 10.357279,10.357326 0 1 1 0,20.714653 z"/><path style="opacity:.3;color:#000;fill:none;stroke:#000;stroke-width:1.38097036;stroke-linecap:butt;stroke-linejoin:miter;stroke-miterlimit:4;stroke-opacity:1;stroke-dasharray:none;stroke-dashoffset:0;marker:none;visibility:visible;display:inline;overflow:visible;enable-background:accumulate" id="path3483" d="m 24.323294,64.182738 a 7.5953723,7.5953372 0 1 1 -15.1907425,0 7.5953723,7.5953372 0 1 1 15.1907425,0 z"/><path style="opacity:.41000001;color:#000;fill:none;stroke:#000;stroke-width:1;stroke-miterlimit:4;stroke-opacity:1;stroke-dasharray:none;marker:none;visibility:visible;display:inline;overflow:visible;enable-background:accumulate" id="path3954" d="m 16.727918,49.682739 c -8.0005971,0 -14.4999962,6.499398 -14.4999962,14.5 0,8.000602 6.4993991,14.5 14.4999962,14.5 8.000596,0 14.500009,-6.499398 14.499996,-14.5 0,-8.000602 -6.4994,-14.5 -14.499996,-14.5 z"/></g></g></g></g></svg>