<svg xmlns="http://www.w3.org/2000/svg" xmlns:svg="http://www.w3.org/2000/svg" xmlns:xlink="http://www.w3.org/1999/xlink" id="svg4161" width="64" height="64" version="1.1"><defs id="defs4163"><linearGradient id="linearGradient3905"><stop id="stop3907" offset="0" style="stop-color:#fff;stop-opacity:1"/><stop id="stop3909" offset="1" style="stop-color:#fff;stop-opacity:0"/></linearGradient><linearGradient id="linearGradient3688-166-749-4-0-3-8"><stop style="stop-color:#181818;stop-opacity:1" id="stop2883-4-0-1-8" offset="0"/><stop style="stop-color:#181818;stop-opacity:0" id="stop2885-9-2-9-6" offset="1"/></linearGradient><linearGradient id="linearGradient3688-464-309-9-2-4-2"><stop style="stop-color:#181818;stop-opacity:1" id="stop2889-7-9-6-9" offset="0"/><stop style="stop-color:#181818;stop-opacity:0" id="stop2891-6-6-1-7" offset="1"/></linearGradient><linearGradient id="linearGradient3702-501-757-8-4-1-1"><stop style="stop-color:#181818;stop-opacity:0" id="stop2895-8-9-9-1" offset="0"/><stop style="stop-color:#181818;stop-opacity:1" id="stop2897-7-8-7-7" offset=".5"/><stop style="stop-color:#181818;stop-opacity:0" id="stop2899-4-5-1-5" offset="1"/></linearGradient><linearGradient id="linearGradient3884" x1="4.5" x2="59.5" y1="32" y2="32" gradientTransform="translate(-64,-64)" gradientUnits="userSpaceOnUse" xlink:href="#outerBackgroundGradient-0"/><linearGradient id="linearGradient3897" x1="25.058" x2="25.058" y1="47.028" y2="39.999" gradientTransform="matrix(1.5789502,0,0,0.7142857,-5.894751,27.928572)" gradientUnits="userSpaceOnUse" xlink:href="#linearGradient3702-501-757-8-4-1-1"/><radialGradient id="radialGradient3900" cx="4.993" cy="43.5" r="2.5" fx="4.993" fy="43.5" gradientTransform="matrix(3.1638751,0,0,0.99999998,-25.702995,-102.5)" gradientUnits="userSpaceOnUse" xlink:href="#linearGradient3688-464-309-9-2-4-2"/><radialGradient id="radialGradient3903" cx="4.993" cy="43.5" r="2.5" fx="4.993" fy="43.5" gradientTransform="matrix(3.1638751,0,0,0.99999998,38.297112,15.500001)" gradientUnits="userSpaceOnUse" xlink:href="#linearGradient3688-166-749-4-0-3-8"/><linearGradient id="linearGradient3911" x1="32" x2="32" y1="4" y2="60" gradientUnits="userSpaceOnUse" xlink:href="#linearGradient3905"/><linearGradient id="linearGradient3721"><stop id="stop3723" offset="0" style="stop-color:#26ee2d;stop-opacity:0"/><stop style="stop-color:#26ee2d;stop-opacity:1" id="stop3725" offset=".195"/><stop style="stop-color:#26ee2d;stop-opacity:1" id="stop3727" offset=".5"/><stop style="stop-color:#26ee2d;stop-opacity:1" id="stop3729" offset=".805"/><stop id="stop3731" offset="1" style="stop-color:#26ee2d;stop-opacity:0"/></linearGradient><linearGradient id="outerBackgroundGradient-0"><stop id="stop3864-8-6-2" offset="0" style="stop-color:#232d1e;stop-opacity:1"/><stop id="stop3866-9-1-6" offset="1" style="stop-color:#36432f;stop-opacity:1"/></linearGradient><linearGradient id="linearGradient3891" x1="5" x2="59" y1="31.547" y2="31.547" gradientTransform="translate(0,1)" gradientUnits="userSpaceOnUse" xlink:href="#linearGradient3721"/><linearGradient id="linearGradient3893" x1="291" x2="333" y1="244" y2="244" gradientTransform="matrix(1.3684201,0,0,1.3684201,-394.94707,-301.30077)" gradientUnits="userSpaceOnUse" xlink:href="#linearGradient3721"/></defs><metadata id="metadata4166"/><g style="display:inline" id="layer1"><rect style="opacity:.6;fill:url(#radialGradient3903);fill-opacity:1;stroke:none" id="rect2801-5-5-7-9" width="7.895" height="5" x="54.105" y="56.5"/><rect style="opacity:.6;fill:url(#radialGradient3900);fill-opacity:1;stroke:none" id="rect3696-3-0-3-7" width="7.895" height="5" x="-9.895" y="-61.5" transform="scale(-1,-1)"/><rect style="opacity:.6;fill:url(#linearGradient3897);fill-opacity:1;stroke:none" id="rect3700-5-6-8-4" width="44.211" height="5" x="9.895" y="56.5"/><rect id="rect5505-21-3-8-5-2" width="55" height="55" x="-59.5" y="-59.5" rx="3" ry="3" transform="matrix(0,-1,-1,0,0,0)" style="color:#000;fill:url(#linearGradient3884);fill-opacity:1;fill-rule:nonzero;stroke:none;stroke-width:.99999994000000003;marker:none;visibility:visible;display:inline;overflow:visible;enable-background:accumulate"/><rect id="rect6741-5-0-2-3" width="53" height="53.142" x="5.5" y="5.429" rx="2" ry="2" style="opacity:.1;fill:none;stroke:url(#linearGradient3911);stroke-width:1;stroke-linecap:round;stroke-linejoin:round;stroke-miterlimit:4;stroke-opacity:1;stroke-dasharray:none;stroke-dashoffset:0"/><rect id="rect5505-21-3-8-9-1-1" width="55" height="55" x="4.5" y="4.5" rx="3" ry="3" style="opacity:.61000001;color:#000;fill:none;stroke:#000;stroke-width:1;stroke-linecap:round;stroke-linejoin:round;stroke-miterlimit:4;stroke-opacity:1;stroke-dasharray:none;stroke-dashoffset:0;marker:none;visibility:visible;display:inline;overflow:visible;enable-background:accumulate"/><path id="rect3932" d="M 7.5,5 C 6.1063514,5 5,6.1063514 5,7.5 l 0,1 C 5,7.1063514 6.1063514,6 7.5,6 l 49,0 C 57.893649,6 59,7.1063514 59,8.5 l 0,-1 C 59,6.1063514 57.893649,5 56.5,5 l -49,0 z" style="opacity:.15;color:#000;fill:#fff;fill-opacity:1;fill-rule:nonzero;stroke:none;stroke-width:.99999994;marker:none;visibility:visible;display:inline;overflow:visible;enable-background:accumulate"/><path style="opacity:.15;color:#000;fill:#fff;fill-opacity:1;fill-rule:nonzero;stroke:none;stroke-width:.99999994;marker:none;visibility:visible;display:inline;overflow:visible;enable-background:accumulate" id="path3946" d="M 7.5,59 C 6.1063514,59 5,57.893649 5,56.5 l 0,-1 C 5,56.893649 6.1063514,58 7.5,58 l 49,0 c 1.393649,0 2.5,-1.106351 2.5,-2.5 l 0,1 c 0,1.393649 -1.106351,2.5 -2.5,2.5 l -49,0 z"/></g><g style="display:inline" id="layer2"><path id="path3267" d="m 18.4375,15.53125 -0.5,2.5625 0,0.03125 L 14.625,36.8125 14.59375,37 14.375,37 6,37 l 0,1.03125 9.46875,0 2.6875,-15.25 0,-0.09375 0.5,0 0,0.09375 3.90625,24 0,0.03125 0.5,2.75 0.5,-2.75 0,-0.03125 L 25.25,35.21875 25.28125,35 25.5,35 l 5.59375,0 0.78125,-2.21875 0.03125,-0.125 0.25,-0.8125 0.21875,0.8125 2.5,9.125 1.71875,-3.625 0.0625,-0.125 0.15625,0 21.1875,0 L 58,37 l -21.96875,0 -0.59375,1.25 -0.28125,0.59375 -0.1875,-0.65625 -2.75,-9.9375 -1.8125,5.5625 -0.0625,0.1875 -0.1875,0 -5.75,0 -1.125,7.6875 0,0.0625 -0.5,0 0,-0.0625 L 18.9375,18.125 z" style="fill:url(#linearGradient3893);fill-opacity:1;fill-rule:evenodd;stroke:none;display:inline;enable-background:new"/><path style="opacity:.1;fill:none;stroke:url(#linearGradient3891);stroke-width:2;stroke-miterlimit:4;stroke-opacity:1;stroke-dasharray:none;display:inline;enable-background:new" id="path3882" d="m 18.4375,15.53125 -0.5,2.5625 0,0.03125 L 14.625,36.8125 14.59375,37 14.375,37 6,37 l 0,1.03125 9.46875,0 2.6875,-15.25 0,-0.09375 0.5,0 0,0.09375 3.90625,24 0,0.03125 0.5,2.75 0.5,-2.75 0,-0.03125 L 25.25,35.21875 25.28125,35 25.5,35 l 5.59375,0 0.78125,-2.21875 0.03125,-0.125 0.25,-0.8125 0.21875,0.8125 2.5,9.125 1.71875,-3.625 0.0625,-0.125 0.15625,0 21.1875,0 L 58,37 l -21.96875,0 -0.59375,1.25 -0.28125,0.59375 -0.1875,-0.65625 -2.75,-9.9375 -1.8125,5.5625 -0.0625,0.1875 -0.1875,0 -5.75,0 -1.125,7.6875 0,0.0625 -0.5,0 0,-0.0625 L 18.9375,18.125 z"/></g></svg>