<svg xmlns="http://www.w3.org/2000/svg" xmlns:osb="http://www.openswatchbook.org/uri/2009/osb" xmlns:svg="http://www.w3.org/2000/svg" style="enable-background:new" id="svg7384" width="16" height="16" version="1.1"><metadata id="metadata90"/><title id="title8473">Moka Symbolic Icon Theme</title><defs id="defs7386"><linearGradient id="linearGradient5606" osb:paint="solid"><stop style="stop-color:#000;stop-opacity:1" id="stop5608" offset="0"/></linearGradient><filter id="filter7554" color-interpolation-filters="sRGB"><feBlend id="feBlend7556" in2="BackgroundImage" mode="darken"/></filter></defs><g style="display:inline" id="layer15" transform="translate(-685.0004,227.0034)"><g id="g35541" transform="translate(338.8097,-1190.1815)"><path style="fill:#bebebe;fill-opacity:1;stroke:none" id="path35543" d="m 452,247 c -3.86599,0 -7,3.13401 -7,7 0,3.86599 3.13401,7 7,7 3.86599,0 7,-3.13401 7,-7 0,-3.86599 -3.13401,-7 -7,-7 z m -1,3 2,0 0,3 -0.25,2 -1.46875,0 -0.28125,-2 0,-3 z m 1,5.75 c 0.69036,0 1.25,0.55964 1.25,1.25 0,0.69036 -0.55964,1.25 -1.25,1.25 -0.69036,0 -1.25,-0.55964 -1.25,-1.25 0,-0.69036 0.55964,-1.25 1.25,-1.25 z" transform="translate(-97.8095,717.1815)"/></g></g></svg>