<svg xmlns="http://www.w3.org/2000/svg" xmlns:osb="http://www.openswatchbook.org/uri/2009/osb" xmlns:svg="http://www.w3.org/2000/svg" style="enable-background:new" id="svg7384" width="16" height="16" version="1.1"><metadata id="metadata90"/><title id="title8473">Moka Symbolic Icon Theme</title><defs id="defs7386"><linearGradient id="linearGradient5606" osb:paint="solid"><stop style="stop-color:#000;stop-opacity:1" id="stop5608" offset="0"/></linearGradient><filter style="color-interpolation-filters:sRGB" id="filter7554"><feBlend id="feBlend7556" in2="BackgroundImage" mode="darken"/></filter></defs><g style="display:inline" id="layer15" transform="translate(-741.0002,224.00336)"><g id="g6513" transform="translate(192.0002,-436.00336)"><path style="color:#bebebe;display:inline;overflow:visible;visibility:visible;fill:#bebebe;fill-opacity:1;fill-rule:nonzero;stroke:none;stroke-width:4;marker:none;enable-background:accumulate" id="path6515" d="m 536.5,65 c -1.38071,0 -2.5,1.11929 -2.5,2.5 0,0.218421 0.0411,0.423059 0.0937,0.625 l -3.9687,2.46875 C 529.68904,70.223577 529.11672,70 528.5,70 c -1.38071,0 -2.5,1.11929 -2.5,2.5 0,1.38071 1.11929,2.5 2.5,2.5 0.61672,0 1.18904,-0.223577 1.625,-0.59375 l 3.96875,2.46875 C 534.04112,77.076941 534,77.281579 534,77.5 c 0,1.38071 1.11929,2.5 2.5,2.5 1.38071,0 2.5,-1.11929 2.5,-2.5 0,-1.38071 -1.11929,-2.5 -2.5,-2.5 -0.61672,0 -1.18904,0.223577 -1.625,0.59375 L 530.90625,73.125 C 530.95888,72.923059 531,72.718421 531,72.5 c 0,-0.218421 -0.0411,-0.423059 -0.0937,-0.625 l 3.9687,-2.46875 C 535.31096,69.776423 535.88328,70 536.5,70 c 1.38071,0 2.5,-1.11929 2.5,-2.5 0,-1.38071 -1.11929,-2.5 -2.5,-2.5 z" transform="translate(24,148)"/></g></g></svg>