<svg xmlns="http://www.w3.org/2000/svg" xmlns:svg="http://www.w3.org/2000/svg" xmlns:xlink="http://www.w3.org/1999/xlink" id="svg5014" width="32" height="32" version="1.1"><defs id="defs5016"><linearGradient id="linearGradient4025"><stop id="stop4027" offset="0" style="stop-color:#fff;stop-opacity:1"/><stop id="stop4029" offset="1" style="stop-color:#fb0;stop-opacity:1"/></linearGradient><linearGradient id="linearGradient3969"><stop id="stop3971" offset="0" style="stop-color:#a7a7a7;stop-opacity:1"/><stop style="stop-color:#e6e6e6;stop-opacity:1" id="stop3973" offset=".125"/><stop id="stop3975" offset="1" style="stop-color:#f2f2f2;stop-opacity:1"/></linearGradient><linearGradient id="linearGradient3945"><stop style="stop-color:#a7a7a7;stop-opacity:1" id="stop3947" offset="0"/><stop id="stop3949" offset=".25" style="stop-color:#e6e6e6;stop-opacity:1"/><stop style="stop-color:#f2f2f2;stop-opacity:1" id="stop3951" offset="1"/></linearGradient><linearGradient id="linearGradient3937"><stop style="stop-color:#a7a7a7;stop-opacity:1" id="stop3939" offset="0"/><stop id="stop3941" offset=".313" style="stop-color:#e6e6e6;stop-opacity:1"/><stop style="stop-color:#f2f2f2;stop-opacity:1" id="stop3943" offset="1"/></linearGradient><linearGradient id="linearGradient3107"><stop style="stop-color:#232323;stop-opacity:1" id="stop3109" offset="0"/><stop id="stop3111" offset=".783" style="stop-color:#535353;stop-opacity:1"/><stop id="stop3113" offset=".783" style="stop-color:#676767;stop-opacity:1"/><stop style="stop-color:#676767;stop-opacity:1" id="stop3115" offset="1"/></linearGradient><linearGradient id="linearGradient3960"><stop id="stop3962" offset="0" style="stop-color:#000;stop-opacity:0"/><stop style="stop-color:#000;stop-opacity:1" id="stop3970" offset=".5"/><stop id="stop3964" offset="1" style="stop-color:#000;stop-opacity:0"/></linearGradient><linearGradient id="linearGradient3952"><stop id="stop3954" offset="0" style="stop-color:#000;stop-opacity:1"/><stop id="stop3956" offset="1" style="stop-color:#000;stop-opacity:0"/></linearGradient><linearGradient id="linearGradient3944"><stop id="stop3946" offset="0" style="stop-color:#000;stop-opacity:1"/><stop id="stop3948" offset="1" style="stop-color:#000;stop-opacity:0"/></linearGradient><linearGradient id="linearGradient3944-0"><stop id="stop3946-4" offset="0" style="stop-color:#000;stop-opacity:1"/><stop id="stop3948-8" offset="1" style="stop-color:#000;stop-opacity:0"/></linearGradient><linearGradient id="linearGradient3952-7"><stop id="stop3954-8" offset="0" style="stop-color:#000;stop-opacity:1"/><stop id="stop3956-9" offset="1" style="stop-color:#000;stop-opacity:0"/></linearGradient><linearGradient id="linearGradient3960-9"><stop id="stop3962-7" offset="0" style="stop-color:#000;stop-opacity:0"/><stop style="stop-color:#000;stop-opacity:1" id="stop3970-0" offset=".5"/><stop id="stop3964-8" offset="1" style="stop-color:#000;stop-opacity:0"/></linearGradient><radialGradient id="radialGradient3100" cx="9" cy="43.5" r="2" fx="9" fy="43.5" gradientTransform="matrix(1,0,0,0.75,-7,-5.125)" gradientUnits="userSpaceOnUse" xlink:href="#linearGradient3944-0"/><radialGradient id="radialGradient3103" cx="40" cy="43.5" r="2" fx="40" fy="43.5" gradientTransform="matrix(1,0,0,0.75,-10,-5.125)" gradientUnits="userSpaceOnUse" xlink:href="#linearGradient3952-7"/><radialGradient id="radialGradient3109" cx="9" cy="43.5" r="2" fx="9" fy="43.5" gradientTransform="matrix(1,0,0,0.75,-3,-2.125)" gradientUnits="userSpaceOnUse" xlink:href="#linearGradient3944"/><linearGradient id="linearGradient3120" x1="30.096" x2="30.096" y1="40.074" y2="10.239" gradientTransform="matrix(0.74092183,0,0,-0.40221422,-2.2990094,39.11836)" gradientUnits="userSpaceOnUse" xlink:href="#linearGradient3945"/><linearGradient id="linearGradient3129" x1="11" x2="11" y1="19" y2="9" gradientTransform="matrix(1.5254237,0,0,1.5254237,-0.7711825,-1.0342186)" gradientUnits="userSpaceOnUse" xlink:href="#linearGradient3107"/><linearGradient id="linearGradient3163" x1="138.805" x2="138.805" y1="162.857" y2="35.51" gradientTransform="matrix(0.12419355,0,0,0.12564103,-1.238722,-4.461562)" gradientUnits="userSpaceOnUse" xlink:href="#linearGradient3969"/><linearGradient id="linearGradient3165" x1="25" x2="25" y1="45" y2="42" gradientTransform="translate(-3,-13)" gradientUnits="userSpaceOnUse" xlink:href="#linearGradient3960"/><linearGradient id="linearGradient3167" x1="25" x2="25" y1="45" y2="42" gradientTransform="matrix(1.2727273,0,0,1,-9.454545,-16)" gradientUnits="userSpaceOnUse" xlink:href="#linearGradient3960-9"/><linearGradient id="linearGradient3930"><stop style="stop-color:#d7d7d7;stop-opacity:1" id="stop3932" offset="0"/><stop id="stop3934" offset=".751" style="stop-color:#c5c5c5;stop-opacity:1"/><stop id="stop3936" offset=".753" style="stop-color:#b6b6b6;stop-opacity:1"/><stop style="stop-color:#9b9b9b;stop-opacity:1" id="stop3938" offset="1"/></linearGradient><linearGradient id="linearGradient3157" x1="10.359" x2="10.421" y1="18.358" y2="5.292" gradientTransform="matrix(1.4618644,0,0,1.5254237,0.31694019,2.9345314)" gradientUnits="userSpaceOnUse" xlink:href="#linearGradient3930"/><radialGradient id="radialGradient3905" cx="4.672" cy="19" r="1" fx="4.672" fy="19" gradientTransform="matrix(-5.9999994e-7,-1.7924659,2.0966214,-7.0181121e-7,-32.820178,25.867301)" gradientUnits="userSpaceOnUse" xlink:href="#linearGradient4025"/><radialGradient id="radialGradient3912" cx="39.116" cy="43.618" r="2" fx="39.116" fy="43.618" gradientTransform="matrix(1,0,0,0.75,-14,-2.125)" gradientUnits="userSpaceOnUse" xlink:href="#linearGradient3952"/><linearGradient id="linearGradient3967" x1="138.805" x2="138.805" y1="138.98" y2="35.51" gradientTransform="matrix(0.12419355,0,0,0.12564103,-1.238722,-4.461562)" gradientUnits="userSpaceOnUse" xlink:href="#linearGradient3937"/><linearGradient id="linearGradient3846-7"><stop style="stop-color:#fff3cb;stop-opacity:1" id="stop3848-7" offset="0"/><stop style="stop-color:#fdde76;stop-opacity:1" id="stop3850-5" offset=".262"/><stop style="stop-color:#f9c440;stop-opacity:1" id="stop3852-9" offset=".661"/><stop style="stop-color:#e48b20;stop-opacity:1" id="stop3854-2" offset="1"/></linearGradient><linearGradient id="linearGradient3114" x1="24" x2="24" y1="-14.604" y2="54.67" gradientTransform="matrix(0.33334715,0,0,0.33231762,15.999669,16.695566)" gradientUnits="userSpaceOnUse" xlink:href="#linearGradient3846-7"/></defs><metadata id="metadata5019"/><g id="layer1"><path id="rect3938-8" d="m 2,26 28,0 0,3 -28,0 z" style="opacity:.4;fill:url(#linearGradient3167);fill-opacity:1;stroke:none"/><path id="rect3940-0" d="m 30,26 0,3 0.5,0 C 31.331,29 32,28.331 32,27.5 32,26.669 31.331,26 30.5,26 z" style="opacity:.4;fill:url(#radialGradient3103);fill-opacity:1;stroke:none"/><path id="rect3942-3" d="M 1.40625,26 C 0.6271875,26 0,26.627187 0,27.40625 l 0,0.1875 C 0,28.372813 0.6271875,29 1.40625,29 L 2,29 2,26 z" style="opacity:.4;fill:url(#radialGradient3100);fill-opacity:1;stroke:none"/><g id="g3907"><path style="opacity:.2;fill:url(#linearGradient3165);fill-opacity:1;stroke:none" id="rect3938" d="m 6,29 19,0 0,3 -19,0 z"/><path style="opacity:.20000000000000001;fill:url(#radialGradient3912);fill-opacity:1;stroke:none" id="rect3940" d="m 25,29 0,3 0.5,0 C 26.331,32 28,31.331 28,30.5 28,29.669 26.331,29 25.5,29 z"/><path style="opacity:.2;fill:url(#radialGradient3109);fill-opacity:1;stroke:none" id="rect3942" d="M 5.40625,29 C 4.6271875,29 4,29.627187 4,30.40625 l 0,0.1875 C 4,31.372813 4.6271875,32 5.40625,32 L 6,32 6,29 z"/></g><path id="path5908" d="M 7,4 7,5 25,5 25,4 z" style="opacity:.4;color:#bebebe;fill:#fff;fill-opacity:1;fill-rule:nonzero;stroke:none;stroke-width:0;marker:none;visibility:visible;display:inline;overflow:visible;enable-background:accumulate"/><path id="rect3145" d="M 1.5,15.5 1.5,26 C 1.569172,27.452611 3,27.5 3,27.5 l 26,0 c 0,0 1.515796,0.05338 1.5,-1.5 l 0,-10.5 -3.5,-4 -22,0 z" style="fill:url(#linearGradient3129);fill-opacity:1;stroke:none;display:inline"/><path style="fill:none;fill-opacity:1;stroke:#000;display:inline;stroke-opacity:1;opacity:.71" id="path3916" d="M 1.5,15.5 1.5,26 C 1.569172,27.452611 3,27.5 3,27.5 l 26,0 c 0,0 1.515796,0.05338 1.5,-1.5 l 0,-10.5 -3.5,-4 -22,0 z"/><path style="fill:url(#linearGradient3157);fill-opacity:1;stroke:none;display:inline" id="path3160" d="m 3.5,16 0,5.5 7.229167,0 6.169271,-2 11.601562,0 0,-3.5 -3.258333,-4.5 -18.4833337,0 z"/><path id="path3129" d="m 3.5,16 0,5.5 7.229167,0 6.169271,-2 11.601562,0 0,-3.5 -3.258333,-4.5 -18.4833337,0 z" style="opacity:.41000001;fill:none;stroke:#000;stroke-opacity:1;display:inline"/><path id="rect3937" d="m 4,16 24,0 0,-0.999999 -24,0 z" style="opacity:.4;fill:#fff;fill-opacity:1;stroke:none;display:inline"/><path id="rect3950" d="m 6.0000029,25.000002 19.9999961,0 0,-1.000003 -19.9999961,0 z" style="fill:#505050;fill-opacity:1;stroke:none;display:inline"/><path id="rect3952" d="M 7.0000033,23.000002 25,23.000002 25,24 7.0000033,24 z" style="opacity:.4;fill:#000;fill-opacity:1;stroke:none;display:inline"/><path id="rect3954" d="m 6.0000029,25.000002 19.9999961,0 0,0.999997 -19.9999961,0 z" style="opacity:.4;fill:#000;fill-opacity:1;stroke:none;display:inline"/><path id="path3953" d="m 25.5,30 c 0,0 -0.5,-2 -0.576146,-6 0,0 -9.186521,0 -17.8306299,0 C 7,28 6.5,30 6.5,30 z" style="opacity:.41000001;fill:none;stroke:#000;stroke-width:2;stroke-miterlimit:4;stroke-opacity:1;stroke-dasharray:none;display:inline"/><path style="fill:url(#linearGradient3120);fill-opacity:1;stroke:none;display:inline" id="path4030" d="m 25.5,30 c 0,0 -0.5,-2 -0.576146,-6 0,0 -9.186521,0 -17.8306299,0 C 7,28 6.5,30 6.5,30 z"/><path style="color:#bebebe;fill:none;fill-opacity:1;fill-rule:nonzero;stroke:#000;stroke-width:2;marker:none;visibility:visible;display:inline;overflow:visible;enable-background:accumulate;stroke-opacity:1;stroke-miterlimit:4;stroke-dasharray:none;opacity:.40999999999999998;stroke-linejoin:miter" id="path3961" d="M 7,4 25,4 25,14 7,14 z"/><path id="rect3882" d="M 7,4 25,4 25,14 7,14 z" style="color:#bebebe;fill:url(#linearGradient3967);fill-opacity:1;fill-rule:nonzero;stroke:none;stroke-width:0;marker:none;visibility:visible;display:inline;overflow:visible;enable-background:accumulate"/><path id="rect3921" d="M 7,4 7,5 25,5 25,4 z" style="opacity:.4;color:#bebebe;fill:#fff;fill-opacity:1;fill-rule:nonzero;stroke:none;stroke-width:0;marker:none;visibility:visible;display:inline;overflow:visible;enable-background:accumulate"/><g id="g3899" transform="matrix(0.74418605,0,0,0.74418605,1.2790697,4.116279)"><path style="fill:url(#radialGradient3905);fill-opacity:1;stroke:none" id="path4031" d="m 7.015625,19.484375 c -0.8284275,0 -1.5,-0.671573 -1.5,-1.5 0,-0.828427 0.6715725,-1.5 1.5,-1.5 0.8284275,0 1.5,0.671573 1.5,1.5 0,0.828427 -0.6715725,1.5 -1.5,1.5 z"/><path style="font-size:medium;font-style:normal;font-variant:normal;font-weight:400;font-stretch:normal;text-indent:0;text-align:start;text-decoration:none;line-height:normal;letter-spacing:normal;word-spacing:normal;text-transform:none;direction:ltr;block-progression:tb;writing-mode:lr-tb;text-anchor:start;baseline-shift:baseline;opacity:.61000001;color:#000;fill:#000;fill-opacity:1;stroke:none;stroke-width:.66666669;marker:none;visibility:visible;display:inline;overflow:visible;enable-background:accumulate;font-family:Sans;-inkscape-font-specification:Sans" id="path4041" d="M 9.03125,17.984375 C 9.03125,16.885728 8.1142715,15.96875 7.015625,15.96875 5.9169785,15.96875 5,16.885728 5,17.984375 5,19.083022 5.9169785,20 7.015625,20 8.1142715,20 9.03125,19.083022 9.03125,17.984375 z m -1.03125,0 C 8,18.542582 7.573832,18.96875 7.015625,18.96875 6.457418,18.96875 6.03125,18.542582 6.03125,17.984375 6.03125,17.426168 6.457418,17 7.015625,17 7.573832,17 8,17.426168 8,17.984375 z"/></g><rect id="rect3957" width="1" height="1" x="9" y="16" ry="0" style="opacity:.41000001;fill:#000;fill-opacity:1;stroke:none"/><rect id="rect3959" width="1" height="1" x="11" y="16" ry="0" style="opacity:.41000001;fill:#000;fill-opacity:1;stroke:none"/><path style="color:#bebebe;fill:url(#linearGradient3163);fill-opacity:1;fill-rule:nonzero;stroke:none;stroke-width:0;marker:none;visibility:visible;display:inline;overflow:visible;enable-background:accumulate" id="path3965" d="m 7,12 18,0 0,2 -18,0 z"/><rect id="rect3977" width="18" height="1" x="7" y="11" style="opacity:.41000001000000003;fill:#000;stroke:none;stroke-width:2;stroke-linejoin:miter;stroke-miterlimit:4;stroke-opacity:1;stroke-dasharray:none;fill-opacity:1"/></g><g id="layer2"><path id="path11155-5" d="M 31.393254,29.987939 24.882916,17.740261 c -0.187129,-0.340212 -0.525726,-0.52922 -0.902826,-0.52922 -0.377097,0 -0.717433,0.226806 -0.907401,0.567021 l -6.461862,12.247681 c -0.152103,0.302411 -0.153842,0.718228 0.03344,1.020639 C 16.831549,31.348796 17.132596,31.5 17.509696,31.5 l 12.972196,0 c 0.3771,0 0.717276,-0.189008 0.869383,-0.491419 0.189808,-0.302411 0.19139,-0.680427 0.04197,-1.020642 z" style="fill:url(#linearGradient3114);fill-opacity:1;fill-rule:nonzero;stroke:none"/><path id="path11155-8" d="M 31.393254,29.987939 24.882916,17.740261 c -0.187129,-0.340212 -0.525726,-0.52922 -0.902826,-0.52922 -0.377097,0 -0.717433,0.226806 -0.907401,0.567021 l -6.461862,12.247681 c -0.152103,0.302411 -0.153842,0.718228 0.03344,1.020639 C 16.831549,31.348796 17.132596,31.5 17.509696,31.5 l 12.972196,0 c 0.3771,0 0.717276,-0.189008 0.869383,-0.491419 0.189808,-0.302411 0.19139,-0.680427 0.04197,-1.020642 z" style="opacity:.81000001;fill:none;stroke:#744000;stroke-width:1;stroke-miterlimit:4;stroke-opacity:1;stroke-dasharray:none"/><path style="opacity:.3;fill:#fff;fill-opacity:1;stroke:none" id="path3884" d="m 23,21 0,4 0.5,3 1,0 0.5,-3 0,-4 z m 0,8 0,2 2,0 0,-2 z"/><path id="rect3870" d="m 23,20 0,4 0.5,3 1,0 0.5,-3 0,-4 z m 0,8 0,2 2,0 0,-2 z" style="fill:#1a1a1a;fill-opacity:1;stroke:none"/></g></svg>