<svg xmlns="http://www.w3.org/2000/svg" xmlns:osb="http://www.openswatchbook.org/uri/2009/osb" xmlns:svg="http://www.w3.org/2000/svg" id="svg2" width="16" height="16" enable-background="new" version="1.1"><metadata id="metadata90"/><defs id="defs7386"><linearGradient id="linearGradient5606" osb:paint="solid"><stop id="stop5608"/></linearGradient></defs><g id="g71291" transform="translate(-841.00015,43.000006)"><path id="path5843" fill="#bebebe" stroke-width="2" d="m 848.99999,-42 c 3.86599,0 7,3.13401 7,7 0,3.86599 -3.13401,7 -7,7 -3.86599,0 -7,-3.13401 -7,-7 0,-3.86599 3.13401,-7 7,-7 z m -2.46875,3 c -0.73437,0 -1.46875,0.44603 -1.53125,1.3125 -0.125,1.73294 1.5,-0.33848 3,0 0,-0.86647 -0.73438,-1.3125 -1.46875,-1.3125 z m 4.9375,0 c -0.73437,0 -1.46875,0.44603 -1.46875,1.3125 1.5,-0.33848 3.125,1.73294 3,0 C 852.93749,-38.55397 852.20311,-39 851.46874,-39 z m -2.46875,3 c -1.38071,0 -2.5,1.34315 -2.5,3 0,1.65685 1.11929,3 2.5,3 1.38071,0 2.5,-1.34315 2.5,-3 0,-1.65685 -1.11929,-3 -2.5,-3 z" color="#bebebe"/></g></svg>