<svg xmlns="http://www.w3.org/2000/svg" xmlns:osb="http://www.openswatchbook.org/uri/2009/osb" xmlns:svg="http://www.w3.org/2000/svg" id="svg2" width="16" height="16" enable-background="new" version="1.1"><metadata id="metadata90"/><defs id="defs7386"><linearGradient id="linearGradient5606" osb:paint="solid"><stop id="stop5608"/></linearGradient></defs><g id="g71291" transform="translate(-741.00021,63.000006)"><path id="path5107" fill="#bebebe" d="m 748.99998,-62 c -3.86599,0 -7,3.13401 -7,7 0,3.86599 3.13401,7 7,7 3.86599,0 7,-3.13401 7,-7 0,-3.86599 -3.13401,-7 -7,-7 z m -3,4 c 0.55404,0 1,0.44936 1,1 0,0.55064 -0.44596,1 -1,1 -0.55422,0 -1,-0.44936 -1,-1 0,-0.55064 0.44578,-1 1,-1 z m 6,0 c 0.55418,0 1,0.44936 1,1 0,0.55064 -0.44582,1 -1,1 -0.55418,0 -1,-0.44936 -1,-1 0,-0.55064 0.44582,-1 1,-1 z m -3,4 c 1.10826,0 2,0.89889 2,2 0,1.10129 -0.89174,2 -2,2 -1.10835,0 -2,-0.89871 -2,-2 0,-1.10111 0.89165,-2 2,-2 z" color="#bebebe"/></g></svg>