<svg xmlns="http://www.w3.org/2000/svg" xmlns:osb="http://www.openswatchbook.org/uri/2009/osb" xmlns:svg="http://www.w3.org/2000/svg" id="svg2" width="16" height="16" enable-background="new" version="1.1"><metadata id="metadata90"/><defs id="defs7386"><linearGradient id="linearGradient5606" osb:paint="solid"><stop id="stop5608"/></linearGradient></defs><g id="g71291" transform="translate(-720.99999,62.999998)"><path id="path7995" fill="#bebebe" d="m 728.99997,-61.999998 c 3.86599,0 7,3.13401 7,7 0,3.86599 -3.13401,7 -7,7 -3.86599,0 -7,-3.13401 -7,-7 0,-3.86599 3.13401,-7 7,-7 z m 3,4 c -0.55407,0 -1,0.44945 -1,1 0,0.55064 0.44593,1 1,1 0.55424,0 1,-0.44936 1,-1 0,-0.55055 -0.44576,-1 -1,-1 z m -6,0 c -0.55415,0 -1,0.44945 -1,1 0,0.55064 0.44585,1 1,1 0.55407,0 1,-0.44936 1,-1 0,-0.55055 -0.44593,-1 -1,-1 z m 3,5 c -1.7578,0 -3.1875,0.94455 -3.1875,1.5 0,0.12954 0.1084,0.26119 0.25,0.375 0.7011,-0.22517 1.746,-0.375 2.9375,-0.375 1.1915,0 2.2364,0.14983 2.9375,0.375 0.1413,-0.11381 0.25,-0.24546 0.25,-0.375 0,-0.55545 -1.4296,-1.5 -3.1875,-1.5 z" color="#bebebe"/></g></svg>