<svg xmlns="http://www.w3.org/2000/svg" xmlns:osb="http://www.openswatchbook.org/uri/2009/osb" xmlns:svg="http://www.w3.org/2000/svg" id="svg2" width="16" height="16" enable-background="new" version="1.1"><metadata id="metadata90"/><defs id="defs7386"><linearGradient id="linearGradient5606" osb:paint="solid"><stop id="stop5608"/></linearGradient></defs><g id="g71291" transform="translate(-781.0001,42.999998)"><path id="path7589" fill="#bebebe" d="m 788.99997,-42 c -3.86599,0 -7,3.13401 -7,7 0,3.86599 3.13401,7 7,7 3.86599,0 7,-3.13401 7,-7 0,-3.86599 -3.13401,-7 -7,-7 z m -3,4 c 0.55407,0 1,0.44945 1,1 0,0.55064 -0.44593,1 -1,1 -0.55424,0 -1,-0.44936 -1,-1 0,-0.55055 0.44576,-1 1,-1 z m 6,0 c 0.55415,0 1,0.44945 1,1 0,0.55064 -0.44585,1 -1,1 -0.55407,0 -1,-0.44936 -1,-1 0,-0.55055 0.44593,-1 1,-1 z m -7.21875,4.8125 c 0.98955,0.2849 2.53703,0.9375 4.21875,0.9375 1.68173,0 2.01045,0.0349 3,-0.25 0.19944,0.144 0.34375,0.30485 0.34375,0.46875 0,0.7028 -0.92509,1.21875 -3.40625,1.21875 -2.48102,0 -4.5,-1.20345 -4.5,-1.90625 0,-0.1639 0.14389,-0.32475 0.34375,-0.46875 z" color="#bebebe"/></g></svg>