<svg xmlns="http://www.w3.org/2000/svg" xmlns:osb="http://www.openswatchbook.org/uri/2009/osb" xmlns:svg="http://www.w3.org/2000/svg" id="svg2" width="16" height="16" enable-background="new" version="1.1"><metadata id="metadata90"/><defs id="defs7386"><linearGradient id="linearGradient5606" osb:paint="solid"><stop id="stop5608"/></linearGradient></defs><g id="g71291" transform="translate(-721.00021,42.99999)"><g id="g4920" transform="translate(-285.99998,-220.99999)"><path id="path7981" fill="#bebebe" stroke-width="2" d="m 488,387 c -3.86599,0 -7,3.13401 -7,7 0,3.86599 3.13401,7 7,7 3.86599,0 7,-3.13401 7,-7 0,-3.86599 -3.13401,-7 -7,-7 z m -3,4 c 0.5542,0 1,0.44949 1,1 0,0.55069 -0.4458,1 -1,1 -0.554,0 -1,-0.44931 -1,-1 0,-0.55051 0.446,-1 1,-1 z m 6,0 c 0.5541,0 1,0.44949 1,1 0,0.55069 -0.4459,1 -1,1 -0.5542,0 -1,-0.44931 -1,-1 0,-0.55051 0.4458,-1 1,-1 z m 0.6875,4.53125 c 0.21054,-0.01 0.6444,0.0372 0.84375,0.40625 0.2659,0.4922 -0.34375,1.125 -0.34375,1.125 0,0 -4.94695,1.35505 -4.96875,1.34375 -0.3863,-0.1995 -0.6263,-0.6356 -0.1875,-1.0625 0.03,-0.01 4.53085,-1.75825 4.53125,-1.78125 0,-0.006 0.0548,-0.0279 0.125,-0.0312 z" color="#bebebe" transform="translate(526.99996,-208.00001)"/></g></g></svg>