<svg xmlns="http://www.w3.org/2000/svg" xmlns:osb="http://www.openswatchbook.org/uri/2009/osb" xmlns:svg="http://www.w3.org/2000/svg" id="svg2" width="16" height="16" enable-background="new" version="1.1"><metadata id="metadata90"/><defs id="defs7386"><linearGradient id="linearGradient5606" osb:paint="solid"><stop id="stop5608"/></linearGradient></defs><g id="g71291" transform="translate(-761.00021,63.031279)"><path id="path5944" fill="#bebebe" d="m 768.99998,-62.03125 c -3.86599,0 -7,3.13401 -7,7 0,3.86599 3.13401,7 7,7 3.86599,0 7,-3.13401 7,-7 0,-3.86599 -3.13401,-7 -7,-7 z m -3,4.03125 c 0.55228,0 1,0.44772 1,1 0,0.55228 -0.44772,1 -1,1 -0.55228,0 -1,-0.44772 -1,-1 0,-0.55228 0.44772,-1 1,-1 z m 6,0 c 0.55228,0 1,0.44772 1,1 0,0.55228 -0.44772,1 -1,1 -0.55228,0 -1,-0.44772 -1,-1 0,-0.55228 0.44772,-1 1,-1 z m -6.6875,5 c 0.87981,0.30105 2.19228,0.5 3.6875,0.5 1.49522,0 2.80769,-0.19895 3.6875,-0.5 0.17732,0.15216 0.3125,0.32681 0.3125,0.5 0,1.25 -1.79401,2.5 -4,2.5 -2.20587,0 -4,-1.25 -4,-2.5 0,-0.17319 0.1348,-0.34784 0.3125,-0.5 z" color="#bebebe"/></g></svg>