<svg xmlns="http://www.w3.org/2000/svg" xmlns:svg="http://www.w3.org/2000/svg" id="svg2" width="24" height="24" version="1.0"><metadata id="metadata11"/><path id="path3170-4" fill-rule="evenodd" d="m 11,5 c -4.4159999,0 -8.0000002,3.5840001 -8,8 0,4.416 3.5840002,8 8,8 4.416,0 8,-3.584 8,-8 0,-4.4159999 -3.584,-7.9999998 -8,-8 z m 0,5 c 1.656,0 3,1.344 3,3 0,1.656 -1.344,3 -3,3 -1.656,0 -3,-1.344 -3,-3 10e-8,-1.656 1.344,-3 3,-3 z" opacity=".2"/><path id="path3170" fill="#fff" fill-rule="evenodd" d="m 11,4 c -4.4159999,0 -8.0000002,3.5840001 -8,8 0,4.416 3.5840002,8 8,8 4.416,0 8,-3.584 8,-8 0,-4.4159999 -3.584,-7.9999998 -8,-8 z m 0,5 c 1.656,10e-8 3,1.344 3,3 0,1.656 -1.344,3 -3,3 -1.656,0 -3,-1.344 -3,-3 10e-8,-1.656 1.344,-3 3,-3 z" opacity=".35"/><path id="path3288" fill="#fff" d="m 11,4 0,5 c 1.656,10e-8 3,1.344 3,3 0,1.656 -1.344,3 -3,3 -0.295765,0 -0.574348,-0.07591 -0.84375,-0.15625 L 8.5625,19.625 C 9.332845,19.872009 10.148169,20 11,20 c 4.416,0 8,-3.584 8,-8 0,-4.4159999 -3.584,-7.9999998 -8,-8 z"/></svg>